<svg xmlns="http://www.w3.org/2000/svg" viewBox="0 0 106.3 76.6"><path fill="none" d="M81.7 41.2c-.1 0-3.2 0-5 1.9-.9 1-2.5 1.1-3.5.1-1-.9-1.1-2.5-.1-3.5 1.6-1.7 3.5-2.5 5.2-3-2.7-2.8-6.5-4.5-10.5-4.5-7.3 0-13.3 5.4-14.3 12.4 3.7.9 7 3.1 9.2 6.4.8 1.1.5 2.7-.7 3.5-1.1.8-2.7.5-3.5-.7-2-2.9-5.2-4.6-8.7-4.6-5.8 0-10.5 4.7-10.5 10.5S44 70.2 49.8 70.2h32c8 0 14.5-6.5 14.5-14.5s-6.6-14.5-14.6-14.5zM51.4 36.1C50 31.1 45 28 39.9 29c-5.4 1.1-8.9 6.3-7.8 11.7.8 3.8 3.6 6.7 7.1 7.7 2.5-2.3 5.7-3.8 9.2-4.1.4-3 1.4-5.8 3-8.2z"/><path d="M34 16.4c.3 1.5 1.7 2.5 3.2 2.2 1.5-.3 2.5-1.7 2.2-3.2L37.2 4.2C36.9 2.7 35.5 1.7 34 2c-1.5.3-2.5 1.7-2.2 3.2L34 16.4zM22.2 31.9c.5-1.4-.3-3-1.7-3.5L9.6 24.7c-1.4-.5-3 .3-3.5 1.7s.3 3 1.7 3.5l10.9 3.7c1.5.5 3-.3 3.5-1.7zM25.7 51.9c-1-1.1-2.7-1.3-3.9-.3l-8.2 7.2c-1.1 1-1.3 2.7-.3 3.9 1 1.1 2.7 1.3 3.9.3l8.2-7.2c1.2-1.1 1.3-2.8.3-3.9zM60.8 24.8l7.9-6.9c1.1-1 1.3-2.7.3-3.9-1-1.1-2.7-1.3-3.9-.3l-7.9 6.9c-1.1 1-1.3 2.7-.3 3.9 1 1.1 2.8 1.3 3.9.3z"/><path d="M84.1 36.3c-.1-.2-.2-.5-.3-.7-3.6-5.3-9.6-8.4-16.1-8.4-4.6 0-8.9 1.6-12.2 4.4-3.1-5.9-9.8-9.3-16.7-7.9-8.4 1.7-13.8 9.8-12.2 18.2 1 5.2 4.6 9.3 9.1 11.2-1 2-1.5 4.3-1.5 6.7 0 8.5 7 15.5 15.5 15.5h32c10.8 0 19.5-8.7 19.5-19.5 0-10.1-7.5-18.3-17.1-19.5zM32 40.7c-1-5.4 2.5-10.6 7.9-11.7 5.1-1 10.1 2.1 11.5 7.1-1.6 2.4-2.6 5.2-3 8.2-3.5.3-6.8 1.8-9.2 4.1-3.5-1-6.4-3.9-7.2-7.7zm49.7 29.5h-32c-5.8 0-10.5-4.7-10.5-10.5s4.7-10.5 10.5-10.5c3.5 0 6.7 1.7 8.7 4.6.8 1.1 2.3 1.4 3.5.7 1.1-.8 1.4-2.3.7-3.5-2.2-3.2-5.5-5.5-9.2-6.4 1-7 7-12.4 14.3-12.4 4 0 7.7 1.7 10.5 4.5-1.7.5-3.6 1.3-5.2 3-.9 1-.9 2.6.1 3.5 1 .9 2.6.9 3.5-.1 1.8-1.9 5-1.9 5-1.9 8 0 14.5 6.5 14.5 14.5s-6.4 14.5-14.4 14.5z"/></svg>