<svg xmlns="http://www.w3.org/2000/svg" viewBox="0 0 106.3 76.6"><path d="M57.2 67.7c-17.4 0-31.5-14.1-31.5-31.5 0-12.7 7.5-24.1 19.2-29 .9-.4 1.8-.2 2.6.4.7.6 1.1 1.5.9 2.4-.4 2-.6 4.1-.6 6.2 0 16.8 13.7 30.5 30.5 30.5 1.6 0 3.2-.1 4.7-.4.9-.1 1.8.2 2.4 1 .6.7.6 1.7.2 2.6-5.2 10.8-16.4 17.8-28.4 17.8zM42.8 13.9C35.3 18.7 30.7 27 30.7 36.1c0 14.6 11.9 26.5 26.5 26.5 8.5 0 16.6-4.2 21.5-11h-.5c-19.6 0-35.5-15.9-35.5-35.5 0-.7 0-1.4.1-2.2zM95.5 1.9l1.7 8.4c.1.3.3.6.6.7l7.9 3.4c.8.3.8 1.4.1 1.8l-7.5 4.2c-.3.2-.5.5-.5.8l-.8 8.6c-.1.8-1.1 1.2-1.7.6L89 24.6c-.2-.2-.6-.3-.9-.2l-8.4 1.9c-.8.2-1.5-.6-1.1-1.4l3.6-7.8c.1-.3.1-.6 0-.9l-4.4-7.4c-.4-.7.2-1.6 1-1.5l8.5 1c.3 0 .7-.1.9-.3l5.7-6.4c.5-.8 1.5-.5 1.6.3zM8.5 56.1l4 4.1c.2.2.5.3.8.3l5.6-.9c.7-.1 1.3.6.9 1.3l-2.7 5c-.1.3-.1.6 0 .8l2.6 5.1c.3.7-.2 1.4-.9 1.3l-5.6-1c-.3-.1-.6 0-.8.2l-4 4.1c-.5.5-1.4.2-1.5-.5l-.8-5.7c0-.3-.2-.5-.5-.7L.5 67c-.7-.3-.6-1.3 0-1.6l5.1-2.5c.3-.1.4-.4.5-.7l.9-5.6c.1-.7 1-1 1.5-.5zM19.4.7l.9 5.1c0 .3.2.5.5.6l4.7 2.1c.6.3.6 1.1.1 1.4l-4.5 2.5c-.2.1-.4.4-.4.6l-.6 5c-.1.7-.9.9-1.3.5L15 15c-.2-.2-.5-.3-.7-.2l-5 1.1c-.6.1-1.2-.5-.9-1.1l2.2-4.6c.1-.2.1-.5 0-.7L8 4.9c-.3-.6.2-1.3.8-1.2l5.1.7c.3 0 .5-.1.7-.3L18 .3c.5-.5 1.3-.3 1.4.4z"/></svg>