<svg xmlns="http://www.w3.org/2000/svg" xml:space="preserve" viewBox="0 0 956.11 93"><path d="M41.28 93c-5.68 0-11.02-1.13-16.02-3.39-5-2.26-9.39-5.39-13.17-9.39-3.78-4-6.74-8.63-8.88-13.89C1.07 61.07 0 55.44 0 49.44c0-6.04 1.07-11.69 3.21-16.95 2.14-5.26 5.1-9.88 8.88-13.86 3.78-3.98 8.17-7.1 13.17-9.36S35.6 5.88 41.28 5.88c6.8 0 13.06 1.57 18.78 4.71 5.72 3.14 10.46 7.33 14.22 12.57l-14.76 7.98c-2.24-2.64-4.94-4.75-8.1-6.33-3.16-1.58-6.54-2.37-10.14-2.37-3.4 0-6.6.7-9.6 2.1-3 1.4-5.63 3.34-7.89 5.82-2.26 2.48-4.03 5.34-5.31 8.58-1.28 3.24-1.92 6.74-1.92 10.5 0 3.72.64 7.21 1.92 10.47 1.28 3.26 3.05 6.12 5.31 8.58s4.89 4.4 7.89 5.82 6.2 2.13 9.6 2.13c3.64 0 7.03-.8 10.17-2.4 3.14-1.6 5.83-3.72 8.07-6.36l14.76 8.04c-3.76 5.2-8.5 9.38-14.22 12.54C54.34 91.42 48.08 93 41.28 93zm72.06 0c-4.72 0-9.23-.74-13.53-2.22-4.3-1.48-8.06-3.62-11.28-6.42-3.22-2.8-5.53-6.12-6.93-9.96l15.54-5.76c.48 1.36 1.48 2.63 3 3.81 1.52 1.18 3.42 2.14 5.7 2.88 2.28.74 4.78 1.11 7.5 1.11 2.6 0 5.05-.39 7.35-1.17 2.3-.78 4.16-1.87 5.58-3.27s2.13-3.04 2.13-4.92-.74-3.44-2.22-4.68c-1.48-1.24-3.38-2.23-5.7-2.97-2.32-.74-4.7-1.31-7.14-1.71-6.04-.88-11.45-2.31-16.23-4.29-4.78-1.98-8.55-4.72-11.31-8.22-2.76-3.5-4.14-7.95-4.14-13.35 0-5.2 1.47-9.74 4.41-13.62 2.94-3.88 6.82-6.9 11.64-9.06s10.03-3.24 15.63-3.24c4.64 0 9.12.74 13.44 2.22 4.32 1.48 8.09 3.62 11.31 6.42 3.22 2.8 5.53 6.16 6.93 10.08l-15.54 5.64c-.48-1.36-1.48-2.62-3-3.78-1.52-1.16-3.42-2.1-5.7-2.82-2.28-.72-4.76-1.08-7.44-1.08-2.56-.04-4.99.34-7.29 1.14-2.3.8-4.18 1.9-5.64 3.3s-2.19 3-2.19 4.8c0 2.36.69 4.14 2.07 5.34 1.38 1.2 3.21 2.06 5.49 2.58 2.28.52 4.8.98 7.56 1.38 5.68.84 10.92 2.33 15.72 4.47 4.8 2.14 8.65 4.98 11.55 8.52 2.9 3.54 4.35 7.85 4.35 12.93 0 5.2-1.46 9.74-4.38 13.62-2.92 3.88-6.78 6.9-11.58 9.06S118.98 93 113.34 93zm70.74 0c-4.72 0-9.23-.74-13.53-2.22-4.3-1.48-8.06-3.62-11.28-6.42-3.22-2.8-5.53-6.12-6.93-9.96l15.54-5.76c.48 1.36 1.48 2.63 3 3.81 1.52 1.18 3.42 2.14 5.7 2.88 2.28.74 4.78 1.11 7.5 1.11 2.6 0 5.05-.39 7.35-1.17 2.3-.78 4.16-1.87 5.58-3.27s2.13-3.04 2.13-4.92-.74-3.44-2.22-4.68c-1.48-1.24-3.38-2.23-5.7-2.97-2.32-.74-4.7-1.31-7.14-1.71-6.04-.88-11.45-2.31-16.23-4.29-4.78-1.98-8.55-4.72-11.31-8.22-2.76-3.5-4.14-7.95-4.14-13.35 0-5.2 1.47-9.74 4.41-13.62 2.94-3.88 6.82-6.9 11.64-9.06s10.03-3.24 15.63-3.24c4.64 0 9.12.74 13.44 2.22 4.32 1.48 8.09 3.62 11.31 6.42 3.22 2.8 5.53 6.16 6.93 10.08l-15.54 5.64c-.48-1.36-1.48-2.62-3-3.78-1.52-1.16-3.42-2.1-5.7-2.82-2.28-.72-4.76-1.08-7.44-1.08-2.56-.04-4.99.34-7.29 1.14-2.3.8-4.18 1.9-5.64 3.3s-2.19 3-2.19 4.8c0 2.36.69 4.14 2.07 5.34 1.38 1.2 3.21 2.06 5.49 2.58 2.28.52 4.8.98 7.56 1.38 5.68.84 10.92 2.33 15.72 4.47 4.8 2.14 8.65 4.98 11.55 8.52 2.9 3.54 4.35 7.85 4.35 12.93 0 5.2-1.46 9.74-4.38 13.62-2.92 3.88-6.78 6.9-11.58 9.06S189.72 93 184.08 93zm93.6-.84c-3.88 0-7.41-.94-10.59-2.82a21.234 21.234 0 0 1-7.59-7.59c-1.88-3.18-2.82-6.71-2.82-10.59V56.52c0-1-.42-1.85-1.26-2.55-.84-.7-1.81-1.35-2.91-1.95-1.1-.6-2.06-1.31-2.88-2.13-.82-.82-1.23-1.85-1.23-3.09 0-1.16.41-2.15 1.23-2.97.82-.82 1.78-1.57 2.88-2.25 1.1-.68 2.07-1.36 2.91-2.04.84-.68 1.26-1.46 1.26-2.34V22.44c0-3.84.94-7.35 2.82-10.53 1.88-3.18 4.41-5.72 7.59-7.62 3.18-1.9 6.71-2.85 10.59-2.85h7.08V18h-7.08c-.84 0-1.6.2-2.28.6-.68.4-1.21.93-1.59 1.59-.38.66-.57 1.41-.57 2.25v15.3c-.08 1.28-.51 2.39-1.29 3.33s-1.58 1.86-2.4 2.76c-.82.9-1.35 1.89-1.59 2.97.24 1.24.77 2.28 1.59 3.12.82.84 1.62 1.71 2.4 2.61.78.9 1.21 2.01 1.29 3.33v15.3c0 .84.19 1.6.57 2.28.38.68.91 1.21 1.59 1.59.68.38 1.44.57 2.28.57h7.08v16.56h-7.08zm43.56-.72v-84h16.56v84h-16.56zm82.38-38.16v38.16h-16.56v-33.6c0-2.12-.51-4.03-1.53-5.73-1.02-1.7-2.38-3.05-4.08-4.05-1.7-1-3.59-1.5-5.67-1.5s-3.98.5-5.7 1.5c-1.72 1-3.08 2.35-4.08 4.05-1 1.7-1.5 3.61-1.5 5.73v33.6h-16.56l-.06-60h16.56l.06 4.44c2-1.92 4.35-3.42 7.05-4.5s5.55-1.62 8.55-1.62c4.36 0 8.31 1.06 11.85 3.18 3.54 2.12 6.37 4.95 8.49 8.49s3.18 7.49 3.18 11.85zm40.79 38.16v-84h33.36c4.56 0 8.69 1.15 12.39 3.45 3.7 2.3 6.64 5.38 8.82 9.24 2.18 3.86 3.27 8.13 3.27 12.81 0 3.68-.64 7.09-1.92 10.23-1.28 3.14-3.08 5.89-5.4 8.25-2.32 2.36-5.02 4.2-8.1 5.52l19.98 34.5h-19.08l-19.14-33h-7.62v33h-16.56zm16.56-49.56h14.82c1.8 0 3.45-.45 4.95-1.35 1.5-.9 2.7-2.12 3.6-3.66.9-1.54 1.35-3.25 1.35-5.13 0-1.84-.45-3.53-1.35-5.07-.9-1.54-2.1-2.77-3.6-3.69-1.5-.92-3.15-1.38-4.95-1.38h-14.82v20.28zM536.09 93c-5.52 0-10.55-1.42-15.09-4.26-4.54-2.84-8.16-6.66-10.86-11.46-2.7-4.8-4.05-10.1-4.05-15.9 0-4.36.78-8.45 2.34-12.27 1.56-3.82 3.71-7.18 6.45-10.08a29.99 29.99 0 0 1 9.57-6.81c3.64-1.64 7.52-2.46 11.64-2.46 4.76 0 9.11 1.02 13.05 3.06 3.94 2.04 7.28 4.82 10.02 8.34 2.74 3.52 4.7 7.5 5.88 11.94s1.37 9.06.57 13.86h-41.64c.52 1.76 1.33 3.35 2.43 4.77 1.1 1.42 2.46 2.55 4.08 3.39 1.62.84 3.49 1.28 5.61 1.32 2.08.04 4-.44 5.76-1.44 1.76-1 3.26-2.34 4.5-4.02l16.92 3.9c-2.44 5.32-6.08 9.67-10.92 13.05-4.84 3.38-10.26 5.07-16.26 5.07zm-12.72-38.28h25.5c-.52-2-1.4-3.8-2.64-5.4-1.24-1.6-2.73-2.86-4.47-3.78-1.74-.92-3.63-1.38-5.67-1.38-2 0-3.87.46-5.61 1.38-1.74.92-3.22 2.17-4.44 3.75-1.22 1.58-2.11 3.39-2.67 5.43zm96.36-23.28h16.56v60h-16.62l-.78-6.24c-1.56 2.32-3.56 4.2-6 5.64-2.44 1.44-5.3 2.16-8.58 2.16-4.48 0-8.66-.84-12.54-2.52-3.88-1.68-7.3-4-10.26-6.96a32.298 32.298 0 0 1-6.93-10.29c-1.66-3.9-2.49-8.09-2.49-12.57 0-4.28.78-8.28 2.34-12 1.56-3.72 3.76-7 6.6-9.84a31.34 31.34 0 0 1 9.81-6.66c3.7-1.6 7.69-2.4 11.97-2.4 3.68 0 6.99.78 9.93 2.34s5.51 3.54 7.71 5.94l-.72-6.6zM603.9 77.1c2.72 0 5.18-.7 7.38-2.1 2.2-1.4 3.94-3.29 5.22-5.67 1.28-2.38 1.92-5.01 1.92-7.89 0-2.92-.64-5.56-1.92-7.92-1.28-2.36-3.02-4.24-5.22-5.64-2.2-1.4-4.66-2.1-7.38-2.1-2.76 0-5.26.7-7.5 2.1-2.24 1.4-4.02 3.29-5.34 5.67-1.32 2.38-1.98 5.01-1.98 7.89s.67 5.51 2.01 7.89c1.34 2.38 3.13 4.27 5.37 5.67 2.23 1.4 4.71 2.1 7.44 2.1zm44.51 14.34v-90h16.56v90h-16.56zm59.76 0v-84h16.56v67.44h33.84v16.56h-50.4zm65.52-66.9c-2.4 0-4.42-.8-6.06-2.4-1.64-1.6-2.46-3.58-2.46-5.94 0-2.36.82-4.34 2.46-5.94 1.64-1.6 3.64-2.4 6-2.4s4.35.8 5.97 2.4c1.62 1.6 2.43 3.58 2.43 5.94 0 2.36-.79 4.34-2.37 5.94-1.58 1.6-3.57 2.4-5.97 2.4zm-8.4 6.9h16.56v60h-16.56v-60zm47.04-11.64v11.64h15.9V48h-15.9v43.44h-16.56V48h-6V31.44h6V19.8c0-3.64.9-6.95 2.7-9.93 1.8-2.98 4.21-5.37 7.23-7.17 3.02-1.8 6.35-2.7 9.99-2.7 2.68 0 5.32.55 7.92 1.65 2.6 1.1 4.92 2.81 6.96 5.13l-11.88 11.7c-.28-.64-.7-1.12-1.26-1.44-.56-.32-1.14-.48-1.74-.48-.92 0-1.71.31-2.37.93-.66.62-.99 1.39-.99 2.31zM860.99 93c-5.52 0-10.55-1.42-15.09-4.26-4.54-2.84-8.16-6.66-10.86-11.46-2.7-4.8-4.05-10.1-4.05-15.9 0-4.36.78-8.45 2.34-12.27 1.56-3.82 3.71-7.18 6.45-10.08a29.99 29.99 0 0 1 9.57-6.81c3.64-1.64 7.52-2.46 11.64-2.46 4.76 0 9.11 1.02 13.05 3.06 3.94 2.04 7.28 4.82 10.02 8.34 2.74 3.52 4.7 7.5 5.88 11.94s1.37 9.06.57 13.86h-41.64c.52 1.76 1.33 3.35 2.43 4.77 1.1 1.42 2.46 2.55 4.08 3.39 1.62.84 3.49 1.28 5.61 1.32 2.08.04 4-.44 5.76-1.44 1.76-1 3.26-2.34 4.5-4.02l16.92 3.9c-2.44 5.32-6.08 9.67-10.92 13.05-4.84 3.38-10.26 5.07-16.26 5.07zm-12.72-38.28h25.5c-.52-2-1.4-3.8-2.64-5.4-1.24-1.6-2.73-2.86-4.47-3.78-1.74-.92-3.63-1.38-5.67-1.38-2 0-3.87.46-5.61 1.38-1.74.92-3.22 2.17-4.44 3.75-1.22 1.58-2.11 3.39-2.67 5.43zm71.48 37.44V75.6h7.08c.84 0 1.6-.19 2.28-.57.68-.38 1.21-.91 1.59-1.59.38-.68.57-1.44.57-2.28v-15.3c.08-1.32.51-2.43 1.29-3.33.78-.9 1.58-1.77 2.4-2.61.82-.84 1.35-1.88 1.59-3.12-.2-1.08-.72-2.07-1.56-2.97s-1.65-1.82-2.43-2.76c-.78-.94-1.21-2.05-1.29-3.33v-15.3c0-.84-.19-1.59-.57-2.25a4.33 4.33 0 0 0-1.59-1.59c-.68-.4-1.44-.6-2.28-.6h-7.08V1.44h7.08c3.88 0 7.41.95 10.59 2.85 3.18 1.9 5.71 4.44 7.59 7.62 1.88 3.18 2.82 6.69 2.82 10.53V37.2c0 .88.42 1.66 1.26 2.34.84.68 1.81 1.36 2.91 2.04 1.1.68 2.06 1.43 2.88 2.25.82.82 1.23 1.81 1.23 2.97 0 1.24-.41 2.27-1.23 3.09-.82.82-1.78 1.53-2.88 2.13-1.1.6-2.07 1.25-2.91 1.95-.84.7-1.26 1.55-1.26 2.55v14.64c0 3.88-.94 7.41-2.82 10.59a21.234 21.234 0 0 1-7.59 7.59c-3.18 1.88-6.71 2.82-10.59 2.82h-7.08z"/></svg>