<svg xmlns="http://www.w3.org/2000/svg" xml:space="preserve" viewBox="0 0 832.74 520.88"><path fill="#FF1493" d="M-.008 269.546 155.617.004l25.772 14.88L25.764 284.426zM283 140.78l-10.03-30.68-37.12 17.01 4.65-40.56h-32.29l4.55 40.56-37.12-17.01-10.03 30.68 40.16 8.09-27.55 30.27 25.94 18.72 20.15-35.33 20.14 35.33 25.94-18.72-27.55-30.27z"/><path d="M331.11 394.35c-16.33 0-31.68-3.25-46.06-9.75-14.38-6.5-27-15.5-37.86-27-10.87-11.5-19.38-24.81-25.53-39.93-6.15-15.12-9.23-31.31-9.23-48.56 0-17.36 3.08-33.61 9.23-48.73 6.15-15.12 14.66-28.4 25.53-39.85 10.87-11.44 23.49-20.41 37.86-26.91 14.37-6.5 29.73-9.75 46.06-9.75 19.55 0 37.55 4.51 53.99 13.54 16.44 9.03 30.07 21.07 40.88 36.14l-42.44 22.94c-6.44-7.59-14.2-13.65-23.29-18.2-9.09-4.54-18.8-6.81-29.15-6.81-9.78 0-18.98 2.01-27.6 6.04-8.62 4.03-16.19 9.6-22.68 16.73-6.5 7.13-11.59 15.35-15.27 24.67-3.68 9.31-5.52 19.38-5.52 30.19 0 10.69 1.84 20.73 5.52 30.1 3.68 9.37 8.77 17.6 15.27 24.67s14.06 12.65 22.68 16.73 17.82 6.12 27.6 6.12c10.46 0 20.21-2.3 29.24-6.9 9.03-4.6 16.76-10.7 23.2-18.29l42.44 23.12c-10.81 14.95-24.44 26.97-40.88 36.05-16.44 9.1-34.44 13.64-53.99 13.64zm207.17 0c-13.57 0-26.54-2.13-38.9-6.38s-23.17-10.41-32.43-18.46c-9.26-8.05-15.9-17.59-19.92-28.63l44.68-16.56c1.38 3.91 4.25 7.56 8.62 10.95 4.37 3.39 9.83 6.15 16.39 8.28 6.56 2.13 13.74 3.19 21.56 3.19 7.47 0 14.52-1.12 21.13-3.36 6.61-2.24 11.96-5.37 16.04-9.4 4.08-4.02 6.12-8.74 6.12-14.15 0-5.4-2.13-9.89-6.38-13.46-4.26-3.56-9.72-6.41-16.39-8.54-6.67-2.13-13.51-3.77-20.53-4.92-17.37-2.53-32.92-6.64-46.66-12.33-13.74-5.69-24.58-13.57-32.52-23.63-7.94-10.06-11.9-22.86-11.9-38.38 0-14.95 4.23-28 12.68-39.16 8.45-11.15 19.61-19.84 33.47-26.05 13.86-6.21 28.83-9.31 44.94-9.31 13.34 0 26.22 2.13 38.64 6.38 12.42 4.26 23.26 10.41 32.52 18.46 9.25 8.05 15.9 17.71 19.92 28.98l-44.68 16.22c-1.38-3.91-4.26-7.53-8.62-10.87-4.37-3.33-9.83-6.04-16.39-8.11-6.56-2.07-13.69-3.1-21.39-3.1-7.36-.11-14.35.98-20.96 3.28-6.61 2.3-12.02 5.46-16.22 9.49-4.2 4.03-6.3 8.62-6.3 13.8 0 6.79 1.98 11.9 5.95 15.35 3.97 3.45 9.23 5.92 15.78 7.42 6.55 1.5 13.8 2.82 21.73 3.97 16.33 2.42 31.4 6.7 45.19 12.85 13.8 6.15 24.87 14.32 33.21 24.49 8.34 10.18 12.51 22.57 12.51 37.17 0 14.95-4.2 28-12.59 39.16-8.4 11.16-19.49 19.84-33.29 26.05-13.79 6.2-28.79 9.31-45.01 9.31zm203.38 0c-13.57 0-26.54-2.13-38.9-6.38s-23.17-10.41-32.43-18.46c-9.26-8.05-15.9-17.59-19.92-28.63l44.68-16.56c1.38 3.91 4.25 7.56 8.62 10.95 4.37 3.39 9.83 6.15 16.39 8.28 6.55 2.13 13.74 3.19 21.56 3.19 7.47 0 14.52-1.12 21.13-3.36 6.61-2.24 11.96-5.37 16.04-9.4 4.08-4.02 6.12-8.74 6.12-14.15 0-5.4-2.13-9.89-6.38-13.46-4.26-3.56-9.72-6.41-16.39-8.54-6.67-2.13-13.51-3.77-20.53-4.92-17.37-2.53-32.92-6.64-46.66-12.33-13.74-5.69-24.58-13.57-32.52-23.63-7.94-10.06-11.9-22.86-11.9-38.38 0-14.95 4.23-28 12.68-39.16 8.45-11.15 19.61-19.84 33.46-26.05 13.86-6.21 28.83-9.31 44.94-9.31 13.34 0 26.22 2.13 38.64 6.38 12.42 4.26 23.26 10.41 32.52 18.46 9.25 8.05 15.9 17.71 19.92 28.98l-44.68 16.22c-1.38-3.91-4.26-7.53-8.62-10.87-4.37-3.33-9.83-6.04-16.39-8.11s-13.69-3.1-21.39-3.1c-7.36-.11-14.35.98-20.96 3.28-6.61 2.3-12.02 5.46-16.21 9.49-4.2 4.03-6.3 8.62-6.3 13.8 0 6.79 1.98 11.9 5.95 15.35 3.97 3.45 9.23 5.92 15.78 7.42 6.55 1.5 13.8 2.82 21.74 3.97 16.33 2.42 31.39 6.7 45.19 12.85 13.8 6.15 24.87 14.32 33.21 24.49 8.34 10.18 12.51 22.57 12.51 37.17 0 14.95-4.2 28-12.59 39.16-8.4 11.16-19.49 19.84-33.29 26.05-13.8 6.2-28.81 9.31-45.02 9.31zM238.51 519.87c-3.45 0-6.6-.84-9.43-2.51s-5.08-3.93-6.76-6.76c-1.67-2.83-2.51-5.97-2.51-9.43v-13.03c-.04-.96-.44-1.75-1.2-2.38-.77-.62-1.66-1.19-2.67-1.71-1.02-.52-1.9-1.13-2.64-1.84-.75-.71-1.12-1.62-1.12-2.72 0-1.07.37-1.96 1.12-2.67.75-.71 1.63-1.34 2.64-1.9 1.02-.55 1.9-1.14 2.67-1.76.77-.62 1.17-1.36 1.2-2.22V457.8c0-3.42.84-6.54 2.51-9.38 1.67-2.83 3.93-5.09 6.76-6.78 2.83-1.69 5.97-2.54 9.43-2.54h5.77v13.03h-5.77c-1.03 0-1.98.25-2.83.75-.85.5-1.54 1.18-2.06 2.06a5.48 5.48 0 0 0-.77 2.86v13.57c-.07 1.21-.44 2.23-1.09 3.07-.66.84-1.38 1.64-2.16 2.4-.78.77-1.41 1.65-1.87 2.64.5 1.1 1.13 2.03 1.9 2.78s1.48 1.52 2.14 2.32c.66.8 1.02 1.81 1.09 3.02v13.57c0 1.07.25 2.03.75 2.88.5.85 1.17 1.53 2.03 2.03s1.82.75 2.88.75h5.77v13.03h-5.78zm38.24-.38v-74.78h13.03v74.78h-13.03zm70.94-33.76v33.76h-13.03v-30.34c0-2.1-.52-4.01-1.55-5.74-1.03-1.73-2.41-3.1-4.14-4.11-1.73-1.01-3.64-1.52-5.74-1.52s-4.02.51-5.74 1.52c-1.73 1.02-3.1 2.39-4.11 4.11-1.02 1.73-1.52 3.64-1.52 5.74v30.34h-13.03l-.05-53.42h13.03l.05 4.75c1.82-1.92 3.99-3.45 6.52-4.57 2.53-1.12 5.25-1.68 8.17-1.68 3.88 0 7.43.95 10.63 2.86 3.21 1.91 5.76 4.45 7.67 7.64 1.88 3.19 2.84 6.75 2.84 10.66zm36.32 33.76v-74.78h28.68c4.06 0 7.73 1.01 11 3.04 3.28 2.03 5.88 4.75 7.8 8.15 1.92 3.4 2.88 7.17 2.88 11.3 0 3.38-.61 6.49-1.84 9.32s-2.94 5.28-5.13 7.35c-2.19 2.07-4.71 3.63-7.56 4.7l17.89 30.93h-15.01l-17.31-29.75h-8.39v29.75h-13.01zm13.03-42.78h14.16c1.85 0 3.54-.46 5.07-1.39a10.66 10.66 0 0 0 3.69-3.74c.93-1.57 1.39-3.31 1.39-5.23 0-1.96-.46-3.72-1.39-5.29a10.66 10.66 0 0 0-3.69-3.74c-1.53-.93-3.22-1.39-5.07-1.39h-14.16v20.78zm67.79 44.17c-4.91 0-9.39-1.26-13.43-3.79-4.04-2.53-7.26-5.93-9.67-10.2-2.4-4.27-3.61-8.99-3.61-14.16 0-3.88.69-7.52 2.08-10.92 1.39-3.4 3.3-6.39 5.74-8.97 2.44-2.58 5.28-4.6 8.52-6.06 3.24-1.46 6.69-2.19 10.36-2.19 4.17 0 7.99.88 11.46 2.64 3.47 1.76 6.42 4.18 8.84 7.24 2.42 3.06 4.18 6.55 5.29 10.47 1.1 3.92 1.35 8.01.75 12.29h-39.05c.5 1.99 1.32 3.78 2.46 5.37 1.14 1.59 2.58 2.85 4.33 3.79 1.74.94 3.72 1.43 5.93 1.47 2.28.04 4.35-.51 6.22-1.63 1.87-1.12 3.43-2.64 4.67-4.57l13.3 3.1c-2.17 4.74-5.41 8.61-9.72 11.62-4.31 3-9.13 4.5-14.47 4.5zm-13.14-33.44h26.28a13.98 13.98 0 0 0-2.48-5.8 14.357 14.357 0 0 0-4.67-4.14c-1.85-1.03-3.85-1.55-5.98-1.55s-4.11.51-5.93 1.52c-1.82 1.01-3.36 2.39-4.62 4.11-1.28 1.74-2.14 3.69-2.6 5.86zm88.62-21.36h13.03v53.42h-13.03l-.59-6.62a17.298 17.298 0 0 1-5.8 5.8c-2.4 1.48-5.24 2.22-8.52 2.22-3.95 0-7.66-.75-11.11-2.24-3.45-1.5-6.49-3.56-9.11-6.2a28.957 28.957 0 0 1-6.14-9.13c-1.48-3.45-2.22-7.16-2.22-11.11 0-3.81.7-7.39 2.11-10.74 1.41-3.35 3.37-6.28 5.9-8.81a27.92 27.92 0 0 1 8.76-5.93c3.31-1.42 6.87-2.14 10.68-2.14 3.53 0 6.69.78 9.48 2.35 2.8 1.57 5.17 3.56 7.13 5.98l-.57-6.85zm-15.23 42.25c2.78 0 5.23-.69 7.37-2.08 2.14-1.39 3.81-3.27 5.02-5.64 1.21-2.37 1.82-4.98 1.82-7.83 0-2.88-.61-5.51-1.82-7.88s-2.89-4.25-5.05-5.63c-2.16-1.39-4.6-2.08-7.34-2.08s-5.24.7-7.51 2.11c-2.26 1.41-4.06 3.29-5.4 5.64-1.34 2.35-2 4.97-2 7.85s.68 5.5 2.03 7.85c1.35 2.35 3.16 4.22 5.42 5.61 2.27 1.39 4.76 2.08 7.46 2.08zm39.21 11.16v-80.13h13.03v80.13h-13.03zm51.49 0v-74.78h13.03v61.75h31.14v13.03h-44.17zm56.78-60.3c-1.92 0-3.54-.63-4.86-1.9-1.32-1.26-1.98-2.86-1.98-4.78 0-1.89.66-3.47 1.98-4.75 1.32-1.28 2.92-1.92 4.81-1.92s3.48.64 4.78 1.92c1.3 1.28 1.95 2.87 1.95 4.75 0 1.92-.64 3.52-1.92 4.78s-2.87 1.9-4.76 1.9zm-6.62 6.89h13.03v53.42h-13.03v-53.42zm38.94-11.22v11.22h14.58v13.03h-14.58v40.38h-13.03v-40.38h-5.82v-13.03h5.82v-11.22c0-3.06.76-5.87 2.27-8.41 1.51-2.55 3.55-4.58 6.12-6.09 2.56-1.51 5.4-2.27 8.49-2.27 2.24 0 4.47.46 6.68 1.39 2.21.93 4.17 2.35 5.88 4.27l-9.4 9.19c-.32-.6-.77-1.06-1.36-1.36-.59-.3-1.18-.45-1.79-.45-1.03 0-1.93.37-2.7 1.09-.78.73-1.16 1.61-1.16 2.64zm43.59 66.02c-4.91 0-9.39-1.26-13.43-3.79-4.04-2.53-7.26-5.93-9.67-10.2-2.4-4.27-3.61-8.99-3.61-14.16 0-3.88.69-7.52 2.08-10.92 1.39-3.4 3.3-6.39 5.74-8.97 2.44-2.58 5.28-4.6 8.52-6.06 3.24-1.46 6.69-2.19 10.36-2.19 4.17 0 7.99.88 11.46 2.64 3.47 1.76 6.42 4.18 8.84 7.24 2.42 3.06 4.18 6.55 5.29 10.47 1.1 3.92 1.35 8.01.75 12.29h-39.05c.5 1.99 1.32 3.78 2.46 5.37 1.14 1.59 2.58 2.85 4.33 3.79 1.74.94 3.72 1.43 5.93 1.47 2.28.04 4.35-.51 6.22-1.63s3.43-2.64 4.67-4.57l13.3 3.1c-2.17 4.74-5.41 8.61-9.72 11.62-4.31 3-9.13 4.5-14.47 4.5zm-13.14-33.44h26.28a13.98 13.98 0 0 0-2.48-5.8 14.357 14.357 0 0 0-4.67-4.14 12.119 12.119 0 0 0-5.98-1.55c-2.14 0-4.11.51-5.93 1.52-1.82 1.01-3.36 2.39-4.62 4.11-1.28 1.74-2.14 3.69-2.6 5.86zm65.3 32.43v-13.03h5.77c1.03 0 1.98-.25 2.83-.75s1.54-1.18 2.06-2.03c.52-.85.78-1.82.78-2.88V487.6c.07-1.21.43-2.22 1.07-3.02s1.35-1.58 2.14-2.32c.78-.75 1.41-1.67 1.87-2.78-.46-1-1.08-1.88-1.84-2.64-.77-.76-1.48-1.57-2.14-2.4-.66-.84-1.02-1.86-1.09-3.07V457.8c0-1.03-.26-1.99-.78-2.86-.52-.87-1.2-1.56-2.06-2.06-.85-.5-1.8-.75-2.83-.75h-5.77V439.1h5.77c3.45 0 6.6.85 9.43 2.54s5.08 3.95 6.76 6.78c1.67 2.83 2.51 5.96 2.51 9.38v13.14c.03.85.43 1.59 1.18 2.22.75.62 1.63 1.21 2.64 1.76 1.01.55 1.9 1.18 2.67 1.9.76.71 1.15 1.6 1.15 2.67 0 1.1-.38 2.01-1.15 2.72-.77.71-1.66 1.33-2.67 1.84-1.01.52-1.9 1.09-2.64 1.71-.75.62-1.14 1.42-1.18 2.38v13.03c0 3.45-.84 6.6-2.51 9.43s-3.93 5.08-6.76 6.76c-2.83 1.67-5.97 2.51-9.43 2.51h-5.78z"/></svg>