<svg xmlns="http://www.w3.org/2000/svg" xml:space="preserve" viewBox="0 0 280 300.2"><path d="M280 83c.2 20.7 0 60.3-2.8 80.3-6.4 81.3-132.9 74-191 62.7-5.5-1.1-6.2-.3-5.5 5.2 5 49.3 69.6 39.3 104.6 33.1 7.1-1.7 7.5-1.3 7.8 6.2.4 17 1.3 19.4-16.2 23.6-21.7 6.6-44 6.2-66.4 5.9-12.5-2.4-25.2-3.9-37.7-7C-14.4 268.4 2.2 157.4 0 86.6 8.2 15.7 52 4.3 115 0c70.3.5 153.2-6.8 165 83zm-51 52.9h-.1c0-13 .4-26-.1-39 .9-46.3-63-64-84.2-21.7-4.2 8-4.8 8-9.2 0-5.8-10.4-13.5-18.5-25.3-22-75.3-17-57.6 77.4-59.1 123.6-.6 9 16.9 3.7 22.7 5.1 7 0 7.4-.4 7.4-7.4 0-21.8 0-43.7.1-65.5-.5-12.5 3.2-26.5 17.8-27.6 34.9-2.5 24.4 41.7 26 63.8 0 6.2.5 6.7 6.5 6.7 5.7.1 11.3.1 17 0 5.9-.1 6.5-.6 6.5-6.7 1.6-22.2-8.9-66.9 26.5-63.7 14.3 1.4 17.9 15.3 17.5 27.6 0 22.2.1 44.3-.1 66.5-1 10.9 16.5 4.9 23.4 6.4 6.1-.1 6.7-.6 6.7-6.5.1-13.3 0-26.5 0-39.6z"/></svg>