<?xml version="1.0" encoding="utf-8"?>
<!-- Generator: Adobe Illustrator 22.1.0, SVG Export Plug-In . SVG Version: 6.00 Build 0)  -->
<svg version="1.1" id="Layer_1" xmlns="http://www.w3.org/2000/svg" xmlns:xlink="http://www.w3.org/1999/xlink" x="0px" y="0px"
	 viewBox="0 0 1200 700" enable-background="new 0 0 1200 700" xml:space="preserve">
<g>
	<path fill="#FF97EB" d="M631.2,233.2c-20.6-14-40.7-30.2-65.9-34.5c-20.7-3.5-44.2,2.8-55.9,20.2c-8.1,12.1-10,28.2-20.4,38.4
		c-18.5,17.9-52.5,7.2-71.7,24.2c-10.1,8.9-13.5,23.5-22.8,33.3c-18.3,19.6-55.5,17.1-67.4,41.1c-5.1,10.3-3.5,23,1.5,33.3
		c5,10.3,13.2,18.8,21.4,26.9c19.6,19.2,41,37.3,66,48.6s54.3,15.2,80.1,5.9c18.8-6.8,34.6-20.1,48.1-34.7c2.2-2.4,4.5-4.9,7.6-5.9
		c7.7-2.6,14.7,5,19.3,11.8c17.3,25.3,39.9,52.8,70.6,53.1c21,0.2,40.1-13.1,53.3-29.5c5.7-7,10.7-14.9,18.4-19.7
		c11.7-7.3,26.6-6,40.2-8.3c27.1-4.6,50.5-26,57.5-52.6s-2.8-56.8-24.1-74.1c15.5-9.6,19.2-31.9,11.8-48.6
		c-7.3-16.6-23.1-28.1-39.6-35.7c-21-9.6-44.3-14.3-67.3-13.4C681.6,213.4,629.2,218.3,631.2,233.2z"/>
</g>
<g display="none">
	<g display="inline">
		<g>
			<path d="M494,308.4c-9.4,4.4-17.7,12.3-26,18.6c-8.7,6.6-17.5,13.2-26.2,19.8c-2.6,2-3.1,5.9,0,7.8
				c17.4,10.6,32.9,23.6,46.3,38.9c3.8,4.4,10.2-2,6.4-6.4c-13.9-15.8-30.1-29.4-48.1-40.3c0,2.6,0,5.2,0,7.8
				c8.7-6.6,17.5-13.2,26.2-19.8c8.3-6.3,16.6-14.1,26-18.6C503.8,313.7,499.2,306,494,308.4L494,308.4z"/>
		</g>
	</g>
	<g display="inline">
		<g>
			<path d="M579.5,335.9c-5.2-9.9-16.7-15.6-27.7-13.5c-11.3,2.1-20.5,12.4-21.4,23.9c-0.9,12.3,10.3,21,21.7,15.1
				c11.5-5.9,15.7-21.2,17.3-33c2.4-17.5,1.6-35.4-1.2-52.8c-0.8-5-9.3-3.9-8.8,1.2c1.7,18.2,4.9,36.3,9.8,53.9
				c2.4,8.8,5.2,17.5,8.5,25.9c2.2,5.7,6.7,13.4,14,10.5c5.3-2.1,3-10.8-2.4-8.7c-3,1.2-12.8-35.6-13.7-39.3
				c-3.4-13.9-5.8-28.1-7.1-42.4c-2.9,0.4-5.9,0.8-8.8,1.2c2.2,13.7,2.8,27.6,1.8,41.4c-0.8,10.7-2.4,24.6-10.9,32.2
				c-4.4,4-10.7,3.5-11.1-3.3c-0.2-5.2,2.8-10.3,6.6-13.5c8.5-7,20.8-3.8,25.8,5.6C574.5,345.6,582.2,341,579.5,335.9L579.5,335.9z"
				/>
		</g>
	</g>
	<g display="inline">
		<g>
			<path d="M595.8,332.9c0.4,9.2,0.8,18.4,1.3,27.7c0.3,5.8,9.3,5.8,9,0c-0.4-9.2-0.8-18.4-1.3-27.7
				C604.5,327.2,595.5,327.1,595.8,332.9L595.8,332.9z"/>
		</g>
	</g>
	<g display="inline">
		<g>
			<path d="M596.1,302c5.8,0,5.8-9,0-9C590.3,293,590.3,302,596.1,302L596.1,302z"/>
		</g>
	</g>
	<g display="inline">
		<g>
			<path d="M619.3,332c5.7,15,12.3,29.5,19.8,43.6c2.3,4.4,7.9,1.7,8.4-2.3c1.9-14.4,8.5-27.7,18.5-38.1c4-4.2-2.3-10.5-6.4-6.4
				c-11.8,12.3-19,27.6-21.2,44.5c2.8-0.8,5.6-1.5,8.4-2.3c-7.2-13.4-13.5-27.3-18.9-41.5C625.9,324.2,617.2,326.6,619.3,332
				L619.3,332z"/>
		</g>
	</g>
	<g display="inline">
		<g>
			<path d="M681.8,287.1c22.7,22,45.3,44,68,66.1c0-2.1,0-4.2,0-6.4c-27.9,24.9-54.8,51-80.5,78.1c-4,4.2,2.4,10.6,6.4,6.4
				c25.7-27.2,52.6-53.2,80.5-78.1c1.8-1.6,1.7-4.7,0-6.4c-22.7-22-45.3-44-68-66.1C684,276.7,677.6,283,681.8,287.1L681.8,287.1z"
				/>
		</g>
	</g>
</g>
<g>
	<g>
		<path fill="#3E00FF" d="M497.8,285.6c-12.4,13.5-24.7,27-37.1,40.4c-6,6.5-12.6,12.8-18.1,19.8c-5.2,6.6-1.7,12.3,3.4,17.6
			c10.5,10.8,24.2,17.6,36.7,25.7c13.4,8.8,25.4,19.5,35.9,31.6c5.1,5.9,13.5-2.7,8.5-8.5c-9.3-10.8-19.8-20.3-31.3-28.7
			c-11.2-8.1-23.9-14.1-34.7-22.7c-2.5-2-4.9-4.2-7.2-6.6c-0.7-0.8-1.4-1.5-2.1-2.3c0.1,0.4,0.1,0.8,0.2,1.2c0.4-1.4,2.9-3.2,4-4.3
			c5.7-6.3,11.5-12.5,17.2-18.8c11-12,22.1-24.1,33.1-36.1C511.5,288.4,503,279.9,497.8,285.6L497.8,285.6z"/>
	</g>
</g>
<g>
	<g>
		<path fill="#3E00FF" d="M563.6,332.4c-11.1-8.8-26.8-10.7-38.8-2.4c-10.8,7.5-20.3,22.7-15.4,36.1c5.3,14.5,22.5,16.4,32.9,5.8
			c5-5.1,7.8-12,10.3-18.5c2.9-7.5,5-15.3,6.5-23.3c3.5-18.3,4-37,3.7-55.5c-0.1-6.5-10.8-8.5-11.8-1.6c-3.5,24.9-5.3,50-5.1,75.1
			c0.1,8.6,1,20.3,10.7,23.5c7.6,2.5,17.7-2.3,17.1-11.2c-0.5-7.7-12.5-7.7-12,0c0,0.1,1,0-0.2-0.2c-1-0.2-0.9,0.1-1.8-0.7
			c-1.9-1.6-1.7-5.8-1.8-8.1c-0.3-8.2,0-16.5,0.2-24.8c0.6-16.9,2.1-33.8,4.4-50.6c-3.9-0.5-7.9-1.1-11.8-1.6
			c0.2,14.8,0.1,29.6-2,44.3c-1.9,13.6-4.9,29.1-12.3,40.9c-2.6,4.2-9,10.3-13.9,5.5c-4.4-4.3-2.2-11.4,0.4-16
			c6.5-11.2,20.8-17.3,32-8.4C561,345.6,569.6,337.2,563.6,332.4L563.6,332.4z"/>
	</g>
</g>
<g>
	<g>
		<path fill="#3E00FF" d="M592.9,331.6c-2.3,12.4-4.6,24.8-7,37.1c-1.4,7.5,10.1,10.8,11.6,3.2c2.3-12.4,4.6-24.8,7-37.1
			C605.9,327.2,594.3,324,592.9,331.6L592.9,331.6z"/>
	</g>
</g>
<g>
	<g>
		<path fill="#3E00FF" d="M587.6,304.4c0,0.6,0,1.1,0,1.7c0,1.5,0.7,3.2,1.8,4.2c1,1,2.7,1.8,4.2,1.8c1.6-0.1,3.2-0.6,4.2-1.8
			c1.1-1.2,1.8-2.6,1.8-4.2c0-0.6,0-1.1,0-1.7c0-1.5-0.7-3.2-1.8-4.2c-1-1-2.7-1.8-4.2-1.8c-1.6,0.1-3.2,0.6-4.2,1.8
			C588.3,301.3,587.6,302.8,587.6,304.4L587.6,304.4z"/>
	</g>
</g>
<g>
	<g>
		<path fill="#3E00FF" d="M617.8,324.7c0.5,20.6,5.4,40.6,14.6,59.1c2,4,8.3,3.8,10.4,0c9.8-18.6,19.7-37.1,29.5-55.7
			c3.6-6.8-6.7-12.9-10.4-6.1c-9.8,18.6-19.7,37.1-29.5,55.7c3.5,0,6.9,0,10.4,0c-8.2-16.6-12.6-34.6-13-53.1
			C629.6,317,617.6,317,617.8,324.7L617.8,324.7z"/>
	</g>
</g>
<g>
	<g>
		<path fill="#3E00FF" d="M680.9,279.7c4.5,11.2,11.9,20.4,20.5,28.9c8.3,8.2,18.9,15.9,25.4,25.8c2,3.1-0.7,5.9-2.2,8.9
			c-1.8,3.5-3.6,7.1-5.4,10.6c-3.6,7.1-7.2,14.1-10.9,21.2c-3.6,7.1-7.2,14.1-10.9,21.2c-3.7,7.3-6.9,15.6-11.6,22.2
			c1.2-0.9,2.4-1.8,3.6-2.8c-0.4,0.1-0.7,0.3-1.1,0.4c2.3,0.9,4.5,1.8,6.8,2.8c-0.1-0.2-0.3-0.4-0.4-0.5c0.2,1.5,0.4,3.1,0.6,4.6
			c0.1-0.2,0.2-0.4,0.2-0.7c-1.9,1.5-3.9,2.9-5.8,4.4c0.2,0,0.3,0,0.5,0.1c7.7,0.8,7.6-11.2,0-12c-0.2,0-0.3,0-0.5-0.1
			c-2.7-0.3-5,2.1-5.8,4.4c-0.7,2-0.5,4.1,0.7,5.8c1.5,2.1,4.1,3.7,6.8,2.8c4.1-1.4,5.3-4.1,7.2-7.7c2.1-4.1,4.2-8.2,6.3-12.3
			c3.9-7.6,7.8-15.3,11.8-22.9c4.1-7.9,8.2-15.9,12.2-23.8c2-3.8,3.9-7.6,5.9-11.5c1.8-3.4,4.1-7.1,4.9-10.9
			c1.3-6.8-4.1-12.3-8.2-17c-4.6-5.2-9.7-9.9-14.7-14.7c-9.4-8.8-19.4-18-24.3-30.3C689.6,269.5,678,272.6,680.9,279.7L680.9,279.7z
			"/>
	</g>
</g>
<g>
	<g>
		<g>
			<path fill="#DD26B6" d="M216.7,192.8c-0.3-0.3-0.7-0.7-1-1c-0.8-0.8-2-1.3-3.2-1.3c-1.1,0-2.4,0.5-3.2,1.3
				c-0.8,0.9-1.4,2-1.3,3.2c0.1,1.2,0.5,2.3,1.3,3.2c0.3,0.3,0.7,0.7,1,1c0.8,0.8,2,1.3,3.2,1.3c1.1,0,2.4-0.5,3.2-1.3
				c0.8-0.9,1.4-2,1.3-3.2C217.9,194.8,217.5,193.7,216.7,192.8L216.7,192.8z"/>
		</g>
	</g>
	<g>
		<g>
			<path fill="#DD26B6" d="M231.3,148c-0.9,14.7,0.2,29.3,3.2,43.8c1.1,5.1,8.7,3.7,8.8-1.2c0.2-4.6,0.2-9.6,2.2-13.8
				c0.7-1.6,2-3.7,3.6-4.6c3.1-1.7,4.5,0.9,5.4,3.7c2.6,8.3-3.8,17.8-12.9,14.2c-5.4-2.1-7.7,6.6-2.4,8.7c7.1,2.8,15.4,0.3,20.3-5.4
				c5.7-6.6,5.8-16.2,2.2-23.8c-4-8.2-12.3-9.6-19.1-3.6c-7.1,6.2-8,15.8-8.3,24.7c2.9-0.4,5.9-0.8,8.8-1.2
				c-2.8-13.6-3.8-27.5-2.9-41.4C240.7,142.2,231.7,142.2,231.3,148L231.3,148z"/>
		</g>
	</g>
	<g>
		<g>
			<path fill="#DD26B6" d="M300.2,166.9c-4-5.8-11.6-12.3-18.4-6.2c-6.3,5.7-9,17.7-9.4,25.8c-0.4,8.4,6.3,12.3,13.1,6.8
				c6.9-5.5,10.6-13.3,11.7-21.9c-2.9,0.4-5.9,0.8-8.8,1.2c3.1,14.5,5.4,29.1,6.9,43.8c0.4,4.3,2.7,13.3-0.8,16.8
				c-2.3,2.4-5.9,0.3-7.6-1.9c-1.9-2.6-2.5-6.3-2.9-9.4c-0.6-5.7-9.7-5.8-9,0c0.9,8.1,3.3,16.9,11.6,20.2c7.7,3.1,15.6-1,17.7-9
				c2.4-9.1-0.3-20.1-1.6-29.3c-1.5-11.3-3.4-22.5-5.8-33.7c-1.1-5.4-8.2-3.4-8.8,1.2c-0.5,3.8-2,7.4-4.2,10.5
				c-0.9,1.3-3.4,2.9-4,4.3c-1.4,0.8-0.9,1.5,1.3,2.1c0-0.9,0-1.8,0.2-2.7c0.4-4.5,1.7-9,3.5-13.1c0.5-1.1,1.2-3.7,2.2-4.3
				c2.5-1.5,4,1.5,5.2,3.3C295.6,176.2,303.4,171.7,300.2,166.9L300.2,166.9z"/>
		</g>
	</g>
	<g>
		<g>
			<path fill="#DD26B6" d="M318.7,175.4c5.7-2.3,11.4-4.5,17.1-6.8c5.3-2.1,3-10.8-2.4-8.7c-5.7,2.3-11.4,4.5-17.1,6.8
				C311,168.8,313.3,177.5,318.7,175.4L318.7,175.4z"/>
		</g>
	</g>
	<g>
		<g>
			<path fill="#DD26B6" d="M353.9,165c0.5,15.7,2.2,31.4,5.1,46.8c2.9-0.8,5.8-1.6,8.7-2.4c-4.6-15.5-9.8-35.2-4.8-51.2
				c1-3.1,2.7-7.2,5.5-9.2c2.1-1.5,2.1-0.9,2.9,1.4c0.5,1.6,0.7,3.3,0.9,5c0.4,3.6,0.5,7.4-0.3,11c-0.4,1.9-1,3.7-2.1,5.3
				c-1.2,2-3.1,2.7-2.9,5.1c-0.6-5.7-9.6-5.8-9,0c0.7,6.2,6.6,9.6,12.3,6.7c5-2.6,8.4-8.1,9.9-13.4c2.4-8.2,3.2-29.5-8.6-31.5
				c-6-1-10.8,4.6-13.7,9.1c-3.3,5.2-4.8,11.4-5.4,17.5c-1.5,15.4,2.3,31.8,6.6,46.4c1.7,5.6,9.7,3.2,8.7-2.4
				c-2.7-14.7-4.3-29.5-4.8-44.4C362.7,159.2,353.7,159.2,353.9,165L353.9,165z"/>
		</g>
	</g>
	<g>
		<g>
			<path fill="#DD26B6" d="M382,161c0,4,0,8,0,12c0,5.8,9,5.8,9,0c0-4,0-8,0-12C391,155.2,382,155.2,382,161L382,161z"/>
		</g>
	</g>
	<g>
		<g>
			<path fill="#DD26B6" d="M392.8,141.8c-0.3-1-0.7-2-1-3c-0.4-1.1-1-2.1-2.1-2.7c-1-0.6-2.4-0.8-3.5-0.5c-2.2,0.7-3.9,3.1-3.1,5.5
				c0.3,1,0.7,2,1,3c0.4,1.1,1,2.1,2.1,2.7c1,0.6,2.4,0.8,3.5,0.5C391.9,146.6,393.6,144.2,392.8,141.8L392.8,141.8z"/>
		</g>
	</g>
	<g>
		<g>
			<path fill="#DD26B6" d="M399.1,150c-0.7,7.4,0,14.8,2,22c1.3,4.7,9.3,4,8.8-1.2c-0.5-5.8-0.2-11.6,1.3-17.3
				c0.7-2.5,1.5-5.1,2.5-7.5c0.5-1.2,1.7-2.7,2-4c0.3-0.5,0.6-1,0.8-1.5c-2.2,0-2.8,0.6-1.9,1.8c0,2.2,3,5.8,4.1,7.9
				c1.5,2.9,3,5.8,4.5,8.7c3,5.8,6,11.7,9,17.5c2.7,5.1,10.4,0.6,7.8-4.5c-4.2-8.2-8.4-16.3-12.6-24.5c-2.5-4.9-5.8-16.1-12.9-15.4
				c-6.4,0.6-9.4,10.8-11.1,15.9c-2.4,7.4-3.2,15.2-2.5,22.9c2.9-0.4,5.9-0.8,8.8-1.2c-1.8-6.5-2.3-12.9-1.6-19.6
				C408.7,144.3,399.7,144.3,399.1,150L399.1,150z"/>
		</g>
	</g>
	<g>
		<g>
			<path fill="#DD26B6" d="M443.5,109c1.6,21.4,4,42.8,7,64.1c0.8,5.7,9.5,3.3,8.7-2.4c-3-20.5-5.2-41.1-6.7-61.7
				C452.1,103.3,443.1,103.2,443.5,109L443.5,109z"/>
		</g>
	</g>
	<g>
		<g>
			<path fill="#DD26B6" d="M466.2,129.8c-1.2,5.7-4.1,8.9-8,12.9c-3.3,3.3-3,7-1.3,11.1c3.8,9,10.4,16.2,18.8,21.1
				c5,2.9,9.5-4.8,4.5-7.8c-3.6-2.1-6.9-4.7-9.6-7.9c-1.7-2-6.1-7.1-5.8-9.7c0.2-1.5,4.3-4.7,5.6-6.5c2.3-3.2,3.8-6.9,4.6-10.8
				C476.1,126.6,467.4,124.2,466.2,129.8L466.2,129.8z"/>
		</g>
	</g>
</g>
<g>
	<g>
		<g>
			<path fill="#37CAE2" d="M869.9,130.9c-0.7,0.2-1.5,0.3-2.2,0.5c-1.1,0.2-2.1,1.1-2.7,2.1c-0.6,1-0.8,2.4-0.5,3.5
				c0.8,2.4,3.1,3.7,5.5,3.1c0.7-0.2,1.5-0.3,2.2-0.5c1.1-0.2,2.1-1.1,2.7-2.1c0.6-1,0.8-2.4,0.5-3.5
				C874.6,131.6,872.3,130.4,869.9,130.9L869.9,130.9z"/>
		</g>
	</g>
	<g>
		<g>
			<path fill="#37CAE2" d="M894,146.4c3.6-7.5,9.9-12.4,18-14c-1.8-1.8-3.7-3.7-5.5-5.5c-1.5,6.5-3.4,12.9-5.4,19.2
				c-1.3,4.1,3.3,6.6,6.6,5.1c7.9-3.6,15.8-7.3,23.7-10.9c-2.2-1.7-4.4-3.4-6.6-5.1c-1.6,6.9-3.6,13.7-5.9,20.4
				c-1.9,5.5,6.8,7.8,8.7,2.4c2.3-6.7,4.3-13.5,5.9-20.4c0.9-4.1-3.1-6.7-6.6-5.1c-7.9,3.6-15.8,7.3-23.7,10.9
				c2.2,1.7,4.4,3.4,6.6,5.1c2.1-6.3,3.9-12.7,5.4-19.2c0.8-3.5-2.2-6.2-5.5-5.5c-10.2,2.1-18.9,8.8-23.4,18.2
				C883.7,147,891.4,151.6,894,146.4L894,146.4z"/>
		</g>
	</g>
	<g>
		<g>
			<path fill="#37CAE2" d="M957.9,113.5c-8.3,17.9-16.7,35.8-25,53.7c2.7,1.2,5.5,2.3,8.2,3.5c1.9-5.7,5.6-10.2,10.2-14
				c2-1.7,4.4-3.5,6.8-4.6c2-0.9,3.9-2.2,5,0.2c0.5,1.2-0.4,3.3-0.9,4.4c-2.1,5.1-6,9.7-10.7,12.6c-2.1,1.3-4.5,2.3-7,2.7
				c-0.9,0.1-8.6-0.7-7.4-1.7c4.5-3.6-1.9-9.9-6.4-6.4c-3.8,3-3.9,8.6-1,12.2c3.3,4.2,9.5,5.3,14.6,4.9c11.2-1,21-9.6,25.6-19.6
				c2.2-4.8,3.3-10.3,0.3-15c-3.1-4.9-8.8-5.7-13.8-3.6c-10.8,4.5-20.5,14.3-24.1,25.5c-1.6,4.8,6.1,8.1,8.2,3.5
				c8.3-17.9,16.7-35.8,25-53.7C968.1,112.8,960.3,108.2,957.9,113.5L957.9,113.5z"/>
		</g>
	</g>
	<g>
		<g>
			<path fill="#37CAE2" d="M978.5,173.8c5.6,4.4,11.5,8.2,17.9,11.2c5.2,2.5,9.8-5.3,4.5-7.8c-5.7-2.7-11.1-5.9-16.1-9.8
				C980.4,163.9,974,170.2,978.5,173.8L978.5,173.8z"/>
		</g>
	</g>
	<g>
		<g>
			<path fill="#37CAE2" d="M1030.9,172.1c4-1.2,8.1-2.5,12.1-3.7c-1.7-2.2-3.4-4.4-5.1-6.6c-8.6,17.7-19.1,34.4-31.4,49.7
				c2.5,1.5,5,2.9,7.5,4.4c0.2-0.6,0.4-1.3,0.6-1.9c1.8-5.5-6.9-7.9-8.7-2.4c-0.2,0.6-0.4,1.3-0.6,1.9c-1.3,4.1,4.7,7.9,7.5,4.4
				c12.9-15.9,23.9-33.1,32.8-51.6c1.6-3.3-1.1-7.8-5.1-6.6c-4,1.2-8.1,2.5-12.1,3.7C1023,165.2,1025.3,173.9,1030.9,172.1
				L1030.9,172.1z"/>
		</g>
	</g>
	<g>
		<g>
			<path fill="#37CAE2" d="M995.5,209.3c4.5,3.1,8.9,6.5,13,10.1c1.8,1.5,3.5,3.1,5.2,4.7c1.1,1,2.1,2,3.1,3.1
				c0.6,0.6,1.7,2.5,1.5,1.5c0.4-1.5,0.8-2.9,1.2-4.4c-0.2,0.2-0.4,0.4-0.6,0.6c1.8-0.2,3.6-0.5,5.5-0.7c-0.2-0.1-0.4-0.2-0.7-0.3
				c-5.3-2.3-9.8,5.5-4.5,7.8c0.2,0.1,0.4,0.2,0.7,0.3c1.9,0.8,3.9,0.8,5.5-0.7c5.5-5.4-2.7-11.3-6.4-14.7
				c-5.9-5.5-12.2-10.4-18.7-15C995.3,198.2,990.7,206,995.5,209.3L995.5,209.3z"/>
		</g>
	</g>
</g>
<g>
	<g>
		<g>
			<path fill="#3E00FF" d="M60.1,526.3c0.3-1,0.7-2,1-3c0.4-1.1,0.1-2.5-0.5-3.5c-0.5-0.9-1.6-1.8-2.7-2.1c-2.5-0.6-4.7,0.8-5.5,3.1
				c-0.3,1-0.7,2-1,3c-0.4,1.1-0.1,2.5,0.5,3.5c0.5,0.9,1.6,1.8,2.7,2.1C57.1,530,59.3,528.7,60.1,526.3L60.1,526.3z"/>
		</g>
	</g>
	<g>
		<g>
			<path fill="#3E00FF" d="M110.9,458.3c-10.6,15.8-21.5,33.9-26,52.5c-1.7,7-3.3,17.2,1.9,23.1c4.8,5.5,12.8,4.5,19.2,2.8
				c5.6-1.6,3.2-10.3-2.4-8.7c-2.4,0.7-5.4,1.6-7.9,1c-3.4-0.8-3.3-4.4-3.2-7.4c0.1-7.2,2.6-14.1,5.4-20.6
				c5.7-13.4,12.8-26.1,20.9-38.2C121.9,458,114.1,453.5,110.9,458.3L110.9,458.3z"/>
		</g>
	</g>
	<g>
		<g>
			<path fill="#3E00FF" d="M97.3,498.6c7.3-2.7,14.7-4.1,22.5-4.2c5.8-0.1,5.8-9.1,0-9c-8.5,0.1-16.8,1.6-24.9,4.5
				C89.6,491.8,91.9,500.5,97.3,498.6L97.3,498.6z"/>
		</g>
	</g>
	<g>
		<g>
			<path fill="#3E00FF" d="M118.8,522.1c10.3-1.8,28.3-4.8,30-17.8c0.6-4.8-1.3-9.7-5.8-11.9c-5.7-2.8-11.8,0.6-15.9,4.6
				c-8.6,8.2-16.3,22.3-7.8,33.2c8.4,10.9,23.1,8.2,34.2,4c5.4-2,3-10.7-2.4-8.7c-6.6,2.5-14.5,5.4-21.3,1.9
				c-7.7-4-5.3-12.9-1.1-18.7c2-2.7,4.7-6.2,7.8-7.7c4.9-2.4,3.8,3.3,1.6,5.4c-5.1,4.8-15.1,5.9-21.6,7.1
				C110.7,514.4,113.1,523.1,118.8,522.1L118.8,522.1z"/>
		</g>
	</g>
	<g>
		<g>
			<path fill="#3E00FF" d="M182.1,509.3c-5.8-0.7-9.8,3.7-13.5,7.6c-5.2,5.5-10.5,11.1-15.7,16.6c-4,4.2,2.4,10.6,6.4,6.4
				c3.9-4.1,7.7-8.2,11.6-12.3c2.6-2.7,7.1-9.8,11.2-9.3C187.8,519,187.8,510,182.1,509.3L182.1,509.3z"/>
		</g>
	</g>
	<g>
		<g>
			<path fill="#3E00FF" d="M160.3,503.1c-0.3,16.8,7.6,32.2,20.9,42.3c4.6,3.5,9.1-4.3,4.5-7.8c-10.8-8.1-16.7-21.1-16.5-34.5
				C169.4,497.4,160.4,497.4,160.3,503.1L160.3,503.1z"/>
		</g>
	</g>
	<g>
		<g>
			<path fill="#3E00FF" d="M208.7,479.7c-3.4,9.1-6.7,18.3-10.1,27.4c-3.2,8.7-7.4,17.6-9.2,26.7c-1.5,7.3-1.1,15,4,20.9
				c4.2,5,10.6,7.5,17,5.6c5.5-1.7,3.2-10.4-2.4-8.7c-5.9,1.8-10.1-4.4-10.4-9.6c-0.4-6.8,2.7-13.5,5-19.7
				c4.9-13.4,9.8-26.8,14.8-40.2C219.4,476.7,210.7,474.3,208.7,479.7L208.7,479.7z"/>
		</g>
	</g>
	<g>
		<g>
			<path fill="#3E00FF" d="M201,527.9c6-1.2,12.1-2.4,18.1-3.6c5.7-1.1,3.3-9.8-2.4-8.7c-6,1.2-12.1,2.4-18.1,3.6
				C192.9,520.3,195.3,529,201,527.9L201,527.9z"/>
		</g>
	</g>
	<g>
		<g>
			<path fill="#3E00FF" d="M231.5,548.8c4.6-1.1,9.2-2.1,13.8-3.2c5.6-1.3,3.3-10-2.4-8.7c-4.6,1.1-9.2,2.1-13.8,3.2
				C223.5,541.5,225.9,550.1,231.5,548.8L231.5,548.8z"/>
		</g>
	</g>
	<g>
		<g>
			<path fill="#3E00FF" d="M276.7,504.5c-7.1,21.3-14.3,42.7-21.4,64c-1.7,4.9,5.6,7.7,8.2,3.5c6.3-10.3,13.7-22.9,26.5-25.5
				c1-0.2,2-0.5,2.2,0c0.2,0.5-2,3.9-2.2,4.4c-1.5,2.7-3.1,5.5-5,8c-1.9,2.5-4.1,4.8-6.8,6.4c-1.4,0.9-2.9,1.6-4.5,2
				c-0.9,0.2-3.7-0.1-3.4,1.2c-0.2,1.2-0.3,2.3-0.5,3.5c0.1-0.3,0.3-0.5,0.4-0.8c2.7-5.1-5.1-9.7-7.8-4.5c-2.1,4,0,8.1,4.2,9.5
				c4.7,1.6,10.5-0.1,14.7-2.3c5-2.6,8.8-6.7,12-11.3c3-4.3,7.1-10.2,7.8-15.6c1.8-13.3-15-9.6-21.9-5.9
				c-10.7,5.8-17.4,16.4-23.6,26.5c2.7,1.2,5.5,2.3,8.2,3.5c7.1-21.3,14.3-42.7,21.4-64C287.2,501.4,278.6,499,276.7,504.5
				L276.7,504.5z"/>
		</g>
	</g>
	<g>
		<g>
			<path fill="#3E00FF" d="M294.6,576c23.3-17.5,39.3-43.4,43.6-72.3c0.6-3.8-4.4-8.4-7.5-4.4c-11.8,15.3-19.4,33.2-22.2,52.3
				c-1.2,8.4-3,19-0.3,27.2c2.3,7,10.9,10.8,16.6,5.2c4.1-4.1-2.2-10.4-6.4-6.4c-1.5,1.5-2.2-6.9-2.2-7.6c0-3.3,0.1-6.6,0.4-9.9
				c0.5-6.5,1.6-12.9,3.3-19.1c3.4-12.8,9.1-24.9,17.3-35.4c-2.5-1.5-5-2.9-7.5-4.4c-4,26.5-18,50.8-39.5,67
				C285.5,571.7,290,579.5,294.6,576L294.6,576z"/>
		</g>
	</g>
	<g>
		<g>
			<path fill="#3E00FF" d="M332.4,557c-3.2,5.4-5.1,11.4-5.5,17.7c-0.4,5.3,0,12.6,4.2,16.5c9.8,9,23.2-8.9,27.8-16.2
				c-2.6-1.5-5.2-3-7.8-4.5c-3.8,6.3-6.3,14.8-3.9,22.1c2,6,8.7,9.5,14.4,6c4.9-3,0.4-10.8-4.5-7.8c-2.1,1.3-1.6-7-1.5-7.4
				c0.5-3,1.7-5.7,3.3-8.3c3-5-4.7-9.4-7.8-4.5c-2,3.1-4.1,6-6.7,8.6c-1.4,1.4-2.9,2.9-4.6,4c-1.7,1.1-2.2,1.9-3.3-0.2
				c-1.4-2.6-0.8-7.5-0.3-10.3c0.6-4,2.1-7.6,4.1-11.1C343.1,556.6,335.3,552,332.4,557L332.4,557z"/>
		</g>
	</g>
	<g>
		<g>
			<path fill="#3E00FF" d="M373.6,590.8c7.2,1.8,15.5,1.3,21.8-3c4.8-3.3,8.2-9.5,5.3-15.2c-6.3-12.2-23.4-5-29.8,2.9
				c-8,9.9-8.7,25,0.5,34.4c12,12.2,29.4,5.4,42.2-1.2c5.1-2.7,0.6-10.4-4.5-7.8c-7.9,4.1-17.8,9.4-26.9,5.7
				c-7.4-3.1-10-11.7-7.8-18.9c1.8-5.8,6.8-11.9,13.3-12.5c1.2-0.1,3.8-0.1,4.6,1c1.4,1.9-1.3,3.7-2.7,4.6c-4,2.4-9.2,2.5-13.6,1.4
				C370.4,580.7,368,589.4,373.6,590.8L373.6,590.8z"/>
		</g>
	</g>
</g>
<g>
	<g>
		<g>
			<path fill="#FF1D58" d="M734.2,585.9c-0.4-0.6-0.8-1.3-1.2-1.9c-0.6-1-1.6-1.8-2.7-2.1c-1.1-0.3-2.5-0.2-3.5,0.5
				c-1,0.6-1.8,1.5-2.1,2.7c-0.3,1.2-0.2,2.4,0.5,3.5c0.4,0.6,0.8,1.3,1.2,1.9c0.6,1,1.6,1.8,2.7,2.1c1.1,0.3,2.5,0.2,3.5-0.5
				c1-0.6,1.8-1.5,2.1-2.7C734.9,588.2,734.8,587,734.2,585.9L734.2,585.9z"/>
		</g>
	</g>
	<g>
		<g>
			<path fill="#FF1D58" d="M734.1,523c2.1,21.5,5.8,42.7,11.4,63.6c1.4,5.1,8.5,3.7,8.8-1.2c0.7-9.5,1.5-19.1,6.1-27.6
				c-2.4,0.3-4.7,0.6-7.1,0.9c5.7,4.9,7.3,12.4,10.4,19c2.2,4.6,8.3,11.8,13.4,5.8c3.7-4.4-2.6-10.8-6.4-6.4
				c-0.2,0.2-0.4,0.5-0.6,0.7c1.1-0.4,2.1-0.9,3.2-1.3c-1.3,0.1-5.1-11.4-5.8-12.9c-1.9-4.3-4.3-8.2-7.9-11.3
				c-2.1-1.8-5.6-1.8-7.1,0.9c-5.4,10-6.5,21-7.4,32.2c2.9-0.4,5.9-0.8,8.8-1.2c-5.3-20.1-9-40.5-11-61.2
				C742.5,517.3,733.5,517.3,734.1,523L734.1,523z"/>
		</g>
	</g>
	<g>
		<g>
			<path fill="#FF1D58" d="M788.5,544.5c-0.8-0.5-1.7-1-2.5-1.5c-2.4-1.4-6-0.2-6.6,2.7c-1.9,9.5-1.4,19.3,2.3,28.2
				c3.1,7.3,10.4,10.6,16.4,4.1c12.1-13.2,5.6-33.3-10.4-39.4c-5.4-2.1-7.8,6.6-2.4,8.7c8.9,3.4,12.8,13.9,8,22.2
				c-0.4,0.7-1.3,2.5-2.1,2.7c-0.3,0.1,0.3,0.5-0.7-0.6c-1.3-1.5-1.8-4.9-2.3-6.7c-1.3-5.5-1.3-11.2-0.1-16.8
				c-2.2,0.9-4.4,1.8-6.6,2.7c0.8,0.5,1.7,1,2.5,1.5C789,555.2,793.5,547.4,788.5,544.5L788.5,544.5z"/>
		</g>
	</g>
	<g>
		<g>
			<path fill="#FF1D58" d="M801.3,541.9c3.9,10.1,9.6,19.1,17.3,26.8c2.3,2.3,6.9,1.4,7.5-2c2.8-14.4,4.2-29,4-43.8
				c-0.1-5.8-9.1-5.8-9,0c0.2,13.9-1,27.7-3.7,41.4c2.5-0.7,5-1.3,7.5-2c-6.5-6.6-11.6-14.2-15-22.8
				C807.9,534.2,799.2,536.5,801.3,541.9L801.3,541.9z"/>
		</g>
	</g>
	<g>
		<g>
			<path fill="#FF1D58" d="M838.1,546.5c9.1-3.2,18.1-12.8,16.5-23.2c-0.7-4.5-4.6-7.9-9.3-6.6c-5.4,1.5-7.9,7.8-9.3,12.6
				c-3.1,10.5-0.5,23.1,9.4,29.2c8.7,5.4,21,2.7,25.6-6.8c2.5-5.2-5.2-9.7-7.8-4.5c-2.2,4.5-7.4,6.4-12.1,4.3
				c-5-2.4-7.5-8.1-7.5-13.4c0-3,0.7-6,1.8-8.7c0.2-0.5,2-3.2,1.9-3.5c-1.2-4.4-1.8,0.4-1.8,0.8c-0.9,5.3-4.9,9.6-9.9,11.3
				C830.3,539.8,832.7,548.5,838.1,546.5L838.1,546.5z"/>
		</g>
	</g>
	<g>
		<g>
			<path fill="#FF1D58" d="M867.7,521.1c0.6,9.8,2.5,19.3,5.8,28.5c2.7-1.2,5.5-2.3,8.2-3.5c-6.7-12-4-27.3,6.1-36.4
				c4.3-3.9-2.1-10.3-6.4-6.4c-13.1,11.9-16.1,32-7.5,47.3c2.4,4.3,10,1.4,8.2-3.5c-3.1-8.5-5-17.1-5.5-26.1
				C876.3,515.4,867.3,515.3,867.7,521.1L867.7,521.1z"/>
		</g>
	</g>
	<g>
		<g>
			<path fill="#FF1D58" d="M904.3,504.7c-0.7-0.6-1.4-1.2-2.2-1.8c-0.9-0.8-1.9-1.3-3.2-1.3c-1.1,0-2.4,0.5-3.2,1.3
				c-0.8,0.9-1.4,2-1.3,3.2c0.1,1.1,0.4,2.4,1.3,3.2c0.7,0.6,1.4,1.2,2.2,1.8c0.9,0.8,1.9,1.3,3.2,1.3c1.1,0,2.4-0.5,3.2-1.3
				c0.8-0.9,1.4-2,1.3-3.2C905.6,506.7,905.2,505.4,904.3,504.7L904.3,504.7z"/>
		</g>
	</g>
	<g>
		<g>
			<path fill="#FF1D58" d="M907.7,530c-0.7-0.3-1.4-0.6-2.1-0.8c-1-0.4-2.6-0.1-3.5,0.5c-0.9,0.5-1.8,1.6-2.1,2.7
				c-0.3,1.2-0.2,2.4,0.5,3.5c0.2,0.3,0.5,0.6,0.7,0.9c0.6,0.6,1.2,0.9,2,1.2c0.7,0.3,1.4,0.6,2.1,0.8c1,0.4,2.6,0.1,3.5-0.5
				c0.9-0.5,1.8-1.6,2.1-2.7c0.3-1.2,0.2-2.4-0.5-3.5c-0.2-0.3-0.5-0.6-0.7-0.9C909.1,530.6,908.5,530.2,907.7,530L907.7,530z"/>
		</g>
	</g>
	<g>
		<g>
			<path fill="#FF1D58" d="M916.8,463c4,19.3,8.1,38.6,12.1,57.9c1.2,5.7,9.9,3.3,8.7-2.4c-1.2-5.6-1.3-11.3-0.1-16.9
				c0.5-2.5,3.5-14.7,7-10.8c3.1,3.5,4.7,11.4,5,15.8c0.2,2.7,0.2,6.2-1.3,8.7c-0.8,1.3-3.7,3.7-4.4,1.1c-1.4-5.6-10.1-3.2-8.7,2.4
				c2.3,9.5,14.4,9.7,19.7,2.7c6.9-9.2,3.1-23.4-1.4-32.8c-4.3-9-14.4-11.3-20-2c-6.1,10.1-7.1,23-4.7,34.3c2.9-0.8,5.8-1.6,8.7-2.4
				c-4-19.3-8.1-38.6-12.1-57.9C924.3,454.9,915.6,457.3,916.8,463L916.8,463z"/>
		</g>
	</g>
	<g>
		<g>
			<path fill="#FF1D58" d="M984,488.8c-1.2-6.8-6-15.4-14.3-12.4c-8.5,3.1-9.2,16.1-9.4,23.6c-0.2,6.3,1.4,20.6,11.5,16.6
				c8.1-3.2,10.3-17.4,10.9-24.9c-2.8,0.8-5.6,1.5-8.4,2.3c4.7,9.8,8,20.3,9.2,31.1c0.6,4.9,0.7,9.9,0.5,14.8c0,0.8-0.7,3.6-0.3,4.4
				c0.2-0.3,0.4-0.7,0.6-1c-0.3-0.5-0.7-1-1-1.5c-1.1-2.6-2.3-4.8-2.9-7.6c-1.3-5.6-10-3.3-8.7,2.4c1.4,6,4.7,14.8,11.7,16.3
				c8.7,1.9,9.5-7.9,9.7-13.9c0.5-17.2-3.5-34.2-11-49.7c-2.1-4.3-8.1-1.8-8.4,2.3c-0.4,4.8-1.5,9.7-3.7,14
				c-0.4,0.9-0.9,1.8-1.6,2.6c1.5,0,1.8-0.6,1.1-1.8c0.5-1.8-0.2-4.6-0.2-6.5c0.1-4.1,0.2-9.2,2-13.1c2.2-4.8,3.5,2,3.9,4.3
				C976.3,496.9,985,494.5,984,488.8L984,488.8z"/>
		</g>
	</g>
	<g>
		<g>
			<path fill="#FF1D58" d="M1002.4,493.9c4.8-1.8,9.5-3.5,14.3-5.3c5.4-2,3.1-10.7-2.4-8.7c-4.8,1.8-9.5,3.5-14.3,5.3
				C994.6,487.3,996.9,496,1002.4,493.9L1002.4,493.9z"/>
		</g>
	</g>
	<g>
		<g>
			<path fill="#FF1D58" d="M1040.3,488.3c-3.2-10.5-5.7-21.2-7.3-32c-0.6-4.5-1.3-9.3,3.4-11.9c4.8-2.6,11.2-3.5,16.5-3.9
				c5.7-0.4,5.8-9.4,0-9c-11.4,0.8-27.6,3.5-29.2,17.3c-0.7,6.3,1,13,2.2,19.1c1.5,7.7,3.4,15.3,5.7,22.8
				C1033.3,496.2,1042,493.9,1040.3,488.3L1040.3,488.3z"/>
		</g>
	</g>
	<g>
		<g>
			<path fill="#FF1D58" d="M1056.3,468.8c9.8-3.7,16.7-12.6,17-23.2c0.1-4.1-0.7-9.5-4.9-11.5c-4.7-2.2-9.7,0.5-11.9,4.8
				c-2.7,5.1-3.3,12.5-3,18.1c0.3,5.6,1.9,11.1,5.6,15.4c8.7,10.4,21.4,6.7,31.9,1.5c5.2-2.6,0.6-10.4-4.5-7.8
				c-5.7,2.8-13.3,6.7-19,2c-4.9-4.1-5.3-11.2-4.6-17.1c0.2-1.7,0.4-3.4,0.8-5c0.3-1.2,0.4-3.1,0.6-3.9c-0.5-0.9-0.5-0.7-0.1,0.5
				c0.1,0.5,0.1,1,0.2,1.5c0.1,1.4-0.1,2.8-0.4,4.2c-1.2,5.2-5,9.8-10,11.6C1048.6,462.1,1050.9,470.8,1056.3,468.8L1056.3,468.8z"
				/>
		</g>
	</g>
	<g>
		<g>
			<path fill="#FF1D58" d="M1101.4,448.9c-2.9-4.5-8.1-6.2-13.2-4.6c-5.7,1.9-9.1,8.1-10.3,13.6c-1.3,5.4-0.7,11.8,4.2,15.3
				c4.2,3,10,2.8,14.4,0.3c11.6-6.5,11.9-25.4,11.8-36.9c-0.1-8-0.8-16.1-1.7-24c-0.7-6.6-1.6-13-5.1-18.7c-2.5-4-7.9-2-8.4,2.3
				c-1.6,14.7-0.3,29.7,4.1,43.9c2.8,9,8.8,28.7,22,24.4c5.5-1.8,3.1-10.5-2.4-8.7c-6.7,2.2-12.2-22.2-13.2-26.6
				c-2.4-10.8-2.8-21.9-1.5-33c-2.8,0.8-5.6,1.5-8.4,2.3c4.2,6.8,4.1,15.7,4.8,23.4c0.7,8.3,1.2,16.6,0.4,24.9
				c-0.5,5.4-1.5,18.7-8.8,19.6c-10,1.2,0.5-17.7,3.6-13C1096.7,458.3,1104.5,453.8,1101.4,448.9L1101.4,448.9z"/>
		</g>
	</g>
</g>
<g>
	<g>
		<g>
			<path fill="#FF1D58" d="M75.1,367.4c-0.3-0.3-0.6-0.6-0.9-0.9c-0.8-0.8-2-1.3-3.2-1.3c-1.1,0-2.4,0.5-3.2,1.3
				c-0.8,0.9-1.4,2-1.3,3.2c0.1,1.2,0.5,2.3,1.3,3.2c0.3,0.3,0.6,0.6,0.9,0.9c0.8,0.8,2,1.3,3.2,1.3c1.1,0,2.4-0.5,3.2-1.3
				c0.8-0.9,1.4-2,1.3-3.2C76.3,369.4,75.9,368.2,75.1,367.4L75.1,367.4z"/>
		</g>
	</g>
	<g>
		<g>
			<g>
				<g>
					<path fill="#FF1D58" d="M85,344.8c2.7,16.2,5.9,32.4,9.6,48.4c2.9-0.8,5.8-1.6,8.7-2.4c-2-8.2-3.7-16.4-5-24.7
						c-1.1-6.9-2.6-14.5-1.4-21.5c0.5-2.9,1.9-4.7,3.2-7.2c1.6-1.1,1.5-1.3-0.4-0.6c0.4,0.6,0.6,1.2,0.8,1.8c0.6,1.5,0.9,3,1,4.6
						c0.5,6-2.2,11.4-6.8,15.1c2.4,0.3,4.7,0.6,7.1,0.9c-1.1-0.9-1.4-2-0.9-3.3c0.6-5.7-8.4-5.7-9,0c-0.3,2.9,0.4,5.5,2.1,7.9
						c1.9,2.5,4.6,2.9,7.1,0.9c7-5.5,10.3-14.6,9.3-23.3c-1-8-7-18.6-15.7-11.1c-6.8,5.9-7.6,15.8-6.8,24.2
						c1.2,13.1,3.7,26.1,6.8,38.8c1.4,5.6,10,3.2,8.7-2.4c-3.7-16-6.9-32.2-9.6-48.4C92.7,336.7,84.1,339.1,85,344.8L85,344.8z"/>
				</g>
			</g>
			<g>
				<g>
					<path fill="#FF1D58" d="M131.4,326.1c-1.5,6-3,11.9-4.6,17.9c-0.8,2.8-1.5,5.6-2.3,8.4c-0.3,1.2-0.7,2.5-1.1,3.7
						c-0.1,0.2-1.9,4.6-0.3,3.7c1.8,0.2,3.6,0.5,5.5,0.7c-0.1-0.1-0.1-0.1-0.2-0.2c0.4,1.5,0.8,2.9,1.2,4.4c0-0.1,0.1-0.2,0.1-0.3
						c-1.8,1-3.7,2.1-5.5,3.1c0.1,0,0.1,0,0.2,0c5.7,1,8.1-7.7,2.4-8.7c-0.1,0-0.1,0-0.2,0c-2.5-0.5-4.7,0.7-5.5,3.1
						c-0.6,1.9,0,3.5,1.2,4.9c1.3,1.6,3.8,1.6,5.5,0.7c2.2-1.2,2.7-3.1,3.3-5.4c1.1-3.7,2.1-7.5,3.2-11.2c2.1-7.5,4-15,5.9-22.6
						C141.5,322.8,132.8,320.4,131.4,326.1L131.4,326.1z"/>
				</g>
			</g>
			<g>
				<g>
					<path fill="#FF1D58" d="M113.8,330.9c-6.6,6.7,4,13.6,8.5,17.4c7.9,6.8,15.7,13.5,23.6,20.3c4.4,3.8,10.8-2.6,6.4-6.4
						c-5.4-4.6-10.8-9.3-16.2-13.9c-2.5-2.1-4.9-4.2-7.4-6.3c-1.3-1.1-8-5.5-7.8-7.2c-0.4,1.1-0.9,2.1-1.3,3.2
						c0.2-0.2,0.5-0.5,0.7-0.7C124.2,333.1,117.8,326.7,113.8,330.9L113.8,330.9z"/>
				</g>
			</g>
			<g>
				<g>
					<path fill="#FF1D58" d="M161.1,344.2c3.6-1.9,7.4-2.9,11.5-2.9c5.8-0.1,5.8-9.1,0-9c-5.7,0.1-11,1.5-16.1,4.2
						C151.4,339.2,156,346.9,161.1,344.2L161.1,344.2z"/>
				</g>
			</g>
			<g>
				<g>
					<path fill="#FF1D58" d="M193.5,312.4c0-0.9-0.1-1.8,0.2-2.7c0.4-1.2,1.9-2,2.2-2.9c0.9-0.3,0.8-0.6-0.1-1
						c-0.8-0.8-1-0.7-0.5,0.3c-0.1,0.8,0.8,2.6,1,3.4c1.3,5.3,1.5,10.7,1,16.1c-0.9,10.6-4.4,20.8-8,30.7c-1.4,3.9,3.4,6.8,6.6,5.1
						c6.5-3.6,13.5-5.4,20.9-5.4c5.8,0,5.8-9,0-9c-9,0-17.6,2.3-25.5,6.6c2.2,1.7,4.4,3.4,6.6,5.1c5.9-15.8,10.9-32.9,7.4-49.8
						c-1.2-5.8-3.6-13.5-11.1-11.2c-6.3,1.9-10.1,8.6-9.8,14.9C184.8,318.1,193.8,318.2,193.5,312.4L193.5,312.4z"/>
				</g>
			</g>
			<g>
				<g>
					<path fill="#FF1D58" d="M222.1,333.4c4.5,0.1,9-0.6,13.3-1.9c5.5-1.8,3.1-10.4-2.4-8.7c-3.6,1.1-7.2,1.7-11,1.6
						C216.3,324.3,216.3,333.3,222.1,333.4L222.1,333.4z"/>
				</g>
			</g>
			<g>
				<g>
					<path fill="#FF1D58" d="M245.4,293.8c-1.7,5.3-6,9.5-4.9,15.5c1.1,5.8,5.8,8,11.2,8.5c6,0.6,13.8,1.6,15.6,8.6
						c2.2,8.4-11.7,10.7-11.1,5.9c0.7-5.7-8.3-5.7-9,0c-1,8.9,8.4,13.1,15.9,11.5c7.8-1.7,14-8.3,13.4-16.5
						c-0.6-8.4-7.2-14.5-14.9-17c-2.1-0.7-4.3-1-6.5-1.2c-1.3-0.1-4.7,0.3-5.7-0.8c-1.6-1.8,3.9-10.1,4.5-12.1
						C255.8,290.6,247.1,288.2,245.4,293.8L245.4,293.8z"/>
				</g>
			</g>
		</g>
		<g>
			<g>
				<path fill="#FF1D58" d="M249,297.7c7.3,0.2,14.5,0.2,21.7-0.2c5.8-0.3,5.8-9.3,0-9c-7.2,0.4-14.5,0.4-21.7,0.2
					C243.2,288.5,243.2,297.5,249,297.7L249,297.7z"/>
			</g>
		</g>
	</g>
</g>
<g>
	<g>
		<g>
			<path fill="#DD26B6" d="M869.7,329.1c-0.1-0.3-0.2-0.6-0.3-1c-0.3-1.1-1.1-2.1-2.1-2.7c-1-0.6-2.4-0.8-3.5-0.5
				c-2.3,0.7-3.8,3.1-3.1,5.5c0.1,0.3,0.2,0.6,0.3,1c0.3,1.1,1.1,2.1,2.1,2.7c1,0.6,2.4,0.8,3.5,0.5
				C868.8,333.9,870.4,331.5,869.7,329.1L869.7,329.1z"/>
		</g>
	</g>
	<g>
		<g>
			<path fill="#DD26B6" d="M905.1,285.5c-1.6-2.9-1.1-6.4-2.8-9.3c-1.3-2.3-3.8-4.4-6.5-5c-8.2-1.6-9.2,7.6-10.1,13.3
				c-2.6,17.9-5.2,35.9-7.8,53.8c2.9,0,5.8,0,8.7,0c-0.2-0.9-0.3-1.7-0.5-2.6c-1.1-5.7-9.7-3.3-8.7,2.4c0.2,0.9,0.3,1.7,0.5,2.6
				c0.8,4.2,8,4.4,8.7,0c1.9-12.8,3.7-25.6,5.6-38.4c0.9-6.1,1.8-12.2,2.6-18.3c0.1-0.4,0.4-4.3,0.7-4.3c-1.7,0.2-0.7,2.3-0.5,3.1
				c0.5,2.6,0.9,4.8,2.3,7.1C900.1,295.2,907.9,290.6,905.1,285.5L905.1,285.5z"/>
		</g>
	</g>
	<g>
		<g>
			<path fill="#DD26B6" d="M885,326.2c5.5-1.5,10.9-3.1,16.4-4.6c5.6-1.6,3.2-10.3-2.4-8.7c-5.5,1.5-10.9,3.1-16.4,4.6
				C877,319.2,879.4,327.8,885,326.2L885,326.2z"/>
		</g>
	</g>
	<g>
		<g>
			<path fill="#DD26B6" d="M909.2,339.6c17.1-19.7,23.9-46.5,18-71.9c-0.7-3.2-5.3-4.4-7.5-2c-5.8,6.3-7.1,14.4-8.1,22.6
				c-1.2,9.8-1.5,19.6-0.8,29.4c0.8,12.1,2.6,37.7,21.3,32.8c13.2-3.4,25.3-22.1,24.2-35.6c-0.6-7-7.6-10.8-13.9-7.5
				c-6.7,3.6-7.5,12.9-7.8,19.6c-0.4,8.4,2.7,17.6,10.9,21.1c8.6,3.8,17.8-0.9,25.1-5.5c4.9-3.1,0.4-10.9-4.5-7.8
				c-4.8,3-12.4,8.1-18.1,4.4c-5.8-3.9-4.7-13-3.6-18.8c0.3-1.4,2.4-7.7,2.9-3.6c0.3,2.4-1.3,6-2.2,8.1c-2.3,5.7-6.3,11.5-11.5,15
				c-14,9.3-13.8-19.7-14.1-27c-0.3-7,0-14,0.7-20.9c0.7-6.7,1.1-14.9,5.9-20c-2.5-0.7-5-1.3-7.5-2c5.1,22.2-0.8,46-15.7,63.2
				C899,337.6,905.4,344,909.2,339.6L909.2,339.6z"/>
		</g>
	</g>
	<g>
		<g>
			<path fill="#DD26B6" d="M998.1,305.5c-7.5,15.5-14.9,31-22.4,46.5c-2.5,5.2,5.3,9.8,7.8,4.5c7.5-15.5,14.9-31,22.4-46.5
				C1008.4,304.8,1000.6,300.2,998.1,305.5L998.1,305.5z"/>
		</g>
	</g>
	<g>
		<g>
			<path fill="#DD26B6" d="M977,313.2c8.9,18.3,22.2,33.8,35.5,49c3.8,4.4,10.2-2,6.4-6.4c-12.8-14.7-25.6-29.5-34.1-47.1
				C982.3,303.5,974.5,308,977,313.2L977,313.2z"/>
		</g>
	</g>
</g>
<g>
	<g>
		<g>
			<path fill="#3E00FF" d="M581.5,166c-1.2-1.3-3.2-1.8-4.9-1.3c-1.2,0.3-2.1,1-2.9,2c-0.8,1-1.2,2.1-1.2,3.3
				c-0.1,1.8,1,3.4,2.5,4.3c1,0.6,2.4,0.8,3.5,0.5c1-0.3,2.2-1.1,2.7-2.1c1.2-2.2,0.5-4.9-1.6-6.2c0,0-0.1,0-0.1,0
				c0.3,0.2,0.6,0.5,0.9,0.7c0,0-0.1-0.1-0.1-0.1c0.2,0.3,0.5,0.6,0.7,0.9c0,0,0,0,0-0.1c0.2,0.4,0.3,0.7,0.5,1.1c0,0,0-0.1,0-0.1
				c0.1,0.4,0.1,0.8,0.2,1.2c0-0.1,0-0.1,0-0.2c-0.1,0.4-0.1,0.8-0.2,1.2c0-0.1,0-0.2,0.1-0.2c-0.2,0.4-0.3,0.7-0.5,1.1
				c0-0.1,0.1-0.2,0.2-0.3c-0.2,0.3-0.5,0.6-0.7,0.9c0.1-0.1,0.1-0.1,0.2-0.2c-0.3,0.2-0.6,0.5-0.9,0.7c0.1-0.1,0.1-0.1,0.2-0.1
				c-0.4,0.2-0.7,0.3-1.1,0.5c0,0,0.1,0,0.1,0c-0.4,0.1-0.8,0.1-1.2,0.2c0,0,0.1,0,0.1,0c-0.4-0.1-0.8-0.1-1.2-0.2c0,0,0.1,0,0.1,0
				c-0.4-0.2-0.7-0.3-1.1-0.5c0,0,0,0,0.1,0c-0.3-0.2-0.6-0.5-0.9-0.7c0,0,0.1,0.1,0.1,0.1c1.6,1.7,4.8,1.7,6.4,0
				C583.2,170.5,583.2,167.8,581.5,166L581.5,166z"/>
		</g>
	</g>
	<g>
		<g>
			<path fill="#3E00FF" d="M590.2,142.2c1.3,6.9,3.2,13.6,5.8,20.1c2.1,5.3,10.8,3,8.7-2.4c-2.6-6.5-4.5-13.2-5.8-20.1
				C597.8,134.1,589.2,136.5,590.2,142.2L590.2,142.2z"/>
		</g>
	</g>
	<g>
		<g>
			<path fill="#3E00FF" d="M590,120c0-0.3,0-0.7,0-1c0-1.2-0.5-2.4-1.3-3.2c-0.8-0.8-2.1-1.4-3.2-1.3c-1.2,0.1-2.4,0.4-3.2,1.3
				c-0.8,0.9-1.3,2-1.3,3.2c0,0.3,0,0.7,0,1c0,1.2,0.5,2.4,1.3,3.2c0.8,0.8,2.1,1.4,3.2,1.3c1.2-0.1,2.4-0.4,3.2-1.3
				C589.5,122.3,590,121.2,590,120L590,120z"/>
		</g>
	</g>
	<g>
		<g>
			<path fill="#3E00FF" d="M590.2,107.1c5.7,16.7,12.5,33.3,21.1,48.6c3.1,5.5,8,9.9,14.8,8.3c5.8-1.4,9.8-6.2,10.2-12.1
				c0.3-5.8-8.7-5.8-9,0c-0.1,1.6-1.5,2.9-3,3.3c-2.5,0.5-3.6-1.5-4.8-3.4c-3-4.8-5.3-10.1-7.7-15.2c-4.9-10.4-9.2-21.1-12.9-31.9
				C597,99.3,588.3,101.6,590.2,107.1L590.2,107.1z"/>
		</g>
	</g>
	<g>
		<g>
			<path fill="#3E00FF" d="M612.8,134.9c4.4-1.9,8.3-4.5,11.9-7.7c4.3-3.9-2.1-10.2-6.4-6.4c-3,2.7-6.4,4.7-10.1,6.3
				c-2.2,1-2.7,4.2-1.6,6.2C608,135.6,610.5,135.8,612.8,134.9L612.8,134.9z"/>
		</g>
	</g>
	<g>
		<g>
			<path fill="#3E00FF" d="M636.7,141.2c6.5-5.2,16.9-18.6,10.9-27.3c-2.5-3.7-7.6-4.9-11.2-2c-3.8,3-4.4,9.2-4.7,13.7
				c-0.7,9.6,3.5,19.9,12.8,23.9c8.7,3.7,18.6-0.6,21.8-9.4c2-5.5-6.7-7.8-8.7-2.4c-1.4,3.9-6.1,5.1-9.6,3.5
				c-4.1-1.8-6.4-6-7.1-10.2c-0.4-2.4-0.3-5.1,0.1-7.5c0-0.3,0.8-3.2,0.7-3.2c-1-0.6-2,2.2-2.3,2.7c-2.3,4.8-4.7,8.5-9,11.9
				C625.8,138.4,632.2,144.8,636.7,141.2L636.7,141.2z"/>
		</g>
	</g>
	<g>
		<g>
			<path fill="#3E00FF" d="M670.2,135.7c-2.3-6-4-12.2-4.2-18.6c-0.1-0.8-0.1-1.6,0-2.4c0.2-0.9-0.1-0.8-1,0.2
				c0.2,0.7,1.3,1.8,1.7,2.4c1.4,2.2,2.4,4.5,3.9,6.6c2.3,3.2,5.7,6.7,10,5.2c1.7-0.6,2.9-1.9,3.5-3.5c0.3-0.8,0.5-1.8,0.5-2.7
				c0-0.8,0.5-2.3,0.5-2.8c0.6,5.7,9.6,5.8,9,0c-0.7-7.3-8.8-12.2-15-6.8c-1.2,1.1-2.2,2.4-2.8,3.9c-0.7,1.9-2.1,5.6,1,3.8
				c2.3-1.3,1.5-1,0.3-2.7c-0.5-0.8-1-1.6-1.4-2.4c-1-1.8-2-3.6-3.3-5.3c-4-5.4-11.7-8-15-0.3c-3.4,8.1,0.6,20.4,3.6,28
				C663.6,143.4,672.3,141.1,670.2,135.7L670.2,135.7z"/>
		</g>
	</g>
	<g>
		<g>
			<path fill="#3E00FF" d="M701.9,82.5c-6.3,5.6-11,16.2-1.2,21.2c3.5,1.8,7.7,2.1,11.3,3.7c2.2,1,3.9,2.1,4,4.7
				c0,0.9-0.2,2.1-0.6,3c0.1-0.2-2.9,4.3-2.6,2.1c0.7-5.7-8.3-5.7-9,0c-0.7,5.9,5.1,10.4,10.6,9.6c6.3-0.9,9.9-7.4,10.4-13.3
				c0.5-6.2-2.7-11.2-8.2-13.8c-2.7-1.3-5.7-2.1-8.5-2.9c-1.5-0.4-4.2-0.7-4.1-3.1c0.1-1.8,3-3.8,4.2-4.8
				C712.6,85,706.2,78.7,701.9,82.5L701.9,82.5z"/>
		</g>
	</g>
	<g>
		<g>
			<path fill="#3E00FF" d="M736,106.2c3.6-1.8,7.2-3.6,10.8-5.3c2.2-1.1,2.8-4.2,1.6-6.2c-1.3-2.2-4-2.7-6.2-1.6
				c-3.6,1.8-7.2,3.6-10.8,5.3c-2.2,1.1-2.8,4.2-1.6,6.2C731.1,106.9,733.8,107.3,736,106.2L736,106.2z"/>
		</g>
	</g>
	<g>
		<g>
			<path fill="#3E00FF" d="M780.3,74.8c-0.4-3.1-3.3-5.3-6.5-5.1c-3.4,0.3-5.5,3-6.8,5.8c-3.1,6.5-3.8,14.4-0.7,21
				c5.2,11.5,23.1,14.5,29.7,2.6c2.8-5.1-4.9-9.6-7.8-4.5c-2.4,4.3-8.8,4.1-12,0.8c-2.1-2.2-2.9-5.4-2.9-8.3c0-1.4,0.2-2.8,0.6-4.2
				c0.2-0.8,1.7-4,1.1-4.1c-1.1-0.4-2.1-0.9-3.2-1.3c-0.1-0.1-0.1-0.2-0.2-0.3C772.4,82.9,781.1,80.5,780.3,74.8L780.3,74.8z"/>
		</g>
	</g>
	<g>
		<g>
			<path fill="#3E00FF" d="M802.8,86.3c4.8-6,12.1-21.2,4.2-27.6c-9.4-7.5-16.1,6.6-17,13.9c-1.2,9.4,2.8,19.5,12,23.3
				c8.7,3.5,19.2-1.3,21.2-10.7c1.2-5.6-7.4-8.1-8.7-2.4c-0.9,4-4.9,6.3-8.9,4.9c-4.3-1.5-6.6-6.2-6.9-10.5
				c-0.2-2.3,0.2-4.6,0.9-6.8c0.3-1.1,0.8-2.2,1.3-3.3c0.3-0.7,0.1-2.2,0.2-0.7c0.4,4.7-1.7,9.8-4.6,13.5
				C792.9,84.5,799.2,90.9,802.8,86.3L802.8,86.3z"/>
		</g>
	</g>
	<g>
		<g>
			<path fill="#3E00FF" d="M821.1,62c0.7,6.4,1.9,12.6,3.9,18.7c1.8,5.5,10.3,3.2,8.7-2.4c-1.6-5.6-2.2-11.5-1.3-17.3
				c0.1-0.7,1-3,0.7-3.5c-0.9-0.4-1.8-0.8-2.7-1.3c0.4,0.8,0.7,1.6,1,2.4c1.1,2.5,2.1,5,3.1,7.6c1.5,3.6,2.5,8.4,5.8,10.7
				c3.1,2.2,6.7,1.7,8.7-1.5c3.1-4.9-4.7-9.5-7.8-4.5c-0.1,0.2-0.3,0.4-0.4,0.7c1.3-0.7,2.6-1.5,3.9-2.2c1-0.1-2.2-7.1-2.6-8
				c-1.2-2.9-2.2-5.9-3.6-8.6c-1.8-3.7-5.7-6.1-9.7-3.9c-4.5,2.4-5.2,8.3-5.7,12.9c-0.8,6.4,0,12.9,1.7,19.1
				c2.9-0.8,5.8-1.6,8.7-2.4c-1.7-5.3-3-10.7-3.6-16.3C829.5,56.3,820.4,56.2,821.1,62L821.1,62z"/>
		</g>
	</g>
	<g>
		<g>
			<path fill="#3E00FF" d="M843.5,33c8.1,9.1,8.1,22.6,13.7,33.1c2.5,4.8,6.3,9.6,11.8,11c5.3,1.4,11.2-0.9,13.5-5.9
				c2.4-5.2-5.3-9.8-7.8-4.5c-2.7,5.7-8.4-2.5-9.8-5.1c-2-3.9-3.2-8.2-4.5-12.5c-2.4-8.1-4.9-16-10.6-22.5
				C846,22.3,839.7,28.7,843.5,33L843.5,33z"/>
		</g>
	</g>
	<g>
		<g>
			<path fill="#3E00FF" d="M858.7,58.8c4.7-2.3,9.3-4.6,14-7c5.2-2.6,0.6-10.3-4.5-7.8c-4.7,2.3-9.3,4.6-14,7
				C849,53.6,853.6,61.4,858.7,58.8L858.7,58.8z"/>
		</g>
	</g>
	<g>
		<g>
			<path fill="#3E00FF" d="M881.9,59.9c9.6-2.9,21.4-8.6,19.9-20.7c-0.5-4.4-3.7-9.3-8.6-9.1c-5.2,0.3-8,5.5-9.7,9.8
				c-3.9,9.7-2.6,22.3,6.9,28.4c8.7,5.6,20.2,1.7,23.6-8c1.9-5.5-6.8-7.8-8.7-2.4c-1.4,4-6.4,5-9.7,3c-4.4-2.6-5.7-8-5-12.7
				c0.4-2.4,1.2-4.8,2.3-7c0.1-0.2,1-3.1,0.2,0c-0.2,1-0.3,1.9-0.8,2.8c-2.2,4.5-8.2,6-12.7,7.3C874,52.9,876.3,61.6,881.9,59.9
				L881.9,59.9z"/>
		</g>
	</g>
	<g>
		<g>
			<path fill="#3E00FF" d="M911.3,39.2c1.3,7.3,3.4,14.1,6.4,20.9c2,4.7,9.9,1.3,8.2-3.5c-2.8-8.2-6.3-23,4.9-26.6
				c5.5-1.8,3.1-10.4-2.4-8.7c-16.6,5.3-15.8,24.1-11.2,37.6c2.7-1.2,5.5-2.3,8.2-3.5c-2.6-6-4.3-12.3-5.5-18.7
				C919,31.1,910.4,33.5,911.3,39.2L911.3,39.2z"/>
		</g>
	</g>
</g>
<g>
	<g>
		<g>
			<path fill="#37CAE2" d="M653.5,631c5.2,0.8,10.4,1.7,15.7,2.5c2.4,0.4,4.8-0.6,5.5-3.1c0.6-2.1-0.7-5.2-3.1-5.5
				c-5.2-0.8-10.4-1.7-15.7-2.5c-2.4-0.4-4.8,0.6-5.5,3.1C649.7,627.6,651.1,630.7,653.5,631L653.5,631z"/>
		</g>
	</g>
	<g>
		<g>
			<g>
				<path fill="#37CAE2" d="M447,538.7c1.3-0.1,2.6-0.5,3.5-1.4c0.7-0.7,1.2-1.5,1.4-2.4c0.6-2.1-0.3-4.7-2.2-5.8
					c-2-1.1-4.6-0.9-6.2,0.7c-0.7,0.7-1.2,1.5-1.4,2.4c-0.3,1.4-0.1,2.6,0.5,3.9c0.5,1,1.7,1.8,2.7,2.1c1.1,0.3,2.5,0.2,3.5-0.5
					c1-0.6,1.8-1.5,2.1-2.7c0.3-1.2,0.1-2.3-0.5-3.5c0,0,0-0.1,0-0.1c0.2,0.4,0.3,0.7,0.5,1.1c0,0,0-0.1,0-0.1
					c0.1,0.4,0.1,0.8,0.2,1.2c0,0,0-0.1,0-0.1c-0.1,0.4-0.1,0.8-0.2,1.2c0-0.1,0-0.1,0-0.2c-0.2,0.4-0.3,0.7-0.5,1.1
					c0-0.1,0.1-0.1,0.1-0.2c-0.2,0.3-0.5,0.6-0.7,0.9c0-0.1,0.1-0.1,0.2-0.2c-0.3,0.2-0.6,0.5-0.9,0.7c0.1,0,0.1-0.1,0.2-0.1
					c-0.4,0.2-0.7,0.3-1.1,0.5c0.1,0,0.1,0,0.2-0.1c-0.4,0.1-0.8,0.1-1.2,0.2c0,0,0.1,0,0.1,0c-0.4-0.1-0.8-0.1-1.2-0.2
					c0,0,0.1,0,0.1,0c-0.4-0.2-0.7-0.3-1.1-0.5c0.1,0,0.1,0.1,0.2,0.1c-0.3-0.2-0.6-0.5-0.9-0.7c0,0,0,0,0.1,0.1
					c-0.2-0.3-0.5-0.6-0.7-0.9c0,0,0.1,0.1,0.1,0.2c-0.2-0.4-0.3-0.7-0.5-1.1c0,0.1,0,0.1,0,0.2c-0.1-0.4-0.1-0.8-0.2-1.2
					c0,0.1,0,0.1,0,0.2c0.1-0.4,0.1-0.8,0.2-1.2c0,0.1,0,0.1-0.1,0.2c0.2-0.4,0.3-0.7,0.5-1.1c0,0.1-0.1,0.1-0.1,0.2
					c0.2-0.3,0.5-0.6,0.7-0.9c0,0.1-0.1,0.1-0.1,0.1c0.3-0.2,0.6-0.5,0.9-0.7c0,0-0.1,0.1-0.2,0.1c0.4-0.2,0.7-0.3,1.1-0.5
					c0,0-0.1,0-0.1,0c0.4-0.1,0.8-0.1,1.2-0.2c0,0-0.1,0-0.1,0c-1.2,0.1-2.3,0.4-3.2,1.3c-0.8,0.8-1.4,2.1-1.3,3.2
					c0.1,1.2,0.4,2.4,1.3,3.2C444.7,538.1,445.9,538.7,447,538.7L447,538.7z"/>
			</g>
		</g>
		<g>
			<g>
				<path fill="#37CAE2" d="M480.7,505.3c-6.8,11.3-13.6,22.7-20.4,34c-2.7,4.5,3.3,8.8,7.1,5.5c2-1.8,4.1-3.6,6.2-5.3
					c1.1-0.9,2.3-1.8,3.4-2.6c0.2-0.2,2.8-1.6,2.8-1.6c-0.6-0.2-1.3-0.4-1.9-0.5c-0.2,0.5-0.3,1-0.5,1.5c-0.6,0.9-0.8,2.3-1.3,3.3
					c-0.7,1.4-1.5,2.9-3,3.5c-0.4,0.2-3.5,1-3.3-0.4c0.9-5.7-7.7-8.1-8.7-2.4c-1.1,6.7,3.5,12.8,10.6,12.5c7.5-0.3,11.9-7,14.1-13.4
					c1.9-5.5,1.6-13.3-6.1-13.1c-7,0.2-13.9,7.9-18.7,12.2c2.4,1.8,4.7,3.6,7.1,5.5c6.8-11.3,13.6-22.7,20.4-34
					C491.5,504.9,483.7,500.4,480.7,505.3L480.7,505.3z"/>
			</g>
		</g>
		<g>
			<g>
				<path fill="#37CAE2" d="M512.1,536.7c-11.6-15.2-35.3,11.8-22.2,22.8c13.3,11.1,33.6-13.2,20.6-24c-4.4-3.7-10.8,2.7-6.4,6.4
					c4.1,3.4-2.3,12.1-6.8,11.4c-7.5-1.1,5-14.6,7-12C507.8,545.8,515.7,541.3,512.1,536.7L512.1,536.7z"/>
			</g>
		</g>
		<g>
			<g>
				<path fill="#37CAE2" d="M515.6,569.7c3-6.7,9.8-18.5,18.7-12.7c4.9,3.2,9.4-4.6,4.5-7.8c-13.5-8.8-25.8,4.5-31,15.9
					C505.5,570.4,513.2,574.9,515.6,569.7L515.6,569.7z"/>
			</g>
		</g>
		<g>
			<g>
				<path fill="#37CAE2" d="M551.5,568.1c2.4-3.7,1-8.4-2.6-10.8c-4.4-3-9.5-0.6-13.1,2.5c-3.6,3.1-7.2,7.3-7.4,12.3
					c-0.2,4.7,2.4,9.2,7.1,10.4c10.3,2.5,20.3-10.8,25.8-17.7c7.3-9.3,12.8-19.6,16.5-30.8c1.4-4.2-4.5-7.7-7.5-4.4
					c-9.4,10.4-16.5,22.6-20.5,36.1c-2.8,9.7-7.3,29.5,7.6,31.7c5.7,0.9,8.1-7.8,2.4-8.7c-9-1.4-1.2-21.8,0.8-26.9
					c3.6-9.6,9.2-18.3,16.1-25.9c-2.5-1.5-5-2.9-7.5-4.4c-3.4,10.2-8.5,19.8-15.3,28.1c-3.1,3.8-6.5,7.5-10.2,10.7
					c-1.4,1.2-7.3,5.6-5.9,0.7c0.3-1,1.4-2,2.1-2.7c1.7-1.8,2.4-2.6,3.8-4.8C540.6,568.4,548.4,572.9,551.5,568.1L551.5,568.1z"/>
			</g>
		</g>
		<g>
			<g>
				<path fill="#37CAE2" d="M569.7,591.9c8-2.4,20.9-4.1,20.4-15.4c-0.2-3.9-2.7-7.9-6.5-9.1c-4.7-1.5-9.3,1.4-12.7,4.3
					c-7.1,5.9-11.5,15.9-8.4,24.9c3.1,9,11.7,14.2,21,12.9c5.7-0.8,3.3-9.5-2.4-8.7c-10.2,1.5-12.3-11.7-8.1-18.2
					c1.2-1.8,2.7-3.4,4.4-4.6c1.6-1.2,5.1-2.5,3,0.6c-2.3,3.4-9.4,3.6-13,4.7C561.8,584.8,564.1,593.5,569.7,591.9L569.7,591.9z"/>
			</g>
		</g>
		<g>
			<g>
				<path fill="#37CAE2" d="M592.2,592c-2.1,4.7-4.1,9.3-6.2,14c2.7,1.2,5.5,2.3,8.2,3.5c2-6.1,7.4-17.7,15.7-13
					c5,2.9,9.6-4.9,4.5-7.8c-5.6-3.2-12.4-2.6-17.7,0.9c-6.1,4-9.1,10.8-11.2,17.5c-1.5,4.8,6.1,8.2,8.2,3.5c2.1-4.7,4.1-9.3,6.2-14
					C602.3,591.3,594.5,586.7,592.2,592L592.2,592z"/>
			</g>
		</g>
		<g>
			<g>
				<path fill="#37CAE2" d="M616.7,617.1c4.4,1,8.8,0.9,13.2-0.3c5.6-1.5,3.2-10.2-2.4-8.7c-2.8,0.8-5.6,0.9-8.4,0.3
					C613.5,607.2,611.1,615.8,616.7,617.1L616.7,617.1z"/>
			</g>
		</g>
		<g>
			<g>
				<path fill="#37CAE2" d="M659.9,593.8c-2.8,8.2-6.4,16-10.6,23.6c-3.5,6.2-7.1,12.6-7.4,19.9c-0.5,11.8,12.1,24.7,23.6,16
					c4.6-3.5,0.1-11.3-4.5-7.8c-4.1,3.1-8.6,0.1-9.7-4.4c-1.3-5.3,1.2-10.8,3.7-15.3c5.2-9.6,10.1-19.1,13.7-29.6
					C670.4,590.7,661.7,588.3,659.9,593.8L659.9,593.8z"/>
			</g>
		</g>
		<g>
			<g>
				<path fill="#37CAE2" d="M682.1,649.9c4.9,3,10.2,4.6,15.8,5.2c2.4,0.3,4.5-2.3,4.5-4.5c0-2.6-2.1-4.2-4.5-4.5
					c-4.1-0.4-7.8-1.9-11.3-4C681.7,639.1,677.2,646.8,682.1,649.9L682.1,649.9z"/>
			</g>
		</g>
		<g>
			<g>
				<path fill="#37CAE2" d="M721.9,646.3c2.3-1.8,4.9-3.2,7.8-3.8c1.1-0.2,3.4,0.2,4.2-0.3c1.3,0.2,1-0.2-0.7-1.3
					c-0.1,0.5-0.3,0.9-0.4,1.4c-1.3,1.6-2,5-3,7c-1.1,2.1-2.4,4.2-3.8,6.2c-5.7,8.2-13.9,14.7-23.2,18.5c1.5,2.5,2.9,5,4.4,7.5
					c1.1-1.2,7.9,4.5,9.2,5.3c3.4,2,7,3.6,10.7,4.9c5.5,1.9,7.8-6.7,2.4-8.7c-6.3-2.3-10.8-6.5-16.5-9.5c-4.1-2.2-8.9-1.9-12.1,1.6
					c-2.8,3-0.1,9.3,4.4,7.5c14.6-6,26.9-17,33.6-31.5c2.4-5.1,6.7-14.3-0.9-17.2c-7.4-2.9-16.7,1.4-22.4,6
					C711.1,643.6,717.5,649.9,721.9,646.3L721.9,646.3z"/>
			</g>
		</g>
	</g>
</g>
<g>
	<g>
		<g>
			<path fill="#3E00FF" d="M729.4,427.8c6.5,6.5,13.1,12.9,19.6,19.4c2.7,2.7,7-1.5,4.2-4.2c-6.5-6.5-13.1-12.9-19.6-19.4
				C730.9,420.9,726.6,425.1,729.4,427.8L729.4,427.8z"/>
		</g>
	</g>
	<g>
		<g>
			<g>
				<path fill="#3E00FF" d="M768,119.9c2.3,9.3,3.5,18.8,3.3,28.4c-0.2,8.1-0.6,17.6-4.7,24.9c-3.1,5.4-12,11.2-17.5,5.2
					c-6.7-7.1,4.2-16.6,10.5-18.7c14.9-5.1,29.7,4.2,35.6,17.9c6.6,15.4,3,32.5-4,47.1c-4.2,8.8-9.5,17.1-15.1,25.1
					c-2.9,4.2-6,8.2-9.2,12.1c-1.1,1.3-8.9,9.2-8.3,10.2c-1.9-3.4-7.1-0.3-5.2,3c5.1,9,15.5-6.2,18.3-9.7
					c7.6-9.4,14.7-19.4,20.6-29.9c10.6-18.7,17.4-41.4,7.7-62c-7.9-16.8-28.2-26.7-45.7-18.1c-7.9,3.9-14.9,12.8-12.3,22
					c2.3,8.1,11.5,10.7,18.8,8.4c10.4-3.2,14.2-14.7,15.6-24.4c2.1-14.4,1.1-29-2.5-43.1C772.8,114.6,767,116.2,768,119.9L768,119.9
					z"/>
			</g>
		</g>
		<g>
			<g>
				<path fill="#3E00FF" d="M761.2,240.8c-3.4,12-6.9,24-10.3,36c-0.4,1.5,0.5,3.4,2.1,3.7c8.6,1.7,17.3,2.2,26,1.3
					c3.8-0.4,3.8-6.4,0-6c-8.2,0.8-16.3,0.4-24.4-1.1c0.7,1.2,1.4,2.5,2.1,3.7c3.4-12,6.9-24,10.3-36
					C768.1,238.7,762.3,237.1,761.2,240.8L761.2,240.8z"/>
			</g>
		</g>
		<g>
			<g>
				<path fill="#3E00FF" d="M410.2,197.7c-4.4,23.4-9.3,48.7-1.7,72c5.7,17.6,18.2,33.3,36.3,38.9c3.7,1.1,5.3-4.6,1.6-5.8
					c-17-5.3-28.3-20.8-33-37.5c-6.1-21.6-1.6-44.5,2.5-66C416.7,195.5,410.9,193.9,410.2,197.7L410.2,197.7z"/>
			</g>
		</g>
		<g>
			<g>
				<path fill="#3E00FF" d="M437.5,271.8c-1.8,11.9,0,23.4,5.3,34.2c0.6-1.5,1.2-2.9,1.8-4.4c-11.9,2.3-23.3,5.9-34.4,10.8
					c-3.5,1.5-0.5,6.7,3,5.2c10.6-4.6,21.6-8,32.9-10.2c2-0.4,2.6-2.8,1.8-4.4c-4.6-9.2-6.2-19.4-4.7-29.6
					C443.9,269.7,438.1,268,437.5,271.8L437.5,271.8z"/>
			</g>
		</g>
		<g>
			<g>
				<path fill="#3E00FF" d="M909.7,177.6c-11.4,4.2-15,21.2-4.8,28.8c3.3,2.4,7.9,3.3,10,7.1c1.9,3.5,1.2,8-0.4,11.5
					c-4.3,9.2-14.9,11.2-24.1,11.6c-16,0.6-36.2-1.8-45.7,14.5c-8,13.8-2.5,33.7-15,45c-6.7,6-16,7.9-24.4,10.3
					c-8.1,2.3-15.9,5.1-22.5,10.4c-3,2.4,1.3,6.7,4.2,4.2c12-9.8,28.9-9.1,41.8-17c14.5-8.8,14.4-24.5,17.4-39.3
					c1.8-8.9,5.8-16.5,14.8-19.7c8.9-3.2,18.4-2.2,27.7-2.4c14.7-0.3,32.2-5.6,33.3-23c0.6-8.5-4.3-12.9-11.2-16.6
					c-4-2.2-6.3-5.4-5.9-10.1c0.3-4,2.5-8,6.4-9.4C914.8,182.1,913.3,176.3,909.7,177.6L909.7,177.6z"/>
			</g>
		</g>
		<g>
			<g>
				<path fill="#3E00FF" d="M794.4,294.9c-6.1,9.4-12.3,18.8-18.4,28.2c-1,1.6,0,4,1.8,4.4c10,2.4,20,2.3,29.9-0.5
					c3.7-1.1,2.1-6.8-1.6-5.8c-8.9,2.5-17.7,2.7-26.7,0.5c0.6,1.5,1.2,2.9,1.8,4.4c6.1-9.4,12.3-18.8,18.4-28.2
					C801.7,294.7,796.6,291.7,794.4,294.9L794.4,294.9z"/>
			</g>
		</g>
		<g>
			<g>
				<path fill="#3E00FF" d="M232.1,363.1c-6,16,1.5,32.8,12.9,44.4c6,6.1,13.1,11,20.2,15.8c7.8,5.3,15.8,11.7,16.8,21.7
					c0.8,8.2-3.7,20.9-13.4,21.5c-11,0.7-11.2-14.6-7.6-21.2c4.4-8.1,13.7-12.4,22-15.4c9.1-3.2,18.6-5.5,28.1-7.4
					c20.7-4.3,41.6-7.5,61-16.1c3.5-1.6,0.5-6.7-3-5.2c-21.1,9.4-44.2,12-66.5,17c-17,3.9-41.9,9.2-48.5,28
					c-2.5,7.2-1.8,16.1,3.7,21.8c6.6,6.8,16.1,5.3,22.5-0.9c6.1-6,8.7-15.1,7.6-23.4c-1.2-9-6.8-15.8-13.7-21.2
					c-9.4-7.3-19.8-13-27.7-22.1c-8.5-9.8-13.2-22.9-8.5-35.5C239.2,361.1,233.4,359.5,232.1,363.1L232.1,363.1z"/>
			</g>
		</g>
		<g>
			<g>
				<path fill="#3E00FF" d="M348.3,397.3c7.8,4.2,16.3,6.1,25.2,5.4c-0.9-1.5-1.7-3-2.6-4.5c-2.6,5.9-5.2,11.8-7.8,17.6
					c-1.6,3.5,3.6,6.6,5.2,3c2.6-5.9,5.2-11.8,7.8-17.6c0.8-1.9-0.1-4.7-2.6-4.5c-7.8,0.6-15.2-0.8-22.2-4.6
					C347.9,390.3,344.9,395.5,348.3,397.3L348.3,397.3z"/>
			</g>
		</g>
		<g>
			<g>
				<path fill="#3E00FF" d="M401.2,512.6c-5-25.8,2.8-53,20.6-72.3c2.6-2.8-1.6-7.1-4.2-4.2c-19.4,20.9-27.6,50.2-22.2,78.2
					C396.1,518,401.9,516.4,401.2,512.6L401.2,512.6z"/>
			</g>
		</g>
		<g>
			<g>
				<path fill="#3E00FF" d="M405.2,451.7c4.9-4.3,10.1-8,15.8-11.3c-1.5-0.9-3-1.7-4.5-2.6c-0.6,5.5,0.2,10.9,2.3,16.1
					c1.4,3.5,7.2,2,5.8-1.6c-1.9-4.7-2.6-9.4-2.1-14.5c0.3-2.3-2.7-3.6-4.5-2.6c-6.1,3.5-11.7,7.6-17,12.2
					C398,450,402.3,454.2,405.2,451.7L405.2,451.7z"/>
			</g>
		</g>
		<g>
			<g>
				<path fill="#3E00FF" d="M601.9,555.7c34.8-22.4,49-67,32.9-105.3c-0.9-2.1-4.3-3.3-5.5-0.7c-2.8,6-5.5,12-8.3,18
					c-1.6,3.5,3.6,6.5,5.2,3c2.8-6,5.5-12,8.3-18c-1.8-0.2-3.7-0.5-5.5-0.7c15.1,35.8,2.6,77.5-30.1,98.5
					C595.6,552.6,598.6,557.8,601.9,555.7L601.9,555.7z"/>
			</g>
		</g>
		<g>
			<g>
				<path fill="#3E00FF" d="M628.4,453.3c1.9,6.2,6.2,11.7,12.3,14.3c4.2,1.8,11.1,1.3,11.9-4.2c0.6-3.8-5.2-5.4-5.8-1.6
					c-0.4,2.6-6.1-1-7.1-1.7c-2.7-2.2-4.6-5.1-5.6-8.4C633.1,448,627.3,449.6,628.4,453.3L628.4,453.3z"/>
			</g>
		</g>
		<g>
			<g>
				<path fill="#3E00FF" d="M848.1,487.5c-15.9,3-34.2-0.6-46.6-11.5c-6.2-5.4-10.7-13.6-6.6-21.6c3.2-6.2,10.1-10.3,16.3-12.7
					c2.4-1,3.8-1.5,6.4-0.8c3,0.8,3.7,2.8,3.8,5.8c0.2,4.4-1.8,8.7-4.7,11.9c-5.4,6-13.9,8.4-21.5,10.4c-14.3,3.8-31.3,7.3-45.4,0.6
					c-14.8-7.1-21.1-25.9-13.7-40.6c1.7-3.4-3.5-6.5-5.2-3c-8.1,16.2-3,37.2,12.6,47c17.5,10.9,41,5.9,59.3,0.1
					c9.5-3,18.9-8,22.8-17.7c2.8-6.9,2.3-19.7-7.1-21.2c-7.7-1.2-18.2,5.5-23.6,10.5c-6.7,6.2-9.8,15.2-6.4,24
					c4,10.3,14.4,17.1,24.2,21.2c11.7,4.8,24.4,5.9,36.7,3.5C853.5,492.5,851.9,486.8,848.1,487.5L848.1,487.5z"/>
			</g>
		</g>
		<g>
			<g>
				<path fill="#3E00FF" d="M728,424c-9.3,8.8-17.3,18.7-23.8,29.7c-2,3.3,3.2,6.3,5.2,3c6.3-10.5,14-20,22.9-28.5
					C735.1,425.6,730.9,421.4,728,424L728,424z"/>
			</g>
		</g>
		<g>
			<g>
				<path fill="#3E00FF" d="M902.1,364.9c-15.9,9-33.1,15.5-51,19.2c-16.2,3.4-37.9,7.6-52.7-2c-0.8,1.8-1.5,3.7-2.3,5.5
					c12,3,24,0.3,33.8-7.3c3-2.4-1.2-6.6-4.2-4.2c-8,6.2-18.2,8.2-27.9,5.8c-3.3-0.8-5.2,3.6-2.3,5.5c15.4,10,36.8,6.5,53.8,3.3
					c19.6-3.7,38.5-10.8,55.9-20.5C908.5,368.2,905.5,363,902.1,364.9L902.1,364.9z"/>
			</g>
		</g>
		<g>
			<g>
				<path fill="#3E00FF" d="M794.6,385.1c3.6,10.7,8.7,20.7,15.3,30c2.2,3.1,7.4,0.1,5.2-3c-6.3-8.8-11.2-18.3-14.7-28.5
					C799.1,379.9,793.3,381.4,794.6,385.1L794.6,385.1z"/>
			</g>
		</g>
	</g>
</g>
</svg>
