<svg xmlns="http://www.w3.org/2000/svg" xml:space="preserve" style="enable-background:new 0 0 1600 900" viewBox="0 0 1600 900"><style>.st4{fill:#2c7dce}.st5{fill:#f4af40}.st6{fill:#3deadd}.st7{fill:#bd82f4}</style><path id="Layer_1" d="M0 0h1600v900H0z" style="fill:#334789"/><g id="Layer_2"><path d="M359.8 524.7H219.1c-4.4 0-8-3.6-8-8V376c0-4.4 3.6-8 8-8h140.7c4.4 0 8 3.6 8 8v140.7c0 4.4-3.6 8-8 8z" style="fill:#c4f7f4"/><path d="m298.7 418.1-9.3 16-9.3-16h-31l40.4 69.4 40.4-69.4h-31.2z" style="fill:#42b883"/><path d="m298.7 418.1-9.3 16-9.3-16h-14.9l24.2 41.6 24.2-41.6h-14.9z" style="fill:#35495e"/><path d="M1163.3 588.4v84.7c0 4.4-3.6 8-8 8h-84.7c-4.4 0-8-3.6-8-8v-84.7c0-4.4 3.6-8 8-8h84.7c4.5 0 8 3.6 8 8z" class="st4"/><path d="M1332.7 745.1v61.4c0 4.4-3.6 8-8 8h-61.4c-4.4 0-8-3.6-8-8v-61.4c0-4.4 3.6-8 8-8h61.4c4.5 0 8 3.6 8 8z" class="st5"/><path d="M1347.7 588.4v83.7c0 4.4-3.6 8-8 8H1256c-4.4 0-8-3.6-8-8v-83.7c0-4.4 3.6-8 8-8h83.7c4.5 0 8 3.6 8 8z" class="st6"/><path d="M1438.5 432.6V536c0 4.4-3.6 8-8 8h-103.4c-4.4 0-8-3.6-8-8V432.6c0-4.4 3.6-8 8-8h103.4c4.4 0 8 3.6 8 8z" class="st7"/><path d="M543 236v100.6c0 4.4-3.6 8-8 8H434.4c-4.4 0-8-3.6-8-8V236c0-4.4 3.6-8 8-8H535c4.4 0 8 3.6 8 8z" class="st4"/><path d="M720 385.1v92.6c0 4.4-3.6 8-8 8h-92.6c-4.4 0-8-3.6-8-8v-92.6c0-4.4 3.6-8 8-8H712c4.4 0 8 3.6 8 8z" class="st5"/><path d="M697.1 262.5v46.7c0 4.4-3.6 8-8 8h-46.7c-4.4 0-8-3.6-8-8v-46.7c0-4.4 3.6-8 8-8h46.7c4.4 0 8 3.5 8 8z" class="st6"/><path d="M704.4 109.5v61.4c0 4.4-3.6 8-8 8H635c-4.4 0-8-3.6-8-8v-61.4c0-4.4 3.6-8 8-8h61.4c4.4 0 8 3.6 8 8z" class="st7"/><path d="M974.2 199.9v126c0 4.4-3.6 8-8 8h-126c-4.4 0-8-3.6-8-8v-126c0-4.4 3.6-8 8-8h126c4.4 0 8 3.5 8 8z" class="st4"/><path d="M1076.4 377.2v61.4c0 4.4-3.6 8-8 8H1007c-4.4 0-8-3.6-8-8v-61.4c0-4.4 3.6-8 8-8h61.4c4.4 0 8 3.6 8 8z" class="st5"/><path d="M1270.3 216.7v92c0 4.4-3.6 8-8 8h-92c-4.4 0-8-3.6-8-8v-92c0-4.4 3.6-8 8-8h92c4.5 0 8 3.6 8 8z" class="st6"/><path d="M1115.5 93.5v46.7c0 4.4-3.6 8-8 8h-46.7c-4.4 0-8-3.6-8-8V93.5c0-4.4 3.6-8 8-8h46.7c4.5 0 8 3.5 8 8z" class="st7"/><path d="M464 699.2v100.6c0 4.4-3.6 8-8 8H355.4c-4.4 0-8-3.6-8-8V699.2c0-4.4 3.6-8 8-8H456c4.4 0 8 3.6 8 8z" class="st4"/><path d="M657.5 715.9v65.2c0 4.4-3.6 8-8 8h-65.2c-4.4 0-8-3.6-8-8v-65.2c0-4.4 3.6-8 8-8h65.2c4.4 0 8 3.6 8 8z" class="st6"/><path d="M1430.5 420.6h-103.4c-6.6 0-12 5.4-12 12v48h-190.6c-8.5 0-15.1 5.3-15.1 12.1v83.6h-38.7c-6.6 0-12 5.4-12 12V626H296.8c-1 0-1.9-.4-2.6-1.1s-1.1-1.6-1.1-2.6l.5-93.7h66.1c6.6 0 12-5.4 12-12v-66h38.9c2 0 3.6 1.6 3.6 3.6v93.5c0 6.4 5.2 11.6 11.6 11.6h344.7c6.4 0 11.6-5.2 11.6-11.6V270.5c0-2 1.6-3.6 3.6-3.6h42.2v59c0 6.6 5.4 12 12 12h59v63.6c0 5.8 4.1 10.5 9.1 10.5h86.7v26.6c0 6.6 5.4 12 12 12h61.4c6.6 0 12-5.4 12-12v-61.4c0-6.6-5.4-12-12-12H1007c-6.6 0-12 5.4-12 12V404h-86.7c-.3 0-1.1-.9-1.1-2.5v-63.6h59c6.6 0 12-5.4 12-12v-59.5h180.2v42.3c0 6.6 5.4 12 12 12h92c6.6 0 12-5.4 12-12v-92c0-6.6-5.4-12-12-12h-92c-6.6 0-12 5.4-12 12v41.7H978.2v-58.5c0-6.6-5.4-12-12-12h-59.4v-64.6c0-1.2 1.7-2.5 4-2.5h138v19.3c0 6.6 5.4 12 12 12h46.7c6.6 0 12-5.4 12-12V93.4c0-6.6-5.4-12-12-12h-46.7c-6.6 0-12 5.4-12 12v19.3h-138c-6.6 0-12 4.7-12 10.5v64.6h-58.6c-6.6 0-12 5.4-12 12v59H786c-6.4 0-11.6 5.2-11.6 11.6v277.2c0 2-1.6 3.6-3.6 3.6H425.9c-2 0-3.6-1.6-3.6-3.6v-93.5c0-6.4-5.2-11.6-11.6-11.6h-38.9V376c0-6.6-5.4-12-12-12h-42.5v-70.5c0-2 1.6-3.6 3.6-3.6h101.5v46.8c0 6.6 5.4 12 12 12h45.9v75.2c0 6.4 4.8 11.6 10.8 11.6h116.3v42.3c0 6.6 5.4 12 12 12H712c6.6 0 12-5.4 12-12v-92.6c0-6.6-5.4-12-12-12h-92.6c-6.6 0-12 5.4-12 12v42.3H491.1c-1.5 0-2.8-1.7-2.8-3.6v-75.2h46.6c6.6 0 12-5.4 12-12v-46.3h83.2v-8H547V236c0-6.6-5.4-12-12-12h-46.3v-76.1c0-2 1.6-3.6 3.6-3.6H623V171c0 6.6 5.4 12 12 12h61.4c6.6 0 12-5.4 12-12v-61.4c0-6.6-5.4-12-12-12H635c-6.6 0-12 5.4-12 12v26.7H492.3c-6.4 0-11.6 5.2-11.6 11.6V224h-46.3c-6.6 0-12 5.4-12 12v45.8H320.9c-6.4 0-11.6 5.2-11.6 11.6V364h-90.2c-6.6 0-12 5.4-12 12v66.3h-37.9c-6.4 0-11.6 5.2-11.6 11.6v287.9c0 6.4 5.2 11.6 11.6 11.6h174.2v46.3c0 6.6 5.4 12 12 12H456c6.6 0 12-5.4 12-12v-46.3h104.4V781c0 6.6 5.4 12 12 12h65.2c6.6 0 12-5.4 12-12v-65.2c0-6.6-5.4-12-12-12h-65.2c-6.6 0-12 5.4-12 12v29.6H468v-46.3c0-6.6-5.4-12-12-12H355.4c-6.6 0-12 5.4-12 12v46.3H169.1c-2 0-3.6-1.6-3.6-3.6V454c0-2 1.6-3.6 3.6-3.6H207v66.3c0 6.6 5.4 12 12 12h66.5l-.5 93.7c0 3.1 1.2 6.1 3.4 8.3 2.2 2.2 5.1 3.4 8.3 3.4h761.9v39c0 6.6 5.4 12 12 12h38.3v82.4c0 6.8 5.2 12.4 11.6 12.4h130.7v26.7c0 6.6 5.4 12 12 12h61.4c6.6 0 12-5.4 12-12v-61.4c0-6.6-5.4-12-12-12h-61.4c-6.6 0-12 5.4-12 12v26.7h-130.7c-2 0-3.6-2-3.6-4.4v-82.4h38.3c6.6 0 12-5.4 12-12v-38.8h76.7v37.9c0 6.6 5.4 12 12 12h83.7c6.6 0 12-5.4 12-12v-83.7c0-6.6-5.4-12-12-12H1256c-6.6 0-12 5.4-12 12v37.9h-76.7v-37.9c0-6.6-5.4-12-12-12h-38v-83.6c0-1.9 3-4.1 7.1-4.1H1315v47.4c0 6.6 5.4 12 12 12h103.4c6.6 0 12-5.4 12-12V432.6c.1-6.6-5.3-12-11.9-12zM1003 377.2c0-2.2 1.8-4 4-4h61.4c2.2 0 4 1.8 4 4v61.4c0 2.2-1.8 4-4 4H1007c-2.2 0-4-1.8-4-4v-61.4zm163.4-160.5c0-2.2 1.8-4 4-4h92c2.2 0 4 1.8 4 4v92c0 2.2-1.8 4-4 4h-92c-2.2 0-4-1.8-4-4v-92zM1056.9 93.5c0-2.2 1.8-4 4-4h46.7c2.2 0 4 1.8 4 4v46.7c0 2.2-1.8 4-4 4h-46.7c-2.2 0-4-1.8-4-4V93.5zM836.2 199.9c0-2.2 1.8-4 4-4h126c2.2 0 4 1.8 4 4v126c0 2.2-1.8 4-4 4h-126c-2.2 0-4-1.8-4-4v-126zM615.4 385.1c0-2.2 1.8-4 4-4H712c2.2 0 4 1.8 4 4v92.6c0 2.2-1.8 4-4 4h-92.6c-2.2 0-4-1.8-4-4v-92.6zM631 109.5c0-2.2 1.8-4 4-4h61.4c2.2 0 4 1.8 4 4v61.4c0 2.2-1.8 4-4 4H635c-2.2 0-4-1.8-4-4v-61.4zM430.4 236c0-2.2 1.8-4 4-4H535c2.2 0 4 1.8 4 4v100.6c0 2.2-1.8 4-4 4H434.4c-2.2 0-4-1.8-4-4V236zm153.9 475.9h65.2c2.2 0 4 1.8 4 4v65.2c0 2.2-1.8 4-4 4h-65.2c-2.2 0-4-1.8-4-4v-29.9c.2-.5.4-1.1.4-1.6s-.1-1.1-.4-1.6v-31.9c0-2.4 1.8-4.2 4-4.2zm-232.9-12.7c0-2.2 1.8-4 4-4H456c2.2 0 4 1.8 4 4v100.6c0 2.2-1.8 4-4 4H355.4c-2.2 0-4-1.8-4-4V699.2zM215.1 516.7V376c0-2.2 1.8-4 4-4h140.7c2.2 0 4 1.8 4 4v140.7c0 2.2-1.8 4-4 4H219.1c-2.2 0-4-1.8-4-4zm1044.3 228.4c0-2.2 1.8-4 4-4h61.4c2.2 0 4 1.8 4 4v61.4c0 2.2-1.8 4-4 4h-61.4c-2.2 0-4-1.8-4-4v-61.4zm-7.4-156.7c0-2.2 1.8-4 4-4h83.7c2.2 0 4 1.8 4 4v83.7c0 2.2-1.8 4-4 4H1256c-2.2 0-4-1.8-4-4v-83.7zm-92.7 0v84.7c0 2.2-1.8 4-4 4h-84.7c-2.2 0-4-1.8-4-4v-84.7c0-2.2 1.8-4 4-4h84.7c2.2 0 4 1.8 4 4zm275.2-52.3c0 2.2-1.8 4-4 4h-103.4c-2.2 0-4-1.8-4-4V432.6c0-2.2 1.8-4 4-4h103.4c2.2 0 4 1.8 4 4v103.5z"/><path d="M642.4 250.5c-6.6 0-12 5.4-12 12v46.7c0 6.6 5.4 12 12 12h46.7c6.6 0 12-5.4 12-12v-46.7c0-6.6-5.4-12-12-12h-46.7zm50.7 12v46.7c0 2.2-1.8 4-4 4h-46.7c-2.2 0-4-1.8-4-4v-46.7c0-2.2 1.8-4 4-4h46.7c2.2 0 4 1.7 4 4z"/></g></svg>