<svg xmlns="http://www.w3.org/2000/svg" xml:space="preserve" viewBox="0 0 1600 693"><path fill="#5C27C1" d="M0 0h1600v693H0z"/><g stroke="#15131E" stroke-miterlimit="10"><circle cx="800" cy="347" r="205" fill="#6E8AED" stroke-width="20"/><g fill="#52CE87" stroke-width="15"><path d="M769.6 313.9c11.4.1 56.4 9.1 44.4.1s-34-49-34-49c-6 3-16.6 16.1-20.8 23.6-4.2 7.4-1 25.2 10.4 25.3zM617 329c-6-15 25-31 41.8-37.5 16.8-6.5 49.6-20.5 49-26.5-2.8-28-1.8-42-6.8-64-2-8.9-7.2-18.2-12.6-26-56.2 36.6-93.4 99.9-93.4 172 0 11.3.9 22.3 2.7 33.1 11.9-19.5 22.7-42.7 19.3-51.1zM645 424c-5.6 3.3-18.9 6.1-31.5 8.2 13.4 29.3 33.5 54.8 58.3 74.7.9-9 32.5 25.9 33.7 17.6 2-13.5-23.5-36.5-25-67-1-20-23.5-40.5-35.5-33.5z"/></g><path fill="#52CE87" stroke-width="15" d="M960.5 452.5c-10-22.4-20-26-6-37 11.2-8.8 14 2 28 0 8.7-1.2 22-36 22.4-62.1.1-2.1.1-4.2.1-6.4 0-94.4-63.8-173.9-150.7-197.7-5.1 10.2-9.3 19.7-9.3 19.7s-8 10.1 0 30 5.9 38.4-3.6 50.7-5 55.3 14.3 47.3 38.3-41 38.3-41-10-25.5 0-28.2c10-2.8 30 18.2 30 35.2s4 53-19 51-43 8-43 8-13.7 29-25.3 25c-11.7-4-36.7 0-36.7 0s-16 17.6 0 32.8 25 30.2 50 20.2 57-40 59-24-9 48-9 48-10.8 26.8-41.4 14.9C828 427 819 419.6 813.5 419.5c-5.5-.1-55 12-48 26S775 505 775 505s6 21.1 24.5 28.5c5.8 2.4 12.2 9.3 18.2 17.7 58.7-5 110.3-34.8 144.4-78.8.4.1 2.4-11-1.6-19.9z"/></g><path fill="#F1EDF9" stroke="#15131E" stroke-miterlimit="10" stroke-width="15" d="m772 199 70-30s4.8-9.3 8.8-20.1c-16.8-4.5-32.5-6.9-50.8-6.9-31.4 0-61.2 7.1-87.8 19.7L725 187l47 12z"/></svg>