<?xml version="1.0" encoding="utf-8"?>
<!-- Generator: Adobe Illustrator 22.1.0, SVG Export Plug-In . SVG Version: 6.00 Build 0)  -->
<svg version="1.1" id="Layer_1" xmlns="http://www.w3.org/2000/svg" xmlns:xlink="http://www.w3.org/1999/xlink" x="0px" y="0px"
	 viewBox="0 0 900 465" enable-background="new 0 0 900 465" xml:space="preserve">
<g id="Layer_1_1_">
	<rect x="0.5" fill="#212121" width="900" height="465"/>
</g>
<path fill="#62D3D3" d="M386,160.5h-88c-1.1,0-2-0.9-2-2v-44c0-1.1,0.9-2,2-2h88c1.1,0,2,0.9,2,2v44
	C388,159.6,387.1,160.5,386,160.5z"/>
<path fill="#62D3D3" d="M494,160.5h-88c-1.1,0-2-0.9-2-2v-44c0-1.1,0.9-2,2-2h88c1.1,0,2,0.9,2,2v44
	C496,159.6,495.1,160.5,494,160.5z"/>
<path fill="#62D3D3" d="M602,160.5h-88c-1.1,0-2-0.9-2-2v-44c0-1.1,0.9-2,2-2h88c1.1,0,2,0.9,2,2v44
	C604,159.6,603.1,160.5,602,160.5z"/>
<path fill="#62D3D3" d="M386,224.5h-88c-1.1,0-2-0.9-2-2v-44c0-1.1,0.9-2,2-2h88c1.1,0,2,0.9,2,2v44
	C388,223.6,387.1,224.5,386,224.5z"/>
<path fill="#62D3D3" d="M494,224.5h-88c-1.1,0-2-0.9-2-2v-44c0-1.1,0.9-2,2-2h88c1.1,0,2,0.9,2,2v44
	C496,223.6,495.1,224.5,494,224.5z"/>
<path fill="#62D3D3" d="M602,224.5h-88c-1.1,0-2-0.9-2-2v-44c0-1.1,0.9-2,2-2h88c1.1,0,2,0.9,2,2v44
	C604,223.6,603.1,224.5,602,224.5z"/>
<path fill="#62D3D3" d="M386,288.5h-88c-1.1,0-2-0.9-2-2v-44c0-1.1,0.9-2,2-2h88c1.1,0,2,0.9,2,2v44
	C388,287.6,387.1,288.5,386,288.5z"/>
<path fill="#62D3D3" d="M494,288.5h-88c-1.1,0-2-0.9-2-2v-44c0-1.1,0.9-2,2-2h88c1.1,0,2,0.9,2,2v44
	C496,287.6,495.1,288.5,494,288.5z"/>
<path fill="#62D3D3" d="M602,288.5h-88c-1.1,0-2-0.9-2-2v-44c0-1.1,0.9-2,2-2h88c1.1,0,2,0.9,2,2v44
	C604,287.6,603.1,288.5,602,288.5z"/>
<rect x="275.5" y="92.3" fill="none" stroke="#666666" stroke-miterlimit="10" width="349" height="280.5"/>
<path fill="#FF9F50" d="M386,352.5h-88c-1.1,0-2-0.9-2-2v-44c0-1.1,0.9-2,2-2h88c1.1,0,2,0.9,2,2v44
	C388,351.6,387.1,352.5,386,352.5z"/>
<path fill="#FF9F50" d="M494,352.5h-88c-1.1,0-2-0.9-2-2v-44c0-1.1,0.9-2,2-2h88c1.1,0,2,0.9,2,2v44
	C496,351.6,495.1,352.5,494,352.5z"/>
</svg>
