<svg xmlns="http://www.w3.org/2000/svg" xmlns:xlink="http://www.w3.org/1999/xlink" xml:space="preserve" viewBox="0 0 1600 900"><defs><path id="a" fill="#231F20" d="M1329 938.12H271c-9.17 0-16.64-7.46-16.64-16.64V611.32c0-9.17 7.46-16.64 16.64-16.64h1058c9.17 0 16.64 7.46 16.64 16.64v310.16c-.01 9.18-7.47 16.64-16.64 16.64zM271 600.68c-5.87 0-10.64 4.77-10.64 10.64v310.16c0 5.87 4.77 10.64 10.64 10.64h1058c5.87 0 10.64-4.77 10.64-10.64V611.32c0-5.87-4.77-10.64-10.64-10.64H271z"/></defs><path fill="#B1D0E8" d="M0 0h1600v900H0z"/><path fill="#F2F3F4" d="M1424.32 911H175.68V150.08c0-12.47 10.11-22.57 22.57-22.57h1203.51c12.47 0 22.57 10.11 22.57 22.57V911z"/><path fill="#231F20" d="M1427.32 914H172.68V150.08c0-14.1 11.47-25.57 25.57-25.57h1203.51c14.1 0 25.57 11.47 25.57 25.57V914zm-1248.64-6h1242.65V150.08c0-10.79-8.78-19.57-19.57-19.57H198.25c-10.79 0-19.57 8.78-19.57 19.57V908z"/><path fill="#4F5054" d="M1401.75 127.51H198.25c-12.47 0-22.57 10.11-22.57 22.57v36.89h1248.65v-36.89c-.01-12.46-10.11-22.57-22.58-22.57z"/><path fill="#231F20" d="M1427.32 189.97H172.68v-39.89c0-14.1 11.47-25.57 25.57-25.57h1203.51c14.1 0 25.57 11.47 25.57 25.57v39.89zm-1248.64-6h1242.65v-33.89c0-10.79-8.78-19.57-19.57-19.57H198.25c-10.79 0-19.57 8.78-19.57 19.57v33.89z"/><path fill="#FFF" d="M1328.99 560.39H271.01c-7.53 0-13.64-6.11-13.64-13.64V318.18c0-7.53 6.11-13.64 13.64-13.64H1329c7.53 0 13.64 6.11 13.64 13.64v228.58c-.01 7.53-6.11 13.63-13.65 13.63z"/><path fill="#231F20" d="M1329 563.39H271c-9.17 0-16.64-7.46-16.64-16.64V318.18c0-9.17 7.46-16.64 16.64-16.64h1058c9.17 0 16.64 7.46 16.64 16.64v228.58c-.01 9.17-7.47 16.63-16.64 16.63zM271 307.54c-5.87 0-10.64 4.77-10.64 10.64v228.58c0 5.87 4.77 10.64 10.64 10.64h1058c5.87 0 10.64-4.77 10.64-10.64V318.18c0-5.87-4.77-10.64-10.64-10.64H271z"/><path fill="#231F20" d="M291.94 363.58h217.23v22.97H291.94zm431.44 82.09h222.67v15.76H723.38zm0 29.41h166.73v15.76H723.38z"/><path d="m464.59 447.21-16.44 46.78h-16.76l12.63-34.79c.71-2.06 1.51-4.21 3.02-6.27h-23.03l-.71-13.74h35.18c4.6-.01 7.62 3.73 6.11 8.02zm41.46 4.28h-22.56l-.48 5.72 10.17 1.35c12.39 1.51 15.09 10.4 15.09 18.35 0 10.25-4.92 18.03-20.73 18.03-5.8 0-13.03-.56-20.33-1.43l1.43-12.79c5.4.24 10.4.48 14.38.48 6.35 0 7.86-1.27 8.18-4.92.32-3.73-1.83-5-7.31-5.4l-10.01-1.27c-2.86-.4-4.84-2.62-4.69-5.4l1.51-25.02h35.9l-.55 12.3zm24.81 16.13c0 8.42-2.49 10.91-9.69 10.91-7.1 0-9.58-2.49-9.58-10.91s2.49-10.91 9.58-10.91c7.2 0 9.69 2.49 9.69 10.91zm-11.18 0c0 4.92.21 5.14 1.48 5.14 1.32 0 1.59-.21 1.59-5.14 0-4.87-.26-5.14-1.59-5.14-1.27 0-1.48.27-1.48 5.14zm8.37 26.37h-6.67l20.12-36.53h6.67l-20.12 36.53zm30.02-10.17c0 8.42-2.49 10.91-9.69 10.91-7.09 0-9.58-2.49-9.58-10.91s2.49-10.91 9.58-10.91c7.2 0 9.69 2.49 9.69 10.91zm-11.17 0c0 4.87.21 5.14 1.48 5.14 1.32 0 1.59-.26 1.59-5.14 0-4.92-.26-5.14-1.59-5.14-1.27 0-1.48.22-1.48 5.14z"/><path fill="#D7E2D9" d="M323.75 489.98a30.625 30.625 0 0 1-7.33-19.92c0-16.99 13.77-30.76 30.76-30.76 16.99 0 30.76 13.77 30.76 30.76 0 7.61-2.77 14.57-7.35 19.94l14.52 10.42a48.359 48.359 0 0 0 10.66-30.36c0-26.83-21.75-48.59-48.59-48.59-26.83 0-48.59 21.75-48.59 48.59 0 11.53 4.02 22.11 10.73 30.44l14.43-10.52z"/><path fill="#231F20" d="M309.32 502.51c-.59 0-1.17-.26-1.56-.75-7.21-8.95-11.17-20.2-11.17-31.7 0-27.89 22.69-50.59 50.59-50.59 27.89 0 50.59 22.69 50.59 50.59 0 11.62-3.84 22.54-11.1 31.61-.67.83-1.86.99-2.73.37l-14.52-10.42a2.003 2.003 0 0 1-.36-2.92c4.43-5.2 6.87-11.82 6.87-18.64 0-15.86-12.9-28.75-28.75-28.75s-28.75 12.9-28.75 28.75c0 6.82 2.43 13.43 6.85 18.62.36.42.53.98.46 1.53s-.36 1.05-.81 1.38l-14.43 10.53c-.36.26-.77.39-1.18.39zm37.85-79.03c-25.69 0-46.59 20.9-46.59 46.59 0 10.1 3.15 19.63 9.12 27.68l11.17-8.15a32.79 32.79 0 0 1-6.47-19.53c0-18.06 14.69-32.75 32.75-32.75s32.75 14.69 32.75 32.75c0 7.05-2.29 13.91-6.47 19.54l11.24 8.07c5.94-8.04 9.07-17.54 9.07-27.6.02-25.7-20.88-46.6-46.57-46.6z"/><path fill="#92FF45" d="m374.81 456.57 15.35-9.15c-8.14-15.43-24.33-25.95-42.99-25.95-26.83 0-48.59 21.75-48.59 48.59 0 11.53 4.02 22.11 10.73 30.44l14.43-10.53a30.625 30.625 0 0 1-7.33-19.92c0-16.99 13.77-30.76 30.76-30.76 12.15.02 22.65 7.06 27.64 17.28z"/><path fill="#231F20" d="M309.32 502.51c-.59 0-1.17-.26-1.56-.75-7.21-8.95-11.17-20.2-11.17-31.7 0-27.89 22.69-50.59 50.59-50.59 18.81 0 35.96 10.35 44.76 27.01.5.94.17 2.11-.74 2.65l-15.35 9.15c-.48.29-1.06.36-1.59.2a2.02 2.02 0 0 1-1.23-1.04c-4.87-9.96-14.77-16.14-25.84-16.14-15.86 0-28.75 12.9-28.75 28.75 0 6.82 2.43 13.43 6.85 18.62.36.42.53.98.46 1.53s-.36 1.05-.81 1.38l-14.43 10.53c-.37.27-.78.4-1.19.4zm37.85-79.03c-25.69 0-46.59 20.9-46.59 46.59 0 10.1 3.15 19.63 9.12 27.68l11.17-8.15a32.79 32.79 0 0 1-6.47-19.53c0-18.06 14.69-32.75 32.75-32.75 11.88 0 22.59 6.26 28.42 16.47l11.88-7.08c-8.31-14.38-23.58-23.23-40.28-23.23z"/><path fill="#231F20" d="m346.21 470.158 27.644-15.369 1.944 3.496-27.645 15.37z"/><circle cx="347.17" cy="471.94" r="6.25"/><path fill="#FFF" d="M1328.99 935.12H271.01c-7.53 0-13.64-6.11-13.64-13.64V611.32c0-7.53 6.11-13.64 13.64-13.64H1329c7.53 0 13.64 6.11 13.64 13.64v310.16c-.01 7.54-6.11 13.64-13.65 13.64z"/><use xlink:href="#a"/><circle cx="215.81" cy="158.3" r="12.1" fill="#EF5454"/><path fill="#231F20" d="M215.81 172.4c-7.77 0-14.1-6.32-14.1-14.1 0-7.77 6.32-14.1 14.1-14.1s14.1 6.32 14.1 14.1c0 7.78-6.33 14.1-14.1 14.1zm0-24.19c-5.57 0-10.1 4.53-10.1 10.1 0 5.57 4.53 10.1 10.1 10.1s10.1-4.53 10.1-10.1c0-5.57-4.53-10.1-10.1-10.1z"/><circle cx="253.27" cy="158.3" r="12.1" fill="#FFD217"/><path fill="#231F20" d="M253.27 172.4c-7.77 0-14.1-6.32-14.1-14.1 0-7.77 6.32-14.1 14.1-14.1s14.1 6.32 14.1 14.1c-.01 7.78-6.33 14.1-14.1 14.1zm0-24.19c-5.57 0-10.1 4.53-10.1 10.1 0 5.57 4.53 10.1 10.1 10.1 5.57 0 10.1-4.53 10.1-10.1-.01-5.57-4.54-10.1-10.1-10.1z"/><circle cx="290.72" cy="158.3" r="12.1" fill="#41C95E"/><path fill="#231F20" d="M290.72 172.4c-7.77 0-14.1-6.32-14.1-14.1 0-7.77 6.32-14.1 14.1-14.1s14.1 6.32 14.1 14.1c0 7.78-6.32 14.1-14.1 14.1zm0-24.19c-5.57 0-10.1 4.53-10.1 10.1 0 5.57 4.53 10.1 10.1 10.1 5.57 0 10.1-4.53 10.1-10.1 0-5.57-4.53-10.1-10.1-10.1zm1.22 498.27h284.48v25.37H291.94zm-.22 149.24h222.67v15.76H291.72zm0 42.4h193.02v15.76H291.72zm328.16-42.4h118.27v15.76H619.88zm0 42.4h118.27v15.76H619.88zm186.88-43.48h118.27v15.76H806.76zm0 43.48h118.27v15.76H806.76zm195.76-43.48h96.87v15.76h-96.87zm0 43.48h76.08v15.76h-76.08zm165.81-43.48h130.51v15.76h-130.51zm0 43.48h130.51v15.76h-130.51zM291.94 708.37h222.67v15.76H291.94zm0 42.41h193.02v15.76H291.94zm328.16-42.41h118.27v15.76H620.1zm0 42.41h118.27v15.76H620.1zm186.88-43.48h118.27v15.76H806.98zm0 43.48h118.27v15.76H806.98zm195.76-43.48h96.87v15.76h-96.87zm0 43.48h76.08v15.76h-76.08zm165.81-43.48h130.51v15.76h-130.51zm0 43.48h130.51v15.76h-130.51z"/><linearGradient id="b" x1="803.105" x2="796.895" y1="944.305" y2="588.503" gradientUnits="userSpaceOnUse"><stop offset="0" stop-color="#fff"/><stop offset=".272" stop-color="#fff" stop-opacity=".993"/><stop offset="1" stop-color="#fff" stop-opacity="0"/></linearGradient><path fill="url(#b)" fill-opacity=".68" d="M1328.99 935.12H271.01c-7.53 0-13.64-6.11-13.64-13.64V611.32c0-7.53 6.11-13.64 13.64-13.64H1329c7.53 0 13.64 6.11 13.64 13.64v310.16c-.01 7.54-6.11 13.64-13.65 13.64z"/><use xlink:href="#a"/></svg>