<svg xmlns="http://www.w3.org/2000/svg" xmlns:xlink="http://www.w3.org/1999/xlink" xml:space="preserve" viewBox="0 0 1600 900"><defs><path id="a" fill="#231F20" d="M1329 920.42H271.01c-9.17 0-16.64-7.46-16.64-16.64v-194.1c0-9.17 7.46-16.64 16.64-16.64H1329c9.17 0 16.64 7.46 16.64 16.64v194.1c-.01 9.17-7.47 16.64-16.64 16.64zM271.01 699.05c-5.87 0-10.64 4.77-10.64 10.64v194.1c0 5.87 4.77 10.64 10.64 10.64H1329c5.87 0 10.64-4.77 10.64-10.64v-194.1c0-5.87-4.77-10.64-10.64-10.64H271.01z"/></defs><path fill="#B1D0E8" d="M0 0h1600v900H0z"/><path fill="#F2F3F4" d="M1424.32 911H175.68V150.08c0-12.47 10.11-22.57 22.57-22.57h1203.51c12.47 0 22.57 10.11 22.57 22.57V911z"/><path fill="#231F20" d="M1427.32 914H172.68V150.08c0-14.1 11.47-25.57 25.57-25.57h1203.51c14.1 0 25.57 11.47 25.57 25.57V914zm-1248.64-6h1242.65V150.08c0-10.79-8.78-19.57-19.57-19.57H198.25c-10.79 0-19.57 8.78-19.57 19.57V908z"/><path fill="#4F5054" d="M1401.75 127.51H198.25c-12.47 0-22.57 10.11-22.57 22.57v36.89h1248.65v-36.89c-.01-12.46-10.11-22.57-22.58-22.57z"/><path fill="#231F20" d="M1427.32 189.97H172.68v-39.89c0-14.1 11.47-25.57 25.57-25.57h1203.51c14.1 0 25.57 11.47 25.57 25.57v39.89zm-1248.64-6h1242.65v-33.89c0-10.79-8.78-19.57-19.57-19.57H198.25c-10.79 0-19.57 8.78-19.57 19.57v33.89z"/><path fill="#FFF" d="M769.18 658.59H271.01c-7.53 0-13.64-6.11-13.64-13.64V318.18c0-7.53 6.11-13.64 13.64-13.64h498.18c7.53 0 13.64 6.11 13.64 13.64v326.78c-.01 7.53-6.11 13.63-13.65 13.63z"/><path fill="#231F20" d="M769.18 661.59H271.01c-9.17 0-16.64-7.46-16.64-16.64V318.18c0-9.17 7.46-16.64 16.64-16.64h498.18c9.17 0 16.64 7.46 16.64 16.64v326.78c-.01 9.17-7.47 16.63-16.65 16.63zM271.01 307.54c-5.87 0-10.64 4.77-10.64 10.64v326.78c0 5.87 4.77 10.64 10.64 10.64h498.18c5.87 0 10.64-4.77 10.64-10.64V318.18c0-5.87-4.77-10.64-10.64-10.64H271.01z"/><path fill="#FFF" d="M1328.99 658.59H830.82c-7.53 0-13.64-6.11-13.64-13.64V318.18c0-7.53 6.11-13.64 13.64-13.64H1329c7.53 0 13.64 6.11 13.64 13.64v326.78c-.01 7.53-6.11 13.63-13.65 13.63z"/><path fill="#231F20" d="M1329 661.59H830.82c-9.17 0-16.64-7.46-16.64-16.64V318.18c0-9.17 7.46-16.64 16.64-16.64H1329c9.17 0 16.64 7.46 16.64 16.64v326.78c-.01 9.17-7.47 16.63-16.64 16.63zM830.82 307.54c-5.87 0-10.64 4.77-10.64 10.64v326.78c0 5.87 4.77 10.64 10.64 10.64H1329c5.87 0 10.64-4.77 10.64-10.64V318.18c0-5.87-4.77-10.64-10.64-10.64H830.82zm-412.76 74.7h217.23v22.97H418.06zm-2.72 170.27h222.67v15.76H415.34zm28.58 29.42h166.73v15.76H443.92z"/><path d="m566.57 461.94-16.44 46.78h-16.76L546 473.93c.71-2.06 1.51-4.21 3.02-6.27h-23.03l-.71-13.74h35.18c4.6 0 7.62 3.73 6.11 8.02zm41.45 4.28h-22.56l-.48 5.72 10.17 1.35c12.39 1.51 15.09 10.4 15.09 18.35 0 10.25-4.92 18.03-20.73 18.03-5.8 0-13.03-.56-20.33-1.43l1.43-12.79c5.4.24 10.4.48 14.38.48 6.35 0 7.86-1.27 8.18-4.92.32-3.73-1.83-5-7.31-5.4l-10.01-1.27c-2.86-.4-4.84-2.62-4.69-5.4l1.51-25.02h35.9l-.55 12.3zm24.81 16.13c0 8.42-2.49 10.91-9.69 10.91-7.1 0-9.58-2.49-9.58-10.91s2.49-10.91 9.58-10.91c7.2 0 9.69 2.49 9.69 10.91zm-11.17 0c0 4.92.21 5.14 1.48 5.14 1.32 0 1.59-.21 1.59-5.14 0-4.87-.26-5.14-1.59-5.14-1.27 0-1.48.27-1.48 5.14zm8.36 26.37h-6.67l20.12-36.53h6.67l-20.12 36.53zm30.03-10.17c0 8.42-2.49 10.91-9.69 10.91-7.1 0-9.58-2.49-9.58-10.91s2.49-10.91 9.58-10.91c7.2 0 9.69 2.49 9.69 10.91zm-11.18 0c0 4.87.21 5.14 1.48 5.14 1.32 0 1.59-.26 1.59-5.14 0-4.92-.26-5.14-1.59-5.14-1.27 0-1.48.22-1.48 5.14z"/><path fill="#D7E2D9" d="M425.72 504.71a30.625 30.625 0 0 1-7.33-19.92c0-16.99 13.77-30.76 30.76-30.76s30.76 13.77 30.76 30.76c0 7.61-2.77 14.57-7.35 19.94l14.52 10.42a48.359 48.359 0 0 0 10.66-30.36c0-26.83-21.75-48.59-48.59-48.59s-48.59 21.75-48.59 48.59c0 11.53 4.02 22.11 10.73 30.44l14.43-10.52z"/><path fill="#231F20" d="M411.29 517.24c-.59 0-1.17-.26-1.56-.75-7.21-8.95-11.17-20.2-11.17-31.7 0-27.89 22.69-50.59 50.59-50.59s50.59 22.69 50.59 50.59c0 11.62-3.84 22.54-11.1 31.61-.67.83-1.86.99-2.73.37l-14.52-10.42c-.45-.33-.75-.83-.82-1.38-.07-.55.1-1.11.46-1.54a28.734 28.734 0 0 0 6.87-18.64c0-15.86-12.9-28.76-28.76-28.76s-28.76 12.9-28.76 28.76c0 6.81 2.43 13.43 6.85 18.62.36.42.53.98.46 1.53s-.36 1.05-.81 1.38l-14.43 10.53c-.33.26-.75.39-1.16.39zm37.86-79.03c-25.69 0-46.59 20.9-46.59 46.59 0 10.1 3.15 19.63 9.12 27.68l11.18-8.15a32.79 32.79 0 0 1-6.47-19.53c0-18.06 14.69-32.76 32.76-32.76s32.76 14.69 32.76 32.76c0 7.05-2.29 13.91-6.47 19.54l11.24 8.07c5.94-8.04 9.07-17.54 9.07-27.6-.01-25.7-20.91-46.6-46.6-46.6z"/><path fill="#92FF45" d="m476.79 471.3 15.35-9.15c-8.14-15.43-24.33-25.95-42.99-25.95-26.83 0-48.59 21.75-48.59 48.59 0 11.53 4.02 22.11 10.73 30.44l14.43-10.53a30.625 30.625 0 0 1-7.33-19.92c0-16.99 13.77-30.76 30.76-30.76 12.14.02 22.64 7.06 27.64 17.28z"/><path fill="#231F20" d="M411.29 517.24c-.59 0-1.17-.26-1.56-.75-7.21-8.95-11.17-20.2-11.17-31.7 0-27.89 22.69-50.59 50.59-50.59 18.81 0 35.96 10.35 44.76 27.01.5.94.17 2.11-.74 2.65l-15.35 9.15c-.48.29-1.06.36-1.59.2s-.98-.54-1.23-1.04c-4.87-9.96-14.77-16.14-25.84-16.14-15.86 0-28.76 12.9-28.76 28.76 0 6.81 2.43 13.43 6.85 18.62.36.42.53.98.46 1.53s-.36 1.05-.81 1.38l-14.43 10.53c-.35.26-.77.39-1.18.39zm37.86-79.03c-25.69 0-46.59 20.9-46.59 46.59 0 10.1 3.15 19.63 9.12 27.68l11.18-8.15a32.79 32.79 0 0 1-6.47-19.53c0-18.06 14.69-32.76 32.76-32.76 11.88 0 22.59 6.26 28.42 16.47l11.88-7.08c-8.34-14.37-23.61-23.22-40.3-23.22z"/><path fill="#231F20" d="m448.146 484.924 27.642-15.372 1.944 3.495-27.642 15.373z"/><circle cx="449.15" cy="486.68" r="6.25"/><path fill="#231F20" d="M1274.39 591.81H884.75c-1.1 0-2-.9-2-2V382.24h4V587.8h387.65v4.01z"/><path fill="#546DEA" d="M884.75 499.15h27.37v90.65h-27.37z"/><path fill="#231F20" d="M912.12 591.81h-27.37c-1.1 0-2-.9-2-2v-90.65c0-1.1.9-2 2-2h27.37c1.1 0 2 .9 2 2v90.65c0 1.1-.9 2-2 2zm-25.37-4h23.37v-86.65h-23.37v86.65z"/><path fill="#97B0F7" d="M912.12 473.25h27.37V589.8h-27.37z"/><path fill="#231F20" d="M939.49 591.81h-27.37c-1.1 0-2-.9-2-2V473.25c0-1.1.9-2 2-2h27.37c1.1 0 2 .9 2 2V589.8c0 1.11-.89 2.01-2 2.01zm-25.37-4h23.37V475.25h-23.37v112.56z"/><path fill="#546DEA" d="M968.47 455.4h27.37v134.4h-27.37z"/><path fill="#231F20" d="M995.85 591.81h-27.37c-1.1 0-2-.9-2-2V455.4c0-1.1.9-2 2-2h27.37c1.1 0 2 .9 2 2v134.4c0 1.11-.9 2.01-2 2.01zm-25.38-4h23.37V457.4h-23.37v130.41z"/><path fill="#97B0F7" d="M995.85 429.21h27.37v160.6h-27.37z"/><path fill="#231F20" d="M1023.22 591.81h-27.37c-1.1 0-2-.9-2-2v-160.6c0-1.1.9-2 2-2h27.37c1.1 0 2 .9 2 2v160.6c0 1.1-.9 2-2 2zm-25.37-4h23.37v-156.6h-23.37v156.6z"/><path fill="#546DEA" d="M1052.2 442.88h27.37v146.93h-27.37z"/><path fill="#231F20" d="M1079.57 591.81h-27.37c-1.1 0-2-.9-2-2V442.88c0-1.1.9-2 2-2h27.37c1.1 0 2 .9 2 2v146.93a2 2 0 0 1-2 2zm-25.37-4h23.37V444.88h-23.37v142.93z"/><path fill="#97B0F7" d="M1079.57 393.73h27.37v196.08h-27.37z"/><path fill="#231F20" d="M1106.94 591.81h-27.37c-1.1 0-2-.9-2-2V393.73c0-1.1.9-2 2-2h27.37c1.1 0 2 .9 2 2v196.08a2 2 0 0 1-2 2zm-25.37-4h23.37V395.73h-23.37v192.08z"/><path fill="#546DEA" d="M1135.92 480.57h27.37v109.24h-27.37z"/><path fill="#231F20" d="M1163.3 591.81h-27.37c-1.1 0-2-.9-2-2V480.57c0-1.1.9-2 2-2h27.37c1.1 0 2 .9 2 2v109.24c0 1.1-.9 2-2 2zm-25.38-4h23.37V482.57h-23.37v105.24z"/><path fill="#97B0F7" d="M1163.3 455.4h27.37v134.4h-27.37z"/><path fill="#231F20" d="M1190.67 591.81h-27.37c-1.1 0-2-.9-2-2V455.4c0-1.1.9-2 2-2h27.37c1.1 0 2 .9 2 2v134.4c0 1.11-.9 2.01-2 2.01zm-25.37-4h23.37V457.4h-23.37v130.41z"/><path fill="#546DEA" d="M1219.65 455.4h27.37v134.4h-27.37z"/><path fill="#231F20" d="M1247.02 591.81h-27.37c-1.1 0-2-.9-2-2V455.4c0-1.1.9-2 2-2h27.37c1.1 0 2 .9 2 2v134.4c0 1.11-.89 2.01-2 2.01zm-25.37-4h23.37V457.4h-23.37v130.41z"/><path fill="#97B0F7" d="M1247.02 442.88h27.37v146.93h-27.37z"/><path fill="#231F20" d="M1274.39 591.81h-27.37c-1.1 0-2-.9-2-2V442.88c0-1.1.9-2 2-2h27.37c1.1 0 2 .9 2 2v146.93a2 2 0 0 1-2 2zm-25.37-4h23.37V444.88h-23.37v142.93zm-363.88 22.92h124.42v11.92H885.14zm153.73 0h124.42v11.92h-124.42zM885.14 345.57h222.67v15.76H885.14z"/><path fill="#FFF" d="M1328.99 917.42H271.01c-7.53 0-13.64-6.11-13.64-13.64v-194.1c0-7.53 6.11-13.64 13.64-13.64H1329c7.53 0 13.64 6.11 13.64 13.64v194.1c-.01 7.53-6.11 13.64-13.65 13.64z"/><use xlink:href="#a"/><circle cx="215.81" cy="158.3" r="12.1" fill="#EF5454"/><path fill="#231F20" d="M215.81 172.4c-7.77 0-14.1-6.32-14.1-14.1 0-7.77 6.32-14.1 14.1-14.1s14.1 6.32 14.1 14.1c0 7.78-6.33 14.1-14.1 14.1zm0-24.19c-5.57 0-10.1 4.53-10.1 10.1 0 5.57 4.53 10.1 10.1 10.1s10.1-4.53 10.1-10.1c0-5.57-4.53-10.1-10.1-10.1z"/><circle cx="253.27" cy="158.3" r="12.1" fill="#FFD217"/><path fill="#231F20" d="M253.27 172.4c-7.77 0-14.1-6.32-14.1-14.1 0-7.77 6.32-14.1 14.1-14.1 7.77 0 14.1 6.32 14.1 14.1-.01 7.78-6.33 14.1-14.1 14.1zm0-24.19c-5.57 0-10.1 4.53-10.1 10.1 0 5.57 4.53 10.1 10.1 10.1 5.57 0 10.1-4.53 10.1-10.1-.01-5.57-4.54-10.1-10.1-10.1z"/><circle cx="290.72" cy="158.3" r="12.1" fill="#41C95E"/><path fill="#231F20" d="M290.72 172.4c-7.77 0-14.1-6.32-14.1-14.1 0-7.77 6.32-14.1 14.1-14.1 7.77 0 14.1 6.32 14.1 14.1 0 7.78-6.32 14.1-14.1 14.1zm0-24.19c-5.57 0-10.1 4.53-10.1 10.1 0 5.57 4.53 10.1 10.1 10.1 5.57 0 10.1-4.53 10.1-10.1 0-5.57-4.53-10.1-10.1-10.1zm1.22 596.63h284.48v25.37H291.94zm0 61.89h222.67v15.76H291.94zm0 42.41h193.02v15.76H291.94zm328.16-42.41h118.27v15.76H620.1zm0 42.41h118.27v15.76H620.1zm186.88-43.48h118.27v15.76H806.98zm0 43.48h118.27v15.76H806.98zm195.76-43.48h96.87v15.76h-96.87zm0 43.48h76.08v15.76h-76.08zm165.81-43.48h130.51v15.76h-130.51zm0 43.48h130.51v15.76h-130.51z"/><linearGradient id="b" x1="802.093" x2="797.907" y1="926.616" y2="686.847" gradientUnits="userSpaceOnUse"><stop offset="0" stop-color="#fff"/><stop offset=".272" stop-color="#fff" stop-opacity=".993"/><stop offset="1" stop-color="#fff" stop-opacity="0"/></linearGradient><path fill="url(#b)" fill-opacity=".68" d="M1328.99 917.42H271.01c-7.53 0-13.64-6.11-13.64-13.64v-194.1c0-7.53 6.11-13.64 13.64-13.64H1329c7.53 0 13.64 6.11 13.64 13.64v194.1c-.01 7.53-6.11 13.64-13.65 13.64z"/><use xlink:href="#a"/></svg>