<?xml version="1.0" encoding="utf-8"?>
<!-- Generator: Adobe Illustrator 22.1.0, SVG Export Plug-In . SVG Version: 6.00 Build 0)  -->
<svg version="1.1" xmlns="http://www.w3.org/2000/svg" xmlns:xlink="http://www.w3.org/1999/xlink" x="0px" y="0px"
	 viewBox="0 0 1200 600" enable-background="new 0 0 1200 600" xml:space="preserve">
<g id="Layer_2">
	<g>
		<path fill="#C4E8F7" d="M406,267.3c-4.2-14.9-21.3-19-33-12.1c-0.9-0.5-1.8-0.9-2.8-1.2c-12.7-4.1-27.8,4.1-30.6,17.3
			c-1.8,8.5,1.3,16.7,7,22.2c1.2,8.4,6.3,16.7,13.1,20.8c8.3,4.9,19.4,4,26.1-3.2c2.7-2.9,4.6-6.7,5.4-10.6c0.3-1.6,0.5-3.3,0.7-4.9
			c0.3-0.2,0.6-0.4,0.8-0.4c2.9-1.4,5.5-3,7.8-5.3C406.4,284,408.2,275.3,406,267.3z"/>
		<path fill="#C4E8F7" d="M324.7,343.3c-1.5-1.1-3.6-1.5-5.9-0.8c-7,2.1-12,8.6-11.1,16.1c0.9,7.6,7.3,12.4,14.6,13
			c1.7,0.2,3.8-0.7,5.2-2c0.2,0,0.4,0,0.6,0c6.2,0.1,11.8-4.2,13.5-10.2C344.6,348.5,333.9,340.5,324.7,343.3z"/>
		<path fill="#C4E8F7" d="M495.3,326c-1.6-4.5-5.8-6.8-10.3-7.4c0,0-0.1,0-0.1,0c0.9-1.5,1.3-3.4,0.6-5.6
			c-2.1-7.2-10.4-9.8-16.6-5.7c-5.3,3.4-9.9,9.9-10.3,16.3c-0.4,6.1,3.1,12.3,9.1,14.2c2.6,0.8,5.3,0.6,7.8-0.4
			c5,2.6,11.3,3.4,15.7,0.9C495.5,335.7,496.9,330.6,495.3,326z"/>
		<path fill="#C4E8F7" d="M641.7,292.8c-3.2-3.4-8-5.1-12.6-4.9c0.1-2.1-0.7-4.2-2.1-5.9c-8.6-10.4-25.6-6.8-29.6,5.9
			c-0.9,2.8-0.9,5.6-0.3,8.1c-1.8,1.9-3.2,4.2-4.1,6.8c-3.6,10.3,1.3,26.3,12.7,29.7c8.5,2.5,18-3.7,20.5-12c3.1,0.3,6.2-0.4,9-2.1
			c2.3-0.8,4.5-2.1,6.2-3.9C646.9,308.8,647.4,298.7,641.7,292.8z"/>
		<path fill="#C4E8F7" d="M899.2,228.9c-1.1-0.8-2.2-1.4-3.3-1.8c3.3-2.5,5.5-6.4,5.3-10.8c-0.3-5.5-3.6-8.7-7.6-9.7
			c-2.8-2.3-6-2.8-8.9-2c-3.6-2.8-8.4-3.9-12.9-1.4c-6.7,3.7-8,13.5-2.7,18.7c-3.5,1.7-6.5,4.9-7.6,8.5c-2.4,7.3,1.8,15.6,9.5,17.5
			c5.1,1.3,10.2-0.9,13.2-4.9c0.7,0.1,1.4,0.1,2.2,0.1c0.5,0,0.9-0.1,1.4-0.2c0.5,0,0.9-0.1,1.4-0.2c2.7,0.4,5.5,0.3,8.4-0.1
			C904.6,241.5,903.7,232.3,899.2,228.9z"/>
		<path fill="#C4E8F7" d="M772.2,304.6c0.4-4.7-3.4-9.8-9.3-8.2c-4.4,1.2-8,4.5-9.5,8.9c-0.6,1.8-0.9,4.1-0.6,6
			c-0.3,0.9-0.4,1.8-0.5,2.7c-0.2,4.9,3,9.2,7.8,10.3c5,1.2,10.2-1.6,12.7-6C775.3,314,774.5,308.7,772.2,304.6z"/>
	</g>
	<path fill="#FF7D9F" d="M408.4,422.2c9.7-13.4,16.5-29.1,19.2-45.4c1.1-6.6,1.9-14,1.2-20.9c0.3-6.3-0.4-12.8-4.7-17.6
		c-2.7-3-6.4-5-10.3-5.8c-4-4.8-9.5-8.1-15.4-8.3c-1.5-1.1-3.6-1.6-6.2-0.9c-23.7,5.8-38.9,33.3-30.6,56.4c0.8,2.1,2,3.5,3.5,4.4
		c-0.8,8,0.4,16.1,2,24c1.5,7.4,3.9,15.9,2.9,23.8c-9.5-1.9-19.6,2.3-26.9,9.7c-10.9,11-14.8,27.2-16.8,42
		c-2.3,17.2-3,34.6-4.4,51.9c-1.4,18.3-2.9,36.7-4.3,55c-0.8,9.6,14.3,9.6,15,0c0.6-7.9,1.2-15.9,1.8-23.8c0.6,4.5,1.3,9,2.2,13.4
		c0.9,5.1,7,6.5,11,4.5c5.4-2.7,7.1-8.3,8-13.9c0.3-2.1,0.6-4.2,0.8-6.2c0.8-0.5,1.5-1,2.2-1.6c0.7,5,1.6,10.1,2.8,15.1
		c1.5,6.1,7.7,6.5,11.7,3.5c1.5,2.2,3.6,3.9,6.6,4.7c3.5,1,8.7-1.2,9.2-5.2c0.4-2.7,0.7-5.3,0.9-8c3.3-0.5,6.1-2.9,5.7-7.1
		c0,0,0,0,0,0c0.6-0.4,1.1-0.9,1.6-1.5c0.1,2.2,0.2,4.4,0.3,6.5c0,5.4,0,10.7,0,16.1c0,9.7,14.7,9.6,15,0c0.1-5.7,0.1-11.3,0-17
		c-0.1-24.9-0.5-49.7-1.3-74.6c-0.5-14.7-1-29.5-4-43.9c-1.8-8.5-5.4-17.1-12.6-21.2c0.3-2.6,0.6-5.1,0.8-7.7
		C398.4,426.1,404.8,427.2,408.4,422.2z M402.1,396.3c-0.1,0.6-0.3,1.2-0.4,1.7c-0.4-0.4-0.7-0.8-0.8-0.9c-0.1-0.1-0.1-0.2-0.2-0.3
		C401.2,396.6,401.7,396.5,402.1,396.3z M393.7,460.9c0-1-0.1-2-0.1-3c0.3,1.5,0.5,3,0.7,4.5C394.1,461.9,393.9,461.4,393.7,460.9z
		 M368.5,446.3c-1,0.6-2,1.4-2.7,2.3c-0.4,0.5-0.7,1-1.1,1.5c-0.8-1.3-1.8-2.4-3.1-3c0-0.1-0.1-0.2-0.2-0.2
		C363.8,446,366.4,445.4,368.5,446.3z"/>
	<path fill="#98F4D1" d="M555.6,438.5c-0.2,0-0.4-0.1-0.5-0.1c-1.7-0.9-3.6-1.7-5.5-2.4c0-0.5-0.1-1-0.1-1.5
		c-0.1-1.2-0.4-2.2-0.8-3.1c0.8-1.4,1.5-2.8,2.3-4.2c2.1,4,4.9,7.5,8.8,10.1c2.7,1.8,5.5,2.9,8.5,3.4c0.7,0.2,1.5,0.3,2.3,0.3
		c5.2,0.3,10.4-1.3,14.6-4.9c2.9-2.5,3-8.1,0-10.6c-2.9-2.5-5.5-5.4-7.6-8.5l-2.5-47.6c-0.2-3.5-2-5.7-4.3-6.7
		c-0.4-3.7-1-7.3-1.9-10.9c-1.4-5.9-4.4-12.1-10.5-14.2c-3.3-1.1-6.5-0.5-9.1,1.1c-0.4,0.1-0.8,0.2-1.2,0.3
		c-2.4-0.7-4.9-0.9-7.5-0.5c-5.5,0.9-9.7,4.2-13.3,8.1c-1.3-4.6-6.1-8.2-10.7-4.6c-0.5,0.4-1,0.8-1.5,1.2c0,0,0,0,0,0
		c0,0-0.1,0.1-0.1,0.1c-1,0.8-2,1.7-3,2.6c-9.1,2.5-15.1,10.6-15.2,19.5c-6.1,10.8-6.9,24.5-1.1,36.3c-0.2,0.7-0.4,1.4-0.4,2.1
		c-0.2,5.8-0.5,11.5-0.7,17.3c-1,3.4-2.5,6.7-4.4,9.8c-3.3,5.3,1.2,10.6,6.5,11.3c0.3,0,0.5,0.1,0.8,0.1c2,1.2,4.4,1.5,6.6,0.8
		c5.4,0.7,10.7,1.4,16.1,2.1c0.6,0.1,1.2,0,1.8-0.1c0,0.2,0,0.4,0.1,0.6c-2.1,2.4-3.9,5.2-5.2,8.2c-2.1,0.6-3.9,2.2-4.7,5
		c-2.6,8.3-3.8,16.9-4.4,25.7c-1.4,10.2-2.3,20.5-2.8,30.7c-1.4-4.3-6.9-5.4-10.8-3.3c-3.3-8.1-6.6-16.3-9.9-24.4
		c-0.7-1.7-1.8-3.2-3.2-4.2c-3.2-9.5-6.1-19.2-9-28.9c-0.5-1.6-1.3-2.9-2.4-3.7c-0.3-1.5-0.6-2.9-0.9-4.4c0-0.1-0.1-0.2-0.1-0.3
		c0-0.2,0.1-0.5,0.1-0.7c0.9-1.2,1.4-2.6,1.5-4.2c0-0.4,0.1-0.9,0.1-1.3c1.6-3.7,4.2-6.9,7.7-9.6c7-5.4-1.9-15.6-9.1-11.8
		c-3.9,2.1-7.1,5.1-9.4,8.6c-9-5.6-20.9-6.3-30.4-0.6c-8.3,5-0.7,17.9,7.6,13c4.9-2.9,10.8-2.4,15.1,0.6c-2.4,1.1-4.2,3.4-3.8,6.5
		c0.1,0.7,0.2,1.3,0.3,2c0,0,0,0,0,0c0,0,0,0.1,0,0.1c0.1,0.8,0.2,1.7,0.4,2.5c1.6,0.7,2.8,2.1,3,4.3c1.5,19.9,6.5,39.7,12,58.8
		c2.8,9.8,4.9,20.2,8.7,29.6c2.6,6.4,6.1,12.3,8.4,18.8c6,2.5,12.7,4,18.8,4.8c2.7,0.4,5.3-0.4,7.1-1.9c-0.1,5.9-0.2,11.8-0.3,17.7
		c-0.1,9.7,14.7,9.6,15,0c0.2-6.8,0.5-13.5,0.8-20.3c0,4.6,0.1,9.2,0.2,13.8c0.2,6.7,8,9.7,12.8,5.3c1.1-1,2-2,2.7-3.1
		c2.7-0.3,5.1-2,5.6-5.3c0-0.2,0-0.3,0.1-0.5c1-1.1,1.9-2.2,2.7-3.5c0,3.6-0.1,7.2-0.2,10.8c-0.3,7.5,9.9,9.7,13.6,4.4
		c-0.3,2.2-0.7,4.4-1.1,6.7c-1.5,9.3,12.3,13.6,14.5,4c3.6-16.5,7.3-33,10.9-49.5c3.1-14.2,6.6-28.4,7.8-43
		C594,476.1,584.3,446.3,555.6,438.5z M527,417.7c-0.3-0.4-0.7-0.9-1-1.3c-0.5-0.8-1-1.6-1.5-2.4c0.9,0.7,2,1.2,3.1,1.5
		C527.4,416.3,527.2,417,527,417.7z"/>
	<path fill="#F9A870" d="M744.8,378c-0.9-7.3-1.6-15.6-6.6-21.3c-1.7-2.8-3.7-5.3-6.2-7.7c-4.3-4.1-11.2-1.3-12.8,3.4
		c-0.6-8.5-2.2-17.7-6.5-24.2c-3.4-5.1-9.7-8.3-15.6-8.1c-5.1-1.7-11.1-1.1-16.7,1.5c-4.2,1.9-8.4,5.2-11.6,9.2
		c-9-2.4-19.7,2.6-24.5,11.7c-7,13.3-3.9,29.5,4.8,41.2c-2.5,13.1-3.1,26.4-1.4,39.7c0.6,5.1,4.3,8.1,9.5,7.2
		c2.2-0.4,4.3-0.8,6.5-1.3c-0.1,1.5-0.2,3.1-0.2,4.6c1.7-1.7,4.4-2.1,6.8,0c3.2,2.8,3.8,6.2,3.2,9.8c0,1.2-0.3,2.4-1,3.4
		c-1.8,4.6-5.3,9-8.1,11.8c-0.7,0.8-1.5,1.2-2.4,1.4c-0.4,0.8-0.9,1.7-1.3,2.6c-5.6,12.6-5.2,26.9-5.7,40.4
		c-1.2,29.2-2.4,58.4-3.5,87.6c-0.4,9.8,14.1,9.4,15,0c0.9-9,1.5-18.1,2.1-27.2c0.7-0.9,1.3-1.9,2-2.8c2.1-3.1,1.5-6.1-0.4-8.2
		c0.3-2.3,0.5-4.7,0.8-7c1-0.1,1.9-0.3,2.8-0.8c-0.3,7.8-0.7,15.6-1,23.4c-0.4,8.4,13,10.3,14.7,2c1-4.6,1.8-9.3,2.5-14
		c0.5-0.5,0.8-1,1.1-1.6c0.3,1.4,0.5,2.8,0.7,4.2c0.5,3.8,3.9,5.5,7.3,5.3c-0.2,4.3-0.5,8.6-0.7,13c-0.5,9.7,14.4,9.6,15,0
		c0.3-4.3,0.5-8.7,0.8-13c3.7-0.1,7.2-2.5,7-7.2c-0.3-9.2-0.8-18.3-1.5-27.5c-0.3-6-0.6-11.9-0.9-17.9c0-0.1,0-0.2,0-0.3
		c0.4-3,1.1-6,1.6-9.1c2.2-2.3,3.3-5.9,1.8-9.2c-0.1-0.2-0.2-0.4-0.3-0.7c0.4-4.2,0.2-8.4-0.9-12.4c-1.9-6.8-6.2-12-12.2-14.7
		c-1.6-3.3-3.2-6.7-4.8-10c1-1.2,1.8-2.7,2-4.7c0.1-0.7,0.2-1.5,0.2-2.2c1.7,1.7,4.2,2.5,6.9,1.7c21.7-5.9,28.6-28.3,30.9-48.2
		c0-0.2,0-0.4,0.1-0.6C745.7,393.8,745.8,385.8,744.8,378z M697.2,425.5c-0.3,0-0.6-0.1-0.8-0.1c-1.4-1.6-3.4-2.5-5.4-2.7
		c0-0.1,0-0.1,0-0.2c0-1.1-0.3-2.1-0.7-3c0.4-0.2,0.7-0.3,1.1-0.5c1.5-0.7,2.4-1.8,3-3c0.1,0,0.2-0.1,0.3-0.1c0.2,2,0.8,4.1,2,6.2
		c0.3,0.6,0.7,1.1,1.1,1.6C697.5,424.4,697.3,425,697.2,425.5z"/>
	<path fill="#7DA2FF" d="M886.2,536.9c-1-30.9-1.1-61.8-0.5-92.7c0.1-4.7-3.4-7.1-7.1-7.2c-1.2-19.6-3.6-39.1-7.3-58.3
		c-0.2-8.1-0.8-15.9-6.1-22.6c-1.2-1.5-2.6-2.2-4-2.4c0.1-1.6,0.1-3.1,0.2-4.7c0.1-4.2-2.6-6.6-5.7-7.1c0-0.2,0-0.4,0-0.6
		c2.8-1.8,4.5-6,3.5-9.5c0.6-0.3,1.4-0.8,1.6-1c2.2-1.1,4.4-2,6.4-3.4c4.2-2.9,7.6-6.5,10.4-10.8c4.3-6.7-3.9-13.5-10.3-10.3
		c-0.1,0-0.2,0.1-0.3,0.1c-0.8,0.3-1.6,0.7-2.3,1.2c-4.7,2.4-9.2,5-13.7,7.7c1.6-2.2,1.5-4.9,0.3-7.1c2.4-9.7,1.4-20-0.9-29.9
		c-3.2-13.9-7.2-29-15.8-40.5c-5-6.7-15.5-20.6-25-19.5c-0.8-0.4-1.6-0.8-2.4-1.1c-5-2.1-9.1,3-9.5,7.2c-0.2,2.3-0.2,4.7,0,7
		c-0.2,0-0.4,0-0.5,0l-4.6-3.5c-6.3-4.8-13.6,4.3-10.3,10.3c1,1.8,2.2,3.4,3.5,5c-1.2,1.2-2.3,2.5-3.2,4.1c-4.1,7.1-2.8,15-4,22.6
		c-0.4,1.3-0.6,2.6-0.9,4c0,0.1-0.1,0.2-0.1,0.3c0,0,0,0,0,0c-0.1,0.7-0.2,1.3-0.3,2c-0.5,3.8,1.9,6.2,4.8,6.9
		c-0.6,2.4-1.1,4.8-1.3,7.3c-0.5,4.8,3.4,7.3,7.4,7.2c0,1.4,0.3,2.9,0.8,4.1c2.2,5.1,5.4,9.5,9.3,13.4c2.2,2.1,5.3,2.4,8,1.5
		c1.1-0.2,2.2-0.6,3.1-1.2c0.9,1.7,1.9,3.4,2.8,5.1c-0.5,1-0.7,2.1-0.8,3.4c0,2.2,0,4.4-0.1,6.7c-1.6,1.4-2.6,3.5-2.9,5.8
		c-0.4,4-0.4,8,0.2,12c-5.3-0.7-10.7,4.5-10.8,10.3c0,2,0.2,2.7-0.4,4.7c-0.5,1.7-1.3,3.4-1.8,5.1c-1.3,4-2.2,8.1-2.9,12.3
		c-1.2,7.4-1.5,14.8-0.8,22.2c-1.9,1.2-3.4,3.2-3.6,6.1c-2.5,35.2-5.1,70.5-7.6,105.7c-0.3,4.2,2.3,6.6,5.5,7.1
		c-0.1,7.4-0.3,14.9-0.4,22.3c-1.2,5.5-1.9,11.1-2.2,16.7c-0.1,1.7,0.4,3.1,1.2,4.2c-2.7,11.7-4.6,27.8,7,32.3
		c6.9,2.7,15.7-0.3,22.8-1.4c2.4-0.4,4.7-0.7,7.1-1.1c6.5,0.5,12.7-0.6,18.6-2.9c0.7-0.1,1.3-0.4,1.9-0.8c0.7-0.3,1.4-0.6,2.1-1
		c6.9-3.4,3.3-13.9-3.8-14c-1.4,0-2.5-0.3-3.8-0.6c0-0.7-0.1-1.3-0.3-2c0.9-1.2,1.8-2.4,2.6-3.6c1.6,1.9,4,2.6,6.4,2.3
		c2.3,0.9,5,0.9,6.9-0.3c1.2,2,2.7,4,4.3,5.9c2.2,2.5,6.2,2.7,9.1,1.2c0.6,1.1,1.2,2.2,1.9,3.3c3.1,5,12.6,4.9,13.7-1.8
		c0.2-1.1,0.4-2.2,0.5-3.3c2.5-1.3,4.4-3.8,4.2-6.7c-0.3-4.9-0.6-9.9-0.9-14.8c0.5-0.7,0.9-1.6,1.1-2.7
		C887.4,547.4,887.2,542,886.2,536.9z M801.9,582.7c-1.2,0.2-2.3,0.3-3.5,0.5c-0.1,0-0.1,0-0.2,0.1c-0.4-1.6,0.1-4.1,0.2-5.6
		c0-0.5,0.1-1,0.1-1.5c0.5-0.6,1-1.4,1.3-2.3c0.4,2.2,0.8,4.4,1.2,6.5c0.2,0.9,0.5,1.7,1,2.3C802,582.7,802,582.7,801.9,582.7z
		 M830.3,270.7c0.6,3.9,0.7,7.8,0.6,11.7c-0.2-0.2-0.3-0.3-0.5-0.5c0-0.3,0-0.5-0.1-0.8C830.5,277.7,830.5,274.2,830.3,270.7z
		 M840.8,533.3c-0.3,0.2-0.6,0.3-0.9,0.5c0.3-1.3,0.6-2.6,0.9-3.9C840.9,531,840.8,532.2,840.8,533.3z M840.7,341.1
		c-0.2,2.4-0.4,4.9-0.6,7.3c-0.1-0.1-0.2-0.2-0.3-0.3c-3.1-2.6-6.4-3.4-9.4-3c-0.3-7.9-0.8-15.7-1.5-23.6c0.5-0.1,1.1-0.2,1.6-0.3
		c-0.9,3.2,0.8,6.4,3.5,8.4c2.9,2.2,5.9,4.4,8.8,6.6C841.7,337.6,840.9,339.1,840.7,341.1z M870.3,461.6c-0.3-0.2-0.6-0.3-1-0.5
		c0.4-0.3,0.7-0.6,1-1C870.3,460.6,870.3,461.1,870.3,461.6z"/>
	<path fill="#C4E8F7" d="M784,111.7c-6.8-4.4-14.7-6.6-22.8-7.2c-2.2-19.7-12-38.5-27.2-51.2c-18.4-15.5-43.6-21.6-67.6-19.2
		C645,36.3,622.7,46.8,614,66.5c-6-18.6-14.8-40-33.9-44.5c-6.3-1.5-12.9-0.8-19.3,0.3c-19.5,3.1-40.6,11.2-49.8,28
		c-5.5-4.7-12.3-8.3-19.8-10.7c-11-5-23.8-6.2-35.3-2.9c-2.6,0.4-5.2,1-7.6,1.7c-27,8.3-42.8,32.8-44,59.3c-2.9,0.9-5.7,2.1-8.3,3.5
		c-4.5,1.5-8.6,3.9-12,8c-2.4,2.9-4.3,5.9-6,9.1c-0.8,1.2-1.5,2.5-2.2,3.8c-1.6,1.3-3.1,2.7-4.5,4.3c-11,12.4-12.5,31.2-7.6,47
		c0,0.1,0.1,0.2,0.1,0.3c-0.5,15.7,5.5,31.9,16.9,42.7c11,10.4,25.7,15.6,40.3,15.4c0.4,2.5,0.8,5,1.2,7.5
		c1.2,7.4,2.5,15.4,7.7,20.9c4.2,4.5,10.3,6.7,16.3,8c17.8,3.7,37,0.2,52.4-9.7c1.3-0.9,2.7-1.8,4.3-2c2.7-0.2,4.9,1.7,7,3.4
		c16.8,14.2,40.5,19.8,61.9,14.5c21.4-5.2,39.8-21.2,48.1-41.6c17.2,27.8,52.3,41.2,84.8,37.7c8.5-0.9,17.1-2.9,24.4-7.3
		c16.7-9.9,24-29.5,30.7-48.1c17.8-6.7,31.7-20.8,37.9-39c0.9-2.6,1.6-5.3,2.1-8c2.8-6.6,4.9-13.3,4.9-20.6
		C804.8,132.9,796.1,119.6,784,111.7z"/>
</g>
<g id="Layer_1">
	<g>
		<g>
			<path d="M807.2,317.9c0.8,11.4,1.7,22.7,2.5,34.1c0.1,1.9,3.1,1.9,3,0c-0.8-11.4-1.7-22.7-2.5-34.1
				C810.1,316,807.1,316,807.2,317.9L807.2,317.9z"/>
		</g>
	</g>
	<g>
		<path fill="#250AFF" d="M494.5,90c-0.5,10.4-0.9,20.8-1.4,31.2c-0.2,3.7,0,8.2,3.2,10.2c1.8,1.1,4.1,1,6.2,0.9
			c61.2-3.2,122.7-2.7,183.9,1.2c-0.3-14.9-1.6-29.8-3.8-44.6c-0.4-2.8-1.1-6-3.6-7.5c-1.5-0.9-3.3-0.9-5-1
			c-61-1.1-119.2,1.6-179.9,7.9"/>
		<g>
			<path fill="#250AFF" d="M492,90c-0.4,10.4-1.1,20.8-1.4,31.2c-0.1,6,1.1,12.4,8.1,13.5c4.4,0.7,9.3-0.2,13.8-0.4
				c5.3-0.2,10.5-0.4,15.8-0.6c10.5-0.4,21.1-0.6,31.6-0.8c42.2-0.6,84.4,0.4,126.5,3.1c1.3,0.1,2.5-1.2,2.5-2.5
				c-0.2-8.4-0.6-16.8-1.4-25.2c-0.7-7.3-1-15.3-2.9-22.4c-1.3-4.8-4.3-7.4-9.2-7.8c-8.2-0.6-16.6-0.3-24.8-0.3
				c-33.1-0.1-66.2,1-99.2,3.2c-19.1,1.3-38.1,2.9-57.2,4.9c-3.2,0.3-3.2,5.3,0,5c38.8-4,77.7-6.7,116.7-7.7
				c19.4-0.5,38.8-0.6,58.2-0.3c2,0,4.2-0.2,6.2,0.1c3.3,0.5,4.1,2.5,4.7,5.3c1,4.9,1.5,10,2,15c1.1,10,1.7,20,1.9,30.1
				c0.8-0.8,1.7-1.7,2.5-2.5c-38.2-2.4-76.4-3.6-114.7-3.3c-19.1,0.1-38.2,0.6-57.3,1.5c-4.4,0.2-9.1,1.1-13.5,0.6
				c-6.3-0.6-5.4-5.8-5.2-10.6c0.4-9.7,0.8-19.5,1.3-29.2C497.1,86.7,492.1,86.8,492,90L492,90z"/>
		</g>
	</g>
	<g>
		<path fill="#250AFF" d="M497.1,153c1.5,27,0.8,54.1-1.9,81c9.2-0.1,18.5-0.5,27.7-1.2c3.4-0.3,7.5-1.1,8.7-4.3
			c0.6-1.6,0.3-3.4,0-5.1c-4.6-24.9-6.1-50.5-4.4-75.8c-11.2-0.9-19.5,0-30.3,2.9"/>
		<g>
			<path fill="#250AFF" d="M494.6,153c1.4,27,0.8,54-1.9,81c-0.1,1.3,1.3,2.5,2.5,2.5c10.2-0.1,21.7,0.6,31.6-1.8
				c9.5-2.3,7.4-10.2,6.2-17.7c-3.8-22.9-4.8-46.2-3.3-69.3c0.1-1.4-1.2-2.4-2.5-2.5c-10.6-0.8-20.7,0.3-31,3
				c-3.1,0.8-1.8,5.6,1.3,4.8c9.8-2.6,19.5-3.5,29.7-2.8c-0.8-0.8-1.7-1.7-2.5-2.5c-1.2,18.8-0.7,37.7,1.5,56.5
				c0.5,4.1,1,8.2,1.7,12.3c0.4,2.3,1.5,5.4,1.3,7.7c-0.2,3.5-1,5.2-4.3,6c-9.3,2-20.2,1.4-29.7,1.5c0.8,0.8,1.7,1.7,2.5,2.5
				c2.7-26.9,3.3-54,1.9-81C499.4,149.8,494.4,149.8,494.6,153L494.6,153z"/>
		</g>
	</g>
	<g>
		<path fill="#FFFFFF" d="M555.7,160.3c1.2,12.7,1.3,22.6,0.1,35.3c42.1-4.2,84.5-5.1,126.8-2.7c1.9,0.1,4.2,0.1,5.2-1.5
			c0.6-1,0.6-2.2,0.6-3.4c-0.4-9.5-0.9-19.1-1.3-28.6c-0.1-1.4-0.2-2.9-1.2-3.8c-1.1-1-2.9-0.9-4.4-0.7c-42.6,5-83.6,6.8-126.5,5.1"
			/>
	</g>
	<g>
		<path fill="#FFFFFF" d="M636,216.6c12.5-1.3,25.1-2.7,37.6-4c-0.5,16.4-0.9,32.7-1.4,49.1c-11.2,1.6-22.4,3.3-33.6,4.9
			c0.2-17.8,0.2-33.5-0.5-51.3"/>
	</g>
	<g>
		<g>
			<path fill="#250AFF" d="M556.5,154.4c1.1,11.8,1.2,23.5,0.1,35.3c-0.1,1.3,1.2,2.6,2.5,2.5c22-2.2,44.2-3.5,66.3-3.9
				c10.9-0.2,21.8-0.2,32.7,0.1c5.3,0.1,10.6,0.3,15.9,0.5c4.7,0.2,10.3,1.4,14.9,0.5c7.9-1.6,5-12,4.8-17.8
				c-0.2-4.8-0.4-9.5-0.6-14.3c-0.1-3.2,0.3-7.6-2.6-9.8c-2.7-2-6.5-1-9.6-0.6c-5.5,0.6-11.1,1.2-16.6,1.7c-10.6,1-21.3,1.8-32,2.4
				c-24.6,1.3-49.3,1.5-74,0.6c-3.2-0.1-3.2,4.9,0,5c37.6,1.4,75.3,0.2,112.8-3.6c2.3-0.2,4.6-0.5,6.8-0.7c2-0.2,4.9-1.2,6.9-0.8
				c2.9,0.6,3.1,2.2,3.2,4.9c0.1,2.5,0.2,5.1,0.3,7.6c0.2,4.5,0.4,8.9,0.6,13.4c0.1,1.4,0.9,4.8,0.2,5.9c-1.3,2.1-5.3,1.1-7.3,1
				c-19.1-1-38.3-1.3-57.5-0.9c-21.8,0.4-43.6,1.7-65.3,3.9c0.8,0.8,1.7,1.7,2.5,2.5c1.1-11.8,1-23.5-0.1-35.3
				C561.2,151.2,556.2,151.2,556.5,154.4L556.5,154.4z"/>
		</g>
	</g>
	<g>
		<path fill="#FFFFFF" d="M441.8,116.1c9-0.1,18.1-0.2,27.1-0.3c1.1,0,2.3,0,3,0.7c0.9,0.8,0.9,2.1,0.9,3.2
			c0.2,16-0.9,32.1-3.2,47.9c-10.8-4.4-23.3-4.8-34.4-1.1c1.4-19,2.5-32,3.8-51"/>
	</g>
	<g>
		<g>
			<path fill="#250AFF" d="M447.1,111.8c6.5-0.1,12.9-0.2,19.4-0.2c2.5,0,6.7-1,8.5,0.6c1.6,1.5,0.7,7.2,0.7,9.4
				c-0.2,12.9-1.3,25.8-3.1,38.6c1-0.6,2.1-1.2,3.1-1.7c-11.5-4.5-23.9-4.8-35.7-1.1c1.1,0.8,2.1,1.6,3.2,2.4c1.2-17,2.6-34,3.8-51
				c0.2-3.2-4.8-3.2-5,0c-1.2,17-2.6,34-3.8,51c-0.1,1.6,1.7,2.9,3.2,2.4c11-3.5,22.3-3.1,33.1,1.1c1.2,0.4,2.9-0.5,3.1-1.7
				c2.2-15.7,4.6-32.7,3.3-48.6c-0.4-5.5-3.4-6.5-8.4-6.4c-8.4,0-16.8,0.2-25.2,0.3C443.9,106.8,443.9,111.8,447.1,111.8
				L447.1,111.8z"/>
		</g>
	</g>
	<g>
		<g>
			<path fill="#250AFF" d="M641.2,211.5c12.5-1.3,25.1-2.7,37.6-4c-0.8-0.8-1.7-1.7-2.5-2.5c-0.5,16.4-0.9,32.7-1.4,49.1
				c0.6-0.8,1.2-1.6,1.8-2.4c-11.2,1.6-22.4,3.3-33.6,4.9c1.1,0.8,2.1,1.6,3.2,2.4c0.2-17.1,0.1-34.2-0.4-51.3c-0.1-3.2-5.1-3.2-5,0
				c0.6,17.1,0.6,34.2,0.4,51.3c0,1.8,1.6,2.6,3.2,2.4c11.2-1.6,22.4-3.3,33.6-4.9c1.1-0.2,1.8-1.4,1.8-2.4
				c0.5-16.4,0.9-32.7,1.4-49.1c0-1.2-1.2-2.6-2.5-2.5c-12.5,1.3-25.1,2.7-37.6,4C638,206.8,638,211.8,641.2,211.5L641.2,211.5z"/>
		</g>
	</g>
</g>
<g id="Layer_3">
	<g>
		<g>
			<path fill="#250AFF" d="M330.7,579c-1-32.1-1.4-64.6,1.4-96.6c1-11.7,3.1-24.6,10.3-34.3c3.9-5.2,9.1-8.4,15-10.8
				c5-2,10.2-3.8,14.4-7.4c9.8-8.4,6.9-21.1,2.7-31.6c-2.7-6.9-5.9-13.5-7.2-20.9c-1.3-7.7-1.1-15.8,1-23.4
				c3.8-13.9,14.5-26.4,29.7-27.1c16.1-0.8,25,12.7,28.7,26.7c4,15.1,3.6,32.6,1.7,48c-0.9,7.5-3.4,16.4-10.8,19.8
				c-5.5,2.5-12.8,2.1-15.8-3.8c-0.9-1.7-3.4-1.5-4.3,0c-7.1,11.6,2,22.6,8.1,32.2c8.4,13,8.5,30.4,10.3,45.3
				c3.9,31.9,6.9,63.8,9.1,95.8c0.2,3.2,5.2,3.2,5,0c-2.1-30.7-5-61.4-8.6-91.9c-1.6-13.5-2.1-28.2-6.4-41.1
				c-2.1-6.3-5.7-11.4-9.3-16.9c-4.1-6.1-8.2-13.8-3.8-20.9c-1.4,0-2.9,0-4.3,0c4.8,9.6,18,9.5,25.8,3.6
				c11.4-8.6,10.8-26.3,11.1-39.1c0.4-15.6-0.4-32.2-8.2-46.1c-6.9-12.3-19.1-18.7-33.2-16c-14,2.7-24,14.2-28.5,27.2
				c-5.6,16.4-2.1,32.1,4.3,47.6c2.9,7.2,7,16.1,3.6,23.8c-3.3,7.3-11.7,9.4-18.4,12.3c-11.9,5.1-19.1,14.8-22.9,27
				c-5.2,16.8-4.8,35.3-5.3,52.7c-0.7,22-0.6,43.9,0.1,65.9C325.8,582.2,330.8,582.2,330.7,579L330.7,579z"/>
		</g>
	</g>
	<g>
		<g>
			<path fill="#250AFF" d="M459.1,426.1c-9.5-6.8-26.3-8.6-34.5,1.4c-3,3.7-3.4,9.6,0.4,13c2,1.8,4.3,1.9,6.9,1.7
				c4.9-0.2,8.5,0.5,12.3,4.1c6.3,6,7.5,15.6,9.1,23.6c1.8,9.1,3.6,18.1,5.5,27.2c3.3,16.6,5.4,34.3,11.3,50.2
				c2.7,7.2,6.5,13.6,12,18.9c6.5,6.2,16.9,13.3,13.6,23.7c-1,3.1,3.8,4.4,4.8,1.3c4.2-13.2-8-21.6-16-29.8
				c-10.3-10.5-12.7-25.7-15.5-39.5c-3.3-16.5-6.7-33-10-49.6c-2.5-12.2-4.3-27.9-17-33.9c-2.6-1.2-5.4-1.8-8.2-1.6
				c-0.8,0-1.8,0.4-2.5,0.3c-1.9-0.4-3.9-2.3-3.6-4.4c0.3-2.3,2.6-3.9,4.5-5c7.8-4.3,17.7-2.6,24.6,2.5
				C459.2,432.3,461.6,428,459.1,426.1L459.1,426.1z"/>
		</g>
	</g>
	<g>
		<g>
			<path fill="#250AFF" d="M460.9,430.7c5.1-7.8,12.8-12.8,21.9-14.5c-0.8-0.2-1.6-0.4-2.4-0.6c4,4.9-4.3,10.2-7.2,13
				c-2.6,2.5-4.6,5.4-5.7,8.8c-2.3,7.3-0.5,15.4,2.2,22.4c3.3,8.7,8.1,16.9,12.4,25.1c5.3,10.3,10.7,20.5,16,30.8
				c1.2,2.2,4.7,1.2,4.7-1.3c-0.3-13.2-0.6-26.4-0.9-39.6c-0.1-6.5-0.6-12.1,6.2-15.1c3.8-1.6,8.2-2.3,11.6-4.8
				c4.5-3.3,8.7-11.5,3.5-16c-3.3-2.9-9.9-0.1-13.8,0.4c-6.2,0.7-12.4,1-18.6,1c0.6,1.4,1.2,2.8,1.8,4.3
				c13.2-12.8,8.2-35.2,6.3-51.5c-0.7-5.6-1.4-11.3-1.7-17c-0.3-5.7-0.8-12.9,1.5-18.3c3.3-7.7,17.4-20,25.1-11.1
				c0.9,1.1,2.6,0.8,3.5,0c8.1-7.2,20.9-5.1,28.6,1.7c8.6,7.6,11.7,19.6,12.9,30.6c1.2,11.7,0.5,23.5,2.3,35.1
				c1.3,8.4,4.2,18.1,13.3,20.7c-0.4-1.4-0.7-2.8-1.1-4.2c-3.4,3.6-7.5,6.2-12.4,7.2c-3.9,0.8-7.9,0.3-11.8,0.8
				c-5.2,0.8-10,4-9.1,9.9c1,6.8,7.9,8.9,13.5,10.6c7.9,2.3,13.3,7.2,17.1,14.4c7.8,14.9,8,33.8,8.5,50.2c0.6,21-1.1,42-4.9,62.7
				c-0.6,3.1,4.2,4.5,4.8,1.3c3.5-19.2,5.3-38.7,5.1-58.2c-0.1-16.2-0.5-33.5-5.4-49.1c-3.9-12.3-11.2-22.4-23.9-26.1
				c-2.2-0.6-4.6-1.1-6.6-2.3c-2.8-1.7-5.1-6.1-0.9-7.9c2.9-1.2,6.4-0.7,9.4-0.8c7.7-0.4,14.6-3.6,20-9.2c1.3-1.4,0.7-3.6-1.1-4.2
				c-6.2-1.8-8.2-8.8-9.3-14.5c-1.3-7-1.5-14.2-1.7-21.3c-0.4-11.8-0.8-23.9-5.4-34.9c-3.8-9.1-10.3-16.8-19.7-20.3
				c-8.8-3.2-18.6-2.2-25.7,4.2c1.2,0,2.4,0,3.5,0c-6.1-7.1-15.5-4.9-22.1,0.2c-4,3.1-8,6.6-10.5,11c-2.6,4.7-2.7,10.8-2.7,16
				c-0.1,13.1,2.3,26.3,3.5,39.3c0.9,10.8,2,23-6.5,31.2c-1.6,1.5-0.4,4.3,1.8,4.3c5.3,0,10.6-0.2,15.8-0.7
				c2.3-0.2,12.5-2.8,13.9-0.8c1.1,1.6-1.7,5.2-2.7,6.2c-1.5,1.5-3.5,2.3-5.5,3c-3.4,1.2-7.1,2.2-10.1,4.3
				c-7.2,5.2-5.3,14.8-5.2,22.5c0.3,11.5,0.5,23.1,0.8,34.6c1.6-0.4,3.1-0.8,4.7-1.3c-5.3-10.3-10.7-20.5-16-30.8
				c-4.8-9.1-10.4-18.3-13.4-28.2c-1.3-4.3-2.1-9-1.2-13.5c1-5,4.3-8,8-11.3c5.1-4.5,9.1-11.2,4.1-17.3c-0.6-0.7-1.6-0.8-2.4-0.6
				c-10.4,1.9-19.2,7.9-24.9,16.8C454.8,430.9,459.1,433.4,460.9,430.7L460.9,430.7z"/>
		</g>
	</g>
	<g>
		<g>
			<path fill="#250AFF" d="M647.5,586c-0.8-26.6,0.4-53.3,3.7-79.8c1.5-12.4,2.6-26,6.5-38c3.7-11.3,15.5-13.4,21.6-22.6
				c2.8-4.3,6.1-17.5-2.2-18.4c-7-0.8-21.1,9.9-26.4,2.3c-4.3-6.1-3.6-17.2-3.2-24.2c0.3-4.4,0.8-9.1,2.3-13.2c1.5-4.2,5-7.6,6.1-12
				c1.2-4.8-1.4-8.9-4.2-12.6c-3.9-5.1-7.7-10.6-8.8-17.1c-1-6.2,1.5-10.4,6.5-14c4-2.9,9-5.2,14-4.5c1.4,0.2,2.4-1.3,2.5-2.5
				c0.3-4.9,0.3-8.7,5.2-11.1c5.8-2.8,12.8-4.6,19.3-4.3c11.4,0.5,23.7,9.8,20.5,22.5c-0.5,2,1.8,4.1,3.7,2.8
				c6.8-4.5,14.2,0.3,18,6.3c3.1,4.9,4.4,10.7,7.2,15.7c2.7,4.9,6.3,9.3,8.8,14.3c3.2,6.5,2.5,12.9,0.4,19.7
				c-1.9,6-4.6,11.6-6.4,17.6c-1.8,6.1-1.6,13.1-5.1,18.6c-5.7,8.9-19.7,9.7-26.9,2.4c-1.3-1.3-3.7-0.7-4.2,1.1
				c-2.9,10.6-5.7,22.6-1.2,33.2c2.2,5.1,6.5,8.7,9,13.6c3,6,2.7,13,2.3,19.5c-1.5,28.8-3.4,57.7-5.1,86.5c-0.2,3.2,4.8,3.2,5,0
				c1.7-28.3,3.4-56.6,5-84.9c0.6-10.9,0.1-20.5-6.8-29.3c-4.5-5.7-6.8-11.1-6.7-18.4c0.1-6.4,1.7-12.7,3.4-18.9
				c-1.4,0.4-2.8,0.7-4.2,1.1c8,8.1,21.6,8.5,30.4,1.4c6-4.8,7.3-11.8,8.7-19c1.6-8.6,5.8-16.4,8.2-24.8c2-7,2.4-13.9-0.7-20.6
				c-3.4-7.3-9-13.3-11.9-20.9c-2.5-6.5-5.2-13.4-11.2-17.6c-5.5-3.9-12.7-4.7-18.4-1c1.2,0.9,2.4,1.9,3.7,2.8
				c3.8-15.1-9.5-27.5-23.7-28.7c-8.2-0.7-17.6,1.4-24.8,5.5c-5.7,3.3-6,8.8-6.4,14.8c0.8-0.8,1.7-1.7,2.5-2.5
				c-8.7-1.1-19.2,5.1-23.7,12.4c-6.5,10.7,2.4,23.4,8.6,31.9c2.3,3.2,3.7,6.1,1.8,9.9c-1.3,2.7-3.2,5.1-4.4,7.8
				c-2,4.6-2.7,10-3.1,14.9c-0.7,8.7-1,20.7,4,28.4c6.5,10.1,22.8,0.9,31.5-0.3c-0.8-0.2-1.6-0.4-2.4-0.6
				c9.4,10.5-14.4,21.1-19.1,27.7c-3.5,4.8-4.6,10.8-5.7,16.5c-1.4,7.3-2.6,14.7-3.6,22.1c-4.1,29.2-5.7,58.7-4.8,88.2
				C642.6,589.2,647.6,589.2,647.5,586L647.5,586z"/>
		</g>
	</g>
	<g>
		<g>
			<path fill="#250AFF" d="M782.6,581.9c4.8-49.2,7.8-98.6,8.9-148c0.3-12.5,0.4-25,0.5-37.6c0-9.2-0.6-19.2,2.6-28
				c1.5-4,3.9-7.6,7.7-9.7c4-2.3,7.4-3,8.8-7.9c2.2-7.8,2.9-17.1,1.7-25c-1.4-9.3-6.7-15.5-14.8-19.9c-4-2.2-8.9-4-11.9-7.6
				c-4.9-5.8-2.2-13.6,0-19.9c0.4-1.2-0.5-2.9-1.7-3.1c-5-0.9-2.7-7.6-1.8-10.7c1.1-3.6,2.3-7.2,1-10.9c-0.5-1.5-1.7-2.7-2.4-4.2
				c-1.4-3.3-0.4-4.5,2.1-6.5c2.3-1.8,3.9-3.5,4.7-6.3c0.4-1.5,0.2-3.1,0.6-4.5c1-3.8,3.5-3.8,6.8-3.5c3.6,0.3,6.5-0.3,9.5-2.4
				c3-2.1,5.6-5.6,9.5-6.2c5.4-0.8,3.5,4.1,5.9,6.9c1.5,1.8,3.7,2,5.8,1.3c1.5-0.5,2.9-2.3,4.6-1.4c1.1,0.6,2.3,5.2,2.8,6.3
				c4,9.5,7.9,19,10.6,28.9c5.1,18.4,5.9,38.5-3.4,55.7c-1.2,2.2,1.2,4.7,3.4,3.4c5.1-2.9,10.2-5.7,15.2-8.6
				c2.2-1.2,4.3-2.5,6.5-3.7c1.5-0.8,3-1.6,4.6-2c1.5-0.5,3.1-0.4,4.7,0.2c0.5,1.7,1,3.3,1.5,5c-0.3,1.1-5.1,3.1-6.2,3.9
				c-1.2,0.9-2.5,1.8-3.6,2.9c-2.9,2.7-5.2,6-6.9,9.5c-3.1,6.5-4.2,14-2.6,21c2.1,9.1,10.5,14.6,13.1,23.4c1.5,4.9,1,10.2,0.8,15.3
				c-0.2,6.6-0.3,13.1-0.4,19.7c-0.1,11.8-0.1,23.6,0.2,35.4c0.5,23.6,1.8,47.2,3.9,70.7c2.3,26.3,5.7,52.6,10,78.7
				c0.5,3.2,5.3,1.8,4.8-1.3c-8.3-50.9-13-102.3-13.8-153.9c-0.2-12.8-0.2-25.6,0.1-38.3c0.2-10.2,2.4-22.4-2.5-31.8
				c-2.2-4.2-5.6-7.6-8.2-11.6c-2.8-4.4-4.1-9.3-3.7-14.5c0.6-9.9,6.3-17.9,14.7-22.8c3.4-2,6.8-4.7,6-9.1c-0.6-3.9-4.2-6.8-8-7.4
				c-4.8-0.8-9.4,1.9-13.3,4.1c-6.5,3.7-13,7.3-19.5,11c1.1,1.1,2.3,2.3,3.4,3.4c8.2-15.2,9.3-32.8,6.2-49.6
				c-1.8-9.7-5-19.1-8.6-28.3c-1.7-4.2-3.4-8.4-5.2-12.6c-1.2-2.9-2.3-7.4-5.8-8.4c-0.9-0.3-2-0.2-2.9,0c-1.1,0.2-2.7,1.8-3.7,1.8
				c-1.4,0-2.2-5.1-4.1-6.5c-4.4-3.5-10.6-1.1-14.5,1.9c-1.8,1.4-3.4,3.1-5.4,4.2c-2.4,1.3-4.7,0.9-7.3,0.7c-3-0.3-6-0.1-8.2,2.4
				c-1.9,2.2-1.8,5-2.3,7.6c-0.9,5-4.4,5.3-7.1,8.9c-1.8,2.4-1.8,5.2-0.5,7.9c1.2,2.5,3.2,4.2,3.3,7.2c0.1,2.8-1.5,5.6-2.2,8.2
				c-1.5,5.4-0.6,13.3,6,14.4c-0.6-1-1.2-2.1-1.7-3.1c-2.8,8.2-5.1,17.7,1.3,24.8c5.6,6.2,14.7,7.5,20.4,13.7
				c6.8,7.4,5.8,19,4.4,28.2c-0.5,3.3-0.6,6.8-3.7,9c-1.5,1-3.5,1.4-5,2.4c-3.1,2-5.5,4.8-7.2,8c-3.7,6.9-4.4,15.1-4.5,22.8
				c-0.2,12.1-0.1,24.1-0.3,36.2c-0.4,25-1.3,50.1-2.7,75.1c-1.5,28.3-3.7,56.6-6.5,84.8C777.2,585.1,782.2,585,782.6,581.9
				L782.6,581.9z"/>
		</g>
	</g>
	<g>
		<g>
			<path fill="#250AFF" d="M849,330.5c-3.9-1.9-7.7-3.8-11.6-5.8c-2.4-1.2-6-3.8-8.8-3.4c-5,0.8-4.6,7.7-4.9,11.4
				c-0.3,4-0.4,8-0.3,12c0.1,2.5-0.3,5.8,0.9,8.1c2.7,5.4,12.8,3.8,17.4,3.3c1.4-0.2,2.4-1,2.5-2.5c0.5-7.2,0.9-14.5,1.4-21.7
				c0.2-3.2-4.8-3.2-5,0c-0.5,7.2-0.9,14.5-1.4,21.7c0.8-0.8,1.7-1.7,2.5-2.5c-3.2,0.4-11.8,2-13.1-1.8c-1.3-3.8-0.3-9.9-0.1-13.8
				c0.1-2.2,0.2-4.3,0.5-6.4c-0.4-2.4,0.4-3,2.6-1.7c0.8,0.4,1.7,0.8,2.5,1.2c4.1,2.1,8.3,4.1,12.4,6.2
				C849.3,336.3,851.9,331.9,849,330.5L849,330.5z"/>
		</g>
	</g>
	<g>
		<g>
			<path fill="#250AFF" d="M843.4,317.5c-4.3-2.1-8.6-4.1-12.9-6.2c-1.3-0.6-2.5-0.3-3.4,0.9c-1.9,2.5-3.6,5.5-2.7,8.8
				c0.8,2.7,2.9,4.2,5.6,4.5c3.2,0.4,3.2-4.6,0-5c-2.5-0.3,1-5.2,1.5-5.8c-1.1,0.3-2.3,0.6-3.4,0.9c4.3,2.1,8.6,4.1,12.9,6.2
				C843.8,323.2,846.3,318.9,843.4,317.5L843.4,317.5z"/>
		</g>
	</g>
	<g>
		<g>
			<path fill="#250AFF" d="M816.7,294.5c7.1-0.2,14.2,0,21.3,0.7c3.2,0.3,3.2-4.7,0-5c-7.1-0.7-14.2-1-21.3-0.7
				C813.5,289.6,813.4,294.6,816.7,294.5L816.7,294.5z"/>
		</g>
	</g>
	<g>
		<g>
			<path fill="#250AFF" d="M825.9,275.6c1.5-1,3-2.2,4.8-2.6c1.1-0.3,4-0.1,3.6,1.8c-0.6,3.1,4.2,4.5,4.8,1.3
				c0.7-3.6-1.4-6.7-4.8-7.9c-4-1.3-7.8,0.9-10.9,3.1C820.8,273.1,823.3,277.5,825.9,275.6L825.9,275.6z"/>
		</g>
	</g>
	<g>
		<g>
			<path fill="#250AFF" d="M805.6,253.8c5.8,2.8,11.3,5.9,16.6,9.5c2.7,1.8,5.2-2.5,2.5-4.3c-5.3-3.6-10.8-6.7-16.6-9.5
				C805.2,248.1,802.7,252.4,805.6,253.8L805.6,253.8z"/>
		</g>
	</g>
	<g>
		<g>
			<path fill="#250AFF" d="M810,270.5c3.2,0,3.2-5,0-5C806.8,265.5,806.8,270.5,810,270.5L810,270.5z"/>
		</g>
	</g>
	<g>
		<g>
			<path fill="#250AFF" d="M840.9,258c0.1-0.3,0.3-0.6,0.5-0.8c0.2-0.4-0.2,0.2,0,0c0.1-0.1,0.2-0.2,0.3-0.3c0.2-0.2,0.1-0.1-0.1,0
				c0.1-0.1,0.3-0.2,0.4-0.3c0.1-0.1,0.3-0.2,0.4-0.2c-0.1,0-0.2,0.1-0.2,0.1c0.1,0,0.2-0.1,0.4-0.1c1.2-0.4,2.2-1.8,1.7-3.1
				c-0.4-1.3-1.7-2.2-3.1-1.7c-2,0.6-3.8,2-4.7,4c-0.5,1.2-0.4,2.7,0.9,3.4C838.6,259.4,840.3,259.2,840.9,258L840.9,258z"/>
		</g>
	</g>
	<g>
		<g>
			<path fill="#250AFF" d="M843.3,268.5c0.2,0,0.4,0,0.7,0c1.3,0,2.6-1.1,2.5-2.5c-0.1-1.4-1.1-2.5-2.5-2.5c-0.2,0-0.4,0-0.7,0
				c-1.3,0-2.6,1.1-2.5,2.5C840.9,267.4,841.9,268.5,843.3,268.5L843.3,268.5z"/>
		</g>
	</g>
	<g>
		<g>
			<path fill="#250AFF" d="M674.7,384.7c-1.8,1.9-2.5,4.7-1.6,7.2c0.3,0.9,1.3,2,2.4,1.8c1.9-0.2,3.3-1.2,4-3.1
				c0.6-1.6,0.2-3.3-1-4.6c-0.9-1-2.6-0.9-3.5,0c-1,1-0.9,2.5,0,3.5c-0.1-0.2-0.2-0.6-0.2-0.2c-0.1-0.2-0.1-0.4,0-0.5
				c0,0.1,0,0.2-0.1,0.3c-0.2,0.3,0.4-0.5,0.1-0.2c-0.1,0.1-0.1,0.1,0.1-0.1c0.2-0.1,0.3-0.1,0.5-0.1c0.8,0.6,1.6,1.2,2.4,1.8
				c-0.3-1-0.3-1.7,0.3-2.4c0.9-1,1-2.5,0-3.5C677.3,383.8,675.6,383.7,674.7,384.7L674.7,384.7z"/>
		</g>
	</g>
	<g>
		<g>
			<path fill="#250AFF" d="M659.9,428.2c3.6-1.8,7.1-3.5,10.7-5.3c2.9-1.4,0.4-5.7-2.5-4.3c-3.6,1.8-7.1,3.5-10.7,5.3
				C654.5,425.3,657.1,429.6,659.9,428.2L659.9,428.2z"/>
		</g>
	</g>
	<g>
		<g>
			<path fill="#250AFF" d="M649.6,406c2.4,5.2,8.6,7,13.6,4.8c2.9-1.3,0.4-5.6-2.5-4.3c-2.7,1.2-5.7-0.6-6.8-3
				C652.6,400.6,648.3,403.1,649.6,406L649.6,406z"/>
		</g>
	</g>
	<g>
		<g>
			<path fill="#250AFF" d="M524.7,416.6c6.3-1.4,12.6-2.7,18.9-4.1c-1.1-0.8-2.1-1.6-3.2-2.4c-0.4,4-2.2,8.5-6.5,9.7
				c-4,1.2-7.9-2-6.2-6.2c1.2-3-3.6-4.3-4.8-1.3c-2.7,6.5,3,13,9.6,12.8c8.1-0.3,12.2-7.8,13-15c0.2-1.7-1.7-2.7-3.2-2.4
				c-6.3,1.4-12.6,2.7-18.9,4.1C520.2,412.4,521.5,417.2,524.7,416.6L524.7,416.6z"/>
		</g>
	</g>
	<g>
		<g>
			<path fill="#250AFF" d="M528.2,393.4c1.7-5.1,8-3.6,8.7,1.2c0.4,3.2,5.2,1.8,4.8-1.3c-0.6-4.3-4.3-7.9-8.7-8.2
				c-4.5-0.3-8.3,2.8-9.7,7C522.4,395.2,527.2,396.5,528.2,393.4L528.2,393.4z"/>
		</g>
	</g>
	<g>
		<g>
			<path fill="#250AFF" d="M548.6,385.5c2-1.4,4.2-1.5,6.3-0.2c2.7,1.7,5.2-2.6,2.5-4.3c-3.4-2.2-8-2.1-11.3,0.2
				C543.4,383,545.9,387.3,548.6,385.5L548.6,385.5z"/>
		</g>
	</g>
	<g>
		<g>
			<path fill="#250AFF" d="M515.5,387.3C515.7,387,515.6,387.1,515.5,387.3c0,0,0.1-0.1,0.2-0.2c-0.3,0.2-0.3,0.2-0.1,0.1
				C515.9,387.1,515.9,387.1,515.5,387.3c0.1-0.1,0.3-0.1,0.4-0.2c0.3-0.1,0.2-0.1-0.1,0c0.1,0,0.2,0,0.4,0c-0.4-0.1-0.4-0.1-0.1,0
				c1.3,0.3,2.8-0.4,3.1-1.7c0.3-1.3-0.4-2.8-1.7-3.1c-2.4-0.6-4.8,0.4-6.1,2.5c-0.7,1.1-0.3,2.8,0.9,3.4
				C513.3,388.8,514.7,388.4,515.5,387.3L515.5,387.3z"/>
		</g>
	</g>
	<g>
		<g>
			<path fill="#250AFF" d="M402.4,396c-1,5.9,3,11.2,8.9,12c1.4,0.2,2.5-1.3,2.5-2.5c0-1.5-1.2-2.3-2.5-2.5
				c-2.5-0.3-4.5-3.2-4.1-5.7C407.8,394.2,402.9,392.9,402.4,396L402.4,396z"/>
		</g>
	</g>
	<g>
		<g>
			<path fill="#250AFF" d="M419,376.3c2.2,2.1,1.9,6.8-1.2,8.1c-2.9,1.2-1.6,6,1.3,4.8c6.4-2.6,8.6-11.4,3.4-16.4
				C420.2,370.5,416.7,374.1,419,376.3L419,376.3z"/>
		</g>
	</g>
	<g>
		<g>
			<path fill="#250AFF" d="M399,366c-0.5,3.5-0.1,6.7,1.4,9.9c1.1,2.3,4.6,1.1,4.7-1.3c0-2.6-0.5-4.9-1.6-7.3
				c-0.6-1.2-2.3-1.5-3.4-0.9c-1.3,0.7-1.5,2.2-0.9,3.4c0.7,1.5,0.9,3.1,0.9,4.7c1.6-0.4,3.1-0.8,4.7-1.3c-0.9-1.9-1.2-4-0.9-6.1
				c0.2-1.3-0.3-2.7-1.7-3.1C400.9,363.9,399.2,364.7,399,366L399,366z"/>
		</g>
	</g>
	<g>
		<g>
			<path fill="#250AFF" d="M418.7,364.5c0.9,1.3,1.4,2.6,1.4,4.2c0,3.2,5,3.2,5,0c0-2.4-0.7-4.8-2.1-6.7c-0.8-1.1-2.2-1.6-3.4-0.9
				C418.5,361.7,417.9,363.4,418.7,364.5L418.7,364.5z"/>
		</g>
	</g>
	<g>
		<g>
			<path fill="#250AFF" d="M809.3,270.9c1.1-0.2,2.2-0.4,3.3-0.7c1.3-0.3,2.1-1.9,1.7-3.1c-0.4-1.4-1.7-2-3.1-1.7
				c-1.1,0.2-2.2,0.4-3.3,0.7c-1.3,0.3-2.1,1.9-1.7,3.1C806.7,270.6,807.9,271.2,809.3,270.9L809.3,270.9z"/>
		</g>
	</g>
	<g>
		<g>
			<path fill="#250AFF" d="M840.4,352.7c-3.1,20.5-5.6,41.1-7.2,61.8c-0.8,10.4-1.5,20.8-1.9,31.2c-0.4,9.8-0.5,19.6,1.6,29.3
				c0.7,3.1,5.5,1.8,4.8-1.3c-2.1-9.5-1.8-19.2-1.4-28.9c0.4-10.1,1.1-20.2,1.9-30.3c1.6-20.3,4-40.4,7.1-60.5
				C845.7,350.9,840.9,349.5,840.4,352.7L840.4,352.7z"/>
		</g>
	</g>
	<g>
		<g>
			<path fill="#250AFF" d="M834.1,477.9c5.6,5.3,14,10.1,21.6,11.6c8.4,1.7,14.1-6.9,19-12.2c2.2-2.4-1.4-5.9-3.5-3.5
				c-4.6,5-9.3,12.7-17,10c-5.9-2.1-11.9-5.1-16.5-9.4C835.3,472.2,831.7,475.7,834.1,477.9L834.1,477.9z"/>
		</g>
	</g>
	<g>
		<g>
			<path fill="#250AFF" d="M856.6,344.1c3.4,36.1,8.7,71.9,13.4,107.8c0.4,3.1,5.4,3.2,5,0c-4.7-35.9-10-71.8-13.4-107.8
				C861.3,340.9,856.3,340.9,856.6,344.1L856.6,344.1z"/>
		</g>
	</g>
</g>
</svg>
