<?xml version="1.0" encoding="utf-8"?>
<!-- Generator: Adobe Illustrator 22.1.0, SVG Export Plug-In . SVG Version: 6.00 Build 0)  -->
<svg version="1.1" id="Layer_1" xmlns="http://www.w3.org/2000/svg" xmlns:xlink="http://www.w3.org/1999/xlink" x="0px" y="0px"
	 viewBox="0 0 1457 621" style="enable-background:new 0 0 1457 621;" xml:space="preserve">
<style type="text/css">
	.st0{fill:none;stroke:#5430D6;stroke-width:15;stroke-miterlimit:10;}
	.st1{fill:none;stroke:#DEDAEF;stroke-width:15;stroke-miterlimit:10;}
	.st2{fill-rule:evenodd;clip-rule:evenodd;fill:#5430D6;}
	.st3{fill:#FFFFFF;}
	.st4{fill-rule:evenodd;clip-rule:evenodd;fill:#5430D6;fill-opacity:0.61;}
	.st5{fill-rule:evenodd;clip-rule:evenodd;fill:#D7F2ED;fill-opacity:0.61;}
	.st6{fill-rule:evenodd;clip-rule:evenodd;fill:#20BAA7;fill-opacity:0.61;}
	.st7{fill:#5430D6;}
	.st8{fill-rule:evenodd;clip-rule:evenodd;fill:#DEDAEF;}
</style>
<g>
	<line class="st0" x1="64" y1="434" x2="631.5" y2="434"/>
</g>
<line class="st1" x1="652.5" y1="432.5" x2="1395.5" y2="432.5"/>
<g>
	<circle class="st2" cx="170" cy="433" r="53.5"/>
	<path class="st3" d="M170,383c27.6,0,50,22.4,50,50c0,27.6-22.4,50-50,50s-50-22.4-50-50C120,405.4,142.4,383,170,383 M170,376
		c-31.4,0-57,25.6-57,57s25.6,57,57,57s57-25.6,57-57S201.4,376,170,376L170,376z"/>
</g>
<g>
	<circle class="st2" cx="426" cy="434" r="53.5"/>
	<path class="st3" d="M426,384c27.6,0,50,22.4,50,50c0,27.6-22.4,50-50,50s-50-22.4-50-50C376,406.4,398.4,384,426,384 M426,377
		c-31.4,0-57,25.6-57,57s25.6,57,57,57s57-25.6,57-57S457.4,377,426,377L426,377z"/>
</g>
<g>
	<circle class="st2" cx="632" cy="433" r="53.5"/>
	<path class="st3" d="M632,383c27.6,0,50,22.4,50,50c0,27.6-22.4,50-50,50s-50-22.4-50-50C582,405.4,604.4,383,632,383 M632,376
		c-31.4,0-57,25.6-57,57s25.6,57,57,57s57-25.6,57-57S663.4,376,632,376L632,376z"/>
</g>
<g>
	<rect x="64" y="514" class="st4" width="251" height="50"/>
	<g>
		<path class="st3" d="M106.3,547.5h-0.1l-0.4,1.9h-3.3V524h4.2v6.6l-0.2,3.1h0.1c1.5-1.4,3.5-2.3,5.4-2.3c4.6,0,7.2,3.5,7.2,9
			c0,6.1-3.7,9.6-7.8,9.6C109.8,549.9,107.9,549,106.3,547.5z M115,540.3c0-3.5-1.2-5.6-4.1-5.6c-1.3,0-2.8,0.6-4.2,2.1v7.9
			c1.3,1.2,2.8,1.6,3.9,1.6C113.1,546.4,115,544.3,115,540.3z"/>
		<path class="st3" d="M125.9,531.7h3.4l0.4,4h0.1c1.8-2.9,4.5-4.5,7.5-4.5c1.4,0,2.4,0.2,3.4,0.7l-0.9,3.5
			c-1.2-0.4-1.9-0.5-3.2-0.5c-2.4,0-4.8,1.2-6.6,4.7v9.7h-4.2V531.7z"/>
		<path class="st3" d="M145.3,544.7c0-4,3.5-5.9,12.2-6.6c-0.1-2-1.3-3.5-4.2-3.5c-2,0-4,0.9-5.8,1.9l-1.5-2.8
			c2.1-1.3,5-2.5,8.1-2.5c4.9,0,7.6,2.7,7.6,7.6v10.5h-3.4l-0.3-2.2h-0.1c-1.9,1.4-4.2,2.6-6.6,2.6
			C147.8,549.9,145.3,547.7,145.3,544.7z M157.6,544.4v-3.7c-6.4,0.4-8.2,1.7-8.2,3.6c0,1.6,1.4,2.2,3.1,2.2
			C154.3,546.6,155.9,545.8,157.6,544.4z"/>
		<path class="st3" d="M167.4,531.7h3.4l0.3,2.7h0.1c1.7-1.7,3.7-3.1,6.4-3.1c4.1,0,5.9,2.6,5.9,7.2v11h-4.2V539
			c0-2.8-0.9-4.1-3.3-4.1c-1.7,0-2.9,0.8-4.5,2.5v12.1h-4.2V531.7z"/>
		<path class="st3" d="M188.6,540.6c0-5.9,4.6-9.3,10-9.3c2.8,0,5.1,1.1,6.5,2.5l-2,2.6c-1.4-1.1-2.8-1.7-4.4-1.7
			c-3.5,0-6,2.3-6,5.9c0,3.5,2.4,5.9,5.9,5.9c2,0,3.7-0.9,5-1.9l1.7,2.7c-2,1.8-4.6,2.7-7.1,2.7
			C192.9,549.9,188.6,546.5,188.6,540.6z"/>
		<path class="st3" d="M210.6,524h4.2v6.6l-0.2,3.8h0.1c1.5-1.7,3.5-3,6.2-3c4.1,0,5.9,2.6,5.9,7.2v11h-4.2V539
			c0-2.8-0.9-4.1-3.3-4.1c-1.7,0-2.9,0.8-4.5,2.5v12.1h-4.2V524z"/>
		<path class="st3" d="M232,536h16v3h-16V536z"/>
		<path class="st3" d="M254,546h6.4v-15h-5.1v-2.6c2.9-0.4,4.6-1,6.2-1.9h3.1V546h5.6v3.4H254V546z"/>
	</g>
</g>
<path class="st5" d="M1360,281H854c-19.3,0-35-15.7-35-35V87c0-19.3,15.7-35,35-35h506c19.3,0,35,15.7,35,35v159
	C1395,265.3,1379.3,281,1360,281z"/>
<path class="st6" d="M1395,139V87c0-19.3-15.7-35-35-35H854c-19.3,0-35,15.7-35,35v52H1395z"/>
<g>
	<path class="st3" d="M857.2,105.1l1.8-2.7c2.1,1.4,4.5,2.2,7.4,2.2c2.4,0,3.6-0.9,3.6-2.1c0-1.2-0.8-1.8-4.9-2.7
		c-4.7-1-6.8-2.7-6.8-5.3c0-3.1,2.8-5.3,7.7-5.3c2.9,0,5.6,1.1,7.4,2.3l-1.9,2.6c-1.7-1.1-3.8-1.8-5.9-1.8c-2.3,0-3.2,0.9-3.2,2
		c0,1.2,1.3,1.7,4.6,2.4c5.7,1.2,7.1,2.8,7.1,5.6c0,3-2.9,5.5-8.3,5.5C862.6,107.9,859.4,106.6,857.2,105.1z"/>
	<path class="st3" d="M883.4,100.3V93h-4.7v-3.1l4.9-0.2l0.5-5.5h3.4v5.5h8V93h-8v7.3c0,2.9,1.1,4.2,4.1,4.2c1.5,0,2.7-0.3,3.8-0.7
		l0.8,3c-1.6,0.5-3.4,1-5.7,1C885.3,107.9,883.4,104.8,883.4,100.3z"/>
	<path class="st3" d="M900.7,102.7c0-4,3.5-5.9,12.2-6.6c-0.1-2-1.3-3.5-4.2-3.5c-2,0-4,0.9-5.8,1.9l-1.5-2.8c2.1-1.3,5-2.5,8.1-2.5
		c4.9,0,7.6,2.7,7.6,7.6v10.5h-3.4l-0.3-2.2h-0.1c-1.9,1.4-4.2,2.6-6.6,2.6C903.2,107.9,900.7,105.7,900.7,102.7z M913,102.4v-3.7
		c-6.4,0.4-8.2,1.7-8.2,3.6c0,1.6,1.4,2.2,3.1,2.2C909.7,104.6,911.3,103.8,913,102.4z"/>
	<path class="st3" d="M922,105.1l1.8-2.7c2.1,1.4,4.5,2.2,7.4,2.2c2.4,0,3.6-0.9,3.6-2.1c0-1.2-0.8-1.8-4.9-2.7
		c-4.7-1-6.8-2.7-6.8-5.3c0-3.1,2.8-5.3,7.7-5.3c2.9,0,5.6,1.1,7.4,2.3l-1.9,2.6c-1.7-1.1-3.8-1.8-5.9-1.8c-2.3,0-3.2,0.9-3.2,2
		c0,1.2,1.3,1.7,4.6,2.4c5.7,1.2,7.1,2.8,7.1,5.6c0,3-2.9,5.5-8.3,5.5C927.4,107.9,924.2,106.6,922,105.1z"/>
	<path class="st3" d="M944.4,82h4.2v6.6l-0.2,3.8h0.1c1.5-1.7,3.5-3,6.2-3c4.1,0,5.9,2.6,5.9,7.2v11h-4.2V97c0-2.8-0.9-4.1-3.3-4.1
		c-1.7,0-2.9,0.8-4.5,2.5v12.1h-4.2V82z"/>
	<path class="st3" d="M992.7,101V85.3h-5.9V82h10.1v19.2c0,2.4,1.4,3.3,3.2,3.3c0.9,0,1.9-0.2,3-0.7l1,3.1c-1.7,0.6-2.9,1-5,1
		C994.9,107.9,992.7,105.3,992.7,101z"/>
	<path class="st3" d="M1016.9,93h-7.6v-3.3h11.8v17.7h-4.2V93z M1015.7,83.7c0-1.7,1.2-2.8,3-2.8s3,1.1,3,2.8c0,1.7-1.2,2.8-3,2.8
		S1015.7,85.4,1015.7,83.7z"/>
	<path class="st3" d="M1030,105.1l1.8-2.7c2.1,1.4,4.5,2.2,7.4,2.2c2.4,0,3.6-0.9,3.6-2.1c0-1.2-0.8-1.8-4.9-2.7
		c-4.7-1-6.8-2.7-6.8-5.3c0-3.1,2.8-5.3,7.7-5.3c2.9,0,5.6,1.1,7.4,2.3l-1.9,2.6c-1.7-1.1-3.8-1.8-5.9-1.8c-2.3,0-3.2,0.9-3.2,2
		c0,1.2,1.3,1.7,4.6,2.4c5.7,1.2,7.1,2.8,7.1,5.6c0,3-2.9,5.5-8.3,5.5C1035.4,107.9,1032.2,106.6,1030,105.1z"/>
	<path class="st3" d="M1056.2,100.3V93h-4.7v-3.1l4.9-0.2l0.5-5.5h3.4v5.5h8V93h-8v7.3c0,2.9,1.1,4.2,4.1,4.2c1.5,0,2.7-0.3,3.8-0.7
		l0.8,3c-1.6,0.5-3.4,1-5.7,1C1058.1,107.9,1056.2,104.8,1056.2,100.3z"/>
</g>
<g>
	<g>
		<path class="st0" d="M632,394l-0.6-72.6c-0.2-62,50-112.4,112-112.4h14.8"/>
		<g>
			<polygon class="st7" points="750.4,235.9 797,209 750.4,182.1 			"/>
		</g>
	</g>
</g>
<g>
	<circle class="st8" cx="992" cy="432" r="53.5"/>
	<path class="st3" d="M992,382c27.6,0,50,22.4,50,50s-22.4,50-50,50s-50-22.4-50-50S964.4,382,992,382 M992,375
		c-31.4,0-57,25.6-57,57s25.6,57,57,57s57-25.6,57-57S1023.4,375,992,375L992,375z"/>
</g>
<g>
	<circle class="st8" cx="1265" cy="432" r="53.5"/>
	<path class="st3" d="M1265,382c27.6,0,50,22.4,50,50s-22.4,50-50,50s-50-22.4-50-50S1237.4,382,1265,382 M1265,375
		c-31.4,0-57,25.6-57,57s25.6,57,57,57s57-25.6,57-57S1296.4,375,1265,375L1265,375z"/>
</g>
<g>
	<circle class="st2" cx="890" cy="207" r="25"/>
</g>
<g>
	<path class="st7" d="M948.7,216.6l1.8-2.7c2.1,1.4,4.5,2.2,7.4,2.2c2.4,0,3.6-0.9,3.6-2.1c0-1.2-0.8-1.8-4.9-2.7
		c-4.7-1-6.8-2.7-6.8-5.3c0-3.1,2.8-5.3,7.7-5.3c2.9,0,5.6,1.1,7.4,2.3l-1.9,2.6c-1.7-1.1-3.8-1.8-5.9-1.8c-2.3,0-3.2,0.9-3.2,2
		c0,1.2,1.3,1.7,4.6,2.4c5.7,1.2,7.1,2.8,7.1,5.6c0,3-2.9,5.5-8.3,5.5C954.1,219.4,950.9,218.1,948.7,216.6z"/>
	<path class="st7" d="M974.9,211.8v-7.3h-4.7v-3.1l4.9-0.2l0.5-5.5h3.4v5.5h8v3.3h-8v7.3c0,2.9,1.1,4.2,4.1,4.2
		c1.5,0,2.7-0.3,3.8-0.7l0.8,3c-1.6,0.5-3.4,1-5.7,1C976.8,219.4,974.9,216.3,974.9,211.8z"/>
	<path class="st7" d="M992.2,214.2c0-4,3.5-5.9,12.2-6.6c-0.1-2-1.3-3.5-4.2-3.5c-2,0-4,0.9-5.8,1.9l-1.5-2.8c2.1-1.3,5-2.5,8.1-2.5
		c4.9,0,7.6,2.7,7.6,7.6v10.5h-3.4l-0.3-2.2h-0.1c-1.9,1.4-4.2,2.6-6.6,2.6C994.7,219.4,992.2,217.2,992.2,214.2z M1004.5,213.9
		v-3.7c-6.4,0.4-8.2,1.7-8.2,3.6c0,1.6,1.4,2.2,3.1,2.2C1001.2,216.1,1002.8,215.3,1004.5,213.9z"/>
	<path class="st7" d="M1013.5,216.6l1.8-2.7c2.1,1.4,4.5,2.2,7.4,2.2c2.4,0,3.6-0.9,3.6-2.1c0-1.2-0.8-1.8-4.9-2.7
		c-4.7-1-6.8-2.7-6.8-5.3c0-3.1,2.8-5.3,7.7-5.3c2.9,0,5.6,1.1,7.4,2.3l-1.9,2.6c-1.7-1.1-3.8-1.8-5.9-1.8c-2.3,0-3.2,0.9-3.2,2
		c0,1.2,1.3,1.7,4.6,2.4c5.7,1.2,7.1,2.8,7.1,5.6c0,3-2.9,5.5-8.3,5.5C1018.9,219.4,1015.7,218.1,1013.5,216.6z"/>
	<path class="st7" d="M1035.9,193.5h4.2v6.6l-0.2,3.8h0.1c1.5-1.7,3.5-3,6.2-3c4.1,0,5.9,2.6,5.9,7.2v11h-4.2v-10.4
		c0-2.8-0.9-4.1-3.3-4.1c-1.7,0-2.9,0.8-4.5,2.5v12.1h-4.2V193.5z"/>
	<path class="st7" d="M1055.9,209.9c0-9.5,4.8-14,10.7-14c5.2,0,7.6,3.8,7.6,8.7v10.7h-2.3l-0.3-2h-0.1c-1,1.3-2.6,2.4-4.5,2.4
		c-2.6,0-4.6-2-4.6-4.9c0-3.8,3.4-5.4,9.2-6.2v-0.5c0-3.1-1.6-5.7-5-5.7c-3.8,0-7.6,3.6-7.6,11.5c0,7.6,3.7,11.6,8,11.6
		c2.1,0,3.5-0.5,4.9-1.5l1.3,2.1c-2,1.2-3.9,2-6.3,2C1061,224.2,1055.9,219.4,1055.9,209.9z M1071.1,211.2v-3.9
		c-4.1,0.6-5.7,1.6-5.7,3.5c0,1.4,0.9,2.2,2.4,2.2C1069,213,1070.1,212.3,1071.1,211.2z"/>
	<path class="st7" d="M1084.9,219.4c0-2.6,0.4-4.2,0.4-6.5c0-1.3-1-2.7-5.1-2.7v-2.5c4.1,0,5.1-1.4,5.1-2.7c0-2.3-0.4-4-0.4-6.5
		c0-3.8,2.1-5,6.7-5h2.5v2.3h-1.7c-3.3,0-4.1,0.7-4.1,2.9c0,2,0.2,4,0.2,6.2c0,2.5-0.9,3.6-3.4,4.1v0.1c2.5,0.4,3.4,1.5,3.4,4.1
		c0,2.3-0.2,4.1-0.2,6.2c0,2.2,0.7,2.9,4.1,2.9h1.7v2.3h-2.5C1087,224.4,1084.9,223.2,1084.9,219.4z"/>
	<path class="st7" d="M1100,207.4c0-7.7,3.3-11.8,8.5-11.8c5.2,0,8.5,4.1,8.5,11.8c0,7.7-3.3,12-8.5,12
		C1103.3,219.4,1100,215.1,1100,207.4z M1113.3,207.4c0-6.3-2-8.5-4.8-8.5s-4.8,2.3-4.8,8.5s2,8.7,4.8,8.7
		S1113.3,213.6,1113.3,207.4z M1106,207.2c0-1.6,1.1-2.6,2.5-2.6s2.5,1,2.5,2.6c0,1.6-1.1,2.6-2.5,2.6S1106,208.8,1106,207.2z"/>
	<path class="st7" d="M1123,222.1h1.7c3.3,0,4.1-0.7,4.1-2.9c0-2.1-0.2-3.9-0.2-6.2c0-2.5,0.9-3.6,3.4-4.1v-0.1
		c-2.5-0.4-3.4-1.5-3.4-4.1c0-2.2,0.2-4.2,0.2-6.2c0-2.2-0.7-2.9-4.1-2.9h-1.7v-2.3h2.5c4.6,0,6.7,1.2,6.7,5c0,2.5-0.3,4.3-0.3,6.5
		c0,1.3,1,2.7,5.1,2.7v2.5c-4.1,0-5.1,1.4-5.1,2.7c0,2.3,0.3,3.9,0.3,6.5c0,3.8-2.1,5-6.7,5h-2.5V222.1z"/>
</g>
</svg>
