<?xml version="1.0" encoding="utf-8"?>
<!-- Generator: Adobe Illustrator 22.1.0, SVG Export Plug-In . SVG Version: 6.00 Build 0)  -->
<svg version="1.1" id="Layer_1" xmlns="http://www.w3.org/2000/svg" xmlns:xlink="http://www.w3.org/1999/xlink" x="0px" y="0px"
	 viewBox="0 0 1457 965" style="enable-background:new 0 0 1457 965;" xml:space="preserve">
<style type="text/css">
	.st0{fill:none;stroke:#5430D6;stroke-width:15;stroke-miterlimit:10;}
	.st1{fill:none;stroke:#DEDAEF;stroke-width:15;stroke-miterlimit:10;}
	.st2{fill-rule:evenodd;clip-rule:evenodd;fill:#5430D6;}
	.st3{fill:#FFFFFF;}
	.st4{fill-rule:evenodd;clip-rule:evenodd;fill:#5430D6;fill-opacity:0.61;}
	.st5{fill-rule:evenodd;clip-rule:evenodd;fill:#D7F2ED;fill-opacity:0.61;}
	.st6{fill-rule:evenodd;clip-rule:evenodd;fill:#E54EC8;}
	.st7{fill-rule:evenodd;clip-rule:evenodd;fill:#20BAA7;fill-opacity:0.61;}
	.st8{fill:#E54EC8;}
	.st9{fill:#5430D6;}
	.st10{fill-rule:evenodd;clip-rule:evenodd;fill:#DEDAEF;}
	.st11{fill:none;stroke:#E54EC8;stroke-width:15;stroke-miterlimit:10;}
	.st12{fill-rule:evenodd;clip-rule:evenodd;fill:#E54EC8;fill-opacity:0.61;}
</style>
<g>
	<line class="st0" x1="64" y1="535" x2="631.5" y2="535"/>
</g>
<line class="st1" x1="652.5" y1="533.5" x2="1395.5" y2="533.5"/>
<g>
	<circle class="st2" cx="170" cy="534" r="53.5"/>
	<path class="st3" d="M170,484c27.6,0,50,22.4,50,50c0,27.6-22.4,50-50,50s-50-22.4-50-50C120,506.4,142.4,484,170,484 M170,477
		c-31.4,0-57,25.6-57,57s25.6,57,57,57s57-25.6,57-57S201.4,477,170,477L170,477z"/>
</g>
<g>
	<circle class="st2" cx="426" cy="535" r="53.5"/>
	<path class="st3" d="M426,485c27.6,0,50,22.4,50,50c0,27.6-22.4,50-50,50s-50-22.4-50-50C376,507.4,398.4,485,426,485 M426,478
		c-31.4,0-57,25.6-57,57s25.6,57,57,57s57-25.6,57-57S457.4,478,426,478L426,478z"/>
</g>
<g>
	<circle class="st2" cx="632" cy="534" r="53.5"/>
	<path class="st3" d="M632,484c27.6,0,50,22.4,50,50c0,27.6-22.4,50-50,50s-50-22.4-50-50C582,506.4,604.4,484,632,484 M632,477
		c-31.4,0-57,25.6-57,57s25.6,57,57,57s57-25.6,57-57S663.4,477,632,477L632,477z"/>
</g>
<g>
	<rect x="64" y="615" class="st4" width="251" height="50"/>
	<g>
		<path class="st3" d="M106.3,648.5h-0.1l-0.4,1.9h-3.3V625h4.2v6.6l-0.2,3.1h0.1c1.5-1.4,3.5-2.3,5.4-2.3c4.6,0,7.2,3.5,7.2,9
			c0,6.1-3.7,9.6-7.8,9.6C109.8,650.9,107.9,650,106.3,648.5z M115,641.3c0-3.5-1.2-5.6-4.1-5.6c-1.3,0-2.8,0.6-4.2,2.1v7.9
			c1.3,1.2,2.8,1.6,3.9,1.6C113.1,647.4,115,645.3,115,641.3z"/>
		<path class="st3" d="M125.9,632.7h3.4l0.4,4h0.1c1.8-2.9,4.5-4.5,7.5-4.5c1.4,0,2.4,0.2,3.4,0.7l-0.9,3.5
			c-1.2-0.4-1.9-0.5-3.2-0.5c-2.4,0-4.8,1.2-6.6,4.7v9.7h-4.2V632.7z"/>
		<path class="st3" d="M145.3,645.7c0-4,3.5-5.9,12.2-6.6c-0.1-2-1.3-3.5-4.2-3.5c-2,0-4,0.9-5.8,1.9l-1.5-2.8
			c2.1-1.3,5-2.5,8.1-2.5c4.9,0,7.6,2.7,7.6,7.6v10.5h-3.4l-0.3-2.2h-0.1c-1.9,1.4-4.2,2.6-6.6,2.6
			C147.8,650.9,145.3,648.7,145.3,645.7z M157.6,645.4v-3.7c-6.4,0.4-8.2,1.7-8.2,3.6c0,1.6,1.4,2.2,3.1,2.2
			C154.3,647.6,155.9,646.8,157.6,645.4z"/>
		<path class="st3" d="M167.4,632.7h3.4l0.3,2.7h0.1c1.7-1.7,3.7-3.1,6.4-3.1c4.1,0,5.9,2.6,5.9,7.2v11h-4.2V640
			c0-2.8-0.9-4.1-3.3-4.1c-1.7,0-2.9,0.8-4.5,2.5v12.1h-4.2V632.7z"/>
		<path class="st3" d="M188.6,641.6c0-5.9,4.6-9.3,10-9.3c2.8,0,5.1,1.1,6.5,2.5l-2,2.6c-1.4-1.1-2.8-1.7-4.4-1.7
			c-3.5,0-6,2.3-6,5.9c0,3.5,2.4,5.9,5.9,5.9c2,0,3.7-0.9,5-1.9l1.7,2.7c-2,1.8-4.6,2.7-7.1,2.7
			C192.9,650.9,188.6,647.5,188.6,641.6z"/>
		<path class="st3" d="M210.6,625h4.2v6.6l-0.2,3.8h0.1c1.5-1.7,3.5-3,6.2-3c4.1,0,5.9,2.6,5.9,7.2v11h-4.2V640
			c0-2.8-0.9-4.1-3.3-4.1c-1.7,0-2.9,0.8-4.5,2.5v12.1h-4.2V625z"/>
		<path class="st3" d="M232,637h16v3h-16V637z"/>
		<path class="st3" d="M254,647h6.4v-15h-5.1v-2.6c2.9-0.4,4.6-1,6.2-1.9h3.1V647h5.6v3.4H254V647z"/>
	</g>
</g>
<path class="st5" d="M1360,382H854c-19.3,0-35-15.7-35-35V99c0-19.3,15.7-35,35-35h506c19.3,0,35,15.7,35,35v248
	C1395,366.3,1379.3,382,1360,382z"/>
<g>
	<circle class="st6" cx="889.5" cy="214.5" r="25"/>
</g>
<path class="st7" d="M1395,151V99c0-19.3-15.7-35-35-35H854c-19.3,0-35,15.7-35,35v52H1395z"/>
<g>
	<path class="st3" d="M857.2,117.1l1.8-2.7c2.1,1.4,4.5,2.2,7.4,2.2c2.4,0,3.6-0.9,3.6-2.1c0-1.2-0.8-1.8-4.9-2.7
		c-4.7-1-6.8-2.7-6.8-5.3c0-3.1,2.8-5.3,7.7-5.3c2.9,0,5.6,1.1,7.4,2.3l-1.9,2.6c-1.7-1.1-3.8-1.8-5.9-1.8c-2.3,0-3.2,0.9-3.2,2
		c0,1.2,1.3,1.7,4.6,2.4c5.7,1.2,7.1,2.8,7.1,5.6c0,3-2.9,5.5-8.3,5.5C862.6,119.9,859.4,118.6,857.2,117.1z"/>
	<path class="st3" d="M883.4,112.3V105h-4.7v-3.1l4.9-0.2l0.5-5.5h3.4v5.5h8v3.3h-8v7.3c0,2.9,1.1,4.2,4.1,4.2
		c1.5,0,2.7-0.3,3.8-0.7l0.8,3c-1.6,0.5-3.4,1-5.7,1C885.3,119.9,883.4,116.8,883.4,112.3z"/>
	<path class="st3" d="M900.7,114.7c0-4,3.5-5.9,12.2-6.6c-0.1-2-1.3-3.5-4.2-3.5c-2,0-4,0.9-5.8,1.9l-1.5-2.8c2.1-1.3,5-2.5,8.1-2.5
		c4.9,0,7.6,2.7,7.6,7.6v10.5h-3.4l-0.3-2.2h-0.1c-1.9,1.4-4.2,2.6-6.6,2.6C903.2,119.9,900.7,117.7,900.7,114.7z M913,114.4v-3.7
		c-6.4,0.4-8.2,1.7-8.2,3.6c0,1.6,1.4,2.2,3.1,2.2C909.7,116.6,911.3,115.8,913,114.4z"/>
	<path class="st3" d="M922,117.1l1.8-2.7c2.1,1.4,4.5,2.2,7.4,2.2c2.4,0,3.6-0.9,3.6-2.1c0-1.2-0.8-1.8-4.9-2.7
		c-4.7-1-6.8-2.7-6.8-5.3c0-3.1,2.8-5.3,7.7-5.3c2.9,0,5.6,1.1,7.4,2.3l-1.9,2.6c-1.7-1.1-3.8-1.8-5.9-1.8c-2.3,0-3.2,0.9-3.2,2
		c0,1.2,1.3,1.7,4.6,2.4c5.7,1.2,7.1,2.8,7.1,5.6c0,3-2.9,5.5-8.3,5.5C927.4,119.9,924.2,118.6,922,117.1z"/>
	<path class="st3" d="M944.4,94h4.2v6.6l-0.2,3.8h0.1c1.5-1.7,3.5-3,6.2-3c4.1,0,5.9,2.6,5.9,7.2v11h-4.2V109c0-2.8-0.9-4.1-3.3-4.1
		c-1.7,0-2.9,0.8-4.5,2.5v12.1h-4.2V94z"/>
	<path class="st3" d="M992.7,113V97.3h-5.9V94h10.1v19.2c0,2.4,1.4,3.3,3.2,3.3c0.9,0,1.9-0.2,3-0.7l1,3.1c-1.7,0.6-2.9,1-5,1
		C994.9,119.9,992.7,117.3,992.7,113z"/>
	<path class="st3" d="M1016.9,105h-7.6v-3.3h11.8v17.7h-4.2V105z M1015.7,95.7c0-1.7,1.2-2.8,3-2.8s3,1.1,3,2.8c0,1.7-1.2,2.8-3,2.8
		S1015.7,97.4,1015.7,95.7z"/>
	<path class="st3" d="M1030,117.1l1.8-2.7c2.1,1.4,4.5,2.2,7.4,2.2c2.4,0,3.6-0.9,3.6-2.1c0-1.2-0.8-1.8-4.9-2.7
		c-4.7-1-6.8-2.7-6.8-5.3c0-3.1,2.8-5.3,7.7-5.3c2.9,0,5.6,1.1,7.4,2.3l-1.9,2.6c-1.7-1.1-3.8-1.8-5.9-1.8c-2.3,0-3.2,0.9-3.2,2
		c0,1.2,1.3,1.7,4.6,2.4c5.7,1.2,7.1,2.8,7.1,5.6c0,3-2.9,5.5-8.3,5.5C1035.4,119.9,1032.2,118.6,1030,117.1z"/>
	<path class="st3" d="M1056.2,112.3V105h-4.7v-3.1l4.9-0.2l0.5-5.5h3.4v5.5h8v3.3h-8v7.3c0,2.9,1.1,4.2,4.1,4.2
		c1.5,0,2.7-0.3,3.8-0.7l0.8,3c-1.6,0.5-3.4,1-5.7,1C1058.1,119.9,1056.2,116.8,1056.2,112.3z"/>
</g>
<g>
	<path class="st8" d="M948.2,224.1l1.8-2.7c2.1,1.4,4.5,2.2,7.4,2.2c2.4,0,3.6-0.9,3.6-2.1c0-1.2-0.8-1.8-4.9-2.7
		c-4.7-1-6.8-2.7-6.8-5.3c0-3.1,2.8-5.3,7.7-5.3c2.9,0,5.6,1.1,7.4,2.3l-1.9,2.6c-1.7-1.1-3.8-1.8-5.9-1.8c-2.3,0-3.2,0.9-3.2,2
		c0,1.2,1.3,1.7,4.6,2.4c5.7,1.2,7.1,2.8,7.1,5.6c0,3-2.9,5.5-8.3,5.5C953.6,226.9,950.4,225.6,948.2,224.1z"/>
	<path class="st8" d="M974.4,219.3V212h-4.7v-3.1l4.9-0.2l0.5-5.5h3.4v5.5h8v3.3h-8v7.3c0,2.9,1.1,4.2,4.1,4.2
		c1.5,0,2.7-0.3,3.8-0.7l0.8,3c-1.6,0.5-3.4,1-5.7,1C976.3,226.9,974.4,223.8,974.4,219.3z"/>
	<path class="st8" d="M991.7,221.7c0-4,3.5-5.9,12.2-6.6c-0.1-2-1.3-3.5-4.2-3.5c-2,0-4,0.9-5.8,1.9l-1.5-2.8c2.1-1.3,5-2.5,8.1-2.5
		c4.9,0,7.6,2.7,7.6,7.6v10.5h-3.4l-0.3-2.2h-0.1c-1.9,1.4-4.2,2.6-6.6,2.6C994.2,226.9,991.7,224.7,991.7,221.7z M1004,221.4v-3.7
		c-6.4,0.4-8.2,1.7-8.2,3.6c0,1.6,1.4,2.2,3.1,2.2C1000.7,223.6,1002.3,222.8,1004,221.4z"/>
	<path class="st8" d="M1013,224.1l1.8-2.7c2.1,1.4,4.5,2.2,7.4,2.2c2.4,0,3.6-0.9,3.6-2.1c0-1.2-0.8-1.8-4.9-2.7
		c-4.7-1-6.8-2.7-6.8-5.3c0-3.1,2.8-5.3,7.7-5.3c2.9,0,5.6,1.1,7.4,2.3l-1.9,2.6c-1.7-1.1-3.8-1.8-5.9-1.8c-2.3,0-3.2,0.9-3.2,2
		c0,1.2,1.3,1.7,4.6,2.4c5.7,1.2,7.1,2.8,7.1,5.6c0,3-2.9,5.5-8.3,5.5C1018.4,226.9,1015.2,225.6,1013,224.1z"/>
	<path class="st8" d="M1035.4,201h4.2v6.6l-0.2,3.8h0.1c1.5-1.7,3.5-3,6.2-3c4.1,0,5.9,2.6,5.9,7.2v11h-4.2V216
		c0-2.8-0.9-4.1-3.3-4.1c-1.7,0-2.9,0.8-4.5,2.5v12.1h-4.2V201z"/>
	<path class="st8" d="M1055.4,217.4c0-9.5,4.8-14,10.7-14c5.2,0,7.6,3.8,7.6,8.7v10.7h-2.3l-0.3-2h-0.1c-1,1.3-2.6,2.4-4.5,2.4
		c-2.6,0-4.6-2-4.6-4.9c0-3.8,3.4-5.4,9.2-6.2v-0.5c0-3.1-1.6-5.7-5-5.7c-3.8,0-7.6,3.6-7.6,11.5c0,7.6,3.7,11.6,8,11.6
		c2.1,0,3.5-0.5,4.9-1.5l1.3,2.1c-2,1.2-3.9,2-6.3,2C1060.5,231.7,1055.4,226.9,1055.4,217.4z M1070.6,218.7v-3.9
		c-4.1,0.6-5.7,1.6-5.7,3.5c0,1.4,0.9,2.2,2.4,2.2C1068.5,220.5,1069.6,219.8,1070.6,218.7z"/>
	<path class="st8" d="M1084.4,226.9c0-2.6,0.4-4.2,0.4-6.5c0-1.3-1-2.7-5.1-2.7v-2.5c4.1,0,5.1-1.4,5.1-2.7c0-2.3-0.4-4-0.4-6.5
		c0-3.8,2.1-5,6.7-5h2.5v2.3h-1.7c-3.3,0-4.1,0.7-4.1,2.9c0,2,0.2,4,0.2,6.2c0,2.5-0.9,3.6-3.4,4.1v0.1c2.5,0.4,3.4,1.5,3.4,4.1
		c0,2.3-0.2,4.1-0.2,6.2c0,2.2,0.7,2.9,4.1,2.9h1.7v2.3h-2.5C1086.5,231.9,1084.4,230.7,1084.4,226.9z"/>
	<path class="st8" d="M1099.5,214.9c0-7.7,3.3-11.8,8.5-11.8c5.2,0,8.5,4.1,8.5,11.8c0,7.7-3.3,12-8.5,12
		C1102.8,226.9,1099.5,222.6,1099.5,214.9z M1112.8,214.9c0-6.3-2-8.5-4.8-8.5s-4.8,2.3-4.8,8.5s2,8.7,4.8,8.7
		S1112.8,221.1,1112.8,214.9z M1105.5,214.7c0-1.6,1.1-2.6,2.5-2.6s2.5,1,2.5,2.6c0,1.6-1.1,2.6-2.5,2.6S1105.5,216.3,1105.5,214.7z
		"/>
	<path class="st8" d="M1122.5,229.6h1.7c3.3,0,4.1-0.7,4.1-2.9c0-2.1-0.2-3.9-0.2-6.2c0-2.5,0.9-3.6,3.4-4.1v-0.1
		c-2.5-0.4-3.4-1.5-3.4-4.1c0-2.2,0.2-4.2,0.2-6.2c0-2.2-0.7-2.9-4.1-2.9h-1.7v-2.3h2.5c4.6,0,6.7,1.2,6.7,5c0,2.5-0.3,4.3-0.3,6.5
		c0,1.3,1,2.7,5.1,2.7v2.5c-4.1,0-5.1,1.4-5.1,2.7c0,2.3,0.3,3.9,0.3,6.5c0,3.8-2.1,5-6.7,5h-2.5V229.6z"/>
</g>
<g>
	<g>
		<path class="st0" d="M632,495l-0.6-72.6c-0.2-62,50-112.4,112-112.4h14.8"/>
		<g>
			<polygon class="st9" points="750.4,336.9 797,310 750.4,283.1 			"/>
		</g>
	</g>
</g>
<g>
	<circle class="st10" cx="992" cy="533" r="53.5"/>
	<path class="st3" d="M992,483c27.6,0,50,22.4,50,50c0,27.6-22.4,50-50,50s-50-22.4-50-50C942,505.4,964.4,483,992,483 M992,476
		c-31.4,0-57,25.6-57,57s25.6,57,57,57s57-25.6,57-57S1023.4,476,992,476L992,476z"/>
</g>
<g>
	<circle class="st10" cx="1265" cy="533" r="53.5"/>
	<path class="st3" d="M1265,483c27.6,0,50,22.4,50,50s-22.4,50-50,50s-50-22.4-50-50S1237.4,483,1265,483 M1265,476
		c-31.4,0-57,25.6-57,57s25.6,57,57,57s57-25.6,57-57S1296.4,476,1265,476L1265,476z"/>
</g>
<g>
	<line class="st11" x1="63" y1="788" x2="532.5" y2="788"/>
</g>
<line class="st1" x1="532.5" y1="786.5" x2="1394.5" y2="786.5"/>
<g>
	<circle class="st6" cx="189" cy="786" r="54"/>
	<g>
		<path class="st3" d="M189,736c27.6,0,50,22.4,50,50s-22.4,50-50,50s-50-22.4-50-50S161.4,736,189,736 M189,728c-32,0-58,26-58,58
			s26,58,58,58s58-26,58-58S221,728,189,728L189,728z"/>
	</g>
</g>
<g>
	<circle class="st6" cx="526" cy="786" r="54"/>
	<g>
		<path class="st3" d="M526,736c27.6,0,50,22.4,50,50s-22.4,50-50,50c-27.6,0-50-22.4-50-50S498.4,736,526,736 M526,728
			c-32,0-58,26-58,58s26,58,58,58s58-26,58-58S558,728,526,728L526,728z"/>
	</g>
</g>
<g>
	<g>
		<path class="st11" d="M526,754l-0.5-312.5c0-132,73-224.5,203-224.5l30.3-0.4"/>
		<g>
			<polygon class="st8" points="751.3,243.6 797.5,216 750.5,189.8 			"/>
		</g>
	</g>
</g>
<g>
	<circle class="st2" cx="890" cy="308" r="25"/>
</g>
<g>
	<path class="st9" d="M948.7,317.6l1.8-2.7c2.1,1.4,4.5,2.2,7.4,2.2c2.4,0,3.6-0.9,3.6-2.1c0-1.2-0.8-1.8-4.9-2.7
		c-4.7-1-6.8-2.7-6.8-5.3c0-3.1,2.8-5.3,7.7-5.3c2.9,0,5.6,1.1,7.4,2.3l-1.9,2.6c-1.7-1.1-3.8-1.8-5.9-1.8c-2.3,0-3.2,0.9-3.2,2
		c0,1.2,1.3,1.7,4.6,2.4c5.7,1.2,7.1,2.8,7.1,5.6c0,3-2.9,5.5-8.3,5.5C954.1,320.4,950.9,319.1,948.7,317.6z"/>
	<path class="st9" d="M974.9,312.8v-7.3h-4.7v-3.1l4.9-0.2l0.5-5.5h3.4v5.5h8v3.3h-8v7.3c0,2.9,1.1,4.2,4.1,4.2
		c1.5,0,2.7-0.3,3.8-0.7l0.8,3c-1.6,0.5-3.4,1-5.7,1C976.8,320.4,974.9,317.3,974.9,312.8z"/>
	<path class="st9" d="M992.2,315.2c0-4,3.5-5.9,12.2-6.6c-0.1-2-1.3-3.5-4.2-3.5c-2,0-4,0.9-5.8,1.9l-1.5-2.8c2.1-1.3,5-2.5,8.1-2.5
		c4.9,0,7.6,2.7,7.6,7.6v10.5h-3.4l-0.3-2.2h-0.1c-1.9,1.4-4.2,2.6-6.6,2.6C994.7,320.4,992.2,318.2,992.2,315.2z M1004.5,314.9
		v-3.7c-6.4,0.4-8.2,1.7-8.2,3.6c0,1.6,1.4,2.2,3.1,2.2C1001.2,317.1,1002.8,316.3,1004.5,314.9z"/>
	<path class="st9" d="M1013.5,317.6l1.8-2.7c2.1,1.4,4.5,2.2,7.4,2.2c2.4,0,3.6-0.9,3.6-2.1c0-1.2-0.8-1.8-4.9-2.7
		c-4.7-1-6.8-2.7-6.8-5.3c0-3.1,2.8-5.3,7.7-5.3c2.9,0,5.6,1.1,7.4,2.3l-1.9,2.6c-1.7-1.1-3.8-1.8-5.9-1.8c-2.3,0-3.2,0.9-3.2,2
		c0,1.2,1.3,1.7,4.6,2.4c5.7,1.2,7.1,2.8,7.1,5.6c0,3-2.9,5.5-8.3,5.5C1018.9,320.4,1015.7,319.1,1013.5,317.6z"/>
	<path class="st9" d="M1035.9,294.5h4.2v6.6l-0.2,3.8h0.1c1.5-1.7,3.5-3,6.2-3c4.1,0,5.9,2.6,5.9,7.2v11h-4.2v-10.4
		c0-2.8-0.9-4.1-3.3-4.1c-1.7,0-2.9,0.8-4.5,2.5v12.1h-4.2V294.5z"/>
	<path class="st9" d="M1055.9,310.9c0-9.5,4.8-14,10.7-14c5.2,0,7.6,3.8,7.6,8.7v10.7h-2.3l-0.3-2h-0.1c-1,1.3-2.6,2.4-4.5,2.4
		c-2.6,0-4.6-2-4.6-4.9c0-3.8,3.4-5.4,9.2-6.2v-0.5c0-3.1-1.6-5.7-5-5.7c-3.8,0-7.6,3.6-7.6,11.5c0,7.6,3.7,11.6,8,11.6
		c2.1,0,3.5-0.5,4.9-1.5l1.3,2.1c-2,1.2-3.9,2-6.3,2C1061,325.2,1055.9,320.4,1055.9,310.9z M1071.1,312.2v-3.9
		c-4.1,0.6-5.7,1.6-5.7,3.5c0,1.4,0.9,2.2,2.4,2.2C1069,314,1070.1,313.3,1071.1,312.2z"/>
	<path class="st9" d="M1084.9,320.4c0-2.6,0.4-4.2,0.4-6.5c0-1.3-1-2.7-5.1-2.7v-2.5c4.1,0,5.1-1.4,5.1-2.7c0-2.3-0.4-4-0.4-6.5
		c0-3.8,2.1-5,6.7-5h2.5v2.3h-1.7c-3.3,0-4.1,0.7-4.1,2.9c0,2,0.2,4,0.2,6.2c0,2.5-0.9,3.6-3.4,4.1v0.1c2.5,0.4,3.4,1.5,3.4,4.1
		c0,2.3-0.2,4.1-0.2,6.2c0,2.2,0.7,2.9,4.1,2.9h1.7v2.3h-2.5C1087,325.4,1084.9,324.2,1084.9,320.4z"/>
	<path class="st9" d="M1100.9,316.5h6.4v-15h-5.1v-2.6c2.9-0.4,4.6-1,6.2-1.9h3.1v19.5h5.6v3.4h-16.1V316.5z"/>
	<path class="st9" d="M1123,323.1h1.7c3.3,0,4.1-0.7,4.1-2.9c0-2.1-0.2-3.9-0.2-6.2c0-2.5,0.9-3.6,3.4-4.1v-0.1
		c-2.5-0.4-3.4-1.5-3.4-4.1c0-2.2,0.2-4.2,0.2-6.2c0-2.2-0.7-2.9-4.1-2.9h-1.7v-2.3h2.5c4.6,0,6.7,1.2,6.7,5c0,2.5-0.3,4.3-0.3,6.5
		c0,1.3,1,2.7,5.1,2.7v2.5c-4.1,0-5.1,1.4-5.1,2.7c0,2.3,0.3,3.9,0.3,6.5c0,3.8-2.1,5-6.7,5h-2.5V323.1z"/>
</g>
<g>
	<circle class="st10" cx="865" cy="786" r="53.5"/>
	<path class="st3" d="M865,736c27.6,0,50,22.4,50,50s-22.4,50-50,50s-50-22.4-50-50S837.4,736,865,736 M865,729
		c-31.4,0-57,25.6-57,57s25.6,57,57,57s57-25.6,57-57S896.4,729,865,729L865,729z"/>
</g>
<g>
	<rect x="60" y="865" class="st12" width="251" height="50"/>
	<g>
		<path class="st3" d="M102.3,898.5h-0.1l-0.4,1.9h-3.3V875h4.2v6.6l-0.2,3.1h0.1c1.5-1.4,3.5-2.3,5.4-2.3c4.6,0,7.2,3.5,7.2,9
			c0,6.1-3.7,9.6-7.8,9.6C105.8,900.9,103.9,900,102.3,898.5z M111,891.3c0-3.5-1.2-5.6-4.1-5.6c-1.3,0-2.8,0.6-4.2,2.1v7.9
			c1.3,1.2,2.8,1.6,3.9,1.6C109.1,897.4,111,895.3,111,891.3z"/>
		<path class="st3" d="M121.9,882.7h3.4l0.4,4h0.1c1.8-2.9,4.5-4.5,7.5-4.5c1.4,0,2.4,0.2,3.4,0.7l-0.9,3.5
			c-1.2-0.4-1.9-0.5-3.2-0.5c-2.4,0-4.8,1.2-6.6,4.7v9.7h-4.2V882.7z"/>
		<path class="st3" d="M141.3,895.7c0-4,3.5-5.9,12.2-6.6c-0.1-2-1.3-3.5-4.2-3.5c-2,0-4,0.9-5.8,1.9l-1.5-2.8
			c2.1-1.3,5-2.5,8.1-2.5c4.9,0,7.6,2.7,7.6,7.6v10.5h-3.4l-0.3-2.2h-0.1c-1.9,1.4-4.2,2.6-6.6,2.6
			C143.8,900.9,141.3,898.7,141.3,895.7z M153.6,895.4v-3.7c-6.4,0.4-8.2,1.7-8.2,3.6c0,1.6,1.4,2.2,3.1,2.2
			C150.3,897.6,151.9,896.8,153.6,895.4z"/>
		<path class="st3" d="M163.4,882.7h3.4l0.3,2.7h0.1c1.7-1.7,3.7-3.1,6.4-3.1c4.1,0,5.9,2.6,5.9,7.2v11h-4.2V890
			c0-2.8-0.9-4.1-3.3-4.1c-1.7,0-2.9,0.8-4.5,2.5v12.1h-4.2V882.7z"/>
		<path class="st3" d="M184.6,891.6c0-5.9,4.6-9.3,10-9.3c2.8,0,5.1,1.1,6.5,2.5l-2,2.6c-1.4-1.1-2.8-1.7-4.4-1.7
			c-3.5,0-6,2.3-6,5.9c0,3.5,2.4,5.9,5.9,5.9c2,0,3.7-0.9,5-1.9l1.7,2.7c-2,1.8-4.6,2.7-7.1,2.7
			C188.9,900.9,184.6,897.5,184.6,891.6z"/>
		<path class="st3" d="M206.6,875h4.2v6.6l-0.2,3.8h0.1c1.5-1.7,3.5-3,6.2-3c4.1,0,5.9,2.6,5.9,7.2v11h-4.2V890
			c0-2.8-0.9-4.1-3.3-4.1c-1.7,0-2.9,0.8-4.5,2.5v12.1h-4.2V875z"/>
		<path class="st3" d="M228,887h16v3h-16V887z"/>
		<path class="st3" d="M249.1,898c7.2-6.2,11.5-10.1,11.5-13.7c0-2.4-1.5-3.9-4.4-3.9c-2,0-3.7,1.2-5,2.5l-2.3-2.3
			c2.2-2.2,4.5-3.6,7.9-3.6c4.7,0,7.8,2.8,7.8,7c0,4.1-4.1,8.3-9.5,13c1.4-0.1,2.9-0.2,4.2-0.2h6.5v3.5h-16.7V898z"/>
	</g>
</g>
</svg>
