<svg xmlns="http://www.w3.org/2000/svg" xml:space="preserve" viewBox="0 0 1600 668"><path fill="#222538" d="M0 0h1600v668H0z"/><path fill="none" d="m777.1 465-24.5-1.4.5 2.8c.9 5.4-.5 10.8-4 15-3.5 4.2-8.6 6.6-14.1 6.6l-98.1.1c-8.6 0-16-5.9-17.9-14.2l-2.9-12.4-22.7 5.3 6.4 27.3c2 8.5 9.8 14.5 18.5 14.2l145.3-4.5c5.5-.2 10.7-2.8 14-7.2s4.6-10 3.3-15.4l-3.8-16.2zM603.6 354.5l22 93.6 253.7 6-51.6-219.8-224.1 120.2zm184.7-58.6L674.2 358c-.9.5-1.9.7-2.9.7-2.2 0-4.3-1.2-5.4-3.2-1.6-3-.5-6.7 2.5-8.3l114.1-62.1c3-1.6 6.7-.5 8.3 2.5 1.6 3 .5 6.7-2.5 8.3z"/><path fill="none" d="M630.9 471.1c.7 2.8 3.1 4.7 6 4.7l98.1-.1c1.8 0 3.5-.8 4.7-2.2 1.2-1.4 1.7-3.2 1.3-5l-1-5.5-111.7-2.6 2.6 10.7zM877.4 209.4c-.1-.5-.4-.7-.7-.8-.3-.1-.6-.2-1.1 0l-36.7 19.7L892 454.4l41.5 1c.5 0 .8-.2.9-.5.2-.2.4-.6.2-1.1l-57.2-244.4zM591.9 358.7l-49 11.5c-4.6 1.1-7.5 5.7-6.4 10.3l17.4 74.1c.5 2.2 1.9 4.1 3.8 5.3 2 1.2 4.3 1.6 6.5 1.1l20.3-4.8 28.7-6.7-21.3-90.8z"/><path fill="#7ED93C" d="M889.4 206.6c-1-4.1-3.7-7.5-7.6-9.2-3.9-1.7-8.2-1.6-11.9.4L594.3 345.5l-54.2 12.7c-11.2 2.6-18.2 13.9-15.6 25.1l17.4 74.1c1.3 5.4 4.6 10 9.3 13 3.3 2.1 7.1 3.1 11 3.1 1.6 0 3.2-.2 4.8-.6l14.3-3.4 6.4 27.3c3.3 13.9 15.7 23.7 29.9 23.7h.9l145.3-4.5c9.2-.3 17.8-4.7 23.4-12 5.6-7.3 7.6-16.7 5.5-25.7l-3.3-14.1 95.1 2.3c.8.4 1.6.6 2.5.6.5 0 .9-.1 1.4-.2l.9-.3 43.8 1h.3c4.1 0 7.9-1.8 10.5-5 2.7-3.3 3.6-7.5 2.7-11.6l-57.2-244.4zM740.1 463.1l1 5.5c.3 1.8-.2 3.6-1.3 5-1.2 1.4-2.9 2.2-4.7 2.2l-98.1.1c-2.9 0-5.3-2-6-4.7l-2.5-10.6 111.6 2.5zm-155.5-6.8-20.3 4.8c-2.2.5-4.5.1-6.5-1.1-2-1.2-3.3-3.1-3.8-5.3l-17.4-74.1c-1.1-4.6 1.8-9.3 6.4-10.3l49-11.5 21.3 90.9-28.7 6.6zm193 40.3c-3.4 4.4-8.5 7-14 7.2l-145.3 4.5c-8.7.3-16.5-5.7-18.5-14.2l-6.4-27.3 22.7-5.3 2.9 12.4c2 8.4 9.3 14.2 17.9 14.2l98.1-.1c5.5 0 10.6-2.4 14.1-6.6 3.5-4.2 5-9.6 4-15l-.5-2.8 24.5 1.4 3.8 16.2c1.3 5.4.1 11-3.3 15.4zm-152-48.5-22-93.6 224.1-120.1 51.6 219.8-253.7-6.1zm308.9 6.8c-.2.2-.5.5-.9.5l-41.5-1L839 228.3l36.7-19.7c.4-.2.8-.2 1.1 0 .3.1.6.4.7.8l57.4 244.5c0 .5-.2.8-.4 1z"/><path fill="#7ED93C" d="m782.5 285.2-114.1 62.1c-3 1.6-4.1 5.4-2.5 8.3 1.1 2 3.2 3.2 5.4 3.2 1 0 2-.2 2.9-.7L788.3 296c3-1.6 4.1-5.4 2.5-8.3-1.6-3.1-5.4-4.2-8.3-2.5zM1002.7 148.2c-2.4-2.4-6.3-2.4-8.7 0l-53 53.5c-2.4 2.4-2.4 6.3 0 8.7 1.2 1.2 2.8 1.8 4.3 1.8 1.6 0 3.2-.6 4.4-1.8l53-53.5c2.4-2.4 2.4-6.3 0-8.7zM1048.6 240.7c-1.1-3.2-4.7-4.9-7.9-3.7l-70.8 25.4c-3.2 1.1-4.9 4.7-3.7 7.9.9 2.5 3.3 4.1 5.8 4.1.7 0 1.4-.1 2.1-.4l70.8-25.4c3.2-1.2 4.9-4.7 3.7-7.9zM1071.6 432.1l-72-21.7c-3.2-1-6.7.9-7.7 4.1-1 3.2.9 6.7 4.1 7.7l72 21.7c.6.2 1.2.3 1.8.3 2.6 0 5.1-1.7 5.9-4.4 1-3.2-.8-6.7-4.1-7.7zM995.1 353.6l74.7-8.7c3.4-.4 5.8-3.4 5.4-6.8-.4-3.4-3.4-5.8-6.8-5.4l-74.7 8.7c-3.4.4-5.8 3.4-5.4 6.8.4 3.1 3 5.4 6.1 5.4h.7z"/></svg>