<?xml version="1.0" encoding="utf-8"?>
<!-- Generator: Adobe Illustrator 24.3.0, SVG Export Plug-In . SVG Version: 6.00 Build 0)  -->
<svg version="1.1" id="Layer_1" xmlns="http://www.w3.org/2000/svg" xmlns:xlink="http://www.w3.org/1999/xlink" x="0px" y="0px"
	 viewBox="0 0 1366 768" style="enable-background:new 0 0 1366 768;" xml:space="preserve">
<style type="text/css">
	.st0{fill:#568399;stroke:#1D1D26;stroke-width:2;stroke-miterlimit:10;}
	.st1{fill:#6B99B5;stroke:#1D1D26;stroke-width:15;stroke-linecap:round;stroke-linejoin:round;stroke-miterlimit:10;}
	.st2{fill:none;stroke:#1D1D26;stroke-width:5;stroke-linecap:round;stroke-linejoin:round;stroke-miterlimit:10;}
	.st3{fill:#9BC0E0;stroke:#1D1D26;stroke-width:15;stroke-linecap:round;stroke-linejoin:round;stroke-miterlimit:10;}
	.st4{fill:#9BC0E0;stroke:#1D1D26;stroke-width:12;stroke-linecap:round;stroke-linejoin:round;stroke-miterlimit:10;}
	.st5{fill:#D9D9E2;stroke:#1D1D26;stroke-width:12;stroke-linecap:round;stroke-linejoin:round;stroke-miterlimit:10;}
	.st6{fill:#FF1493;stroke:#1D1D26;stroke-width:12;stroke-linecap:round;stroke-linejoin:round;stroke-miterlimit:10;}
	.st7{fill:#6B99B5;stroke:#1D1D26;stroke-width:12;stroke-linecap:round;stroke-linejoin:round;stroke-miterlimit:10;}
	.st8{fill:#9BC0E0;stroke:#1D1D26;stroke-width:8;stroke-linecap:round;stroke-linejoin:round;stroke-miterlimit:10;}
	.st9{fill:none;stroke:#1D1D26;stroke-width:8;stroke-linecap:round;stroke-linejoin:round;stroke-miterlimit:10;}
	.st10{fill:#D9D9E2;stroke:#1D1D26;stroke-width:8;stroke-linecap:round;stroke-linejoin:round;stroke-miterlimit:10;}
	.st11{fill:#FF1493;stroke:#1D1D26;stroke-width:8;stroke-linecap:round;stroke-linejoin:round;stroke-miterlimit:10;}
	.st12{fill:#6B99B5;stroke:#1D1D26;stroke-width:8;stroke-linecap:round;stroke-linejoin:round;stroke-miterlimit:10;}
</style>
<g id="Layer_1_1_">
	<rect x="-13.7" y="-7.9" class="st0" width="1393.4" height="783.8"/>
	<path class="st1" d="M1075.5,609.5H162.1c-16,0-29-13-29-29V99.6c0-16,13-29,29-29h913.4c16,0,29,13,29,29v480.9
		C1104.5,596.5,1091.5,609.5,1075.5,609.5z"/>
</g>
<g id="Layer_2_1_">
	<g>
		<g>
			<path class="st1" d="M1203.9,697.4H290.5c-16,0-29-13-29-29V187.5c0-16,13-29,29-29h913.4c16,0,29,13,29,29v480.9
				C1232.9,684.4,1219.9,697.4,1203.9,697.4z"/>
			<g>
				<circle class="st2" cx="305.4" cy="190.6" r="11.4"/>
				<circle class="st2" cx="347.2" cy="190.6" r="11.4"/>
				<circle class="st2" cx="388.9" cy="190.6" r="11.4"/>
			</g>
		</g>
		<path class="st3" d="M261.5,221v447.4c0,16,13,29,29,29h913.4c16,0,29-13,29-29V221H261.5z"/>
		<rect x="261.5" y="221" class="st4" width="485.7" height="238.2"/>
		<rect x="747.2" y="221" class="st5" width="485.7" height="238.2"/>
		<path class="st6" d="M747.2,697.4H290.5c-16,0-29-13-29-29V459.2h485.7V697.4z"/>
		<path class="st7" d="M1203.9,697.4H747.2V459.2h485.7v209.2C1232.9,684.4,1219.9,697.4,1203.9,697.4z"/>
		<path class="st8" d="M586.4,456.9H422.3v-20.5c0-42.6,34.5-77.1,77.1-77.1h9.3c42.9,0,77.8,34.8,77.8,77.8L586.4,456.9
			L586.4,456.9z"/>
		<circle class="st8" cx="507.7" cy="333.1" r="53"/>
		<line class="st9" x1="420.1" y1="302" x2="558.7" y2="347.6"/>
		<path class="st2" d="M486.9,356.9c0,7.9,8.1,14.3,18.2,14.3"/>
		<rect x="908.3" y="313.1" class="st10" width="105.9" height="95"/>
		<path class="st10" d="M1038.7,456.9H883.9v-20.5c0-42.6,34.5-77.1,77.1-77.1l0,0c42.9,0,77.8,34.8,77.8,77.8v19.8H1038.7z"/>
		<circle class="st10" cx="961.3" cy="313.1" r="53"/>
		<path class="st9" d="M920.9,278.8c0,25.9,41.1,46.8,91.9,46.8"/>
		<path class="st9" d="M938.1,306.1c0,13.2-12.1,23.8-27,23.8"/>
		<ellipse class="st2" cx="963.4" cy="348.5" rx="11.1" ry="5.7"/>
		<path class="st9" d="M591.2,697.4H436.4v-20.5c0-42.6,34.5-77.1,77.1-77.1l0,0c42.9,0,77.8,34.8,77.8,77.8L591.2,697.4
			L591.2,697.4z"/>
		<path class="st11" d="M513.8,595.1c-9.7,10.2-23.4,16.6-38.5,16.6c-29.3,0-53-23.7-53-53c0-7.8,1.7-15.3,4.7-21.9"/>
		<polygon class="st9" points="319.9,697.4 324,648.6 335.7,673 383.7,673 395.4,649.9 402.1,697.4 		"/>
		<path class="st2" d="M461.6,599.6c10.4,4.4,22.6-1,27.3-12"/>
		<path class="st9" d="M427,536.8c0,0,11.9,23.6,53.2,13.8c0,0,10.5,23.4,29.3,15.8c0,0-10.5,18,4.3,28.7"/>
		<path class="st9" d="M427,536.8c0,0-4.7-24.5,18.2-31c0,0,9-24.2,34.9-14.8c0,0,21.8-12,31.2,8.3c0,0,24-7.9,29.3,16.1
			c0,0,24,11.3,9.8,34.9c0,0,10.9,17.6-1.9,31.9c0,0,9.8,17.7-3.2,24.4"/>
		<path class="st9" d="M424.1,534.6c0,0-19.1,6.4-15.7,26.1c0,0-11,22.6,4,34.3c0,0-6.5,15.9,9.9,23.2c0,0-2.1,10.5,9.9,17.7
			c0,0,0.1,10,11.4,8.3"/>
		<path class="st12" d="M1051.9,697.4H875c-3.5,0-6.4-2.9-6.4-6.4v-25.3c0-49.1,39.8-88.9,88.9-88.9h11.3
			c49.5,0,89.6,40.1,89.6,89.6V691C1058.3,694.5,1055.4,697.4,1051.9,697.4z"/>
		<circle class="st12" cx="963.4" cy="547" r="59.6"/>
		<path class="st12" d="M907.3,567.1l20.3-47.2c0,0,28.5,17.7,69.7,0l22.2,47.2"/>
		<path class="st2" d="M963.4,592.1c14.7,0,26.6-9.1,26.6-20.3h-53.2C936.8,583,948.7,592.1,963.4,592.1z"/>
	</g>
</g>
</svg>
