<svg xmlns="http://www.w3.org/2000/svg" viewBox="0 0 1366 768"><path fill="#FFF" d="M0 0h1366v768H0z"/><g data-name="artboard 3"><path fill="#cfd9ff" d="M574.92 122.88l6.75 58.52 83.29-58.52h85.54l-13.51 105.8-144.06 24.76 49.52 74.28-24.76 96.79-95.17 73.17v148.31l-52.1-81.76V383.6l52.1-49.44-50-47.53L470.25 124l104.67-1.12z"/><path fill="#3976b2" d="M522.52 649.49a3.5 3.5 0 01-2.95-1.62l-52.1-81.76a3.49 3.49 0 01-.55-1.88V383.6a3.53 3.53 0 011.09-2.54l49.43-46.9-47.33-45a3.47 3.47 0 01-1.09-2.49l-2.27-162.63a3.52 3.52 0 011-2.49 3.47 3.47 0 012.46-1.06l104.67-1.12a3.5 3.5 0 013.48 3.1l6.08 52.68L663 120a3.52 3.52 0 012-.63h85.5a3.51 3.51 0 013.47 3.94l-13.51 105.8a3.49 3.49 0 01-2.88 3L598.83 256l46.53 69.81a3.46 3.46 0 01.48 2.8l-24.76 96.8a3.44 3.44 0 01-1.26 1.9L526 499.4V646a3.51 3.51 0 01-2.52 3.36 3.74 3.74 0 01-.96.13zm-48.6-86.28L519 634V497.68a3.48 3.48 0 011.36-2.77l94.22-72.44 24.07-94.11-48.65-73a3.49 3.49 0 012.32-5.39l141.51-24.33 12.67-99.28h-80.43l-82.38 57.89a3.5 3.5 0 01-5.49-2.46l-6.39-55.4-98 1.06L476 285.11l48.93 46.52a3.49 3.49 0 010 5.07l-51 48.4z"/><path fill="#ff1493" d="M471.38 662H1006V120H689.65" opacity=".45"/><path d="M138.55 285.54h15.27v4.54h-15.27zm18.07 0h15.27v4.54h-15.27zM190.19 293.2a2 2 0 00.65 1.67 2.94 2.94 0 001.88.53 7.39 7.39 0 002.77-.59l1.4 3.89a12 12 0 01-5.67 1.3 6.45 6.45 0 01-5.16-2 8.21 8.21 0 01-1.71-5.53V276h-5.77v-4h11.61zM219.87 295v4.41h-16.63V295h6.17v-15.48l-5.27 3.29-2.47-4 8.25-5h5.17V295zM229.39 278.47a3.94 3.94 0 011.42-1.42 3.72 3.72 0 011.95-.54 3.66 3.66 0 011.94.54 3.89 3.89 0 011.4 1.42 3.8 3.8 0 010 3.84 3.86 3.86 0 01-1.4 1.41 3.75 3.75 0 01-1.94.53 3.81 3.81 0 01-1.95-.53 3.92 3.92 0 01-1.42-1.41 3.74 3.74 0 010-3.84zm0 12.77a3.92 3.92 0 013.37-1.92 3.85 3.85 0 013.34 1.92 3.73 3.73 0 01.52 1.91 3.92 3.92 0 01-1.92 3.36 3.65 3.65 0 01-1.94.53 3.71 3.71 0 01-1.95-.53 3.87 3.87 0 01-1.42-1.42 3.75 3.75 0 01-.53-1.94 3.64 3.64 0 01.53-1.91zM221.24 317.91a9.43 9.43 0 013.11 4.58 25.76 25.76 0 010 14.49 9.55 9.55 0 01-3.11 4.62 8.93 8.93 0 01-10.2 0 9.55 9.55 0 01-3.11-4.62 26 26 0 010-14.49 9.42 9.42 0 013.1-4.58 9 9 0 0110.21 0zm-7.24 3.56a6.22 6.22 0 00-1.21 2.93 28.1 28.1 0 00-.4 5.32 46.62 46.62 0 00.22 5.13l6.24-13.05a2.29 2.29 0 00-1.07-1 4 4 0 00-1.62-.28 2.8 2.8 0 00-2.16.95zm4.3 16.62a6.09 6.09 0 001.2-2.93 30 30 0 00.39-5.44c0-1.26 0-2.45-.1-3.58l-5.89 12.16a2.41 2.41 0 001 .53 5 5 0 001.31.16 2.75 2.75 0 002.08-.9zM266.31 326.41a6.9 6.9 0 012.58 2.92 10.22 10.22 0 01.94 4.56 9.92 9.92 0 01-1.12 4.71 8.42 8.42 0 01-3.18 3.36 9.18 9.18 0 01-4.78 1.24 8.63 8.63 0 01-5.38-1.63 9.34 9.34 0 01-3.14-4.37 18.06 18.06 0 01-1-6.21 20.28 20.28 0 011.34-7.62 11.68 11.68 0 013.85-5.18 9.64 9.64 0 015.91-1.86 9.49 9.49 0 015.55 1.65l-2.21 3.54a5.66 5.66 0 00-3.23-1 4 4 0 00-2.51.84 5.86 5.86 0 00-1.8 2.47 11.91 11.91 0 00-.83 3.94 7.56 7.56 0 012.53-1.73 7.28 7.28 0 012.85-.59 6.88 6.88 0 013.63.96zm-3.12 11.27a6.59 6.59 0 00.81-3.46 7 7 0 00-.72-3.65 2.37 2.37 0 00-2.13-1.13 4.46 4.46 0 00-2 .51 6 6 0 00-1.82 1.45 25 25 0 00.38 4.3 5.25 5.25 0 001.1 2.49 2.63 2.63 0 002.05.83 2.57 2.57 0 002.33-1.34zM287.7 317.91a9.43 9.43 0 013.11 4.58 25.76 25.76 0 010 14.49 9.55 9.55 0 01-3.11 4.62 8.93 8.93 0 01-10.2 0 9.55 9.55 0 01-3.11-4.62 26 26 0 010-14.49 9.42 9.42 0 013.1-4.58 9 9 0 0110.21 0zm-7.25 3.56a6.22 6.22 0 00-1.21 2.93 28.1 28.1 0 00-.4 5.32 46.62 46.62 0 00.22 5.13l6.24-13.05a2.29 2.29 0 00-1.07-1 4 4 0 00-1.62-.28 2.8 2.8 0 00-2.16.95zm4.3 16.62a6.09 6.09 0 001.2-2.93 30.16 30.16 0 00.38-5.44c0-1.26 0-2.45-.09-3.58l-5.89 12.16a2.41 2.41 0 00.95.53 5 5 0 001.31.16 2.75 2.75 0 002.14-.9zM301.9 317a4.71 4.71 0 011.81 2 7.81 7.81 0 010 6.1 4.66 4.66 0 01-1.81 2 6 6 0 01-5.64 0 4.56 4.56 0 01-1.82-2 7.55 7.55 0 010-6 4.76 4.76 0 011.83-2.06 5.29 5.29 0 012.82-.74 5.41 5.41 0 012.81.7zm10.59.38l-12.61 26.22-3.08-1.29 12.57-26.22zm-14.57 2.5a6 6 0 00-.31 2.21 5.28 5.28 0 00.34 2.16 1.29 1.29 0 002.31 0 8.14 8.14 0 000-4.45 1.33 1.33 0 00-2.34 0zm15.31 12a4.68 4.68 0 011.81 2 7 7 0 01.63 3.07 6.91 6.91 0 01-.63 3 4.71 4.71 0 01-1.81 2 5.37 5.37 0 01-2.8.71 5.49 5.49 0 01-2.84-.71 4.73 4.73 0 01-1.82-2 7.66 7.66 0 010-6 4.76 4.76 0 011.83-1.95 5.3 5.3 0 012.83-.74 5.37 5.37 0 012.8.68zm-4 2.87A6.13 6.13 0 00309 337a5.49 5.49 0 00.33 2.16 1.29 1.29 0 002.32 0 8.4 8.4 0 000-4.45 1.33 1.33 0 00-2.35 0zM329 335.49a3.83 3.83 0 011.44 1.44 4 4 0 01.53 2 6 6 0 01-.33 2c-.21.65-.63 1.69-1.26 3.11l-2.68 6h-3.88l1.89-7.84a3.47 3.47 0 01-1.3-1.39 4.12 4.12 0 01-.46-1.92 3.93 3.93 0 012-3.44 4 4 0 012-.53 4.08 4.08 0 012.05.57zM223.44 364.35h-9.36v5.52a7.9 7.9 0 011.87-.62 9.89 9.89 0 011.91-.19 6.72 6.72 0 013.63 1 7.08 7.08 0 012.59 2.89 9.57 9.57 0 011 4.4 8.55 8.55 0 01-4.81 7.85 12.14 12.14 0 01-10.09.16 10.09 10.09 0 01-3.63-2.81l3.36-3.06a6.2 6.2 0 002.11 1.8 5.59 5.59 0 002.56.62 4.71 4.71 0 002.36-.57 3.89 3.89 0 001.57-1.57 4.81 4.81 0 00.56-2.33 5 5 0 00-.92-3.32 3.19 3.19 0 00-2.54-1.06 6.5 6.5 0 00-3.14.85h-3.97v-13.73h15.58zM235.44 360.24a4.71 4.71 0 011.81 2 7.81 7.81 0 010 6.1 4.66 4.66 0 01-1.81 2 6 6 0 01-5.64 0 4.56 4.56 0 01-1.82-2 7.55 7.55 0 010-6 4.76 4.76 0 011.83-2.06 5.29 5.29 0 012.82-.74 5.41 5.41 0 012.81.7zm10.59.38l-12.61 26.22-3.08-1.29 12.57-26.22zm-14.57 2.5a6 6 0 00-.31 2.21 5.28 5.28 0 00.34 2.16 1.16 1.16 0 001.14.74 1.15 1.15 0 001.17-.7 5.73 5.73 0 00.31-2.2 5.82 5.82 0 00-.31-2.25 1.33 1.33 0 00-2.34 0zm15.31 12a4.68 4.68 0 011.81 2 7 7 0 01.63 3.07 6.91 6.91 0 01-.63 3 4.71 4.71 0 01-1.81 2 5.37 5.37 0 01-2.8.71 5.49 5.49 0 01-2.84-.71 4.73 4.73 0 01-1.82-2 7.66 7.66 0 010-6 4.76 4.76 0 011.83-2.06 5.3 5.3 0 012.83-.74 5.37 5.37 0 012.8.75zm-4 2.87a6.13 6.13 0 00-.3 2.22 5.49 5.49 0 00.33 2.16 1.29 1.29 0 002.32 0 8.4 8.4 0 000-4.45 1.33 1.33 0 00-2.35 0zM289.9 364.35h-9.36v5.52a7.9 7.9 0 011.87-.62 9.89 9.89 0 011.91-.19 6.72 6.72 0 013.63 1 7.08 7.08 0 012.59 2.89 9.57 9.57 0 011 4.4 8.55 8.55 0 01-4.81 7.85 12.14 12.14 0 01-10.09.16 10.09 10.09 0 01-3.63-2.81l3.36-3.06a6.2 6.2 0 002.11 1.8 5.59 5.59 0 002.56.62 4.71 4.71 0 002.36-.57 3.89 3.89 0 001.57-1.57 4.81 4.81 0 00.56-2.33 5 5 0 00-.92-3.32 3.19 3.19 0 00-2.54-1.06 6.5 6.5 0 00-3.14.85H275v-13.73h15.58zM309.85 361.11a9.43 9.43 0 013.11 4.58 25.52 25.52 0 010 14.49 9.55 9.55 0 01-3.11 4.62 8.08 8.08 0 01-5.09 1.6 8.18 8.18 0 01-5.11-1.6 9.55 9.55 0 01-3.11-4.62 26 26 0 010-14.49 9.48 9.48 0 013.1-4.58 8.22 8.22 0 015.12-1.58 8.13 8.13 0 015.09 1.58zm-7.24 3.56a6.12 6.12 0 00-1.22 2.93 28.1 28.1 0 00-.4 5.32 49.27 49.27 0 00.22 5.13l6.24-13.05a2.29 2.29 0 00-1.07-1 4 4 0 00-1.62-.28 2.78 2.78 0 00-2.15.95zm4.29 16.62a6.09 6.09 0 001.2-2.93 30 30 0 00.39-5.44c0-1.26 0-2.45-.09-3.58l-5.89 12.16a2.34 2.34 0 00.95.53 4.86 4.86 0 001.3.16 2.75 2.75 0 002.14-.9zM324.05 360.24a4.65 4.65 0 011.81 2 7.7 7.7 0 010 6.1 4.6 4.6 0 01-1.81 2 5.38 5.38 0 01-2.81.71 5.45 5.45 0 01-2.83-.71 4.62 4.62 0 01-1.82-2 7.55 7.55 0 010-6 4.76 4.76 0 011.83-2.06 5.29 5.29 0 012.82-.74 5.38 5.38 0 012.81.7zm10.6.38L322 386.84l-3-1.29 12.57-26.22zm-14.58 2.5a6.07 6.07 0 00-.3 2.21 5.49 5.49 0 00.33 2.16 1.29 1.29 0 002.32 0 6 6 0 00.3-2.2 6.06 6.06 0 00-.3-2.25 1.34 1.34 0 00-2.35 0zm15.32 12a4.74 4.74 0 011.81 2 7.19 7.19 0 01.62 3.07 7.05 7.05 0 01-.62 3 4.77 4.77 0 01-1.81 2 6 6 0 01-5.64 0 4.67 4.67 0 01-1.82-2 7.55 7.55 0 010-6 4.8 4.8 0 011.82-2.06 5.33 5.33 0 012.83-.74 5.41 5.41 0 012.81.75zm-4 2.87a5.88 5.88 0 00-.31 2.22 5.49 5.49 0 00.33 2.16 1.18 1.18 0 001.15.74 1.16 1.16 0 001.17-.7 8.14 8.14 0 000-4.45 1.32 1.32 0 00-2.34 0zM351.12 378.69a3.83 3.83 0 011.44 1.44 4 4 0 01.53 2 6.29 6.29 0 01-.32 2c-.22.65-.64 1.69-1.27 3.11l-2.67 6H345l1.88-7.84a3.47 3.47 0 01-1.3-1.39 4.12 4.12 0 01-.45-1.92 3.9 3.9 0 011.95-3.44 4.21 4.21 0 014.09 0zM221.24 404.31a9.43 9.43 0 013.11 4.58 25.76 25.76 0 010 14.49 9.6 9.6 0 01-3.11 4.62 9 9 0 01-10.2 0 9.6 9.6 0 01-3.11-4.62 26 26 0 010-14.49 9.42 9.42 0 013.1-4.58 9 9 0 0110.21 0zm-7.24 3.56a6.22 6.22 0 00-1.21 2.93 28.1 28.1 0 00-.4 5.32 46.62 46.62 0 00.22 5.13l6.24-13.05a2.29 2.29 0 00-1.07-1 4 4 0 00-1.62-.28 2.8 2.8 0 00-2.16.95zm4.3 16.62a6.09 6.09 0 001.2-2.93 30.09 30.09 0 00.39-5.44c0-1.26 0-2.45-.1-3.58l-5.89 12.16a2.41 2.41 0 001 .53 5 5 0 001.31.16 2.75 2.75 0 002.08-.9zM269.81 423.59h-2.56V429h-5.6v-5.38H251v-3.87l7.11-17 5 1.83-6 14.66h4.59l.69-6.17h4.93v6.17h2.56zM287.7 404.31a9.43 9.43 0 013.11 4.58 25.76 25.76 0 010 14.49 9.6 9.6 0 01-3.11 4.62 9 9 0 01-10.2 0 9.6 9.6 0 01-3.11-4.62 26 26 0 010-14.49 9.42 9.42 0 013.1-4.58 9 9 0 0110.21 0zm-7.25 3.56a6.22 6.22 0 00-1.21 2.93 28.1 28.1 0 00-.4 5.32 46.62 46.62 0 00.22 5.13l6.24-13.05a2.29 2.29 0 00-1.07-1 4 4 0 00-1.62-.28 2.8 2.8 0 00-2.16.95zm4.3 16.62a6.09 6.09 0 001.2-2.93 30.24 30.24 0 00.38-5.44c0-1.26 0-2.45-.09-3.58l-5.89 12.16a2.41 2.41 0 00.95.53 5 5 0 001.31.16 2.75 2.75 0 002.14-.9zM301.9 403.44a4.74 4.74 0 011.81 2 7.19 7.19 0 01.62 3.07 7.05 7.05 0 01-.62 3 4.71 4.71 0 01-1.81 2 6 6 0 01-5.64 0 4.61 4.61 0 01-1.82-2 7.55 7.55 0 010-6 4.76 4.76 0 011.83-2.06 5.29 5.29 0 012.82-.74 5.41 5.41 0 012.81.73zm10.59.38L299.88 430l-3.08-1.29 12.57-26.22zm-14.57 2.49a6.09 6.09 0 00-.31 2.22 5.28 5.28 0 00.34 2.16 1.29 1.29 0 002.31 0 8.14 8.14 0 000-4.45 1.32 1.32 0 00-2.34 0zm15.31 12a4.68 4.68 0 011.81 2 7 7 0 01.63 3.07 6.86 6.86 0 01-.63 3 4.68 4.68 0 01-1.81 2 5.37 5.37 0 01-2.8.71 5.49 5.49 0 01-2.84-.71 4.7 4.7 0 01-1.82-2 7.64 7.64 0 010-6 4.76 4.76 0 011.83-2.06 5.3 5.3 0 012.83-.74 5.37 5.37 0 012.8.76zm-4 2.87a6.13 6.13 0 00-.3 2.22 5.49 5.49 0 00.33 2.16 1.29 1.29 0 002.32 0 5.91 5.91 0 00.3-2.19 6 6 0 00-.3-2.25 1.33 1.33 0 00-2.35 0zM328.88 422.19a3.66 3.66 0 011.38 1.38 3.82 3.82 0 01.51 2 5.86 5.86 0 01-.33 1.91q-.33 1-1.2 3l-2.57 5.82h-3.76l1.8-7.57a3.45 3.45 0 01-1.25-1.35 3.79 3.79 0 01-.44-1.84 3.7 3.7 0 011.92-3.31 4.13 4.13 0 013.94 0zm0-12.59a4 4 0 011.4 1.42 3.8 3.8 0 010 3.84 3.86 3.86 0 01-1.4 1.41 3.75 3.75 0 01-1.94.53 3.81 3.81 0 01-2-.53 4 4 0 01-1.42-1.41 3.8 3.8 0 010-3.84 4.11 4.11 0 011.48-1.42 3.71 3.71 0 012-.53 3.65 3.65 0 011.85.53z"/><path fill="#ff1493" d="M475 304a18 18 0 1118-18 18 18 0 01-18 18zm0-33a15 15 0 1015 15 15 15 0 00-15-15zM521 353a18 18 0 1118-18 18 18 0 01-18 18zm0-33a15 15 0 1015 15 15 15 0 00-15-15zM470 402a18 18 0 1118-18 18 18 0 01-18 18zm0-33a15 15 0 1015 15 15 15 0 00-15-15z"/></g></svg>