<svg xmlns="http://www.w3.org/2000/svg" viewBox="0 0 1366 768"><path d="M1030.6 494.2c-.5.4-1.2.8-1.9 1s-1.6.3-2.4.3c-2.1 0-3.7-.6-4.9-1.7-1.2-1.1-1.7-2.7-1.7-4.8v-9.3h-3.2v-3.6h3.2v-4.4h4.5v4.4h5.1v3.6h-5.1v9.1c0 .9.2 1.7.7 2.1.5.5 1.1.7 2 .7 1 0 1.8-.3 2.5-.8l1.2 3.4zM1045.5 475.8v4.3c-.4-.1-.7-.1-1-.1-1.8 0-3.1.5-4.1 1.5-1 1-1.5 2.5-1.5 4.4v9.3h-4.5V476h4.3v2.8c1.2-2 3.5-3 6.8-3zM1063 477.8c1.5 1.4 2.2 3.4 2.2 6.1v11.3h-4.2v-2.3c-.6.8-1.3 1.5-2.4 1.9-1 .4-2.2.7-3.7.7s-2.7-.2-3.8-.7c-1.1-.5-1.9-1.2-2.5-2.1s-.9-1.9-.9-3c0-1.7.6-3.1 1.9-4.2s3.3-1.6 6.1-1.6h5v-.3c0-1.3-.4-2.4-1.2-3.1s-2-1.1-3.6-1.1c-1.1 0-2.1.2-3.2.5-1 .3-1.9.8-2.6 1.4l-1.8-3.3c1-.8 2.2-1.4 3.6-1.8s2.9-.6 4.5-.6c3 .2 5.1.9 6.6 2.2zm-4.1 13.6c.9-.5 1.5-1.3 1.9-2.2V487h-4.6c-2.6 0-3.9.9-3.9 2.6 0 .8.3 1.5 1 1.9.6.5 1.5.7 2.7.7 1 0 2-.3 2.9-.8zM1087.8 477.9c1.5 1.4 2.2 3.5 2.2 6.3v11h-4.5v-10.4c0-1.7-.4-2.9-1.2-3.8-.8-.9-1.9-1.3-3.4-1.3-1.7 0-3 .5-3.9 1.5-1 1-1.4 2.4-1.4 4.3v9.7h-4.5V476h4.3v2.5c.7-.9 1.7-1.6 2.8-2 1.1-.5 2.4-.7 3.8-.7 2.4 0 4.3.7 5.8 2.1zM1097.1 494.9c-1.5-.4-2.7-.9-3.6-1.5l1.7-3.4c.9.6 1.9 1 3.1 1.4 1.2.3 2.4.5 3.6.5 2.7 0 4-.7 4-2.1 0-.7-.3-1.1-1-1.4-.7-.3-1.8-.5-3.3-.8-1.6-.2-2.9-.5-3.9-.8-1-.3-1.9-.9-2.6-1.6-.7-.8-1.1-1.9-1.1-3.3 0-1.8.8-3.3 2.3-4.4 1.5-1.1 3.6-1.6 6.2-1.6 1.3 0 2.6.2 4 .5 1.3.3 2.4.7 3.2 1.2l-1.7 3.4c-1.6-1-3.5-1.4-5.5-1.4-1.3 0-2.3.2-3 .6-.7.4-1 .9-1 1.6 0 .7.4 1.2 1.1 1.5.7.3 1.9.6 3.4.8 1.5.2 2.8.5 3.8.8 1 .3 1.8.8 2.5 1.6.7.7 1.1 1.8 1.1 3.2 0 1.8-.8 3.2-2.3 4.3-1.6 1.1-3.7 1.6-6.4 1.6-1.6-.1-3.1-.3-4.6-.7zM1119.2 475v1.2h5.3v3.6h-5.1v15.5h-4.5v-15.5h-3.2v-3.6h3.2V475c0-2.1.6-3.7 1.8-4.9 1.2-1.2 2.9-1.8 5.1-1.8 1.7 0 3.1.3 4.1 1l-1.3 3.4c-.8-.5-1.6-.8-2.5-.8-1.9 0-2.9 1-2.9 3.1zM1130.6 494.2c-1.6-.8-2.8-2-3.7-3.5-.9-1.5-1.3-3.2-1.3-5.1 0-1.9.4-3.6 1.3-5.1.9-1.5 2.1-2.7 3.7-3.5 1.6-.8 3.3-1.3 5.3-1.3s3.7.4 5.3 1.3c1.6.8 2.8 2 3.7 3.5.9 1.5 1.3 3.2 1.3 5.1 0 1.9-.4 3.6-1.3 5.1-.9 1.5-2.1 2.7-3.7 3.5s-3.3 1.3-5.3 1.3-3.7-.4-5.3-1.3zm9.4-4.2c1.1-1.1 1.6-2.6 1.6-4.4s-.5-3.3-1.6-4.4c-1.1-1.1-2.4-1.7-4.1-1.7s-3 .6-4.1 1.7c-1.1 1.1-1.6 2.6-1.6 4.4s.5 3.3 1.6 4.4c1.1 1.1 2.4 1.7 4.1 1.7s3-.6 4.1-1.7zM1161.6 475.8v4.3c-.4-.1-.7-.1-1-.1-1.8 0-3.1.5-4.1 1.5-1 1-1.5 2.5-1.5 4.4v9.3h-4.5V476h4.3v2.8c1.2-2 3.5-3 6.8-3zM1195.4 477.9c1.4 1.4 2.1 3.5 2.1 6.3v11h-4.5v-10.4c0-1.7-.4-2.9-1.1-3.8-.7-.9-1.8-1.3-3.2-1.3-1.5 0-2.7.5-3.6 1.5-.9 1-1.4 2.4-1.4 4.3v9.8h-4.5v-10.4c0-1.7-.4-2.9-1.1-3.8-.7-.9-1.8-1.3-3.2-1.3-1.5 0-2.8.5-3.7 1.5-.9 1-1.3 2.4-1.3 4.3v9.8h-4.5V476h4.3v2.4c.7-.9 1.6-1.5 2.7-2s2.3-.7 3.6-.7c1.4 0 2.7.3 3.8.8s2 1.3 2.6 2.4c.8-1 1.8-1.8 3.1-2.4 1.2-.6 2.6-.8 4.1-.8 2.5.1 4.4.8 5.8 2.2zM1022.5 537.4c-1.6-.8-2.8-2-3.7-3.5-.9-1.5-1.3-3.2-1.3-5.1 0-1.9.4-3.6 1.3-5.1.9-1.5 2.1-2.7 3.7-3.5 1.6-.8 3.3-1.3 5.3-1.3s3.7.4 5.3 1.3c1.6.8 2.8 2 3.7 3.5.9 1.5 1.3 3.2 1.3 5.1 0 1.9-.4 3.6-1.3 5.1-.9 1.5-2.1 2.7-3.7 3.5s-3.3 1.3-5.3 1.3-3.8-.4-5.3-1.3zm9.3-4.2c1.1-1.1 1.6-2.6 1.6-4.4s-.5-3.3-1.6-4.4c-1.1-1.1-2.4-1.7-4.1-1.7-1.7 0-3 .6-4.1 1.7-1.1 1.1-1.6 2.6-1.6 4.4s.5 3.3 1.6 4.4c1.1 1.1 2.4 1.7 4.1 1.7 1.7-.1 3.1-.6 4.1-1.7zM1053.4 519v4.3c-.4-.1-.7-.1-1-.1-1.8 0-3.1.5-4.1 1.5-1 1-1.5 2.5-1.5 4.4v9.3h-4.5v-19.2h4.3v2.8c1.3-2 3.6-3 6.8-3zM1057.5 515.3c-.6-.5-.8-1.2-.8-1.9 0-.8.3-1.4.8-1.9.6-.5 1.2-.8 2.1-.8s1.5.2 2.1.7c.6.5.8 1.1.8 1.9 0 .8-.3 1.5-.8 2s-1.2.8-2.1.8c-.9-.1-1.6-.3-2.1-.8zm-.2 3.9h4.5v19.2h-4.5v-19.2zM1086.7 519.2v16.3c0 6.8-3.5 10.2-10.4 10.2-1.8 0-3.6-.2-5.3-.7-1.7-.5-3-1.1-4.1-2l2-3.4c.8.7 1.9 1.3 3.2 1.7 1.3.4 2.6.6 3.9.6 2.1 0 3.7-.5 4.6-1.4 1-1 1.5-2.4 1.5-4.4v-1c-.8.8-1.7 1.5-2.8 1.9-1.1.4-2.3.6-3.6.6-1.8 0-3.5-.4-4.9-1.2-1.5-.8-2.6-1.9-3.5-3.3-.9-1.4-1.3-3-1.3-4.9 0-1.8.4-3.4 1.3-4.8s2-2.5 3.5-3.3c1.5-.8 3.1-1.2 4.9-1.2 1.4 0 2.7.2 3.8.7 1.1.5 2.1 1.2 2.9 2.1v-2.6h4.3zm-6 13c1.1-1 1.6-2.3 1.6-4 0-1.6-.5-2.9-1.6-3.9s-2.5-1.5-4.2-1.5c-1.7 0-3.1.5-4.2 1.5s-1.6 2.3-1.6 3.9.5 3 1.6 4 2.5 1.5 4.2 1.5c1.7 0 3.1-.5 4.2-1.5zM1092.9 515.3c-.6-.5-.8-1.2-.8-1.9 0-.8.3-1.4.8-1.9.6-.5 1.2-.8 2.1-.8s1.5.2 2.1.7c.6.5.8 1.1.8 1.9 0 .8-.3 1.5-.8 2s-1.2.8-2.1.8c-.9-.1-1.6-.3-2.1-.8zm-.3 3.9h4.5v19.2h-4.5v-19.2zM1119.8 521.1c1.5 1.4 2.2 3.5 2.2 6.3v11h-4.5V528c0-1.7-.4-2.9-1.2-3.8-.8-.9-1.9-1.3-3.4-1.3-1.7 0-3 .5-3.9 1.5-1 1-1.4 2.4-1.4 4.3v9.7h-4.5v-19.2h4.3v2.5c.7-.9 1.7-1.6 2.8-2s2.4-.7 3.8-.7c2.4 0 4.3.7 5.8 2.1z"/><g><path fill="#F9D2EC" stroke="#FF1493" stroke-linecap="round" stroke-linejoin="round" stroke-miterlimit="10" stroke-width="3" d="M428.9 130H937v508.1H428.9z"/><path fill="#F4B8DD" d="M428.9 489.1l508.2-210.5"/><g fill="none" stroke="#F998D0" stroke-linecap="round" stroke-linejoin="round" stroke-width="2"><path d="M428.9 489.1l2.4-1"/><path stroke-dasharray="4.954 9.909" d="M440.4 484.3l489.8-202.8"/><path d="M934.7 279.6l2.4-1"/></g><path fill="#F4B8DD" d="M430.3 636.6L937 129.9"/><g fill="none" stroke="#F998D0" stroke-linecap="round" stroke-linejoin="round" stroke-width="2"><path d="M430.3 636.6l1.8-1.8"/><path stroke-dasharray="4.976 9.951" d="M439.1 627.7l492.6-492.5"/><path d="M935.2 131.7l1.8-1.8"/></g><path fill="#F4B8DD" d="M577.7 638.1L788 130.4"/><g fill="none" stroke="#F998D0" stroke-linecap="round" stroke-linejoin="round" stroke-width="2"><path d="M577.7 638.1l.9-2.3"/><path stroke-dasharray="4.95 9.901" d="M582.4 626.6l202.7-489.3"/><path d="M787 132.7l1-2.3"/></g><g><path fill="#F4B8DD" d="M788.3 638.1L577.8 130"/><g fill="none" stroke="#F998D0" stroke-linecap="round" stroke-linejoin="round" stroke-width="2"><path d="M788.3 638.1l-.9-2.3"/><path stroke-dasharray="4.954 9.909" d="M783.6 626.6L580.7 136.9"/><path d="M578.8 132.3l-1-2.3"/></g></g><g><path fill="#F4B8DD" d="M934.3 635.2L429.1 130"/><g fill="none" stroke="#F998D0" stroke-linecap="round" stroke-linejoin="round" stroke-width="2"><path d="M934.3 635.2l-1.7-1.8"/><path stroke-dasharray="4.961 9.922" d="M925.5 626.4L434.4 135.3"/><path d="M430.9 131.8l-1.8-1.8"/></g></g><g><path fill="#F4B8DD" d="M937.1 489.1L428.9 278.6"/><g fill="none" stroke="#F998D0" stroke-linecap="round" stroke-linejoin="round" stroke-width="2"><path d="M937.1 489.1l-2.4-1"/><path stroke-dasharray="4.954 9.909" d="M925.6 484.3L435.8 281.5"/><path d="M431.3 279.6l-2.4-1"/></g></g><g><circle cx="683" cy="383.9" r="50.9" fill="#F9D2EC"/><g fill="none" stroke="#FF1493" stroke-linecap="round" stroke-linejoin="round" stroke-width="3"><path d="M428.9 383.9h6"/><path stroke-dasharray="12.1 12.1" d="M447 383.9h478"/><path d="M931.1 383.9h6"/></g><path fill="#F4B8DD" d="M683 635.2V132.5"/><g fill="none" stroke="#FF1493" stroke-linecap="round" stroke-linejoin="round" stroke-width="3"><path d="M683 635.2v-6"/><path stroke-dasharray="11.967 11.967" d="M683 617.2V144.5"/><path d="M683 138.5v-6"/></g></g><g><path fill="#FF1493" d="M936.6 640.2H429.4c-1.4 0-2.5-1.1-2.5-2.5V130.4c0-1.4 1.1-2.5 2.5-2.5h507.3c1.4 0 2.5 1.1 2.5 2.5v507.3c-.1 1.4-1.2 2.5-2.6 2.5zm-504.7-5h502.3V132.9H431.9v502.3z"/></g><g><path fill="#CFD9FF" d="M706.2 228.3l-23.1 21.9v80.3l13.6 21.3 9.5-23.1v-27.8l16.9-13 29.9-72.2-15.5-23.3 27.1-4.7 22.1-53.3h-17.2l-37 26-3-26-46.5.5 1 72.2z"/><path fill="#3976B2" d="M696.7 353.8c-.7 0-1.3-.3-1.7-.9l-13.6-21.3c-.2-.3-.3-.7-.3-1.1v-80.2c0-.5.2-1.1.6-1.5l21.6-20.5-20.7-19.7c-.4-.4-.6-.9-.6-1.4l-1-72.2c0-.5.2-1 .6-1.4.4-.4.9-.6 1.4-.6l46.5-.5c1 0 1.9.8 2 1.8l2.6 22.7 34.2-24.1c.3-.2.7-.4 1.1-.4h17.2c.7 0 1.3.3 1.7.9.4.6.4 1.3.2 1.9l-22.1 53.3c-.3.6-.8 1.1-1.5 1.2l-24.1 4.1 13.8 20.7c.4.6.4 1.3.2 1.9L725 288.7c-.1.3-.4.6-.6.8l-16.1 12.4v26.8c0 .3-.1.5-.2.8l-9.6 23.1c-.3.7-.9 1.2-1.7 1.2h-.1zm-11.6-23.9l11.2 17.6 7.9-19.1V301c0-.6.3-1.2.8-1.6l16.5-12.7 29.3-70.7-14.9-22.4c-.4-.6-.4-1.3-.2-1.9.3-.6.8-1.1 1.5-1.2l26-4.5 20.5-49.6h-13.6L733.6 162c-.6.4-1.3.5-2 .2-.6-.3-1.1-.9-1.2-1.6l-2.8-24.2-42.7.5 1 69.4 21.6 20.5c.4.4.6.9.6 1.5s-.2 1.1-.6 1.4L685 251.1v78.8z"/><path fill="#CFD9FF" d="M764 249l-29.8 11.4-30.7 74.2 4.4 24.9 17.7-17.7 10.6-25.7 20.6-5.5 55.3-55.3-5.5-27.5 26.9 6.1 40.8-40.8-15.9-6.6-44.2 9.9 7.2-25.2-43.1-17.3-26.7 67.1z"/><path fill="#3976B2" d="M707.9 361.5c-.2 0-.4 0-.6-.1-.7-.2-1.2-.8-1.4-1.6l-4.4-24.9c-.1-.4 0-.8.1-1.1l30.7-74.1c.2-.5.6-.9 1.1-1.1l27.8-10.7-11.6-26.1c-.2-.5-.2-1.1 0-1.6l26.7-67.1c.2-.5.6-.9 1.1-1.1.5-.2 1-.2 1.5 0l43.2 17.3c1 .4 1.5 1.4 1.2 2.4l-6.3 21.9 40.9-9.1c.4-.1.8-.1 1.2.1l15.9 6.6c.6.3 1.1.8 1.2 1.5.1.7-.1 1.3-.5 1.8l-40.8 40.8c-.5.5-1.2.7-1.9.5l-23.8-5.4 4.8 24.5c.1.7-.1 1.3-.5 1.8L758.2 312c-.2.2-.6.4-.9.5l-19.6 5.3-10.3 24.8c-.1.2-.2.5-.4.6l-17.7 17.7c-.4.4-.9.6-1.4.6zm-2.3-26.7l3.6 20.5 14.7-14.7 10.5-25.3c.2-.6.7-1 1.3-1.2l20.1-5.4 54.1-54.1-5.2-26.4c-.1-.7.1-1.3.6-1.8s1.2-.7 1.8-.5l25.8 5.8 37.9-37.9-12.6-5.2-43.5 9.7c-.7.2-1.4-.1-1.9-.6s-.7-1.2-.5-1.9l6.7-23.4-39.6-15.9-25.7 64.5 12.1 27.2c.2.5.2 1.1 0 1.6s-.6.9-1.1 1.1l-29 11.1-30.1 72.8z"/><path fill="#CFD9FF" d="M809.4 290.3l-31.9-.9-56.7 56.8-5.5 24.7 23.1-9.6 19.7-19.7 21.1 2.8 72.2-29.9 5.5-27.5 22.5 15.9 53.3-22.1-12.1-12.2-44.6-7.7 16.3-20.6-33.3-32.5-50.3 51.8z"/><path fill="#3976B2" d="M715.3 372.9c-.5 0-.9-.2-1.3-.5-.6-.5-.8-1.2-.7-2l5.5-24.7c.1-.4.3-.7.5-1L776 288c.4-.4.9-.6 1.5-.6l29.8.8-.7-28.5c0-.5.2-1.1.6-1.4l50.4-51.8c.4-.4.9-.6 1.4-.6.5 0 1 .2 1.4.6l33.2 32.5c.7.7.8 1.9.2 2.7l-14.2 17.9 41.2 7.2c.4.1.8.3 1.1.6l12.2 12.2c.5.5.7 1.1.5 1.8-.1.7-.6 1.2-1.2 1.5L880.1 305c-.6.3-1.4.2-1.9-.2l-20-14.1-4.9 24.4c-.1.7-.6 1.2-1.2 1.5L780 346.2c-.3.1-.7.2-1 .1l-20.2-2.6-19 19c-.2.2-.4.3-.6.4l-23.1 9.6c-.2.1-.5.2-.8.2zm7.3-25.7l-4.5 20.4 19.1-7.9 19.4-19.4c.4-.4 1.1-.6 1.7-.6l20.6 2.7 70.7-29.3 5.3-26.4c.1-.7.6-1.2 1.2-1.5.6-.2 1.3-.2 1.9.2l21.6 15.2 49.6-20.5-9.6-9.6-43.9-7.7c-.7-.1-1.3-.6-1.5-1.3s-.1-1.4.3-2l15.1-19.1-30.5-29.9-48.4 49.8.8 29.8c0 .5-.2 1.1-.6 1.5-.4.4-.9.6-1.5.6l-31-.8-55.8 55.8z"/><path fill="#CFD9FF" d="M835.6 345.8l-29.1-13-74.1 30.7-14.5 20.7h24.9l25.7-10.6 18.5 10.6h78.2l15.5-23.3 14.7 23.3h57.8l-6.6-15.9-38.2-24.2 22.9-12.7-18.3-42.8-66.3 28.6z"/><path fill="#3976B2" d="M865.2 386.2h-78.1c-.4 0-.7-.1-1-.3l-17.6-10.2-24.8 10.3c-.2.1-.5.2-.8.2h-25c-.7 0-1.4-.4-1.8-1.1-.3-.7-.3-1.5.1-2.1l14.5-20.7c.2-.3.5-.6.9-.7l74.1-30.7c.5-.2 1.1-.2 1.6 0l27.2 12.1 10.3-26.6c.2-.5.6-.9 1.1-1.1l66.4-28.6c.5-.2 1-.2 1.5 0s.9.6 1.1 1.1l18.3 42.8c.4.9 0 2-.9 2.5l-19.9 11.1 35.3 22.4c.3.2.6.5.8.9l6.6 15.9c.3.6.2 1.3-.2 1.9s-1 .9-1.7.9h-57.7c-.7 0-1.3-.4-1.7-.9l-13-20.7-13.9 20.7c-.5.6-1.1.9-1.7.9zm-143.5-4h20.7l25.3-10.5c.6-.2 1.2-.2 1.8.1l18 10.4H864l15-22.4c.4-.6 1-.9 1.7-.9s1.3.4 1.7.9l14.1 22.3h53.6l-5.2-12.6-37.6-23.9c-.6-.4-.9-1-.9-1.7s.4-1.3 1-1.7l21.3-11.8-16.7-39.2-63.7 27.5-10.7 27.8c-.2.5-.6.9-1.1 1.1-.5.2-1.1.2-1.6 0L806.5 335l-72.8 30.2-12 17z"/><path fill="#CFD9FF" d="M839 407.4l-22-23.1h-80.3l-21.3 13.6 23.1 9.5h27.8l13 16.9 72.2 30 23.3-15.6 4.7 27.1 53.3 22.1v-17.2l-26-37 26-3-.5-46.5-72.2 1z"/><path fill="#3976B2" d="M932.8 489.9c-.3 0-.5 0-.8-.2l-53.3-22.1c-.6-.3-1.1-.8-1.2-1.5l-4.1-24.1-20.7 13.8c-.6.4-1.3.4-1.9.2l-72.2-29.9c-.3-.1-.6-.4-.8-.6l-12.4-16.1h-26.8c-.3 0-.5-.1-.8-.2l-23.1-9.6c-.7-.3-1.2-.9-1.2-1.7-.1-.7.3-1.5.9-1.9l21.3-13.6c.3-.2.7-.3 1.1-.3H817c.5 0 1.1.2 1.5.6l20.5 21.6 19.7-20.7c.4-.4.9-.6 1.4-.6l72.2-1c.6 0 1 .2 1.4.6s.6.9.6 1.4l.5 46.5c0 1-.8 1.9-1.8 2l-22.7 2.6 24.1 34.2c.2.3.4.7.4 1.1v17.2c0 .7-.3 1.3-.9 1.7-.3.5-.7.6-1.1.6zm-51.5-25.5l49.6 20.5v-13.6l-25.6-36.5c-.4-.6-.5-1.3-.2-2 .3-.6.9-1.1 1.6-1.2l24.2-2.8-.5-42.7-69.4 1-20.5 21.6c-.4.4-.9.6-1.4.6-.5 0-1.1-.2-1.5-.6l-21.4-22.5h-78.8l-17.6 11.2 19.1 7.9h27.4c.6 0 1.2.3 1.6.8l12.7 16.5 70.7 29.3 22.4-14.9c.6-.4 1.3-.4 1.9-.2.6.3 1.1.8 1.2 1.5l4.5 26.1z"/><path fill="#CFD9FF" d="M818.2 465.2l-11.4-29.8-74.1-30.7-25 4.4 17.7 17.7 25.7 10.6 5.6 20.6 55.2 55.3 27.5-5.5-6.1 26.9 40.8 40.8 6.6-15.9-9.8-44.1 25.1 7.1 17.4-43.1-67.2-26.7z"/><path fill="#3976B2" d="M874.1 577.5c-.5 0-1-.2-1.4-.6l-40.8-40.8c-.5-.5-.7-1.2-.5-1.9l5.4-23.8-24.5 4.8c-.7.1-1.3-.1-1.8-.5l-55.3-55.3c-.2-.2-.4-.6-.5-.9l-5.3-19.6-24.8-10.3c-.2-.1-.5-.2-.6-.4l-17.7-17.7c-.5-.5-.7-1.3-.5-2 .2-.7.8-1.2 1.6-1.4l24.9-4.4c.4-.1.8 0 1.1.1l74.1 30.7c.5.2.9.6 1.1 1.1l10.7 27.8 26.1-11.6c.5-.2 1.1-.2 1.6 0l67.1 26.7c.5.2.9.6 1.1 1.1.2.5.2 1 0 1.5l-17.3 43.2c-.4 1-1.4 1.5-2.4 1.2l-21.9-6.3 9.1 40.9c.1.4.1.8-.1 1.2l-6.6 15.9c-.3.6-.8 1.1-1.5 1.2-.1.1-.2.1-.4.1zM835.5 534l37.9 37.9 5.2-12.6-9.7-43.5c-.2-.7.1-1.4.6-1.9s1.2-.7 1.9-.5l23.4 6.7 15.9-39.6-64.5-25.7L819 467c-.5.2-1.1.2-1.6 0s-.9-.6-1.1-1.1l-11.1-29-72.8-30.2-20.5 3.6 14.7 14.7 25.3 10.5c.6.2 1 .7 1.2 1.3l5.4 20.1 54.1 54.1 26.4-5.2c.7-.1 1.3.1 1.8.6s.7 1.2.5 1.8l-5.8 25.8z"/><path fill="#CFD9FF" d="M777 510.7l.8-31.9-56.7-56.8-24.7-5.4 9.5 23 19.7 19.7-2.8 21.1 29.9 72.2 27.5 5.5-15.9 22.5 22.1 53.4 12.2-12.2 7.8-44.6 20.5 16.3 32.5-33.2-51.8-50.4z"/><path fill="#3976B2" d="M786.4 636h-.4c-.7-.1-1.2-.6-1.5-1.2l-22.1-53.3c-.3-.6-.2-1.4.2-1.9l14.1-20-24.5-4.9c-.7-.1-1.2-.6-1.5-1.2L721 481.2c-.1-.3-.2-.7-.1-1l2.6-20.2-19-19c-.2-.2-.3-.4-.4-.6l-9.6-23.1c-.3-.7-.2-1.5.3-2.1.5-.6 1.2-.8 2-.7l24.7 5.5c.4.1.7.3 1 .5l56.7 56.7c.4.4.6.9.6 1.5l-.8 29.8 28.5-.7c.5 0 1.1.2 1.4.6l51.8 50.4c.4.4.6.9.6 1.4 0 .5-.2 1-.6 1.4l-32.5 33.2c-.7.7-1.9.8-2.7.2l-17.9-14.2-7.2 41.2c-.1.4-.3.8-.6 1.1l-12.2 12.2c-.2.4-.7.7-1.2.7zm-19.8-55.1l20.5 49.6 9.6-9.6 7.7-43.9c.1-.7.6-1.3 1.3-1.5.7-.3 1.4-.1 2 .3l19.1 15.1 29.9-30.5-49.8-48.4-29.8.8h-.1c-.5 0-1-.2-1.4-.6-.4-.4-.6-.9-.6-1.5l.8-31-55.7-55.7-20.4-4.5 7.9 19.1L727 458c.4.4.6 1.1.6 1.7l-2.7 20.6 29.3 70.7 26.4 5.3c.7.1 1.2.6 1.5 1.2.2.6.2 1.3-.2 1.9l-15.3 21.5z"/><path fill="#CFD9FF" d="M721.4 536.9l13-29.2-30.7-74.1-20.7-14.5V444l10.6 25.7-10.6 18.5v78.2l23.3 15.6-23.3 14.6v57.8l15.9-6.6 24.2-38.2 12.8 22.9 42.7-18.3-28.5-66.3z"/><path fill="#3976B2" d="M683 656.4c-.4 0-.8-.1-1.1-.3-.6-.4-.9-1-.9-1.7v-57.7c0-.7.4-1.3.9-1.7l20.7-13-20.7-14c-.6-.4-.9-1-.9-1.7v-78.1c0-.4.1-.7.3-1l10.2-17.6-10.3-24.8c-.1-.2-.2-.5-.2-.8v-25c0-.7.4-1.4 1.1-1.8.7-.3 1.5-.3 2.1.1l20.7 14.5c.3.2.6.5.7.9l30.7 74.1c.2.5.2 1.1 0 1.6l-12.1 27.2 26.6 10.3c.5.2.9.6 1.1 1.1l28.6 66.4c.2.5.2 1 0 1.5s-.6.9-1.1 1.1l-42.8 18.3c-.9.4-2 0-2.5-.9L723 613.5l-22.4 35.3c-.2.3-.5.6-.9.8l-15.9 6.6c-.3.1-.5.2-.8.2zm2-58.6v53.6l12.6-5.2 23.9-37.6c.4-.6 1.1-1 1.7-.9.7 0 1.3.4 1.7 1l11.8 21.3 39.3-16.8-27.5-63.7-27.8-10.7c-.5-.2-.9-.6-1.1-1.1-.2-.5-.2-1.1 0-1.6l12.6-28.4-30.2-72.8-17.1-12v20.7l10.5 25.3c.2.6.2 1.2-.1 1.8l-10.4 18v76.5l22.4 15c.6.4.9 1 .9 1.7s-.4 1.3-.9 1.7L685 597.8z"/><g><path fill="#CFD9FF" d="M659.8 540.5l23.1-21.9v-80.3L669.3 417l-9.5 23.1v27.8l-16.9 13-29.9 72.2 15.5 23.3-27.1 4.6-22.1 53.4h17.2l37-26 3 26 46.5-.5-1-72.3z"/><path fill="#3976B2" d="M596.5 636.4h-17.2c-.7 0-1.3-.3-1.7-.9s-.4-1.3-.2-1.9l22.1-53.3c.3-.6.8-1.1 1.5-1.2l24.1-4.1-13.8-20.7c-.4-.6-.4-1.3-.2-1.9l29.9-72.2c.1-.3.4-.6.6-.8l16.1-12.4v-26.8c0-.3.1-.5.2-.8l9.6-23.1c.3-.7.9-1.2 1.7-1.2.7-.1 1.5.3 1.9.9l13.6 21.3c.2.3.3.7.3 1.1v80.2c0 .5-.2 1.1-.6 1.5l-21.6 20.5 20.7 19.7c.4.4.6.9.6 1.4l1 72.2c0 .5-.2 1-.6 1.4-.4.4-.9.6-1.4.6l-46.5.5c-1 0-1.9-.8-2-1.8l-2.6-22.7-34.4 24.1c-.3.3-.7.4-1.1.4zm-14.2-4h13.6l36.5-25.6c.6-.4 1.3-.5 2-.2.6.3 1.1.9 1.2 1.6l2.8 24.2 42.7-.5-1-69.4-21.7-20.5c-.4-.4-.6-.9-.6-1.5 0-.5.2-1.1.6-1.5l22.5-21.4v-78.8l-11.2-17.6-7.9 19.1v27.4c0 .6-.3 1.2-.8 1.6L644.5 482l-29.3 70.7 14.9 22.4c.4.6.4 1.3.2 1.9-.3.6-.8 1.1-1.5 1.2l-26 4.5-20.5 49.7z"/></g><g><path fill="#CFD9FF" d="M602 519.8l29.8-11.4 30.7-74.2-4.4-24.9-17.7 17.7-10.6 25.7-20.6 5.5-55.3 55.3 5.5 27.5-26.9-6.1-40.8 40.8 15.9 6.6 44.2-9.9-7.2 25.2 43.1 17.3 26.7-67.1z"/><path fill="#3976B2" d="M587.7 616.9c-.3 0-.5 0-.7-.1l-43.2-17.3c-1-.4-1.5-1.4-1.2-2.4l6.3-21.9-40.9 9.1c-.4.1-.8.1-1.2-.1l-15.9-6.6c-.6-.3-1.1-.8-1.2-1.5-.1-.7.1-1.3.5-1.8l40.8-40.8c.5-.5 1.2-.7 1.9-.5l23.8 5.4-4.8-24.5c-.1-.7.1-1.3.5-1.8l55.3-55.3c.2-.2.6-.4.9-.5l19.6-5.3 10.3-24.8c.1-.2.2-.5.4-.6l17.7-17.7c.5-.5 1.3-.7 2-.5.7.2 1.2.8 1.4 1.6l4.4 24.9c.1.4 0 .8-.1 1.1l-30.7 74.1c-.2.5-.6.9-1.1 1.1l-27.8 10.7 11.6 26.1c.2.5.2 1.1 0 1.6l-26.7 67.1c-.2.5-.6.9-1.1 1.1-.2.1-.5.1-.8.1zM547 596.4l39.6 15.9 25.7-64.5-12.1-27.2c-.2-.5-.2-1.1 0-1.6s.6-.9 1.1-1.1l29-11.1 30.2-72.8-3.6-20.5-14.7 14.7-10.5 25.3c-.2.6-.7 1-1.3 1.2l-20.1 5.4-54.1 54.1 5.2 26.4c.1.7-.1 1.3-.6 1.8s-1.2.7-1.8.5l-25.8-5.8-38 37.9 12.6 5.2 43.5-9.7c.7-.2 1.4.1 1.9.6s.7 1.2.5 1.9l-6.7 23.4z"/></g><g><path fill="#CFD9FF" d="M556.6 478.5l31.9.9 56.7-56.8 5.5-24.7-23.1 9.6-19.7 19.7-21.1-2.8-72.2 29.9-5.5 27.5-22.5-15.9-53.3 22.1 12.1 12.2 44.6 7.7-16.3 20.5L507 561l50.3-51.8z"/><path fill="#3976B2" d="M507 563c-.5 0-1-.2-1.4-.6l-33.2-32.5c-.7-.7-.8-1.9-.2-2.7l14.2-17.9-41.2-7.2c-.4-.1-.8-.3-1.1-.6l-12.2-12.2c-.5-.5-.7-1.1-.5-1.8.1-.7.6-1.2 1.2-1.5l53.3-22.1c.6-.3 1.4-.2 1.9.2l20 14.1 4.9-24.5c.1-.7.6-1.2 1.2-1.5l72.2-29.9c.3-.1.7-.2 1-.1l20.2 2.6 19-19c.2-.2.4-.3.6-.4l23.1-9.6c.7-.3 1.5-.2 2.1.3.6.5.8 1.2.7 2l-5.5 24.7c-.1.4-.3.7-.5 1l-56.7 56.7c-.4.4-.9.6-1.5.6l-29.8-.8.7 28.5c0 .5-.2 1.1-.6 1.4L508.5 562c-.5.7-1 1-1.5 1zm-30.6-34.7l30.5 29.9 48.4-49.8-.8-29.8c0-.5.2-1.1.6-1.5.4-.4.9-.6 1.5-.6l31 .8 55.7-55.7 4.5-20.4-19.1 7.9-19.4 19.4c-.4.4-1.1.6-1.7.6l-20.6-2.7-70.7 29.3-5.3 26.4c-.1.7-.6 1.2-1.2 1.5-.6.2-1.3.2-1.9-.2l-21.6-15.2-49.6 20.5 9.6 9.6 43.9 7.7c.7.1 1.3.6 1.5 1.3s.1 1.4-.3 2l-15 19z"/></g><g><path fill="#CFD9FF" d="M530.4 423l29.1 13 74.1-30.7 14.5-20.7h-24.9l-25.7 10.6-18.5-10.6h-78.2l-15.5 23.2-14.7-23.2h-57.8l6.6 15.9 38.2 24.2-22.9 12.7 18.3 42.8 66.3-28.6z"/><path fill="#3976B2" d="M453 482.2c-.3 0-.5 0-.7-.1-.5-.2-.9-.6-1.1-1.1l-18.3-42.8c-.4-.9 0-2 .9-2.5l19.9-11.1-35.3-22.4c-.3-.2-.6-.5-.8-.9l-6.6-15.9c-.3-.6-.2-1.3.2-1.9.4-.6 1-.9 1.7-.9h57.7c.7 0 1.3.4 1.7.9l13 20.7 13.9-20.7c.4-.6 1-.9 1.7-.9H579c.4 0 .7.1 1 .3l17.6 10.2 24.8-10.3c.2-.1.5-.2.8-.2h25c.7 0 1.4.4 1.8 1.1.3.7.3 1.5-.1 2.1l-14.5 20.7c-.2.3-.5.6-.9.7l-74.1 30.7c-.5.2-1.1.2-1.6 0l-27.2-12.1-10.3 26.6c-.2.5-.6.9-1.1 1.1L453.8 482c-.3.1-.5.2-.8.2zm-15.7-43.9l16.8 39.3 63.7-27.5 10.7-27.8c.2-.5.6-.9 1.1-1.1.5-.2 1.1-.2 1.6 0l28.4 12.6 72.8-30.2 12-17.1h-20.7L598.4 397c-.6.2-1.2.2-1.8-.1l-18-10.4h-76.5l-15 22.4c-.4.6-1 .9-1.7.9s-1.3-.4-1.7-.9l-14.1-22.3H416l5.2 12.6 37.6 23.9c.6.4.9 1 .9 1.7s-.4 1.3-1 1.7l-21.4 11.8zm82 13.3z"/></g><g><path fill="#CFD9FF" d="M527 361.3l22 23.2h80.3l21.3-13.6-23.1-9.6h-27.8l-13-16.9-72.2-29.9-23.3 15.6-4.7-27.2-53.3-22.1v17.3l26 37-26 3 .5 46.5 72.2-1z"/><path fill="#3976B2" d="M433.7 386.6c-.5 0-1-.2-1.4-.6-.4-.4-.6-.9-.6-1.4l-.5-46.5c0-1 .8-1.9 1.8-2l22.7-2.6-24.1-34.2c-.2-.3-.4-.7-.4-1.1V281c0-.7.3-1.3.9-1.7.6-.4 1.3-.4 1.9-.2l53.3 22.1c.6.3 1.1.8 1.2 1.5l4.1 24.1 20.7-13.8c.6-.4 1.3-.4 1.9-.2l72.2 29.9c.3.1.6.4.8.6l12.4 16.1h26.8c.3 0 .5.1.8.2l23.1 9.6c.7.3 1.2.9 1.2 1.7.1.7-.3 1.5-.9 1.9l-21.3 13.6c-.3.2-.7.3-1.1.3H549c-.5 0-1.1-.2-1.5-.6L527 364.2l-19.7 20.7c-.4.4-.9.6-1.4.6l-72.2 1.1zm1.5-46.8l.5 42.7 69.4-1 20.5-21.6c.4-.4.9-.6 1.4-.6.5 0 1.1.2 1.5.6l21.4 22.5h78.8l17.6-11.2-19.1-7.9h-27.4c-.6 0-1.2-.3-1.6-.8L585.5 346l-70.7-29.3-22.4 14.9c-.6.4-1.3.4-1.9.2-.6-.3-1.1-.8-1.2-1.5l-4.5-26-49.6-20.5v13.6l25.6 36.5c.4.6.5 1.3.2 2-.3.6-.9 1.1-1.6 1.2l-24.2 2.7z"/></g><g><path fill="#CFD9FF" d="M547.8 303.6l11.4 29.8 74.1 30.7 25-4.4-17.7-17.7-25.7-10.6-5.6-20.6-55.2-55.3-27.5 5.4 6.1-26.8-40.8-40.8-6.6 15.9 9.8 44.1-25.1-7.2-17.4 43.2 67.2 26.7z"/><path fill="#3976B2" d="M633.3 366.1c-.3 0-.5-.1-.8-.2l-74.1-30.7c-.5-.2-.9-.6-1.1-1.1l-10.7-27.8-26.1 11.6c-.5.2-1.1.2-1.6 0l-67.1-26.7c-.5-.2-.9-.6-1.1-1.1-.2-.5-.2-1 0-1.5l17.3-43.2c.4-1 1.4-1.5 2.4-1.2l21.9 6.3-9.1-40.9c-.1-.4-.1-.8.1-1.2l6.6-15.9c.3-.6.8-1.1 1.5-1.2.7-.1 1.3.1 1.8.5l40.8 40.8c.5.5.7 1.2.5 1.9l-5.4 23.8 24.5-4.8c.7-.1 1.3.1 1.8.5l55.3 55.3c.2.2.4.6.5.9l5.3 19.6 24.8 10.3c.2.1.5.2.6.4l17.7 17.7c.5.5.7 1.3.5 2-.2.7-.8 1.2-1.6 1.4l-24.9 4.4c0 .1-.1.1-.3.1zm-72.5-34.3l72.8 30.2 20.5-3.6-14.7-14.7-25.3-10.5c-.6-.2-1-.7-1.2-1.3l-5.4-20.1-54.1-54.1-26.4 5.2c-.7.1-1.3-.1-1.8-.6s-.7-1.2-.5-1.8l5.8-25.8-37.9-37.9-5.2 12.6 9.7 43.5c.2.7-.1 1.4-.6 1.9s-1.2.7-1.9.5l-23.4-6.7-15.9 39.6 64.5 25.7 27.2-12.1c.5-.2 1.1-.2 1.6 0s.9.6 1.1 1.1l11.1 28.9z"/></g><g><path fill="#CFD9FF" d="M589 258.1l-.8 31.9 56.7 56.8 24.7 5.4-9.5-23-19.7-19.7 2.8-21.2-29.9-72.2-27.5-5.5 15.9-22.4-22.1-53.4-12.2 12.2-7.8 44.5-20.5-16.2-32.5 33.2 51.8 50.4z"/><path fill="#3976B2" d="M669.6 354.2h-.4l-24.7-5.5c-.4-.1-.7-.3-1-.5l-56.7-56.7c-.4-.4-.6-.9-.6-1.5l.8-29.8-28.5.7c-.5 0-1.1-.2-1.4-.6L505.2 210c-.4-.4-.6-.9-.6-1.4 0-.5.2-1 .6-1.4l32.5-33.2c.7-.7 1.9-.8 2.7-.2l17.9 14.2 7.2-41.2c.1-.4.3-.8.6-1.1l12.2-12.2c.5-.5 1.1-.7 1.8-.5.7.1 1.2.6 1.5 1.2l22.1 53.3c.3.6.2 1.4-.2 1.9l-14.1 20 24.5 4.9c.7.1 1.2.6 1.5 1.2l29.9 72.2c.1.3.2.7.1 1l-2.6 20.2 19 19c.2.2.3.4.4.6l9.6 23.1c.3.7.2 1.5-.3 2.1-.7.3-1.3.5-1.9.5zm-23.7-9.3l20.4 4.5-7.9-19.1-19.4-19.4c-.4-.4-.6-1.1-.6-1.7l2.7-20.6-29.3-70.7-26.4-5.3c-.7-.1-1.2-.6-1.5-1.2-.2-.6-.2-1.3.2-1.9l15.2-21.6-20.5-49.6-9.6 9.6-7.7 43.9c-.1.7-.6 1.3-1.3 1.5-.7.3-1.4.1-2-.3l-18.9-15-29.9 30.5 49.8 48.4 29.8-.8c.6 0 1.1.2 1.5.6s.6.9.6 1.5l-.8 31 55.6 55.7z"/></g><g><path fill="#CFD9FF" d="M644.6 231.9l-13 29.2 30.7 74.1 20.7 14.5v-25L672.4 299l10.6-18.4v-78.2l-23.3-15.6 23.3-14.7v-57.7l-15.9 6.6-24.2 38.2-12.8-22.9-42.7 18.3 28.5 66.3z"/><path fill="#3976B2" d="M683 351.7c-.4 0-.8-.1-1.1-.4l-20.7-14.5c-.3-.2-.6-.5-.7-.9l-30.7-74.1c-.2-.5-.2-1.1 0-1.6l12.1-27.2-26.6-10.3c-.5-.2-.9-.6-1.1-1.1l-28.6-66.4c-.2-.5-.2-1 0-1.5s.6-.9 1.1-1.1l42.8-18.3c.9-.4 2 0 2.5.9l11.1 19.9 22.4-35.3c.2-.3.5-.6.9-.8l15.9-6.6c.6-.3 1.3-.2 1.9.2.6.4.9 1 .9 1.7V172c0 .7-.4 1.3-.9 1.7l-20.7 13 20.7 13.9c.6.4.9 1 .9 1.7v78.1c0 .4-.1.7-.3 1L674.6 299l10.3 24.8c.1.2.2.5.2.8v25c0 .7-.4 1.4-1.1 1.8-.4.2-.7.3-1 .3zm-19.1-17.8l17.1 12v-20.7l-10.5-25.3c-.2-.6-.2-1.2.1-1.8l10.4-18v-76.5l-22.4-15c-.6-.4-.9-1-.9-1.7s.4-1.3.9-1.7L681 171v-53.6l-12.6 5.2-23.9 37.6c-.4.6-1 .9-1.7.9s-1.3-.4-1.7-1l-11.8-21.3-39.3 16.8 27.5 63.7 27.8 10.7c.5.2.9.6 1.1 1.1.2.5.2 1.1 0 1.6l-12.6 28.4 30.1 72.8z"/></g></g><g><path d="M683.127 385.918l.824-2.885 314.058 89.685-.824 2.885z"/></g></g></svg>