<svg xmlns="http://www.w3.org/2000/svg" viewBox="0 0 1366 768"><path fill="#FFF" d="M0 0h1366v768H0z"/><path fill="#F9D2EC" d="M428.9 125.1H937v508.1H428.9z"/><path fill="#FF1493" d="M937.1 634.7H428.9c-.8 0-1.5-.7-1.5-1.5V125.1c0-.8.7-1.5 1.5-1.5H937c.8 0 1.5.7 1.5 1.5v508.1c.1.8-.6 1.5-1.4 1.5zm-506.7-3h505.1V126.6H430.4v505.1z"/><path fill="#F4B8DD" d="M428.9 484.2l508.2-210.5"/><path fill="#F998D0" d="M428.9 485.2c-.4 0-.8-.2-.9-.6-.2-.5 0-1.1.5-1.3l2.3-1c.5-.2 1.1 0 1.3.5.2.5 0 1.1-.5 1.3l-2.3 1c-.1.1-.2.1-.4.1zM440.4 480.4c-.4 0-.8-.2-.9-.6-.2-.5 0-1.1.5-1.3l4.6-1.9c.5-.2 1.1 0 1.3.5.2.5 0 1.1-.5 1.3l-4.6 1.9c-.1.1-.3.1-.4.1zm13.7-5.6c-.4 0-.8-.2-.9-.6-.2-.5 0-1.1.5-1.3l4.6-1.9c.5-.2 1.1 0 1.3.5s0 1.1-.5 1.3l-4.6 1.9c-.1 0-.2.1-.4.1zm13.8-5.7c-.4 0-.8-.2-.9-.6-.2-.5 0-1.1.5-1.3l4.6-1.9c.5-.2 1.1 0 1.3.5.2.5 0 1.1-.5 1.3l-4.6 1.9c-.2 0-.3.1-.4.1zm13.7-5.7c-.4 0-.8-.2-.9-.6-.2-.5 0-1.1.5-1.3l4.6-1.9c.5-.2 1.1 0 1.3.5.2.5 0 1.1-.5 1.3l-4.6 1.9c-.1.1-.3.1-.4.1zm13.7-5.7c-.4 0-.8-.2-.9-.6-.2-.5 0-1.1.5-1.3l4.6-1.9c.5-.2 1.1 0 1.3.5.2.5 0 1.1-.5 1.3l-4.6 1.9c-.1.1-.2.1-.4.1zm13.8-5.7c-.4 0-.8-.2-.9-.6-.2-.5 0-1.1.5-1.3l4.6-1.9c.5-.2 1.1 0 1.3.5.2.5 0 1.1-.5 1.3l-4.6 1.9c-.2.1-.3.1-.4.1zm13.7-5.7c-.4 0-.8-.2-.9-.6-.2-.5 0-1.1.5-1.3l4.6-1.9c.5-.2 1.1 0 1.3.5.2.5 0 1.1-.5 1.3l-4.6 1.9c-.1.1-.3.1-.4.1zm13.7-5.7c-.4 0-.8-.2-.9-.6-.2-.5 0-1.1.5-1.3l4.6-1.9c.5-.2 1.1 0 1.3.5.2.5 0 1.1-.5 1.3l-4.6 1.9c-.1.1-.2.1-.4.1zm13.8-5.7c-.4 0-.8-.2-.9-.6-.2-.5 0-1.1.5-1.3l4.6-1.9c.5-.2 1.1 0 1.3.5.2.5 0 1.1-.5 1.3l-4.6 1.9c-.2.1-.3.1-.4.1zm13.7-5.6c-.4 0-.8-.2-.9-.6-.2-.5 0-1.1.5-1.3l4.6-1.9c.5-.2 1.1 0 1.3.5.2.5 0 1.1-.5 1.3l-4.6 1.9c-.1 0-.3.1-.4.1zm13.7-5.7c-.4 0-.8-.2-.9-.6-.2-.5 0-1.1.5-1.3l4.6-1.9c.5-.2 1.1 0 1.3.5.2.5 0 1.1-.5 1.3l-4.6 1.9c-.1 0-.2.1-.4.1zm13.8-5.7c-.4 0-.8-.2-.9-.6-.2-.5 0-1.1.5-1.3l4.6-1.9c.5-.2 1.1 0 1.3.5s0 1.1-.5 1.3l-4.6 1.9c-.2.1-.3.1-.4.1zm13.7-5.7c-.4 0-.8-.2-.9-.6-.2-.5 0-1.1.5-1.3l4.6-1.9c.5-.2 1.1 0 1.3.5s0 1.1-.5 1.3l-4.6 1.9c-.2.1-.3.1-.4.1zm13.7-5.7c-.4 0-.8-.2-.9-.6-.2-.5 0-1.1.5-1.3l4.6-1.9c.5-.2 1.1 0 1.3.5.2.5 0 1.1-.5 1.3l-4.6 1.9c-.1.1-.3.1-.4.1zm13.8-5.7c-.4 0-.8-.2-.9-.6-.2-.5 0-1.1.5-1.3l4.6-1.9c.5-.2 1.1 0 1.3.5.2.5 0 1.1-.5 1.3l-4.6 1.9c-.2.1-.3.1-.4.1zm13.7-5.7c-.4 0-.8-.2-.9-.6-.2-.5 0-1.1.5-1.3l4.6-1.9c.5-.2 1.1 0 1.3.5.2.5 0 1.1-.5 1.3l-4.6 1.9c-.2.1-.3.1-.4.1zm13.7-5.7c-.4 0-.8-.2-.9-.6-.2-.5 0-1.1.5-1.3l4.6-1.9c.5-.2 1.1 0 1.3.5.2.5 0 1.1-.5 1.3l-4.6 1.9c-.1.1-.3.1-.4.1zm13.7-5.6c-.4 0-.8-.2-.9-.6-.2-.5 0-1.1.5-1.3l4.6-1.9c.5-.2 1.1 0 1.3.5.2.5 0 1.1-.5 1.3l-4.6 1.9c-.1 0-.2.1-.4.1zm13.8-5.7c-.4 0-.8-.2-.9-.6-.2-.5 0-1.1.5-1.3l4.6-1.9c.5-.2 1.1 0 1.3.5s0 1.1-.5 1.3L688 378c-.2 0-.3.1-.4.1zm13.7-5.7c-.4 0-.8-.2-.9-.6-.2-.5 0-1.1.5-1.3l4.6-1.9c.5-.2 1.1 0 1.3.5.2.5 0 1.1-.5 1.3l-4.6 1.9c-.1.1-.3.1-.4.1zm13.7-5.7c-.4 0-.8-.2-.9-.6-.2-.5 0-1.1.5-1.3l4.6-1.9c.5-.2 1.1 0 1.3.5.2.5 0 1.1-.5 1.3l-4.6 1.9c-.1.1-.2.1-.4.1zm13.8-5.7c-.4 0-.8-.2-.9-.6-.2-.5 0-1.1.5-1.3l4.6-1.9c.5-.2 1.1 0 1.3.5.2.5 0 1.1-.5 1.3l-4.6 1.9c-.2.1-.3.1-.4.1zm13.7-5.7c-.4 0-.8-.2-.9-.6-.2-.5 0-1.1.5-1.3l4.6-1.9c.5-.2 1.1 0 1.3.5s0 1.1-.5 1.3l-4.6 1.9c-.1.1-.3.1-.4.1zm13.7-5.7c-.4 0-.8-.2-.9-.6-.2-.5 0-1.1.5-1.3l4.6-1.9c.5-.2 1.1 0 1.3.5.2.5 0 1.1-.5 1.3l-4.6 1.9c-.1.1-.2.1-.4.1zm13.8-5.7c-.4 0-.8-.2-.9-.6-.2-.5 0-1.1.5-1.3l4.6-1.9c.5-.2 1.1 0 1.3.5s0 1.1-.5 1.3l-4.6 1.9c-.2.1-.3.1-.4.1zm13.7-5.6c-.4 0-.8-.2-.9-.6-.2-.5 0-1.1.5-1.3l4.6-1.9c.5-.2 1.1 0 1.3.5.2.5 0 1.1-.5 1.3l-4.6 1.9c-.1 0-.3.1-.4.1zm13.7-5.7c-.4 0-.8-.2-.9-.6-.2-.5 0-1.1.5-1.3l4.6-1.9c.5-.2 1.1 0 1.3.5s0 1.1-.5 1.3l-4.6 1.9c-.1 0-.2.1-.4.1zm13.8-5.7c-.4 0-.8-.2-.9-.6-.2-.5 0-1.1.5-1.3l4.6-1.9c.5-.2 1.1 0 1.3.5.2.5 0 1.1-.5 1.3l-4.6 1.9c-.2.1-.3.1-.4.1zm13.7-5.7c-.4 0-.8-.2-.9-.6-.2-.5 0-1.1.5-1.3l4.6-1.9c.5-.2 1.1 0 1.3.5.2.5 0 1.1-.5 1.3l-4.6 1.9c-.1.1-.3.1-.4.1zm13.7-5.7c-.4 0-.8-.2-.9-.6-.2-.5 0-1.1.5-1.3l4.6-1.9c.5-.2 1.1 0 1.3.5s0 1.1-.5 1.3l-4.6 1.9c-.1.1-.2.1-.4.1zm13.8-5.7c-.4 0-.8-.2-.9-.6-.2-.5 0-1.1.5-1.3l4.6-1.9c.5-.2 1.1 0 1.3.5.2.5 0 1.1-.5 1.3l-4.6 1.9c-.2.1-.3.1-.4.1zm13.7-5.7c-.4 0-.8-.2-.9-.6-.2-.5 0-1.1.5-1.3l4.6-1.9c.5-.2 1.1 0 1.3.5.2.5 0 1.1-.5 1.3l-4.6 1.9c-.2.1-.3.1-.4.1zm13.7-5.7c-.4 0-.8-.2-.9-.6-.2-.5 0-1.1.5-1.3l4.6-1.9c.5-.2 1.1 0 1.3.5.2.5 0 1.1-.5 1.3l-4.6 1.9c-.1.1-.3.1-.4.1zm13.8-5.6c-.4 0-.8-.2-.9-.6-.2-.5 0-1.1.5-1.3l4.6-1.9c.5-.2 1.1 0 1.3.5.2.5 0 1.1-.5 1.3l-4.6 1.9c-.2 0-.3.1-.4.1zm13.7-5.7c-.4 0-.8-.2-.9-.6-.2-.5 0-1.1.5-1.3l4.6-1.9c.5-.2 1.1 0 1.3.5.2.5 0 1.1-.5 1.3l-4.6 1.9c-.2 0-.3.1-.4.1zm13.7-5.7c-.4 0-.8-.2-.9-.6-.2-.5 0-1.1.5-1.3l4.6-1.9c.5-.2 1.1 0 1.3.5s0 1.1-.5 1.3l-4.6 1.9c-.1.1-.3.1-.4.1zM934.7 275.7c-.4 0-.8-.2-.9-.6-.2-.5 0-1.1.5-1.3l2.3-1c.5-.2 1.1 0 1.3.5.2.5 0 1.1-.5 1.3l-2.3 1c-.1.1-.2.1-.4.1z"/><path fill="#F4B8DD" d="M430.3 631.7L937 125"/><path fill="#F998D0" d="M430.3 632.7c-.3 0-.5-.1-.7-.3-.4-.4-.4-1 0-1.4l1.8-1.8c.4-.4 1-.4 1.4 0s.4 1 0 1.4l-1.8 1.8c-.2.2-.4.3-.7.3zM439.1 623.8c-.3 0-.5-.1-.7-.3-.4-.4-.4-1 0-1.4l3.5-3.5c.4-.4 1-.4 1.4 0s.4 1 0 1.4l-3.5 3.5c-.2.3-.4.3-.7.3zm10.6-10.5c-.3 0-.5-.1-.7-.3-.4-.4-.4-1 0-1.4l3.5-3.5c.4-.4 1-.4 1.4 0s.4 1 0 1.4l-3.5 3.5c-.2.2-.5.3-.7.3zm10.5-10.6c-.3 0-.5-.1-.7-.3-.4-.4-.4-1 0-1.4l3.5-3.5c.4-.4 1-.4 1.4 0s.4 1 0 1.4l-3.5 3.5c-.2.2-.4.3-.7.3zm10.6-10.5c-.3 0-.5-.1-.7-.3-.4-.4-.4-1 0-1.4l3.5-3.5c.4-.4 1-.4 1.4 0s.4 1 0 1.4l-3.5 3.5c-.2.2-.5.3-.7.3zm10.5-10.6c-.3 0-.5-.1-.7-.3-.4-.4-.4-1 0-1.4l3.5-3.5c.4-.4 1-.4 1.4 0s.4 1 0 1.4l-3.5 3.5c-.2.2-.4.3-.7.3zm10.6-10.5c-.3 0-.5-.1-.7-.3-.4-.4-.4-1 0-1.4l3.5-3.5c.4-.4 1-.4 1.4 0s.4 1 0 1.4l-3.5 3.5c-.2.2-.5.3-.7.3zm10.5-10.6c-.3 0-.5-.1-.7-.3-.4-.4-.4-1 0-1.4l3.5-3.5c.4-.4 1-.4 1.4 0s.4 1 0 1.4l-3.5 3.5c-.1.2-.4.3-.7.3zM513 550c-.3 0-.5-.1-.7-.3-.4-.4-.4-1 0-1.4l3.5-3.5c.4-.4 1-.4 1.4 0s.4 1 0 1.4l-3.5 3.5c-.2.2-.4.3-.7.3zm10.6-10.6c-.3 0-.5-.1-.7-.3-.4-.4-.4-1 0-1.4l3.5-3.5c.4-.4 1-.4 1.4 0s.4 1 0 1.4l-3.5 3.5c-.2.2-.5.3-.7.3zm10.5-10.5c-.3 0-.5-.1-.7-.3-.4-.4-.4-1 0-1.4l3.5-3.5c.4-.4 1-.4 1.4 0s.4 1 0 1.4l-3.5 3.5c-.2.2-.4.3-.7.3zm10.6-10.6c-.3 0-.5-.1-.7-.3-.4-.4-.4-1 0-1.4l3.5-3.5c.4-.4 1-.4 1.4 0s.4 1 0 1.4l-3.5 3.5c-.2.2-.5.3-.7.3zm10.5-10.6c-.3 0-.5-.1-.7-.3-.4-.4-.4-1 0-1.4l3.5-3.5c.4-.4 1-.4 1.4 0s.4 1 0 1.4l-3.5 3.5c-.2.2-.4.3-.7.3zm10.6-10.5c-.3 0-.5-.1-.7-.3-.4-.4-.4-1 0-1.4l3.5-3.5c.4-.4 1-.4 1.4 0s.4 1 0 1.4l-3.5 3.5c-.2.2-.5.3-.7.3zm10.5-10.6c-.3 0-.5-.1-.7-.3-.4-.4-.4-1 0-1.4l3.5-3.5c.4-.4 1-.4 1.4 0s.4 1 0 1.4l-3.5 3.5c-.2.2-.4.3-.7.3zm10.6-10.5c-.3 0-.5-.1-.7-.3-.4-.4-.4-1 0-1.4l3.5-3.5c.4-.4 1-.4 1.4 0s.4 1 0 1.4l-3.5 3.5c-.2.2-.5.3-.7.3zm10.5-10.6c-.3 0-.5-.1-.7-.3-.4-.4-.4-1 0-1.4l3.5-3.5c.4-.4 1-.4 1.4 0s.4 1 0 1.4l-3.5 3.5c-.1.2-.4.3-.7.3zM608 455c-.3 0-.5-.1-.7-.3-.4-.4-.4-1 0-1.4l3.5-3.5c.4-.4 1-.4 1.4 0s.4 1 0 1.4l-3.5 3.5c-.2.2-.5.3-.7.3zm10.5-10.6c-.3 0-.5-.1-.7-.3-.4-.4-.4-1 0-1.4l3.5-3.5c.4-.4 1-.4 1.4 0s.4 1 0 1.4l-3.5 3.5c-.1.2-.4.3-.7.3zm10.6-10.5c-.3 0-.5-.1-.7-.3-.4-.4-.4-1 0-1.4l3.5-3.5c.4-.4 1-.4 1.4 0s.4 1 0 1.4l-3.5 3.5c-.2.2-.4.3-.7.3zm10.6-10.6c-.3 0-.5-.1-.7-.3-.4-.4-.4-1 0-1.4l3.5-3.5c.4-.4 1-.4 1.4 0s.4 1 0 1.4l-3.5 3.5c-.2.2-.5.3-.7.3zm10.5-10.5c-.3 0-.5-.1-.7-.3-.4-.4-.4-1 0-1.4l3.5-3.5c.4-.4 1-.4 1.4 0s.4 1 0 1.4l-3.5 3.5c-.2.2-.4.3-.7.3zm10.6-10.6c-.3 0-.5-.1-.7-.3-.4-.4-.4-1 0-1.4l3.5-3.5c.4-.4 1-.4 1.4 0s.4 1 0 1.4l-3.5 3.5c-.2.2-.5.3-.7.3zm10.5-10.6c-.3 0-.5-.1-.7-.3-.4-.4-.4-1 0-1.4l3.5-3.5c.4-.4 1-.4 1.4 0s.4 1 0 1.4l-3.5 3.5c-.2.2-.4.3-.7.3zm10.6-10.5c-.3 0-.5-.1-.7-.3-.4-.4-.4-1 0-1.4l3.5-3.5c.4-.4 1-.4 1.4 0 .4.4.4 1 0 1.4l-3.5 3.5c-.2.2-.5.3-.7.3zm10.5-10.6c-.3 0-.5-.1-.7-.3-.4-.4-.4-1 0-1.4l3.5-3.5c.4-.4 1-.4 1.4 0 .4.4.4 1 0 1.4l-3.5 3.5c-.2.2-.4.3-.7.3zM703 360c-.3 0-.5-.1-.7-.3-.4-.4-.4-1 0-1.4l3.5-3.5c.4-.4 1-.4 1.4 0s.4 1 0 1.4l-3.5 3.5c-.2.2-.5.3-.7.3zm10.5-10.6c-.3 0-.5-.1-.7-.3-.4-.4-.4-1 0-1.4l3.5-3.5c.4-.4 1-.4 1.4 0s.4 1 0 1.4l-3.5 3.5c-.1.2-.4.3-.7.3zm10.6-10.5c-.3 0-.5-.1-.7-.3-.4-.4-.4-1 0-1.4l3.5-3.5c.4-.4 1-.4 1.4 0s.4 1 0 1.4l-3.5 3.5c-.2.2-.4.3-.7.3zm10.6-10.6c-.3 0-.5-.1-.7-.3-.4-.4-.4-1 0-1.4l3.5-3.5c.4-.4 1-.4 1.4 0s.4 1 0 1.4l-3.5 3.5c-.2.2-.5.3-.7.3zm10.5-10.5c-.3 0-.5-.1-.7-.3-.4-.4-.4-1 0-1.4l3.5-3.5c.4-.4 1-.4 1.4 0 .4.4.4 1 0 1.4l-3.5 3.5c-.2.2-.4.3-.7.3zm10.6-10.6c-.3 0-.5-.1-.7-.3-.4-.4-.4-1 0-1.4l3.5-3.5c.4-.4 1-.4 1.4 0s.4 1 0 1.4l-3.5 3.5c-.2.2-.5.3-.7.3zm10.5-10.6c-.3 0-.5-.1-.7-.3-.4-.4-.4-1 0-1.4l3.5-3.5c.4-.4 1-.4 1.4 0s.4 1 0 1.4l-3.5 3.5c-.2.2-.4.3-.7.3zm10.6-10.5c-.3 0-.5-.1-.7-.3-.4-.4-.4-1 0-1.4l3.5-3.5c.4-.4 1-.4 1.4 0s.4 1 0 1.4l-3.5 3.5c-.2.2-.5.3-.7.3zm10.5-10.6c-.3 0-.5-.1-.7-.3-.4-.4-.4-1 0-1.4l3.5-3.5c.4-.4 1-.4 1.4 0s.4 1 0 1.4l-3.5 3.5c-.2.2-.4.3-.7.3zM798 265c-.3 0-.5-.1-.7-.3-.4-.4-.4-1 0-1.4l3.5-3.5c.4-.4 1-.4 1.4 0 .4.4.4 1 0 1.4l-3.5 3.5c-.2.2-.5.3-.7.3zm10.5-10.6c-.3 0-.5-.1-.7-.3-.4-.4-.4-1 0-1.4l3.5-3.5c.4-.4 1-.4 1.4 0s.4 1 0 1.4l-3.5 3.5c-.2.2-.4.3-.7.3zm10.6-10.5c-.3 0-.5-.1-.7-.3-.4-.4-.4-1 0-1.4l3.5-3.5c.4-.4 1-.4 1.4 0s.4 1 0 1.4l-3.5 3.5c-.2.2-.5.3-.7.3zm10.5-10.6c-.3 0-.5-.1-.7-.3-.4-.4-.4-1 0-1.4l3.5-3.5c.4-.4 1-.4 1.4 0s.4 1 0 1.4l-3.5 3.5c-.1.2-.4.3-.7.3zm10.6-10.5c-.3 0-.5-.1-.7-.3-.4-.4-.4-1 0-1.4l3.5-3.5c.4-.4 1-.4 1.4 0s.4 1 0 1.4l-3.5 3.5c-.2.2-.4.3-.7.3zm10.6-10.6c-.3 0-.5-.1-.7-.3-.4-.4-.4-1 0-1.4l3.5-3.5c.4-.4 1-.4 1.4 0s.4 1 0 1.4l-3.5 3.5c-.2.2-.5.3-.7.3zm10.5-10.5c-.3 0-.5-.1-.7-.3-.4-.4-.4-1 0-1.4l3.5-3.5c.4-.4 1-.4 1.4 0 .4.4.4 1 0 1.4l-3.5 3.5c-.2.2-.4.3-.7.3zm10.6-10.6c-.3 0-.5-.1-.7-.3-.4-.4-.4-1 0-1.4l3.5-3.5c.4-.4 1-.4 1.4 0s.4 1 0 1.4l-3.5 3.5c-.2.2-.5.3-.7.3zm10.5-10.6c-.3 0-.5-.1-.7-.3-.4-.4-.4-1 0-1.4l3.5-3.5c.4-.4 1-.4 1.4 0s.4 1 0 1.4l-3.5 3.5c-.2.2-.4.3-.7.3zM893 170c-.3 0-.5-.1-.7-.3-.4-.4-.4-1 0-1.4l3.5-3.5c.4-.4 1-.4 1.4 0s.4 1 0 1.4l-3.5 3.5c-.2.2-.5.3-.7.3zm10.5-10.6c-.3 0-.5-.1-.7-.3-.4-.4-.4-1 0-1.4l3.5-3.5c.4-.4 1-.4 1.4 0 .4.4.4 1 0 1.4l-3.5 3.5c-.2.2-.4.3-.7.3zm10.6-10.5c-.3 0-.5-.1-.7-.3-.4-.4-.4-1 0-1.4l3.5-3.5c.4-.4 1-.4 1.4 0 .4.4.4 1 0 1.4l-3.5 3.5c-.2.2-.5.3-.7.3zm10.5-10.6c-.3 0-.5-.1-.7-.3-.4-.4-.4-1 0-1.4l3.5-3.5c.4-.4 1-.4 1.4 0s.4 1 0 1.4l-3.5 3.5c-.1.2-.4.3-.7.3zM935.2 127.8c-.3 0-.5-.1-.7-.3-.4-.4-.4-1 0-1.4l1.8-1.8c.4-.4 1-.4 1.4 0s.4 1 0 1.4l-1.8 1.8c-.2.2-.4.3-.7.3z"/><path fill="#F4B8DD" d="M577.7 633.2L788 125.5"/><path fill="#F998D0" d="M577.7 634.2c-.1 0-.3 0-.4-.1-.5-.2-.8-.8-.5-1.3l1-2.3c.2-.5.8-.8 1.3-.5.5.2.8.8.5 1.3l-1 2.3c-.1.4-.5.6-.9.6zM582.4 622.7c-.1 0-.3 0-.4-.1-.5-.2-.8-.8-.5-1.3l1.9-4.6c.2-.5.8-.8 1.3-.5.5.2.8.8.5 1.3l-1.9 4.6c-.1.4-.5.6-.9.6zm5.7-13.7c-.1 0-.3 0-.4-.1-.5-.2-.8-.8-.5-1.3l1.9-4.6c.2-.5.8-.8 1.3-.5.5.2.8.8.5 1.3l-1.9 4.6c-.1.4-.5.6-.9.6zm5.7-13.7c-.1 0-.3 0-.4-.1-.5-.2-.8-.8-.5-1.3l1.9-4.6c.2-.5.8-.8 1.3-.5.5.2.8.8.5 1.3l-1.9 4.6c-.1.4-.5.6-.9.6zm5.7-13.7c-.1 0-.3 0-.4-.1-.5-.2-.8-.8-.5-1.3l1.9-4.6c.2-.5.8-.8 1.3-.5.5.2.8.8.5 1.3l-1.9 4.6c-.1.3-.5.6-.9.6zm5.7-13.7c-.1 0-.3 0-.4-.1-.5-.2-.8-.8-.5-1.3l1.9-4.6c.2-.5.8-.8 1.3-.5.5.2.8.8.5 1.3l-1.9 4.6c-.2.3-.5.6-.9.6zm5.7-13.8c-.1 0-.3 0-.4-.1-.5-.2-.8-.8-.5-1.3l1.9-4.6c.2-.5.8-.8 1.3-.5.5.2.8.8.5 1.3l-1.9 4.6c-.2.4-.6.6-.9.6zm5.6-13.7c-.1 0-.3 0-.4-.1-.5-.2-.8-.8-.5-1.3l1.9-4.6c.2-.5.8-.8 1.3-.5.5.2.8.8.5 1.3l-1.9 4.6c-.1.4-.5.6-.9.6zm5.7-13.7c-.1 0-.3 0-.4-.1-.5-.2-.8-.8-.5-1.3l1.9-4.6c.2-.5.8-.8 1.3-.5.5.2.8.8.5 1.3l-1.9 4.6c-.1.4-.5.6-.9.6zm5.7-13.7c-.1 0-.3 0-.4-.1-.5-.2-.8-.8-.5-1.3l1.9-4.6c.2-.5.8-.8 1.3-.5.5.2.8.8.5 1.3l-1.9 4.6c-.1.3-.5.6-.9.6zm5.7-13.7c-.1 0-.3 0-.4-.1-.5-.2-.8-.8-.5-1.3l1.9-4.6c.2-.5.8-.8 1.3-.5.5.2.8.8.5 1.3l-1.9 4.6c-.1.3-.5.6-.9.6zm5.7-13.8c-.1 0-.3 0-.4-.1-.5-.2-.8-.8-.5-1.3l1.9-4.6c.2-.5.8-.8 1.3-.5.5.2.8.8.5 1.3l-1.9 4.6c-.2.4-.5.6-.9.6zm5.7-13.7c-.1 0-.3 0-.4-.1-.5-.2-.8-.8-.5-1.3l1.9-4.6c.2-.5.8-.8 1.3-.5.5.2.8.8.5 1.3l-1.9 4.6c-.2.4-.6.6-.9.6zm5.6-13.7c-.1 0-.3 0-.4-.1-.5-.2-.8-.8-.5-1.3l1.9-4.6c.2-.5.8-.8 1.3-.5.5.2.8.8.5 1.3l-1.9 4.6c-.1.4-.5.6-.9.6zm5.7-13.7c-.1 0-.3 0-.4-.1-.5-.2-.8-.8-.5-1.3l1.9-4.6c.2-.5.8-.8 1.3-.5.5.2.8.8.5 1.3l-1.9 4.6c-.1.3-.5.6-.9.6zm5.7-13.7c-.1 0-.3 0-.4-.1-.5-.2-.8-.8-.5-1.3l1.9-4.6c.2-.5.8-.8 1.3-.5.5.2.8.8.5 1.3l-1.9 4.6c-.1.3-.5.6-.9.6zm5.7-13.8c-.1 0-.3 0-.4-.1-.5-.2-.8-.8-.5-1.3l1.9-4.6c.2-.5.8-.8 1.3-.5.5.2.8.8.5 1.3l-1.9 4.6c-.1.4-.5.6-.9.6zm5.7-13.7c-.1 0-.3 0-.4-.1-.5-.2-.8-.8-.5-1.3l1.9-4.6c.2-.5.8-.8 1.3-.5.5.2.8.8.5 1.3l-1.9 4.6c-.2.4-.5.6-.9.6zm5.7-13.7c-.1 0-.3 0-.4-.1-.5-.2-.8-.8-.5-1.3l1.9-4.6c.2-.5.8-.8 1.3-.5.5.2.8.8.5 1.3l-1.9 4.6c-.2.4-.6.6-.9.6zm5.6-13.7c-.1 0-.3 0-.4-.1-.5-.2-.8-.8-.5-1.3l1.9-4.6c.2-.5.8-.8 1.3-.5.5.2.8.8.5 1.3l-1.9 4.6c-.1.3-.5.6-.9.6zm5.7-13.7c-.1 0-.3 0-.4-.1-.5-.2-.8-.8-.5-1.3l1.9-4.6c.2-.5.8-.8 1.3-.5.5.2.8.8.5 1.3l-1.9 4.6c-.1.3-.5.6-.9.6zm5.7-13.8c-.1 0-.3 0-.4-.1-.5-.2-.8-.8-.5-1.3l1.9-4.6c.2-.5.8-.8 1.3-.5.5.2.8.8.5 1.3l-1.9 4.6c-.1.4-.5.6-.9.6zm5.7-13.7c-.1 0-.3 0-.4-.1-.5-.2-.8-.8-.5-1.3l1.9-4.6c.2-.5.8-.8 1.3-.5.5.2.8.8.5 1.3l-1.9 4.6c-.2.4-.5.6-.9.6zm5.7-13.7c-.1 0-.3 0-.4-.1-.5-.2-.8-.8-.5-1.3l1.9-4.6c.2-.5.8-.8 1.3-.5.5.2.8.8.5 1.3l-1.9 4.6c-.2.4-.5.6-.9.6zm5.7-13.7c-.1 0-.3 0-.4-.1-.5-.2-.8-.8-.5-1.3l1.9-4.6c.2-.5.8-.8 1.3-.5.5.2.8.8.5 1.3l-1.9 4.6c-.2.3-.6.6-.9.6zm5.6-13.7c-.1 0-.3 0-.4-.1-.5-.2-.8-.8-.5-1.3l1.9-4.6c.2-.5.8-.8 1.3-.5.5.2.8.8.5 1.3l-1.9 4.6c-.1.3-.5.6-.9.6zm5.7-13.8c-.1 0-.3 0-.4-.1-.5-.2-.8-.8-.5-1.3l1.9-4.6c.2-.5.8-.8 1.3-.5.5.2.8.8.5 1.3l-1.9 4.6c-.1.4-.5.6-.9.6zm5.7-13.7c-.1 0-.3 0-.4-.1-.5-.2-.8-.8-.5-1.3l1.9-4.6c.2-.5.8-.8 1.3-.5.5.2.8.8.5 1.3l-1.9 4.6c-.1.4-.5.6-.9.6zm5.7-13.7c-.1 0-.3 0-.4-.1-.5-.2-.8-.8-.5-1.3l1.9-4.6c.2-.5.8-.8 1.3-.5.5.2.8.8.5 1.3l-1.9 4.6c-.2.4-.5.6-.9.6zm5.7-13.7c-.1 0-.3 0-.4-.1-.5-.2-.8-.8-.5-1.3l1.9-4.6c.2-.5.8-.8 1.3-.5.5.2.8.8.5 1.3l-1.9 4.6c-.2.3-.5.6-.9.6zm5.7-13.8c-.1 0-.3 0-.4-.1-.5-.2-.8-.8-.5-1.3l1.9-4.6c.2-.5.8-.8 1.3-.5.5.2.8.8.5 1.3l-1.9 4.6c-.2.4-.6.6-.9.6zm5.6-13.7c-.1 0-.3 0-.4-.1-.5-.2-.8-.8-.5-1.3l1.9-4.6c.2-.5.8-.8 1.3-.5.5.2.8.8.5 1.3l-1.9 4.6c-.1.4-.5.6-.9.6zm5.7-13.7c-.1 0-.3 0-.4-.1-.5-.2-.8-.8-.5-1.3l1.9-4.6c.2-.5.8-.8 1.3-.5.5.2.8.8.5 1.3l-1.9 4.6c-.1.4-.5.6-.9.6zm5.7-13.7c-.1 0-.3 0-.4-.1-.5-.2-.8-.8-.5-1.3l1.9-4.6c.2-.5.8-.8 1.3-.5.5.2.8.8.5 1.3l-1.9 4.6c-.1.4-.5.6-.9.6zM770 170c-.1 0-.3 0-.4-.1-.5-.2-.8-.8-.5-1.3l1.9-4.6c.2-.5.8-.8 1.3-.5.5.2.8.8.5 1.3l-1.9 4.6c-.2.3-.5.6-.9.6zm5.7-13.8c-.1 0-.3 0-.4-.1-.5-.2-.8-.8-.5-1.3l1.9-4.6c.2-.5.8-.8 1.3-.5.5.2.8.8.5 1.3l-1.9 4.6c-.2.4-.5.6-.9.6zm5.7-13.7c-.1 0-.3 0-.4-.1-.5-.2-.8-.8-.5-1.3l1.9-4.6c.2-.5.8-.8 1.3-.5.5.2.8.8.5 1.3l-1.9 4.6c-.2.4-.6.6-.9.6zM787 128.8c-.1 0-.3 0-.4-.1-.5-.2-.8-.8-.5-1.3l1-2.3c.2-.5.8-.8 1.3-.5.5.2.8.8.5 1.3l-1 2.3c-.1.4-.5.6-.9.6z"/><g><path fill="#F4B8DD" d="M788.3 633.2L577.8 125.1"/><path fill="#F998D0" d="M788.3 634.2c-.4 0-.8-.2-.9-.6l-1-2.3c-.2-.5 0-1.1.5-1.3.5-.2 1.1 0 1.3.5l1 2.3c.2.5 0 1.1-.5 1.3-.1.1-.3.1-.4.1zM783.6 622.7c-.4 0-.8-.2-.9-.6l-1.9-4.6c-.2-.5 0-1.1.5-1.3.5-.2 1.1 0 1.3.5l1.9 4.6c.2.5 0 1.1-.5 1.3-.2.1-.3.1-.4.1zm-5.7-13.7c-.4 0-.8-.2-.9-.6l-1.9-4.6c-.2-.5 0-1.1.5-1.3.5-.2 1.1 0 1.3.5l1.9 4.6c.2.5 0 1.1-.5 1.3-.2.1-.3.1-.4.1zm-5.7-13.7c-.4 0-.8-.2-.9-.6l-1.9-4.6c-.2-.5 0-1.1.5-1.3.5-.2 1.1 0 1.3.5l1.9 4.6c.2.5 0 1.1-.5 1.3-.2 0-.3.1-.4.1zm-5.7-13.8c-.4 0-.8-.2-.9-.6l-1.9-4.6c-.2-.5 0-1.1.5-1.3.5-.2 1.1 0 1.3.5l1.9 4.6c.2.5 0 1.1-.5 1.3-.1.1-.3.1-.4.1zm-5.7-13.7c-.4 0-.8-.2-.9-.6l-1.9-4.6c-.2-.5 0-1.1.5-1.3.5-.2 1.1 0 1.3.5l1.9 4.6c.2.5 0 1.1-.5 1.3-.1.1-.3.1-.4.1zm-5.7-13.7c-.4 0-.8-.2-.9-.6l-1.9-4.6c-.2-.5 0-1.1.5-1.3.5-.2 1.1 0 1.3.5l1.9 4.6c.2.5 0 1.1-.5 1.3-.1.1-.3.1-.4.1zm-5.7-13.8c-.4 0-.8-.2-.9-.6l-1.9-4.6c-.2-.5 0-1.1.5-1.3.5-.2 1.1 0 1.3.5l1.9 4.6c.2.5 0 1.1-.5 1.3-.1.1-.2.1-.4.1zm-5.7-13.7c-.4 0-.8-.2-.9-.6l-1.9-4.6c-.2-.5 0-1.1.5-1.3.5-.2 1.1 0 1.3.5l1.9 4.6c.2.5 0 1.1-.5 1.3-.1.1-.2.1-.4.1zm-5.6-13.7c-.4 0-.8-.2-.9-.6l-1.9-4.6c-.2-.5 0-1.1.5-1.3.5-.2 1.1 0 1.3.5l1.9 4.6c.2.5 0 1.1-.5 1.3-.2.1-.3.1-.4.1zm-5.7-13.7c-.4 0-.8-.2-.9-.6l-1.9-4.6c-.2-.5 0-1.1.5-1.3.5-.2 1.1 0 1.3.5l1.9 4.6c.2.5 0 1.1-.5 1.3-.2 0-.3.1-.4.1zm-5.7-13.8c-.4 0-.8-.2-.9-.6l-1.9-4.6c-.2-.5 0-1.1.5-1.3.5-.2 1.1 0 1.3.5l1.9 4.6c.2.5 0 1.1-.5 1.3-.2.1-.3.1-.4.1zm-5.7-13.7c-.4 0-.8-.2-.9-.6l-1.9-4.6c-.2-.5 0-1.1.5-1.3.5-.2 1.1 0 1.3.5l1.9 4.6c.2.5 0 1.1-.5 1.3-.1.1-.3.1-.4.1zm-5.7-13.7c-.4 0-.8-.2-.9-.6l-1.9-4.6c-.2-.5 0-1.1.5-1.3.5-.2 1.1 0 1.3.5l1.9 4.6c.2.5 0 1.1-.5 1.3-.1 0-.3.1-.4.1zm-5.7-13.8c-.4 0-.8-.2-.9-.6l-1.9-4.6c-.2-.5 0-1.1.5-1.3.5-.2 1.1 0 1.3.5l1.9 4.6c.2.5 0 1.1-.5 1.3-.1.1-.3.1-.4.1zm-5.7-13.7c-.4 0-.8-.2-.9-.6l-1.9-4.6c-.2-.5 0-1.1.5-1.3.5-.2 1.1 0 1.3.5l1.9 4.6c.2.5 0 1.1-.5 1.3-.1.1-.2.1-.4.1zm-5.7-13.7c-.4 0-.8-.2-.9-.6l-1.9-4.6c-.2-.5 0-1.1.5-1.3.5-.2 1.1 0 1.3.5l1.9 4.6c.2.5 0 1.1-.5 1.3-.1 0-.2.1-.4.1zm-5.6-13.8c-.4 0-.8-.2-.9-.6l-1.9-4.6c-.2-.5 0-1.1.5-1.3.5-.2 1.1 0 1.3.5l1.9 4.6c.2.5 0 1.1-.5 1.3-.2.1-.3.1-.4.1zm-5.7-13.7c-.4 0-.8-.2-.9-.6l-1.9-4.6c-.2-.5 0-1.1.5-1.3.5-.2 1.1 0 1.3.5l1.9 4.6c.2.5 0 1.1-.5 1.3-.2.1-.3.1-.4.1zm-5.7-13.7c-.4 0-.8-.2-.9-.6l-1.9-4.6c-.2-.5 0-1.1.5-1.3.5-.2 1.1 0 1.3.5l1.9 4.6c.2.5 0 1.1-.5 1.3-.2 0-.3.1-.4.1zm-5.7-13.8c-.4 0-.8-.2-.9-.6l-1.9-4.6c-.2-.5 0-1.1.5-1.3.5-.2 1.1 0 1.3.5l1.9 4.6c.2.5 0 1.1-.5 1.3-.2.1-.3.1-.4.1zm-5.7-13.7c-.4 0-.8-.2-.9-.6l-1.9-4.6c-.2-.5 0-1.1.5-1.3.5-.2 1.1 0 1.3.5l1.9 4.6c.2.5 0 1.1-.5 1.3-.1.1-.3.1-.4.1zm-5.7-13.7c-.4 0-.8-.2-.9-.6l-1.9-4.6c-.2-.5 0-1.1.5-1.3.5-.2 1.1 0 1.3.5l1.9 4.6c.2.5 0 1.1-.5 1.3-.1 0-.3.1-.4.1zm-5.7-13.8c-.4 0-.8-.2-.9-.6l-1.9-4.6c-.2-.5 0-1.1.5-1.3.5-.2 1.1 0 1.3.5l1.9 4.6c.2.5 0 1.1-.5 1.3-.1.1-.2.1-.4.1zm-5.7-13.7c-.4 0-.8-.2-.9-.6l-1.9-4.6c-.2-.5 0-1.1.5-1.3.5-.2 1.1 0 1.3.5l1.9 4.6c.2.5 0 1.1-.5 1.3-.1.1-.2.1-.4.1zm-5.6-13.7c-.4 0-.8-.2-.9-.6l-1.9-4.6c-.2-.5 0-1.1.5-1.3.5-.2 1.1 0 1.3.5l1.9 4.6c.2.5 0 1.1-.5 1.3-.2.1-.3.1-.4.1zm-5.7-13.8c-.4 0-.8-.2-.9-.6l-1.9-4.6c-.2-.5 0-1.1.5-1.3.5-.2 1.1 0 1.3.5l1.9 4.6c.2.5 0 1.1-.5 1.3-.2.1-.3.1-.4.1zm-5.7-13.7c-.4 0-.8-.2-.9-.6l-1.9-4.6c-.2-.5 0-1.1.5-1.3.5-.2 1.1 0 1.3.5l1.9 4.6c.2.5 0 1.1-.5 1.3-.2.1-.3.1-.4.1zM630 252c-.4 0-.8-.2-.9-.6l-1.9-4.6c-.2-.5 0-1.1.5-1.3.5-.2 1.1 0 1.3.5l1.9 4.6c.2.5 0 1.1-.5 1.3-.2.1-.3.1-.4.1zm-5.7-13.7c-.4 0-.8-.2-.9-.6l-1.9-4.6c-.2-.5 0-1.1.5-1.3.5-.2 1.1 0 1.3.5l1.9 4.6c.2.5 0 1.1-.5 1.3-.1 0-.3.1-.4.1zm-5.7-13.8c-.4 0-.8-.2-.9-.6l-1.9-4.6c-.2-.5 0-1.1.5-1.3.5-.2 1.1 0 1.3.5l1.9 4.6c.2.5 0 1.1-.5 1.3-.1.1-.3.1-.4.1zm-5.7-13.7c-.4 0-.8-.2-.9-.6l-1.9-4.6c-.2-.5 0-1.1.5-1.3.5-.2 1.1 0 1.3.5l1.9 4.6c.2.5 0 1.1-.5 1.3-.1.1-.2.1-.4.1zm-5.7-13.7c-.4 0-.8-.2-.9-.6l-1.9-4.6c-.2-.5 0-1.1.5-1.3.5-.2 1.1 0 1.3.5l1.9 4.6c.2.5 0 1.1-.5 1.3-.1 0-.2.1-.4.1zm-5.6-13.8c-.4 0-.8-.2-.9-.6l-1.9-4.6c-.2-.5 0-1.1.5-1.3.5-.2 1.1 0 1.3.5l1.9 4.6c.2.5 0 1.1-.5 1.3-.2.1-.3.1-.4.1zm-5.7-13.7c-.4 0-.8-.2-.9-.6l-1.9-4.6c-.2-.5 0-1.1.5-1.3.5-.2 1.1 0 1.3.5l1.9 4.6c.2.5 0 1.1-.5 1.3-.2.1-.3.1-.4.1zm-5.7-13.7c-.4 0-.8-.2-.9-.6l-1.9-4.6c-.2-.5 0-1.1.5-1.3.5-.2 1.1 0 1.3.5l1.9 4.6c.2.5 0 1.1-.5 1.3-.2 0-.3.1-.4.1zm-5.7-13.8c-.4 0-.8-.2-.9-.6l-1.9-4.6c-.2-.5 0-1.1.5-1.3.5-.2 1.1 0 1.3.5l1.9 4.6c.2.5 0 1.1-.5 1.3-.2.1-.3.1-.4.1zM578.8 128.4c-.4 0-.8-.2-.9-.6l-1-2.3c-.2-.5 0-1.1.5-1.3.5-.2 1.1 0 1.3.5l1 2.3c.2.5 0 1.1-.5 1.3-.1.1-.3.1-.4.1z"/></g><g><path fill="#F4B8DD" d="M934.3 630.3L429.1 125.1"/><path fill="#F998D0" d="M934.3 631.3c-.3 0-.5-.1-.7-.3l-1.8-1.8c-.4-.4-.4-1 0-1.4s1-.4 1.4 0l1.8 1.8c.4.4.4 1 0 1.4-.2.2-.4.3-.7.3zM925.5 622.5c-.3 0-.5-.1-.7-.3l-3.5-3.5c-.4-.4-.4-1 0-1.4s1-.4 1.4 0l3.5 3.5c.4.4.4 1 0 1.4-.1.2-.4.3-.7.3zM915 612c-.3 0-.5-.1-.7-.3l-3.5-3.5c-.4-.4-.4-1 0-1.4s1-.4 1.4 0l3.5 3.5c.4.4.4 1 0 1.4-.2.2-.4.3-.7.3zm-10.5-10.5c-.3 0-.5-.1-.7-.3l-3.5-3.5c-.4-.4-.4-1 0-1.4s1-.4 1.4 0l3.5 3.5c.4.4.4 1 0 1.4-.2.2-.5.3-.7.3zM894 590.9c-.3 0-.5-.1-.7-.3l-3.5-3.5c-.4-.4-.4-1 0-1.4s1-.4 1.4 0l3.5 3.5c.4.4.4 1 0 1.4-.2.2-.5.3-.7.3zm-10.6-10.5c-.3 0-.5-.1-.7-.3l-3.5-3.5c-.4-.4-.4-1 0-1.4s1-.4 1.4 0l3.5 3.5c.4.4.4 1 0 1.4-.1.2-.4.3-.7.3zm-10.5-10.5c-.3 0-.5-.1-.7-.3l-3.5-3.5c-.4-.4-.4-1 0-1.4s1-.4 1.4 0l3.5 3.5c.4.4.4 1 0 1.4-.2.2-.4.3-.7.3zm-10.5-10.5c-.3 0-.5-.1-.7-.3l-3.5-3.5c-.4-.4-.4-1 0-1.4s1-.4 1.4 0l3.5 3.5c.4.4.4 1 0 1.4-.2.2-.5.3-.7.3zm-10.5-10.6c-.3 0-.5-.1-.7-.3l-3.5-3.5c-.4-.4-.4-1 0-1.4s1-.4 1.4 0l3.5 3.5c.4.4.4 1 0 1.4-.2.2-.5.3-.7.3zm-10.6-10.5c-.3 0-.5-.1-.7-.3l-3.5-3.5c-.4-.4-.4-1 0-1.4s1-.4 1.4 0l3.5 3.5c.4.4.4 1 0 1.4-.1.2-.4.3-.7.3zm-10.5-10.5c-.3 0-.5-.1-.7-.3l-3.5-3.5c-.4-.4-.4-1 0-1.4s1-.4 1.4 0l3.5 3.5c.4.4.4 1 0 1.4-.2.2-.4.3-.7.3zm-10.5-10.5c-.3 0-.5-.1-.7-.3l-3.5-3.5c-.4-.4-.4-1 0-1.4s1-.4 1.4 0l3.5 3.5c.4.4.4 1 0 1.4-.2.2-.4.3-.7.3zm-10.5-10.6c-.3 0-.5-.1-.7-.3l-3.5-3.5c-.4-.4-.4-1 0-1.4s1-.4 1.4 0l3.5 3.5c.4.4.4 1 0 1.4-.2.2-.5.3-.7.3zm-10.6-10.5c-.3 0-.5-.1-.7-.3l-3.5-3.5c-.4-.4-.4-1 0-1.4s1-.4 1.4 0l3.5 3.5c.4.4.4 1 0 1.4-.1.2-.4.3-.7.3zm-10.5-10.5c-.3 0-.5-.1-.7-.3l-3.5-3.5c-.4-.4-.4-1 0-1.4s1-.4 1.4 0l3.5 3.5c.4.4.4 1 0 1.4-.2.2-.4.3-.7.3zm-10.5-10.5c-.3 0-.5-.1-.7-.3l-3.5-3.5c-.4-.4-.4-1 0-1.4s1-.4 1.4 0l3.5 3.5c.4.4.4 1 0 1.4-.2.2-.4.3-.7.3zm-10.5-10.6c-.3 0-.5-.1-.7-.3l-3.5-3.5c-.4-.4-.4-1 0-1.4s1-.4 1.4 0l3.5 3.5c.4.4.4 1 0 1.4-.2.2-.5.3-.7.3zm-10.6-10.5c-.3 0-.5-.1-.7-.3l-3.5-3.5c-.4-.4-.4-1 0-1.4s1-.4 1.4 0l3.5 3.5c.4.4.4 1 0 1.4-.1.2-.4.3-.7.3zm-10.5-10.5c-.3 0-.5-.1-.7-.3l-3.5-3.5c-.4-.4-.4-1 0-1.4s1-.4 1.4 0l3.5 3.5c.4.4.4 1 0 1.4-.2.2-.4.3-.7.3zm-10.5-10.5c-.3 0-.5-.1-.7-.3l-3.5-3.5c-.4-.4-.4-1 0-1.4s1-.4 1.4 0l3.5 3.5c.4.4.4 1 0 1.4-.2.2-.4.3-.7.3zm-10.5-10.6c-.3 0-.5-.1-.7-.3l-3.5-3.5c-.4-.4-.4-1 0-1.4s1-.4 1.4 0l3.5 3.5c.4.4.4 1 0 1.4-.2.2-.5.3-.7.3zM715.1 412c-.3 0-.5-.1-.7-.3l-3.5-3.5c-.4-.4-.4-1 0-1.4s1-.4 1.4 0l3.5 3.5c.4.4.4 1 0 1.4-.2.2-.5.3-.7.3zm-10.6-10.5c-.3 0-.5-.1-.7-.3l-3.5-3.5c-.4-.4-.4-1 0-1.4s1-.4 1.4 0l3.5 3.5c.4.4.4 1 0 1.4-.2.2-.4.3-.7.3zM694 391c-.3 0-.5-.1-.7-.3l-3.5-3.5c-.4-.4-.4-1 0-1.4s1-.4 1.4 0l3.5 3.5c.4.4.4 1 0 1.4-.2.2-.4.3-.7.3zm-10.5-10.6c-.3 0-.5-.1-.7-.3l-3.5-3.5c-.4-.4-.4-1 0-1.4s1-.4 1.4 0l3.5 3.5c.4.4.4 1 0 1.4-.2.2-.5.3-.7.3zM673 369.9c-.3 0-.5-.1-.7-.3l-3.5-3.5c-.4-.4-.4-1 0-1.4.4-.4 1-.4 1.4 0l3.5 3.5c.4.4.4 1 0 1.4-.2.2-.5.3-.7.3zm-10.6-10.5c-.3 0-.5-.1-.7-.3l-3.5-3.5c-.4-.4-.4-1 0-1.4s1-.4 1.4 0l3.5 3.5c.4.4.4 1 0 1.4-.2.2-.4.3-.7.3zm-10.5-10.5c-.3 0-.5-.1-.7-.3l-3.5-3.5c-.4-.4-.4-1 0-1.4s1-.4 1.4 0l3.5 3.5c.4.4.4 1 0 1.4-.2.2-.4.3-.7.3zm-10.5-10.6c-.3 0-.5-.1-.7-.3l-3.5-3.5c-.4-.4-.4-1 0-1.4s1-.4 1.4 0l3.5 3.5c.4.4.4 1 0 1.4-.2.2-.5.3-.7.3zm-10.5-10.5c-.3 0-.5-.1-.7-.3l-3.5-3.5c-.4-.4-.4-1 0-1.4s1-.4 1.4 0l3.5 3.5c.4.4.4 1 0 1.4-.2.2-.5.3-.7.3zm-10.6-10.5c-.3 0-.5-.1-.7-.3l-3.5-3.5c-.4-.4-.4-1 0-1.4.4-.4 1-.4 1.4 0l3.5 3.5c.4.4.4 1 0 1.4-.2.2-.4.3-.7.3zm-10.5-10.5c-.3 0-.5-.1-.7-.3l-3.5-3.5c-.4-.4-.4-1 0-1.4.4-.4 1-.4 1.4 0l3.5 3.5c.4.4.4 1 0 1.4-.2.2-.4.3-.7.3zm-10.5-10.6c-.3 0-.5-.1-.7-.3l-3.5-3.5c-.4-.4-.4-1 0-1.4s1-.4 1.4 0l3.5 3.5c.4.4.4 1 0 1.4-.2.3-.5.3-.7.3zm-10.5-10.5c-.3 0-.5-.1-.7-.3l-3.5-3.5c-.4-.4-.4-1 0-1.4s1-.4 1.4 0l3.5 3.5c.4.4.4 1 0 1.4-.2.2-.5.3-.7.3zm-10.6-10.5c-.3 0-.5-.1-.7-.3l-3.5-3.5c-.4-.4-.4-1 0-1.4s1-.4 1.4 0l3.5 3.5c.4.4.4 1 0 1.4-.2.2-.4.3-.7.3zm-10.5-10.5c-.3 0-.5-.1-.7-.3l-3.5-3.5c-.4-.4-.4-1 0-1.4s1-.4 1.4 0l3.5 3.5c.4.4.4 1 0 1.4-.2.2-.4.3-.7.3zm-10.5-10.5c-.3 0-.5-.1-.7-.3l-3.5-3.5c-.4-.4-.4-1 0-1.4s1-.4 1.4 0l3.5 3.5c.4.4.4 1 0 1.4-.2.2-.5.3-.7.3zm-10.5-10.6c-.3 0-.5-.1-.7-.3l-3.5-3.5c-.4-.4-.4-1 0-1.4s1-.4 1.4 0l3.5 3.5c.4.4.4 1 0 1.4-.2.2-.5.3-.7.3zm-10.6-10.5c-.3 0-.5-.1-.7-.3l-3.5-3.5c-.4-.4-.4-1 0-1.4s1-.4 1.4 0l3.5 3.5c.4.4.4 1 0 1.4-.1.2-.4.3-.7.3zm-10.5-10.5c-.3 0-.5-.1-.7-.3l-3.5-3.5c-.4-.4-.4-1 0-1.4s1-.4 1.4 0l3.5 3.5c.4.4.4 1 0 1.4-.2.2-.4.3-.7.3zm-10.5-10.5c-.3 0-.5-.1-.7-.3l-3.5-3.5c-.4-.4-.4-1 0-1.4.4-.4 1-.4 1.4 0l3.5 3.5c.4.4.4 1 0 1.4-.2.2-.5.3-.7.3zm-10.5-10.6c-.3 0-.5-.1-.7-.3l-3.5-3.5c-.4-.4-.4-1 0-1.4s1-.4 1.4 0l3.5 3.5c.4.4.4 1 0 1.4-.2.2-.5.3-.7.3zM494 191c-.3 0-.5-.1-.7-.3l-3.5-3.5c-.4-.4-.4-1 0-1.4s1-.4 1.4 0l3.5 3.5c.4.4.4 1 0 1.4-.1.2-.4.3-.7.3zm-10.5-10.5c-.3 0-.5-.1-.7-.3l-3.5-3.5c-.4-.4-.4-1 0-1.4s1-.4 1.4 0l3.5 3.5c.4.4.4 1 0 1.4-.2.2-.4.3-.7.3zM473 170c-.3 0-.5-.1-.7-.3l-3.5-3.5c-.4-.4-.4-1 0-1.4s1-.4 1.4 0l3.5 3.5c.4.4.4 1 0 1.4-.2.2-.5.3-.7.3zm-10.5-10.6c-.3 0-.5-.1-.7-.3l-3.5-3.5c-.4-.4-.4-1 0-1.4s1-.4 1.4 0l3.5 3.5c.4.4.4 1 0 1.4-.2.2-.5.3-.7.3zm-10.6-10.5c-.3 0-.5-.1-.7-.3l-3.5-3.5c-.4-.4-.4-1 0-1.4s1-.4 1.4 0l3.5 3.5c.4.4.4 1 0 1.4-.1.2-.4.3-.7.3zm-10.5-10.5c-.3 0-.5-.1-.7-.3l-3.5-3.5c-.4-.4-.4-1 0-1.4s1-.4 1.4 0l3.5 3.5c.4.4.4 1 0 1.4-.2.2-.4.3-.7.3zM430.9 127.9c-.3 0-.5-.1-.7-.3l-1.8-1.8c-.4-.4-.4-1 0-1.4s1-.4 1.4 0l1.8 1.8c.4.4.4 1 0 1.4-.2.2-.4.3-.7.3z"/></g><g><path fill="#F4B8DD" d="M937.1 484.2L428.9 273.7"/><path fill="#F998D0" d="M937.1 485.2c-.1 0-.3 0-.4-.1l-2.3-1c-.5-.2-.8-.8-.5-1.3.2-.5.8-.8 1.3-.5l2.3 1c.5.2.8.8.5 1.3-.2.4-.6.6-.9.6zM925.6 480.4c-.1 0-.3 0-.4-.1l-4.6-1.9c-.5-.2-.8-.8-.5-1.3s.8-.8 1.3-.5l4.6 1.9c.5.2.8.8.5 1.3-.1.4-.5.6-.9.6zm-13.7-5.6c-.1 0-.3 0-.4-.1l-4.6-1.9c-.5-.2-.8-.8-.5-1.3.2-.5.8-.8 1.3-.5l4.6 1.9c.5.2.8.8.5 1.3-.2.3-.5.6-.9.6zm-13.8-5.7c-.1 0-.3 0-.4-.1l-4.6-1.9c-.5-.2-.8-.8-.5-1.3.2-.5.8-.8 1.3-.5l4.6 1.9c.5.2.8.8.5 1.3-.1.3-.5.6-.9.6zm-13.7-5.7c-.1 0-.3 0-.4-.1l-4.6-1.9c-.5-.2-.8-.8-.5-1.3s.8-.8 1.3-.5l4.6 1.9c.5.2.8.8.5 1.3-.1.4-.5.6-.9.6zm-13.7-5.7c-.1 0-.3 0-.4-.1l-4.6-1.9c-.5-.2-.8-.8-.5-1.3s.8-.8 1.3-.5l4.6 1.9c.5.2.8.8.5 1.3-.2.4-.5.6-.9.6zm-13.8-5.7c-.1 0-.3 0-.4-.1L852 450c-.5-.2-.8-.8-.5-1.3s.8-.8 1.3-.5l4.6 1.9c.5.2.8.8.5 1.3-.2.4-.6.6-1 .6zm-13.7-5.7c-.1 0-.3 0-.4-.1l-4.6-1.9c-.5-.2-.8-.8-.5-1.3.2-.5.8-.8 1.3-.5l4.6 1.9c.5.2.8.8.5 1.3-.1.4-.5.6-.9.6zm-13.7-5.7c-.1 0-.3 0-.4-.1l-4.6-1.9c-.5-.2-.8-.8-.5-1.3.2-.5.8-.8 1.3-.5l4.6 1.9c.5.2.8.8.5 1.3-.2.4-.5.6-.9.6zm-13.8-5.7c-.1 0-.3 0-.4-.1l-4.6-1.9c-.5-.2-.8-.8-.5-1.3.2-.5.8-.8 1.3-.5l4.6 1.9c.5.2.8.8.5 1.3-.1.4-.5.6-.9.6zm-13.7-5.6c-.1 0-.3 0-.4-.1l-4.6-1.9c-.5-.2-.8-.8-.5-1.3s.8-.8 1.3-.5l4.6 1.9c.5.2.8.8.5 1.3-.1.3-.5.6-.9.6zm-13.7-5.7c-.1 0-.3 0-.4-.1l-4.6-1.9c-.5-.2-.8-.8-.5-1.3s.8-.8 1.3-.5l4.6 1.9c.5.2.8.8.5 1.3-.2.3-.5.6-.9.6zm-13.8-5.7c-.1 0-.3 0-.4-.1l-4.6-1.9c-.5-.2-.8-.8-.5-1.3s.8-.8 1.3-.5l4.6 1.9c.5.2.8.8.5 1.3-.1.3-.5.6-.9.6zm-13.7-5.7c-.1 0-.3 0-.4-.1l-4.6-1.9c-.5-.2-.8-.8-.5-1.3.2-.5.8-.8 1.3-.5l4.6 1.9c.5.2.8.8.5 1.3-.1.4-.5.6-.9.6zm-13.7-5.7c-.1 0-.3 0-.4-.1l-4.6-1.9c-.5-.2-.8-.8-.5-1.3s.8-.8 1.3-.5l4.6 1.9c.5.2.8.8.5 1.3-.2.4-.5.6-.9.6zm-13.8-5.7c-.1 0-.3 0-.4-.1l-4.6-1.9c-.5-.2-.8-.8-.5-1.3s.8-.8 1.3-.5l4.6 1.9c.5.2.8.8.5 1.3-.1.4-.5.6-.9.6zm-13.7-5.7c-.1 0-.3 0-.4-.1l-4.6-1.9c-.5-.2-.8-.8-.5-1.3s.8-.8 1.3-.5l4.6 1.9c.5.2.8.8.5 1.3-.1.4-.5.6-.9.6zm-13.7-5.7c-.1 0-.3 0-.4-.1l-4.6-1.9c-.5-.2-.8-.8-.5-1.3s.8-.8 1.3-.5l4.6 1.9c.5.2.8.8.5 1.3-.1.4-.5.6-.9.6zm-13.7-5.6c-.1 0-.3 0-.4-.1l-4.6-1.9c-.5-.2-.8-.8-.5-1.3.2-.5.8-.8 1.3-.5l4.6 1.9c.5.2.8.8.5 1.3-.2.3-.6.6-.9.6zm-13.8-5.7c-.1 0-.3 0-.4-.1l-4.6-1.9c-.5-.2-.8-.8-.5-1.3.2-.5.8-.8 1.3-.5l4.6 1.9c.5.2.8.8.5 1.3-.1.3-.5.6-.9.6zm-13.7-5.7c-.1 0-.3 0-.4-.1l-4.6-1.9c-.5-.2-.8-.8-.5-1.3.2-.5.8-.8 1.3-.5l4.6 1.9c.5.2.8.8.5 1.3-.1.3-.5.6-.9.6zm-13.7-5.7c-.1 0-.3 0-.4-.1l-4.6-1.9c-.5-.2-.8-.8-.5-1.3s.8-.8 1.3-.5l4.6 1.9c.5.2.8.8.5 1.3-.2.4-.5.6-.9.6zm-13.8-5.7c-.1 0-.3 0-.4-.1l-4.6-1.9c-.5-.2-.8-.8-.5-1.3.2-.5.8-.8 1.3-.5l4.6 1.9c.5.2.8.8.5 1.3-.1.4-.5.6-.9.6zm-13.7-5.7c-.1 0-.3 0-.4-.1l-4.6-1.9c-.5-.2-.8-.8-.5-1.3.2-.5.8-.8 1.3-.5l4.6 1.9c.5.2.8.8.5 1.3-.1.4-.5.6-.9.6zm-13.7-5.7c-.1 0-.3 0-.4-.1l-4.6-1.9c-.5-.2-.8-.8-.5-1.3.2-.5.8-.8 1.3-.5l4.6 1.9c.5.2.8.8.5 1.3-.2.4-.5.6-.9.6zm-13.8-5.7c-.1 0-.3 0-.4-.1l-4.6-1.9c-.5-.2-.8-.8-.5-1.3s.8-.8 1.3-.5l4.6 1.9c.5.2.8.8.5 1.3-.1.4-.5.6-.9.6zm-13.7-5.6c-.1 0-.3 0-.4-.1l-4.6-1.9c-.5-.2-.8-.8-.5-1.3.2-.5.8-.8 1.3-.5l4.6 1.9c.5.2.8.8.5 1.3-.1.3-.5.6-.9.6zm-13.7-5.7c-.1 0-.3 0-.4-.1l-4.6-1.9c-.5-.2-.8-.8-.5-1.3.2-.5.8-.8 1.3-.5l4.6 1.9c.5.2.8.8.5 1.3-.2.3-.5.6-.9.6zm-13.8-5.7c-.1 0-.3 0-.4-.1l-4.6-1.9c-.5-.2-.8-.8-.5-1.3.2-.5.8-.8 1.3-.5l4.6 1.9c.5.2.8.8.5 1.3-.1.3-.5.6-.9.6zm-13.7-5.7c-.1 0-.3 0-.4-.1l-4.6-1.9c-.5-.2-.8-.8-.5-1.3.2-.5.8-.8 1.3-.5l4.6 1.9c.5.2.8.8.5 1.3-.1.4-.5.6-.9.6zm-13.7-5.7c-.1 0-.3 0-.4-.1l-4.6-1.9c-.5-.2-.8-.8-.5-1.3.2-.5.8-.8 1.3-.5l4.6 1.9c.5.2.8.8.5 1.3-.2.4-.5.6-.9.6zm-13.8-5.7c-.1 0-.3 0-.4-.1l-4.6-1.9c-.5-.2-.8-.8-.5-1.3s.8-.8 1.3-.5l4.6 1.9c.5.2.8.8.5 1.3-.1.4-.5.6-.9.6zm-13.7-5.7c-.1 0-.3 0-.4-.1l-4.6-1.9c-.5-.2-.8-.8-.5-1.3s.8-.8 1.3-.5l4.6 1.9c.5.2.8.8.5 1.3-.1.4-.5.6-.9.6zm-13.7-5.7c-.1 0-.3 0-.4-.1l-4.6-1.9c-.5-.2-.8-.8-.5-1.3.2-.5.8-.8 1.3-.5l4.6 1.9c.5.2.8.8.5 1.3-.2.4-.5.6-.9.6zm-13.8-5.6c-.1 0-.3 0-.4-.1l-4.6-1.9c-.5-.2-.8-.8-.5-1.3.2-.5.8-.8 1.3-.5l4.6 1.9c.5.2.8.8.5 1.3-.1.3-.5.6-.9.6zm-13.7-5.7c-.1 0-.3 0-.4-.1l-4.6-1.9c-.5-.2-.8-.8-.5-1.3.2-.5.8-.8 1.3-.5l4.6 1.9c.5.2.8.8.5 1.3-.1.3-.5.6-.9.6zm-13.7-5.7c-.1 0-.3 0-.4-.1l-4.6-1.9c-.5-.2-.8-.8-.5-1.3.2-.5.8-.8 1.3-.5l4.6 1.9c.5.2.8.8.5 1.3-.1.3-.5.6-.9.6zM431.3 275.7c-.1 0-.3 0-.4-.1l-2.3-1c-.5-.2-.8-.8-.5-1.3.2-.5.8-.8 1.3-.5l2.3 1c.5.2.8.8.5 1.3-.2.4-.6.6-.9.6z"/></g><g><circle cx="683" cy="379" r="23.2" fill="#F9D2EC"/></g><g><path fill="#FF1493" d="M434.9 380.5h-6c-.8 0-1.5-.7-1.5-1.5s.7-1.5 1.5-1.5h6c.8 0 1.5.7 1.5 1.5s-.6 1.5-1.5 1.5zM919 380.5h-12.1c-.8 0-1.5-.7-1.5-1.5s.7-1.5 1.5-1.5H919c.8 0 1.5.7 1.5 1.5s-.7 1.5-1.5 1.5zm-24.2 0h-12.1c-.8 0-1.5-.7-1.5-1.5s.7-1.5 1.5-1.5h12.1c.8 0 1.5.7 1.5 1.5s-.7 1.5-1.5 1.5zm-24.2 0h-12.1c-.8 0-1.5-.7-1.5-1.5s.7-1.5 1.5-1.5h12.1c.8 0 1.5.7 1.5 1.5s-.7 1.5-1.5 1.5zm-24.2 0h-12.1c-.8 0-1.5-.7-1.5-1.5s.7-1.5 1.5-1.5h12.1c.8 0 1.5.7 1.5 1.5s-.7 1.5-1.5 1.5zm-24.2 0h-12.1c-.8 0-1.5-.7-1.5-1.5s.7-1.5 1.5-1.5h12.1c.8 0 1.5.7 1.5 1.5s-.7 1.5-1.5 1.5zm-24.2 0h-12.1c-.8 0-1.5-.7-1.5-1.5s.7-1.5 1.5-1.5H798c.8 0 1.5.7 1.5 1.5s-.7 1.5-1.5 1.5zm-24.2 0h-12.1c-.8 0-1.5-.7-1.5-1.5s.7-1.5 1.5-1.5h12.1c.8 0 1.5.7 1.5 1.5s-.7 1.5-1.5 1.5zm-24.2 0h-12.1c-.8 0-1.5-.7-1.5-1.5s.7-1.5 1.5-1.5h12.1c.8 0 1.5.7 1.5 1.5s-.7 1.5-1.5 1.5zm-24.2 0h-12.1c-.8 0-1.5-.7-1.5-1.5s.7-1.5 1.5-1.5h12.1c.8 0 1.5.7 1.5 1.5s-.7 1.5-1.5 1.5zm-24.2 0H689c-.8 0-1.5-.7-1.5-1.5s.7-1.5 1.5-1.5h12.1c.8 0 1.5.7 1.5 1.5s-.6 1.5-1.4 1.5zm-24.2 0h-12.1c-.8 0-1.5-.7-1.5-1.5s.7-1.5 1.5-1.5H677c.8 0 1.5.7 1.5 1.5s-.7 1.5-1.5 1.5zm-24.3 0h-12.1c-.8 0-1.5-.7-1.5-1.5s.7-1.5 1.5-1.5h12.1c.8 0 1.5.7 1.5 1.5s-.6 1.5-1.5 1.5zm-24.2 0h-12.1c-.8 0-1.5-.7-1.5-1.5s.7-1.5 1.5-1.5h12.1c.8 0 1.5.7 1.5 1.5s-.6 1.5-1.5 1.5zm-24.2 0h-12.1c-.8 0-1.5-.7-1.5-1.5s.7-1.5 1.5-1.5h12.1c.8 0 1.5.7 1.5 1.5s-.6 1.5-1.5 1.5zm-24.2 0H568c-.8 0-1.5-.7-1.5-1.5s.7-1.5 1.5-1.5h12.1c.8 0 1.5.7 1.5 1.5s-.6 1.5-1.5 1.5zm-24.2 0h-12.1c-.8 0-1.5-.7-1.5-1.5s.7-1.5 1.5-1.5h12.1c.8 0 1.5.7 1.5 1.5s-.6 1.5-1.5 1.5zm-24.2 0h-12.1c-.8 0-1.5-.7-1.5-1.5s.7-1.5 1.5-1.5h12.1c.8 0 1.5.7 1.5 1.5s-.6 1.5-1.5 1.5zm-24.2 0h-12.1c-.8 0-1.5-.7-1.5-1.5s.7-1.5 1.5-1.5h12.1c.8 0 1.5.7 1.5 1.5s-.6 1.5-1.5 1.5zm-24.2 0h-12.1c-.8 0-1.5-.7-1.5-1.5s.7-1.5 1.5-1.5h12.1c.8 0 1.5.7 1.5 1.5s-.6 1.5-1.5 1.5zm-24.2 0H447c-.8 0-1.5-.7-1.5-1.5s.7-1.5 1.5-1.5h12.1c.8 0 1.5.7 1.5 1.5s-.6 1.5-1.5 1.5zM937.1 380.5h-6c-.8 0-1.5-.7-1.5-1.5s.7-1.5 1.5-1.5h6c.8 0 1.5.7 1.5 1.5s-.7 1.5-1.5 1.5z"/></g><g><path fill="#F4B8DD" d="M683 630.3V127.6"/><path fill="#FF1493" d="M683 631.8c-.8 0-1.5-.7-1.5-1.5v-6c0-.8.7-1.5 1.5-1.5s1.5.7 1.5 1.5v6c0 .8-.7 1.5-1.5 1.5zM683 613.8c-.8 0-1.5-.7-1.5-1.5v-12c0-.8.7-1.5 1.5-1.5s1.5.7 1.5 1.5v12c0 .8-.7 1.5-1.5 1.5zm0-23.9c-.8 0-1.5-.7-1.5-1.5v-12c0-.8.7-1.5 1.5-1.5s1.5.7 1.5 1.5v12c0 .8-.7 1.5-1.5 1.5zm0-23.9c-.8 0-1.5-.7-1.5-1.5v-12c0-.8.7-1.5 1.5-1.5s1.5.7 1.5 1.5v12c0 .8-.7 1.5-1.5 1.5zm0-24c-.8 0-1.5-.7-1.5-1.5v-12c0-.8.7-1.5 1.5-1.5s1.5.7 1.5 1.5v12c0 .8-.7 1.5-1.5 1.5zm0-23.9c-.8 0-1.5-.7-1.5-1.5v-12c0-.8.7-1.5 1.5-1.5s1.5.7 1.5 1.5v12c0 .8-.7 1.5-1.5 1.5zm0-24c-.8 0-1.5-.7-1.5-1.5v-12c0-.8.7-1.5 1.5-1.5s1.5.7 1.5 1.5v12c0 .9-.7 1.5-1.5 1.5zm0-23.9c-.8 0-1.5-.7-1.5-1.5v-12c0-.8.7-1.5 1.5-1.5s1.5.7 1.5 1.5v12c0 .8-.7 1.5-1.5 1.5zm0-23.9c-.8 0-1.5-.7-1.5-1.5v-12c0-.8.7-1.5 1.5-1.5s1.5.7 1.5 1.5v12c0 .8-.7 1.5-1.5 1.5zm0-24c-.8 0-1.5-.7-1.5-1.5v-12c0-.8.7-1.5 1.5-1.5s1.5.7 1.5 1.5v12c0 .9-.7 1.5-1.5 1.5zm0-23.9c-.8 0-1.5-.7-1.5-1.5v-12c0-.8.7-1.5 1.5-1.5s1.5.7 1.5 1.5v12c0 .8-.7 1.5-1.5 1.5zm0-23.9c-.8 0-1.5-.7-1.5-1.5v-12c0-.8.7-1.5 1.5-1.5s1.5.7 1.5 1.5v12c0 .8-.7 1.5-1.5 1.5zm0-24c-.8 0-1.5-.7-1.5-1.5v-12c0-.8.7-1.5 1.5-1.5s1.5.7 1.5 1.5v12c0 .9-.7 1.5-1.5 1.5zm0-23.9c-.8 0-1.5-.7-1.5-1.5v-12c0-.8.7-1.5 1.5-1.5s1.5.7 1.5 1.5v12c0 .8-.7 1.5-1.5 1.5zm0-23.9c-.8 0-1.5-.7-1.5-1.5v-12c0-.8.7-1.5 1.5-1.5s1.5.7 1.5 1.5v12c0 .8-.7 1.5-1.5 1.5zm0-24c-.8 0-1.5-.7-1.5-1.5v-12c0-.8.7-1.5 1.5-1.5s1.5.7 1.5 1.5v12c0 .9-.7 1.5-1.5 1.5zm0-23.9c-.8 0-1.5-.7-1.5-1.5v-12c0-.8.7-1.5 1.5-1.5s1.5.7 1.5 1.5v12c0 .8-.7 1.5-1.5 1.5zm0-23.9c-.8 0-1.5-.7-1.5-1.5v-12c0-.8.7-1.5 1.5-1.5s1.5.7 1.5 1.5v12c0 .8-.7 1.5-1.5 1.5zm0-24c-.8 0-1.5-.7-1.5-1.5v-12c0-.8.7-1.5 1.5-1.5s1.5.7 1.5 1.5v12c0 .9-.7 1.5-1.5 1.5zm0-23.9c-.8 0-1.5-.7-1.5-1.5v-12c0-.8.7-1.5 1.5-1.5s1.5.7 1.5 1.5v12c0 .8-.7 1.5-1.5 1.5zm0-23.9c-.8 0-1.5-.7-1.5-1.5v-12c0-.8.7-1.5 1.5-1.5s1.5.7 1.5 1.5v12c0 .8-.7 1.5-1.5 1.5zM683 135.1c-.8 0-1.5-.7-1.5-1.5v-6c0-.8.7-1.5 1.5-1.5s1.5.7 1.5 1.5v6c0 .9-.7 1.5-1.5 1.5z"/></g><g><path fill="#FF1493" d="M936.6 635.3H429.4c-1.4 0-2.5-1.1-2.5-2.5V125.5c0-1.4 1.1-2.5 2.5-2.5h507.3c1.4 0 2.5 1.1 2.5 2.5v507.3c-.1 1.4-1.2 2.5-2.6 2.5zm-504.7-5h502.3V128H431.9v502.3z"/></g><g><path d="M100.6 150.8c-1.6-.8-2.8-2-3.7-3.5-.9-1.5-1.3-3.2-1.3-5.1s.4-3.6 1.3-5.1c.9-1.5 2.1-2.7 3.7-3.5 1.6-.8 3.4-1.3 5.4-1.3 1.9 0 3.6.4 5 1.2 1.4.8 2.5 1.9 3.2 3.3l-3.5 2c-.6-.9-1.2-1.6-2.1-2-.8-.4-1.7-.7-2.7-.7-1.7 0-3.1.5-4.2 1.6s-1.7 2.6-1.7 4.4c0 1.8.5 3.3 1.6 4.4 1.1 1.1 2.5 1.6 4.2 1.6 1 0 1.9-.2 2.7-.7.8-.4 1.5-1.1 2.1-2l3.5 2c-.7 1.4-1.8 2.6-3.3 3.3-1.4.8-3.1 1.2-5 1.2-1.8.2-3.6-.3-5.2-1.1zM121.2 150.8c-1.6-.8-2.8-2-3.7-3.5-.9-1.5-1.3-3.2-1.3-5.1s.4-3.6 1.3-5.1c.9-1.5 2.1-2.7 3.7-3.5 1.6-.8 3.3-1.3 5.3-1.3s3.7.4 5.3 1.3c1.6.8 2.8 2 3.7 3.5.9 1.5 1.3 3.2 1.3 5.1s-.4 3.6-1.3 5.1c-.9 1.5-2.1 2.7-3.7 3.5-1.6.8-3.3 1.3-5.3 1.3s-3.8-.5-5.3-1.3zm9.3-4.3c1.1-1.1 1.6-2.6 1.6-4.4 0-1.8-.5-3.3-1.6-4.4-1.1-1.1-2.4-1.7-4.1-1.7-1.7 0-3 .6-4.1 1.7s-1.6 2.6-1.6 4.4c0 1.8.5 3.3 1.6 4.4s2.4 1.7 4.1 1.7c1.7 0 3-.6 4.1-1.7zM157.7 134.5c1.5 1.4 2.2 3.5 2.2 6.3v11h-4.5v-10.4c0-1.7-.4-2.9-1.2-3.8s-1.9-1.3-3.4-1.3c-1.7 0-3 .5-3.9 1.5-1 1-1.4 2.4-1.4 4.3v9.7H141v-19.2h4.3v2.5c.7-.9 1.7-1.6 2.8-2 1.1-.5 2.4-.7 3.8-.7 2.4 0 4.4.7 5.8 2.1zM177.2 150.8c-.5.4-1.2.8-1.9 1-.8.2-1.6.3-2.4.3-2.1 0-3.7-.6-4.9-1.7s-1.7-2.7-1.7-4.8v-9.3h-3.2v-3.6h3.2v-4.4h4.5v4.4h5.1v3.6h-5.1v9.1c0 .9.2 1.7.7 2.1.5.5 1.1.7 2 .7 1 0 1.8-.3 2.5-.8l1.2 3.4zM194.8 134.4c1.5 1.4 2.2 3.4 2.2 6.1v11.3h-4.2v-2.3c-.6.8-1.3 1.5-2.4 1.9-1 .4-2.2.7-3.7.7s-2.7-.2-3.8-.7c-1.1-.5-1.9-1.2-2.5-2.1-.6-.9-.9-1.9-.9-3 0-1.7.6-3.1 1.9-4.2 1.3-1 3.3-1.6 6.1-1.6h5v-.3c0-1.3-.4-2.4-1.2-3.1-.8-.7-2-1.1-3.6-1.1-1.1 0-2.1.2-3.2.5-1 .3-1.9.8-2.6 1.4l-1.8-3.3c1-.8 2.2-1.4 3.6-1.8 1.4-.4 2.9-.6 4.5-.6 2.9.2 5.1.8 6.6 2.2zm-4.2 13.6c.9-.5 1.5-1.3 1.9-2.2v-2.2h-4.6c-2.6 0-3.9.9-3.9 2.6 0 .8.3 1.5 1 1.9.6.5 1.5.7 2.7.7 1.1 0 2.1-.3 2.9-.8zM203 128.6c-.6-.5-.8-1.2-.8-1.9s.3-1.4.8-1.9c.6-.5 1.2-.8 2.1-.8.8 0 1.5.2 2.1.7.6.5.8 1.1.8 1.9 0 .8-.3 1.5-.8 2s-1.2.8-2.1.8c-.9 0-1.6-.2-2.1-.8zm-.2 4h4.5v19.2h-4.5v-19.2zM229.9 134.5c1.5 1.4 2.2 3.5 2.2 6.3v11h-4.5v-10.4c0-1.7-.4-2.9-1.2-3.8s-1.9-1.3-3.4-1.3c-1.7 0-3 .5-3.9 1.5-1 1-1.4 2.4-1.4 4.3v9.7h-4.5v-19.2h4.3v2.5c.7-.9 1.7-1.6 2.8-2 1.1-.5 2.4-.7 3.8-.7 2.4 0 4.3.7 5.8 2.1zM256 143.6h-15.1c.3 1.4 1 2.5 2.1 3.4 1.1.8 2.5 1.2 4.2 1.2 2.1 0 3.9-.7 5.2-2.1l2.4 2.8c-.9 1-2 1.8-3.3 2.3-1.3.5-2.8.8-4.5.8-2.1 0-4-.4-5.6-1.3-1.6-.8-2.9-2-3.7-3.5-.9-1.5-1.3-3.2-1.3-5.1 0-1.9.4-3.6 1.3-5.1.9-1.5 2-2.7 3.5-3.5 1.5-.8 3.2-1.3 5.1-1.3 1.9 0 3.5.4 5 1.2 1.5.8 2.6 2 3.5 3.5.8 1.5 1.2 3.2 1.2 5.2.1.5.1 1 0 1.5zm-13.3-6.4c-1 .9-1.6 2-1.8 3.4h10.9c-.2-1.4-.8-2.5-1.8-3.4-1-.9-2.2-1.3-3.7-1.3-1.4.1-2.6.5-3.6 1.3zM271.5 132.4v4.3c-.4-.1-.7-.1-1-.1-1.8 0-3.1.5-4.1 1.5-1 1-1.5 2.5-1.5 4.4v9.3h-4.5v-19.2h4.3v2.8c1.3-2 3.6-3 6.8-3z"/></g><g><path d="M283.413 144.944l.237-2.99 145.547 11.503-.236 2.991z"/></g><g><path fill="#CFD9FF" d="M683 130h249v249H683z"/><path fill="#3976B2" d="M932 381H683c-1.1 0-2-.9-2-2V130c0-1.1.9-2 2-2h249c1.1 0 2 .9 2 2v249c0 1.1-.9 2-2 2zm-247-4h245V132H685v245z"/></g><g><path d="M994 468.2c-1.5-.4-2.7-.9-3.6-1.5l1.7-3.4c.9.6 1.9 1 3.1 1.4 1.2.3 2.4.5 3.6.5 2.7 0 4-.7 4-2.1 0-.7-.3-1.1-1-1.4-.7-.3-1.8-.5-3.3-.8-1.6-.2-2.9-.5-3.9-.8-1-.3-1.9-.9-2.6-1.6-.7-.8-1.1-1.9-1.1-3.3 0-1.8.8-3.3 2.3-4.4 1.5-1.1 3.6-1.6 6.2-1.6 1.3 0 2.6.1 4 .4 1.3.3 2.4.7 3.2 1.2l-1.7 3.4c-1.6-1-3.5-1.4-5.5-1.4-1.3 0-2.3.2-3 .6-.7.4-1 .9-1 1.6 0 .7.4 1.2 1.1 1.5.7.3 1.9.6 3.4.8 1.5.2 2.8.5 3.8.8s1.8.8 2.5 1.6 1.1 1.8 1.1 3.2c0 1.8-.8 3.2-2.3 4.3-1.6 1.1-3.7 1.6-6.4 1.6-1.5 0-3.1-.2-4.6-.6zM1011.4 445.4c-.6-.5-.8-1.2-.8-1.9 0-.8.3-1.4.8-1.9.6-.5 1.2-.8 2.1-.8.8 0 1.5.2 2.1.7.6.5.8 1.1.8 1.9 0 .8-.3 1.5-.8 2s-1.2.8-2.1.8c-.8 0-1.5-.3-2.1-.8zm-.2 4h4.5v19.2h-4.5v-19.2zM1038.4 451.3c1.5 1.4 2.2 3.5 2.2 6.3v11h-4.5v-10.4c0-1.7-.4-2.9-1.2-3.8-.8-.9-1.9-1.3-3.4-1.3-1.7 0-3 .5-3.9 1.5-1 1-1.4 2.4-1.4 4.3v9.7h-4.5v-19.2h4.3v2.5c.7-.9 1.7-1.6 2.8-2 1.1-.5 2.4-.7 3.8-.7 2.4 0 4.3.7 5.8 2.1zM1065.5 449.4v16.3c0 6.8-3.5 10.2-10.4 10.2-1.8 0-3.6-.2-5.3-.7-1.7-.5-3-1.1-4.1-2l2-3.4c.8.7 1.9 1.3 3.2 1.7 1.3.4 2.6.6 3.9.6 2.1 0 3.7-.5 4.6-1.4 1-1 1.5-2.4 1.5-4.4v-1c-.8.8-1.7 1.5-2.8 1.9-1.1.4-2.3.6-3.6.6-1.8 0-3.5-.4-5-1.2-1.5-.8-2.6-1.9-3.5-3.3-.9-1.4-1.3-3-1.3-4.9s.4-3.4 1.3-4.8 2-2.5 3.5-3.3c1.5-.8 3.1-1.2 5-1.2 1.4 0 2.7.2 3.8.7 1.1.5 2.1 1.2 2.9 2.1v-2.6h4.3zm-6 13c1.1-1 1.6-2.3 1.6-4 0-1.6-.5-2.9-1.6-3.9s-2.5-1.5-4.2-1.5c-1.7 0-3.1.5-4.2 1.5s-1.6 2.3-1.6 3.9.5 3 1.6 4 2.5 1.5 4.2 1.5c1.7 0 3.1-.5 4.2-1.5zM1071.4 441.9h4.5v26.7h-4.5v-26.7zM1099.8 460.4h-15.1c.3 1.4 1 2.5 2.1 3.4s2.5 1.2 4.2 1.2c2.1 0 3.9-.7 5.2-2.1l2.4 2.8c-.9 1-2 1.8-3.3 2.3-1.3.5-2.8.8-4.5.8-2.1 0-4-.4-5.6-1.3-1.6-.8-2.9-2-3.7-3.5s-1.3-3.2-1.3-5.1c0-1.9.4-3.6 1.3-5.1.9-1.5 2-2.7 3.5-3.5 1.5-.8 3.2-1.3 5.1-1.3 1.9 0 3.5.4 5 1.2 1.5.8 2.6 2 3.5 3.5.8 1.5 1.2 3.2 1.2 5.2.1.5.1.9 0 1.5zm-13.3-6.4c-1 .9-1.6 2-1.8 3.4h10.9c-.2-1.4-.8-2.5-1.8-3.4s-2.2-1.3-3.7-1.3c-1.3.1-2.6.5-3.6 1.3zM1132.2 460.4h-15.1c.3 1.4 1 2.5 2.1 3.4s2.5 1.2 4.2 1.2c2.1 0 3.9-.7 5.2-2.1l2.4 2.8c-.9 1-2 1.8-3.3 2.3-1.3.5-2.8.8-4.5.8-2.1 0-4-.4-5.6-1.3-1.6-.8-2.9-2-3.7-3.5s-1.3-3.2-1.3-5.1c0-1.9.4-3.6 1.3-5.1.9-1.5 2-2.7 3.5-3.5 1.5-.8 3.2-1.3 5.1-1.3 1.9 0 3.5.4 5 1.2 1.5.8 2.6 2 3.5 3.5.8 1.5 1.2 3.2 1.2 5.2v1.5zm-13.3-6.4c-1 .9-1.6 2-1.8 3.4h10.9c-.2-1.4-.8-2.5-1.8-3.4s-2.2-1.3-3.7-1.3c-1.4.1-2.6.5-3.6 1.3zM1136.6 441.9h4.5v26.7h-4.5v-26.7zM1165 460.4h-15.1c.3 1.4 1 2.5 2.1 3.4s2.5 1.2 4.2 1.2c2.1 0 3.9-.7 5.2-2.1l2.4 2.8c-.9 1-2 1.8-3.3 2.3-1.3.5-2.8.8-4.5.8-2.1 0-4-.4-5.6-1.3-1.6-.8-2.9-2-3.7-3.5s-1.3-3.2-1.3-5.1c0-1.9.4-3.6 1.3-5.1.9-1.5 2-2.7 3.5-3.5 1.5-.8 3.2-1.3 5.1-1.3 1.9 0 3.5.4 5 1.2 1.5.8 2.6 2 3.5 3.5.8 1.5 1.2 3.2 1.2 5.2v1.5zm-13.3-6.4c-1 .9-1.6 2-1.8 3.4h10.9c-.2-1.4-.8-2.5-1.8-3.4s-2.2-1.3-3.7-1.3c-1.4.1-2.6.5-3.6 1.3zM1199.4 451.3c1.4 1.4 2.1 3.5 2.1 6.3v11h-4.5v-10.4c0-1.7-.4-2.9-1.1-3.8-.7-.9-1.8-1.3-3.2-1.3-1.5 0-2.7.5-3.6 1.5s-1.4 2.4-1.4 4.3v9.8h-4.5v-10.4c0-1.7-.4-2.9-1.1-3.8-.7-.9-1.8-1.3-3.2-1.3-1.5 0-2.8.5-3.7 1.5-.9 1-1.3 2.4-1.3 4.3v9.8h-4.5v-19.2h4.3v2.4c.7-.9 1.6-1.5 2.7-2s2.3-.7 3.6-.7c1.4 0 2.7.3 3.8.8 1.1.5 2 1.3 2.6 2.4.8-1 1.8-1.8 3.1-2.4 1.2-.6 2.6-.8 4.1-.8 2.4-.1 4.4.6 5.8 2zM1225.4 460.4h-15.1c.3 1.4 1 2.5 2.1 3.4s2.5 1.2 4.2 1.2c2.1 0 3.9-.7 5.2-2.1l2.4 2.8c-.9 1-2 1.8-3.3 2.3-1.3.5-2.8.8-4.5.8-2.1 0-4-.4-5.6-1.3-1.6-.8-2.9-2-3.7-3.5-.9-1.5-1.3-3.2-1.3-5.1 0-1.9.4-3.6 1.3-5.1.9-1.5 2-2.7 3.5-3.5s3.2-1.3 5.1-1.3c1.9 0 3.5.4 5 1.2 1.5.8 2.6 2 3.5 3.5.8 1.5 1.2 3.2 1.2 5.2.1.5.1.9 0 1.5zm-13.3-6.4c-1 .9-1.6 2-1.8 3.4h10.9c-.2-1.4-.8-2.5-1.8-3.4-1-.9-2.2-1.3-3.7-1.3-1.3.1-2.6.5-3.6 1.3zM1246.6 451.3c1.5 1.4 2.2 3.5 2.2 6.3v11h-4.5v-10.4c0-1.7-.4-2.9-1.2-3.8-.8-.9-1.9-1.3-3.4-1.3-1.7 0-3 .5-3.9 1.5-1 1-1.4 2.4-1.4 4.3v9.7h-4.5v-19.2h4.3v2.5c.7-.9 1.7-1.6 2.8-2 1.1-.5 2.4-.7 3.8-.7 2.4 0 4.3.7 5.8 2.1zM1266.1 467.5c-.5.4-1.2.8-1.9 1-.8.2-1.6.3-2.4.3-2.1 0-3.7-.6-4.9-1.7-1.2-1.1-1.7-2.7-1.7-4.8V453h-3.2v-3.6h3.2V445h4.5v4.4h5.1v3.6h-5.1v9.1c0 .9.2 1.7.7 2.1.5.5 1.1.7 2 .7 1 0 1.8-.3 2.5-.8l1.2 3.4zM1273.7 463.7c.6.6.8 1.3.8 2.2 0 .4-.1.8-.2 1.2-.1.4-.3 1-.7 1.9l-1.8 5.1h-2.9l1.4-5.5c-.5-.2-.9-.6-1.2-1s-.4-1-.4-1.6c0-.9.3-1.6.8-2.2s1.2-.8 2.1-.8c.8-.1 1.5.1 2.1.7zM1006.5 494.4c1.5 1.4 2.2 3.4 2.2 6.1v11.3h-4.2v-2.3c-.6.8-1.3 1.5-2.4 1.9-1 .4-2.2.7-3.7.7-1.4 0-2.7-.2-3.8-.7-1.1-.5-1.9-1.2-2.5-2.1-.6-.9-.9-1.9-.9-3 0-1.7.6-3.1 1.9-4.2s3.3-1.6 6.1-1.6h5v-.3c0-1.3-.4-2.4-1.2-3.1-.8-.7-2-1.1-3.6-1.1-1.1 0-2.1.2-3.2.5s-1.9.8-2.6 1.4l-1.8-3.3c1-.8 2.2-1.4 3.6-1.8 1.4-.4 2.9-.6 4.5-.6 3 .2 5.1.8 6.6 2.2zm-4.1 13.6c.9-.5 1.5-1.3 1.9-2.2v-2.2h-4.6c-2.6 0-3.9.9-3.9 2.6 0 .8.3 1.5 1 1.9.6.5 1.5.7 2.7.7 1 0 2-.3 2.9-.8zM1030.2 493.6c1.5.8 2.6 2 3.5 3.5s1.3 3.2 1.3 5.1c0 1.9-.4 3.7-1.3 5.2s-2 2.7-3.5 3.5c-1.5.8-3.2 1.2-5 1.2-1.3 0-2.5-.2-3.6-.7-1.1-.5-2-1.1-2.8-2.1v2.5h-4.3v-26.7h4.5v9.8c.8-.8 1.7-1.5 2.7-1.9 1-.4 2.2-.6 3.4-.6 2 0 3.6.4 5.1 1.2zm-1.4 12.9c1.1-1.1 1.6-2.6 1.6-4.4 0-1.8-.5-3.3-1.6-4.4-1.1-1.1-2.4-1.7-4.1-1.7-1.1 0-2.1.2-2.9.7-.9.5-1.5 1.2-2.1 2.1s-.8 2-.8 3.2.3 2.3.8 3.2 1.2 1.6 2.1 2.1c.9.5 1.8.7 2.9.7 1.6.2 3-.4 4.1-1.5zM1040.6 511.4c-1.5-.4-2.7-.9-3.6-1.5l1.7-3.4c.9.6 1.9 1 3.1 1.4 1.2.3 2.4.5 3.6.5 2.7 0 4-.7 4-2.1 0-.7-.3-1.1-1-1.4-.7-.3-1.8-.5-3.3-.8-1.6-.2-2.9-.5-3.9-.8-1-.3-1.9-.9-2.6-1.6-.7-.8-1.1-1.9-1.1-3.3 0-1.8.8-3.3 2.3-4.4 1.5-1.1 3.6-1.6 6.2-1.6 1.3 0 2.6.1 4 .4 1.3.3 2.4.7 3.2 1.2l-1.7 3.4c-1.6-1-3.5-1.4-5.5-1.4-1.3 0-2.3.2-3 .6-.7.4-1 .9-1 1.6 0 .7.4 1.2 1.1 1.5.7.3 1.9.6 3.4.8 1.5.2 2.8.5 3.8.8s1.8.8 2.5 1.6 1.1 1.8 1.1 3.2c0 1.8-.8 3.2-2.3 4.3-1.6 1.1-3.7 1.6-6.4 1.6-1.6 0-3.1-.2-4.6-.6zM1061.1 510.8c-1.6-.8-2.8-2-3.7-3.5-.9-1.5-1.3-3.2-1.3-5.1 0-1.9.4-3.6 1.3-5.1.9-1.5 2.1-2.7 3.7-3.5s3.3-1.3 5.3-1.3 3.7.4 5.3 1.3c1.6.8 2.8 2 3.7 3.5s1.3 3.2 1.3 5.1c0 1.9-.4 3.6-1.3 5.1s-2.1 2.7-3.7 3.5c-1.6.8-3.3 1.3-5.3 1.3-1.9-.1-3.7-.5-5.3-1.3zm9.4-4.3c1.1-1.1 1.6-2.6 1.6-4.4 0-1.8-.5-3.3-1.6-4.4-1.1-1.1-2.4-1.7-4.1-1.7-1.7 0-3 .6-4.1 1.7-1.1 1.1-1.6 2.6-1.6 4.4 0 1.8.5 3.3 1.6 4.4 1.1 1.1 2.4 1.7 4.1 1.7 1.7 0 3-.6 4.1-1.7zM1081 485.1h4.5v26.7h-4.5v-26.7zM1110 492.6v19.2h-4.3v-2.4c-.7.9-1.6 1.5-2.7 2s-2.2.7-3.5.7c-2.6 0-4.6-.7-6.1-2.1-1.5-1.4-2.2-3.5-2.2-6.4v-11h4.5V503c0 1.7.4 3 1.2 3.9.8.9 1.9 1.3 3.3 1.3 1.6 0 2.9-.5 3.8-1.5.9-1 1.4-2.4 1.4-4.3v-9.7h4.6zM1127.5 510.8c-.5.4-1.2.8-1.9 1-.8.2-1.6.3-2.4.3-2.1 0-3.7-.6-4.9-1.7-1.2-1.1-1.7-2.7-1.7-4.8v-9.3h-3.2v-3.6h3.2v-4.4h4.5v4.4h5.1v3.6h-5.1v9.1c0 .9.2 1.7.7 2.1.5.5 1.1.7 2 .7 1 0 1.8-.3 2.5-.8l1.2 3.4zM1148.5 503.6h-15.1c.3 1.4 1 2.5 2.1 3.4s2.5 1.2 4.2 1.2c2.1 0 3.9-.7 5.2-2.1l2.4 2.8c-.9 1-2 1.8-3.3 2.3-1.3.5-2.8.8-4.5.8-2.1 0-4-.4-5.6-1.3-1.6-.8-2.9-2-3.7-3.5s-1.3-3.2-1.3-5.1c0-1.9.4-3.6 1.3-5.1.9-1.5 2-2.7 3.5-3.5 1.5-.8 3.2-1.3 5.1-1.3 1.9 0 3.5.4 5 1.2 1.5.8 2.6 2 3.5 3.5.8 1.5 1.2 3.2 1.2 5.2.1.5.1.9 0 1.5zm-13.3-6.4c-1 .9-1.6 2-1.8 3.4h10.9c-.2-1.4-.8-2.5-1.8-3.4s-2.2-1.3-3.7-1.3c-1.4.1-2.6.5-3.6 1.3zM1008.4 536.8c1.5.8 2.6 2 3.5 3.5.8 1.5 1.3 3.2 1.3 5.1 0 1.9-.4 3.7-1.3 5.2-.8 1.5-2 2.7-3.5 3.5-1.5.8-3.1 1.2-5 1.2-2.6 0-4.6-.9-6.2-2.6v9.3h-4.5v-26.2h4.3v2.5c.7-.9 1.7-1.6 2.8-2.1 1.1-.5 2.3-.7 3.6-.7 1.8.1 3.5.5 5 1.3zm-1.5 12.9c1.1-1.1 1.6-2.6 1.6-4.4 0-1.8-.5-3.3-1.6-4.4-1.1-1.1-2.4-1.7-4.1-1.7-1.1 0-2.1.2-2.9.7-.9.5-1.5 1.2-2.1 2.1-.5.9-.8 2-.8 3.2s.3 2.3.8 3.2c.5.9 1.2 1.6 2.1 2.1.9.5 1.8.7 2.9.7 1.7.2 3-.4 4.1-1.5zM1020.8 554c-1.6-.8-2.8-2-3.7-3.5s-1.3-3.2-1.3-5.1c0-1.9.4-3.6 1.3-5.1s2.1-2.7 3.7-3.5c1.6-.8 3.3-1.3 5.3-1.3s3.7.4 5.3 1.3c1.6.8 2.8 2 3.7 3.5.9 1.5 1.3 3.2 1.3 5.1 0 1.9-.4 3.6-1.3 5.1-.9 1.5-2.1 2.7-3.7 3.5-1.6.8-3.3 1.3-5.3 1.3-2-.1-3.8-.5-5.3-1.3zm9.3-4.3c1.1-1.1 1.6-2.6 1.6-4.4 0-1.8-.5-3.3-1.6-4.4-1.1-1.1-2.4-1.7-4.1-1.7s-3 .6-4.1 1.7c-1.1 1.1-1.6 2.6-1.6 4.4 0 1.8.5 3.3 1.6 4.4 1.1 1.1 2.4 1.7 4.1 1.7s3-.6 4.1-1.7zM1042 554.6c-1.5-.4-2.7-.9-3.6-1.5l1.7-3.4c.9.6 1.9 1 3.1 1.4s2.4.5 3.6.5c2.7 0 4-.7 4-2.1 0-.7-.3-1.1-1-1.4-.7-.3-1.8-.5-3.3-.8-1.6-.2-2.9-.5-3.9-.8-1-.3-1.9-.9-2.6-1.6-.7-.8-1.1-1.9-1.1-3.3 0-1.8.8-3.3 2.3-4.4 1.5-1.1 3.6-1.6 6.2-1.6 1.3 0 2.6.1 4 .4 1.3.3 2.4.7 3.2 1.2l-1.7 3.4c-1.6-1-3.5-1.4-5.5-1.4-1.3 0-2.3.2-3 .6-.7.4-1 .9-1 1.6 0 .7.4 1.2 1.1 1.5.7.3 1.9.6 3.4.8 1.5.2 2.8.5 3.8.8 1 .3 1.8.8 2.5 1.6.7.7 1.1 1.8 1.1 3.2 0 1.8-.8 3.2-2.3 4.3-1.6 1.1-3.7 1.6-6.4 1.6-1.6 0-3.2-.2-4.6-.6zM1059.3 531.8c-.6-.5-.8-1.2-.8-1.9 0-.8.3-1.4.8-1.9.6-.5 1.2-.8 2.1-.8.8 0 1.5.2 2.1.7.6.5.8 1.1.8 1.9 0 .8-.3 1.5-.8 2s-1.2.8-2.1.8c-.8 0-1.5-.3-2.1-.8zm-.2 4h4.5V555h-4.5v-19.2zM1081.1 554c-.5.4-1.2.8-1.9 1-.8.2-1.6.3-2.4.3-2.1 0-3.7-.6-4.9-1.7-1.2-1.1-1.7-2.7-1.7-4.8v-9.3h-3.2v-3.6h3.2v-4.4h4.5v4.4h5.1v3.6h-5.1v9.1c0 .9.2 1.7.7 2.1.5.5 1.1.7 2 .7 1 0 1.8-.3 2.5-.8l1.2 3.4zM1085 531.8c-.6-.5-.8-1.2-.8-1.9 0-.8.3-1.4.8-1.9.6-.5 1.2-.8 2.1-.8.8 0 1.5.2 2.1.7.6.5.8 1.1.8 1.9 0 .8-.3 1.5-.8 2s-1.2.8-2.1.8c-.8 0-1.5-.3-2.1-.8zm-.2 4h4.5V555h-4.5v-19.2zM1098.6 554c-1.6-.8-2.8-2-3.7-3.5s-1.3-3.2-1.3-5.1c0-1.9.4-3.6 1.3-5.1s2.1-2.7 3.7-3.5c1.6-.8 3.3-1.3 5.3-1.3s3.7.4 5.3 1.3c1.6.8 2.8 2 3.7 3.5.9 1.5 1.3 3.2 1.3 5.1 0 1.9-.4 3.6-1.3 5.1-.9 1.5-2.1 2.7-3.7 3.5-1.6.8-3.3 1.3-5.3 1.3-2-.1-3.8-.5-5.3-1.3zm9.3-4.3c1.1-1.1 1.6-2.6 1.6-4.4 0-1.8-.5-3.3-1.6-4.4-1.1-1.1-2.4-1.7-4.1-1.7s-3 .6-4.1 1.7c-1.1 1.1-1.6 2.6-1.6 4.4 0 1.8.5 3.3 1.6 4.4 1.1 1.1 2.4 1.7 4.1 1.7s3.1-.6 4.1-1.7zM1135.2 537.7c1.5 1.4 2.2 3.5 2.2 6.3v11h-4.5v-10.4c0-1.7-.4-2.9-1.2-3.8-.8-.9-1.9-1.3-3.4-1.3-1.7 0-3 .5-3.9 1.5s-1.4 2.4-1.4 4.3v9.7h-4.5v-19.2h4.3v2.5c.7-.9 1.7-1.6 2.8-2 1.1-.5 2.4-.7 3.8-.7 2.4 0 4.3.7 5.8 2.1zM1161.3 546.8h-15.1c.3 1.4 1 2.5 2.1 3.4s2.5 1.2 4.2 1.2c2.1 0 3.9-.7 5.2-2.1l2.4 2.8c-.9 1-2 1.8-3.3 2.3-1.3.5-2.8.8-4.5.8-2.1 0-4-.4-5.6-1.3-1.6-.8-2.9-2-3.7-3.5s-1.3-3.2-1.3-5.1c0-1.9.4-3.6 1.3-5.1.9-1.5 2-2.7 3.5-3.5 1.5-.8 3.2-1.3 5.1-1.3 1.9 0 3.5.4 5 1.2 1.5.8 2.6 2 3.5 3.5.8 1.5 1.2 3.2 1.2 5.2v1.5zm-13.3-6.4c-1 .9-1.6 2-1.8 3.4h10.9c-.2-1.4-.8-2.5-1.8-3.4s-2.2-1.3-3.7-1.3c-1.4.1-2.6.5-3.6 1.3zM1184.5 528.3V555h-4.3v-2.5c-.7.9-1.7 1.6-2.8 2.1-1.1.5-2.3.7-3.6.7-1.8 0-3.5-.4-5-1.2-1.5-.8-2.6-2-3.5-3.5-.8-1.5-1.3-3.2-1.3-5.2 0-1.9.4-3.7 1.3-5.1.8-1.5 2-2.6 3.5-3.5 1.5-.8 3.1-1.2 5-1.2 1.3 0 2.4.2 3.5.6 1.1.4 2 1.1 2.7 1.9v-9.9h4.5zm-7.3 22.4c.9-.5 1.5-1.2 2.1-2.1s.8-2 .8-3.2-.3-2.3-.8-3.2-1.2-1.6-2.1-2.1c-.9-.5-1.8-.7-2.9-.7s-2.1.2-2.9.7c-.9.5-1.5 1.2-2.1 2.1-.5.9-.8 2-.8 3.2s.3 2.3.8 3.2c.5.9 1.2 1.6 2.1 2.1.9.5 1.8.7 2.9.7s2.1-.3 2.9-.7z"/></g><g><path d="M806.529 298.619l2-2.236 171.522 153.52-2 2.236z"/></g><g><path d="M973 138.4h3v226.2h-3z"/><path d="M965.5 141l9-15.5 9 15.5zM965.5 362l9 15.5 9-15.5z"/></g><g><path d="M1011.4 247.6c1.4 1.2 2.1 2.7 2.1 4.7 0 1.3-.3 2.4-.9 3.4-.6 1-1.6 1.8-2.8 2.4-1.2.6-2.8.9-4.6.9-1.5 0-2.9-.2-4.3-.6-1.4-.4-2.6-1-3.5-1.8l1.6-3c.8.6 1.7 1.1 2.8 1.5 1.1.4 2.2.6 3.4.6 1.4 0 2.5-.3 3.3-.9.8-.6 1.2-1.4 1.2-2.4 0-1.1-.4-1.9-1.3-2.4-.8-.5-2.3-.8-4.4-.8h-5.1l1.1-11.4h12.3v3.3h-9l-.5 4.9h2c3-.2 5.2.4 6.6 1.6zM1020.1 257.7c-1.3-.8-2.4-2.1-3.1-3.7-.8-1.6-1.1-3.6-1.1-5.8 0-2.2.4-4.2 1.1-5.8.8-1.6 1.8-2.9 3.1-3.7s2.8-1.3 4.5-1.3 3.2.4 4.5 1.3 2.4 2.1 3.1 3.7c.8 1.6 1.1 3.6 1.1 5.8 0 2.2-.4 4.2-1.1 5.8-.8 1.6-1.8 2.9-3.1 3.7-1.3.9-2.8 1.3-4.5 1.3s-3.2-.4-4.5-1.3zm8-3.9c.9-1.2 1.3-3.1 1.3-5.5s-.4-4.3-1.3-5.5c-.9-1.2-2.1-1.9-3.6-1.9s-2.7.6-3.5 1.9-1.3 3.1-1.3 5.5.4 4.3 1.3 5.5c.9 1.2 2 1.9 3.5 1.9 1.6-.1 2.8-.7 3.6-1.9zM1037.1 247.4c-.9-1.1-1.4-2.4-1.4-4.2 0-1.7.5-3.1 1.4-4.2.9-1.1 2.1-1.6 3.6-1.6s2.7.5 3.6 1.6c.9 1 1.4 2.4 1.4 4.2 0 1.7-.5 3.1-1.4 4.2-.9 1.1-2.1 1.6-3.6 1.6s-2.7-.5-3.6-1.6zm5.5-1.4c.5-.6.7-1.5.7-2.7 0-1.2-.2-2.1-.7-2.7s-1.1-1-1.9-1c-.8 0-1.4.3-1.9 1-.5.6-.7 1.5-.7 2.7 0 1.1.2 2 .7 2.7.5.7 1.1 1 1.9 1 .8-.1 1.4-.4 1.9-1zm10.7-8.3h2.9l-14.3 21h-2.9l14.3-21zm-2.5 19.6c-.9-1.1-1.4-2.4-1.4-4.2s.5-3.1 1.4-4.2c.9-1.1 2.1-1.6 3.6-1.6s2.7.5 3.6 1.6c.9 1.1 1.4 2.5 1.4 4.2s-.5 3.1-1.4 4.2c-.9 1.1-2.1 1.6-3.6 1.6s-2.7-.5-3.6-1.6zm5.5-1.4c.5-.6.7-1.5.7-2.7 0-1.1-.2-2-.7-2.7s-1.1-1-1.9-1-1.4.3-1.9 1c-.5.6-.7 1.5-.7 2.7 0 1.2.2 2.1.7 2.7.5.6 1.1 1 1.9 1s1.5-.4 1.9-1z"/></g></svg>