<svg xmlns="http://www.w3.org/2000/svg" viewBox="0 0 1366 768"><path fill="#FFF" d="M0 0h1366v768H0z"/><g data-name="Layer 3"><path fill="#f9d2ec" d="M428.95 125.09h508.11V633.2H428.95z"/><path fill="#ff1493" d="M937.05 634.7H429a1.5 1.5 0 01-1.5-1.5V125.09a1.5 1.5 0 011.5-1.5h508.1a1.5 1.5 0 011.5 1.5V633.2a1.5 1.5 0 01-1.55 1.5zm-506.6-3h505.1V126.59h-505.1z"/></g><g data-name="Layer 4"><path fill="#f4b8dd" d="M428.95 484.2l508.1-210.47"/><path fill="#f998d0" d="M429 485.2a1 1 0 01-.39-1.93l2.31-.95a1 1 0 011.31.54 1 1 0 01-.54 1.3l-2.31 1a1.08 1.08 0 01-.38.04zM440.41 480.45a1 1 0 01-.38-1.93l4.57-1.89a1 1 0 11.77 1.85l-4.58 1.89a1 1 0 01-.38.08zm13.73-5.69a1 1 0 01-.38-1.92l4.57-1.9a1 1 0 01.77 1.85l-4.58 1.89a.84.84 0 01-.38.08zm13.73-5.69a1 1 0 01-.38-1.92l4.58-1.9a1 1 0 011.3.54 1 1 0 01-.54 1.31l-4.58 1.9a1 1 0 01-.38.07zm13.73-5.69a1 1 0 01-.38-1.92l4.58-1.9a1 1 0 01.76 1.85l-4.57 1.9a1.07 1.07 0 01-.39.07zm13.73-5.68a1 1 0 01-.38-1.93l4.58-1.89a1 1 0 11.76 1.84l-4.57 1.9a1.09 1.09 0 01-.39.08zm13.74-5.7a1 1 0 01-.93-.62 1 1 0 01.54-1.31l4.58-1.89A1 1 0 11514 450l-4.58 1.89a1.08 1.08 0 01-.35.11zm13.73-5.69a1 1 0 01-.38-1.92l4.57-1.9a1 1 0 11.77 1.85l-4.58 1.89a.84.84 0 01-.38.09zm13.73-5.69a1 1 0 01-.38-1.92l4.57-1.9a1 1 0 11.77 1.85l-4.58 1.9a1 1 0 01-.38.08zm13.73-5.62a1 1 0 01-.38-1.93l4.58-1.9a1 1 0 011.3.55 1 1 0 01-.54 1.3l-4.58 1.9a1 1 0 01-.38.08zm13.74-5.74a1 1 0 01-.38-1.93l4.58-1.89a1 1 0 01.76 1.85l-4.57 1.89a1.09 1.09 0 01-.39.08zm13.73-5.69a1 1 0 01-.38-1.92l4.58-1.9a1 1 0 11.76 1.85l-4.57 1.89a1.09 1.09 0 01-.4.08zm13.74-5.69a1 1 0 01-.39-1.92l4.58-1.9a1 1 0 11.77 1.85l-4.58 1.9a1.06 1.06 0 01-.39.07zm13.73-5.69a1 1 0 01-.39-1.92l4.58-1.9a1 1 0 011.31.55 1 1 0 01-.54 1.3l-4.58 1.9a1 1 0 01-.39.07zm13.73-5.68a1 1 0 01-.38-1.93l4.57-1.89a1 1 0 011.31.54 1 1 0 01-.54 1.3l-4.58 1.9a1 1 0 01-.39.08zm13.73-5.69a1 1 0 01-.92-.62 1 1 0 01.54-1.31l4.57-1.89a1 1 0 11.77 1.85l-4.62 1.89a1 1 0 01-.35.08zm13.73-5.69a1 1 0 01-.38-1.92l4.58-1.9a1 1 0 01.76 1.85l-4.58 1.89a.84.84 0 01-.39.08zm27.47-11.37a1 1 0 01-.39-1.93l4.58-1.89a1 1 0 011.31.54 1 1 0 01-.54 1.3l-4.58 1.9a1.08 1.08 0 01-.39.08zm13.73-5.69a1 1 0 01-.93-.62 1 1 0 01.54-1.31l4.58-1.89a1 1 0 01.77 1.85L688 378a1 1 0 01-.42.07zm13.73-5.69a1 1 0 01-.38-1.92l4.57-1.9a1 1 0 11.77 1.85l-4.58 1.89a1 1 0 01-.39.08zm13.68-5.69a1 1 0 01-.38-1.92l4.57-1.9a1 1 0 11.77 1.85l-4.58 1.9a1 1 0 01-.38.07zm13.77-5.69a1 1 0 01-.38-1.92l4.58-1.9a1 1 0 01.76 1.85l-4.58 1.9a1 1 0 01-.38.07zm13.73-5.68a1 1 0 01-.38-1.93l4.58-1.89a1 1 0 01.76 1.84l-4.57 1.9a1.09 1.09 0 01-.39.08zm13.73-5.69a1 1 0 01-.92-.62 1 1 0 01.54-1.31l4.58-1.89a1 1 0 11.76 1.85l-4.57 1.89a1.09 1.09 0 01-.39.08zm13.77-5.69a1 1 0 01-.39-1.92l4.58-1.9a1 1 0 01.77 1.85l-4.58 1.89a.9.9 0 01-.38.08zm13.73-5.69a1 1 0 01-.39-1.92l4.58-1.9a1 1 0 01.77 1.85l-4.58 1.9a1 1 0 01-.41.07zm13.73-5.68a1 1 0 01-.93-.62 1 1 0 01.55-1.31l4.57-1.89a1 1 0 011.31.54 1 1 0 01-.54 1.3l-4.58 1.9a1 1 0 01-.41.08zm13.73-5.69a1 1 0 01-.92-.62 1 1 0 01.54-1.31l4.57-1.89a1 1 0 11.77 1.85l-4.58 1.89a1 1 0 01-.41.08zm13.73-5.69a1 1 0 01-.38-1.92l4.58-1.9a1 1 0 01.76 1.85l-4.58 1.89a.84.84 0 01-.41.08zm13.73-5.69a1 1 0 01-.38-1.92l4.58-1.9a1 1 0 01.76 1.85l-4.57 1.9a1.07 1.07 0 01-.42.07zm13.74-5.69a1 1 0 01-.39-1.92l4.58-1.9a1 1 0 01.77 1.85l-4.58 1.9a1.06 1.06 0 01-.41.07zm13.73-5.68a1 1 0 01-.93-.62 1 1 0 01.54-1.31l4.58-1.89a1 1 0 011.31.54 1 1 0 01-.54 1.3l-4.58 1.9a1.08 1.08 0 01-.41.08zm13.73-5.69a1 1 0 01-.38-1.93l4.57-1.89a1 1 0 01.77 1.85l-4.58 1.89a1 1 0 01-.41.08zm13.73-5.69a1 1 0 01-.38-1.92l4.57-1.9a1 1 0 11.77 1.85l-4.58 1.89a.84.84 0 01-.41.08zm13.73-5.69a1 1 0 01-.38-1.92l4.58-1.9a1 1 0 01.76 1.85l-4.58 1.9a1 1 0 01-.41.07zm13.69-5.68a1 1 0 01-.38-1.93l4.58-1.89a1 1 0 01.76 1.84l-4.57 1.9a1.09 1.09 0 01-.39.08zM934.75 275.69a1 1 0 01-.93-.62 1 1 0 01.54-1.31l2.31-.95a1 1 0 011.31.54 1 1 0 01-.54 1.3l-2.31 1a1.08 1.08 0 01-.38.04z"/><path fill="#f4b8dd" d="M430.31 631.65L936.96 125"/><path fill="#f998d0" d="M430.31 632.65a1 1 0 01-.71-.29 1 1 0 010-1.41l1.77-1.77a1 1 0 011.42 0 1 1 0 010 1.41l-1.79 1.77a1 1 0 01-.69.29zM439.12 623.85a1 1 0 01-.71-.3 1 1 0 010-1.41l3.52-3.52a1 1 0 011.41 0 1 1 0 010 1.42l-3.52 3.51a1 1 0 01-.7.3zm10.55-10.56a1 1 0 01-.71-1.7l3.52-3.52a1 1 0 011.42 0 1 1 0 010 1.41l-3.52 3.52a1 1 0 01-.71.29zm10.56-10.55a1 1 0 01-.71-1.71l3.52-3.52a1 1 0 011.41 0 1 1 0 010 1.42l-3.52 3.52a1 1 0 01-.7.29zm10.55-10.56a1 1 0 01-.71-.29 1 1 0 010-1.41l3.52-3.52a1 1 0 011.42 0 1 1 0 010 1.41l-3.52 3.52a1 1 0 01-.71.29zm10.56-10.55a1 1 0 01-.71-.3 1 1 0 010-1.41l3.52-3.52a1 1 0 011.41 0 1 1 0 010 1.42l-3.56 3.51a1 1 0 01-.66.3zm10.55-10.56a1 1 0 01-.71-.29 1 1 0 010-1.41l3.52-3.52a1 1 0 011.42 0 1 1 0 010 1.41l-3.52 3.52a1 1 0 01-.71.29zm10.56-10.55a1 1 0 01-.71-1.71l3.52-3.52a1 1 0 011.41 0 1 1 0 010 1.42l-3.52 3.52a1 1 0 01-.7.29zM513 550a1 1 0 01-.71-.29 1 1 0 010-1.41l3.52-3.52a1 1 0 011.42 0 1 1 0 010 1.41l-3.52 3.52a1 1 0 01-.71.29zm10.56-10.55a1 1 0 01-.71-1.71l3.52-3.52a1 1 0 011.41 0 1 1 0 010 1.42l-3.52 3.52a1 1 0 01-.7.25zm10.55-10.56a1 1 0 01-.71-.29 1 1 0 010-1.41l3.52-3.52a1 1 0 011.42 0 1 1 0 010 1.41l-3.52 3.52a1 1 0 01-.71.25zm10.56-10.55a1 1 0 01-.71-1.71l3.52-3.52a1 1 0 011.41 0 1 1 0 010 1.42l-3.52 3.47a1 1 0 01-.7.3zm10.55-10.56a1 1 0 01-.71-.29 1 1 0 010-1.41l3.52-3.52a1 1 0 011.42 0 1 1 0 010 1.41l-3.52 3.52a1 1 0 01-.71.25zm10.55-10.55a1 1 0 01-.7-1.71l3.52-3.52a1 1 0 011.41 0 1 1 0 010 1.42l-3.52 3.52a1 1 0 01-.71.25zm10.56-10.56a1 1 0 01-.71-.29 1 1 0 010-1.41l3.52-3.52a1 1 0 011.41 0 1 1 0 010 1.41l-3.55 3.48a1 1 0 01-.67.29zm10.55-10.55a1 1 0 01-.7-1.71l3.52-3.52a1 1 0 011.41 0 1 1 0 010 1.42l-3.52 3.52a1 1 0 01-.71.25zm10.56-10.56a1 1 0 01-.71-.29 1 1 0 010-1.41l3.52-3.52a1 1 0 011.42 0 1 1 0 010 1.41l-3.52 3.52a1 1 0 01-.71.25zM608 455a1 1 0 01-.7-1.71l3.52-3.52a1 1 0 011.41 0 1 1 0 010 1.42l-3.52 3.52a1 1 0 01-.71.29zm10.56-10.56a1 1 0 01-.71-.29 1 1 0 010-1.41l3.52-3.52a1 1 0 011.41 0 1 1 0 010 1.41l-3.51 3.52a1 1 0 01-.72.26zm10.55-10.55a1 1 0 01-.7-1.71l3.52-3.52a1 1 0 011.41 0 1 1 0 010 1.42l-3.52 3.52a1 1 0 01-.72.26zm10.56-10.56a1 1 0 01-.67-.33 1 1 0 010-1.41l3.52-3.52a1 1 0 011.41 0 1 1 0 010 1.41l-3.56 3.52a1 1 0 01-.71.3zm10.55-10.55a1 1 0 01-.7-1.71l3.52-3.52a1 1 0 011.41 0 1 1 0 010 1.42l-3.52 3.52a1 1 0 01-.72.26zm10.56-10.55a1 1 0 01-.71-1.71l3.52-3.52a1 1 0 111.41 1.41l-3.51 3.52a1 1 0 01-.72.27zm10.55-10.56a1 1 0 01-.7-1.71l3.51-3.51a1 1 0 011.42 1.41l-3.56 3.49a1 1 0 01-.68.29zm10.56-10.56a1 1 0 01-.71-.29 1 1 0 010-1.41l3.52-3.52a1 1 0 011.41 0 1 1 0 010 1.41l-3.51 3.52a1 1 0 01-.72.26zm10.55-10.55a1 1 0 01-.7-1.71l3.52-3.52a1 1 0 011.41 0 1 1 0 010 1.42l-3.52 3.52a1 1 0 01-.72.26zM703 360a1 1 0 01-.71-1.71l3.52-3.52a1 1 0 011.41 1.41l-3.51 3.52a1 1 0 01-.71.3zm10.55-10.56a1 1 0 01-.7-1.71l3.51-3.51a1 1 0 011.42 1.41l-3.52 3.52a1 1 0 01-.72.27zm10.56-10.55a1 1 0 01-.71-1.71l3.52-3.52a1 1 0 011.41 1.41l-3.51 3.52a1 1 0 01-.72.28zm10.55-10.56a1 1 0 01-.7-1.71l3.51-3.51a1 1 0 111.42 1.41l-3.53 3.48a1 1 0 01-.71.31zm10.56-10.55a1 1 0 01-.71-1.71l3.52-3.52a1 1 0 011.41 1.41l-3.51 3.52a1 1 0 01-.72.28zm10.55-10.56a1 1 0 01-.7-1.71l3.51-3.51a1 1 0 011.42 1.41l-3.52 3.52a1 1 0 01-.72.27zm10.56-10.55a1 1 0 01-.71-1.71l3.52-3.52a1 1 0 111.41 1.41l-3.55 3.5a1 1 0 01-.68.3zm10.55-10.56a1 1 0 01-.7-1.71l3.51-3.51a1 1 0 011.42 0 1 1 0 010 1.41l-3.52 3.52a1 1 0 01-.72.27zm10.56-10.55a1 1 0 01-.71-1.71l3.52-3.52a1 1 0 011.41 0 1 1 0 010 1.42l-3.52 3.51a1 1 0 01-.71.28zM798 265a1 1 0 01-.7-.29 1 1 0 010-1.42l3.51-3.51a1 1 0 011.42 0 1 1 0 010 1.41l-3.52 3.52a1 1 0 01-.71.29zm10.56-10.55a1 1 0 01-.71-1.71l3.52-3.52a1 1 0 011.41 0 1 1 0 010 1.42l-3.52 3.51a1 1 0 01-.72.28zm10.55-10.56a1 1 0 01-.7-1.71l3.51-3.51a1 1 0 011.42 0 1 1 0 010 1.41l-3.52 3.52a1 1 0 01-.73.27zm10.56-10.55a1 1 0 01-.71-1.71l3.52-3.52a1 1 0 011.41 0 1 1 0 010 1.42l-3.54 3.47a1 1 0 01-.7.32zm10.55-10.56a1 1 0 01-.7-.29 1 1 0 010-1.42l3.51-3.51a1 1 0 011.42 0 1 1 0 010 1.41l-3.52 3.52a1 1 0 01-.73.27zm10.56-10.55a1 1 0 01-.71-1.71l3.52-3.52a1 1 0 011.41 0 1 1 0 010 1.42l-3.52 3.51a1 1 0 01-.72.28zm10.55-10.56a1 1 0 01-.7-.29 1 1 0 010-1.42l3.51-3.51a1 1 0 011.42 0 1 1 0 010 1.41l-3.56 3.5a1 1 0 01-.69.29zm10.56-10.55a1 1 0 01-.71-1.71l3.52-3.52a1 1 0 011.41 0 1 1 0 010 1.42l-3.52 3.51a1 1 0 01-.72.28zm10.55-10.56a1 1 0 01-.71-.29 1 1 0 010-1.42l3.52-3.51a1 1 0 011.42 0 1 1 0 010 1.41l-3.52 3.52a1 1 0 01-.73.27zM893 170a1 1 0 01-.71-.3 1 1 0 010-1.41l3.52-3.52a1 1 0 011.41 0 1 1 0 010 1.42l-3.52 3.51a1 1 0 01-.7.3zm10.55-10.56a1 1 0 01-.71-.29 1 1 0 010-1.41l3.52-3.52a1 1 0 011.42 0 1 1 0 010 1.41l-3.52 3.52a1 1 0 01-.73.28zm10.56-10.55a1 1 0 01-.71-1.71l3.52-3.52a1 1 0 011.41 0 1 1 0 010 1.42l-3.52 3.51a1 1 0 01-.72.29zm10.55-10.56a1 1 0 01-.71-.29 1 1 0 010-1.41l3.52-3.52a1 1 0 011.42 0 1 1 0 010 1.41l-3.54 3.48a1 1 0 01-.71.32zM935.2 127.77a1 1 0 01-.71-.3 1 1 0 010-1.41l1.77-1.77a1 1 0 011.41 0 1 1 0 010 1.42l-1.77 1.76a1 1 0 01-.7.3z"/><path fill="#f4b8dd" d="M577.69 633.2l210.3-507.71"/><path fill="#f998d0" d="M577.69 634.2a.84.84 0 01-.38-.08 1 1 0 01-.54-1.3l1-2.31A1 1 0 01579 630a1 1 0 01.54 1.3l-1 2.31a1 1 0 01-.85.59zM582.44 622.74a1.07 1.07 0 01-.39-.07 1 1 0 01-.54-1.31l1.9-4.57a1 1 0 011.85.76l-1.9 4.58a1 1 0 01-.92.61zm5.68-13.74a1 1 0 01-.38-.07 1 1 0 01-.54-1.31l1.89-4.57a1 1 0 011.85.76l-1.9 4.58a1 1 0 01-.92.61zm5.68-13.72a1.06 1.06 0 01-.38-.07 1 1 0 01-.54-1.31l1.89-4.57a1 1 0 111.85.76l-1.89 4.57a1 1 0 01-.93.64zm5.69-13.72a1.07 1.07 0 01-.39-.07 1 1 0 01-.54-1.31l1.9-4.58a1 1 0 011.85.77l-1.9 4.57a1 1 0 01-.92.64zm5.68-13.72a1 1 0 01-.38-.07 1 1 0 01-.54-1.31l1.89-4.58a1 1 0 111.85.77l-1.9 4.57a1 1 0 01-.92.64zm5.68-13.72a.9.9 0 01-.38-.08 1 1 0 01-.54-1.3l1.89-4.58a1 1 0 111.85.77l-1.89 4.57a1 1 0 01-.93.64zm5.69-13.72a.91.91 0 01-.39-.08 1 1 0 01-.54-1.3l1.9-4.58a1 1 0 011.3-.54 1 1 0 01.55 1.31l-1.9 4.57a1 1 0 01-.92.64zm5.68-13.72a1 1 0 01-.38-.08 1 1 0 01-.54-1.3l1.89-4.58a1 1 0 111.85.77l-1.9 4.57a1 1 0 01-.92.64zM627.9 513a1.08 1.08 0 01-.38-.08 1 1 0 01-.54-1.3l1.89-4.58a1 1 0 111.85.77l-1.89 4.57a1 1 0 01-.93.62zm5.69-13.72a1.09 1.09 0 01-.39-.08 1 1 0 01-.54-1.3l1.9-4.58a1 1 0 011.3-.54 1 1 0 01.55 1.31l-1.9 4.57a1 1 0 01-.92.6zm5.68-13.72a1 1 0 01-.38-.08 1 1 0 01-.54-1.3l1.89-4.58a1 1 0 111.85.77l-1.9 4.57a1 1 0 01-.92.6zm5.73-13.74a1.08 1.08 0 01-.38-.08 1 1 0 01-.54-1.31l1.89-4.57a1 1 0 111.85.77l-1.89 4.57a1 1 0 01-.93.62zm5.69-13.72a1.09 1.09 0 01-.39-.08 1 1 0 01-.54-1.31l1.9-4.57a1 1 0 011.3-.54 1 1 0 01.55 1.31l-1.9 4.57a1 1 0 01-.97.62zm5.68-13.72a1 1 0 01-.92-1.39l1.89-4.57a1 1 0 111.85.77l-1.9 4.57a1 1 0 01-.97.62zm5.63-13.72a1.08 1.08 0 01-.38-.08 1 1 0 01-.54-1.31l1.92-4.57a1 1 0 011.31-.54 1 1 0 01.54 1.3l-1.92 4.54a1 1 0 01-.93.66zm5.69-13.73a1.07 1.07 0 01-.39-.07 1 1 0 01-.54-1.31l1.9-4.57a1 1 0 111.84.76l-1.89 4.58a1 1 0 01-.92.61zm11.36-27.44a1 1 0 01-.38-.07 1 1 0 01-.54-1.31l1.89-4.57a1 1 0 011.31-.54 1 1 0 01.54 1.3l-1.87 4.58a1 1 0 01-.95.61zm5.69-13.72a1.07 1.07 0 01-.39-.07 1 1 0 01-.54-1.31l1.9-4.57a1 1 0 111.84.76l-1.89 4.58a1 1 0 01-.92.61zm5.68-13.72a1 1 0 01-.42-.05 1 1 0 01-.54-1.31l1.89-4.57a1 1 0 011.31-.54 1 1 0 01.54 1.3l-1.9 4.58a1 1 0 01-.88.59zm5.68-13.72a1 1 0 01-.38-.07 1 1 0 01-.54-1.31l1.89-4.57a1 1 0 111.85.76l-1.92 4.58a1 1 0 01-.9.61zm5.69-13.72a1.07 1.07 0 01-.39-.07 1 1 0 01-.54-1.31l1.9-4.57a1 1 0 111.84.76l-1.89 4.58a1 1 0 01-.92.61zm5.68-13.72a.84.84 0 01-.38-.08 1 1 0 01-.55-1.3l1.9-4.57a1 1 0 111.85.76l-1.9 4.57a1 1 0 01-.92.62zm5.68-13.72a.84.84 0 01-.38-.08 1 1 0 01-.54-1.3l1.89-4.58a1 1 0 111.88.79l-1.89 4.57a1 1 0 01-.96.6zm5.68-13.72a.9.9 0 01-.38-.08 1 1 0 01-.54-1.3l1.9-4.58a1 1 0 111.84.77l-1.89 4.57a1 1 0 01-.93.62zm5.69-13.72a.84.84 0 01-.38-.08 1 1 0 01-.55-1.3l1.9-4.58a1 1 0 111.85.77l-1.9 4.57a1 1 0 01-.92.62zM730.2 266a1 1 0 01-.92-1.38l1.89-4.58a1 1 0 111.85.77l-1.89 4.57a1 1 0 01-.93.62zm5.68-13.72a1.08 1.08 0 01-.38-.08 1 1 0 01-.54-1.3l1.9-4.58a1 1 0 011.3-.54 1 1 0 01.54 1.31l-1.89 4.57a1 1 0 01-.93.63zm5.69-13.72a1 1 0 01-.93-1.38l1.9-4.58a1 1 0 111.85.77l-1.9 4.57a1 1 0 01-.92.63zm5.68-13.72a1 1 0 01-.92-1.39l1.89-4.57a1 1 0 111.85.77l-1.9 4.57a1 1 0 01-.92.63zm5.68-13.72a1.08 1.08 0 01-.38-.08 1 1 0 01-.54-1.31l1.9-4.57a1 1 0 011.3-.54 1 1 0 01.54 1.31l-1.89 4.57a1 1 0 01-.93.63zm5.69-13.72a1 1 0 01-.38-.08 1 1 0 01-.55-1.31l1.9-4.57a1 1 0 011.85.77l-1.9 4.57a1 1 0 01-.92.63zm5.68-13.72a1 1 0 01-.92-1.39l1.89-4.57a1 1 0 111.85.77l-1.9 4.57a1 1 0 01-.92.63zM770 170a1.08 1.08 0 01-.38-.08 1 1 0 01-.54-1.31L771 164a1 1 0 011.84.76l-1.89 4.58a1 1 0 01-.95.66zm5.69-13.72a1 1 0 01-.38-.08 1 1 0 01-.55-1.31l1.9-4.57a1 1 0 011.85.76l-1.9 4.58a1 1 0 01-.94.59zm5.68-13.73a1 1 0 01-.38-.07 1 1 0 01-.54-1.31l1.89-4.57a1 1 0 011.31-.54 1 1 0 01.54 1.3l-1.9 4.58a1 1 0 01-.94.58zM787 128.8a1.06 1.06 0 01-.38-.07 1 1 0 01-.54-1.31l1-2.31a1 1 0 111.84.77l-.95 2.31a1 1 0 01-.97.61z"/><path fill="#f4b8dd" d="M788.31 633.2L577.84 125.09"/><path fill="#f998d0" d="M788.31 634.2a1 1 0 01-.93-.62l-1-2.31A1 1 0 01787 630a1 1 0 011.31.54l1 2.31a1 1 0 01-.54 1.3.84.84 0 01-.46.05zM783.56 622.74a1 1 0 01-.92-.62l-1.9-4.58a1 1 0 01.54-1.3 1 1 0 011.31.54l1.89 4.57a1 1 0 01-.92 1.39zM777.87 609a1 1 0 01-.92-.61l-1.9-4.58a1 1 0 111.85-.77l1.9 4.58a1 1 0 01-.55 1.31 1 1 0 01-.38.07zm-5.69-13.73a1 1 0 01-.92-.61l-1.9-4.58a1 1 0 01.55-1.31 1 1 0 011.3.54l1.9 4.58a1 1 0 01-.54 1.31 1.07 1.07 0 01-.39.07zm-5.68-13.73a1 1 0 01-.93-.62l-1.89-4.57a1 1 0 01.54-1.31 1 1 0 011.3.54l1.9 4.58a1 1 0 01-.54 1.31 1.06 1.06 0 01-.38.07zm-5.69-13.73a1 1 0 01-.93-.62l-1.88-4.57a1 1 0 011.85-.77l1.89 4.58a1 1 0 01-.54 1.3.84.84 0 01-.39.08zm-5.69-13.73a1 1 0 01-.92-.62l-1.9-4.58a1 1 0 01.54-1.3 1 1 0 011.31.54l1.85 4.58a1 1 0 01-.54 1.3 1 1 0 01-.34.08zm-5.69-13.73a1 1 0 01-.92-.62l-1.9-4.58a1 1 0 01.54-1.3 1 1 0 011.31.54l1.9 4.57a1 1 0 01-.54 1.31 1.09 1.09 0 01-.39.08zm-5.68-13.73a1 1 0 01-.93-.62l-1.89-4.58a1 1 0 111.84-.76l1.9 4.57a1 1 0 01-.54 1.31 1.08 1.08 0 01-.38.08zm-5.69-13.74a1 1 0 01-.93-.61l-1.89-4.58a1 1 0 01.54-1.31 1 1 0 011.3.54l1.9 4.58a1 1 0 01-.54 1.31 1 1 0 01-.38.07zm-5.69-13.73a1 1 0 01-.92-.61l-1.9-4.58a1 1 0 011.85-.77l1.89 4.58a1 1 0 01-.54 1.31 1 1 0 01-.38.07zm-5.69-13.73a1 1 0 01-.92-.62l-1.9-4.57a1 1 0 011.85-.77l1.9 4.58a1 1 0 01-.55 1.3.84.84 0 01-.38.08zM721 471.69a1 1 0 01-.92-.62l-1.9-4.57a1 1 0 011.85-.77l1.9 4.58a1 1 0 01-.54 1.3.91.91 0 01-.39.08zM715.31 458a1 1 0 01-.93-.62l-1.89-4.58a1 1 0 011.84-.76l1.9 4.58a1 1 0 01-.54 1.3 1.08 1.08 0 01-.38.08zm-5.69-13.73a1 1 0 01-.93-.62L706.8 439a1 1 0 01.54-1.3 1 1 0 011.31.54l1.89 4.57a1 1 0 01-.92 1.39zm-5.69-13.73a1 1 0 01-.92-.62l-1.9-4.58a1 1 0 111.85-.76l1.89 4.57a1 1 0 01-.92 1.39zm-5.69-13.74a1 1 0 01-.92-.61l-1.9-4.58a1 1 0 011.85-.77l1.9 4.58a1 1 0 01-.54 1.31 1.07 1.07 0 01-.39.03zm-11.37-27.5a1 1 0 01-.93-.62l-1.89-4.57a1 1 0 111.85-.77l1.89 4.58a1 1 0 01-.54 1.3.87.87 0 01-.38.08zm-5.69-13.73a1 1 0 01-.92-.62l-1.9-4.58a1 1 0 01.54-1.3 1 1 0 011.31.54l1.89 4.58a1 1 0 01-.92 1.38zm-11.38-27.46a1 1 0 01-.92-.62l-1.9-4.58a1 1 0 111.85-.76l1.9 4.57a1 1 0 01-.54 1.31 1.09 1.09 0 01-.39.08zm-5.68-13.74a1 1 0 01-.93-.61l-1.89-4.58a1 1 0 01.54-1.31 1 1 0 011.3.54L665 333a1 1 0 01-.54 1.31 1.06 1.06 0 01-.34.06zm-5.69-13.73a1 1 0 01-.93-.61l-1.89-4.58a1 1 0 011.85-.77l1.89 4.58a1 1 0 01-.54 1.31 1 1 0 01-.38.07zm-5.69-13.73a1 1 0 01-.92-.62l-1.9-4.57a1 1 0 111.85-.77l1.89 4.58a1 1 0 01-.54 1.3.84.84 0 01-.38.08zm-5.69-13.73a1 1 0 01-.92-.62l-1.9-4.57a1 1 0 011.85-.77l1.9 4.58a1 1 0 01-.54 1.3.91.91 0 01-.39.08zm-5.68-13.73a1 1 0 01-.93-.62l-1.9-4.58a1 1 0 011.85-.76l1.9 4.57a1 1 0 01-.54 1.31 1.08 1.08 0 01-.38.08zm-5.69-13.73a1 1 0 01-.93-.62l-1.89-4.58a1 1 0 01.54-1.3 1 1 0 011.31.54l1.89 4.57a1 1 0 01-.92 1.39zM630 252a1 1 0 01-.92-.61l-1.9-4.58A1 1 0 01629 246l1.89 4.58a1 1 0 01-.54 1.31 1 1 0 01-.35.11zm-5.69-13.73a1 1 0 01-.92-.61l-1.9-4.58a1 1 0 111.85-.77l1.9 4.58a1 1 0 01-.55 1.31 1 1 0 01-.39.05zm-5.69-13.73a1 1 0 01-.92-.62l-1.9-4.57a1 1 0 111.85-.77l1.9 4.58a1 1 0 01-.54 1.31 1.07 1.07 0 01-.4.05zm-5.68-13.73a1 1 0 01-.93-.62l-1.89-4.57a1 1 0 01.54-1.31 1 1 0 011.3.54l1.9 4.58a1 1 0 01-.54 1.3.9.9 0 01-.39.06zm-5.69-13.73a1 1 0 01-.93-.62l-1.89-4.58a1 1 0 01.54-1.3 1 1 0 011.31.54l1.89 4.58a1 1 0 01-.92 1.38zm-5.69-13.73a1 1 0 01-.92-.62l-1.9-4.58a1 1 0 01.54-1.3 1 1 0 011.31.54l1.89 4.57a1 1 0 01-.92 1.39zm-5.69-13.73a1 1 0 01-.92-.62l-1.95-4.6a1 1 0 111.85-.76l1.9 4.57a1 1 0 01-.54 1.31 1.09 1.09 0 01-.35.08zm-5.69-13.74a1 1 0 01-.92-.61l-1.89-4.58a1 1 0 111.84-.77l1.9 4.58a1 1 0 01-.54 1.31 1.07 1.07 0 01-.4.05zm-5.68-13.73a1 1 0 01-.93-.61l-1.89-4.58a1 1 0 111.85-.77l1.89 4.58a1 1 0 01-.54 1.31 1 1 0 01-.39.05zM578.8 128.4a1 1 0 01-.92-.62l-1-2.31a1 1 0 01.54-1.3 1 1 0 011.31.54l1 2.31a1 1 0 01-.54 1.3.84.84 0 01-.39.08z"/><path fill="#f4b8dd" d="M934.32 630.29l-505.19-505.2"/><path fill="#f998d0" d="M934.32 631.29a1 1 0 01-.7-.3l-1.77-1.76a1 1 0 010-1.42 1 1 0 011.41 0l1.77 1.77a1 1 0 01-.71 1.71zM925.54 622.5a1 1 0 01-.71-.29l-3.51-3.51a1 1 0 010-1.41 1 1 0 011.42 0l3.51 3.5a1 1 0 010 1.42 1 1 0 01-.71.29zM915 612a1 1 0 01-.7-.3l-3.51-3.5a1 1 0 010-1.42 1 1 0 011.41 0l3.51 3.51a1 1 0 010 1.41 1 1 0 01-.71.3zm-10.52-10.53a1 1 0 01-.71-.29l-3.5-3.51a1 1 0 010-1.41 1 1 0 011.41 0l3.51 3.51a1 1 0 010 1.41 1 1 0 01-.7.27zM894 590.93a1 1 0 01-.71-.29l-3.51-3.51a1 1 0 011.42-1.42l3.5 3.51a1 1 0 01-.7 1.71zm-10.56-10.53a1 1 0 01-.71-.29l-3.5-3.51a1 1 0 111.41-1.41l3.51 3.51a1 1 0 010 1.41 1 1 0 01-.71.29zm-10.52-10.52a1 1 0 01-.71-.29l-3.51-3.51a1 1 0 011.42-1.41l3.5 3.5a1 1 0 01-.7 1.71zm-10.53-10.52a1 1 0 01-.7-.3l-3.51-3.51a1 1 0 011.41-1.41l3.51 3.51a1 1 0 010 1.41 1 1 0 01-.71.3zm-10.52-10.53a1 1 0 01-.71-.29l-3.51-3.54a1 1 0 010-1.41 1 1 0 011.42 0l3.51 3.5a1 1 0 010 1.42 1 1 0 01-.71.32zm-10.53-10.52a1 1 0 01-.7-.3l-3.51-3.5a1 1 0 010-1.42 1 1 0 011.41 0l3.51 3.51a1 1 0 010 1.41 1 1 0 01-.71.3zm-10.52-10.53a1 1 0 01-.71-.29L826.6 524a1 1 0 010-1.41 1 1 0 011.42 0l3.51 3.51a1 1 0 010 1.41 1 1 0 01-.71.27zm-10.52-10.52a1 1 0 01-.71-.29l-3.51-3.51a1 1 0 111.42-1.46l3.5 3.51a1 1 0 01-.7 1.71zm-10.53-10.53a1 1 0 01-.71-.29l-3.5-3.51a1 1 0 011.41-1.41l3.51 3.51a1 1 0 010 1.41 1 1 0 01-.71.29zm-10.52-10.52a1 1 0 01-.71-.29l-3.54-3.51a1 1 0 011.42-1.41l3.5 3.5a1 1 0 01-.7 1.71zm-10.53-10.52a1 1 0 01-.7-.3l-3.51-3.51a1 1 0 111.41-1.41l3.51 3.51a1 1 0 01-.71 1.71zm-10.52-10.53a1 1 0 01-.71-.29l-3.49-3.51a1 1 0 010-1.41 1 1 0 011.42 0l3.51 3.5a1 1 0 010 1.42 1 1 0 01-.73.29zm-10.53-10.52a1 1 0 01-.7-.3l-3.51-3.5a1 1 0 010-1.42 1 1 0 011.41 0l3.51 3.51a1 1 0 010 1.41 1 1 0 01-.71.3zm-10.52-10.53a1 1 0 01-.71-.29l-3.51-3.51a1 1 0 010-1.41 1 1 0 011.42 0l3.51 3.51a1 1 0 010 1.41 1 1 0 01-.71.29zm-10.53-10.52a1 1 0 01-.7-.29l-3.51-3.51a1 1 0 010-1.42 1 1 0 011.41 0l3.51 3.51a1 1 0 01-.71 1.71zm-10.52-10.53a1 1 0 01-.71-.29l-3.5-3.51a1 1 0 011.41-1.41l3.51 3.51a1 1 0 010 1.41 1 1 0 01-.71.29zm-10.52-10.52a1 1 0 01-.71-.29l-3.51-3.51a1 1 0 111.42-1.41l3.5 3.5a1 1 0 01-.7 1.71zM715.05 412a1 1 0 01-.7-.3l-3.51-3.51a1 1 0 011.41-1.41l3.51 3.51a1 1 0 01-.71 1.71zm-10.52-10.53a1 1 0 01-.71-.29l-3.51-3.51a1 1 0 010-1.41 1 1 0 011.42 0l3.51 3.5a1 1 0 010 1.42 1 1 0 01-.71.31zM694 391a1 1 0 01-.7-.3l-3.51-3.5a1 1 0 010-1.42 1 1 0 011.41 0l3.51 3.51a1 1 0 010 1.41 1 1 0 01-.71.3zm-10.52-10.53a1 1 0 01-.71-.29l-3.51-3.51a1 1 0 010-1.41 1 1 0 011.42 0l3.51 3.51a1 1 0 010 1.41 1 1 0 01-.71.26zM673 369.92a1 1 0 01-.71-.29l-3.51-3.51a1 1 0 010-1.42 1 1 0 011.41 0l3.51 3.51a1 1 0 01-.7 1.71zm-10.53-10.53a1 1 0 01-.71-.29l-3.5-3.51a1 1 0 111.41-1.41l3.51 3.51a1 1 0 010 1.41 1 1 0 01-.75.29zm-10.52-10.52a1 1 0 01-.71-.29l-3.51-3.51a1 1 0 011.42-1.42l3.5 3.51a1 1 0 01-.7 1.71zm-10.53-10.52a1 1 0 01-.71-.3l-3.5-3.51a1 1 0 011.41-1.41l3.51 3.51a1 1 0 01-.71 1.71zm-10.52-10.53a1 1 0 01-.71-.29l-3.55-3.53a1 1 0 010-1.41 1 1 0 011.42 0l3.5 3.5a1 1 0 010 1.42 1 1 0 01-.7.31zm-10.57-10.52a1 1 0 01-.7-.3l-3.51-3.5a1 1 0 010-1.42 1 1 0 011.41 0l3.51 3.51a1 1 0 010 1.41 1 1 0 01-.71.3zm-10.52-10.53a1 1 0 01-.71-.29l-3.51-3.48a1 1 0 010-1.41 1 1 0 011.42 0l3.51 3.51a1 1 0 010 1.41 1 1 0 01-.71.26zm-10.52-10.52a1 1 0 01-.71-.29l-3.51-3.51a1 1 0 010-1.42 1 1 0 011.41 0l3.51 3.51a1 1 0 01-.7 1.71zm-10.53-10.53a1 1 0 01-.71-.29l-3.5-3.51a1 1 0 011.41-1.41l3.51 3.51a1 1 0 010 1.41 1 1 0 01-.71.29zm-10.52-10.52a1 1 0 01-.71-.29L574 271.4a1 1 0 011.42-1.42l3.5 3.51a1 1 0 01-.7 1.71zm-10.53-10.52a1 1 0 01-.71-.3l-3.5-3.51a1 1 0 111.41-1.41l3.51 3.51a1 1 0 01-.71 1.71zm-10.52-10.53a1 1 0 01-.71-.29l-3.48-3.51a1 1 0 010-1.41 1 1 0 011.42 0l3.5 3.5a1 1 0 010 1.42 1 1 0 01-.73.29zm-10.53-10.52a1 1 0 01-.7-.3l-3.51-3.5a1 1 0 010-1.42 1 1 0 011.41 0l3.51 3.51a1 1 0 01-.71 1.71zm-10.52-10.53a1 1 0 01-.71-.29l-3.51-3.51a1 1 0 010-1.41 1 1 0 011.42 0l3.51 3.51a1 1 0 010 1.41 1 1 0 01-.71.29zm-10.52-10.52a1 1 0 01-.71-.29l-3.51-3.51a1 1 0 010-1.42 1 1 0 011.41 0l3.51 3.51a1 1 0 01-.7 1.71zm-10.53-10.53a1 1 0 01-.71-.29l-3.5-3.51a1 1 0 010-1.41 1 1 0 011.41 0l3.51 3.51a1 1 0 010 1.41 1 1 0 01-.71.29zm-10.52-10.52a1 1 0 01-.71-.29l-3.51-3.51a1 1 0 010-1.42 1 1 0 011.41 0l3.51 3.51a1 1 0 01-.7 1.71zM494 191a1 1 0 01-.71-.29l-3.5-3.51a1 1 0 111.41-1.41l3.51 3.51a1 1 0 010 1.41 1 1 0 01-.71.29zm-10.52-10.52a1 1 0 01-.71-.29l-3.51-3.51a1 1 0 010-1.41 1 1 0 011.42 0l3.5 3.5a1 1 0 010 1.42 1 1 0 01-.66.29zM473 170a1 1 0 01-.7-.3l-3.51-3.5a1 1 0 010-1.42 1 1 0 011.41 0l3.51 3.51A1 1 0 01473 170zm-10.52-10.53a1 1 0 01-.71-.29l-3.51-3.51a1 1 0 010-1.41 1 1 0 011.42 0l3.51 3.51a1 1 0 010 1.41 1 1 0 01-.72.25zm-10.53-10.52a1 1 0 01-.7-.3l-3.51-3.5a1 1 0 010-1.42 1 1 0 011.41 0l3.51 3.51a1 1 0 010 1.41 1 1 0 01-.72.26zm-10.52-10.53a1 1 0 01-.71-.29l-3.5-3.51a1 1 0 010-1.41 1 1 0 011.41 0l3.51 3.51a1 1 0 010 1.41 1 1 0 01-.72.25zM430.9 127.86a1 1 0 01-.71-.29l-1.77-1.77a1 1 0 010-1.42 1 1 0 011.41 0l1.77 1.77a1 1 0 01-.7 1.71z"/><path fill="#f4b8dd" d="M937.05 484.2l-508.1-210.47"/><path fill="#f998d0" d="M937.05 485.2a1.08 1.08 0 01-.38-.08l-2.31-1a1 1 0 11.77-1.84l2.31.95a1 1 0 01-.39 1.93zM925.59 480.45a1 1 0 01-.38-.08l-4.58-1.89a1 1 0 01.77-1.85l4.57 1.89a1 1 0 01-.38 1.93zm-13.73-5.69a.84.84 0 01-.38-.08l-4.58-1.89a1 1 0 01.77-1.85l4.57 1.9a1 1 0 01-.38 1.92zm-13.73-5.69a1 1 0 01-.38-.07l-4.58-1.9a1 1 0 01.76-1.85l4.58 1.9a1 1 0 01-.38 1.92zm-13.73-5.69a1.07 1.07 0 01-.39-.07l-4.57-1.9a1 1 0 01.76-1.85l4.58 1.9a1 1 0 01-.38 1.92zm-13.73-5.68a1.09 1.09 0 01-.39-.08l-4.57-1.9a1 1 0 11.76-1.84l4.58 1.89a1 1 0 01-.38 1.93zm-13.74-5.7a1.08 1.08 0 01-.38-.08L852 450a1 1 0 11.77-1.85l4.58 1.89a1 1 0 01.54 1.31 1 1 0 01-.96.65zm-13.73-5.69a.84.84 0 01-.38-.08l-4.58-1.89a1 1 0 01.77-1.85l4.57 1.9a1 1 0 01-.38 1.92zm-13.73-5.69a1 1 0 01-.38-.07l-4.58-1.9a1 1 0 01.77-1.85l4.57 1.9a1 1 0 01-.38 1.92zM815.74 435a1 1 0 01-.38-.08l-4.58-1.9a1 1 0 01-.54-1.3 1 1 0 011.3-.55l4.58 1.9a1 1 0 01-.38 1.93zM802 429.26a1.09 1.09 0 01-.39-.08l-4.57-1.89a1 1 0 01.76-1.85l4.58 1.89a1 1 0 01-.38 1.93zm-13.73-5.69a1.09 1.09 0 01-.39-.08l-4.57-1.89a1 1 0 11.76-1.85l4.58 1.9a1 1 0 01-.38 1.92zm-13.74-5.69a1.06 1.06 0 01-.38-.07l-4.58-1.9a1 1 0 11.77-1.85l4.58 1.9a1 1 0 01-.39 1.92zm-13.73-5.69a1 1 0 01-.38-.07l-4.58-1.9a1 1 0 01-.54-1.3 1 1 0 011.31-.55l4.58 1.9a1 1 0 01-.39 1.92zm-13.73-5.68a1 1 0 01-.38-.08l-4.58-1.9a1 1 0 01-.54-1.3 1 1 0 011.31-.54l4.57 1.89a1 1 0 01-.38 1.93zm-13.73-5.69a1 1 0 01-.38-.08l-4.58-1.89a1 1 0 01.77-1.85l4.57 1.89a1 1 0 01.54 1.31 1 1 0 01-.91.62zm-13.73-5.69a.91.91 0 01-.39-.08l-4.57-1.89a1 1 0 01-.54-1.31 1 1 0 011.3-.54l4.58 1.9a1 1 0 01-.38 1.92zm-27.47-11.37a1.08 1.08 0 01-.38-.08l-4.58-1.9a1 1 0 01-.54-1.3 1 1 0 011.31-.54l4.58 1.89a1 1 0 01-.39 1.93zm-13.73-5.69a1 1 0 01-.41-.07l-4.58-1.89a1 1 0 11.77-1.85l4.58 1.89a1 1 0 01.54 1.31 1 1 0 01-.89.61zM651 366.69a1 1 0 01-.38-.07l-4.58-1.9a1 1 0 01.77-1.85l4.57 1.9a1 1 0 01-.38 1.92zM637.23 361a1 1 0 01-.38-.07l-4.58-1.9a1 1 0 01.76-1.85l4.58 1.9a1 1 0 01-.38 1.92zm-13.73-5.68a1.09 1.09 0 01-.39-.08l-4.57-1.9a1 1 0 01.76-1.84l4.58 1.89a1 1 0 01-.38 1.93zm-13.73-5.69a1.09 1.09 0 01-.39-.08l-4.57-1.89a1 1 0 11.76-1.85l4.58 1.89a1 1 0 01.54 1.31 1 1 0 01-.92.62zM596 343.94a.9.9 0 01-.38-.08l-4.55-1.86a1 1 0 11.77-1.85l4.58 1.9a1 1 0 01-.39 1.92zm-13.73-5.69a1 1 0 01-.38-.07l-4.58-1.9a1 1 0 11.77-1.85l4.58 1.9a1 1 0 01-.39 1.92zm-13.73-5.68a1 1 0 01-.38-.08l-4.58-1.9a1 1 0 01-.54-1.3 1 1 0 011.31-.54l4.57 1.89a1 1 0 01.55 1.31 1 1 0 01-.9.62zm-13.73-5.69a1 1 0 01-.38-.08l-4.58-1.89a1 1 0 01-.54-1.31 1 1 0 011.3-.54l4.58 1.89a1 1 0 01.54 1.31 1 1 0 01-.89.62zm-13.73-5.69a.91.91 0 01-.39-.08l-4.57-1.89a1 1 0 01.76-1.85l4.58 1.9a1 1 0 01-.38 1.92zm-13.73-5.69a1.07 1.07 0 01-.39-.07l-4.57-1.9a1 1 0 01.76-1.85l4.58 1.9a1 1 0 01-.38 1.92zm-13.74-5.69a1.06 1.06 0 01-.38-.07l-4.58-1.9a1 1 0 01.77-1.85l4.58 1.9a1 1 0 01-.39 1.92zm-13.73-5.68a1.08 1.08 0 01-.38-.08l-4.58-1.9a1 1 0 01-.54-1.3 1 1 0 011.31-.54l4.58 1.89a1 1 0 01.54 1.31 1 1 0 01-.9.62zm-13.73-5.69a1 1 0 01-.38-.08l-4.58-1.89a1 1 0 01.77-1.85l4.57 1.89a1 1 0 01-.38 1.93zm-13.73-5.69a.84.84 0 01-.38-.08l-4.58-1.89a1 1 0 11.77-1.85l4.57 1.9a1 1 0 01-.38 1.92zm-13.73-5.69a1 1 0 01-.38-.07l-4.58-1.9a1 1 0 01.76-1.85l4.58 1.9a1 1 0 01-.38 1.92zM445 281.38a1.09 1.09 0 01-.39-.08l-4.61-1.9a1 1 0 11.76-1.84l4.58 1.89a1 1 0 01-.38 1.93zM431.25 275.69a1.08 1.08 0 01-.38-.08l-2.31-1a1 1 0 01-.54-1.3 1 1 0 011.31-.54l2.31.95a1 1 0 01.54 1.31 1 1 0 01-.93.66z"/><circle cx="683" cy="378.96" r="24" fill="#f9d2ec"/><path fill="#ff1493" d="M435 380.46h-6a1.5 1.5 0 010-3h6a1.5 1.5 0 010 3zM919 380.46h-12.1a1.5 1.5 0 010-3H919a1.5 1.5 0 010 3zm-24.2 0h-12.1a1.5 1.5 0 010-3h12.1a1.5 1.5 0 010 3zm-24.2 0h-12.1a1.5 1.5 0 010-3h12.1a1.5 1.5 0 010 3zm-24.2 0h-12.1a1.5 1.5 0 010-3h12.1a1.5 1.5 0 010 3zm-24.2 0h-12.1a1.5 1.5 0 010-3h12.1a1.5 1.5 0 010 3zm-24.2 0h-12.1a1.5 1.5 0 010-3H798a1.5 1.5 0 010 3zm-24.2 0h-12.1a1.5 1.5 0 010-3h12.1a1.5 1.5 0 010 3zm-24.2 0h-12.1a1.5 1.5 0 010-3h12.1a1.5 1.5 0 010 3zm-24.2 0h-12.1a1.5 1.5 0 010-3h12.1a1.5 1.5 0 010 3zm-24.2 0h-12.1a1.5 1.5 0 010-3h12.1a1.5 1.5 0 010 3zm-24.2 0h-12.1a1.5 1.5 0 010-3H677a1.5 1.5 0 010 3zm-24.2 0h-12.1a1.5 1.5 0 010-3h12.1a1.5 1.5 0 010 3zm-24.2 0h-12.1a1.5 1.5 0 010-3h12.1a1.5 1.5 0 010 3zm-24.2 0h-12.1a1.5 1.5 0 010-3h12.1a1.5 1.5 0 010 3zm-24.2 0h-12.1a1.5 1.5 0 010-3h12.1a1.5 1.5 0 010 3zm-24.2 0h-12.1a1.5 1.5 0 010-3H556a1.5 1.5 0 010 3zm-24.2 0h-12.1a1.5 1.5 0 010-3h12.1a1.5 1.5 0 010 3zm-24.2 0h-12.1a1.5 1.5 0 010-3h12.1a1.5 1.5 0 010 3zm-24.2 0h-12.1a1.5 1.5 0 010-3h12.1a1.5 1.5 0 010 3zm-24.2 0h-12.1a1.5 1.5 0 010-3h12.1a1.5 1.5 0 010 3zM937.05 380.46h-6a1.5 1.5 0 010-3h6a1.5 1.5 0 010 3z"/><path fill="#f4b8dd" d="M683 630.29V127.64"/><path fill="#ff1493" d="M683 631.79a1.5 1.5 0 01-1.5-1.5v-6a1.5 1.5 0 013 0v6a1.5 1.5 0 01-1.5 1.5zM683 613.82a1.5 1.5 0 01-1.5-1.5v-12a1.5 1.5 0 113 0v12a1.5 1.5 0 01-1.5 1.5zm0-23.93a1.5 1.5 0 01-1.5-1.5v-12a1.5 1.5 0 013 0v12a1.5 1.5 0 01-1.5 1.5zm0-23.89a1.5 1.5 0 01-1.5-1.5v-12a1.5 1.5 0 013 0v12a1.5 1.5 0 01-1.5 1.5zm0-24a1.5 1.5 0 01-1.5-1.5v-12a1.5 1.5 0 013 0v12a1.5 1.5 0 01-1.5 1.5zm0-23.94a1.5 1.5 0 01-1.5-1.5v-12a1.5 1.5 0 113 0v12a1.5 1.5 0 01-1.5 1.52zm0-23.93a1.5 1.5 0 01-1.5-1.5v-12a1.5 1.5 0 013 0v12a1.5 1.5 0 01-1.5 1.52zm0-23.93a1.5 1.5 0 01-1.5-1.5v-12a1.5 1.5 0 013 0v12a1.5 1.5 0 01-1.5 1.52zm0-23.94a1.5 1.5 0 01-1.5-1.5v-12a1.5 1.5 0 113 0v12a1.5 1.5 0 01-1.5 1.52zm0-23.93a1.5 1.5 0 01-1.5-1.5v-12a1.5 1.5 0 013 0v12a1.5 1.5 0 01-1.5 1.52zm0-23.94a1.5 1.5 0 01-1.5-1.5V385a1.5 1.5 0 013 0v12a1.5 1.5 0 01-1.5 1.41zm0-23.93a1.5 1.5 0 01-1.5-1.5V361a1.5 1.5 0 013 0v12a1.5 1.5 0 01-1.5 1.48zm0-23.93a1.5 1.5 0 01-1.5-1.5v-12a1.5 1.5 0 113 0v12a1.5 1.5 0 01-1.5 1.52zm0-23.94a1.5 1.5 0 01-1.5-1.5v-12a1.5 1.5 0 013 0v12a1.5 1.5 0 01-1.5 1.52zm0-23.93a1.5 1.5 0 01-1.5-1.5v-12a1.5 1.5 0 013 0v12a1.5 1.5 0 01-1.5 1.52zm0-23.94a1.5 1.5 0 01-1.5-1.5v-12a1.5 1.5 0 013 0v12a1.5 1.5 0 01-1.5 1.52zm0-23.93a1.5 1.5 0 01-1.5-1.5v-12a1.5 1.5 0 013 0v12a1.5 1.5 0 01-1.5 1.52zm0-23.93a1.5 1.5 0 01-1.5-1.5v-12a1.5 1.5 0 113 0v12a1.5 1.5 0 01-1.5 1.52zm0-23.94a1.5 1.5 0 01-1.5-1.5v-12a1.5 1.5 0 013 0v12a1.5 1.5 0 01-1.5 1.52zm0-23.92a1.5 1.5 0 01-1.5-1.5v-12a1.5 1.5 0 113 0v12a1.5 1.5 0 01-1.5 1.5zm0-23.93a1.5 1.5 0 01-1.5-1.5v-12a1.5 1.5 0 013 0v12a1.5 1.5 0 01-1.5 1.51zM683 135.14a1.5 1.5 0 01-1.5-1.5v-6a1.5 1.5 0 113 0v6a1.5 1.5 0 01-1.5 1.5z"/><path d="M995.05 302.29a9.3 9.3 0 01-3.71-3.51 10.39 10.39 0 010-10.17 9.29 9.29 0 013.7-3.49 11.22 11.22 0 015.38-1.26 10.46 10.46 0 015 1.15 7.47 7.47 0 013.22 3.31l-3.45 2a5.5 5.5 0 00-2.07-2 6.07 6.07 0 00-6.89 1 6.63 6.63 0 000 8.75 6.05 6.05 0 006.91 1 5.47 5.47 0 002.07-2l3.45 2a7.79 7.79 0 01-3.25 3.33 10.17 10.17 0 01-5 1.17 11.29 11.29 0 01-5.36-1.28zM1015.61 302.29a9.23 9.23 0 01-3.66-3.51 10.52 10.52 0 010-10.17 9.25 9.25 0 013.66-3.49 10.89 10.89 0 015.25-1.26 11 11 0 015.3 1.26 9.22 9.22 0 013.65 3.49 10.52 10.52 0 010 10.17 9.2 9.2 0 01-3.65 3.51 11 11 0 01-5.3 1.26 10.89 10.89 0 01-5.25-1.26zM1025 298a6.66 6.66 0 000-8.71 5.52 5.52 0 00-4.11-1.65 5.45 5.45 0 00-4.08 1.65 6.73 6.73 0 000 8.71 5.42 5.42 0 004.08 1.66A5.49 5.49 0 001025 298zM1052.18 286q2.21 2.13 2.2 6.3v11h-4.5v-10.44a5.43 5.43 0 00-1.19-3.8 4.39 4.39 0 00-3.38-1.28 5.19 5.19 0 00-3.93 1.5 5.94 5.94 0 00-1.44 4.3v9.72h-4.5v-19.22h4.29v2.48a7 7 0 012.81-2 10.18 10.18 0 013.81-.68 8 8 0 015.83 2.12zM1060.32 280.13a2.51 2.51 0 01-.83-1.92 2.55 2.55 0 01.83-1.93 2.92 2.92 0 012-.77 3 3 0 012.05.74 2.35 2.35 0 01.83 1.85 2.72 2.72 0 01-.81 2 2.8 2.8 0 01-2.07.81 2.88 2.88 0 01-2-.78zm-.22 3.95h4.5v19.22h-4.5zM1074 302.29a9.21 9.21 0 01-3.7-3.51 10.32 10.32 0 010-10.17 9.2 9.2 0 013.69-3.49 11.22 11.22 0 015.38-1.26 10.46 10.46 0 015 1.15 7.54 7.54 0 013.23 3.31l-3.46 2a5.5 5.5 0 00-2.07-2 6.07 6.07 0 00-6.89 1 6.63 6.63 0 000 8.75 6.05 6.05 0 006.91 1 5.47 5.47 0 002.07-2l3.46 2a7.82 7.82 0 01-3.26 3.33 10.17 10.17 0 01-5 1.17 11.29 11.29 0 01-5.36-1.28zM1089.91 291.42h9.9v3.74h-9.9zM1124.18 284.08v16.3q0 10.15-10.37 10.16a19.13 19.13 0 01-5.25-.71 11 11 0 01-4.1-2l2-3.38a9.7 9.7 0 003.19 1.67 12.44 12.44 0 003.9.63 6.48 6.48 0 004.65-1.44 5.89 5.89 0 001.47-4.39v-1a7.4 7.4 0 01-2.8 1.91 10 10 0 01-3.64.65 10.39 10.39 0 01-5-1.17 8.73 8.73 0 01-3.49-3.3 9.83 9.83 0 010-9.7 8.7 8.7 0 013.49-3.26 10.62 10.62 0 015-1.15 10.28 10.28 0 013.8.68 7.11 7.11 0 012.86 2.09v-2.55zm-6.06 13a5.19 5.19 0 001.63-4 5.1 5.1 0 00-1.63-3.92 6.64 6.64 0 00-8.43 0 5.11 5.11 0 00-1.64 3.92 5.19 5.19 0 001.64 4 6.57 6.57 0 008.43 0zM1141.21 283.86v4.29a5 5 0 00-1-.11 5.45 5.45 0 00-4.11 1.53 6.12 6.12 0 00-1.47 4.41v9.32h-4.5v-19.22h4.28v2.8q1.91-3.01 6.8-3.02zM1158.76 285.9c1.5 1.35 2.25 3.4 2.25 6.13v11.27h-4.25V301a5.28 5.28 0 01-2.36 1.93 9.29 9.29 0 01-3.69.66 9 9 0 01-3.78-.74 5.86 5.86 0 01-2.5-2.05 5.16 5.16 0 01-.88-3 5.09 5.09 0 011.93-4.16q1.92-1.56 6.06-1.56h5v-.29a3.94 3.94 0 00-1.21-3.1 5.19 5.19 0 00-3.58-1.08 10.17 10.17 0 00-3.18.51 7.85 7.85 0 00-2.65 1.4l-1.76-3.27a10.88 10.88 0 013.63-1.77 16.14 16.14 0 014.5-.61q4.21-.01 6.47 2.03zm-4.1 13.6a4.2 4.2 0 001.85-2.21v-2.23h-4.64q-3.88 0-3.89 2.55a2.29 2.29 0 001 1.95 4.46 4.46 0 002.7.72 5.8 5.8 0 002.98-.78zM1185.78 276.59v26.71h-4.32v-2.48a7.06 7.06 0 01-2.75 2.05 9.45 9.45 0 01-3.62.68 10.11 10.11 0 01-5-1.22 8.8 8.8 0 01-3.47-3.48 11.18 11.18 0 010-10.31 8.81 8.81 0 013.47-3.46 10.21 10.21 0 015-1.22 9.19 9.19 0 013.49.65 7.13 7.13 0 012.7 1.94v-9.86zm-7.24 22.41a5.25 5.25 0 002-2.1 7 7 0 000-6.34 5.34 5.34 0 00-2-2.11 6.19 6.19 0 00-5.83 0 5.41 5.41 0 00-2 2.11 7 7 0 000 6.34 5.31 5.31 0 002 2.1 6.11 6.11 0 005.83 0zM1191.9 280.13a2.51 2.51 0 01-.83-1.92 2.55 2.55 0 01.83-1.93 2.9 2.9 0 012-.77 3 3 0 012 .74 2.38 2.38 0 01.83 1.85 2.72 2.72 0 01-.81 2 2.8 2.8 0 01-2.07.81 2.86 2.86 0 01-1.95-.78zm-.22 3.95h4.5v19.22h-4.5zM1220.09 295.13H1205a5.26 5.26 0 002.07 3.36 6.78 6.78 0 004.16 1.25 7 7 0 005.22-2.09l2.41 2.77a8.12 8.12 0 01-3.27 2.34 13 13 0 01-10-.47 9 9 0 01-3.72-3.51 9.88 9.88 0 01-1.32-5.09 10.09 10.09 0 011.28-5.06 9 9 0 013.55-3.51 10.32 10.32 0 015.11-1.26 10.07 10.07 0 015 1.24 8.87 8.87 0 013.46 3.49 10.7 10.7 0 011.24 5.21c-.03.31-.06.75-.1 1.33zm-13.31-6.39a5.37 5.37 0 00-1.81 3.4h10.9a5.3 5.3 0 00-1.76-3.38 5.35 5.35 0 00-3.67-1.3 5.46 5.46 0 00-3.66 1.28zM1241.22 286q2.19 2.13 2.19 6.3v11h-4.5v-10.44a5.42 5.42 0 00-1.18-3.8 4.43 4.43 0 00-3.39-1.28 5.18 5.18 0 00-3.92 1.5 5.94 5.94 0 00-1.44 4.3v9.72h-4.5v-19.22h4.28v2.48a7 7 0 012.81-2 10.22 10.22 0 013.81-.68 8.08 8.08 0 015.84 2.12zM1260.69 302.26a5.34 5.34 0 01-1.92 1 9 9 0 01-2.4.32 6.79 6.79 0 01-4.89-1.65 6.39 6.39 0 01-1.73-4.83v-9.25h-3.17v-3.6h3.17v-4.39h4.5v4.39h5.15v3.6h-5.15V297a3.08 3.08 0 00.68 2.15 2.58 2.58 0 002 .73 3.93 3.93 0 002.52-.79zM1021.62 329.17c1.42 1.4 2.12 3.51 2.12 6.31v11h-4.5v-10.42a5.67 5.67 0 00-1.11-3.8 4 4 0 00-3.21-1.28 4.67 4.67 0 00-3.63 1.5 6.12 6.12 0 00-1.37 4.27v9.75h-4.5v-10.44a5.62 5.62 0 00-1.12-3.8 4 4 0 00-3.2-1.28 4.71 4.71 0 00-3.65 1.48 6.15 6.15 0 00-1.35 4.29v9.75h-4.5v-19.22h4.28v2.45a6.88 6.88 0 012.7-2 9.1 9.1 0 013.6-.69 8.66 8.66 0 013.83.81 6.21 6.21 0 012.65 2.4 7.93 7.93 0 013.06-2.36 9.86 9.86 0 014.14-.85 7.81 7.81 0 015.76 2.13zM1043.35 329.1c1.5 1.35 2.25 3.4 2.25 6.13v11.27h-4.25v-2.34a5.28 5.28 0 01-2.36 1.93 9.29 9.29 0 01-3.69.66 9.07 9.07 0 01-3.78-.73A5.89 5.89 0 011029 344a5.46 5.46 0 011-7.13q1.93-1.56 6.07-1.56h5V335a4 4 0 00-1.21-3.1 5.26 5.26 0 00-3.58-1.07 10.27 10.27 0 00-3.19.5 7.9 7.9 0 00-2.64 1.4l-1.77-3.27a10.93 10.93 0 013.64-1.77 16.42 16.42 0 014.5-.61q4.28-.02 6.53 2.02zm-4.11 13.6a4.17 4.17 0 001.86-2.21v-2.23h-4.65q-3.89 0-3.89 2.55a2.3 2.3 0 001 1.95 4.42 4.42 0 002.7.72 5.76 5.76 0 002.98-.78zM1052.72 346.14a11.49 11.49 0 01-3.56-1.55l1.73-3.42a11 11 0 003.11 1.39 12.87 12.87 0 003.58.52q4 0 4-2.12a1.44 1.44 0 00-1-1.41 18.05 18.05 0 00-3.29-.75 26.6 26.6 0 01-3.87-.83 6 6 0 01-2.6-1.64 4.57 4.57 0 01-1.09-3.26 5.12 5.12 0 012.28-4.37 10.41 10.41 0 016.18-1.64 17.82 17.82 0 014 .45 10.93 10.93 0 013.24 1.21l-1.73 3.42a10.66 10.66 0 00-5.51-1.44 6.21 6.21 0 00-3 .59 1.78 1.78 0 00-1 1.57 1.56 1.56 0 001.1 1.53 17.1 17.1 0 003.4.84 26.87 26.87 0 013.78.83 5.9 5.9 0 012.54 1.59 4.42 4.42 0 011.06 3.16 5 5 0 01-2.34 4.32 11 11 0 01-6.37 1.62 17.2 17.2 0 01-4.64-.61zM1077.74 338.26l-3.34 3.16v5.08h-4.5v-26.71h4.5v16.13l9.32-8.64h5.4l-8 8.06 8.79 11.16h-5.48z"/><path fill="#cfd9ff" d="M683 130h249v249H683z"/><path fill="#3976b2" d="M932 381H683a2 2 0 01-2-2V130a2 2 0 012-2h249a2 2 0 012 2v249a2 2 0 01-2 2zm-247-4h245V132H685z"/><path fill="#ff1493" d="M936.93 126H788.16L682.97 379.96l2.5 1.04H937V126h-.07z" opacity=".45"/><path d="M846.868 278.496l.26-2.989 127.004 11-.259 2.989z"/><path fill="#ff1493" d="M936.65 635.29h-507.3a2.5 2.5 0 01-2.5-2.5V125.5a2.5 2.5 0 012.5-2.5h507.3a2.5 2.5 0 012.5 2.5v507.29a2.5 2.5 0 01-2.5 2.5zm-504.8-5h502.3V128h-502.3z"/><path fill="#cfd9ff" d="M377.45 321H236v340.12L377.45 321z"/><path fill="#3976b2" d="M236 663.12a1.72 1.72 0 01-.39 0 2 2 0 01-1.61-2V321a2 2 0 012-2h141.45a2 2 0 011.84 2.77L237.85 661.89a2 2 0 01-1.85 1.23zM238 323v328.1L374.45 323z"/><path d="M104.68 151.05v4.29a5 5 0 00-1-.11 5.46 5.46 0 00-4.11 1.53 6.12 6.12 0 00-1.47 4.41v9.32h-4.5v-19.22h4.28v2.81q1.91-3.03 6.8-3.03zM126.32 162.32h-15.09a5.28 5.28 0 002.07 3.37 6.86 6.86 0 004.16 1.24 7 7 0 005.22-2.09l2.41 2.77a8.12 8.12 0 01-3.27 2.34 13 13 0 01-10-.47 9.07 9.07 0 01-3.72-3.51 9.85 9.85 0 01-1.32-5.09 10.09 10.09 0 011.28-5.06 9.08 9.08 0 013.55-3.51 10.32 10.32 0 015.11-1.26 10.15 10.15 0 015 1.24 8.83 8.83 0 013.46 3.5 10.55 10.55 0 011.24 5.2c-.03.31-.05.75-.1 1.33zM113 155.93a5.34 5.34 0 00-1.82 3.4h10.91a5.28 5.28 0 00-5.44-4.68 5.42 5.42 0 00-3.65 1.28zM132.08 170.13a11.45 11.45 0 01-3.57-1.55l1.73-3.42a11.07 11.07 0 003.12 1.39 12.81 12.81 0 003.58.52q4 0 4-2.12a1.43 1.43 0 00-1-1.41 18.05 18.05 0 00-3.29-.75 27.21 27.21 0 01-3.87-.83 5.89 5.89 0 01-2.59-1.64 4.58 4.58 0 01-1.1-3.26 5.11 5.11 0 012.29-4.37 10.4 10.4 0 016.17-1.64 17.82 17.82 0 014 .45 10.93 10.93 0 013.24 1.21l-1.79 3.42a10.66 10.66 0 00-5.51-1.44 6.14 6.14 0 00-3 .59 1.77 1.77 0 00-1 1.57 1.57 1.57 0 001.1 1.53 17.29 17.29 0 003.4.84 26.24 26.24 0 013.78.83 5.84 5.84 0 012.54 1.59 4.39 4.39 0 011.06 3.16 5 5 0 01-2.34 4.32 11 11 0 01-6.37 1.62 17.12 17.12 0 01-4.58-.61zM167.86 151.27v19.22h-4.28V168a7.12 7.12 0 01-2.7 2 8.67 8.67 0 01-3.49.7 8.36 8.36 0 01-6.07-2.14c-1.48-1.43-2.21-3.54-2.21-6.35v-11h4.5v10.37a5.6 5.6 0 001.17 3.87 4.29 4.29 0 003.33 1.27 5 5 0 003.83-1.49 6 6 0 001.42-4.3v-9.72zM173.77 143.78h4.5v26.71h-4.5zM196.66 169.45a5.43 5.43 0 01-1.92 1 8.59 8.59 0 01-2.4.32 6.79 6.79 0 01-4.89-1.65 6.36 6.36 0 01-1.73-4.83V155h-3.17v-3.6h3.17V147h4.5v4.39h5.15V155h-5.15v9.15a3.07 3.07 0 00.68 2.14 2.59 2.59 0 002 .74 3.94 3.94 0 002.52-.8zM200.58 147.33a2.68 2.68 0 010-3.86 2.94 2.94 0 012.06-.77 3 3 0 012.05.74 2.38 2.38 0 01.83 1.85 2.72 2.72 0 01-.81 2 2.8 2.8 0 01-2.07.81 2.94 2.94 0 01-2.06-.77zm-.21 3.94h4.5v19.22h-4.5zM227.51 153.18q2.2 2.12 2.2 6.3v11h-4.5v-10.43a5.43 5.43 0 00-1.19-3.8 4.39 4.39 0 00-3.38-1.27 5.19 5.19 0 00-3.93 1.49 6 6 0 00-1.44 4.3v9.72h-4.5v-19.22h4.29v2.48a7 7 0 012.8-2 10 10 0 013.82-.69 8 8 0 015.83 2.12zM254.69 151.27v16.31q0 10.14-10.37 10.15a19.52 19.52 0 01-5.25-.7 11.15 11.15 0 01-4.11-2l2-3.38a9.7 9.7 0 003.19 1.67 12.44 12.44 0 003.9.63 6.48 6.48 0 004.65-1.44 5.89 5.89 0 001.47-4.39v-1a7.36 7.36 0 01-2.81 1.91 9.89 9.89 0 01-3.63.65 10.39 10.39 0 01-4.95-1.17 8.73 8.73 0 01-3.49-3.3 9.83 9.83 0 010-9.7 8.7 8.7 0 013.49-3.26 10.62 10.62 0 014.95-1.15 10.08 10.08 0 013.8.69 7 7 0 012.86 2.08v-2.55zm-6.06 13a5.19 5.19 0 001.63-4 5.1 5.1 0 00-1.63-3.92 6.64 6.64 0 00-8.43 0 5.11 5.11 0 00-1.64 3.92 5.19 5.19 0 001.64 4 6.57 6.57 0 008.43 0zM94.93 213.33a11.45 11.45 0 01-3.57-1.55l1.73-3.42a11 11 0 003.11 1.39 12.94 12.94 0 003.59.52c2.68 0 4-.71 4-2.12a1.43 1.43 0 00-1-1.41 18.05 18.05 0 00-3.29-.74 26.6 26.6 0 01-3.87-.83 5.89 5.89 0 01-2.63-1.65 4.53 4.53 0 01-1.1-3.26 5.12 5.12 0 012.28-4.37 10.46 10.46 0 016.18-1.64 17.82 17.82 0 014 .45 10.93 10.93 0 013.24 1.21l-1.73 3.42a10.66 10.66 0 00-5.51-1.44 6.14 6.14 0 00-3 .59 1.77 1.77 0 00-1 1.57 1.57 1.57 0 001.1 1.53 17.1 17.1 0 003.4.84 26.24 26.24 0 013.78.83 5.9 5.9 0 012.54 1.59 4.39 4.39 0 011.06 3.16 5 5 0 01-2.34 4.32 11 11 0 01-6.37 1.62 17.07 17.07 0 01-4.6-.61zM130.1 205.52H115a5.28 5.28 0 002.07 3.37 6.86 6.86 0 004.16 1.24 7 7 0 005.22-2.09l2.41 2.77a8.12 8.12 0 01-3.27 2.34 13 13 0 01-10-.47 9.07 9.07 0 01-3.72-3.51 9.85 9.85 0 01-1.32-5.09 10.09 10.09 0 011.28-5.06 9.08 9.08 0 013.55-3.51 10.32 10.32 0 015.11-1.26 10.15 10.15 0 015 1.24 8.83 8.83 0 013.46 3.5 10.55 10.55 0 011.24 5.2c-.02.31-.04.75-.09 1.33zm-13.3-6.39a5.34 5.34 0 00-1.82 3.4h10.91a5.28 5.28 0 00-5.44-4.68 5.42 5.42 0 00-3.65 1.28zM153.57 194.47v16.31q0 10.14-10.37 10.15a19.47 19.47 0 01-5.25-.7 11.15 11.15 0 01-4.11-2l2-3.38a9.75 9.75 0 003.18 1.67 12.54 12.54 0 003.91.63 6.43 6.43 0 004.64-1.44 5.85 5.85 0 001.48-4.39v-1a7.36 7.36 0 01-2.81 1.91 9.89 9.89 0 01-3.63.65 10.39 10.39 0 01-4.95-1.17 8.82 8.82 0 01-3.5-3.3 9.9 9.9 0 010-9.7 8.8 8.8 0 013.5-3.26 10.62 10.62 0 014.95-1.15 10 10 0 013.79.69 7 7 0 012.87 2.08v-2.55zm-6.07 13a5.16 5.16 0 001.64-4 5.08 5.08 0 00-1.64-3.92 6.62 6.62 0 00-8.42 0 5.11 5.11 0 00-1.64 3.92 5.19 5.19 0 001.64 4 6.56 6.56 0 008.42 0zM189.5 196.36q2.12 2.1 2.12 6.32v11h-4.5v-10.43a5.62 5.62 0 00-1.12-3.8 4 4 0 00-3.2-1.27 4.66 4.66 0 00-3.63 1.49 6.07 6.07 0 00-1.37 4.27v9.75h-4.5v-10.44a5.67 5.67 0 00-1.12-3.8 4 4 0 00-3.2-1.27 4.72 4.72 0 00-3.66 1.47 6.15 6.15 0 00-1.35 4.29v9.75h-4.5v-19.22h4.29v2.45a6.88 6.88 0 012.7-2 9.1 9.1 0 013.6-.69 8.66 8.66 0 013.83.81 6.21 6.21 0 012.65 2.4 7.93 7.93 0 013.06-2.36 9.83 9.83 0 014.14-.85 7.81 7.81 0 015.76 2.13zM215.56 205.52h-15.08a5.2 5.2 0 002.07 3.37 6.82 6.82 0 004.16 1.24 7 7 0 005.21-2.09l2.42 2.77a8.22 8.22 0 01-3.28 2.34 13 13 0 01-10-.47 9.1 9.1 0 01-3.73-3.51 9.85 9.85 0 01-1.31-5.09 10.09 10.09 0 011.27-5.06 9.14 9.14 0 013.55-3.51 10.35 10.35 0 015.11-1.26 10.15 10.15 0 015 1.24 8.83 8.83 0 013.46 3.5 10.55 10.55 0 011.24 5.2c-.02.31-.04.75-.09 1.33zm-13.3-6.39a5.38 5.38 0 00-1.82 3.4h10.91a5.26 5.26 0 00-1.77-3.38 5.32 5.32 0 00-3.67-1.3 5.42 5.42 0 00-3.65 1.28zM236.69 196.38q2.2 2.12 2.2 6.3v11h-4.5v-10.43a5.43 5.43 0 00-1.19-3.8 4.39 4.39 0 00-3.38-1.27 5.19 5.19 0 00-3.93 1.49 6 6 0 00-1.44 4.3v9.72H220v-19.22h4.29V197a7 7 0 012.8-2 10 10 0 013.82-.69 8 8 0 015.78 2.07zM256.17 212.65a5.39 5.39 0 01-1.93 1 8.47 8.47 0 01-2.39.32 6.82 6.82 0 01-4.9-1.65 6.39 6.39 0 01-1.73-4.83v-9.25h-3.16v-3.6h3.16v-4.39h4.5v4.39h5.15v3.6h-5.15v9.15a3 3 0 00.69 2.14 2.56 2.56 0 002 .74 3.94 3.94 0 002.52-.8zM271.18 213.33a11.28 11.28 0 01-3.56-1.55l1.72-3.42a11.2 11.2 0 003.12 1.39 12.81 12.81 0 003.58.52q4 0 4-2.12a1.43 1.43 0 00-1-1.41 18.42 18.42 0 00-3.3-.75 27.21 27.21 0 01-3.87-.83 5.94 5.94 0 01-2.59-1.64 4.58 4.58 0 01-1.1-3.26 5.11 5.11 0 012.29-4.37 10.4 10.4 0 016.17-1.64 17.82 17.82 0 014 .45 10.93 10.93 0 013.24 1.21l-1.73 3.42a10.62 10.62 0 00-5.5-1.44 6.18 6.18 0 00-3 .59 1.79 1.79 0 00-1 1.57 1.57 1.57 0 001.1 1.53 17.29 17.29 0 003.4.84 26.24 26.24 0 013.78.83 5.84 5.84 0 012.54 1.59 4.39 4.39 0 011.06 3.16 5 5 0 01-2.34 4.32 11 11 0 01-6.37 1.62 17.12 17.12 0 01-4.64-.61zM305.09 196.38q2.21 2.12 2.2 6.3v11h-4.5v-10.43a5.43 5.43 0 00-1.19-3.8 4.39 4.39 0 00-3.38-1.27 5.19 5.19 0 00-3.93 1.49 6 6 0 00-1.44 4.3v9.72h-4.5V187h4.5v9.72a7.36 7.36 0 012.76-1.82 10.09 10.09 0 013.65-.63 8 8 0 015.83 2.11zM326.85 196.29c1.5 1.35 2.25 3.4 2.25 6.13v11.27h-4.24v-2.34a5.33 5.33 0 01-2.36 1.93 9.29 9.29 0 01-3.69.66 9.07 9.07 0 01-3.78-.73 5.83 5.83 0 01-2.5-2.06 5.17 5.17 0 01-.89-3 5.09 5.09 0 011.93-4.15c1.28-1.05 3.31-1.57 6.07-1.57h5v-.29a3.94 3.94 0 00-1.2-3.09 5.23 5.23 0 00-3.58-1.08 10.22 10.22 0 00-3.19.5 8 8 0 00-2.65 1.4l-1.76-3.27a10.93 10.93 0 013.64-1.77 16.42 16.42 0 014.5-.61q4.21.03 6.45 2.07zm-4.1 13.6a4.16 4.16 0 001.85-2.21v-2.23H320q-3.88 0-3.89 2.55a2.32 2.32 0 001 1.95 4.46 4.46 0 002.7.72 5.8 5.8 0 002.94-.78zM350.54 195.48a8.81 8.81 0 013.48 3.45 11.2 11.2 0 010 10.32 8.86 8.86 0 01-3.48 3.47 10.14 10.14 0 01-5 1.22 7.78 7.78 0 01-6.16-2.59v9.33h-4.5v-26.21h4.29V197a6.89 6.89 0 012.75-2.05 9.23 9.23 0 013.62-.69 10.15 10.15 0 015 1.22zm-1.44 13a6.74 6.74 0 000-8.72 5.45 5.45 0 00-4.08-1.65 5.71 5.71 0 00-2.92.74 5.31 5.31 0 00-2.05 2.1 7 7 0 000 6.34 5.31 5.31 0 002.05 2.1 5.71 5.71 0 002.92.74 5.45 5.45 0 004.08-1.69zM377.56 205.52h-15.08a5.23 5.23 0 002.06 3.37 6.86 6.86 0 004.16 1.24 7 7 0 005.22-2.09l2.41 2.77a8.12 8.12 0 01-3.27 2.34 13 13 0 01-10-.47 9.1 9.1 0 01-3.73-3.51 9.85 9.85 0 01-1.31-5.09 10.09 10.09 0 011.27-5.06 9.08 9.08 0 013.55-3.51 10.32 10.32 0 015.11-1.26 10.15 10.15 0 015 1.24 8.83 8.83 0 013.46 3.5 10.55 10.55 0 011.24 5.2c-.02.31-.04.75-.09 1.33zm-13.3-6.39a5.38 5.38 0 00-1.82 3.4h10.91a5.26 5.26 0 00-1.77-3.38 5.32 5.32 0 00-3.67-1.3 5.42 5.42 0 00-3.65 1.28z"/><path fill="#3976b2" d="M236 322a1 1 0 01-.4-1.92l2.3-1a1 1 0 01.79 1.84l-2.29 1a1.14 1.14 0 01-.4.08zM242.86 319a1 1 0 01-.4-1.92l4.56-2a1 1 0 01.79 1.84l-4.56 2a1.09 1.09 0 01-.39.08zm9.14-3.9a1 1 0 01-.92-.6 1 1 0 01.52-1.32l4.56-2a1 1 0 011.32.53 1 1 0 01-.52 1.31l-4.56 2a1.14 1.14 0 01-.4.08zm9.12-3.94a1 1 0 01-.92-.6 1 1 0 01.52-1.32l4.56-2a1 1 0 11.8 1.83l-4.56 2a1 1 0 01-.42.09zm9.12-3.94a1 1 0 01-.39-1.91l4.56-2a1 1 0 11.79 1.83l-4.56 2a1 1 0 01-.42.08zm9.12-3.93a1 1 0 01-.39-1.92l4.56-2a1 1 0 11.79 1.83l-4.56 2a.93.93 0 01-.42.09zm9.13-3.94a1 1 0 01-.4-1.92l4.56-2a1 1 0 011.31.52 1 1 0 01-.52 1.32l-4.56 2a1.09 1.09 0 01-.41.08zm9.12-3.94a1 1 0 01-.4-1.92l4.56-2a1 1 0 11.79 1.84l-4.56 2a1 1 0 01-.41.08zm9.12-3.94a1 1 0 01-.4-1.92l4.56-2a1 1 0 01.8 1.84l-4.56 2a1.14 1.14 0 01-.42.08zm9.12-3.94a1 1 0 01-.92-.6 1 1 0 01.52-1.32l4.57-2a1 1 0 01.79 1.84l-4.56 2a1.14 1.14 0 01-.42.08zm9.12-3.94a1 1 0 01-.91-.6 1 1 0 01.52-1.32l4.56-2a1 1 0 11.79 1.83l-4.56 2a.92.92 0 01-.37.09zm9.13-3.94a1 1 0 01-.4-1.91l4.56-2a1 1 0 11.79 1.83l-4.56 2a.91.91 0 01-.41.08zm9.12-3.93a1 1 0 01-.4-1.92l4.56-2a1 1 0 11.79 1.83l-4.56 2a.92.92 0 01-.41.09zm9.12-3.94a1 1 0 01-.4-1.92l4.56-2a1 1 0 01.8 1.84l-4.57 2a1 1 0 01-.41.08zm9.12-3.94a1 1 0 01-.4-1.92l4.56-2a1 1 0 01.8 1.84l-4.56 2a1.14 1.14 0 01-.42.08zm9.12-3.94a1 1 0 01-.92-.6 1 1 0 01.53-1.32l4.56-2a1 1 0 01.79 1.84l-4.56 2a1.1 1.1 0 01-.42.08zm9.13-3.94a1 1 0 01-.92-.6 1 1 0 01.52-1.32l4.56-2a1 1 0 011.31.53 1 1 0 01-.52 1.31l-4.56 2a.91.91 0 01-.41.12zm9.12-3.94a1 1 0 01-.4-1.91l4.56-2a1 1 0 11.79 1.83l-4.56 2a.91.91 0 01-.41.06zm9.12-3.93a1 1 0 01-.4-1.92l4.56-2a1 1 0 11.79 1.83l-4.56 2a.89.89 0 01-.41.09zm9.12-3.94a1 1 0 01-.4-1.92l4.56-2a1 1 0 11.8 1.83l-4.56 2a1 1 0 01-.42.09zm9.12-3.94a1 1 0 01-.92-.61 1 1 0 01.53-1.31l4.56-2a1 1 0 01.79 1.84l-4.56 2a1.14 1.14 0 01-.42.08zm9.12-3.94a1 1 0 01-.39-1.92l4.56-2a1 1 0 01.79 1.84l-4.56 2a1.1 1.1 0 01-.42.08zm9.13-3.94a1 1 0 01-.4-1.92l4.56-2a1 1 0 01.79 1.84l-4.56 2a1.09 1.09 0 01-.41.08zm9.12-3.94a1 1 0 01-.92-.6 1 1 0 01.52-1.32l4.56-2a1 1 0 11.79 1.84l-4.56 2a.91.91 0 01-.41.08zm9.12-3.94a1 1 0 01-.4-1.91l4.56-2a1 1 0 11.8 1.83l-4.56 2a1 1 0 01-.42.08zm9.12-3.93a1 1 0 01-.4-1.92l4.57-2a1 1 0 11.79 1.83l-4.56 2a1 1 0 01-.42.09zm9.12-3.94a1 1 0 01-.92-.58 1 1 0 01.53-1.31l4.56-2a1 1 0 01.79 1.84l-4.56 2a.93.93 0 01-.42.05zm9.13-3.94a1 1 0 01-.4-1.92l4.56-2a1 1 0 01.79 1.84l-4.56 2a1.09 1.09 0 01-.44.08zm9.12-3.94a1 1 0 01-.4-1.92l4.56-2a1 1 0 01.79 1.84l-4.56 2a1.09 1.09 0 01-.41.08zm9.12-3.94a1 1 0 01-.92-.6 1 1 0 01.52-1.32l4.56-2a1 1 0 01.8 1.84l-4.56 2a1.14 1.14 0 01-.42.08zm9.12-3.94a1 1 0 01-.92-.6 1 1 0 01.52-1.32l4.56-2a1 1 0 11.8 1.83l-4.56 2a1 1 0 01-.42.09zm9.12-3.94a1 1 0 01-.39-1.91l4.56-2a1 1 0 01.79 1.83l-4.56 2a1 1 0 01-.42.08zm9.12-3.93a1 1 0 01-.39-1.92l4.56-2a1 1 0 01.79 1.83l-4.56 2a.93.93 0 01-.42.14zm9.13-3.94a1 1 0 01-.4-1.92l4.56-2a1 1 0 011.31.52 1 1 0 01-.52 1.32l-4.56 2a.92.92 0 01-.41.07zm9.12-3.94a1 1 0 01-.4-1.92l4.56-2a1 1 0 11.79 1.84l-4.56 2a1.09 1.09 0 01-.41.08zm9.12-3.94a1 1 0 01-.4-1.92l4.56-2a1 1 0 11.8 1.84l-4.56 2a1.14 1.14 0 01-.42.08zm9.12-3.94a1 1 0 01-.92-.6 1 1 0 01.52-1.32l4.57-2a1 1 0 01.79 1.84l-4.56 2a1 1 0 01-.42.08zm9.12-3.94a1 1 0 01-.91-.6 1 1 0 01.52-1.32l4.56-2a1 1 0 11.79 1.83l-4.56 2a.92.92 0 01-.42.09zm9.13-3.94a1 1 0 01-.4-1.91l4.56-2a1 1 0 11.79 1.83l-4.56 2a.91.91 0 01-.41.08zm9.12-3.93a1 1 0 01-.4-1.92l4.56-2a1 1 0 11.79 1.83l-4.56 2a.92.92 0 01-.41.09zm9.12-3.94a1 1 0 01-.4-1.92l4.56-2a1 1 0 11.8 1.84l-4.57 2a1 1 0 01-.41.08zm9.12-3.94a1 1 0 01-.4-1.92l4.56-2a1 1 0 11.8 1.84l-4.56 2a1.14 1.14 0 01-.42.08zm9.12-3.94a1 1 0 01-.92-.6 1 1 0 01.53-1.32l4.56-2a1 1 0 01.79 1.84l-4.56 2a1.1 1.1 0 01-.42.08zm9.12-3.94a1 1 0 01-.91-.6 1 1 0 01.52-1.32l4.56-2a1 1 0 01.79 1.84l-4.56 2a.92.92 0 01-.39.08zm9.13-3.94a1 1 0 01-.4-1.91l4.56-2a1 1 0 11.79 1.83l-4.56 2a.91.91 0 01-.41.08zm9.12-3.93a1 1 0 01-.4-1.92l4.56-2a1 1 0 11.79 1.83l-4.56 2a.89.89 0 01-.41.09zm9.12-3.94a1 1 0 01-.4-1.92l4.56-2a1 1 0 11.8 1.83l-4.56 2a1 1 0 01-.42.09zm9.12-3.94a1 1 0 01-.4-1.92l4.57-2a1 1 0 01.79 1.84l-4.56 2a1.14 1.14 0 01-.42.08zm9.12-3.94a1 1 0 01-.39-1.92l4.56-2a1 1 0 01.79 1.84l-4.56 2a1.1 1.1 0 01-.42.08zM680.71 130a1 1 0 01-.92-.6 1 1 0 01.52-1.32l2.29-1a1 1 0 11.8 1.84l-2.3 1a1.09 1.09 0 01-.39.08zM235.5 662.5a1 1 0 01-.53-1.85l2.11-1.33a1 1 0 011.07 1.7l-2.15 1.33a1 1 0 01-.5.15zM241.83 658.52a1 1 0 01-.53-1.85l4.22-2.65a1 1 0 011.38.32 1 1 0 01-.32 1.37l-4.21 2.66a1 1 0 01-.54.15zm8.44-5.3a1 1 0 01-.54-1.85l4.22-2.65a1 1 0 111.07 1.69l-4.22 2.65a1 1 0 01-.53.16zm8.43-5.3a1 1 0 01-.85-.47 1 1 0 01.32-1.38l4.21-2.65a1 1 0 111.07 1.69l-4.22 2.65a.94.94 0 01-.53.16zm8.43-5.31a1 1 0 01-.53-1.84l4.22-2.65a1 1 0 111.06 1.69l-4.21 2.65a1 1 0 01-.54.15zm8.44-5.3a1 1 0 01-.85-.47 1 1 0 01.32-1.38l4.21-2.65a1 1 0 011.07 1.7l-4.22 2.65a1 1 0 01-.53.15zM284 632a1 1 0 01-.53-1.85l4.22-2.65a1 1 0 011.06 1.7l-4.22 2.65a1 1 0 01-.53.15zm8.44-5.3a1 1 0 01-.54-1.85l4.22-2.65a1 1 0 011.38.32 1 1 0 01-.32 1.37l-4.18 2.66a1 1 0 01-.56.16zm8.43-5.3a1 1 0 01-.85-.47 1 1 0 01.32-1.38l4.21-2.65a1 1 0 111.07 1.69l-4.22 2.65a.94.94 0 01-.53.17zm8.43-5.3a1 1 0 01-.53-1.85l4.22-2.65a1 1 0 111.06 1.69l-4.22 2.71a.92.92 0 01-.53.11zm8.44-5.31a1 1 0 01-.54-1.84l4.22-2.65a1 1 0 011.38.31 1 1 0 01-.31 1.38l-4.22 2.65a1 1 0 01-.53.16zm8.43-5.3a1 1 0 01-.53-1.84l4.21-2.66a1 1 0 011.07 1.7l-4.22 2.65a1 1 0 01-.53.16zm8.43-5.3a1 1 0 01-.84-.47 1 1 0 01.31-1.38l4.22-2.65a1 1 0 011.06 1.7l-4.21 2.65a1 1 0 01-.54.16zm8.44-5.3a1 1 0 01-.54-1.85l4.22-2.65a1 1 0 111.07 1.69l-4.22 2.66a1 1 0 01-.57.16zm8.43-5.3a1 1 0 01-.85-.47 1 1 0 01.32-1.38l4.22-2.65a1 1 0 011.06 1.69l-4.22 2.66a.94.94 0 01-.53.16zm8.44-5.31a1 1 0 01-.54-1.84l4.22-2.65a1 1 0 111.06 1.69l-4.21 2.65a1 1 0 01-.53.16zm8.43-5.3a1 1 0 01-.53-1.84l4.19-2.64a1 1 0 011.07 1.69l-4.22 2.65a1 1 0 01-.51.16zm8.43-5.3a1 1 0 01-.53-1.85l4.22-2.65a1 1 0 011.06 1.7l-4.22 2.65a1 1 0 01-.53.16zm8.44-5.3a1 1 0 01-.54-1.85l4.22-2.65a1 1 0 111.06 1.7l-4.21 2.65a1 1 0 01-.53.16zm8.43-5.3a1 1 0 01-.53-1.85l4.21-2.65a1 1 0 011.38.32 1 1 0 01-.31 1.37l-4.22 2.65a.94.94 0 01-.53.17zm8.43-5.3a1 1 0 01-.53-1.85l4.22-2.65a1 1 0 011.38.31 1 1 0 01-.32 1.38l-4.22 2.65a.94.94 0 01-.53.17zm8.44-5.31a1 1 0 01-.85-.46 1 1 0 01.31-1.38l4.22-2.65a1 1 0 111.06 1.69l-4.25 2.66a1 1 0 01-.49.15zm8.43-5.3a1 1 0 01-.53-1.84l4.21-2.65a1 1 0 011.07 1.69l-4.22 2.63a1 1 0 01-.53.18zm8.43-5.3a1 1 0 01-.53-1.84l4.22-2.66a1 1 0 111.06 1.7l-4.21 2.65a1 1 0 01-.54.16zm8.44-5.3a1 1 0 01-.85-.47 1 1 0 01.32-1.38l4.21-2.65a1 1 0 011.07 1.7l-4.22 2.65a1 1 0 01-.53.16zm8.43-5.3a1 1 0 01-.53-1.85l4.22-2.65a1 1 0 011.06 1.69l-4.22 2.65a.94.94 0 01-.53.17zm8.44-5.3a1 1 0 01-.54-1.85l4.22-2.65a1 1 0 111.06 1.69l-4.21 2.65a1 1 0 01-.53.19zm8.43-5.31a1 1 0 01-.53-1.84l4.21-2.65a1 1 0 011.07 1.69l-4.22 2.65a1 1 0 01-.53.16zm8.43-5.3a1 1 0 01-.53-1.84l4.22-2.65a1 1 0 111.06 1.69l-4.22 2.65a1 1 0 01-.53.16zm8.44-5.3a1 1 0 01-.85-.47 1 1 0 01.31-1.38l4.22-2.65a1 1 0 111.06 1.7l-4.21 2.65a1 1 0 01-.51.16zm8.43-5.3a1 1 0 01-.53-1.85l4.21-2.65a1 1 0 011.07 1.7l-4.22 2.65a1 1 0 01-.53.16zm8.43-5.3a1 1 0 01-.53-1.85l4.22-2.65a1 1 0 011.38.32 1 1 0 01-.32 1.37l-4.21 2.65a1 1 0 01-.54.17zm8.44-5.3a1 1 0 01-.54-1.85l4.22-2.65a1 1 0 011.07 1.69l-4.22 2.65a1 1 0 01-.53.17zm8.43-5.31a1 1 0 01-.53-1.84l4.21-2.65a1 1 0 011.07 1.69l-4.22 2.65a1 1 0 01-.53.16zm8.43-5.3a1 1 0 01-.53-1.84l4.22-2.65a1 1 0 011.38.31 1 1 0 01-.32 1.38l-4.21 2.65a1 1 0 01-.54.16zm8.44-5.3a1 1 0 01-.54-1.84l4.22-2.66a1 1 0 011.07 1.7l-4.22 2.65a1 1 0 01-.53.16zM537 473a1 1 0 01-.53-1.85l4.22-2.65a1 1 0 011.06 1.7l-4.22 2.65a1 1 0 01-.53.15zm8.44-5.3a1 1 0 01-.54-1.85l4.22-2.65a1 1 0 111.06 1.69L546 467.5a1 1 0 01-.55.16zm8.43-5.3a1 1 0 01-.85-.47 1 1 0 01.32-1.38l4.21-2.65a1 1 0 011.07 1.69l-4.22 2.65a.94.94 0 01-.52.12zm8.43-5.31a1 1 0 01-.85-.46 1 1 0 01.32-1.38l4.22-2.65a1 1 0 111.06 1.69l-4.22 2.65a1 1 0 01-.52.11zm8.44-5.3a1 1 0 01-.54-1.84l4.22-2.66a1 1 0 111.06 1.7l-4.21 2.65a1 1 0 01-.52.11zm8.43-5.3a1 1 0 01-.85-.47 1 1 0 01.32-1.38l4.21-2.65a1 1 0 011.07 1.7l-4.22 2.65a1 1 0 01-.52.11zm8.43-5.3a1 1 0 01-.53-1.85l4.22-2.65a1 1 0 111.06 1.7l-4.21 2.61a1 1 0 01-.53.15zm8.44-5.3a1 1 0 01-.54-1.85l4.22-2.65a1 1 0 111.06 1.69l-4.21 2.65a1 1 0 01-.52.12zm8.43-5.3a1 1 0 01-.85-.47 1 1 0 01.32-1.38l4.21-2.65a1 1 0 011.38.31 1 1 0 01-.31 1.38l-4.22 2.61a.94.94 0 01-.52.16zm8.43-5.31a1 1 0 01-.53-1.84l4.22-2.65a1 1 0 111.06 1.69l-4.21 2.65a1 1 0 01-.53.11zm8.44-5.3a1 1 0 01-.54-1.84l4.22-2.65a1 1 0 011.38.31 1 1 0 01-.31 1.38l-4.22 2.65a1 1 0 01-.52.11zm8.43-5.3a1 1 0 01-.85-.47 1 1 0 01.32-1.38l4.22-2.65a1 1 0 011.06 1.7l-4.22 2.65a1 1 0 01-.52.11zm8.44-5.3a1 1 0 01-.54-1.85l4.22-2.65a1 1 0 111.06 1.7l-4.21 2.65a1 1 0 01-.52.11zm8.43-5.3a1 1 0 01-.53-1.85l4.21-2.65a1 1 0 011.38.31 1 1 0 01-.31 1.38l-4.22 2.65a.94.94 0 01-.52.08zm8.43-5.3a1 1 0 01-.53-1.85l4.22-2.65a1 1 0 111.06 1.69l-4.22 2.65a.94.94 0 01-.52.12zm8.44-5.31a1 1 0 01-.85-.46 1 1 0 01.31-1.38l4.22-2.65a1 1 0 011.38.31 1 1 0 01-.32 1.38l-4.21 2.65a1 1 0 01-.52.11zm8.43-5.3a1 1 0 01-.53-1.84l4.21-2.65a1 1 0 011.07 1.69l-4.21 2.63a1 1 0 01-.48.13zM680.38 382.83a1 1 0 01-.84-.47 1 1 0 01.31-1.38l2.12-1.33a1 1 0 111.06 1.7l-2.11 1.33a1 1 0 01-.54.15z"/></g></svg>