<svg xmlns="http://www.w3.org/2000/svg" viewBox="0 0 1920 1080">
  <path fill="#FFF" d="M2059.8 794.6l17.5 20.9 27.1-2.6-14.5 23.1 10.9 24.9-26.4-6.6-20.5 18.1-1.8-27.2-23.5-13.9 25.3-10.1z" />
  <path fill="#28287F" d="M960 0h960v1080H960z"/>
  <path fill="#A171DB" d="M1159.1 173.6l6.7 32.7 30.8 12.9-29 16.6-2.7 33.3-24.8-22.5-32.4 7.7 13.7-30.5-17.3-28.5 33.1 3.6zM1765 237.7l-.2 22 18 12.6-21 6.6-6.5 21-12.7-17.9-22 .3 13.1-17.6-7.1-20.8 20.8 7zM1240 872.7l-.2 22 18 12.6-21 6.6-6.5 21-12.7-17.9-22 .3 13.1-17.6-7.1-20.8 20.8 7zM1664 808.3l-.2 17.7 14.5 10.2-16.9 5.3-5.2 16.9-10.3-14.4-17.7.3 10.6-14.2-5.7-16.8 16.7 5.6zM1393.2 553.3c-24.8-87.3 13.4-177.7 87.6-222.4-31.9-6.3-65.7-5.3-99.1 4.2-113.2 32.2-178.8 150-146.6 263.1 32.2 113.2 150 178.8 263.1 146.6 33.4-9.5 62.7-26.5 86.5-48.6-86.6 1.1-166.6-55.6-191.5-142.9z"/>
  <path fill="#227" d="M1644.9 481.7c-22.7-79.7-87.9-135.9-164-150.8-74.2 44.7-112.5 135-87.6 222.4 24.8 87.3 104.9 144 191.5 143 56.8-52.8 82.8-134.8 60.1-214.6z"/>
  <path fill="#67C5E5" d="M0-3h960v1080H0z"/>
  <path fill="#E5B93C" d="M768 537l-127 32.1 105.1 78.2-129.6-19.2 67.1 112.5-112.5-67.1 19.2 129.6L512.1 698 480 825l-32.1-127-78.2 105.1 19.2-129.6-112.5 67.1 67.1-112.5-129.6 19.2L319 569.1 192 537l127-32.1-105.1-78.2 129.6 19.2-67.1-112.5 112.5 67.1-19.2-129.6L447.9 376 480 249l32.1 127 78.2-105.1-19.2 129.6 112.5-67.1-67.1 112.5 129.6-19.2L641 504.9z"/>
  <circle cx="480" cy="537" r="150.9" fill="#EDE594"/>
</svg>