<svg xmlns="http://www.w3.org/2000/svg" xml:space="preserve" style="enable-background:new 0 0 1600 900" viewBox="0 0 1600 900"><style>.st3{fill:#7b22ef;fill-opacity:.5}.st4{fill:#541daa}.st5{fill:#88cad1;fill-opacity:.5}.st6{fill:#331c60}</style><path id="Layer_1" d="M0 0h1600v900H0z" style="fill:#dbf7ff"/><g id="Layer_2"><path d="M1055.9 446.8H805.1l125.4-217.3-5.2-3-125.4 217.3-125.4-217.3-5.2 3 125.4 217.3H543.9v6h250.8L669.3 670l5.2 3 125.4-217.3L925.3 673l5.2-3-125.4-217.2h250.8z" style="fill:#a0d7e0"/><path d="M800.4 710.9c-22.7 0-45.5-3-68-9-67.3-18-123.6-61.2-158.5-121.6-34.9-60.4-44.1-130.7-26.1-198.1 18-67.3 61.2-123.6 121.6-158.5 60.4-34.9 130.7-44.1 198.1-26.1 67.3 18 123.6 61.2 158.5 121.6s44.1 130.7 26.1 198.1c-18 67.3-61.2 123.6-121.6 158.5-40.3 23.2-84.9 35.1-130.1 35.1zm-.9-512.3c-43.5 0-86.4 11.4-125.1 33.7-58.1 33.5-99.6 87.6-116.9 152.4-17.4 64.8-8.4 132.4 25.1 190.5 33.5 58.1 87.6 99.6 152.4 116.9 21.6 5.8 43.6 8.7 65.4 8.7 43.5 0 86.4-11.4 125.1-33.7 58.1-33.5 99.6-87.6 116.9-152.4 17.4-64.8 8.4-132.4-25.1-190.5s-87.6-99.6-152.4-116.9c-21.6-5.8-43.6-8.7-65.4-8.7z" style="fill:#65b0c1"/><circle cx="671.9" cy="228" r="154" class="st3"/><circle cx="671.9" cy="228" r="19" class="st4"/><circle cx="927.3" cy="228.4" r="154" class="st3"/><circle cx="927.3" cy="228.4" r="19" class="st4"/><circle cx="1055.3" cy="450.1" r="154" class="st3"/><circle cx="1055.3" cy="450.1" r="19" class="st4"/><circle cx="927.9" cy="671.5" r="154" class="st3"/><circle cx="927.9" cy="671.5" r="19" class="st4"/><circle cx="671.7" cy="671.6" r="154" class="st3"/><circle cx="671.7" cy="671.6" r="19" class="st4"/><circle cx="543.7" cy="449.9" r="154" class="st3"/><circle cx="543.7" cy="449.9" r="19" class="st4"/><path d="M927.3 228.4 817.8 418.7c10.8 6.2 18.1 17.7 18.2 31h91.3V228.4z" class="st5"/><path d="M927.3 452.8H836c-1.6 0-3-1.3-3-3-.1-11.7-6.5-22.6-16.7-28.5-.7-.4-1.2-1.1-1.4-1.8-.2-.8-.1-1.6.3-2.3l109.5-190.3c.7-1.2 2.1-1.8 3.4-1.4 1.3.4 2.2 1.5 2.2 2.9v221.4c0 1.6-1.3 3-3 3zm-88.4-6h85.5V239.6L821.8 417.7c9.8 6.6 16.1 17.3 17.1 29.1z" class="st6"/><path d="m817.8 418.7-17.9 31H836c-.1-13.3-7.4-24.8-18.2-31z" class="st5"/><path d="M836 452.8h-36.1c-1.1 0-2.1-.6-2.6-1.5s-.5-2.1 0-3l17.9-31c.8-1.4 2.7-1.9 4.1-1.1 12.1 6.9 19.6 19.8 19.7 33.6 0 .8-.3 1.6-.9 2.1-.5.5-1.3.9-2.1.9zm-30.9-6h27.7c-1-9.6-6.1-18.3-14-23.8l-13.7 23.8zM868.8 492.4h-6.2l6.6-10-5.9-9.1h6.4l3.1 6.1 3-6.1h6l-5.6 8.9 6.6 10.3h-6.4l-3.8-7.1-3.8 7zM978 346.8l-6.4 19.1c-.6 1.7-1.3 3.1-2.2 4.3-.9 1.1-2.1 2-3.5 2.7s-3.1 1-5 1.1l-.6-4c1.3-.2 2.3-.4 3.1-.7.8-.3 1.4-.7 1.9-1.3.5-.5.9-1.2 1.2-2h-1.9l-6.1-19.1h6l3.7 15.5 4-15.5h5.8z" class="st6"/></g></svg>