<svg xmlns="http://www.w3.org/2000/svg" xml:space="preserve" viewBox="0 0 1600 900"><path fill="#9932CC" d="M0 0h1600v900H0z"/><path fill="#FF1493" d="M1548.6 735c-392.6-139.1-463.3-20.1-153.7 258.7-309.6-278.8-420.5-196.1-241.2 179.8-179.3-375.9-313.4-341.8-291.7 74.2-21.7-416-158.7-436-297.7-43.4 139.1-392.6 20.1-463.3-258.7-153.7C584.4 741 501.7 630.1 125.8 809.3 501.7 630.1 467.6 496 51.6 517.7 467.6 496 487.6 359.1 95 220c392.6 139.1 463.3 20.1 153.7-258.7 309.6 278.8 420.5 196.1 241.2-179.8 179.2 375.9 313.3 341.8 291.6-74.2 21.7 416 158.7 436 297.7 43.4-139 392.6-20.1 463.3 258.7 153.7-278.8 309.6-196.1 420.5 179.8 241.2C1141.8 324.9 1176 459 1592 437.3c-416 21.7-436 158.6-43.4 297.7z"/><path fill="#FFB43B" d="M1358.8 673c-293.4-104-346.2-15.1-114.9 193.3-231.4-208.4-314.3-146.6-180.3 134.4-134-281-234.2-255.5-217.9 55.5-16.2-310.9-118.6-325.9-222.5-32.5 104-293.4 15.1-346.2-193.3-114.9 208.4-231.4 146.6-314.3-134.4-180.3 281-134 255.5-234.2-55.5-217.9C550.9 494.3 565.8 392 272.4 288c293.4 104 346.2 15.1 114.9-193.3C618.7 303.1 701.6 241.3 567.6-39.7c134 281 234.2 255.5 217.9-55.5 16.2 310.9 118.6 325.9 222.5 32.5-104 293.4-15.1 346.2 193.3 114.9-208.3 231.3-146.5 314.2 134.5 180.3-281 134-255.5 234.2 55.5 217.9-311 16.3-325.9 118.6-32.5 222.6z"/><path fill="#AF56E2" d="M1600 900H0V467l1600 125z"/><ellipse cx="754.2" cy="698.7" fill="#9932CC" rx="138.6" ry="377.7" transform="rotate(-88.875 754.186 698.744)"/><path fill="#5E6780" d="m1064.7 617.3-486.9-63.2c-12.5-1.6-21.8-12.3-21.8-24.8V239.9c0-11.4 9.6-20.4 20.9-19.7l485.3 28.3c13.9.8 24.8 12.4 24.8 26.3v323c0 11.9-10.5 21.1-22.3 19.5z"/><path fill="#768199" d="M880.8 288.7c77.3 0 148.6 16.3 206.2 43.8v-57.8c0-14-10.9-25.5-24.8-26.3l-485.3-28.3c-11.4-.7-20.9 8.4-20.9 19.7v165.9c48.2-85.1 175.4-117 324.8-117z"/><path fill="#51596D" d="m1068.9 254.8-8-.6c7.3 3.4 12.5 12.9 12.5 24v310.1c0 10.3-5.9 18.5-13.1 19l10.4 1.8c8.6 1.5 16.3-7.4 16.3-18.8V280.1c0-13.4-7.9-24.5-18.1-25.3z"/><path fill="none" stroke="#231F20" stroke-linecap="round" stroke-linejoin="round" stroke-miterlimit="10" stroke-width="10" d="m1064.7 617.3-486.9-63.2c-12.5-1.6-21.8-12.3-21.8-24.8V239.9c0-11.4 9.6-20.4 20.9-19.7l485.3 28.3c13.9.8 24.8 12.4 24.8 26.3v323c0 11.9-10.5 21.1-22.3 19.5z"/><path fill="#AAB3CC" d="M551.7 553.5 381.9 654.3c-8.6 5.1-11.7 25.6-2 27.7l500.9 93.7c10 2.2 16.4.8 28.4-7.3L1076 627.6c4.9-4.3 2.6-17.6-3.7-18.4l-507.1-61.7c-1.6-.2-12.2 5.1-13.5 6z"/><path fill="#5E6780" stroke="#231F20" stroke-linecap="round" stroke-linejoin="round" stroke-miterlimit="10" stroke-width="6" d="m573.6 568.3 439.7 52.9-78.9 61.5L495 615.5zm33.7 78.8 172.5 27.1-38.2 29.3-174-30.8z"/><path fill="#808699" d="m1072.3 609.2-12.7-1.5c-14.8 19.3-104.9 89.2-138.8 117.4-33.9 28.2-61 19.2-80.2 15.8-15.5-2.7-337.5-62.2-460.8-85-7 6.8-8.8 24.2.1 26.2l500.9 93.7c10 2.2 16.4.8 28.4-7.3L1076 627.6c4.9-4.2 2.6-17.6-3.7-18.4z"/><path fill="none" stroke="#231F20" stroke-linecap="round" stroke-linejoin="round" stroke-miterlimit="10" stroke-width="10" d="M551.7 553.5 381.9 654.3c-8.6 5.1-11.7 25.6-2 27.7l500.9 93.7c10 2.2 16.4.8 28.4-7.3L1076 627.6c4.9-4.3 2.6-17.6-3.7-18.4l-507.1-61.7c-1.6-.2-12.2 5.1-13.5 6z"/><path fill="#76C3CE" d="m588.4 255.2 454.5 28.7v285.4l-454.5-50.8z"/><path fill="#539AA0" d="M729.5 472c-50.6 0-98.5-6.1-141.1-17v63.6l454.5 50.8V342.7C1008.8 416.9 881.4 472 729.5 472z"/><path fill="none" stroke="#231F20" stroke-linecap="round" stroke-linejoin="round" stroke-miterlimit="10" stroke-width="8" d="m588.4 255.2 454.5 28.7v285.4l-454.5-50.8z"/><path d="M675.1 472.1c-8.7 0-15.4-6.6-16.2-16l-5.2-51 26.1-6.2 4.2 45.6 19.6-4.6 4.7 23.2-3.9 1.5c-7 2.8-16.6 5.1-25.1 7.1-1.5.3-2.9.4-4.2.4zm9.2-25.1z"/><path d="m675.3 405.1 3.9 42c.3 2.1.8 3 2.2 3 .4 0 .8-.1 1.2-.2l17-4 2.8 14c-6.6 2.6-15.9 4.9-24.4 6.9-1 .2-2 .4-3 .4-6 0-10.6-4.5-11.3-11.5L659 409l16.3-3.9m8.9-12.4-11.2 2.7-16.3 3.9-8.5 2 .9 8.7 4.7 46.7c1.1 12.1 9.8 20.5 21.2 20.5 1.7 0 3.5-.2 5.3-.6 9.1-2.1 18.6-4.4 25.9-7.3l7.8-3.1-1.7-8.2-2.8-14-2-10.1-10 2.4-8.9 2.1-3.1-34.1-1.3-11.6z"/><path d="M719.1 462.1c-18.6 0-20.9-17.7-21.7-23.5-2.5-19.3 3.7-28.9 21.6-33.2 4-.9 7.3-1.4 10.4-1.4 13.4 0 17.1 9.4 17.8 17.4.5 4.9-.6 8.4-2.7 11.2l5.6 17.1-2.5 2.2c-5.9 5.2-13.6 7.8-19 9-3.5.8-6.6 1.2-9.5 1.2z"/><path d="M729.4 409c8.6 0 12.1 4.6 12.9 12.8.7 8-3.6 11.2-13.5 14.4l-9.2 3c.6 2.3 1.6 3.1 3.4 3.1.8 0 1.7-.2 2.8-.4 3.1-.7 10.7-2.9 15.1-4.6l3.5 10.7c-4.7 4.1-10.9 6.6-16.8 7.9-3.1.7-5.9 1.1-8.3 1.1-10.8 0-15.1-7-16.8-19.2-2.5-18.7 4.5-24.5 17.8-27.6 3.4-.8 6.5-1.2 9.1-1.2m-10.9 21.2 4.1-1.5c3-1.1 4.6-1.8 4.2-5.1-.2-1.4-.6-2.1-1.9-2.1-.5 0-1.2.1-2.1.3-3.6.9-4.5 2.5-4.3 8.4m10.9-31.2c-3.4 0-7.2.5-11.5 1.5-6.7 1.6-15 4.4-20.5 11.8-4.9 6.6-6.4 15.1-4.9 26.9 1.1 8.5 3.4 14.5 7.1 19.1 3.2 4 9.2 8.7 19.6 8.7 3.2 0 6.7-.4 10.6-1.4 6-1.4 14.4-4.3 21.1-10.1l5-4.3-2-6.3-3.5-10.7-.3-1c1.7-3.2 2.7-7.3 2.2-12.3-1.4-13.9-9.7-21.9-22.9-21.9z"/><path d="M763 452.4c-8.5 0-14.5-5.8-15.3-14.7l-1.4-15.8-6.3 1.5-2.3-20.4 6.7-2.1-1.1-11.8 25.3-6.1 1.1 11.6 8.9-2.1 2.2 21.2-9.1 2.2 1 10.1 6.1-1.4 5.7 19.4-2.7 2.1c-3.9 3-10.6 5.1-13.9 5.9-1.8.2-3.4.4-4.9.4z"/><path d="m764.1 389.1 1.1 11.6 9-2.2 1.1 11.1-9 2.2 1.6 17.4c.1 1.7.4 2.4 1.5 2.4.4 0 .8-.1 1.4-.2l4.4-1 3.4 11.5c-3.1 2.4-8.9 4.3-12 5-1.3.3-2.5.4-3.6.4-5.7 0-9.7-3.7-10.3-10.2l-2-21.6-6.4 1.5-1.2-10.6 6.6-2-1.1-11.6 15.5-3.7m8.8-12.4-11.2 2.7-15.5 3.7-8.4 2 .8 8.6.3 3.5-6.8 2.1.9 8.2 1.2 10.6 1.3 11.2 6.2-1.5.9 10.1c1 11.5 9.2 19.3 20.3 19.3 1.9 0 3.9-.2 5.9-.7 1.7-.4 10.2-2.6 15.8-6.8l5.5-4.2-2-6.6-3.4-11.5-2.7-9.1-5.1 1.2v-.1l.6-.1 8.5-2-.9-8.7-1.1-11.1-1.2-11.4-8.9 2.1v-.1l-1-11.4z"/><path d="m774.6 409.2.7-4.7c.3-2.1.4-4.2.4-6.4-2-1-3.9-3.3-4.4-7.9l-.4-3.8c-.6-6.6 2-10.7 8-12.1l2.3-.6c1-.3 2-.4 2.9-.4 7 0 8.5 6.7 8.9 9.6l.5 5.2c.6 6.7-.4 15-2.5 20.2l-1.5 3.8-14.9-2.9z"/><path d="M784.1 378.2c2.3 0 3.5 1.5 3.9 5.1l.5 5.1c.5 5.7-.3 13.2-2.2 17.9l-6.1-1.2c.6-3.9.4-7.7.5-11.4-.5.1-.9.2-1.4.2-1.9 0-2.8-1.5-3.1-4.4l-.4-3.7c-.4-4.4.9-6 4.2-6.8l2.3-.6c.7-.1 1.2-.2 1.8-.2m0-10c-1.3 0-2.7.2-4.1.5l-2.3.6c-4.2 1-7.4 3.2-9.5 6.3-2 3-2.7 6.7-2.3 11.2l.4 3.7v.2c.4 3.2 1.2 5.7 2.7 7.8.5.7 1.1 1.4 1.7 2 0 1.1-.1 2.2-.3 3.3l-1.4 9.5 9.4 1.8 6.1 1.2 8 1.5 3.1-7.6c2.4-6 3.6-15.1 2.9-22.6l-.5-5.2v-.2c-.4-3.7-1.5-6.6-3.2-8.9-2.7-3.2-6.4-5.1-10.7-5.1z"/><path d="m792.1 422.5 6.7-1.6c-5.4-2.6-8.6-7.9-9.3-15.5-1-11.3 5.1-18.1 19.3-21.6 6.3-1.5 15.2-2.7 20.2-2.7h4.8l1.9 19.6-5 1.2c4.7 2.6 7.6 7.4 8.4 13.9 1.8 16.1-8.4 20.8-19.8 23.6-4.5 1.1-11.5 2.5-20.5 2.8l-4.7.1-2-19.8z"/><path d="M828.9 386.1h.3l1 10.8-14.3 3.5c-5.2 1.3-6.4 1.5-6.3 2.4 0 .9.9 1.2 4.2 1.4l8.7.5c6.5.4 10.7 4.2 11.5 11.6 1.3 11.7-4.9 15.5-16 18.1-4.6 1.1-11.3 2.4-19.5 2.7l-1-10.7 12.5-3c7.7-1.8 9.1-2.4 9-3.6-.1-.9-.9-1.1-4.5-1.4l-8.4-.7c-7.6-.6-10.9-5.6-11.5-12.8-.7-7.7 2.3-13.1 15.5-16.3 5.6-1.4 14.1-2.5 18.8-2.5m0-10c-5.4 0-14.6 1.2-21.3 2.9-8.5 2.1-14.3 5.1-18.2 9.7-3.9 4.6-5.5 10.2-4.9 17.2.4 4.8 1.8 9 4 12.4l-1.9.4.8 8.7 1 10.7.9 9.3 9.4-.3c7.1-.2 14.2-1.2 21.6-2.9 7.2-1.7 26.1-6.3 23.6-29-.5-4.1-1.6-7.6-3.5-10.6l.5-.1-.8-8.6-1-10.8-.9-9-9-.1-.3.1zm35.6 68.5c-2.5 0-4.8-.3-6.7-.8l-3.2-.9-2.5-17.7 3.8-.9c-7-5.6-8-18-8.4-22.8-2-24.6 7.2-28.9 19.5-31.9 9.1-2.2 17.4-3 22.2-3 1 0 1.9 0 2.7.1l4.1.4 3.7 39.2c2.8 27.1-10.3 33.8-22.1 36.6-2.7.6-7.9 1.7-13.1 1.7z"/><path d="M889.2 371.6c.9 0 1.6 0 2.2.1l3.3 35.1c2.4 23.4-7.7 28.8-18.3 31.3-2.1.5-7.1 1.6-11.9 1.6-1.9 0-3.8-.2-5.4-.6l-1.4-10 9.4-2.3c7.1-1.7 11.9-4.2 13.4-9.1 1.1-3.4.3-6.5 1-9.7-2 7-6.6 11.6-13 13.5-1.5.4-2.8.7-4.1.7-7.7 0-10.9-8.3-11.9-21.1-1.7-21.2 4.8-24 15.7-26.6 8.3-2.1 16.4-2.9 21-2.9m-18 35.5c.3 0 .7-.1 1.1-.3 2.2-1.1 4.3-4.3 5.6-8.5l-1.3-13.4-3.6.9c-4.9 1.2-5.3 3.6-4.8 10.9.6 7.6 1.4 10.4 3 10.4m18-45.5c-5.1 0-13.9.8-23.4 3.2-6.5 1.6-13.3 3.7-18.1 10.1-4.6 6-6.1 14.4-5.1 27.1.7 8.3 2.1 14.4 4.5 19.1 0 .1.1.2.2.3l-.6.2 1.3 9 1.4 10 .9 6.6 6.4 1.7c2.4.6 5 .9 8 .9 5.7 0 11.4-1.2 14.2-1.8 5.6-1.4 13.8-4 19.6-11.4 5.6-7.3 7.7-17.3 6.3-30.6l-3.3-35-.8-8.3-8.3-.8c-1-.3-2.1-.3-3.2-.3z"/><path d="M914.5 415.3c-12.5 0-19.6-8.2-21.1-24.4-1.8-19.6 4.3-29 21.8-33.3 3.5-.9 6.6-1.3 9.5-1.3 18.6 0 20.3 18.6 20.9 24.8 1.7 19.5-4.4 28.7-21.8 33-3.4.8-6.5 1.2-9.3 1.2z"/><path d="M924.7 361.4c9.5 0 14.6 6 15.9 20.2 1.5 16.9-3.1 24-18 27.6-3 .7-5.8 1.1-8.2 1.1-9.5 0-14.8-5.9-16.1-19.8-1.6-17.1 3-24.3 18-28 3.2-.7 6-1.1 8.4-1.1m-5.8 35.6c.5 0 1.1-.1 1.8-.3 3.8-.9 4.3-3.1 3.5-12.5-.6-7.2-1.4-9.5-3.8-9.5-.5 0-1 .1-1.5.2-4 1-4.6 3.2-3.7 12.9.5 6.9 1.2 9.2 3.7 9.2m5.8-45.6c-3.3 0-6.7.5-10.7 1.5-6.5 1.6-15.8 4.7-21.2 13.3-4 6.3-5.4 14.1-4.3 25.3.8 9 3.2 15.8 7.2 20.6 3.1 3.8 9 8.3 18.8 8.3 3.2 0 6.7-.5 10.6-1.4 6.4-1.6 15.6-4.6 21.1-13.1 4.1-6.2 5.4-14 4.4-25.1-2.2-24.4-15.3-29.4-25.9-29.4z"/><path d="M953.8 405.3c-4.2 0-8.9-2.6-9.7-10.1l-.4-3.8c-.2-2.4.1-4.5.8-6.4l-4.2-24.2-2.4-25.5 25.4-6.4 2.6 27 .3 25.6h-.2c1.1 1.6 1.8 3.6 2 6l.3 3.7c.9 9-4.9 11.8-8.5 12.7l-3 .7c-1 .6-2 .7-3 .7z"/><path d="m958.8 335.3 2 21 .3 21.5-12.3 3-3.6-20.6-2-21 15.6-3.9m-.7 47.3c2.7 0 4.6 1.8 4.9 5.6l.3 3.7c.4 4.2-.9 6.5-4.7 7.4l-3 .7c-.7.2-1.3.2-1.8.2-2.8 0-4.4-2-4.8-5.6l-.4-3.7c-.4-4.2 1.2-6.5 4.8-7.4l3-.7c.6-.1 1.2-.2 1.7-.2m9.6-59.8-11.3 2.8-15.6 3.9-8.3 2.1.8 8.6 2 21v.4l.1.4 3.6 20.6.4 2.1c-.6 2.2-.9 4.6-.7 7.2v.2l.4 3.7c1.2 10.7 8.7 14.5 14.7 14.5 1.4 0 2.8-.2 4.2-.5l3-.7c8.6-2.1 13.2-8.9 12.3-18.1l-.3-3.6c-.2-2.6-.9-4.8-1.8-6.7v-2.9l-.3-21.5v-.8l-2-21-1.2-11.7z"/><path fill="#FF1493" d="M679.2 447.1c.4 2.6 1.1 3.3 3.5 2.8l17-4 2.8 14c-6.6 2.6-15.9 4.9-24.4 6.9-7.5 1.7-13.5-3-14.3-11.1l-4.7-46.7 16.3-3.9 3.8 42zm63-25.3c.7 8-3.6 11.2-13.5 14.4l-9.2 3c.9 3.3 2.5 3.6 6.2 2.7 3.1-.7 10.7-2.9 15.1-4.6l3.5 10.7c-4.7 4.1-10.9 6.6-16.8 7.9-17 4-23.1-3.2-25.1-18.1-2.5-18.7 4.5-24.5 17.8-27.6 15.4-3.6 21 .9 22 11.6zm-19.3 0c-3.6 1-4.5 2.5-4.3 8.4l4.1-1.5c3-1.1 4.6-1.8 4.2-5.1-.3-2-1-2.6-4-1.8zm44.9 7.4c.2 2.3.6 2.8 2.9 2.2l4.4-1 3.4 11.5c-3.1 2.4-8.9 4.3-12 5-7.6 1.8-13.2-1.9-13.9-9.7l-2-21.6-6.4 1.5-1.2-10.6 6.6-2-1.1-11.6 15.5-3.7 1.1 11.6 9-2.2 1.1 11.1-9 2.2 1.6 17.3zm20.2-45.8.5 5.1c.5 5.7-.3 13.2-2.2 17.9l-6.1-1.2c.6-3.9.4-7.7.5-11.4-2.8.8-4.1-.6-4.5-4.2l-.4-3.7c-.4-4.4.9-6 4.2-6.8l2.3-.6c3.4-.9 5.2.4 5.7 4.9zm41.2 2.7 1 10.8-14.3 3.5c-5.2 1.3-6.4 1.5-6.3 2.4 0 .9.9 1.2 4.2 1.4l8.7.5c6.5.4 10.7 4.2 11.5 11.6 1.3 11.7-4.9 15.5-16 18.1-4.6 1.1-11.3 2.4-19.5 2.7l-1-10.7 12.5-3c7.7-1.8 9.1-2.4 9-3.6-.1-.9-.9-1.1-4.5-1.4l-8.4-.7c-7.6-.6-10.9-5.6-11.5-12.8-.7-7.7 2.3-13.1 15.5-16.3 5.7-1.4 14.4-2.6 19.1-2.5zm62.2-14.5 3.3 35.1c2.4 23.4-7.7 28.8-18.3 31.3-3 .7-11.6 2.5-17.3 1l-1.4-10 9.4-2.3c7.1-1.7 11.9-4.2 13.4-9.1 1.1-3.4.3-6.5 1-9.7-2 7-6.6 11.6-13 13.5-10.7 3.2-14.8-5.6-16-20.4-1.7-21.2 4.8-24 15.7-26.6 9.9-2.4 19.4-3.1 23.2-2.8zM878 398.2l-1.3-13.4-3.6.9c-4.9 1.2-5.3 3.6-4.8 10.9.6 9.2 1.5 11.3 4 10.1 2.2-1 4.3-4.3 5.7-8.5zm62.7-16.6c1.5 16.9-3.1 24-18 27.6-14.8 3.6-22.7-1.2-24.3-18.7-1.6-17.1 3-24.3 18-28 15-3.7 22.6 1.2 24.3 19.1zm-25.6 6.3c.8 8.2 1.6 9.8 5.5 8.8 3.8-.9 4.3-3.1 3.5-12.5-.7-8.5-1.6-10.1-5.3-9.2-4 .9-4.6 3.1-3.7 12.9zm47.9.3.3 3.7c.4 4.2-.9 6.5-4.7 7.4l-3 .7c-3.9 1-6.1-1-6.6-5.4l-.4-3.7c-.4-4.2 1.2-6.5 4.8-7.4l3-.7c3.6-.8 6.2.9 6.6 5.4zm-2.2-31.9.3 21.5-12.3 3-3.6-20.6-2-21 15.6-3.9 2 21z"/></svg>