<svg viewBox="0 0 450 300" xmlns="http://www.w3.org/2000/svg"><path d="m-.002429-.001914h450v300h-450z" fill="#e2eee7"/><g fill="#325b43"><g opacity=".5"><path d="m23.6679816-.0019139v.9899902l-.9902343-.9899902z"/><path d="m23.6679816 7.7280665v1.959961l-9.6904297-9.6899414h1.959961z"/><path d="m23.6679816 16.4280177v1.9599609l-18.3901367-18.3898925h1.959961z"/><path d="m23.6679816 25.1279689v1.9602051l-23.6704101-23.6701661v-1.9599609z"/><path d="m23.6679816 33.8279201v1.960205l-23.6704101-23.670166v-1.9599609z"/><path d="m23.6679816 42.5281154v1.9599609l-23.6704101-23.6699219v-1.9599609z"/><path d="m23.6679816 51.2280665v1.959961l-23.6704101-23.6699219v-1.9599609z"/><path d="m23.6679816 59.9280177v1.9499512l-23.6704101-23.6599121v-1.959961z"/><path d="m23.6679816 68.6179591v1.959961l-23.6704101-23.6699219v-1.959961z"/><path d="m23.6679816 77.3181544v1.959961l-23.6704101-23.6699219v-1.9602051z"/><path d="m23.6679816 86.0181056v1.9599609l-23.6704101-23.6699218v-1.9602051z"/><path d="m23.6679816 94.7180568v1.9599609l-23.6704101-23.6699219v-1.9599609z"/><path d="m23.6679816 103.4180079v1.959961l-23.6704101-23.6699219v-1.9599609z"/><path d="m23.6679816 112.1179591v1.959961l-23.6704101-23.6699219v-1.959961z"/><path d="m23.6679816 120.8181544v1.959961l-23.6704101-23.6699219v-1.9602051z"/><path d="m23.6679816 129.5080958v1.959961l-23.6704101-23.6699219v-1.9501953z"/><path d="m23.6679816 138.208047v1.9599609l-23.6704101-23.6699218v-1.959961z"/><path d="m23.6679816 146.9079982v1.9599609l-23.6704101-23.6699219v-1.9599609z"/><path d="m23.6679816 155.6081935v1.9599609l-23.6704101-23.670166v-1.9599609z"/><path d="m23.6679816 164.3081447v1.9599609l-23.6704101-23.670166v-1.959961z"/><path d="m23.6679816 173.0080958v1.959961l-23.6704101-23.6699219v-1.9599609z"/><path d="m23.6679816 181.708047v1.9599609l-23.6704101-23.6699218v-1.959961z"/><path d="m23.6679816 190.4079982v1.9501953l-23.6704101-23.670166v-1.9499512z"/><path d="m23.6679816 199.0979396v1.9602051l-23.6704101-23.6701661v-1.9599609z"/><path d="m23.6679816 207.7981349v1.9599609l-23.6704101-23.6699218v-1.9602051z"/><path d="m23.6679816 216.4980861v1.9599609l-23.6704101-23.6699219v-1.960205z"/><path d="m23.6679816 225.1980372v1.959961l-23.6704101-23.6699219v-1.9599609z"/><path d="m23.6679816 233.8979884v1.9602051l-23.6704101-23.670166v-1.959961z"/><path d="m23.6679816 242.5979396v1.9602051l-23.6704101-23.6701661v-1.9599609z"/><path d="m23.6679816 251.2981349v1.9499512l-23.6704101-23.670166v-1.9499512z"/><path d="m23.6679816 259.9880763v1.9599609l-23.6704101-23.6699218v-1.959961z"/><path d="m23.6679816 268.6880275v1.9599609l-23.6704101-23.6699219v-1.9599609z"/><path d="m23.6679816 277.3879786v1.959961l-23.6704101-23.6699219v-1.9599609z"/><path d="m23.6679816 286.088174v1.9599609l-23.6704101-23.670166v-1.959961z"/><path d="m23.6679816 294.7881251v1.959961l-23.6704101-23.670166v-1.959961z"/><path d="m20.1777473 299.9980861h-1.959961l-18.2202148-18.2199707v-1.959961z"/><path d="m11.4775519 299.9980861h-1.949707l-9.5302734-9.5300293v-1.9499512z"/><path d="m2.7876105 299.9980861h-1.9599609l-.8300781-.8300782v-1.9599609z"/></g><g opacity=".5"><path d="m449.9975715 1.338174v1.9599609l-3.2998047-3.3000488h1.9599609z"/><path d="m449.9975715 10.0381251v1.959961l-12-12h1.9604492z"/><path d="m449.9975715 18.7380763v1.9599609l-20.6997071-20.6999511h1.959961z"/><path d="m449.9975715 27.4380275v1.9599609l-23.6699219-23.6699219v-1.9599609z"/><path d="m449.9975715 36.1379786v1.959961l-23.6699219-23.6699219v-1.9599609z"/><path d="m449.9975715 44.838174v1.9599609l-23.6699219-23.670166v-1.959961z"/><path d="m449.9975715 53.5381251v1.9499512l-23.6699219-23.6601562v-1.959961z"/><path d="m449.9975715 62.2280665v1.959961l-23.6699219-23.6699219v-1.9599609z"/><path d="m449.9975715 70.9280177v1.9599609l-23.6699219-23.6699218v-1.959961z"/><path d="m449.9975715 79.6279689v1.9602051l-23.6699219-23.6701661v-1.9599609z"/><path d="m449.9975715 88.3279201v1.960205l-23.6699219-23.670166v-1.9599609z"/><path d="m449.9975715 97.0281154v1.9599609l-23.6699219-23.6699219v-1.9599609z"/><path d="m449.9975715 105.7280665v1.959961l-23.6699219-23.6699219v-1.9599609z"/><path d="m449.9975715 114.4280177v1.9599609l-23.6699219-23.6699218v-1.959961z"/><path d="m449.9975715 123.1179591v1.959961l-23.6699219-23.6699219v-1.9499512z"/><path d="m449.9975715 131.8181544v1.959961l-23.6699219-23.6699219v-1.9602051z"/><path d="m449.9975715 140.5181056v1.9599609l-23.6699219-23.6699218v-1.9602051z"/><path d="m449.9975715 149.2180568v1.9599609l-23.6699219-23.6699219v-1.9599609z"/><path d="m449.9975715 157.9180079v1.959961l-23.6699219-23.6699219v-1.9599609z"/><path d="m449.9975715 166.6179591v1.959961l-23.6699219-23.6699219v-1.959961z"/><path d="m449.9975715 175.3181544v1.959961l-23.6699219-23.6699219v-1.9602051z"/><path d="m449.9975715 184.0181056v1.9499512l-23.6699219-23.6699219v-1.9501953z"/><path d="m449.9975715 192.708047v1.9599609l-23.6699219-23.6699218v-1.959961z"/><path d="m449.9975715 201.4079982v1.9599609l-23.6699219-23.6699219v-1.9599609z"/><path d="m449.9975715 210.1081935v1.9599609l-23.6699219-23.670166v-1.9599609z"/><path d="m449.9975715 218.8081447v1.9599609l-23.6699219-23.670166v-1.959961z"/><path d="m449.9975715 227.5080958v1.959961l-23.6699219-23.6699219v-1.9599609z"/><path d="m449.9975715 236.208047v1.9599609l-23.6699219-23.6699218v-1.959961z"/><path d="m449.9975715 244.9079982v1.9501953l-23.6699219-23.670166v-1.9499512z"/><path d="m449.9975715 253.5979396v1.9602051l-23.6699219-23.6701661v-1.9599609z"/><path d="m449.9975715 262.2981349v1.9599609l-23.6699219-23.6699218v-1.9602051z"/><path d="m449.9975715 270.9980861v1.9599609l-23.6699219-23.6699219v-1.960205z"/><path d="m449.9975715 279.6980372v1.959961l-23.6699219-23.6699219v-1.9599609z"/><path d="m449.9975715 288.3979884v1.9602051l-23.6699219-23.670166v-1.959961z"/><path d="m449.9975715 297.0979396v1.9602051l-23.6699219-23.6701661v-1.9599609z"/><path d="m444.1977668 299.9980861h-1.9501953l-15.9199219-15.920166v-1.9499512z"/><path d="m426.3276496 290.8181544 9.1801758 9.1799317h-1.959961l-7.2202148-7.2199707z"/><path d="m426.8076301 299.9980861h-.4799805v-.4799805z"/></g><path d="m259.8286741 34.0223583-.0282891 6.4010886-3.990129-6.4010886h-2.0746846v9.5500738h1.9720226l.0187073-6.391735 3.9805472 6.391735h2.0933919v-9.5500738zm-9.157905 0v9.5500738h2.1120992v-9.5500738zm-3.0460951 0v3.653854h-3.8687597v-3.653854h-2.1120992v9.5500738h2.1120992v-4.1208519h3.8687597v4.1208519h2.0929356v-9.5500738zm-6.6721162 5.4011609c-.2244875-.3552105-.4859334-.6166563-.8035011-.831562-.3084422-.1964266-.6355917-.3458568-.9531595-.4300396-.318024-.1120156-.551637-.1774912-.7291282-.2055521l-1.4669256-.3736896c-.3549823-.0935365-.6447172-.1961985-.859623-.2990886-.2149057-.0933083-.3458568-.2055521-.420686-.3177959-.0652474-.1213693-.102662-.2707995-.102662-.4576443 0-.2057802.0465401-.3645641.1304948-.5046407.084411-.1309511.2057802-.2429667.3271495-.3271495.1592401-.102662.3084422-.1587839.4768079-.1961985.1679094-.0280609.336275-.0561219.5046407-.0561219.2614458 0 .5046407.0280609.7195464.0748292.2149057.0374146.4111042.1213693.5790136.2242594.1683656.1120156.3084422.2523203.3928532.4485188.1117875.1774912.1866167.4204578.1961985.7008391h2.0276882c0-.5514089-.0935365-1.018635-.318024-1.4016783-.205324-.392625-.4854771-.7195464-.8409157-.9625131-.3549823-.2523203-.7660865-.4298115-1.2333126-.5420553-.4581006-.1120156-.9344522-.1681375-1.4299673-.1681375-.4202297 0-.8500412.0561219-1.2798527.1681375-.4298115.1215974-.8130829.2990886-1.1493579.5420553-.3367313.233613-.6168844.5327016-.8317902.9063912-.2057802.3552105-.3084422.7756683-.3084422 1.2709553 0 .4391651.084411.8128548.233613 1.121297.1870729.2990886.3923969.5701162.6730063.756961.2614458.2149057.5698881.3830433.9061631.5044125.3271495.1215974.6730063.2431948 1.0375704.3271495.336275.1028901.6912573.1868448 1.0275324.2710276.3367313.0839547.6355917.1681375.9066194.2710276.2710276.1120156.4763516.2523203.6447172.4017506.1774912.1681375.2523203.3739177.2523203.6353636 0 .233613-.0561219.4393933-.1870729.6075308-.1213693.1494302-.2705714.2523203-.4576443.364336-.2057802.0841828-.4019787.1400766-.6168844.1683656-.2149057.0371865-.4015224.0465401-.6073027.0465401-.2614458 0-.5324735-.0280609-.7943756-.0933083-.2427386-.0654755-.4763516-.1683656-.67255-.2990886-.1961985-.1400766-.3367313-.3365032-.4581006-.5607626-.1213693-.2149057-.1679094-.4859334-.1679094-.8128548h-2.0468518c-.0091255.5885954.1031183 1.093236.3271495 1.5324012.2244875.420686.523348.7756683.9066194 1.0466959.3736896.2801531.8130829.4765797 1.29856.597949.5046407.1403047 1.0092813.2055521 1.5326293.2055521.654299 0 1.2241871-.074601 1.7101205-.2242594.5137662-.1494302.9157449-.364336 1.2520199-.6260099.3367313-.2803813.5981771-.597949.7665428-.9812204.1679094-.364336.2427386-.7756683.2427386-1.2148334 0-.5324735-.1122438-.9716386-.336275-1.3081418zm-10.6061234-5.4011609h-2.139932l-3.5881503 9.4287045v-9.4287045h-2.9530149l-2.1212247 6.5598725-2.2521757-6.5598725h-2.9434331v9.5500738h1.9624408l.0282891-6.699949 2.3361304 6.699949h1.616584l2.3826705-6.7654246v6.7654246h4.0179618l.756961-2.1305783h3.5698993l.7195464 2.1305783h2.1864721l-3.5790248-9.5500738zm-2.3548377 5.8496797 1.2707272-3.494842 1.2054798 3.494842zm-14.3530575-.4485188c-.2244875-.3552105-.4859334-.6166563-.8035011-.831562-.3084422-.1964266-.6264662-.3458568-.9344522-.4300396-.3367313-.1120156-.5794699-.1774912-.7478355-.2055521l-1.4482184-.3736896c-.3832714-.0935365-.6634245-.1961985-.8783303-.2990886-.2057802-.0933083-.3458568-.2055521-.4115605-.3177959-.0743729-.1213693-.102662-.2707995-.102662-.4576443 0-.2057802.0374146-.3645641.1218256-.5046407.0930802-.1309511.205324-.2429667.336275-.3271495.1492021-.102662.2988604-.1587839.4576443-.1961985.1774912-.0280609.3458568-.0561219.523348-.0561219.2523203 0 .4859334.0280609.7104209.0748292.2149057.0374146.4111042.1213693.5977209.2242594.1496584.1120156.2897349.2523203.3832714.4485188.1122438.1774912.1683656.4204578.1961985.7008391h2.03727c0-.5514089-.1218256-1.018635-.336275-1.4016783-.2057802-.392625-.4768079-.7195464-.841372-.9625131-.3549823-.2523203-.7660865-.4298115-1.2333126-.5420553-.4485188-.1120156-.9253267-.1681375-1.4295111-.1681375-.4302678 0-.8504975.0561219-1.280309.1681375-.420686.1215974-.8039574.2990886-1.1493579.5420553-.3367313.233613-.6168844.5327016-.8226647.9063912-.2149057.3552105-.3079859.7756683-.3079859 1.2709553 0 .4391651.0743729.8128548.2427386 1.121297.1683656.2990886.3832714.5701162.6447172.756961.2619021.2149057.5794699.3830433.9157449.5044125.336275.1215974.6917136.2431948 1.0466959.3271495.3458568.1028901.6912573.1868448 1.0184069.2710276.3458568.0839547.654299.1681375.9157449.2710276.2619021.1120156.4768079.2523203.6451735.4017506.1679094.1681375.2427386.3739177.2427386.6353636 0 .233613-.0465401.4393933-.1774912.6075308-.1309511.1494302-.2897349.2523203-.4672261.364336-.1870729.0841828-.3923969.1400766-.6073027.1683656-.2057802.0371865-.4115605.0465401-.5981771.0465401-.2710276 0-.5420553-.0280609-.8035011-.0933083-.2619021-.0654755-.4768079-.1683656-.6821318-.2990886-.1870729-.1400766-.3367313-.3365032-.4485188-.5607626-.1218256-.2149057-.1779474-.4859334-.1779474-.8128548h-2.0276882c-.0187073.5885954.0935365 1.093236.318024 1.5324012.2149057.420686.5137662.7756683.8874558 1.0466959.3832714.2801531.8222084.4765797 1.3177236.597949.5046407.1403047 1.0092813.2055521 1.5417548.2055521.654299 0 1.2054798-.074601 1.7101205-.2242594.4950589-.1494302.9066194-.364336 1.2428944-.6260099.3454005-.2803813.5885954-.597949.756961-.9812204.1679094-.364336.2523203-.7756683.2523203-1.2148334 0-.5324735-.1122438-.9716386-.3458568-1.3081418zm56.5343562-.0935365-2.8033565.4578724 1.2894345 1.2896626 1.0745287-.1681375c-.6821318.8128548-1.7940752 1.2613735-2.9899732 1.0090532-1.1680652-.2523203-2.1025174-1.1961262-2.3270049-2.3641914-.3828151-1.952859 1.1028178-3.6536258 2.9904294-3.6536258 1.0462397 0 1.9715663.5327016 2.5227471 1.3455564l1.8132387-.5792417c-.8317902-1.5513366-2.457956-2.6165117-4.3359858-2.6165117-3.0091367 0-5.3826818 2.7191737-4.8123374 5.8216188.336275 1.8314897 1.7470788 3.3360581 3.5507357 3.7939306 1.8406153.4765797 3.569443-.1309511 4.7188009-1.2616017l-.1213693.756961 1.2990163 1.2987881.4576443-2.7940029.4581006-2.7940029-2.7846492.4578724z"/><path d="m202.3255723 47.8880293-3.7322764-16.129555c-.3110601-1.3093131-1.6156287-2.1323048-2.9201085-1.8267896l-2.7271286.6258536c.3110601.0533453.6243413.1049155.9292708.1768119 1.2156309.2722299 2.3847938.6882526 3.5062448 1.2604058l-1.5560999 4.2044297c-1.1831122-1.0063719-2.8373013-1.5139071-4.9535048-1.5139071-1.8907049 0-2.8420991.7493201-2.8420991 2.2593218 0 .5907043.3140809 1.12256.9345129 1.5966324.6242525.4776228 1.9426815 1.1230038 3.9890498 1.9303736 1.3991039.5435722 2.5154017 1.1702246 3.3704836 1.8706375.4060395.3276167.7530834.679554 1.0451298 1.0340653.8888446 1.1437739 1.3409078 2.5207228 1.3409078 4.1468238 0 1.5689389-.4350931 2.9033714-1.2979938 3.9942437l3.0892768-.7094664c1.3110546-.3021423 2.1236668-1.6083488 1.8243348-2.9198809z"/><path d="m188.4012591 43.7208792c-1.094974-.4494856-2.0389938-.956932-2.8272614-1.5035221-2.1175362-1.4834621-3.1839009-3.2942747-3.1839009-5.4721139 0-1.4440522.3999978-2.6571484 1.1882654-3.6362707.147045-.1681133.2893809-.339777.458105-.4983929l-4.5184116 1.0487996c-1.3088334.2982369-2.1235779 1.59752-1.8242459 2.9159754l3.7418721 16.1286674c.3035967 1.3079817 1.6081654 2.1232512 2.9118455 1.8176472l1.8580974-.4216146c-.0516212-.0126041-.1045752-.0238767-.1544194-.0333741-.9218964-.2471105-2.1002107-.764587-3.5795451-1.5481689l1.9330859-4.3080138c1.6251355 1.2897857 3.4585329 1.9303736 5.4884641 1.9303736 2.1235779 0 3.1765264-.7532256 3.1765264-2.2528422 0-.8806864-.3184345-1.6113667-.9479291-2.1709158-.6412226-.5633659-1.8867067-1.2269429-3.7205484-1.9962343z"/><path d="m210.90043 46.9178439-1.8314897 4.6722608-1.850197-4.6722608h-.7382537v5.3263317h.5046407v-4.5974317h.0187073l1.8223642 4.5974317h.4763516l1.8223642-4.5974317h.0187073v4.5974317h.5046407v-5.3263317h-.7478355z"/><path d="m214.7130679 51.8143641v-2.1025174h2.9717222v-.4298115h-2.9717222v-1.9250262h3.1770461v-.4391651h-3.6816868v5.3263317h3.7191014v-.4298115z"/><path d="m220.6373486 51.8143641v-2.1025174h2.9717222v-.4298115h-2.9717222v-1.9250262h3.1775024v-.4391651h-3.6821431v5.3263317h3.7195577v-.4298115z"/><path d="m225.4779751 46.9178439v.4391651h1.8593226v4.8871666h.5142225v-4.8871666h1.850197v-.4391651z"/><path d="m234.2151941 49.4314655-1.2990163-.3177959c-.4298115-.102662-.8035011-.3082141-.8035011-.8128548 0-.785022.6447172-1.0560496 1.3359746-1.0560496.756961 0 1.4299673.4113323 1.4578001 1.2241871h.5046407c.0095818-1.093236-.9157449-1.6633522-1.9715663-1.6633522-1.4952147 0-1.8314897.9812204-1.8314897 1.5045684 0 .831562.5698881 1.121297 1.195898 1.280309l1.1867725.2895068c.4955152.1215974 1.1028178.3645641 1.1028178.9625131 0 .7756683-.8504975 1.0841105-1.41126 1.0841105-.9718668 0-1.7657861-.3365032-1.7379533-1.4299673h-.5137662c-.0561219 1.2990163.8687485 1.8597788 2.1303502 1.8597788 1.8876116 0 2.03727-1.1493579 2.03727-1.513922 0-.8783303-.6260099-1.2054798-1.382971-1.4110319z"/><path d="m310.3260495 140.3630607c-.5324735-1.8969653-1.5417548-3.625793-2.9712659-5.0553041-2.0933919-2.1025174-4.849752-3.2986435-7.7936413-3.4015336-.1400766-.0093536-.2892786-.0093536-.438937-.0093536h-.4393933v7.2326507c0 6.2701375 4.9902848 11.4002708 11.2043005 11.6338839.1400766.0093536.2897349.0093536.438937.0093536h.4393933v-7.2326507c0-1.0838824-.1496584-2.1584111-.4393933-3.1770461zm-.9714105 9.4752446c-.6355917-.0561219-1.2524762-.1681375-1.8597788-.336275-.1213693-.0280609-.2427386-.0654755-.3645641-.1028901-.1774912-.0558937-.3549823-.1120156-.5324735-.1774912-.1587839-.0561219-.3084422-.1215974-.4581006-.1868448-.2523203-.1028901-.4950589-.2149057-.7382537-.3458568-.1400766-.0652474-.2801531-.1400766-.4111042-.2242594-1.0371141-.5885954-1.9715663-1.35491-2.7563601-2.2519476-.1031183-.1215974-.2149057-.2523203-.318024-.3832714-.1117875-.1307229-.2149057-.2614458-.3079859-.4017506-.4768079-.6540709-.8787866-1.3642637-1.1963543-2.111871-.0465401-.1120156-.0935365-.2149057-.1309511-.3269214-.1213693-.3084422-.2240313-.6168844-.3079859-.9250985-.0748292-.2523203-.1405328-.5046407-.1961985-.7663147 0-.0187073 0-.0374146-.0095818-.0561219-.0278328-.1681375-.0652474-.3365032-.0839547-.5139943-.084411-.523348-.1218256-1.0558214-.1218256-1.5978767v-6.3449667c2.7194018.1122438 5.2426052 1.2148334 7.1676314 3.1492133 2.0368137 2.0276882 3.1583388 4.7283827 3.1583388 7.6063403v6.3356131c-.1774912-.0093536-.3549823-.0187073-.5324735-.0374146z"/><path d="m321.53035 131.8968693c-.1496584 0-.2897349 0-.4393933.0093536-5.1299051.1868448-9.4097691 3.7097477-10.7649072 8.4568377-.2897349 1.0090532-.438937 2.0744564-.438937 3.1770461v7.2326507h.438937c.1496584 0 .2993167 0 .4393933-.0093536 6.2140157-.233613 11.2043005-5.3637463 11.2043005-11.6338839v-7.2326507h-.4393933zm-.4393933 7.2326507c0 .5420553-.0374146 1.0745287-.1213693 1.5978767-.0187073.1774912-.0561219.3458568-.0839547.5139943-.0095818.0187073-.0095818.0374146-.0095818.0561219-.0561219.261674-.1213693.5139943-.1961985.7663147-.0839547.3082141-.1866167.6166563-.3084422.9250985-.0369583.1120156-.0839547.2149057-.1304948.3269214-.318024.7476074-.7195464 1.4578001-1.1963543 2.111871-.0935365.1403047-.1961985.2710276-.3084422.4017506-.102662.1309511-.2149057.261674-.3175677.3832714-.7847938.8970376-1.719246 1.6633522-2.7563601 2.2519476-.1309511.0841828-.2710276.159012-.4115605.2242594-.2427386.1309511-.4859334.2429667-.7382537.3458568-.1492021.0652474-.2988604.1307229-.4576443.1868448-.1774912.0654755-.3549823.1215974-.5324735.1774912-.1218256.0374146-.2431948.0748292-.3645641.1028901-.6073027.1681375-1.2241871.2801531-1.8597788.336275-.1774912.0187073-.3549823.0280609-.5324735.0374146v-6.3356131c0-5.7842042 4.5883062-10.5219405 10.3255139-10.7555536v6.3449667z"/><path d="m318.5586278 106.6011852c-2.1955976-2.2051794-5.1207796-3.4200128-8.2325784-3.4200128-6.4193396 0-11.6432375 5.2236697-11.6432375 11.6432375v24.30511c0 6.2701375 4.9902848 11.4002708 11.2043005 11.6338839.1400766.0093536.2897349.0093536.438937.0093536.1496584 0 .2993167 0 .4393933-.0093536 6.2140157-.233613 11.2043005-5.3637463 11.2043005-11.6338839v-24.30511c0-3.1115706-1.2150616-6.0365245-3.4111154-8.2232247zm2.5323289 32.5283347c0 .5420553-.0374146 1.0745287-.1213693 1.5978767-.0187073.1774912-.0561219.3458568-.0839547.5139943-.0095818.0187073-.0095818.0374146-.0095818.0561219-.0561219.261674-.1213693.5139943-.1961985.7663147-.0839547.3082141-.1866167.6166563-.3084422.9250985-.0369583.1120156-.0839547.2149057-.1304948.3269214-.318024.7476074-.7195464 1.4578001-1.1963543 2.111871-.0935365.1403047-.1961985.2710276-.3084422.4017506-.0930802.1309511-.205324.261674-.3175677.3832714-.7847938.8970376-1.719246 1.6633522-2.7563601 2.2519476-.1309511.0841828-.2710276.159012-.4115605.2242594-.2427386.1309511-.4859334.2429667-.7382537.3458568-.1492021.0652474-.2988604.1307229-.4576443.1868448-.1774912.0654755-.3549823.1215974-.5324735.1774912-.1218256.0374146-.2431948.0748292-.3645641.1028901-.6073027.1681375-1.2241871.2801531-1.8597788.336275-.1774912.0187073-.3549823.0280609-.5324735.0374146-.1400766.0093536-.2897349.0093536-.4393933.0093536-.1492021 0-.2988604 0-.438937-.0093536-.1774912-.0093536-.3549823-.0187073-.5324735-.0374146-.6355917-.0561219-1.2524762-.1681375-1.8597788-.336275-.1213693-.0280609-.2427386-.0654755-.3645641-.1028901-.1774912-.0558937-.3549823-.1120156-.5324735-.1774912-.1587839-.0561219-.3084422-.1215974-.4581006-.1868448-.2523203-.1028901-.4950589-.2149057-.7382537-.3458568-.1400766-.0652474-.2801531-.1400766-.4111042-.2242594-1.0371141-.5885954-1.9715663-1.35491-2.7563601-2.2519476-.1122438-.1215974-.2244875-.2523203-.318024-.3832714-.1117875-.1307229-.2149057-.2614458-.3079859-.4017506-.4768079-.6540709-.8787866-1.3642637-1.1963543-2.111871-.0465401-.1120156-.0935365-.2149057-.1309511-.3269214-.1213693-.3084422-.2240313-.6168844-.3079859-.9250985-.0748292-.2523203-.1405328-.5046407-.1961985-.7663147 0-.0187073 0-.0374146-.0095818-.0561219-.0278328-.1681375-.0652474-.3365032-.0839547-.5139943-.084411-.523348-.1218256-1.0558214-.1218256-1.5978767v-24.30511c0-5.9336344 4.831501-10.7555536 10.7649072-10.7555536 2.8781857 0 5.5788802 1.1215251 7.6065684 3.1492133 2.03727 2.0276882 3.1583388 4.7375082 3.1583388 7.6063403v24.30511z"/><path d="m309.885647 150.327791h.88256v18.984396h-.88256z"/><path d="m337.0514727 140.9423024c-4.9058739 0-8.8960029 3.990129-8.8960029 8.8866492v.1028901l.0282891.4672261c.2710276 4.513477 3.9340071 8.0922736 8.419195 8.316533h.0282891c.1304948.0093536.2705714.0093536.4015224.0093536h.0374146c.1400766 0 .2897349 0 .4298115-.0093536h.0187073c4.4760624-.233613 8.1299164-3.8124097 8.400944-8.316533l.0187073-.2523203c.0091255-.0654755.0091255-.1400766.0091255-.2149057v-.1028901c0-4.8965202-3.990129-8.8866492-8.8960029-8.8866492zm7.9898398 9.4006436c-.0095818.1587839-.0282891.3271495-.0469964.4859334 0 .0093536 0 .0280609-.0091255.0374146-.0187073.2149057-.0561219.4204578-.1031183.6260099 0 .0187073 0 .0280609-.0091255.0374146-.0374146.2055521-.0935365.4111042-.1587839.6073027-.1870729.6449454-.4581006 1.2428944-.7943756 1.8036569-.0652474.102662-.1213693.2055521-.1961985.3084422-.336275.5137662-.7382537.9903459-1.1867725 1.4108038-.1683656.159012-.336275.3084422-.5137662.4485188-.1779474.1403047-.3645641.2710276-.551637.4019787-.1866167.1307229-.3828151.2429667-.5885954.3456287-.1961985.1215974-.4111042.2242594-.6168844.3084422-.1774912.0841828-.3736896.1587839-.5607626.2242594-.0465401.0187073-.0839547.0280609-.1213693.0467682-.1866167.0558937-.3736896.1120156-.5603063.1587839-.2806094.0748292-.5703443.1307229-.8600793.1681375-.205324.0374146-.4015224.0561219-.6073027.0654755-.0374146 0-.0839547.0093536-.1213693.0093536-.1213693.0093536-.2431948.0093536-.3645641.0093536h-.0374146c-.1213693 0-.2427386 0-.3645641-.0093536-.0369583 0-.0839547-.0093536-.1213693-.0093536-.205324-.0093536-.4015224-.0280609-.6073027-.0654755-.2897349-.0374146-.5794699-.0933083-.859623-.1681375-.1870729-.0467682-.3736896-.1028901-.5607626-.1587839-.0374146-.0187073-.0748292-.0280609-.1213693-.0467682-.1870729-.0654755-.3832714-.1400766-.5607626-.2242594-.2057802-.0841828-.4202297-.1868448-.6168844-.3084422-.205324-.102662-.4015224-.2149057-.5885954-.3456287-.1866167-.1309511-.3736896-.261674-.5511808-.4019787-.1774912-.1400766-.3458568-.2895068-.5142225-.4485188-.2801531-.2614458-.5324735-.5418271-.775212-.8409157-.0657037-.0841828-.1405328-.1774912-.1966547-.2710276-.0839547-.0935365-.1492021-.1961985-.2144495-.2988604-.0748292-.1028901-.1405328-.2057802-.1966547-.3177959-.3266932-.5327016-.5885954-1.1025897-.7660865-1.7101205-.0278328-.0467682-.0374146-.0933083-.0465401-.1494302-.0561219-.1587839-.0935365-.3271495-.1309511-.5046407-.0095818-.0280609-.0187073-.0561219-.0187073-.0841828-.0465401-.1868448-.0748292-.3736896-.0935365-.5698881-.0091255-.0280609-.0187073-.0561219-.0187073-.0841828-.0187073-.1681375-.0374146-.336275-.0465401-.5046407-.0187073-.1120156-.0187073-.233613-.0187073-.3830433v-.1122438c0-4.4105869 3.5881503-8.0080908 8.0080908-8.0080908s8.0085471 3.597504 8.0085471 8.0080908v.1122438c0 .1494302 0 .2710276-.0187073.4017506z"/><path d="m337.4721587 158.2857894v-.0280609c-.0095818-.1400766-.0187073-.2803813-.0374146-.4204578-.0657037-.6166563-.1961985-1.2148334-.3832714-1.7753679-1.1210688-3.4389482-4.2889894-5.9338625-8.0080908-6.1207073-.1400766-.0093536-.2806094-.0093536-.420686-.0093536h-.4672261l.0282891.4672261c.2710276 4.513477 3.9340071 8.0922736 8.419195 8.316533h.0282891c.1304948.0093536.2705714.0093536.4015224.0093536h.4672261v-.0093536l-.0278328-.4298115zm-1.5326293-.523348c-.2897349-.0374146-.5794699-.0933083-.859623-.1681375-.1870729-.0467682-.3736896-.1028901-.5607626-.1587839-.0374146-.0187073-.0748292-.0280609-.1213693-.0467682-.1870729-.0654755-.3832714-.1400766-.5607626-.2242594-.2149057-.0935365-.4202297-.1961985-.6168844-.3084422-.205324-.102662-.4015224-.2242594-.5885954-.3456287-.1866167-.1309511-.3736896-.261674-.5511808-.4019787-.1774912-.1400766-.3458568-.2895068-.5142225-.4485188-.2801531-.2614458-.5324735-.5418271-.775212-.8409157-.0657037-.0841828-.1405328-.1774912-.1966547-.2710276-.0839547-.0935365-.1492021-.1961985-.2144495-.2988604-.0748292-.1028901-.1405328-.2057802-.1966547-.3177959-.3266932-.5327016-.5885954-1.1025897-.7660865-1.7101205-.0278328-.0467682-.0374146-.0933083-.0465401-.1494302-.0561219-.1587839-.0935365-.3271495-.1309511-.5046407-.0095818-.0280609-.0187073-.0561219-.0187073-.0841828-.0465401-.1868448-.0748292-.3736896-.0935365-.5698881-.0091255-.0280609-.0187073-.0561219-.0187073-.0841828 3.8313451.2429667 6.9709767 3.1957534 7.4382028 6.9990376-.205324-.0093536-.4015224-.0280609-.6073027-.0654755z"/><path d="m345.4802495 149.9318418c-.1400766 0-.2801531 0-.4202297.0093536-3.7195577.1868448-6.887022 2.6817591-8.0085471 6.1207073-.1866167.5605344-.3175677 1.1587116-.3832714 1.7753679-.018251.1400766-.0278328.2803813-.0369583.4204578v.0280609l-.0282891.4298115v.0093536h.4672261c.1400766 0 .2897349 0 .4298115-.0093536h.0187073c4.4760624-.233613 8.1299164-3.8124097 8.400944-8.316533l.0187073-.2523203.0187073-.2149057zm-.4950589.9344522c-.0187073.2149057-.0561219.4204578-.1031183.6260099 0 .0187073 0 .0280609-.0091255.0374146-.0374146.2055521-.0935365.4111042-.1587839.6073027-.1870729.6449454-.4581006 1.2428944-.7943756 1.8036569-.0652474.102662-.1213693.2055521-.1961985.3084422-.336275.5137662-.7382537.9903459-1.1867725 1.4108038-.1683656.159012-.336275.3084422-.5137662.4485188-.1779474.1403047-.3645641.2710276-.551637.4019787-.1866167.1213693-.3828151.2429667-.5885954.3456287-.1961985.1122438-.4019787.2149057-.6168844.3084422-.1774912.0841828-.3736896.1587839-.5607626.2242594-.0465401.0187073-.0839547.0280609-.1213693.0467682-.1866167.0558937-.3736896.1120156-.5603063.1587839-.2806094.0748292-.5703443.1307229-.8600793.1681375-.1961985.0280609-.4015224.0561219-.6073027.0654755.4672261-3.8032842 3.6164394-6.7560709 7.4382028-6.9990376 0 .0093536 0 .0280609-.0091255.0374146z"/><path d="m336.632348 158.285833h.88256v12.206882h-.88256z"/><path d="m345.5771621 196.6561823v-.8823823c7.8703868 0 14.2732231-6.4030144 14.2732231-14.2733121v-14.6973186h.8825603v14.6973186c0 8.356899-6.7988844 15.1556944-15.1557834 15.1556944z"/><path d="m364.8332451 159.4949074c0 3.5327857-1.8022737 6.6472903-4.5393158 8.4720582-2.7371518-1.8203788-4.5439244-4.9348834-4.5439244-8.4720582s1.8067726-6.6516794 4.5439244-8.4720582c2.7370421 1.8247679 4.5393158 4.9394919 4.5393158 8.4720582z"/></g><path d="m360.06693 154.598247h.449472v13.368759h-.449472z" fill="#e2eee7"/><path d="m296.3180706 163.4661982c-3.5327857 0-6.6472903-1.8022737-8.4720582-4.5393158 1.8203788-2.7371518 4.9348834-4.5439244 8.4720582-4.5439244s6.6516794 1.8067726 8.4720582 4.5439244c-1.8247679 2.7370421-4.9394919 4.5393158-8.4720582 4.5393158z" fill="#325b43"/><path d="m287.84602 158.699807h13.368759v.449472h-13.368759z" fill="#e2eee7"/><path d="m276.5522397 169.3372767h-.8825603v-10.8539251h13.1408177v.8823822h-12.2582574z" fill="#325b43"/><path d="m339.647718 103.7053615c.0637207 0 .1149902.0170898.1538086.0512695s.0583496.0878906.0583496.1606445c0 .1005859-.0319824.2285156-.0959473.3833008-.0639648.1552734-.1723633.3046875-.3249512.4482422-.1530762.1435547-.355957.2680664-.6091309.3730469s-.5715332.1572266-.954834.1572266c-.3786621 0-.704834-.0639648-.9785156-.1914062-.2736816-.1279297-.4995117-.3012695-.6774902-.5200195-.1779785-.2192383-.309082-.4770508-.3935547-.7734375s-.1264648-.6157227-.1264648-.9580078c0-.3242188.0488281-.6318359.1469727-.9238281s.2407227-.5478516.4277344-.7666016c.1870117-.2192383.4174805-.3935547.6911621-.5234375.2739258-.1303711.5861816-.1953125.9377441-.1953125.3693848 0 .6784668.0571289.9272461.1713867.2485352.1137695.4482422.2519531.598877.4140625.1503906.1616211.2587891.331543.3249512.5097656.0661621.1777344.0991211.328125.0991211.4516602 0 .1914062-.0913086.2871094-.2736816.2871094-.0913086 0-.1643066-.0249023-.2189941-.0751953-.0546875-.0498047-.1003418-.1274414-.1367188-.2324219-.1188965-.3105469-.2773438-.5488281-.4758301-.715332-.1982422-.1665039-.4641113-.2495117-.7971191-.2495117-.3056641 0-.5522461.0512695-.7392578.1538086s-.342041.2290039-.465332.3798828c-.0456543.0546875-.0922852.1206055-.1401367.1982422-.0480957.0776367-.0925293.1713867-.1335449.2807617s-.0742188.2373047-.0991211.3833008c-.0251465.1459961-.0378418.3125-.0378418.4995117 0 .3100586.0412598.581543.123291.8144531.0820312.2324219.1950684.4277344.3388672.5849609.1435547.1572266.3088379.2749023.4960938.3525391.1870117.0776367.3876953.1162109.6022949.1162109.2280273 0 .4196777-.0229492.574707-.0683594s.2851562-.1035156.3901367-.1743164.1904297-.1508789.2565918-.2397461.1242676-.1767578.1745605-.2636719c.0683594-.1181641.1264648-.1982422.1745605-.2392578.0478516-.0410156.1081543-.0615234.1813965-.0615234z" fill="#325b43"/><path d="m342.8227668 100.447549c.3149414 0 .6091309.0493164.8830566.1474609.2736816.0981445.5119629.2475586.7150879.4482422.2028809.2006836.3615723.4516602.4755859.7524414.1140137.3012695.1711426.6572266.1711426 1.0678711 0 .3286133-.0444336.6411133-.1335449.9375-.0888672.2963867-.2270508.5541992-.4140625.7734375-.1870117.21875-.4289551.3911133-.7253418.5166016-.2966309.1254883-.6501465.1835938-1.060791.1743164-.3239746-.0092773-.6147461-.0727539-.8725586-.1914062s-.4768066-.2827148-.6569824-.4926758-.3181152-.456543-.4140625-.7392578c-.0957031-.2827148-.1435547-.5932617-.1435547-.9306641 0-.3286133.0385742-.625.1162109-.8896484s.2143555-.5200195.4106445-.7666016c.0913086-.1137695.1916504-.2202148.3010254-.3183594.1096191-.0976562.2316895-.1835938.3662109-.2563477.1345215-.0732422.2827148-.1298828.4448242-.1713867.1618652-.0410156.3410645-.0615234.5371094-.0615234zm.0959473 4.2841797c.2646484 0 .494873-.0512695.6911621-.1538086.1960449-.1030273.3581543-.2382812.4858398-.4072266s.2224121-.3618164.2841797-.5786133c.0615234-.2163086.0922852-.4389648.0922852-.6669922 0-.3100586-.0410156-.5839844-.123291-.8212891-.0820312-.2373047-.1948242-.4370117-.338623-.5986328-.1437988-.1621094-.3149414-.2841797-.5131836-.3662109-.1984863-.0820312-.4118652-.1230469-.6398926-.1230469-.1643066 0-.3024902.0112305-.4140625.0341797-.1118164.0229492-.2087402.0556641-.2910156.0991211-.0820312.043457-.15625.0957031-.2224121.1572266s-.1333008.1289062-.2019043.2021484c-.0500488.050293-.1025391.1137695-.1572266.1914062s-.1062012.1713867-.1540527.2807617-.0878906.2392578-.1196289.3901367c-.0319824.1503906-.0480957.3237305-.0480957.5200195 0 .3100586.0446777.5805664.1335449.8110352s.2087402.421875.359375.574707c.1503906.152832.3271484.2670898.5302734.3422852.2028809.0751953.418457.112793.6467285.112793z" fill="#325b43"/><path d="m345.6245246 106.4084865c-.0673828 0-.1193848-.0175781-.1560059-.0527344s-.0549316-.0820312-.0549316-.140625c0-.0410156.005127-.078125.0153809-.1118164s.0307617-.0688477.0615234-.1054688.0761719-.0766602.1362305-.1206055.1411133-.0966797.2436523-.1582031c.2548828-.1552734.467041-.2890625.6367188-.4018555.1699219-.112793.3044434-.2172852.4040527-.3139648s.1699219-.190918.2109375-.2832031.0615234-.1982422.0615234-.3183594c0-.2255859-.0585938-.3959961-.1757812-.5117188s-.270752-.1733398-.4611816-.1733398c-.2019043 0-.3659668.0561523-.4916992.1689453-.1259766.112793-.2021484.2905273-.2285156.5336914 0 .0644531-.0197754.1147461-.059082.1513672-.0395508.0366211-.0900879.0546875-.1516113.0546875s-.1098633-.0195312-.1450195-.059082-.0527344-.097168-.0527344-.1733398c0-.1318359.0241699-.2583008.0725098-.3798828s.1193848-.2299805.2131348-.3251953c.0935059-.0947266.2114258-.1704102.3535156-.2260742.1418457-.0556641.3051758-.0834961.489502-.0834961.3395996 0 .5979004.0834961.7751465.2504883s.265625.3920898.265625.6762695c0 .1230469-.0146484.2373047-.0437012.3422852-.0292969.1054688-.074707.2050781-.1362305.2988281s-.140625.1831055-.2370605.2680664c-.0966797.0849609-.2124023.1694336-.3469238.2543945-.0908203.0556641-.1713867.1064453-.2416992.1518555s-.135498.0869141-.1953125.125c-.0600586.0380859-.1179199.074707-.173584.1098633s-.1140137.0703125-.1755371.1054688c-.0292969.0175781-.0571289.0336914-.0834961.0483398s-.0395508.027832-.0395508.0395508c0 .0083008.0117188.0126953.0351562.0126953h.439209c.1052246 0 .2165527-.0004883.3337402-.0019531.1169434-.0014648.2275391-.0024414.331543-.0024414h.4150391c.0615234 0 .1037598.012207.1271973.0351562.0234375.0239258.0351562.0673828.0351562.1318359 0 .0556641-.0117188.1005859-.0351562.1342773s-.0656738.050293-.1271973.050293h-1.8444824z" fill="#325b43"/><path d="m339.7895818 90.9678187.0839547.7101928c.9344522-.1120156 1.8971934-.1120156 2.8316456 0l.0839547-.7101928c-.9814485-.1120156-2.0089809-.1213693-2.999555 0zm-2.9060185.7101928c-.9344522.3552105-1.8314897.8224365-2.6541544 1.3923246l.4019787.5888235c.7756683-.5420553 1.616584-.9812204 2.5040398-1.3174954zm8.8211737.0093536-.2523203.6634245c.8783303.3365032 1.719246.785022 2.4949143 1.3177236l.4015224-.5794699c-.8222084-.5792417-1.7096642-1.0464678-2.6441164-1.4016783zm-13.7270476 3.3734727c-.6634245.7476074-1.2428944 1.5698158-1.7101205 2.4574997l.6351355.3365032c.4393933-.8409157.9814485-1.616584 1.6074585-2.3267768zm18.6142142.0093536-.5329298.4765797c.6260099.7101928 1.1680652 1.4856329 1.6074585 2.3267768l.6260099-.3365032c-.4576443-.8783303-1.0371141-1.7098923-1.7005387-2.4668533zm-21.3897379 5.2515026c-.233613.9625131-.3645641 1.9624408-.3645641 2.971494h.7104209c.0091255-.9435777.1213693-1.8873835.3454005-2.8033565zm24.1556798.0187073-.6917136.1777193c.2244875.9061631.3367313 1.850197.3367313 2.7937747v.0561219h.7190901v-.0465401c0-1.0092813-.1213693-2.009209-.3641078-2.9810758zm-23.473548 5.7561432-.6917136.1683656c.233613.9812204.5890516 1.9250262 1.0562777 2.8127102l.6260099-.3271495c-.4298115-.8409157-.7660865-1.7285996-.9905741-2.6539263zm22.7727088.0748292c-.2244875.9157449-.5703443 1.8036569-1.0092813 2.635219l.6260099.3365032c.4672261-.8879121.8317902-1.8317179 1.0745287-2.8033565l-.6912573-.1683656zm-20.1746763 4.9058739-.5329298.4672261c.6634245.7476074 1.41126 1.4203855 2.2334684 1.9905017l.4111042-.5794699c-.7756683-.5418271-1.4856329-1.1680652-2.1116429-1.878258zm17.548811.0467682c-.6355917.7101928-1.3455564 1.3362027-2.1212247 1.8689043l.4019787.5888235c.8222084-.5701162 1.5791694-1.2335407 2.2517195-1.9811481zm-12.9422538 3.1489852-.2523203.6636527c.9344522.364336 1.9063189.6073027 2.9060185.7289001l.084411-.7101928c-.9344522-.1122438-1.8597788-.3458568-2.7381091-.68236zm8.316533.0282891c-.8874558.336275-1.8127825.5605344-2.7472346.6634245l.0839547.7099646c.9905741-.1213693 1.9720226-.3549823 2.9064748-.7099646l-.2431948-.6634245z" fill="#325b43"/><circle cx="310.629941" cy="76.721198" fill="#325b43" r="20.935394"/><path d="m302.7386446 78.8573551c-2.8781857 0-5.2051906 2.3361304-5.2051906 5.2049625s2.3270049 5.2049625 5.2051906 5.2049625c2.8686039 0 5.2047343-2.3361304 5.2047343-5.2049625s-2.3361304-5.2049625-5.2047343-5.2049625zm0 9.8211014c-2.5510362 0-4.6257207-2.0651028-4.6257207-4.616139 0-2.5416825 2.0746846-4.616139 4.6257207-4.616139 2.5414544 0 4.616139 2.0744564 4.616139 4.616139 0 2.5510362-2.0746846 4.616139-4.616139 4.616139z" fill="#e2eee7"/><path d="m310.3917531 67.7374656c-2.1586393 0-3.9248816 1.7566606-3.9248816 3.9246535s1.7662424 3.9246535 3.9248816 3.9246535c2.1677648 0 3.9340071-1.7566606 3.9340071-3.9246535s-1.7662424-3.9246535-3.9340071-3.9246535zm0 7.4101418c-1.9159007 0-3.4763628-1.5604621-3.4763628-3.4854883 0-1.9156726 1.5604621-3.4854883 3.4763628-3.4854883 1.9250262 0 3.4854883 1.5698158 3.4854883 3.4854883 0 1.9250262-1.5604621 3.4854883-3.4854883 3.4854883z" fill="#e2eee7"/><path d="m297.823189 69.3727569c-1.513922 0-2.7472346 1.2333126-2.7472346 2.7565883 0 1.5136939 1.2333126 2.7472346 2.7472346 2.7472346s2.7472346-1.2335407 2.7472346-2.7472346c0-1.5232757-1.2333126-2.7565883-2.7472346-2.7565883zm0 4.9152275c-1.195898 0-2.1586393-.9718668-2.1586393-2.1586393 0-1.1961262.9627412-2.1679929 2.1586393-2.1679929 1.1963543 0 2.1586393.9718668 2.1586393 2.1679929 0 1.1867725-.962285 2.1586393-2.1586393 2.1586393z" fill="#e2eee7"/><path d="m340.3674206 131.7500691 6.5883754-.8451425 1.0964374-6.5512428.8451425 6.5883755 6.5512428 1.0964374-6.5883754.8451425-1.0964374 6.5512427-.8451426-6.5883754z" fill="#325b43"/><path d="m286.4628025 43.633606 6.5883755-.8451425 1.0964373-6.5512428.8451426 6.5883754 6.5512427 1.0964374-6.5883754.8451425-1.0964374 6.5512428-.8451425-6.5883754z" fill="#325b43"/><path d="m360.682098 91.89236h.867958v23.409219h-.867958z" fill="#325b43"/><path d="m357.5668696 112.4261344.6356536-.5919352 2.9126628 3.1341933 2.9135532-3.1341933.6355645.5919352-3.5491177 3.8164146z" fill="#325b43"/><path d="m160.94424 164.631123h.882382v5.698436h-.882382z" fill="#325b43"/><path d="m165.9270635 156.0445917c0 3.5327857-1.8022737 6.6472903-4.5393158 8.4720582-2.7371518-1.8203788-4.5439244-4.9348834-4.5439244-8.4720582s1.8067726-6.6516794 4.5439244-8.4720582c2.7370421 1.8247679 4.5393158 4.9394919 4.5393158 8.4720582z" fill="#325b43"/><path d="m161.160696 151.147948h.449472v13.36867h-.449472z" fill="#e2eee7"/><path d="m92.922982 222.72394h.617897v3.990389h-.617897z" fill="#325b43"/><path d="m96.4122561 216.7111312c0 2.4738702-1.2620611 4.6548347-3.1787035 5.9326476-1.9167193-1.2747393-3.1819307-3.4557038-3.1819307-5.9326476s1.2652114-4.6579082 3.1819307-5.9326476c1.9166424 1.2778128 3.1787035 3.458931 3.1787035 5.9326476z" fill="#325b43"/><path d="m93.074557 213.282205h.314747v9.361551h-.314747z" fill="#e2eee7"/><g fill="#62b183" opacity=".38"><path d="m210.6049934 161.7927638h-4.479248l-2.4882812-3.8120117c-3.4838867 3.6967773-7.838623 5.1982422-15.5524902 5.1982422-11.1977539 0-18.4143066-5.8916016-18.4143066-17.7905273v-54.0654297c0-13.1694336 7.9628906-19.7543945 20.2805176-19.7543945 11.3222656 0 18.4143066 4.1586914 18.4143066 19.8701172 0 4.2744141-.373291 8.3178711-.8710938 11.3212891l-12.5664062-.9243164c.373291-2.5415039.746582-4.8520508.746582-8.7797852 0-8.4331055-1.9907227-9.7041016-4.7280273-9.7041016-3.732666 0-4.7280273 1.8486328-4.7280273 5.8916016v57.300293c0 3.3500977 1.3686523 5.0830078 4.6037598 5.0830078 2.612793 0 3.9814453-1.7329102 3.9814453-5.0830078v-27.2636719h15.8012695v42.5126953z"/><path d="m264.3569465 143.5403224c0 14.5556641-9.331543 19.6386719-20.4050293 19.6386719-11.3222656 0-20.9025879-5.4291992-20.9025879-19.6386719v-52.3325195c0-14.440918 9.704834-19.6391602 20.9025879-19.6391602 11.197998 0 20.4050293 5.0830078 20.4050293 19.6391602zm-16.423584-55.3364258c0-3.4658203-2.1149902-4.8520508-4.1057129-4.8520508-2.4885254 0-4.2304688 1.3862305-4.2304688 4.8520508v58.2241211c0 3.3505859 1.6176758 4.8520508 4.3547363 4.8520508 2.4885254 0 3.9814453-1.3862305 3.9814453-4.7363281v-58.3398438z"/></g><g fill="#62b183" opacity=".38"><path d="m123.7349326 219.8756778v27.2672504c0 .597949-.0469964 1.1400043-.1309511 1.6259376-.3923969 2.2800085-1.7005387 3.4574274-3.8500524 3.4574274-3.233168 0-4.5974317-1.7381814-4.5974317-5.083365v-57.3006708c0-2.8501247.4859334-4.6067853 2.0838101-5.3918073.6730063-.336275 1.5326293-.5046407 2.6445726-.5046407 2.7381091 0 4.7283827 1.2709553 4.7283827 9.6997321 0 3.9340071-.3736896 6.2420766-.7473792 8.7837591l3.4759066.2523203 2.03727.1494302 7.0549314.523348c.2244875-1.3268491.420686-2.8498966.5607626-4.5226025.1961985-2.0933919.3084422-4.410815.3084422-6.8028392 0-15.7081957-7.0928022-19.8664622-18.4180157-19.8664622-5.2238979 0-9.6625457 1.1867725-13.0449158 3.5603175-1.4390928 1.0090532-2.691569 2.2238867-3.7099759 3.6629795-2.2800085 3.1489852-3.5229029 7.3168335-3.5229029 12.5309214v54.0675028c0 10.8956302 6.0552318 16.7640171 15.6803629 17.6610547.8783303.0935365 1.7844934.1309511 2.7285273.1309511 7.7183559 0 12.073049-1.5045684 15.5585373-5.1956088l2.4853325 3.8126378h4.4856442v-42.5175736h-15.8108577z"/><path d="m193.1554206 257.8330062c-.420686-2.7004664-.6073027-5.8964479-.6073027-11.0359349v-6.699949c0-5.6628349-.7478355-16.063178-7.962007-20.3336883 1.4578001-.6634245 2.7006945-1.4203855 3.7473905-2.2800085 2.1490575-1.7475351 3.5137774-3.9248816 4.3546931-6.6627626 1.1119433-3.5509639 1.3546819-8.0642127 1.3546819-13.8203559 0-16.2876655-7.0923459-23.3334714-20.4082893-23.3334714h-20.6514842v88.9504471h16.5399859v-36.2752689h2.3639632c1.9998554 0 3.990129 1.3923246 4.2333238 14.6708534.1304948 5.6628349.1304948 8.5503742.3736896 16.2967911.1213693 1.8408434.4950589 3.6910404 1.2428944 5.3076244h16.4272858c-.4298115-1.6352913-.7660865-3.1115706-1.0088251-4.7842765zm-23.6323318-43.8537764v-28.0709796h2.2425939c3.6068576 0 6.1017719 1.850197 6.1017719 13.3998981 0 5.4759901-.5324735 9.026954-1.4669256 11.2508406-1.093236 2.6165117-2.7472346 3.4202409-4.7562155 3.4202409z"/><path d="m223.1514265 250.1424831v-27.1458811h14.0633226v-12.4750277h-14.0633226v-24.6133241h16.922801v-12.2414147h-33.4723687v88.7264159h33.6033197v-12.2507683h-17.0537521z"/><path d="m269.1914468 250.1424831v-27.1458811h14.0637789v-12.4750277h-14.0637789v-24.6133241h16.9232573v-12.2414147h-33.4723687v88.7264159h33.593738v-12.2507683z"/><path d="m323.1934741 173.6668356v39.3966494l-10.5778343-39.3966494h-13.9328278v88.9504471h13.6805075v-45.6291442l1.6818314 6.2233693 10.1858937 37.7145899.4576443 1.691185h12.1852928v-88.9504471h-13.6805075z"/></g><path d="m214.6008241 114.0580953h-15.6520738v-14.4559477l6.9618512 6.6534089 14.1568591.8037292c.3736896-2.868832.9996996-7.2328788.9996996-11.8209568 0-12.6338116-5.5971312-21.4736926-18.016037-26.9775155-2.7285273-1.2616017-6.0835209-1.6074585-9.8117478-1.6074585-10.456465 0-17.8481277 4.5976598-20.1933836 13.615032-.0657037.2242594-.1213693.4578724-.1683656.7008391-.4202297 1.8221361-.6355917 3.8313451-.6355917 5.9993381v53.7214179c0 5.7470177 1.6170403 10.3350957 4.5978879 13.3159434 10.1854374 10.2230801 14.2873539 13.0919121 22.4829739 13.0919121 5.4661802 0 11.8020214-2.4109596 14.0446153-4.4760624l3.1022169 3.2144607h6.9522694v-43.5081477l-8.8211737-8.2699929zm-1.4856329 42.2467742h-3.3545373l-2.7285273-4.2424493c-3.3549936 4.01819-7.5787356 5.6254203-15.6520738 5.6254203-10.6905343 0-17.6428037-5.5134047-17.6428037-16.9978583v-53.7214179c0-12.7367017 7.5782793-18.9413637 19.5021263-18.9413637 10.9332729 0 17.6423474 3.7937024 17.6423474 19.0533793 0 4.251803-.3736896 8.2697648-.7473792 10.5687088l-11.0546422-.8037292c.2431948-1.8408434.6168844-4.251803.6168844-8.1577492 0-8.3726549-1.9811481-10.3257421-5.4666364-10.3257421-4.3451113 0-5.4666364 2.4109596-5.4666364 6.5411652v56.9361067c0 3.5603175 1.616584 5.7470177 5.3452672 5.7470177 3.233168 0 4.7188009-2.2987158 4.7188009-5.7470177v-26.3982737h14.2878102v40.8638032z" fill="#325b43"/><path d="m247.0264969 78.3620681c-2.9808477 0-4.9715776 1.7194741-4.9715776 5.5134047v57.8518516c0 3.6723331 1.8689043 5.5134047 5.0929468 5.5134047 2.9808477 0 4.7188009-1.8410715 4.7188009-5.401389v-57.9638672c0-3.7939306-2.3543814-5.5134047-4.8401702-5.5134047zm0 0c-2.9808477 0-4.9715776 1.7194741-4.9715776 5.5134047v57.8518516c0 3.6723331 1.8689043 5.5134047 5.0929468 5.5134047 2.9808477 0 4.7188009-1.8410715 4.7188009-5.401389v-57.9638672c0-3.7939306-2.3543814-5.5134047-4.8401702-5.5134047zm0 0c-2.9808477 0-4.9715776 1.7194741-4.9715776 5.5134047v57.8518516c0 3.6723331 1.8689043 5.5134047 5.0929468 5.5134047 2.9808477 0 4.7188009-1.8410715 4.7188009-5.401389v-57.9638672c0-3.7939306-2.3543814-5.5134047-4.8401702-5.5134047zm0 0c-2.9808477 0-4.9715776 1.7194741-4.9715776 5.5134047v57.8518516c0 3.6723331 1.8689043 5.5134047 5.0929468 5.5134047 2.9808477 0 4.7188009-1.8410715 4.7188009-5.401389v-57.9638672c0-3.7939306-2.3543814-5.5134047-4.8401702-5.5134047zm0 0c-2.9808477 0-4.9715776 1.7194741-4.9715776 5.5134047v57.8518516c0 3.6723331 1.8689043 5.5134047 5.0929468 5.5134047 2.9808477 0 4.7188009-1.8410715 4.7188009-5.401389v-57.9638672c0-3.7939306-2.3543814-5.5134047-4.8401702-5.5134047zm0 0c-2.9808477 0-4.9715776 1.7194741-4.9715776 5.5134047v57.8518516c0 3.6723331 1.8689043 5.5134047 5.0929468 5.5134047 2.9808477 0 4.7188009-1.8410715 4.7188009-5.401389v-57.9638672c0-3.7939306-2.3543814-5.5134047-4.8401702-5.5134047zm0 0c-2.9808477 0-4.9715776 1.7194741-4.9715776 5.5134047v57.8518516c0 3.6723331 1.8689043 5.5134047 5.0929468 5.5134047 2.9808477 0 4.7188009-1.8410715 4.7188009-5.401389v-57.9638672c0-3.7939306-2.3543814-5.5134047-4.8401702-5.5134047zm0 0c-2.9808477 0-4.9715776 1.7194741-4.9715776 5.5134047v57.8518516c0 3.6723331 1.8689043 5.5134047 5.0929468 5.5134047 2.9808477 0 4.7188009-1.8410715 4.7188009-5.401389v-57.9638672c0-3.7939306-2.3543814-5.5134047-4.8401702-5.5134047zm12.7925954-8.7276372c-3.4763628-2.0653309-7.9524252-2.9810758-12.6712262-2.9810758-11.549701 0-21.6137691 5.3918073-21.6137691 20.2029654v52.0021719c0 6.4291495 1.8689043 11.1294713 5.0929468 14.343932 12.0543417 12.2879548 16.399453 13.8954132 25.2206268 13.8954132 11.4283318 0 21.2400795-6.3171339 21.2400795-21.2403077v-50.9648296c0-9.6436103-4.5974317-17.9136032-17.2686578-25.2582695zm6.9618512 69.2240615c0 14.0074289-8.8211737 18.8293481-19.6330773 18.8293481-11.0546422 0-20.1185544-5.1675479-20.1185544-18.8293481v-52.0021719c0-13.8954132 9.1852815-18.8291199 20.1185544-18.8291199s19.6330773 4.8216911 19.6330773 18.8291199zm-19.7544466-60.4964242c-2.9808477 0-4.9715776 1.7194741-4.9715776 5.5134047v57.8518516c0 3.6723331 1.8689043 5.5134047 5.0929468 5.5134047 2.9808477 0 4.7188009-1.8410715 4.7188009-5.401389v-57.9638672c0-3.7939306-2.3543814-5.5134047-4.8401702-5.5134047zm0 0c-2.9808477 0-4.9715776 1.7194741-4.9715776 5.5134047v57.8518516c0 3.6723331 1.8689043 5.5134047 5.0929468 5.5134047 2.9808477 0 4.7188009-1.8410715 4.7188009-5.401389v-57.9638672c0-3.7939306-2.3543814-5.5134047-4.8401702-5.5134047zm0 0c-2.9808477 0-4.9715776 1.7194741-4.9715776 5.5134047v57.8518516c0 3.6723331 1.8689043 5.5134047 5.0929468 5.5134047 2.9808477 0 4.7188009-1.8410715 4.7188009-5.401389v-57.9638672c0-3.7939306-2.3543814-5.5134047-4.8401702-5.5134047zm0 0c-2.9808477 0-4.9715776 1.7194741-4.9715776 5.5134047v57.8518516c0 3.6723331 1.8689043 5.5134047 5.0929468 5.5134047 2.9808477 0 4.7188009-1.8410715 4.7188009-5.401389v-57.9638672c0-3.7939306-2.3543814-5.5134047-4.8401702-5.5134047zm0 0c-2.9808477 0-4.9715776 1.7194741-4.9715776 5.5134047v57.8518516c0 3.6723331 1.8689043 5.5134047 5.0929468 5.5134047 2.9808477 0 4.7188009-1.8410715 4.7188009-5.401389v-57.9638672c0-3.7939306-2.3543814-5.5134047-4.8401702-5.5134047zm0 0c-2.9808477 0-4.9715776 1.7194741-4.9715776 5.5134047v57.8518516c0 3.6723331 1.8689043 5.5134047 5.0929468 5.5134047 2.9808477 0 4.7188009-1.8410715 4.7188009-5.401389v-57.9638672c0-3.7939306-2.3543814-5.5134047-4.8401702-5.5134047zm0 0c-2.9808477 0-4.9715776 1.7194741-4.9715776 5.5134047v57.8518516c0 3.6723331 1.8689043 5.5134047 5.0929468 5.5134047 2.9808477 0 4.7188009-1.8410715 4.7188009-5.401389v-57.9638672c0-3.7939306-2.3543814-5.5134047-4.8401702-5.5134047z" fill="#325b43"/><path d="m142.993864 215.3528472h-15.6520738v-14.4653013l2.03727 1.9435054 4.9245812 4.7190291 14.1568591.8037292c.3736896-2.868832.9905741-7.2326507.9905741-11.8207287 0-12.6338116-5.5880057-21.4739207-18.0069115-26.9777436-2.7381091-1.2616017-6.0926464-1.6072304-9.8117478-1.6072304-9.5877165 0-16.586526 3.8591779-19.5021263 11.4376854-.9809923 2.5416825-1.4952147 5.5038229-1.4952147 8.8772956v53.721646c0 5.7467896 1.616584 10.3350957 4.5974317 13.3159434 3.6447285 3.6536258 6.5037506 6.3730277 9.055243 8.344594 4.5878499 3.5603175 8.1668747 4.74709 13.4277309 4.74709 5.4666364 0 11.8024777-2.4109596 14.0354898-4.4760624l3.1026732 3.2144607h6.9613949v-43.5081477l-8.8211737-8.2697648zm-1.4856329 42.246546h-3.3549936l-2.7376528-4.251803c-3.3549936 4.01819-7.5782793 5.6254203-15.6520738 5.6254203-10.6809525 0-17.6332219-5.5038229-17.6332219-16.9882765v-53.721646c0-5.3078526 1.3081418-9.4845983 3.7099759-12.5402751 3.3545373-4.2892176 8.8302992-6.4010886 15.7921504-6.4010886 10.9236911 0 17.6327656 3.7845769 17.6327656 19.0533793 0 4.251803-.3736896 8.2699929-.7473792 10.5687088l-1.5230475-.1120156-9.5315946-.6917136c.2523203-1.8406153.6260099-4.2515749.6260099-8.1577492 0-8.3726549-1.9902736-10.3255139-5.4661802-10.3255139-3.6912686 0-5.0555322 1.7379533-5.3826818 4.7936301-.0561219.5420553-.0839547 1.121297-.0839547 1.7475351v56.9361067c0 3.5603175 1.616584 5.7374359 5.3448109 5.7374359.3928532 0 .756961-.0374146 1.1028178-.102662 2.4670815-.4765797 3.6164394-2.6071581 3.6164394-5.634774v-26.3982737h14.2878102v40.8635751z" fill="#325b43"/><path d="m174.4193809 181.609679h-2.9808477v29.2671058h2.8594784c.7660865 0 1.4669256-.0933083 2.1025174-.3177959 3.2144607-1.093236 4.849752-5.186027 4.849752-14.9512347 0-11.3628562-2.4853325-13.9980752-6.8309001-13.9980752zm0 0h-2.9808477v29.2671058h2.8594784c.7660865 0 1.4669256-.0933083 2.1025174-.3177959 3.2144607-1.093236 4.849752-5.186027 4.849752-14.9512347 0-11.3628562-2.4853325-13.9980752-6.8309001-13.9980752zm0 0h-2.9808477v29.2671058h2.8594784c.7660865 0 1.4669256-.0933083 2.1025174-.3177959 3.2144607-1.093236 4.849752-5.186027 4.849752-14.9512347 0-11.3628562-2.4853325-13.9980752-6.8309001-13.9980752zm0 0h-2.9808477v29.2671058h2.8594784c.7660865 0 1.4669256-.0933083 2.1025174-.3177959 3.2144607-1.093236 4.849752-5.186027 4.849752-14.9512347 0-11.3628562-2.4853325-13.9980752-6.8309001-13.9980752zm0 0h-2.9808477v29.2671058h2.8594784c.7660865 0 1.4669256-.0933083 2.1025174-.3177959 3.2144607-1.093236 4.849752-5.186027 4.849752-14.9512347 0-11.3628562-2.4853325-13.9980752-6.8309001-13.9980752zm0 0h-2.9808477v29.2671058h2.8594784c.7660865 0 1.4669256-.0933083 2.1025174-.3177959 3.2144607-1.093236 4.849752-5.186027 4.849752-14.9512347 0-11.3628562-2.4853325-13.9980752-6.8309001-13.9980752zm0 0h-2.9808477v29.2671058h2.8594784c.7660865 0 1.4669256-.0933083 2.1025174-.3177959 3.2144607-1.093236 4.849752-5.186027 4.849752-14.9512347 0-11.3628562-2.4853325-13.9980752-6.8309001-13.9980752zm0 0h-2.9808477v29.2671058h2.8594784c.7660865 0 1.4669256-.0933083 2.1025174-.3177959 3.2144607-1.093236 4.849752-5.186027 4.849752-14.9512347 0-11.3628562-2.4853325-13.9980752-6.8309001-13.9980752zm30.1830788 69.3365334v-8.9614784c0-9.2977534-1.7384096-15.6053056-8.4383586-20.6608378 6.0835209-2.9808477 9.9335733-8.7276372 9.9335733-21.5763546 0-12.7460553-6.4572105-19.0629611-16.7735989-26.8654998-3.2240425-2.4109596-7.7001049-3.4480737-13.0357903-3.4480737h-21.3710306v89.5390425l3.9435889 3.6442722 4.8780411 4.513477h17.885086v-6.4289214l2.1495138 1.9154444 5.055076 4.513477h17.5209782c-1.2424381-4.4760624-1.7470788-7.2326507-1.7470788-16.1845473zm-18.9974856-35.1354928c1.0184069.4391651 1.9250262 1.0092813 2.7285273 1.6727059 5.4196401 4.4760624 6.0835209 13.353358 6.0835209 18.6516288v6.6534089c0 8.2697648.5041844 11.5964693 1.3733892 15.044543h-14.9138201c-.4955152-1.1493579-.8692048-2.8781857-.9905741-4.5974317-.2427386-7.6905231-.2427386-10.5593551-.3736896-16.1847754-.2431948-12.858071-2.1120992-15.2690306-4.9715776-15.2690306h-3.1022169v36.0512376h-15.0260639v-87.0160673h19.8758159c12.7925954 0 19.6234955 6.5411652 19.6234955 22.5014531 0 8.2606393-.5046407 13.7364012-3.2235862 17.5022709-1.5326293 2.1492856-3.7939306 3.7378087-7.0832204 4.9900567zm-11.1855932-34.2010406h-2.9808477v29.2671058h2.8594784c.7660865 0 1.4669256-.0933083 2.1025174-.3177959 3.2144607-1.093236 4.849752-5.186027 4.849752-14.9512347 0-11.3628562-2.4853325-13.9980752-6.8309001-13.9980752zm0 0h-2.9808477v29.2671058h2.8594784c.7660865 0 1.4669256-.0933083 2.1025174-.3177959 3.2144607-1.093236 4.849752-5.186027 4.849752-14.9512347 0-11.3628562-2.4853325-13.9980752-6.8309001-13.9980752zm0 0h-2.9808477v29.2671058h2.8594784c.7660865 0 1.4669256-.0933083 2.1025174-.3177959 3.2144607-1.093236 4.849752-5.186027 4.849752-14.9512347 0-11.3628562-2.4853325-13.9980752-6.8309001-13.9980752zm0 0h-2.9808477v29.2671058h2.8594784c.7660865 0 1.4669256-.0933083 2.1025174-.3177959 3.2144607-1.093236 4.849752-5.186027 4.849752-14.9512347 0-11.3628562-2.4853325-13.9980752-6.8309001-13.9980752zm0 0h-2.9808477v29.2671058h2.8594784c.7660865 0 1.4669256-.0933083 2.1025174-.3177959 3.2144607-1.093236 4.849752-5.186027 4.849752-14.9512347 0-11.3628562-2.4853325-13.9980752-6.8309001-13.9980752zm0 0h-2.9808477v29.2671058h2.8594784c.7660865 0 1.4669256-.0933083 2.1025174-.3177959 3.2144607-1.093236 4.849752-5.186027 4.849752-14.9512347 0-11.3628562-2.4853325-13.9980752-6.8309001-13.9980752zm0 0h-2.9808477v29.2671058h2.8594784c.7660865 0 1.4669256-.0933083 2.1025174-.3177959 3.2144607-1.093236 4.849752-5.186027 4.849752-14.9512347 0-11.3628562-2.4853325-13.9980752-6.8309001-13.9980752z" fill="#325b43"/><path d="m243.4848866 245.4328077h-8.316533v-17.5677464h14.0354898v-13.5402028l-8.6998044-8.2697648h-5.3356854v-15.0354175h16.8853864v-13.427959l-8.6902227-8.1577492h-34.9114615v89.5390425l3.653854 3.4202409 4.9245812 4.616139h35.2755693v-13.4281872zm-1.4856329 12.1665855h-32.0519831v-86.7824542h31.9210321v10.79274h-16.8949682v25.8283857h14.0446153v11.0172276h-14.0446153v28.3511328h17.0259193v10.7929682z" fill="#325b43"/><path d="m289.450534 245.4328077h-8.3261148v-17.5677464h14.0354898v-13.5402028l-8.6902227-8.2697648h-5.3452672v-15.0354175h16.8949682v-13.427959l-8.6998044-8.1577492h-34.9014235v89.5390425l3.6442722 3.4202409 4.9245812 4.616139h35.2755693v-13.4281872l-8.8120482-8.1483955zm-1.4952147 12.1665855h-32.0515269v-86.7824542h31.9301576v10.79274h-16.8949682v25.8283857h14.0354898v11.0172276h-14.0354898v28.3511328h17.0163375v10.7929682z" fill="#325b43"/><path d="m340.0044876 169.433968h-15.1570149v11.7084849l-1.616584-3.5507357-.0374146-.0374146-7.5408647-8.1203346h-15.2783842v89.5390425l3.9997108 3.6442722 4.8214629 4.3921077h15.0356457v-16.6426479l2.2330122 8.606268 3.9997108 3.6442722 4.8219192 4.3921077h13.4090236v-89.3056576l-8.6902227-8.2697648zm-1.4952147 88.3990382h-10.8023218l-13.6618002-50.2829259v50.2829259h-12.175711v-87.0160673h12.5402751l8.7837591 32.4441519 3.1492133 11.6338839v-44.0780358h12.1665855z" fill="#325b43"/><path d="m154.6947171 122.7126246c0 3.9068221-.6930495 7.6570528-1.9567287 11.1292675-.3194862.8831488-.6794473 1.7460602-1.0735798 2.5887341-.0408067.1018507-.0952155.2106685-.1426574.3125192-.5843977 1.2162372-1.2366406 2.3916678-1.9636956 3.5196566-.1630607.2581104-.3261214.5026185-.4959833.7540936-.0204033.0272044-.0408067.0610441-.0680111.0882485v.006967c-4.4300098 6.4477826-11.1224664 11.217516-18.9361106 13.1606425-2.520723.6320054-5.1637001.9647621-7.8884564.9647621-2.3710986 0-4.681319-.2511434-6.9099262-.7404914-5.2995564-1.1415909-10.1236987-3.5807006-14.1121341-6.964335-1.1412592-.9647621-2.214839-2.0111375-3.2068056-3.125524-1.2776131-1.4199387-2.4324745-2.9622974-3.4380433-4.5929046-.4147017-.6592099-.795232-1.3316902-1.1551931-2.0247397-.6184032-1.1687954-1.1618284-2.3780656-1.623972-3.6284743-.6930495-1.8343087-1.2228725-3.7435955-1.5761983-5.7208934-.3327567-1.8548779-.5026185-3.7707999-.5026185-5.7275286 0-1.3184198.0812815-2.6159385.2309059-3.8935516.4823811-4.0355455 1.7052535-7.8474838 3.5262918-11.2921623 4.5046561-8.5202959 12.6785932-14.7915814 22.4149605-16.7211057 2.0519442-.4077347 4.1785347-.6184032 6.3527329-.6184032.5571932 0 1.1075854.0136022 1.6579775.0408067 7.8136442.3938008 14.9002333 3.539894 20.3018063 8.4930915 3.2341759 2.9622974 5.8703519 6.5702025 7.6981912 10.626649.1222541.2581104.237707.5228559.3465248.7879333.115453.2786796.2309059.5639944.3397237.8493092.6930495 1.7868668 1.2298395 3.6487117 1.5967676 5.578236.3871655 1.9909001.5842318 4.0494795.5842318 6.1491973z" fill="#325b43"/><path d="m130.0579506 154.2727536c-2.520723.6320054-5.1637001.9647621-7.8884564.9647621-2.3710986 0-4.681319-.2511434-6.9099262-.7404914l.8153036-12.4745599.1630607-2.5140878.0204033-.3805303.0272044-.3191545.0680111-1.0463754.0950496-1.4743476.2038674-3.1663307.0884144-1.3316902 3.5534962.1290552.2513093.0136022 1.3656957.0474419.3125192.0136022 5.462783.1970663.1222541 1.1618284.244674 2.2626127.1630607 1.5221212.0340055.298917.0882485.8423422.0748122.7136187.0476078.4007678 1.5966017 14.87983z" fill="#fff"/><path d="m154.1674171 138.0869429-1.0582501-.9150727c-.2338604-.2629545-.4381495-.5410127-.6142809-.8334885-9.8331367 4.3619951-21.7892094 2.5370216-31.6310059-5.1496968l-2.0362961 2.6080031c6.5895637 5.1459429 14.0660502 7.8951325 21.3754645 8.1656393 5.2514537.1943417 10.4095983-.9103148 15.0967327-3.3057392-.3926589-.1443239-.7706775-.3323007-1.1323641-.5696453z" fill="#fff"/><path d="m121.1671326 133.3827632c-9.3904834 10.1440869-22.4913493 13.6206741-33.6960308 9.0577569.2309065 1.2431661.4387869 2.4908684.6347657 3.7437216 3.4828994 1.157418 7.0921579 1.6684385 10.7065875 1.5270532 8.8917076-.3480271 17.791617-4.5293613 24.7827197-12.0810741z" fill="#fff"/><path d="m115.0990596 133.4333841-17.800243-7.1292692-4.4793407-21.6028378-1.3127361-6.8789069-7.3608591-12.749214 3.842164-3.2704756 11.9635426 2.0363885 13.2086462 5.5941643 15.887057-13.2228512 8.0460514-6.6850367-.0006906 17.8566654 8.4199728 13.5745948-1.9912772 14.1775359-12.3321226 15.0397831z" fill="#fff"/><path d="m156.0949016 107.7133567s-.2431948-.9344522-.9344522-2.270883v-.0093536c-.0561219-.1213693-.1213693-.233613-.1961985-.364336v-.0093536c-.0652474-.1213693-.1400766-.233613-.2149057-.3645641-1.2616017-2.1584111-3.5977321-4.9991822-7.7001049-6.8961475 0 0 2.8220638-.4391651 3.7286832.0093536-.1774912-.1961985-3.0465513-3.1676925-7.9893835-4.0462509l-2.5980325-8.5127315 3.8126378.5885954s-.4298115-1.382971-4.2424493-2.7846492c1.7849496-5.1207796-.8222084-13.6802794-.8222084-13.6802794-.6355917.0374146-1.2524762.0839547-1.8410715.1494302h-.0091255c-10.2698483 1.1400043-13.2224069 7.1952361-13.923246 9.1389696-2.7755237.4672261-6.1770573 1.35491-10.3072629 2.9343076.1309511-.1496584 2.2425939-2.6632799 4.8593338-3.4389482 0 0-7.223297-.3175677-12.596397 6.1861829 0 0-12.5220241-6.0552318-22.8571198-1.1402324 0 0-.1492021 5.5975875 9.1204904 17.9323105 0 0-6.7095308 6.1394146-7.6344012 12.3534303.205324-.3458568 3.3545373-6.0084636 5.5597166-7.5317392 0 0-8.1668747 12.1572318-2.7472346 19.6796174 0 0-.6164282-4.4012332.3554386-6.4104423 0 0 0-.0093536.0091255-.0093536.0282891-.074601.0652474-.1307229.102662-.1961985v-.0093536c.0469964-.074601.0935365-.1400766.1400766-.2055521 0 0 0 .0654755.0095818.1961985.0187073.9531595.2057802 5.1301333 1.7379533 8.6530362l-.2614458-.1213693c.233613.1961985.4672261.4391651.67255.7195464.0282891.0187073.0374146.0467682.0469964.0654755.2614458.0371865.5137662.074601.7756683.1213693.4485188.0839547.8970376.1868448 1.3268491.3271495-.5046407-1.4858611-.859623-3.1117987-.5329298-4.149141 0 0 .7756683 2.111871 2.168221 4.7938583.2710276.1307229.5511808.2429667.8035011.3923969 1.616584.9157449 3.1396315 1.8876116 4.644428 2.9343076.8313339.102662 1.6727059.2149057 2.5040398.3269214 3.9997108 1.1400043 6.6347016 2.1586393 11.0268093 2.6726336 1.4669256.1681375 2.9060185.3549823 4.3542368.5511808.4955152.0654755.9814485.1309511 1.4765074.2057802h.0095818c.0465401.0091255.0935365.0091255.1400766.0184792 1.3551382.1964266 2.7006945.4019787 4.0462509.6355917.6447172.0933083 1.280309.1961985 1.9154444.3082141.1587839.0280609.3084422.0467682.4581006.0654755h.0187073c.3736896.0374146.7377974.0467682 1.0836542.0280609.0935365-.0093536.1961985-.0093536.2897349-.0187073.756961-.0654755 1.4952147-.233613 2.3361304-.3923969.3832714-.0654755.7852501-.1496584 1.2241871-.2057802.4393933-.0652474.8409157-.1494302 1.2146053-.233613h.0095818c.7099646-.1774912 1.2520199-.3736896 1.4856329-.438937-.1774912.0839547-.5420553.2614458-1.1493579.5605344-.2149057.1120156-.4672261.233613-.7473792.3830433-.0469964.0280609-.0935365.0561219-.1496584.0841828.0657037-.0187073.1122438-.0561219.1774912-.0841828l.0282891-.0091255c.2614458-.1215974.523348-.233613.7943756-.3365032.7008391-.2897349 1.4016783-.523348 2.1207684-.7101928-.0091255-.0093536-.0465401-.0280609-.0465401-.0280609.2523203-.1120156.5137662-.2242594.7660865-.3365032 0 0 .4859334-.1868448 1.2428944-.6727782.1218256-.0652474.233613-.1494302.3458568-.233613h.0095818c.102662-.074601.1961985-.1494302.3175677-.233613 1.6070022-1.1774189 3.9152998-3.4013055 5.7002495-7.2887725 0 0-.4485188 4.2333238-1.0188631 4.9807031.2993167-.2523203 5.0742395-4.3451113 5.7750787-9.0547868 0 0-.2244875 4.3172785-.523348 5.1862552 0 0 3.2427498-3.494842 5.167776-8.3726549l.0091255-.0280609c.1961985-.4765797.3736896-.9718668.523348-1.4671538l.0091255-.0280609c.233613-.7101928.4298115-1.4765074.5794699-2.2425939l.0095818-.0654755c.0465401-.261674.0930802-.5327016.1304948-.8037292 0 0 .2806094 2.4670815.0561219 2.9904294.102662-.0654755 1.0279886-.6730063 1.8314897-1.8876116 1.2616017-1.9063189 2.2147611-5.3078526-.9157449-10.3631567 0 0 1.6635804.0187073 2.896893 1.513922zm-56.1697921-20.1468435c-3.8222196 3.0650305-6.5133324 8.2232247-6.5133324 8.2232247-4.1863275-2.7846492-6.8683147-10.0640681-6.8683147-10.0640681 5.2051906-2.5603898 13.3816471 1.8408434 13.3816471 1.8408434zm31.1919039 13.6709257c1.4390928 5.9525698-1.2054798 10.6061234-6.130061 11.7928959-4.9149994 1.1867725-10.2602666-1.5511085-11.6897776-7.5036783-1.1119433-4.588078-.2149057-11.3347953 2.5227471-14.7176216.7943756-.9999277 1.7662424-1.7101205 2.8873112-1.9811481 1.6448731-.3923969 3.4298227.2057802 5.1212359 1.4016783 3.3449555 2.3641914 6.3353849 7.0551595 7.2885444 11.0078739zm5.9804026-24.1089116v.0187073c-.0091255.0095818 0 .0095818 0 .0187073.1961985 1.4390928.2806094 3.1024451-.0091255 4.5415379v.1307229c-.1774912.9438058-.4955152 1.8036569-1.0188631 2.4764351 0 0-6.4193396-4.0462509-8.8211737-4.6816145-1.0462397-.2710276 2.4018341-5.6160667 8.9429993-6.7186563 0 0 .5977209 1.8876116.8970376 4.2050348l.0091255.0091255z" fill="#e2262b"/><path d="m117.9635041 151.5315436-.1800007-15.0379271.2929289-.0036502.1763504 14.7404355 7.9583568-.2231187-.6844132-14.9325274.2924726-.0136883.6981015 15.2309316z" fill="#61b183" opacity=".3"/><path d="m114.6284379 139.0022059s9.673185 3.8528122 17.1681481-1.9736605z" fill="#606161" opacity=".2"/><path d="m86.9070873 119.0225649s.7569392 12.7365525 7.349247 17.8024997c0 0-2.3660263-5.1520091-2.6416843-7.5882812 0 0 3.2527539 9.8368589 18.1860847 11.477068 0 0-4.0288043-1.3197658-7.1563707-5.0092956 0 0 19.5537739 8.6907497 32.903176-.8286156l-27.4451653-5.3872511s-12.9303467-10.97373-13.2246584-10.9903391c-.2941709-.0165395-7.970629.524215-7.970629.524215z" fill="#e2262b"/><path d="m133.9938386 109.0326285c-3.854113 2.0056435 5.615347 3.9585861 5.615347 3.9585861s1.8355275-3.0089449 2.1869876-5.5572586c.3509636-2.5494345-3.9489261-.4075292-7.8023346 1.5986725z" fill="#fff"/><path d="m89.1947649 145.3709162c-.4637344 1.1007294-1.300309 3.0029512-2.6748018 3.1413857-2.6505797.2739954-.187886-3.4543615.4724705-4.5606787-1.1241251 1.1922687-2.2704112 2.3732358-3.5672862 3.3806911-.6915738.5372373-1.4045549 1.0896684-2.2242221 1.4180226-.5938581.2378963-2.0685862.6525711-2.4019055-.2005202-.3309161-.8469404 1.019694-2.0134499 1.5729079-2.4936262 1.5542624-1.3490601 3.7725714-2.1554223 5.8336211-2.0818936-1.5564437-.0528694-3.1128228-.1424413-4.6601751-.3229832-.9810812-.1144705-1.9648226-.2583964-2.9235476-.5009321-.7402795-.1872739-1.8528593-.423652-2.290839-1.1391283-1.2354636-2.0193498 3.8441593-1.5778347 4.6393541-1.511089 3.116874.2616188 5.3523471 1.1867335 8.163028 2.5001481l.1992801.0931225c.6526824-1.4027025 2.6031901-5.9070576 4.6866533-5.2751247 2.6813036.9113004-2.4065099 5.9014513-4.070929 6.2458873l-.7536086 1.3067188z" fill="#e2262b"/><path d="m153.5677955 138.6994431c.3396427 1.1451191.9615546 3.1279278 2.3124289 3.4169491 2.6042582.5643452.5673135-3.4126339.0328612-4.5849688.9859284 1.3088571 1.995128 2.608923 3.1731159 3.7531239.6281758.6101585 1.2759547 1.2377767 2.0544571 1.6544358.5640337.3018742 1.9840994.8764973 2.4093758.0653214.4222102-.8053274-.7916624-2.1135342-1.2886071-2.6517358-1.3961734-1.5120829-3.5121408-2.5579303-5.5687449-2.7119176 1.5527937.1189278 3.1095668.2013693 4.6673903.1924002.9877203-.0056868 1.9813298-.0403565 2.9609392-.1757919.7564053-.1045764 1.8882545-.2169412 2.402393-.8798094 1.4504171-1.8709447-3.6469264-1.9917456-4.444634-2.0130139-3.1267233-.0833637-5.4505092.5898347-8.388781 1.5855978l-.2083264.0706007c-.4941718-1.4660705-1.9365556-6.1578958-4.0769568-5.7593474-2.7653806.6103504 1.7416903 6.1306551 3.3580305 6.6563655l.6050582 1.3817903z" fill="#e2262b"/><path d="m107.6611821 112.8186586c-6.9017335-7.6925345-8.1042521 3.6629158-8.1042521 3.6629158 3.1428451-8.9005294 8.1042521-3.6629158 8.1042521-3.6629158z" fill="#fff"/><path d="m117.7754965 127.086198c4.9489604 1.0155167 10.7436558.0102217 17.2880766-3.0079341.1895644-.0874387.2723795-.3120083.184947-.5016027-.0874149-.1895283-.3119607-.2723073-.5016027-.184947-8.0375937 3.7067254-14.8832116 4.3136715-20.346195 1.8036589-6.9773836-3.2056426-9.5595866-10.6204303-10.1847475-12.8165427-.0572047-.2009316-.2665518-.3171696-.4670748-.2601307-.2007995.0571694-.3173001.2662754-.2601307.4670748.4079628 1.4330962 1.3831191 4.2551866 3.3304155 7.0546699 1.9696439 2.8317207 4.4142527 4.9317861 7.2658842 6.2419368 1.171383.5381685 2.4026641.9395704 3.6904276 1.2038169z" fill="#fff"/><path d="m133.0713891 144.7125194.7168979 1.9596502 44.5493796-16.297478 5.4653462-31.6248854-31.2682709 6.8469039-2.5634963 32.1927055z" fill="#325b43"/><path d="m133.225609 145.0888576-.3084276-.7527599 16.6684018-6.8282565 2.5676038-32.2440939 31.5628254-6.9113092.1740332.7946637-30.9737172 6.7825775-2.5593929 32.1414105z" fill="#fff"/><path d="m178.4562152 129.6887174-44.8752643 16.4166962.2073361.566756 44.5117994-16.2837301z" fill="#231f20" opacity=".5"/><ellipse cx="167.48159" cy="119.055071" fill="#fff" rx="4.122788" ry="2.196699" transform="matrix(.04007342 -.99919674 .99919674 .04007342 41.810592 281.631186)"/><ellipse cx="121.814879" cy="108.786199" fill="#e2262b" rx="2.096864" ry="3.441131" transform="matrix(.94211653 -.33528562 .33528562 .94211653 -29.42338 47.1397)"/><ellipse cx="134.594253" cy="102.210909" fill="#fff" rx="2.096864" ry="3.441131" transform="matrix(.94211653 -.33528562 .33528562 .94211653 -26.479065 51.04384)"/><path d="m80.0958338 208.1482575c-.3549823-1.0934642-.962285-2.0931637-1.8036569-2.9249539-1.3172673-1.3174954-3.0273878-2.0744564-4.8684593-2.1586393-.1213693-.0187073-.2518641-.0187073-.3736896-.0187073h-.3828151v4.644428c0 3.9714217 3.1396315 7.223297 7.0549314 7.4194955.1213693.0093536.2523203.0093536.3736896.0093536h.3736896v-4.6535535c0-.7943756-.1213693-1.5793975-.3736896-2.3174231zm-.4298115 6.1953084c-.0187073 0-.0465401 0-.0652474-.0093536-.0374146 0-.084411 0-.1213693-.0093536-.0374146.0093536-.0748292 0-.1122438-.0093536-.2057802-.0187073-.4019787-.0465401-.5981771-.0933083-.0187073.0093536-.0278328 0-.0465401-.0093536-.1683656-.0280609-.3271495-.0654755-.4859334-.1215974-.084411-.0187073-.1683656-.0371865-.2523203-.074601-.1031183-.0280609-.2057802-.0654755-.2993167-.1122438-.1213693-.0374146-.233613-.0839547-.3454005-.1400766-.0748292-.0280609-.1405328-.0654755-.215362-.1028901-.102662-.0467682-.205324-.1028901-.3079859-.1681375-.0935365-.0467682-.1774912-.0935365-.2710276-.1587839-.1122438-.0654755-.2244875-.1403047-.336275-.2244875-.0191636-.0091255-.0374146-.0187073-.0561219-.0465401-.1405328-.1028901-.2806094-.2149057-.4111042-.3271495-.0374146-.0187073-.0748292-.0561219-.1122438-.0935365-.1213693-.102662-.233613-.2149057-.3458568-.336275-.0374146-.0374146-.0748292-.0748292-.102662-.1122438-.1122438-.1120156-.2149057-.233613-.3084422-.3549823-.2431948-.2990886-.4581006-.6260099-.6447172-.9718668-.0935365-.1774912-.1774912-.3549823-.2523203-.5327016-.0187073-.0184792-.0187073-.0371865-.0282891-.0558937-.0743729-.1777193-.1492021-.3552105-.205324-.5420553-.0095818-.0374146-.0187073-.0748292-.0374146-.1213693-.1774912-.6075308-.2806094-1.252248-.2806094-1.9250262v-3.887467c1.6352913.0935365 3.1679206.7756683 4.3359858 1.9437335 1.2616017 1.2616017 1.9624408 2.9343076 1.9624408 4.7190291v3.8872389c-.0187073 0-.0374146 0-.0561219-.0093536z" fill="#325b43"/><path d="m87.1416396 203.045957c-.1213693 0-.2523203 0-.3736896.0095818-3.1209242.1587839-5.7376641 2.2425939-6.6721162 5.0927187-.2427386.7289001-.3736896 1.5043402-.3736896 2.3174231v4.6535535h.3736896c.1213693 0 .2523203 0 .3736896-.0093536 3.9157561-.1961985 7.0458058-3.4480737 7.0458058-7.4194955v-4.644428zm-.3736896 4.644428c0 .4485188-.0465401.8783303-.1309511 1.2987881-.0748292.4204578-.205324.8224365-.3645641 1.2148334-.0652474.1774912-.1492021.3458568-.233613.5139943-.205324.4017506-.4485188.7754402-.7190901 1.121297-.0935365.1213693-.1966547.2429667-.3084422.3549823-.0282891.0374146-.0657037.0748292-.1031183.1122438-.1117875.1213693-.2240313.233613-.3454005.336275-.0374146.0374146-.0748292.0748292-.1122438.0935365-.1309511.1122438-.2710276.2242594-.4111042.3271495-.0187073.0278328-.0374146.0374146-.0561219.0465401-.1122438.0841828-.2244875.159012-.336275.2244875-.0935365.0652474-.1779474.1120156-.2710276.1587839-.1031183.0652474-.2057802.1213693-.3084422.1681375-.0748292.0374146-.1400766.0748292-.2149057.1028901-.1122438.0561219-.2244875.102662-.3458568.1400766-.0935365.0467682-.1961985.0841828-.2988604.1122438-.084411.0374146-.1683656.0558937-.2523203.074601-.1592401.0561219-.318024.0935365-.4859334.1215974-.0187073.0093536-.0282891.0187073-.0469964.0093536-.1961985.0467682-.3923969.074601-.5977209.0933083-.0374146.0093536-.0748292.0187073-.1122438.0093536-.0374146.0093536-.084411.0093536-.1213693.0093536-.0187073.0093536-.0469964.0093536-.0657037.0093536-.0187073.0093536-.0374146.0093536-.0561219.0093536v-3.8872389c0-3.5509639 2.794231-6.4665641 6.2984266-6.6627626v3.887467z" fill="#325b43"/><path d="m85.3379827 187.1602701c-1.3920965-1.4016783-3.2610008-2.1771184-5.2421489-2.1771184-4.092791 0-7.428621 3.3267045-7.428621 7.4194955v15.2877379c0 3.9714217 3.1396315 7.223297 7.0549314 7.4194955.1213693.0093536.2523203.0093536.3736896.0093536s.2523203 0 .3736896-.0093536c3.9157561-.1961985 7.0458058-3.4480737 7.0458058-7.4194955v-15.2877379c0-1.98092-.7660865-3.8498243-2.1773466-5.242377zm1.4299673 20.5301149c0 .4485188-.0465401.8783303-.1309511 1.2987881-.0748292.4204578-.205324.8224365-.3645641 1.2148334-.0652474.1774912-.1492021.3458568-.233613.5139943-.205324.4017506-.4485188.7754402-.7190901 1.121297-.0935365.1213693-.1966547.2429667-.3084422.3549823-.0282891.0374146-.0657037.0748292-.1031183.1122438-.1117875.1213693-.2240313.233613-.3454005.336275-.0374146.0374146-.0748292.0748292-.1122438.0935365-.1309511.1213693-.2710276.233613-.4111042.3271495-.0187073.0278328-.0374146.0374146-.0561219.0465401-.1122438.0841828-.2244875.159012-.336275.2244875-.0935365.0652474-.1779474.1120156-.2710276.1587839-.1031183.0652474-.2057802.1213693-.3084422.1681375-.0748292.0374146-.1400766.0748292-.2149057.1028901-.1122438.0561219-.2244875.102662-.3458568.1400766-.0935365.0467682-.1961985.0841828-.2988604.1122438-.084411.0278328-.1683656.0558937-.2523203.074601-.1592401.0561219-.318024.0935365-.4859334.1215974-.0187073.0093536-.0282891.0187073-.0469964.0093536-.1961985.0467682-.3923969.074601-.5977209.0933083-.0374146.0093536-.0748292.0187073-.1122438.0093536-.0374146.0093536-.084411.0093536-.1213693.0093536-.0187073.0093536-.0469964.0093536-.0657037.0093536h-.0561219c-.1213693.0187073-.2523203.0187073-.3736896.0187073s-.2523203 0-.3736896-.0187073h-.0561219c-.0187073 0-.0465401 0-.0652474-.0093536-.0374146 0-.084411 0-.1213693-.0093536-.0374146.0093536-.0748292 0-.1122438-.0093536-.2057802-.0187073-.4019787-.0465401-.5981771-.0933083-.0187073.0093536-.0278328 0-.0465401-.0093536-.1683656-.0280609-.3271495-.0654755-.4859334-.1215974-.084411-.0187073-.1683656-.0467682-.2523203-.074601-.1031183-.0280609-.2057802-.0654755-.2993167-.1122438-.1213693-.0374146-.233613-.0839547-.3454005-.1400766-.0748292-.0280609-.1405328-.0654755-.215362-.1028901-.102662-.0467682-.205324-.1028901-.3079859-.1681375-.0935365-.0467682-.1774912-.0935365-.2710276-.1587839-.1122438-.0654755-.2244875-.1403047-.336275-.2244875-.0191636-.0091255-.0374146-.0187073-.0561219-.0465401-.1405328-.0935365-.2806094-.2057802-.4111042-.3271495-.0374146-.0187073-.0748292-.0561219-.1122438-.0935365-.1213693-.102662-.233613-.2149057-.3458568-.336275-.0374146-.0374146-.0748292-.0748292-.102662-.1122438-.1122438-.1120156-.2149057-.233613-.3084422-.3549823-.2431948-.2990886-.4581006-.6260099-.6447172-.9718668-.0935365-.1774912-.1774912-.3549823-.2523203-.5327016-.0187073-.0184792-.0187073-.0371865-.0282891-.0558937-.0743729-.1777193-.1400766-.3552105-.205324-.5420553-.0095818-.0374146-.0187073-.0748292-.0374146-.1213693-.1774912-.6075308-.2806094-1.252248-.2806094-1.9250262v-15.2877379c0-3.6816868 2.9904294-6.6718881 6.6721162-6.6718881 1.7849496 0 3.4576555.6914855 4.7192572 1.952859 1.2611454 1.2616017 1.952859 2.9343076 1.952859 4.7190291v15.2877379z" fill="#325b43"/><path d="m101.7676843 227.0607381h-15.2468289c-3.7504949 0-6.8017296-3.0512347-6.8017296-6.8017296v-5.5180504h.7497207v5.5180504c0 3.3370515 2.7149573 6.0520089 6.0520089 6.0520089h15.2468289z" fill="#325b43"/><path d="m91.4589182 167.8919851c-4.1676202 0-7.5600283 3.39218-7.5600283 7.5598002v.074601l.0191636.4019787c.2427386 3.831117 3.3545373 6.8680866 7.1575933 7.0551595.0095818.0091255.0187073.0091255.0282891 0 .1117875.0184792.2240313.0184792.336275.0184792h.0374146c.1213693 0 .2427386 0 .3641078-.0184792h.0095818c3.8030561-.1870729 6.9148548-3.2240425 7.1484678-7.0551595l.0187073-.4019787v-.074601c0-4.1676202-3.3919519-7.5598002-7.559572-7.5598002zm6.7934855 7.9896117c-.0095818.1400766-.0187073.2710276-.0469964.4111042 0 .0467682 0 .1028901-.0187073.1496584-.0091255.0933083-.018251.1868448-.0465401.2801531-.0091255.0935365-.0278328.1870729-.0561219.2803813-.0187073.1120156-.0465401.2242594-.0839547.3365032-.0282891.1213693-.0652474.233613-.1122438.3456287-.0187073.0654755-.0374146.1215974-.0652474.1774912-.0469964.1309511-.0935365.2523203-.1587839.3739177-.0657037.1587839-.1496584.3175677-.233613.4765797-.0561219.102662-.1122438.2055521-.1779474.3082141-.0930802.1496584-.1961985.2897349-.2988604.4393933-.1213693.1681375-.2523203.3269214-.3923969.4859334-.1309511.1494302-.2806094.2988604-.4393933.4485188-.1304948.1307229-.2801531.2614458-.438937.3830433-.4672261.3736896-.9814485.6821318-1.5326293.9157449-.102662.0467682-.2057802.0933083-.3175677.1215974-.102662.0465401-.2057802.0839547-.318024.1120156-.0743729.0374146-.1587839.0561219-.2427386.0748292-.1213693.0371865-.233613.0652474-.3645641.0933083-.0652474.0187073-.1400766.0374146-.2149057.0374146-.1774912.0374146-.3641078.0654755-.5511808.0841828-.0839547.0093536-.1683656.0187073-.2523203.0187073-.0374146.0093536-.0748292.0093536-.1213693 0-.0935365.0184792-.1961985.0184792-.2897349.0184792h-.0374146c-.0935365 0-.1961985 0-.2897349-.0184792-.0465401.0093536-.0839547.0093536-.1213693 0-.084411 0-.1683656-.0093536-.2523203-.0187073-.1870729-.0187073-.3736896-.0467682-.5511808-.0841828-.0748292 0-.1496584-.0187073-.215362-.0374146-.1304948-.0280609-.2427386-.0561219-.3641078-.0933083-.084411-.0187073-.1683656-.0374146-.2431948-.0748292-.1117875-.0280609-.2149057-.0654755-.3175677-.1120156-.1122438-.0282891-.2149057-.0748292-.3175677-.1215974-.551637-.233613-1.0654032-.5420553-1.5326293-.9157449-.1496584-.1215974-.2993167-.2523203-.4393933-.3830433-.1587839-.1496584-.3079859-.2990886-.438937-.4485188-.1400766-.159012-.2710276-.3177959-.3923969-.4859334-.1031183-.1496584-.2057802-.2897349-.2993167-.4393933-.0561219-.102662-.1213693-.2055521-.1774912-.3082141-.0374146-.0748292-.0748292-.1496584-.1213693-.2242594-.0561219-.1215974-.1122438-.2523203-.1683656-.3832714-.0187073-.0465401-.0374146-.0933083-.0561219-.1400766-.0652474-.1400766-.1213693-.2897349-.1587839-.4485188-.0091255-.0280609-.0187073-.0467682-.0278328-.0748292-.0561219-.1774912-.1122438-.364336-.1400766-.5511808-.0469964-.1964266-.084411-.392625-.1031183-.5888235v-.0093536c-.0278328-.1400766-.0374146-.2803813-.0465401-.4204578-.0095818-.0935365-.0095818-.2055521-.0095818-.3271495v-.0933083c0-3.756516 3.0465513-6.8121928 6.8030673-6.8121928s6.8121928 3.0556768 6.8121928 6.8121928v.0933083c0 .1309511-.0095818.233613-.0187073.3365032z" fill="#325b43"/><path d="m91.8139005 182.628314v-.0187073c-.0091255-.1307229-.0187073-.2523203-.0465401-.3736896-.0469964-.5046407-.1496584-.9905741-.3084422-1.4578001-.9253267-2.9436612-3.6255649-5.083365-6.8030673-5.2330234-.1213693-.0187073-.233613-.0187073-.3549823-.0187073h-.4019787l.0191636.4019787c.2427386 3.831117 3.3545373 6.8680866 7.1575933 7.0551595.0095818.0091255.0187073.0091255.0282891 0 .1117875.0184792.2240313.0184792.336275.0184792h.4015224v-.0184792zm-.7847938-.3830433c-.084411-.0093536-.1683656-.0093536-.2523203-.0280609-.1870729-.0093536-.3736896-.0374146-.5511808-.0841828-.0748292 0-.1496584-.0187073-.215362-.0374146-.1304948-.0280609-.2427386-.0561219-.3641078-.0933083-.084411-.0187073-.1683656-.0374146-.2431948-.0748292-.1117875-.0280609-.2149057-.0654755-.3175677-.1120156-.1122438-.0282891-.2149057-.0748292-.3175677-.1215974-.551637-.233613-1.0654032-.5420553-1.5326293-.9157449-.1496584-.1215974-.2993167-.2523203-.4393933-.3830433-.1587839-.1496584-.3079859-.2990886-.438937-.4485188-.1400766-.159012-.2710276-.3177959-.3923969-.4859334-.1031183-.1496584-.2057802-.2897349-.2993167-.4393933-.0561219-.102662-.1213693-.2055521-.1774912-.3082141-.0374146-.0748292-.0748292-.1496584-.1213693-.2242594-.0561219-.1215974-.1122438-.2523203-.1683656-.3832714-.0187073-.0465401-.0374146-.0933083-.0561219-.1400766-.0652474-.1496584-.1117875-.2990886-.1587839-.4485188-.0091255-.0280609-.0187073-.0467682-.0278328-.0748292-.0561219-.1774912-.102662-.364336-.1400766-.5511808-.0469964-.1964266-.0748292-.392625-.1031183-.5888235v-.0093536c3.2518753.2055521 5.9151552 2.70982 6.3171339 5.9432162v.0093536z" fill="#325b43"/><path d="m98.6260933 175.5263863c-.1213693 0-.2431948 0-.3549823.0187073-3.1866279.1496584-5.8777406 2.2893622-6.8121928 5.2330234-.1587839.4672261-.2619021.9531595-.3084422 1.4578001-.0278328.1213693-.0374146.2429667-.0465401.3736896v.0187073l-.0282891.3552105v.0184792h.4019787c.1213693 0 .2427386 0 .3641078-.0184792h.0095818c3.8030561-.1870729 6.9148548-3.2240425 7.1484678-7.0551595l.0187073-.4019787zm-.4393933.915973c-.0091255.0933083-.018251.1868448-.0465401.2801531-.0091255.0935365-.0278328.1870729-.0561219.2803813-.0187073.1120156-.0465401.2242594-.0839547.3365032-.0282891.1213693-.0652474.233613-.1122438.3456287-.0187073.0654755-.0374146.1215974-.0652474.1774912-.0469964.1309511-.0935365.2523203-.1587839.3739177-.0657037.1587839-.1496584.3175677-.233613.4765797-.0561219.102662-.1122438.2055521-.1779474.3082141-.0930802.1496584-.1961985.2897349-.2988604.4393933-.1213693.1681375-.2523203.3269214-.3923969.4859334-.1309511.1494302-.2806094.2988604-.4393933.4485188-.1304948.1307229-.2801531.2614458-.438937.3830433-.4672261.3736896-.9814485.6821318-1.5326293.9157449-.102662.0467682-.2057802.0933083-.3175677.1215974-.102662.0465401-.2057802.0839547-.318024.1120156-.0743729.0374146-.1587839.0561219-.2427386.0748292-.1213693.0371865-.233613.0652474-.3645641.0933083-.0652474.0187073-.1400766.0374146-.2149057.0374146-.1774912.0467682-.3641078.0748292-.5511808.0841828-.0839547.0187073-.1683656.0187073-.2523203.0280609v-.0093536c.4111042-3.2238144 3.0648024-5.7376641 6.3166776-5.9432162h.0095818c-.0095818.0467682-.0095818.1028901-.0282891.1496584z" fill="#325b43"/><path d="m101.7676843 193.3756985h-5.4412981c-2.8800321 0-5.2231552-2.3430475-5.2231552-5.2230795v-5.5234217h.7497207v5.5234217c0 2.4665887 2.0067701 4.4733588 4.4734345 4.4733588h5.4412981z" fill="#325b43"/><path d="m164.8571277 64.7813338c0 2.794607-1.425687 5.2583331-3.5908217 6.7018141-2.1652215-1.440009-3.5944673-3.9037351-3.5944673-6.7018141s1.4292458-5.2618051 3.5944673-6.7018141c2.1651347 1.443481 3.5908217 3.9073807 3.5908217 6.7018141z" fill="#325b43"/><path d="m161.086695 60.907835h.355554v10.575345h-.355554z" fill="#e2eee7"/><path d="m174.100549 80.9706853h-8.3091583c-2.7086362 0-4.9122556-2.2036195-4.9122556-4.9122556v-4.458938h.6980077v4.458938c0 2.3237106 1.8905373 4.2142479 4.2142479 4.2142479h8.3091583z" fill="#325b43"/><path d="m351.6600408 227.5254516c-4.1639902 3.0791421-9.6982468-.0531821-12.356969-3.6584704-1.1663-1.5746061-1.9583103-3.87187-3.3846141-5.1122395-1.992072-1.8545823-4.1922496.1726789-3.4515714 2.5171875.6463986 2.2424409 2.638623 4.0968278 4.5051712 5.4046987-1.7643168-1.4019972-4.7917615-2.018704-6.7677424-.6717309-2.7821141 1.8060798-.728182 4.5491761 1.3903069 5.7194842 1.8749234 1.1110284 3.9393043 1.1953652 6.0551698 1.233246-2.1751144.2066361-4.6963356.4473668-5.7252165 2.7201792-1.1051285 2.423465.6469535 4.2233189 2.6501967 5.3825857 1.1511006.6672205 2.4797347.965978 3.8015448 1.0100977 2.6718817.0904382 5.1874865-.8867171 7.3486858-2.4073848 1.8312274-1.2886806 3.6840522-2.7442177 4.8419745-4.6981474.9573586-1.7329141 1.9711664-4.8429254 1.0135643-6.7042067l.0794996-.7352994z" fill="#e2262b"/><path d="m380.2161633 247.9580784s-12.3565941 1.7214732-9.6854952-21.5425594c2.6710948-23.2641595-28.6938083-13.4387599-27.6505212 3.0706011 1.0434447 16.5093241 19.2581119 31.4223087 37.3360164 18.4719583z" fill="#fff"/><path d="m378.8230239 247.9367061c-3.152446-.3645116-10.3998569-3.1656214-8.2923558-21.521187 2.100039-18.2897372-16.8356603-16.1272238-24.5231759-6.3446515.2377688-.1448514.486783-.27178.7495459-.3769938 2.2033948-.881361 2.6898658 1.4252909 2.7696554 3.0943399.2410322-.9987693 1.2581759-1.8784359 2.0307094-2.4942679 1.7377493-1.3849963 4.309657-2.0576825 6.4790653-1.4469251 1.2566376.3539392 2.5527704 1.48086 3.0840496 2.6541883 1.0425297 2.3025093.8137673 5.3665407.5363222 7.8155066-.434428 3.8384517-1.1109507 7.6828464-.8114275 11.5639522.2027535 2.626162.896178 5.4274359 2.4267562 7.6114264.8641355 1.233249 2.6687361 2.3264207 4.0995561 2.703689 2.7171764.7146289 5.6711044-.3833445 8.134181-1.4791218 1.1166333-.4967502 2.2550573-1.0816011 3.3171182-1.7799552z" fill="#e2262b"/><path d="m378.2888295 248.3879857c-.1010785-.7935015-.528703-1.5497937-.8820508-2.2532774-.3858381-.768816-.8021878-1.5515041-.9960653-2.3953113-.1579936-.688108-.248344-1.5613212.2471825-2.1434164.5253584-.6177886 1.0633308.0853537 1.2652721.5977883.2735277.6943146.3786622 1.4777486.3990346 2.2198872.0208465.7607583-.0454484 1.5205838-.0343706 2.2816257-.0116149-.796358.2920133-1.6574969.5851356-2.3868041.1365957-.3404746.4090391-1.0288601.8544262-1.0705092.8954555-.0828462.304724 1.7225492.1919694 2.0659685-.2678999.8153504-.5132947 1.6355297-.7437667 2.4626559.3635007-.3124667.6248473-.7437629.9462688-1.09703.2652633-.2912951.5249302-.7175846.942387-.8091894.3183068-.0691973.5207595.1326165.5239208.4468648.0076545.6687711-.5968356 1.121717-1.0951553 1.4589809-.6311769.4277439-1.2693089.8612996-1.9689647 1.1709682l-.2352236-.5492015z" fill="#e2262b"/><path d="m347.4517415 229.9613679 5.1392964.2904302-2.8070246 4.7488045z" fill="#e86724"/><path d="m371.333487 241.0027636s-6.7098628-1.7030318-7.1968479-10.8380407l6.5223801 7.7881222s.0311238.9591256.6744677 3.0499185z" fill="#a72226"/><path d="m364.1421244 229.7013695c4.8655453 1.7740354 9.2864359-2.7968662 10.8158046-7.0074944.6726937-1.8400099.781713-4.2677287 1.798785-5.8610463 1.3853273-2.3426061 4.0699893-1.021465 4.0230088 1.4369494.0147391 2.3336912-1.3705892 4.6762656-2.7910797 6.4587351 1.2955832-1.8439927 4.0247337-3.2924883 6.300822-2.5603809 3.1798454.944772 1.9866031 4.157275.2857903 5.8796198-1.4832312 1.5963039-3.4395251 2.2619723-5.458174 2.8969871 2.1443849-.4180257 4.6308523-.9003972 6.2609417.9872368 1.74668 2.0120925.5750858 4.2343059-1.0175373 5.9133481-.9157745.9658228-2.1053538 1.6279763-3.3601847 2.0448704-2.5369421.8433039-5.2266614.6182666-7.7295322-.2285196-2.1209054-.7171173-4.3105179-1.5888742-5.9737698-3.1348966-1.4091715-1.3911454-3.5169339-4.7406012-3.1254093-6.7967408l-.0294653-.0286679z" fill="#e2262b"/><path d="m348.550837 227.970495c-.1502203-.0099575-.2870564-.1097046-.3363972-.2623691-.2610261-.8051506-.9204979-2.1027322-1.5786089-2.153788l-.00592-.0003924c-.424021-.0281065-.932436.499349-1.4334737 1.4873671-.0948445.1862157-.3228293.2617805-.5105251.1668378-.1869557-.0948936-.2617314-.3235693-.1668378-.5105251.6746557-1.3310415 1.3811036-1.953142 2.1595854-1.9015398l.0111.0007358c1.379715.1085502 2.1625549 2.4154712 2.2477033 2.6782809.0640596.1997218-.0452289.4132237-.2449997.4780234-.0470573.0147188-.0950061.0204596-.1416262.0173693z" fill="#808080"/><path d="m351.9503947 228.0390106c-.0325601-.0021583-.0648258-.0087565-.0968463-.0190548-.1991307-.0682002-.3052765-.2833471-.2378653-.4817868.4845438-1.4231713 1.1013195-2.1389196 1.8872614-2.1886486 1.3625698-.0925214 2.4748516 2.0883295 2.5959083 2.3364246.0923226.1882167.0140694.4156678-.1748383.5072014-.1873295.0901517-.4163588.0132803-.5072014-.1748383-.3724509-.761252-1.2373024-1.95427-1.8667647-1.9105203-.4254308.0268008-.8565659.6218121-1.2147132 1.6743025-.0571129.1664192-.2177.2680058-.3849404.2569202z" fill="#808080"/></svg>