<svg width="1203" height="234" viewBox="0 0 1203 234" fill="none" xmlns="http://www.w3.org/2000/svg">
<path fill-rule="evenodd" clip-rule="evenodd" d="M515.71 27.0176V95.0881H506V140.918H552.93V95.0881H543.22V27.0176H515.71ZM515.71 209.105V140.996H543.22V209.105H515.71Z" fill="#E5DEDE"/>
<path d="M511.631 101.022C511.631 100.583 511.987 100.228 512.425 100.228H548.381C548.82 100.228 549.175 100.583 549.175 101.022V136.978C549.175 137.417 548.82 137.772 548.381 137.772H512.425C511.987 137.772 511.631 137.417 511.631 136.978V101.022Z" fill="#DDA700"/>
<path d="M581.088 53.2982H654.298V184.702H581.088V53.2982Z" fill="#E5DEDE"/>
<path d="M586.719 59.7236C586.719 59.2852 587.075 58.9298 587.513 58.9298H651.627C652.066 58.9298 652.421 59.2852 652.421 59.7236V167.013C652.421 167.452 652.066 167.807 651.627 167.807H587.513C587.075 167.807 586.719 167.452 586.719 167.013V59.7236Z" fill="#C83F18"/>
<path d="M688.088 12H834.509V226H688.088V12Z" fill="#E5DEDE"/>
<path d="M695.597 24.0569C695.597 23.6186 695.952 23.2632 696.39 23.2632H826.206C826.645 23.2632 827 23.6186 827 24.0569V200.803C827 201.241 826.645 201.597 826.206 201.597H696.39C695.952 201.597 695.597 201.241 695.597 200.803V24.0569Z" fill="#C61440"/>
<path d="M864.544 34.5264H1202.44V199.719H864.544V34.5264Z" fill="#E5DEDE"/>
<path d="M877.684 48.4604C877.684 48.022 878.039 47.6666 878.478 47.6666H1192.26C1192.7 47.6666 1193.05 48.022 1193.05 48.4604V189.54C1193.05 189.978 1192.7 190.333 1192.26 190.333H878.478C878.039 190.333 877.684 189.978 877.684 189.54V48.4604Z" fill="#711F56"/>
<path fill-rule="evenodd" clip-rule="evenodd" d="M268.211 220.889C268.211 219.04 268.91 217.191 270.307 215.342C271.704 213.492 273.322 212.568 275.162 212.568C276.184 212.568 277.325 212.948 278.586 213.707C279.847 214.467 281.005 215.309 282.061 216.233C283.118 217.158 284.6 218 286.508 218.759C288.416 219.519 290.426 219.899 292.538 219.899C295.196 219.899 297.513 219.354 299.489 218.264C301.465 217.174 302.453 215.54 302.453 213.36C302.453 211.181 301.346 209.266 299.131 207.615C296.916 205.964 294.225 204.461 291.056 203.107C287.888 201.753 284.702 200.235 281.499 198.55C278.296 196.866 275.588 194.472 273.373 191.368C271.159 188.264 270.051 184.566 270.051 180.273C270.051 173.405 272.607 168.27 277.717 164.869C282.828 161.468 288.995 159.767 296.218 159.767C297.99 159.767 299.847 159.866 301.789 160.065C303.731 160.263 305.911 160.642 308.33 161.204C310.749 161.765 312.726 162.673 314.259 163.928C315.792 165.183 316.559 166.702 316.559 168.485C316.559 170.202 315.996 171.985 314.872 173.834C313.748 175.683 312.198 176.608 310.221 176.608C309.404 176.608 307.666 175.981 305.008 174.726C302.351 173.471 299.421 172.844 296.218 172.844C292.811 172.844 290.256 173.422 288.552 174.577C286.848 175.733 285.997 177.136 285.997 178.787C285.997 180.306 286.797 181.693 288.399 182.948C290 184.203 291.993 185.276 294.378 186.168C296.763 187.059 299.37 188.215 302.198 189.635C305.025 191.055 307.632 192.607 310.017 194.291C312.402 195.975 314.395 198.336 315.996 201.374C317.598 204.412 318.398 207.879 318.398 211.775C318.398 218.71 316.048 224.109 311.346 227.972C306.644 231.836 300.477 233.767 292.845 233.767C286.235 233.767 280.477 232.447 275.571 229.805C270.664 227.163 268.211 224.191 268.211 220.889ZM0 165.117V228.121C0 229.376 0.630314 230.465 1.89096 231.39C3.15161 232.314 4.83813 232.777 6.95056 232.777H29.6421C35.9113 232.777 40.9027 231.076 44.6165 227.675C48.3303 224.274 50.1872 218.875 50.1872 211.478V209.398C50.1872 204.775 49.3013 201.291 47.5296 198.947C45.7579 196.602 43.1344 194.803 39.6591 193.548C45.4513 191.104 48.3473 185.92 48.3473 177.995C48.3473 166.239 41.5331 160.362 27.9045 160.362H6.95056C5.04256 160.362 3.40715 160.774 2.04428 161.6C0.681421 162.426 0 163.598 0 165.117ZM26.0633 219.304H15.8419V199.492H26.0633C31.5148 199.492 34.2405 202.529 34.2405 208.605V210.19C34.2405 216.266 31.5148 219.304 26.0633 219.304ZM15.8419 187.604H26.5744C28.4143 187.604 29.8452 186.927 30.8674 185.573C31.8895 184.219 32.4006 182.618 32.4006 180.769C32.4006 178.919 31.8895 177.301 30.8674 175.915C29.8452 174.528 28.4143 173.834 26.5744 173.834H15.8419V187.604ZM58.467 165.018V228.022C58.467 229.541 59.2506 230.713 60.8179 231.538C62.3852 232.364 64.2591 232.777 66.4397 232.777C68.6203 232.777 70.4942 232.364 72.0615 231.538C73.6288 230.713 74.4124 229.541 74.4124 228.022V204.148H81.1585L95.1619 230.498C96.184 232.413 97.8876 233.371 100.273 233.371C102.658 233.371 104.923 232.513 107.07 230.795C109.216 229.078 110.29 227.262 110.29 225.347C110.29 224.621 110.119 224.026 109.778 223.564L97.3084 201.671C105.554 198.567 109.676 191.864 109.676 181.561C109.676 167.428 101.295 160.362 84.5316 160.362H63.3733C61.9423 160.362 60.7668 160.824 59.8469 161.749C58.927 162.673 58.467 163.763 58.467 165.018ZM74.4128 192.26H84.532C87.5303 192.26 89.813 191.55 91.3803 190.13C92.9476 188.71 93.7313 186.349 93.7313 183.047C93.7313 179.745 92.9476 177.384 91.3803 175.964C89.813 174.544 87.5303 173.834 84.532 173.834H74.4128V192.26ZM117.343 183.741V209.992C117.343 218.049 119.626 223.96 124.191 227.724C128.757 231.489 134.822 233.371 142.385 233.371C150.017 233.371 156.116 231.489 160.682 227.724C165.247 223.96 167.53 218.049 167.53 209.992V183.741C167.53 175.683 165.247 169.773 160.682 166.008C156.116 162.244 150.017 160.362 142.385 160.362C134.822 160.362 128.757 162.244 124.191 166.008C119.626 169.773 117.343 175.683 117.343 183.741ZM133.288 209.992C133.288 216.596 136.321 219.898 142.386 219.898C148.518 219.898 151.585 216.596 151.585 209.992V183.741C151.585 177.136 148.518 173.834 142.386 173.834C136.321 173.834 133.288 177.136 133.288 183.741V209.992ZM175.86 162.244C173.645 163.499 172.538 164.919 172.538 166.504C172.538 166.966 172.606 167.395 172.742 167.791L193.083 228.22C193.628 229.871 194.889 231.142 196.865 232.034C198.841 232.925 201.09 233.371 203.611 233.371C206.132 233.371 208.381 232.925 210.357 232.034C212.333 231.142 213.526 229.871 213.935 228.22L219.25 204.742L224.565 228.22C224.974 229.871 226.166 231.142 228.142 232.034C230.118 232.925 232.367 233.371 234.888 233.371C237.41 233.371 239.641 232.925 241.584 232.034C243.526 231.142 244.803 229.871 245.417 228.22L265.757 167.791C265.893 167.395 265.962 166.966 265.962 166.504C265.962 164.919 264.854 163.499 262.64 162.244C260.425 160.989 258.091 160.362 255.638 160.362C252.776 160.362 251.072 161.319 250.527 163.235L234.991 214.054L226.916 180.571C226.643 179.316 225.757 178.325 224.258 177.599C222.759 176.872 221.09 176.509 219.25 176.509C217.41 176.509 215.74 176.872 214.241 177.599C212.742 178.325 211.856 179.316 211.584 180.571L203.509 214.054L187.972 163.235C187.427 161.319 185.723 160.362 182.861 160.362C180.408 160.362 178.074 160.989 175.86 162.244ZM326.267 165.117V228.022C326.267 229.541 326.948 230.713 328.311 231.538C329.674 232.364 331.309 232.777 333.217 232.777H369.605C371.173 232.777 372.365 232.116 373.183 230.795C374.001 229.475 374.41 227.923 374.41 226.139C374.41 224.224 373.984 222.606 373.132 221.285C372.28 219.965 371.105 219.304 369.605 219.304H342.212V202.463H357.544C359.112 202.463 360.304 201.869 361.122 200.68C361.939 199.492 362.348 198.138 362.348 196.619C362.348 194.968 361.922 193.548 361.071 192.359C360.219 191.17 359.043 190.576 357.544 190.576H342.212V173.834H369.605C371.105 173.834 372.28 173.174 373.132 171.853C373.984 170.532 374.41 168.914 374.41 166.999C374.41 165.216 374.001 163.664 373.183 162.343C372.365 161.022 371.173 160.362 369.605 160.362H333.217C331.309 160.362 329.674 160.774 328.311 161.6C326.948 162.426 326.267 163.598 326.267 165.117ZM381.361 228.022V165.018C381.361 163.763 381.821 162.673 382.741 161.749C383.661 160.824 384.836 160.362 386.267 160.362H407.426C424.189 160.362 432.57 167.428 432.57 181.561C432.57 191.864 428.448 198.567 420.202 201.671L432.673 223.564C433.013 224.026 433.184 224.621 433.184 225.347C433.184 227.262 432.11 229.078 429.964 230.795C427.817 232.513 425.552 233.371 423.167 233.371C420.782 233.371 419.078 232.413 418.056 230.498L404.053 204.148H397.306V228.022C397.306 229.541 396.523 230.713 394.956 231.538C393.388 232.364 391.514 232.777 389.334 232.777C387.153 232.777 385.279 232.364 383.712 231.538C382.145 230.713 381.361 229.541 381.361 228.022ZM407.426 192.26H397.307V173.834H407.426C410.424 173.834 412.707 174.544 414.274 175.964C415.841 177.384 416.625 179.745 416.625 183.047C416.625 186.349 415.841 188.71 414.274 190.13C412.707 191.55 410.424 192.26 407.426 192.26Z" fill="#711F56"/>
<path fill-rule="evenodd" clip-rule="evenodd" d="M38.2076 72.5872C36.3683 75.0025 35.4487 77.4177 35.4487 79.833C35.4487 84.146 38.6785 88.0276 45.1383 91.478C51.598 94.9284 59.1791 96.6536 67.8818 96.6536C77.9302 96.6536 86.0496 94.1305 92.2402 89.0843C98.4307 84.0381 101.526 76.9865 101.526 67.9292C101.526 62.8399 100.472 58.3113 98.3634 54.3434C96.255 50.3754 93.6308 47.2917 90.4907 45.0921C87.3505 42.8924 83.9189 40.8654 80.1955 39.0108C76.4722 37.1562 73.0406 35.6467 69.9004 34.4822C66.7603 33.3177 64.136 31.916 62.0277 30.277C59.9193 28.6381 58.8651 26.8267 58.8651 24.8427C58.8651 22.6862 59.9866 20.8532 62.2295 19.3437C64.4725 17.8341 67.8369 17.0793 72.3228 17.0793C76.5396 17.0793 80.3974 17.8988 83.8964 19.5377C87.3954 21.1767 89.6832 21.9961 90.7598 21.9961C93.3617 21.9961 95.4027 20.7885 96.8831 18.3732C98.3634 15.958 99.1036 13.629 99.1036 11.3862C99.1036 9.05722 98.0943 7.07327 96.0756 5.43434C94.0569 3.7954 91.4552 2.60935 88.2702 1.87614C85.0852 1.14293 82.2142 0.646946 79.6572 0.388167C77.1003 0.129388 74.6555 0 72.3228 0C62.8126 0 54.6933 2.22116 47.9644 6.66353C41.2355 11.1059 37.8711 17.8125 37.8711 26.7835C37.8711 32.3904 39.329 37.2209 42.2449 41.2751C45.1607 45.3293 48.727 48.4562 52.9437 50.6558C57.1605 52.8554 61.3548 54.8394 65.5267 56.6077C69.6986 58.376 73.2424 60.3384 76.1582 62.4949C79.0741 64.6514 80.532 67.1529 80.532 69.9994C80.532 72.846 79.2311 74.9809 76.6293 76.4042C74.0274 77.8275 70.977 78.5391 67.478 78.5391C64.6968 78.5391 62.0501 78.0431 59.538 77.0511C57.0259 76.0592 55.0745 74.9594 53.6839 73.7517C52.2933 72.5441 50.7681 71.4443 49.1083 70.4523C47.4485 69.4603 45.9457 68.9643 44.6 68.9643C42.1776 68.9643 40.0468 70.1719 38.2076 72.5872ZM111.286 2.6638C110.204 4.43967 109.663 6.54037 109.663 8.96595C109.663 11.5648 110.226 13.7521 111.354 15.528C112.481 17.3039 114.037 18.1918 116.021 18.1918H134.69V88.7499C134.69 90.7424 135.728 92.28 137.802 93.3629C139.876 94.4457 142.356 94.9871 145.243 94.9871C148.129 94.9871 150.609 94.4457 152.683 93.3629C154.758 92.28 155.795 90.7424 155.795 88.7499V18.1918H174.464C176.448 18.1918 178.004 17.3039 179.132 15.528C180.259 13.7521 180.823 11.5648 180.823 8.96595C180.823 6.54037 180.282 4.43967 179.199 2.6638C178.117 0.887924 176.539 0 174.464 0H116.021C113.947 0 112.368 0.887924 111.286 2.6638ZM178.457 86.7386C178.457 86.4808 178.546 86.0083 178.725 85.3209L203.675 6.70194C204.391 4.55387 206.023 2.89988 208.572 1.73993C211.12 0.57997 214.049 0 217.358 0C220.667 0 223.596 0.57997 226.145 1.73993C228.693 2.89988 230.325 4.55387 231.041 6.70194L256.126 85.3209C256.304 86.0083 256.394 86.4808 256.394 86.7386C256.394 88.9726 254.941 90.9058 252.034 92.5383C249.128 94.1709 246.11 94.9871 242.979 94.9871C239.134 94.9871 236.854 93.7413 236.138 91.2495L231.577 75.1391H203.273L198.712 91.2495C197.997 93.7413 195.716 94.9871 191.871 94.9871C188.741 94.9871 185.723 94.1709 182.816 92.5383C179.91 90.9058 178.457 88.9726 178.457 86.7386ZM218.103 24.9966L228.269 59.9918H207.937L218.103 24.9966ZM253.346 8.96595C253.346 6.54037 253.887 4.43967 254.969 2.6638C256.051 0.887924 257.63 0 259.704 0H318.147C320.222 0 321.8 0.887924 322.882 2.6638C323.965 4.43967 324.506 6.54037 324.506 8.96595C324.506 11.5648 323.942 13.7521 322.815 15.528C321.687 17.3039 320.132 18.1918 318.147 18.1918H299.478V88.7499C299.478 90.7424 298.441 92.28 296.367 93.3629C294.292 94.4457 291.812 94.9871 288.926 94.9871C286.04 94.9871 283.559 94.4457 281.485 93.3629C279.411 92.28 278.374 90.7424 278.374 88.7499V18.1918H259.704C257.72 18.1918 256.164 17.3039 255.037 15.528C253.909 13.7521 253.346 11.5648 253.346 8.96595ZM337.39 6.23719V88.7499C337.39 90.7424 338.301 92.28 340.124 93.3629C341.947 94.4457 344.134 94.9871 346.685 94.9871H395.348C397.444 94.9871 399.039 94.1209 400.133 92.3883C401.226 90.6557 401.773 88.62 401.773 86.2811C401.773 83.7688 401.203 81.6465 400.064 79.9139C398.925 78.1814 397.353 77.3151 395.348 77.3151H358.714V55.2251H379.219C381.314 55.2251 382.909 54.4454 384.003 52.8861C385.096 51.3268 385.643 49.551 385.643 47.5585C385.643 45.3928 385.074 43.5304 383.934 41.9711C382.795 40.4118 381.223 39.6321 379.219 39.6321H358.714V17.672H395.348C397.353 17.672 398.925 16.8058 400.064 15.0732C401.203 13.3406 401.773 11.2183 401.773 8.70607C401.773 6.36712 401.226 4.33139 400.133 2.59883C399.039 0.866267 397.444 0 395.348 0H346.685C344.134 0 341.947 0.541417 340.124 1.62427C338.301 2.70712 337.39 4.24474 337.39 6.23719Z" fill="#DDA700"/>
<path fill-rule="evenodd" clip-rule="evenodd" d="M146.373 136.354V126.646C146.373 123.666 147.206 121.48 148.871 120.088C150.536 118.696 152.748 118 155.507 118C158.291 118 160.515 118.696 162.181 120.088C163.846 121.48 164.678 123.666 164.678 126.646V136.354C164.678 139.334 163.846 141.52 162.181 142.912C160.515 144.304 158.291 145 155.507 145C152.748 145 150.536 144.304 148.871 142.912C147.206 141.52 146.373 139.334 146.373 136.354ZM152.191 136.354C152.191 138.797 153.297 140.018 155.509 140.018C157.746 140.018 158.864 138.797 158.864 136.354V126.646C158.864 124.204 157.746 122.982 155.509 122.982C153.297 122.982 152.191 124.204 152.191 126.646V136.354ZM175.342 143.022V119.758C175.342 119.197 175.591 118.763 176.088 118.458C176.585 118.153 177.181 118 177.877 118H190.814C191.386 118 191.821 118.244 192.119 118.733C192.417 119.221 192.566 119.795 192.566 120.455C192.566 121.163 192.411 121.761 192.1 122.25C191.79 122.738 191.361 122.982 190.814 122.982H181.158V129.174H186.788C187.334 129.174 187.763 129.393 188.074 129.833C188.385 130.273 188.54 130.798 188.54 131.408C188.54 131.97 188.391 132.471 188.092 132.91C187.794 133.35 187.359 133.57 186.788 133.57H181.158V143.022C181.158 143.583 180.872 144.017 180.301 144.322C179.729 144.628 179.045 144.78 178.25 144.78C177.455 144.78 176.771 144.628 176.2 144.322C175.628 144.017 175.342 143.583 175.342 143.022ZM214.155 120.528C214.155 119.844 214.304 119.252 214.602 118.751C214.901 118.25 215.336 118 215.907 118H232.013C232.585 118 233.02 118.25 233.318 118.751C233.616 119.252 233.765 119.844 233.765 120.528C233.765 121.261 233.61 121.877 233.299 122.378C232.989 122.879 232.56 123.129 232.013 123.129H226.868V143.022C226.868 143.583 226.582 144.017 226.011 144.322C225.439 144.628 224.756 144.78 223.96 144.78C223.165 144.78 222.481 144.628 221.91 144.322C221.338 144.017 221.052 143.583 221.052 143.022V123.129H215.907C215.361 123.129 214.932 122.879 214.621 122.378C214.31 121.877 214.155 121.261 214.155 120.528ZM243.014 143.022V119.722C243.014 119.16 243.3 118.733 243.872 118.44C244.443 118.147 245.127 118 245.922 118C246.717 118 247.401 118.147 247.973 118.44C248.544 118.733 248.83 119.16 248.83 119.722V128.697H256.249V119.722C256.249 119.16 256.535 118.733 257.107 118.44C257.678 118.147 258.362 118 259.157 118C259.953 118 260.636 118.147 261.208 118.44C261.779 118.733 262.065 119.16 262.065 119.722V143.022C262.065 143.583 261.779 144.017 261.208 144.322C260.636 144.628 259.953 144.78 259.157 144.78C258.362 144.78 257.678 144.628 257.107 144.322C256.535 144.017 256.249 143.583 256.249 143.022V133.094H248.83V143.022C248.83 143.583 248.544 144.017 247.973 144.322C247.401 144.628 246.717 144.78 245.922 144.78C245.127 144.78 244.443 144.628 243.872 144.322C243.3 144.017 243.014 143.583 243.014 143.022ZM273.026 143.022V119.758C273.026 119.197 273.275 118.763 273.772 118.458C274.269 118.153 274.865 118 275.561 118H288.834C289.405 118 289.84 118.244 290.139 118.733C290.437 119.221 290.586 119.795 290.586 120.455C290.586 121.163 290.431 121.761 290.12 122.25C289.809 122.738 289.38 122.982 288.834 122.982H278.842V129.174H284.434C284.981 129.174 285.41 129.393 285.721 129.833C286.031 130.273 286.187 130.798 286.187 131.408C286.187 131.97 286.038 132.471 285.739 132.91C285.441 133.35 285.006 133.57 284.434 133.57H278.842V139.798H288.834C289.38 139.798 289.809 140.042 290.12 140.531C290.431 141.019 290.586 141.617 290.586 142.326C290.586 142.985 290.437 143.559 290.139 144.047C289.84 144.536 289.405 144.78 288.834 144.78H275.561C274.865 144.78 274.269 144.628 273.772 144.322C273.275 144.017 273.026 143.583 273.026 143.022Z" fill="#C61440"/>
</svg>
