<svg xmlns="http://www.w3.org/2000/svg" xml:space="preserve" style="enable-background:new 0 0 1600 900" viewBox="0 0 1600 900"><style>.st0{fill:#86ce72}.st1{fill:#c8edbc}.st2{fill:#141916}.st3{opacity:.2}.st6{fill:#a1dd8e}.st7{fill:#36405b}.st10{fill:#677084}</style><path id="Layer_1" d="M0 0h1600v900H0z" class="st0"/><g id="Layer_2"><path d="m-141.068-111.79 383.543-88.898L359.19 302.876l-383.543 88.898z" class="st1"/><path d="M-24.4 395.8c-.7 0-1.5-.2-2.1-.6-.9-.6-1.5-1.5-1.8-2.5L-145-110.9c-.5-2.2.8-4.3 3-4.8l383.5-88.9c1-.2 2.1-.1 3 .5s1.5 1.5 1.8 2.5L363 302c.5 2.2-.8 4.3-3 4.8l-383.5 88.9c-.3 0-.6.1-.9.1zm-111.9-504.6L-21.4 387l375.7-87.1-114.9-495.8-375.7 87.1z" class="st2"/><path d="m1251.39 573.512 312.05 242.495-318.458 409.802-312.05-242.495z" class="st1"/><path d="M1245.2 1229.8c-.9 0-1.7-.3-2.5-.8L930.6 986.5c-1.7-1.4-2.1-3.9-.7-5.6L1248.4 571c.7-.8 1.6-1.4 2.7-1.5 1.1-.1 2.1.2 3 .8l312.1 242.5c.8.7 1.4 1.6 1.5 2.7s-.2 2.1-.8 3l-318.4 409.8c-.9 1-2.1 1.5-3.3 1.5zM938.7 982.6l305.8 237.6L1558 816.7l-305.8-237.6-313.5 403.5z" class="st2"/><path d="m-200.082 531.603 396.046 50.18-65.892 520.058-396.046-50.18z" class="st1"/><path d="M130.1 1105.8h-.5l-396.1-50.2c-1.1-.1-2-.7-2.7-1.5-.6-.8-.9-1.9-.8-3l65.9-520.1c.3-2.2 2.3-3.7 4.5-3.5l396.1 50.2c1.1.1 2 .7 2.7 1.5.6.8.9 1.9.8 3l-65.9 520.1c-.3 2.1-2 3.5-4 3.5zm-391.6-57.6 388.1 49.2 64.9-512.1-388.1-49.2-64.9 512.1z" class="st2"/><path d="M1212.003-311.427 1577.09-462.71l198.673 479.453-365.086 151.282z" class="st1"/><path d="M1410.7 172c-.5 0-1-.1-1.5-.3-1-.4-1.8-1.2-2.2-2.2l-198.7-479.4c-.4-1-.4-2.1 0-3.1s1.2-1.8 2.2-2.2l365.1-151.3c2-.8 4.4.1 5.2 2.2l198.7 479.4c.8 2-.1 4.4-2.2 5.2l-365.1 151.3c-.5.3-1 .4-1.5.4zm-193.5-481.3 195.6 472.1 357.7-148.3L1575-457.6l-357.8 148.3z" class="st2"/><path d="m1154.565 431.781 360.383 162.15-212.946 473.277-360.383-162.15z" class="st1"/><path d="M1302.1 1071.3c-.6 0-1.1-.1-1.6-.4L940 908.8c-2-.9-2.9-3.3-2-5.3l213-473.3c.9-2 3.3-2.9 5.3-2l360.4 162.2c2 .9 2.9 3.3 2 5.3l-213 473.3c-.4 1-1.2 1.7-2.2 2.1-.4.1-.9.2-1.4.2zM947 903.1l353.1 158.9 209.7-466-353.1-158.9-209.7 466z" class="st2"/><g class="st3"><path d="m245.24 261.34 443.067-28.838 37.866 581.776-443.067 28.837z" class="st2"/><path d="M283.1 848.1c-1.2 0-2.4-.4-3.3-1.2-1-.9-1.6-2.1-1.7-3.4l-37.9-581.8c-.2-2.8 1.9-5.1 4.7-5.3L688 227.5c1.3-.1 2.6.4 3.6 1.2 1 .9 1.6 2.1 1.7 3.4l37.9 581.8c.2 2.8-1.9 5.1-4.7 5.3L283.4 848c0 .1-.2.1-.3.1zM250.6 266l37.2 571.8 433.1-28.2-37.2-571.8L250.6 266z" class="st2"/></g><path d="m261.24 246.34 443.067-28.838 37.866 581.775-443.067 28.838z" class="st1"/><path d="M299.1 833.1c-1.2 0-2.4-.4-3.3-1.2-1-.9-1.6-2.1-1.7-3.4l-37.9-581.8c-.2-2.8 1.9-5.1 4.7-5.3L704 212.5c1.3-.1 2.6.4 3.6 1.2s1.6 2.1 1.7 3.4l37.9 581.8c.2 2.8-1.9 5.1-4.7 5.3L299.4 833c0 .1-.2.1-.3.1zM266.6 251l37.2 571.8 433.1-28.2-37.2-571.8L266.6 251z" class="st2"/><path d="M295 206.4h444v583H295z" style="fill:#d8f4ce" transform="rotate(-5.456 517.016 497.882) scale(1.00003)"/><path d="M323.7 814.2c-2.5 0-4.7-1.9-5-4.5l-55.4-580.4c-.3-2.7 1.8-5.2 4.5-5.5l442-42.2c1.3-.1 2.6.3 3.7 1.1 1 .8 1.7 2.1 1.8 3.4l55.4 580.4c.1 1.3-.3 2.6-1.1 3.7s-2.1 1.7-3.4 1.8l-442 42.2h-.5zm-50-580.9 54.5 570.4 432-41.3L705.8 192l-432.1 41.3z" class="st2"/><path d="m590.9 228.1-202.1 19.3-4.4-46c-1.4-14.7 9.4-27.8 24.1-29.2L557.3 158c14.7-1.4 27.8 9.4 29.2 24.1l4.4 46z" class="st2"/><path d="M388.8 252.4c-2.5 0-4.7-1.9-5-4.5l-4.4-46c-.8-8.5 1.7-16.7 7.1-23.3 5.4-6.5 13-10.6 21.5-11.4L556.8 153c17.5-1.7 33 11.2 34.7 28.6l4.4 46c.1 1.3-.3 2.6-1.1 3.7-.8 1-2.1 1.7-3.4 1.8l-202.1 19.3h-.5zm171-89.5c-.7 0-1.4 0-2.1.1L409 177.2c-12 1.1-20.8 11.8-19.6 23.8l3.9 41 192.1-18.4-3.9-41c-.6-5.8-3.3-11-7.8-14.7-4-3.3-8.8-5-13.9-5z" class="st2"/><path d="m516.3 158.8-52.7 18.8-19.6-55c-4.6-12.8 2.1-26.9 14.9-31.5l6.3-2.3c12.8-4.6 26.9 2.1 31.5 14.9l19.6 55.1z" class="st2"/><path d="M463.6 182.6c-.7 0-1.5-.2-2.1-.5-1.2-.6-2.1-1.6-2.6-2.8l-19.6-55c-2.7-7.5-2.3-15.5 1.1-22.7 3.4-7.2 9.4-12.6 16.8-15.2l6.3-2.3c7.5-2.7 15.5-2.3 22.7 1.1 7.2 3.4 12.6 9.4 15.2 16.8l19.6 55c.4 1.2.4 2.6-.2 3.8-.6 1.2-1.6 2.1-2.8 2.6l-52.7 18.8c-.6.3-1.2.4-1.7.4zm9.9-90.1c-2.2 0-4.5.4-6.6 1.2l-6.3 2.3c-4.9 1.8-8.9 5.3-11.1 10.1-2.2 4.7-2.5 10.1-.8 15l17.9 50.3 43.3-15.4-17.9-50.5c-1.8-4.9-5.3-8.9-10.1-11.1-2.7-1.3-5.5-1.9-8.4-1.9z" class="st2"/><path d="M309.5 188.6h444v583h-444z" style="fill:#e8fce0" transform="rotate(-6.586 531.42 480.181)"/><path d="M344.4 800.1c-2.5 0-4.7-1.9-5-4.4l-66.8-579.2c-.2-1.3.2-2.6 1.1-3.7s2-1.7 3.3-1.9l441.1-50.8c2.7-.3 5.2 1.7 5.5 4.4l66.8 579.2c.2 1.3-.2 2.6-1.1 3.7s-2 1.7-3.3 1.9l-441 50.8h-.6zm-61.2-579.8 65.6 569.2 431.1-49.7-65.6-569.2-431.1 49.7z" class="st2"/><path d="m604 222.6-201.7 23.2-5.3-45.9c-1.7-14.7 8.8-28 23.5-29.7L569 153.1c14.7-1.7 28 8.8 29.7 23.5l5.3 46z" class="st6"/><path d="M402.4 250.8c-2.5 0-4.7-1.9-5-4.4l-5.3-45.9c-1-8.4 1.4-16.7 6.7-23.4 5.3-6.7 12.8-10.8 21.3-11.8l148.5-17.1c8.4-1 16.7 1.4 23.4 6.7 6.7 5.3 10.8 12.8 11.8 21.3L609 222c.2 1.3-.2 2.6-1.1 3.7s-2 1.7-3.3 1.9l-201.7 23.2h-.5zM572.2 158c-.8 0-1.7 0-2.5.1l-148.5 17.1c-11.9 1.4-20.5 12.2-19.1 24.1l4.7 40.9 191.7-22.1-4.7-40.9c-.7-5.8-3.5-11-8.1-14.6-3.9-3-8.6-4.6-13.5-4.6z" class="st2"/><path d="m522.7 158.5-55.6 6.4-6.7-58c-1.6-13.5 8.1-25.7 21.7-27.3l6.7-.8c13.5-1.6 25.7 8.1 27.3 21.7l6.6 58z" class="st6"/><path d="M467 169.9c-2.5 0-4.7-1.9-5-4.4l-6.7-58c-1.9-16.2 9.8-31 26.1-32.8l6.7-.8c16.2-1.9 31 9.8 32.8 26.1l6.7 58c.2 1.3-.2 2.6-1.1 3.7s-2 1.7-3.3 1.9l-55.6 6.4c-.2-.1-.4-.1-.6-.1zm24.5-86.2c-.7 0-1.5 0-2.3.1l-6.7.8c-10.8 1.2-18.5 11-17.3 21.8l6.1 53 45.7-5.3-6.1-53c-1-10-9.5-17.4-19.4-17.4z" class="st2"/><circle cx="489.1" cy="107" r="11" class="st2"/><path d="M400.1 230c-2 0-3.7-1.5-4-3.5-.3-2.2 1.3-4.2 3.5-4.4l201.7-23.2c2.2-.3 4.2 1.3 4.4 3.5.3 2.2-1.3 4.2-3.5 4.4L400.5 230h-.4z" class="st2"/><g class="st3"><path d="m1274.5 757.6-101.2-71.7 4.6-6.5c2.2-3.2 6.6-3.9 9.8-1.7l89.8 63.6c3.2 2.2 3.9 6.6 1.7 9.8l-4.7 6.5z" class="st2"/><path d="M1274.5 761.6c-.8 0-1.6-.3-2.3-.7L1171 689.2c-1.8-1.3-2.2-3.8-1-5.6l4.6-6.5c1.7-2.4 4.2-4 7.1-4.5 2.9-.5 5.8.2 8.2 1.9l89.8 63.6c5 3.5 6.1 10.4 2.6 15.3l-4.6 6.5c-.6.9-1.5 1.5-2.6 1.6-.1.1-.3.1-.6.1zm-95.6-76.6 94.7 67 2.3-3.3c.5-.7.6-1.4.5-2.2-.1-.8-.6-1.5-1.2-1.9l-89.8-63.6c-.7-.5-1.4-.6-2.2-.5s-1.5.6-1.9 1.2l-2.4 3.3z" class="st2"/><path d="m1265.3 779.2-388.4-275 15-21.2 388.4 275c4.1 2.9 5 8.5 2.1 12.5l-4.6 6.5c-2.8 4.2-8.4 5.1-12.5 2.2z" class="st2"/><path d="M1270.5 784.9c-2.6 0-5.2-.8-7.5-2.4L874.5 507.4c-.9-.6-1.5-1.5-1.6-2.6-.2-1 .1-2.1.7-3l15-21.2c1.3-1.8 3.8-2.2 5.6-1l388.5 275.1c5.8 4.1 7.2 12.3 3.1 18.1l-4.6 6.5c-2.6 3.7-6.6 5.6-10.7 5.6zm-2.9-8.9c2.3 1.6 5.4 1.1 7-1.2l4.6-6.5c1.6-2.2 1.1-5.4-1.2-7L892.8 488.5l-10.4 14.7L1267.6 776z" class="st2"/><path d="M891.9 482.9 842.6 464l34.3 40.2z" class="st2"/><path d="M876.9 508.2c-1.2 0-2.3-.5-3-1.4l-34.3-40.2c-1.2-1.4-1.3-3.4-.2-4.9 1.1-1.5 3-2.1 4.7-1.4l49.3 19c1.2.4 2 1.4 2.4 2.6s.1 2.5-.6 3.5l-15 21.2c-.7 1-1.9 1.6-3.1 1.7-.1-.1-.2-.1-.2-.1zm-21-34.8 20.7 24.3 9.1-12.8-29.8-11.5zM1265.3 779.2l-62-43.9 15-21.2 62 43.9c4.1 2.9 5 8.5 2.1 12.5l-4.6 6.5c-2.8 4.2-8.4 5.1-12.5 2.2z" class="st2"/><path d="M1270.5 784.9c-2.6 0-5.2-.8-7.5-2.4l-62-43.9c-1.8-1.3-2.2-3.8-1-5.6l15-21.2c.6-.9 1.5-1.5 2.6-1.6 1-.2 2.1.1 3 .7l62 43.9c5.8 4.1 7.2 12.3 3.1 18.1l-4.6 6.5c-2.5 3.6-6.5 5.5-10.6 5.5zm-2.9-8.9c2.2 1.6 5.4 1.1 7-1.2l4.6-6.5c1.6-2.2 1.1-5.4-1.2-7l-58.8-41.6-10.4 14.7 58.8 41.6z" class="st2"/></g><path d="m1277.6 738.6-101.2-71.7 4.6-6.5c2.2-3.2 6.6-3.9 9.8-1.7l89.8 63.6c3.2 2.2 3.9 6.6 1.7 9.8l-4.7 6.5z" class="st7"/><path d="M1277.6 742.6c-.8 0-1.6-.2-2.3-.7l-101.2-71.7c-.9-.6-1.5-1.5-1.6-2.6-.2-1 .1-2.1.7-3l4.6-6.5c3.5-4.9 10.4-6.1 15.3-2.6l89.8 63.6c5 3.5 6.1 10.4 2.6 15.3l-4.6 6.5c-.8 1.1-2.1 1.7-3.3 1.7zM1182 666l94.7 67 2.3-3.3c1-1.4.6-3.2-.7-4.2l-89.8-63.6c-1.3-1-3.2-.6-4.2.7l-2.3 3.4z" class="st2"/><path d="M1268.4 760.2 879.9 485.1l15-21.2L1283.4 739c4.1 2.9 5 8.5 2.1 12.5l-4.6 6.5c-2.9 4.2-8.5 5.1-12.5 2.2z" style="fill:#7fcfef"/><path d="M1273.6 765.9c-2.6 0-5.2-.8-7.5-2.4L877.6 488.4c-1.8-1.3-2.2-3.8-1-5.6l15-21.2c.6-.9 1.5-1.5 2.6-1.6 1-.2 2.1.1 3 .7l388.5 275.1c2.8 2 4.7 5 5.3 8.4s-.2 6.9-2.2 9.7l-4.6 6.5c-2.5 3.6-6.6 5.5-10.6 5.5zm-2.9-8.9c2.2 1.6 5.4 1.1 7-1.2l4.6-6.5c.8-1.1 1.1-2.4.8-3.7-.2-1.3-.9-2.5-2-3.2L895.9 469.5l-10.4 14.7L1270.7 757z" class="st2"/><path d="M894.9 463.9 845.7 445l34.2 40.1z" class="st7"/><path d="M879.9 489.1c-1.2 0-2.3-.5-3-1.4l-34.3-40.2c-1.2-1.4-1.3-3.4-.2-4.9 1.1-1.5 3-2.1 4.7-1.4l49.3 19c1.2.4 2 1.4 2.4 2.6s.1 2.5-.6 3.5l-15 21.2c-.7 1-1.9 1.6-3.1 1.7-.1-.1-.1-.1-.2-.1zm-21-34.7 20.7 24.3 9.1-12.8-29.8-11.5z" class="st2"/><path d="m1268.4 760.2-62-43.9 15-21.2 62 43.9c4.1 2.9 5 8.5 2.1 12.5l-4.6 6.5c-2.9 4.2-8.5 5.1-12.5 2.2z" class="st7"/><path d="M1273.6 765.9c-2.6 0-5.2-.8-7.5-2.4l-62-43.9c-.9-.6-1.5-1.5-1.6-2.6-.2-1 .1-2.1.7-3l15-21.2c1.3-1.8 3.8-2.2 5.6-1l62 43.9c2.8 2 4.7 5 5.3 8.4s-.2 6.9-2.2 9.7l-4.6 6.5c-2.6 3.7-6.7 5.6-10.7 5.6zm-2.9-8.9c2.2 1.6 5.4 1.1 7-1.2l4.6-6.5c.8-1.1 1.1-2.4.8-3.7s-.9-2.5-2-3.2l-58.8-41.6-10.4 14.7 58.8 41.5z" class="st2"/><g class="st3"><path d="m1297.5 634.7-75.8-98.2 6.3-4.9c3.1-2.4 7.5-1.8 9.8 1.3L1305 620c2.4 3.1 1.8 7.5-1.3 9.8l-6.2 4.9z" class="st2"/><path d="M1297.5 638.7h-.5c-1.1-.1-2-.7-2.7-1.5l-75.8-98.2c-.6-.8-.9-1.9-.8-3 .1-1.1.7-2 1.5-2.7l6.3-4.9c4.8-3.7 11.7-2.8 15.4 2l67.2 87.1c1.8 2.3 2.6 5.2 2.2 8.1-.4 2.9-1.9 5.5-4.2 7.3l-6.3 4.9c-.6.6-1.4.9-2.3.9zm-70.2-101.4 70.9 91.8 3.2-2.4c.6-.5 1-1.2 1.1-2 .1-.8-.1-1.6-.6-2.2l-67.2-87.1c-.5-.6-1.2-1-2-1.1-.8-.1-1.6.1-2.2.6l-3.2 2.4z" class="st2"/><path d="M1282.3 652.7 991.5 275.9l20.6-15.9 290.8 376.8c3 3.9 2.3 9.6-1.6 12.6l-6.3 4.9c-4 3.1-9.6 2.4-12.7-1.6z" class="st2"/><path d="M1289.5 660.2c-.6 0-1.1 0-1.7-.1-3.4-.4-6.5-2.2-8.6-5L988.3 278.3c-1.3-1.7-1-4.3.7-5.6l20.6-15.9c.8-.6 1.9-.9 3-.8 1.1.1 2 .7 2.7 1.5l290.8 376.8c4.4 5.7 3.3 13.9-2.3 18.2l-6.3 4.9c-2.4 1.9-5.2 2.8-8 2.8zM997.1 276.6l288.4 373.7c.8 1.1 2 1.7 3.3 1.9 1.3.2 2.6-.2 3.7-1l6.3-4.9c2.2-1.7 2.6-4.8.9-7l-288.4-373.7-14.2 11z" class="st2"/><path d="m1012.1 260-41.6-32.6 21 48.5z" class="st2"/><path d="M991.5 279.9c-.3 0-.7 0-1-.1-1.2-.3-2.2-1.2-2.7-2.3l-21-48.5c-.7-1.7-.2-3.6 1.2-4.8 1.4-1.1 3.5-1.1 4.9 0l41.6 32.6c1 .8 1.5 1.9 1.5 3.2s-.6 2.4-1.6 3.2l-20.6 15.9c-.6.5-1.4.8-2.3.8zm-11-39.6 12.7 29.3 12.4-9.6-25.1-19.7zM1282.3 652.7l-46.4-60.2 20.6-15.9 46.4 60.2c3 3.9 2.3 9.6-1.6 12.6l-6.3 4.9c-4 3.1-9.6 2.4-12.7-1.6z" class="st2"/><path d="M1289.5 660.2c-.6 0-1.1 0-1.7-.1-3.4-.4-6.5-2.2-8.6-5l-46.4-60.2c-.6-.8-.9-1.9-.8-3 .1-1.1.7-2 1.5-2.7l20.6-15.9c1.7-1.3 4.3-1 5.6.7l46.4 60.2c4.4 5.7 3.3 13.9-2.3 18.2l-6.3 4.9c-2.4 2-5.2 2.9-8 2.9zm-48-66.9 44 57c.8 1.1 2 1.7 3.3 1.9 1.3.2 2.6-.2 3.7-1l6.3-4.9c2.2-1.7 2.6-4.8.9-7l-44-57-14.2 11z" class="st2"/></g><path d="m1310.5 621.7-75.8-98.2 6.3-4.9c3.1-2.4 7.5-1.8 9.8 1.3L1318 607c2.4 3.1 1.8 7.5-1.3 9.8l-6.2 4.9z" class="st7"/><path d="M1310.5 625.7h-.5c-1.1-.1-2-.7-2.7-1.5l-75.8-98.2c-.6-.8-.9-1.9-.8-3 .1-1.1.7-2 1.5-2.7l6.3-4.9c4.8-3.7 11.7-2.8 15.4 2l67.2 87.1c1.8 2.3 2.6 5.2 2.2 8.1-.4 2.9-1.9 5.5-4.2 7.3l-6.3 4.9c-.6.6-1.4.9-2.3.9zm-70.2-101.4 70.9 91.8 3.2-2.4c.6-.5 1-1.2 1.1-2 .1-.8-.1-1.6-.6-2.2l-67.2-87.1c-.5-.6-1.2-1-2-1.1-.8-.1-1.6.1-2.2.6l-3.2 2.4z" class="st2"/><path d="m1295.3 639.7-290.8-376.8 20.6-15.9 290.8 376.8c3 3.9 2.3 9.6-1.6 12.6l-6.3 4.9c-4 3.1-9.6 2.4-12.7-1.6z" style="fill:#9580ed"/><path d="M1302.5 647.2c-.6 0-1.1 0-1.7-.1-3.4-.4-6.5-2.2-8.6-5l-290.8-376.8c-1.3-1.7-1-4.3.7-5.6l20.6-15.9c.8-.6 1.9-.9 3-.8 1.1.1 2 .7 2.7 1.5l290.8 376.8c4.4 5.7 3.3 13.9-2.3 18.2l-6.3 4.9c-2.5 1.9-5.3 2.8-8.1 2.8zm-292.4-383.6 288.4 373.7c.8 1.1 2 1.7 3.3 1.9 1.3.2 2.6-.2 3.7-1l6.3-4.9c2.2-1.7 2.6-4.8.9-7l-288.4-373.7-14.2 11z" class="st2"/><path d="m1025.1 247-41.6-32.6 21 48.5z" class="st7"/><path d="M1004.5 266.9c-.3 0-.7 0-1-.1-1.2-.3-2.2-1.2-2.7-2.3l-21-48.5c-.7-1.7-.2-3.6 1.2-4.8 1.4-1.1 3.5-1.1 4.9 0l41.6 32.6c1 .8 1.5 1.9 1.5 3.2s-.6 2.4-1.6 3.2l-20.6 15.9c-.6.5-1.4.8-2.3.8zm-11-39.6 12.7 29.3 12.4-9.6-25.1-19.7z" class="st2"/><path d="m1295.3 639.7-46.4-60.2 20.6-15.9 46.4 60.2c3 3.9 2.3 9.6-1.6 12.6l-6.3 4.9c-4 3.1-9.6 2.4-12.7-1.6z" class="st7"/><path d="M1302.5 647.2c-.6 0-1.1 0-1.7-.1-3.4-.4-6.5-2.2-8.6-5l-46.4-60.2c-.6-.8-.9-1.9-.8-3 .1-1.1.7-2 1.5-2.7l20.6-15.9c1.7-1.3 4.3-1 5.6.7l46.4 60.2c4.4 5.7 3.3 13.9-2.3 18.2l-6.3 4.9c-2.4 2-5.2 2.9-8 2.9zm-48-66.9 44 57c.8 1.1 2 1.7 3.3 1.9 1.3.2 2.6-.2 3.7-1l6.3-4.9c2.2-1.7 2.6-4.8.9-7l-44-57-14.2 11z" class="st2"/><path d="m409.803 356.039 254.608-29.346 2.863 24.835-254.608 29.346zM417.19 420.664l218.547-25.19 2.863 24.835-218.548 25.19zM424.685 485.205l278.35-32.083 2.863 24.835-278.351 32.083zM432.101 549.737l254.609-29.346 2.862 24.835-254.608 29.346z" class="st10"/><path d="M346.6 406.6h-.1c-1.8 0-3.4-.8-4.5-2.2l-15.3-18.5c-2.1-2.6-1.8-6.3.8-8.4 2.6-2.1 6.3-1.8 8.4.8l10.8 13.1 38.1-43c2.2-2.5 6-2.7 8.5-.5s2.7 6 .5 8.5L351 404.6c-1.1 1.2-2.7 2-4.4 2zM353.8 467.8h-.1c-1.8 0-3.4-.8-4.5-2.2l-15.3-18.5c-2.1-2.6-1.8-6.3.8-8.4 2.6-2.1 6.3-1.8 8.4.8l10.8 13.1 38.1-43c2.2-2.5 6-2.7 8.5-.5s2.7 6 .5 8.5l-42.8 48.2c-1.1 1.2-2.7 2-4.4 2z" class="st0"/></g></svg>