<svg xmlns="http://www.w3.org/2000/svg" viewBox="0 0 1366 768">
  <path fill="#B8B8E8" d="M0 0h1366v768H0z"/>
  <g stroke-linecap="round" stroke-linejoin="round" stroke-miterlimit="10">
    <path fill="#D9D9E2" stroke="#1D1D26" stroke-width="15" d="M994 662.8H372c-16 0-29-13-29-29V441c0-16 13-29 29-29h622c16 0 29 13 29 29v192.7c0 16.1-13 29.1-29 29.1z"/>
    <g stroke="#2E2E35" stroke-width="10">
      <path fill="#8383BA" d="M578.5 582.2h210v40h-210z"/>
      <path fill="#E8E8EF" d="M515.5 582.2h40v40h-40zM810.5 582.2h40v40h-40zM871.5 582.2h40v40h-40zM453.5 582.2h40v40h-40zM663.5 521.2h40v40h-40zM601.5 521.2h40v40h-40zM725.5 521.2h40v40h-40zM850.5 521.2h40v40h-40zM788.5 521.2h40v40h-40zM912.5 521.2h40v40h-40zM476.5 521.2h40v40h-40z"/>
      <path fill="#8383BA" d="M414.5 521.2h40v40h-40zM538.5 521.2h40v40h-40z"/>
      <path fill="#E8E8EF" d="M629.5 458.2h40v40h-40zM567.5 458.2h40v40h-40zM691.5 458.2h40v40h-40zM816.5 458.2h40v40h-40zM754.5 458.2h40v40h-40zM878.5 458.2h40v40h-40zM442.5 458.2h40v40h-40zM380.5 458.2h40v40h-40zM504.5 458.2h40v40h-40z"/>
      <path fill="#8383BA" d="M940.5 458.2h40v40h-40z"/>
    </g>
    <path fill="#FF1493" stroke="#1D1D26" stroke-width="11" d="M632.2 234.7c-11.1 0-15.3 6.2-17.7 10.3-2.5-4.1-6.6-10.3-17.7-10.3-11.4 0-30.1 9-26.9 35 3.2 25.9 27.3 31.7 44.4 47.7v.3l.2-.2.2.2v-.3c17.1-16 41.2-21.8 44.4-47.7 3.3-26.1-15.4-35-26.9-35z"/>
    <path fill="#FF1493" stroke="#1D1D26" stroke-width="10" d="M735.6 324.2c-7.6 0-10.4 4.2-12.1 7-1.7-2.8-4.5-7-12.1-7-7.8 0-20.5 6.1-18.3 23.9 2.2 17.6 18.6 21.6 30.3 32.5v.2l.1-.1.1.1v-.2c11.6-10.9 28.1-14.9 30.3-32.5 2.2-17.7-10.5-23.9-18.3-23.9z"/>
    <path fill="#FF1493" stroke="#1D1D26" stroke-width="12" d="M797.5 105.2c-15.7 0-21.5 10.7-25 16.5-3.5-5.8-9.3-16.5-25-16.5-16.1 0-43.8 12.8-37.9 49.4 4.9 30.6 38.6 44.7 62.7 67.3v.5c.1-.1.2-.2.3-.2.1.1.2.2.3.2v-.5c24.1-22.6 56.9-37.7 62.7-67.3 7.9-41.4-22-49.4-38.1-49.4z"/>
  </g>
</svg>
