<?xml version="1.0" encoding="utf-8"?>
<!-- Generator: Adobe Illustrator 22.1.0, SVG Export Plug-In . SVG Version: 6.00 Build 0)  -->
<svg version="1.1" xmlns="http://www.w3.org/2000/svg" xmlns:xlink="http://www.w3.org/1999/xlink" x="0px" y="0px"
	 viewBox="0 0 900 465" style="enable-background:new 0 0 900 465;" xml:space="preserve">
<style type="text/css">
	.st0{fill:#212121;}
	.st1{fill:#62D3D3;}
	.st2{fill:none;stroke:#666666;stroke-miterlimit:10;}
	.st3{fill:#FFFFFF;}
</style>
<g id="Layer_1">
	<rect x="0.5" class="st0" width="900" height="465"/>
</g>
<g id="Layer_2">
	<g>
		<g>
			<g>
				<path class="st1" d="M192.5,186.5h-88c-1.1,0-2-0.9-2-2v-44c0-1.1,0.9-2,2-2h88c1.1,0,2,0.9,2,2v44
					C194.5,185.6,193.6,186.5,192.5,186.5z"/>
				<path class="st1" d="M300.5,186.5h-88c-1.1,0-2-0.9-2-2v-44c0-1.1,0.9-2,2-2h88c1.1,0,2,0.9,2,2v44
					C302.5,185.6,301.6,186.5,300.5,186.5z"/>
				<path class="st1" d="M408.5,186.5h-88c-1.1,0-2-0.9-2-2v-44c0-1.1,0.9-2,2-2h88c1.1,0,2,0.9,2,2v44
					C410.5,185.6,409.6,186.5,408.5,186.5z"/>
				<path class="st1" d="M192.5,250.5h-88c-1.1,0-2-0.9-2-2v-44c0-1.1,0.9-2,2-2h88c1.1,0,2,0.9,2,2v44
					C194.5,249.6,193.6,250.5,192.5,250.5z"/>
				<path class="st1" d="M300.5,250.5h-88c-1.1,0-2-0.9-2-2v-44c0-1.1,0.9-2,2-2h88c1.1,0,2,0.9,2,2v44
					C302.5,249.6,301.6,250.5,300.5,250.5z"/>
				<path class="st1" d="M408.5,250.5h-88c-1.1,0-2-0.9-2-2v-44c0-1.1,0.9-2,2-2h88c1.1,0,2,0.9,2,2v44
					C410.5,249.6,409.6,250.5,408.5,250.5z"/>
				<path class="st1" d="M192.5,314.5h-88c-1.1,0-2-0.9-2-2v-44c0-1.1,0.9-2,2-2h88c1.1,0,2,0.9,2,2v44
					C194.5,313.6,193.6,314.5,192.5,314.5z"/>
				<path class="st1" d="M300.5,314.5h-88c-1.1,0-2-0.9-2-2v-44c0-1.1,0.9-2,2-2h88c1.1,0,2,0.9,2,2v44
					C302.5,313.6,301.6,314.5,300.5,314.5z"/>
				<path class="st1" d="M408.5,314.5h-88c-1.1,0-2-0.9-2-2v-44c0-1.1,0.9-2,2-2h88c1.1,0,2,0.9,2,2v44
					C410.5,313.6,409.6,314.5,408.5,314.5z"/>
				<path class="st1" d="M408.5,378.5h-304c-1.1,0-2-0.9-2-2v-44c0-1.1,0.9-2,2-2h304c1.1,0,2,0.9,2,2v44
					C410.5,377.6,409.6,378.5,408.5,378.5z"/>
			</g>
			<rect x="82" y="118.3" class="st2" width="349" height="280.5"/>
		</g>
		<g>
			<path class="st3" d="M255.7,44.1h5.2l18.2,42.5h-6.7l-4.3-10.5h-20.2l-4.2,10.5H237L255.7,44.1z M266,71l-7.9-19.5H258L250,71
				H266z"/>
		</g>
	</g>
	<g>
		<g>
			<g>
				<path class="st1" d="M579.8,187.2h-88c-1.1,0-2-0.9-2-2v-44c0-1.1,0.9-2,2-2h88c1.1,0,2,0.9,2,2v44
					C581.8,186.3,580.9,187.2,579.8,187.2z"/>
				<path class="st1" d="M687.8,187.2h-88c-1.1,0-2-0.9-2-2v-44c0-1.1,0.9-2,2-2h88c1.1,0,2,0.9,2,2v44
					C689.8,186.3,688.9,187.2,687.8,187.2z"/>
				<path class="st1" d="M795.8,187.2h-88c-1.1,0-2-0.9-2-2v-44c0-1.1,0.9-2,2-2h88c1.1,0,2,0.9,2,2v44
					C797.8,186.3,796.9,187.2,795.8,187.2z"/>
				<path class="st1" d="M579.8,251.2h-88c-1.1,0-2-0.9-2-2v-44c0-1.1,0.9-2,2-2h88c1.1,0,2,0.9,2,2v44
					C581.8,250.3,580.9,251.2,579.8,251.2z"/>
				<path class="st1" d="M687.8,251.2h-88c-1.1,0-2-0.9-2-2v-44c0-1.1,0.9-2,2-2h88c1.1,0,2,0.9,2,2v44
					C689.8,250.3,688.9,251.2,687.8,251.2z"/>
				<path class="st1" d="M795.8,251.2h-88c-1.1,0-2-0.9-2-2v-44c0-1.1,0.9-2,2-2h88c1.1,0,2,0.9,2,2v44
					C797.8,250.3,796.9,251.2,795.8,251.2z"/>
				<path class="st1" d="M579.8,315.2h-88c-1.1,0-2-0.9-2-2v-44c0-1.1,0.9-2,2-2h88c1.1,0,2,0.9,2,2v44
					C581.8,314.3,580.9,315.2,579.8,315.2z"/>
				<path class="st1" d="M687.8,315.2h-88c-1.1,0-2-0.9-2-2v-44c0-1.1,0.9-2,2-2h88c1.1,0,2,0.9,2,2v44
					C689.8,314.3,688.9,315.2,687.8,315.2z"/>
				<path class="st1" d="M795.8,315.2h-88c-1.1,0-2-0.9-2-2v-44c0-1.1,0.9-2,2-2h88c1.1,0,2,0.9,2,2v44
					C797.8,314.3,796.9,315.2,795.8,315.2z"/>
				<path class="st1" d="M633.8,379.2h-88c-1.1,0-2-0.9-2-2v-44c0-1.1,0.9-2,2-2h88c1.1,0,2,0.9,2,2v44
					C635.8,378.3,634.9,379.2,633.8,379.2z"/>
				<path class="st1" d="M741.8,379.2h-88c-1.1,0-2-0.9-2-2v-44c0-1.1,0.9-2,2-2h88c1.1,0,2,0.9,2,2v44
					C743.8,378.3,742.9,379.2,741.8,379.2z"/>
			</g>
			<rect x="469" y="118.3" class="st2" width="349" height="280.5"/>
		</g>
		<g>
			<path class="st3" d="M629.6,44.1h14.8c1.8,0,3.5,0.2,5.1,0.7c1.6,0.4,2.9,1.1,4.1,1.9c1.1,0.9,2,2,2.7,3.3c0.7,1.3,1,2.9,1,4.7
				c0,2.4-0.7,4.4-2,6c-1.4,1.5-3.1,2.7-5.3,3.4v0.1c1.3,0.1,2.5,0.4,3.6,1c1.1,0.6,2.1,1.3,2.9,2.3c0.8,0.9,1.5,2,2,3.3
				c0.5,1.2,0.7,2.6,0.7,4c0,1.9-0.4,3.6-1.2,5.1c-0.8,1.5-1.9,2.7-3.2,3.7c-1.4,1-2.9,1.8-4.7,2.3c-1.8,0.5-3.7,0.8-5.8,0.8h-14.6
				V44.1z M635.4,61.7h7.9c1.1,0,2.1-0.1,3.1-0.3c1-0.2,1.8-0.6,2.5-1.1c0.7-0.5,1.3-1.2,1.7-2c0.4-0.8,0.6-1.8,0.6-2.9
				c0-1.7-0.5-3.1-1.6-4.4c-1.1-1.2-2.8-1.9-5.1-1.9h-9.1V61.7z M635.4,81.5h8.5c0.9,0,1.8-0.1,2.9-0.3c1.1-0.2,2-0.5,3-1.1
				c0.9-0.5,1.7-1.3,2.3-2.2c0.6-0.9,1-2.1,1-3.7c0-2.5-0.8-4.4-2.5-5.7c-1.6-1.3-3.9-1.9-6.7-1.9h-8.5V81.5z"/>
		</g>
	</g>
</g>
</svg>
