<svg xmlns="http://www.w3.org/2000/svg" xml:space="preserve" viewBox="0 0 1600 900"><path fill="#FFF" d="M0 0h1600v900H0z"/><linearGradient id="a" x1="66.306" x2="800" y1="157.118" y2="157.118" gradientUnits="userSpaceOnUse"><stop offset="0" stop-color="#4169ff"/><stop offset="1" stop-color="pink"/></linearGradient><path fill="url(#a)" d="M66.3 93.2H800V221H66.3z"/><path fill="pink" d="M975.1 745.7H601.6c-8.6 0-15.7-7-15.7-15.7V356.6c0-8.6 7-15.7 15.7-15.7h373.5c8.6 0 15.7 7 15.7 15.7v373.5c0 8.6-7 15.6-15.7 15.6z"/><path d="M654.2 547.9c.6-.3 1.3-.6 2-1.1l2.3 3.3c-.8.7-1.8 1.3-2.9 1.7-1.1.4-2.3.6-3.6.6-1.8 0-3.5-.4-4.8-1.1s-2.4-1.8-3.1-3.2c-.7-1.4-1.1-3-1.1-4.8 0-1.8.4-3.4 1.1-4.9.7-1.4 1.8-2.5 3.2-3.3 1.4-.8 3-1.2 4.8-1.2 1.3 0 2.5.2 3.5.5 1 .4 2 .9 2.9 1.6l-2.2 3.1c-1.3-.9-2.6-1.3-3.9-1.3-1.2 0-2.2.4-2.9 1.3-.7.9-1 2.2-1 4.1 0 1.8.3 3.1 1 3.9.7.8 1.6 1.2 2.8 1.2.6 0 1.2-.1 1.9-.4zm20.6-12.9c1.3.8 2.2 1.8 2.9 3.2.7 1.4 1 3 1 4.9 0 1.9-.3 3.6-1 5s-1.6 2.5-2.9 3.2c-1.3.7-2.8 1.1-4.5 1.1-1.8 0-3.3-.4-4.6-1.1-1.3-.7-2.2-1.8-2.9-3.2s-1-3.1-1-5c0-1.8.3-3.5 1-4.9.7-1.4 1.6-2.5 2.9-3.2 1.3-.8 2.8-1.2 4.5-1.2 1.8 0 3.3.4 4.6 1.2zm-6.9 4c-.5.9-.8 2.3-.8 4.1 0 1.9.3 3.3.8 4.2.5.9 1.3 1.3 2.4 1.3 1.1 0 1.9-.4 2.4-1.3s.8-2.3.8-4.2c0-1.9-.3-3.2-.8-4.1-.5-.9-1.3-1.3-2.4-1.3-1.1-.1-1.9.4-2.4 1.3zm23.6 7.3c0 .7.2 1.2.6 1.5s.9.5 1.7.5c.8 0 1.6-.2 2.5-.5l1.2 3.5c-1.5.8-3.1 1.1-5 1.1-2 0-3.6-.6-4.6-1.8-1-1.2-1.5-2.8-1.5-4.9V531h-5.1v-3.5h10.3v18.8zm22.7-11.3c1.3.8 2.2 1.8 2.9 3.2.7 1.4 1 3 1 4.9 0 1.9-.3 3.6-1 5s-1.6 2.5-2.9 3.2c-1.3.7-2.8 1.1-4.5 1.1-1.8 0-3.3-.4-4.6-1.1-1.3-.7-2.2-1.8-2.9-3.2s-1-3.1-1-5c0-1.8.3-3.5 1-4.9.7-1.4 1.6-2.5 2.9-3.2 1.3-.8 2.8-1.2 4.5-1.2 1.8 0 3.3.4 4.6 1.2zm-6.9 4c-.5.9-.8 2.3-.8 4.1 0 1.9.3 3.3.8 4.2.5.9 1.3 1.3 2.4 1.3 1.1 0 1.9-.4 2.4-1.3s.8-2.3.8-4.2c0-1.9-.3-3.2-.8-4.1-.5-.9-1.3-1.3-2.4-1.3-1.1-.1-1.9.4-2.4 1.3zm30.6-4.6-1 7.3h-3.2v-3.2c-1 .2-1.8.7-2.6 1.6-.7.9-1.3 2-1.8 3.3v5h3.4v3.5h-10.9v-3.5h2.3v-10.5h-2.3v-3.4h6.3l1 3.9c.6-1.5 1.4-2.6 2.4-3.3 1-.7 2.2-1.1 3.6-1.1 1-.1 2 0 2.8.4zm18.8 14.5c-.7 1.1-1.8 1.9-3.2 2.5-1.4.6-3 .9-4.9.9-3.8 0-6.8-1.1-9-3.3l2.7-3c1.7 1.5 3.8 2.3 6.1 2.3 1.1 0 2.1-.2 2.8-.7.7-.5 1-1.2 1-2.1 0-.6-.1-1-.4-1.4-.3-.4-.7-.7-1.3-1-.6-.3-1.4-.6-2.5-1-1.8-.5-3.2-1.1-4.3-1.8-1.1-.7-1.9-1.4-2.3-2.3-.5-.9-.7-1.9-.7-3 0-1.3.4-2.5 1.1-3.5.8-1 1.8-1.8 3.1-2.3 1.3-.5 2.7-.8 4.3-.8 3.4 0 6.1 1 8.2 2.9l-2.5 2.9c-.8-.6-1.6-1.1-2.5-1.4-.9-.3-1.8-.5-2.7-.5-1.1 0-1.9.2-2.5.6-.6.4-.9.9-.9 1.6 0 .5.1.9.4 1.2.3.3.7.6 1.4.9.6.3 1.6.6 2.9 1 1.5.5 2.8 1 3.8 1.6 1 .6 1.7 1.4 2.3 2.3.5.9.8 2.1.8 3.4-.1 1.7-.5 2.9-1.2 4zm15.6-1c.6-.3 1.3-.6 2-1.1l2.3 3.3c-.8.7-1.8 1.3-2.9 1.7-1.1.4-2.3.6-3.6.6-1.8 0-3.5-.4-4.8-1.1s-2.4-1.8-3.1-3.2c-.7-1.4-1.1-3-1.1-4.8 0-1.8.4-3.4 1.1-4.9.7-1.4 1.8-2.5 3.2-3.3 1.4-.8 3-1.2 4.8-1.2 1.3 0 2.5.2 3.5.5 1 .4 2 .9 2.9 1.6l-2.2 3.1c-1.3-.9-2.6-1.3-3.9-1.3-1.2 0-2.2.4-2.9 1.3-.7.9-1 2.2-1 4.1 0 1.8.3 3.1 1 3.9.7.8 1.6 1.2 2.8 1.2.7 0 1.3-.1 1.9-.4zm23.5.3c.2.3.5.5.9.7l-1.1 3.4c-1.1-.1-1.9-.3-2.6-.7-.7-.4-1.2-.9-1.6-1.6-.6.8-1.5 1.4-2.5 1.8-1 .4-2.1.6-3.2.6-1.2 0-2.2-.2-3.1-.7s-1.6-1.1-2.1-1.9c-.5-.8-.7-1.8-.7-2.8 0-1.2.3-2.3 1-3.2.7-.9 1.6-1.6 2.9-2s2.8-.7 4.6-.7h2.3v-.7c0-1.8-1.1-2.7-3.4-2.7-.6 0-1.3.1-2.2.2-.9.2-1.7.4-2.6.7l-1.2-3.4c1.1-.4 2.2-.7 3.5-1 1.2-.2 2.3-.3 3.3-.3 2.6 0 4.5.5 5.7 1.6 1.3 1 1.9 2.6 1.9 4.6v6.8c-.1.5 0 1 .2 1.3zm-6.6 0c.6-.3 1.1-.8 1.4-1.4V544h-1.3c-1.4 0-2.5.2-3.2.7-.7.4-1 1.1-1 2 0 .7.2 1.2.6 1.6.4.4 1 .6 1.7.6.6-.2 1.2-.4 1.8-.7zm20.4-1.9c0 .7.2 1.2.6 1.5.4.3.9.5 1.7.5.8 0 1.6-.2 2.5-.5l1.2 3.5c-1.5.8-3.1 1.1-5 1.1-2 0-3.6-.6-4.6-1.8-1-1.2-1.5-2.8-1.5-4.9V531h-5.1v-3.5h10.3v18.8zm16.5 1.3c.7.6 1.7 1 2.8 1 1.5 0 3-.5 4.5-1.4l2.1 2.8c-.9.7-1.9 1.3-3.1 1.8-1.2.4-2.5.6-3.9.6-1.9 0-3.6-.4-5-1.2-1.4-.8-2.4-1.9-3.1-3.3-.7-1.4-1-3-1-4.8 0-1.7.3-3.3 1-4.7.7-1.4 1.6-2.5 2.9-3.3s2.8-1.2 4.6-1.2c1.7 0 3.1.4 4.3 1.1 1.2.7 2.2 1.7 2.8 3.1.7 1.3 1 2.9 1 4.8 0 .7 0 1.3-.1 1.9h-11.3c.3 1.2.7 2.2 1.5 2.8zm-.4-9.3c-.6.7-.9 1.7-1 3.2h6.4c0-2.8-1.1-4.2-3.1-4.2-1 0-1.8.3-2.3 1zm21 7c.4 1.4 1 2.9 1.9 4.3.9 1.4 2.1 3 3.7 4.7l-3 2.7c-1.8-1.6-3.3-3.2-4.6-4.8-1.2-1.7-2.2-3.5-2.9-5.4s-1-4.1-1-6.4.3-4.5 1-6.4c.7-2 1.6-3.8 2.9-5.4 1.2-1.7 2.8-3.3 4.6-4.8l3 2.7c-1.5 1.6-2.7 3.2-3.6 4.6-.9 1.4-1.6 2.9-2 4.4s-.6 3.1-.6 4.9c.1 1.8.3 3.4.6 4.9zm28.7 2.6v3.9h-14.8v-3.9h5.5v-13.7l-4.7 2.9-2.2-3.6 7.3-4.5h4.6v18.8h4.3zm16-18c1.2.9 2.1 2.3 2.8 4.1.6 1.8.9 3.9.9 6.4 0 2.5-.3 4.7-.9 6.5-.6 1.8-1.5 3.2-2.8 4.1-1.2.9-2.7 1.4-4.5 1.4-1.8 0-3.3-.5-4.5-1.4-1.2-.9-2.2-2.3-2.8-4.1-.6-1.8-.9-3.9-.9-6.5 0-2.5.3-4.6.9-6.4.6-1.8 1.5-3.1 2.8-4.1s2.7-1.4 4.5-1.4c1.7 0 3.3.5 4.5 1.4zm-6.5 3.2c-.5.5-.8 1.4-1.1 2.6s-.4 2.8-.4 4.7c0 1.9.1 3.4.2 4.6l5.5-11.6c-.3-.4-.6-.7-1-.9s-.9-.2-1.4-.2c-.6 0-1.3.2-1.8.8zm3.9 14.7c.5-.5.8-1.4 1.1-2.6.2-1.2.3-2.8.3-4.8 0-1.1 0-2.2-.1-3.2l-5.2 10.8c.2.2.5.4.8.5.3.1.7.1 1.2.1.7 0 1.4-.2 1.9-.8zm22.3-17.9c1.2.9 2.1 2.3 2.8 4.1.6 1.8.9 3.9.9 6.4 0 2.5-.3 4.7-.9 6.5-.6 1.8-1.5 3.2-2.8 4.1s-2.7 1.4-4.5 1.4-3.3-.5-4.5-1.4-2.2-2.3-2.8-4.1c-.6-1.8-.9-3.9-.9-6.5 0-2.5.3-4.6.9-6.4.6-1.8 1.5-3.1 2.8-4.1 1.2-.9 2.7-1.4 4.5-1.4 1.7 0 3.2.5 4.5 1.4zm-6.5 3.2c-.5.5-.8 1.4-1.1 2.6s-.4 2.8-.4 4.7c0 1.9.1 3.4.2 4.6l5.5-11.6c-.3-.4-.6-.7-1-.9s-.9-.2-1.4-.2c-.6 0-1.3.2-1.8.8zm3.8 14.7c.5-.5.8-1.4 1.1-2.6.2-1.2.3-2.8.3-4.8 0-1.1 0-2.2-.1-3.2l-5.2 10.8c.2.2.5.4.8.5.3.1.7.1 1.2.1.8 0 1.5-.2 1.9-.8zm18.5-12.4c-.4-1.5-1.1-3-2-4.4s-2.1-3-3.6-4.6l3-2.7c1.8 1.6 3.3 3.2 4.6 4.8 1.2 1.7 2.2 3.5 2.9 5.4.7 2 1 4.1 1 6.4s-.3 4.5-1 6.4-1.6 3.8-2.9 5.4c-1.2 1.7-2.8 3.3-4.6 4.8l-3-2.7c1.6-1.7 2.8-3.3 3.7-4.7.9-1.4 1.5-2.8 1.9-4.3.4-1.4.6-3.1.6-4.9 0-1.8-.2-3.4-.6-4.9z"/><path fill="#FFFFB5" d="M1490.8 745.7h-373.5c-8.6 0-15.7-7-15.7-15.7V356.6c0-8.6 7-15.7 15.7-15.7h373.5c8.6 0 15.7 7 15.7 15.7v373.5c-.1 8.6-7.1 15.6-15.7 15.6z"/><path d="M1169.8 547.9c.6-.3 1.3-.6 2-1.1l2.3 3.3c-.8.7-1.8 1.3-2.9 1.7-1.1.4-2.3.6-3.6.6-1.8 0-3.5-.4-4.8-1.1s-2.4-1.8-3.1-3.2c-.7-1.4-1.1-3-1.1-4.8 0-1.8.4-3.4 1.1-4.9.7-1.4 1.8-2.5 3.2-3.3s3-1.2 4.8-1.2c1.3 0 2.5.2 3.5.5 1 .4 2 .9 2.9 1.6l-2.2 3.1c-1.3-.9-2.6-1.3-3.9-1.3-1.2 0-2.2.4-2.9 1.3-.7.9-1 2.2-1 4.1 0 1.8.3 3.1 1 3.9s1.6 1.2 2.8 1.2c.6 0 1.3-.1 1.9-.4zm20.6-12.9c1.3.8 2.2 1.8 2.9 3.2.7 1.4 1 3 1 4.9 0 1.9-.3 3.6-1 5s-1.6 2.5-2.9 3.2c-1.3.7-2.8 1.1-4.5 1.1-1.8 0-3.3-.4-4.6-1.1-1.3-.7-2.2-1.8-2.9-3.2-.7-1.4-1-3.1-1-5 0-1.8.3-3.5 1-4.9.7-1.4 1.6-2.5 2.9-3.2 1.3-.8 2.8-1.2 4.5-1.2 1.8 0 3.4.4 4.6 1.2zm-6.9 4c-.5.9-.8 2.3-.8 4.1 0 1.9.3 3.3.8 4.2.5.9 1.3 1.3 2.4 1.3 1.1 0 1.9-.4 2.4-1.3s.8-2.3.8-4.2c0-1.9-.3-3.2-.8-4.1-.5-.9-1.3-1.3-2.4-1.3-1.1-.1-1.9.4-2.4 1.3zm23.6 7.3c0 .7.2 1.2.6 1.5.4.3.9.5 1.7.5.8 0 1.6-.2 2.5-.5l1.2 3.5c-1.5.8-3.1 1.1-5 1.1-2 0-3.6-.6-4.6-1.8s-1.5-2.8-1.5-4.9V531h-5.1v-3.5h10.3v18.8zm22.7-11.3c1.3.8 2.2 1.8 2.9 3.2.7 1.4 1 3 1 4.9 0 1.9-.3 3.6-1 5s-1.6 2.5-2.9 3.2c-1.3.7-2.8 1.1-4.5 1.1-1.8 0-3.3-.4-4.6-1.1-1.3-.7-2.2-1.8-2.9-3.2-.7-1.4-1-3.1-1-5 0-1.8.3-3.5 1-4.9.7-1.4 1.6-2.5 2.9-3.2 1.3-.8 2.8-1.2 4.5-1.2 1.8 0 3.3.4 4.6 1.2zm-6.9 4c-.5.9-.8 2.3-.8 4.1 0 1.9.3 3.3.8 4.2.5.9 1.3 1.3 2.4 1.3 1.1 0 1.9-.4 2.4-1.3s.8-2.3.8-4.2c0-1.9-.3-3.2-.8-4.1-.5-.9-1.3-1.3-2.4-1.3-1.1-.1-1.9.4-2.4 1.3zm30.7-4.6-1 7.3h-3.2v-3.2c-1 .2-1.8.7-2.6 1.6s-1.3 2-1.8 3.3v5h3.4v3.5h-10.9v-3.5h2.3v-10.5h-2.3v-3.4h6.3l1 3.9c.6-1.5 1.4-2.6 2.4-3.3 1-.7 2.2-1.1 3.6-1.1 1-.1 1.9 0 2.8.4zm18.7 14.5c-.7 1.1-1.8 1.9-3.2 2.5-1.4.6-3 .9-4.9.9-3.8 0-6.8-1.1-9-3.3l2.7-3c1.7 1.5 3.8 2.3 6.1 2.3 1.1 0 2.1-.2 2.8-.7s1-1.2 1-2.1c0-.6-.1-1-.4-1.4-.3-.4-.7-.7-1.3-1-.6-.3-1.4-.6-2.5-1-1.8-.5-3.2-1.1-4.3-1.8-1.1-.7-1.9-1.4-2.3-2.3-.5-.9-.7-1.9-.7-3 0-1.3.4-2.5 1.1-3.5.8-1 1.8-1.8 3.1-2.3s2.7-.8 4.3-.8c3.4 0 6.1 1 8.2 2.9l-2.5 2.9c-.8-.6-1.6-1.1-2.5-1.4-.9-.3-1.8-.5-2.7-.5-1 0-1.9.2-2.5.6-.6.4-.9.9-.9 1.6 0 .5.1.9.4 1.2.3.3.7.6 1.4.9.6.3 1.6.6 2.9 1 1.5.5 2.8 1 3.8 1.6 1 .6 1.7 1.4 2.3 2.3.5.9.8 2.1.8 3.4-.1 1.7-.4 2.9-1.2 4zm15.7-1c.6-.3 1.3-.6 2-1.1l2.3 3.3c-.8.7-1.8 1.3-2.9 1.7-1.1.4-2.3.6-3.6.6-1.8 0-3.5-.4-4.8-1.1s-2.4-1.8-3.1-3.2c-.7-1.4-1.1-3-1.1-4.8 0-1.8.4-3.4 1.1-4.9.7-1.4 1.8-2.5 3.2-3.3s3-1.2 4.8-1.2c1.3 0 2.5.2 3.5.5 1 .4 2 .9 2.9 1.6l-2.2 3.1c-1.3-.9-2.6-1.3-3.9-1.3-1.2 0-2.2.4-2.9 1.3-.7.9-1 2.2-1 4.1 0 1.8.3 3.1 1 3.9s1.6 1.2 2.8 1.2c.6 0 1.2-.1 1.9-.4zm23.4.3c.2.3.5.5.9.7l-1.1 3.4c-1.1-.1-1.9-.3-2.6-.7-.7-.4-1.2-.9-1.6-1.6-.6.8-1.5 1.4-2.5 1.8-1 .4-2.1.6-3.2.6-1.2 0-2.2-.2-3.1-.7s-1.6-1.1-2.1-1.9c-.5-.8-.7-1.8-.7-2.8 0-1.2.3-2.3 1-3.2.7-.9 1.6-1.6 2.9-2 1.3-.5 2.8-.7 4.6-.7h2.3v-.7c0-1.8-1.1-2.7-3.4-2.7-.6 0-1.3.1-2.2.2s-1.7.4-2.6.7l-1.2-3.4c1.1-.4 2.2-.7 3.5-1 1.2-.2 2.3-.3 3.3-.3 2.6 0 4.5.5 5.7 1.6 1.3 1 1.9 2.6 1.9 4.6v6.8c0 .5 0 1 .2 1.3zm-6.6 0c.6-.3 1.1-.8 1.4-1.4V544h-1.3c-1.4 0-2.5.2-3.2.7-.7.4-1 1.1-1 2 0 .7.2 1.2.6 1.6.4.4 1 .6 1.7.6.6-.2 1.2-.4 1.8-.7zm20.5-1.9c0 .7.2 1.2.6 1.5.4.3.9.5 1.7.5.8 0 1.6-.2 2.5-.5l1.2 3.5c-1.5.8-3.1 1.1-5 1.1-2 0-3.6-.6-4.6-1.8s-1.5-2.8-1.5-4.9V531h-5.1v-3.5h10.3v18.8zm16.4 1.3c.7.6 1.7 1 2.8 1 1.5 0 3-.5 4.5-1.4l2.1 2.8c-.9.7-1.9 1.3-3.1 1.8s-2.5.6-3.9.6c-1.9 0-3.6-.4-5-1.2-1.4-.8-2.4-1.9-3.1-3.3-.7-1.4-1-3-1-4.8 0-1.7.3-3.3 1-4.7s1.6-2.5 2.9-3.3c1.3-.8 2.8-1.2 4.6-1.2 1.7 0 3.1.4 4.3 1.1 1.2.7 2.2 1.7 2.8 3.1s1 2.9 1 4.8c0 .7 0 1.3-.1 1.9h-11.3c.3 1.2.8 2.2 1.5 2.8zm-.4-9.3c-.6.7-.9 1.7-1 3.2h6.4c0-2.8-1.1-4.2-3.1-4.2-1 0-1.7.3-2.3 1zm21.1 7c.4 1.4 1 2.9 1.9 4.3.9 1.4 2.1 3 3.7 4.7l-3 2.7c-1.8-1.6-3.3-3.2-4.6-4.8-1.2-1.7-2.2-3.5-2.9-5.4s-1-4.1-1-6.4.3-4.5 1-6.4c.7-2 1.6-3.8 2.9-5.4 1.2-1.7 2.8-3.3 4.6-4.8l3 2.7c-1.5 1.6-2.7 3.2-3.6 4.6s-1.6 2.9-2 4.4c-.4 1.5-.6 3.1-.6 4.9 0 1.8.2 3.4.6 4.9zm23.9-15.9c1.2.6 2.1 1.4 2.7 2.4.6 1 .9 2.1.9 3.3 0 1.2-.3 2.4-.9 3.6-.6 1.2-1.5 2.5-2.8 3.9-1.3 1.4-3.1 3.2-5.5 5.3h9.7l-.6 4h-15.1v-3.7c2.7-2.6 4.7-4.6 6-6.1 1.4-1.5 2.3-2.7 2.9-3.7.6-1 .9-2 .9-2.9 0-.9-.3-1.7-.8-2.2s-1.3-.8-2.2-.8c-.9 0-1.6.2-2.2.5-.6.4-1.3.9-1.8 1.8l-3.2-2.4c.9-1.2 2-2.2 3.2-2.9 1.3-.7 2.8-1 4.5-1 1.7 0 3.1.3 4.3.9zm20.7.5c1.2.9 2.1 2.3 2.8 4.1.6 1.8.9 3.9.9 6.4 0 2.5-.3 4.7-.9 6.5-.6 1.8-1.5 3.2-2.8 4.1s-2.7 1.4-4.5 1.4-3.3-.5-4.5-1.4-2.2-2.3-2.8-4.1c-.6-1.8-.9-3.9-.9-6.5 0-2.5.3-4.6.9-6.4.6-1.8 1.5-3.1 2.8-4.1 1.2-.9 2.7-1.4 4.5-1.4 1.8 0 3.3.5 4.5 1.4zm-6.4 3.2c-.5.5-.8 1.4-1.1 2.6s-.4 2.8-.4 4.7c0 1.9.1 3.4.2 4.6l5.5-11.6c-.3-.4-.6-.7-1-.9s-.9-.2-1.4-.2c-.7 0-1.3.2-1.8.8zm3.8 14.7c.5-.5.8-1.4 1.1-2.6.2-1.2.3-2.8.3-4.8 0-1.1 0-2.2-.1-3.2l-5.2 10.8c.2.2.5.4.8.5.3.1.7.1 1.2.1.8 0 1.4-.2 1.9-.8zm22.3-17.9c1.2.9 2.1 2.3 2.8 4.1.6 1.8.9 3.9.9 6.4 0 2.5-.3 4.7-.9 6.5-.6 1.8-1.5 3.2-2.8 4.1-1.2.9-2.7 1.4-4.5 1.4-1.8 0-3.3-.5-4.5-1.4-1.2-.9-2.2-2.3-2.8-4.1-.6-1.8-.9-3.9-.9-6.5 0-2.5.3-4.6.9-6.4.6-1.8 1.5-3.1 2.8-4.1s2.7-1.4 4.5-1.4c1.8 0 3.3.5 4.5 1.4zm-6.4 3.2c-.5.5-.8 1.4-1.1 2.6s-.4 2.8-.4 4.7c0 1.9.1 3.4.2 4.6l5.5-11.6c-.3-.4-.6-.7-1-.9s-.9-.2-1.4-.2c-.7 0-1.3.2-1.8.8zm3.8 14.7c.5-.5.8-1.4 1.1-2.6.2-1.2.3-2.8.3-4.8 0-1.1 0-2.2-.1-3.2l-5.2 10.8c.2.2.5.4.8.5.3.1.7.1 1.2.1.8 0 1.4-.2 1.9-.8zm18.4-12.4c-.4-1.5-1.1-3-2-4.4-.9-1.4-2.1-3-3.6-4.6l3-2.7c1.8 1.6 3.3 3.2 4.6 4.8 1.2 1.7 2.2 3.5 2.9 5.4.7 2 1 4.1 1 6.4s-.3 4.5-1 6.4-1.6 3.8-2.9 5.4c-1.2 1.7-2.8 3.3-4.6 4.8l-3-2.7c1.6-1.7 2.8-3.3 3.7-4.7.9-1.4 1.5-2.8 1.9-4.3.4-1.4.6-3.1.6-4.9.1-1.8-.1-3.4-.6-4.9z"/><path fill="#4169FF" d="M455.5 745.7H82c-8.6 0-15.7-7-15.7-15.7V356.6c0-8.6 7-15.7 15.7-15.7h373.5c8.6 0 15.7 7 15.7 15.7v373.5c-.1 8.6-7.1 15.6-15.7 15.6z"/><path fill="#FFF" d="M154.2 547.9c.6-.3 1.3-.6 2-1.1l2.3 3.3c-.8.7-1.8 1.3-2.9 1.7-1.1.4-2.3.6-3.6.6-1.8 0-3.5-.4-4.8-1.1s-2.4-1.8-3.1-3.2c-.7-1.4-1.1-3-1.1-4.8 0-1.8.4-3.4 1.1-4.9.7-1.4 1.8-2.5 3.2-3.3 1.4-.8 3-1.2 4.8-1.2 1.3 0 2.5.2 3.5.5 1 .4 2 .9 2.9 1.6l-2.2 3.1c-1.3-.9-2.6-1.3-3.9-1.3-1.2 0-2.2.4-2.9 1.3-.7.9-1 2.2-1 4.1 0 1.8.3 3.1 1 3.9.7.8 1.6 1.2 2.8 1.2.6 0 1.3-.1 1.9-.4zm20.6-12.9c1.3.8 2.2 1.8 2.9 3.2.7 1.4 1 3 1 4.9 0 1.9-.3 3.6-1 5s-1.6 2.5-2.9 3.2c-1.3.7-2.8 1.1-4.5 1.1-1.8 0-3.3-.4-4.6-1.1-1.3-.7-2.2-1.8-2.9-3.2s-1-3.1-1-5c0-1.8.3-3.5 1-4.9.7-1.4 1.6-2.5 2.9-3.2 1.3-.8 2.8-1.2 4.5-1.2 1.8 0 3.3.4 4.6 1.2zm-6.9 4c-.5.9-.8 2.3-.8 4.1 0 1.9.3 3.3.8 4.2.5.9 1.3 1.3 2.4 1.3 1.1 0 1.9-.4 2.4-1.3s.8-2.3.8-4.2c0-1.9-.3-3.2-.8-4.1-.5-.9-1.3-1.3-2.4-1.3-1.1-.1-1.9.4-2.4 1.3zm23.6 7.3c0 .7.2 1.2.6 1.5s.9.5 1.7.5c.8 0 1.6-.2 2.5-.5l1.2 3.5c-1.5.8-3.1 1.1-5 1.1-2 0-3.6-.6-4.6-1.8-1-1.2-1.5-2.8-1.5-4.9V531h-5.1v-3.5h10.3v18.8zm22.7-11.3c1.3.8 2.2 1.8 2.9 3.2.7 1.4 1 3 1 4.9 0 1.9-.3 3.6-1 5s-1.6 2.5-2.9 3.2c-1.3.7-2.8 1.1-4.5 1.1-1.8 0-3.3-.4-4.6-1.1-1.3-.7-2.2-1.8-2.9-3.2s-1-3.1-1-5c0-1.8.3-3.5 1-4.9.7-1.4 1.6-2.5 2.9-3.2 1.3-.8 2.8-1.2 4.5-1.2 1.8 0 3.3.4 4.6 1.2zm-6.9 4c-.5.9-.8 2.3-.8 4.1 0 1.9.3 3.3.8 4.2.5.9 1.3 1.3 2.4 1.3 1.1 0 1.9-.4 2.4-1.3s.8-2.3.8-4.2c0-1.9-.3-3.2-.8-4.1-.5-.9-1.3-1.3-2.4-1.3-1.1-.1-1.9.4-2.4 1.3zm30.7-4.6-1 7.3h-3.2v-3.2c-1 .2-1.8.7-2.6 1.6-.7.9-1.3 2-1.8 3.3v5h3.4v3.5h-10.9v-3.5h2.3v-10.5h-2.3v-3.4h6.3l1 3.9c.6-1.5 1.4-2.6 2.4-3.3 1-.7 2.2-1.1 3.6-1.1.9-.1 1.9 0 2.8.4zm18.7 14.5c-.7 1.1-1.8 1.9-3.2 2.5-1.4.6-3 .9-4.9.9-3.8 0-6.8-1.1-9-3.3l2.7-3c1.7 1.5 3.8 2.3 6.1 2.3 1.1 0 2.1-.2 2.8-.7.7-.5 1-1.2 1-2.1 0-.6-.1-1-.4-1.4-.3-.4-.7-.7-1.3-1-.6-.3-1.4-.6-2.5-1-1.8-.5-3.2-1.1-4.3-1.8-1.1-.7-1.9-1.4-2.3-2.3-.5-.9-.7-1.9-.7-3 0-1.3.4-2.5 1.1-3.5.8-1 1.8-1.8 3.1-2.3 1.3-.5 2.7-.8 4.3-.8 3.4 0 6.1 1 8.2 2.9l-2.5 2.9c-.8-.6-1.6-1.1-2.5-1.4-.9-.3-1.8-.5-2.7-.5-1.1 0-1.9.2-2.5.6-.6.4-.9.9-.9 1.6 0 .5.1.9.4 1.2.3.3.7.6 1.4.9.6.3 1.6.6 2.9 1 1.5.5 2.8 1 3.8 1.6 1 .6 1.7 1.4 2.3 2.3.5.9.8 2.1.8 3.4-.1 1.7-.5 2.9-1.2 4zm15.6-1c.6-.3 1.3-.6 2-1.1l2.3 3.3c-.8.7-1.8 1.3-2.9 1.7-1.1.4-2.3.6-3.6.6-1.8 0-3.5-.4-4.8-1.1s-2.4-1.8-3.1-3.2c-.7-1.4-1.1-3-1.1-4.8 0-1.8.4-3.4 1.1-4.9.7-1.4 1.8-2.5 3.2-3.3 1.4-.8 3-1.2 4.8-1.2 1.3 0 2.5.2 3.5.5 1 .4 2 .9 2.9 1.6l-2.2 3.1c-1.3-.9-2.6-1.3-3.9-1.3-1.2 0-2.2.4-2.9 1.3-.7.9-1 2.2-1 4.1 0 1.8.3 3.1 1 3.9.7.8 1.6 1.2 2.8 1.2.7 0 1.3-.1 1.9-.4zm23.5.3c.2.3.5.5.9.7l-1.1 3.4c-1.1-.1-1.9-.3-2.6-.7-.7-.4-1.2-.9-1.6-1.6-.6.8-1.5 1.4-2.5 1.8-1 .4-2.1.6-3.2.6-1.2 0-2.2-.2-3.1-.7s-1.6-1.1-2.1-1.9c-.5-.8-.7-1.8-.7-2.8 0-1.2.3-2.3 1-3.2.7-.9 1.6-1.6 2.9-2s2.8-.7 4.6-.7h2.3v-.7c0-1.8-1.1-2.7-3.4-2.7-.6 0-1.3.1-2.2.2-.9.2-1.7.4-2.6.7l-1.2-3.4c1.1-.4 2.2-.7 3.5-1 1.2-.2 2.3-.3 3.3-.3 2.6 0 4.5.5 5.7 1.6 1.3 1 1.9 2.6 1.9 4.6v6.8c-.1.5 0 1 .2 1.3zm-6.6 0c.6-.3 1.1-.8 1.4-1.4V544h-1.3c-1.4 0-2.5.2-3.2.7-.7.4-1 1.1-1 2 0 .7.2 1.2.6 1.6.4.4 1 .6 1.7.6.6-.2 1.2-.4 1.8-.7zm20.4-1.9c0 .7.2 1.2.6 1.5s.9.5 1.7.5c.8 0 1.6-.2 2.5-.5l1.2 3.5c-1.5.8-3.1 1.1-5 1.1-2 0-3.6-.6-4.6-1.8-1-1.2-1.5-2.8-1.5-4.9V531h-5.1v-3.5h10.3v18.8zm16.5 1.3c.7.6 1.7 1 2.8 1 1.5 0 3-.5 4.5-1.4l2.1 2.8c-.9.7-1.9 1.3-3.1 1.8-1.2.4-2.5.6-3.9.6-1.9 0-3.6-.4-5-1.2-1.4-.8-2.4-1.9-3.1-3.3-.7-1.4-1-3-1-4.8 0-1.7.3-3.3 1-4.7.7-1.4 1.6-2.5 2.9-3.3 1.3-.8 2.8-1.2 4.6-1.2 1.7 0 3.1.4 4.3 1.1 1.2.7 2.2 1.7 2.8 3.1.7 1.3 1 2.9 1 4.8 0 .7 0 1.3-.1 1.9h-11.3c.3 1.2.7 2.2 1.5 2.8zm-.4-9.3c-.6.7-.9 1.7-1 3.2h6.4c0-2.8-1.1-4.2-3.1-4.2-1 0-1.8.3-2.3 1zm21.1 7c.4 1.4 1 2.9 1.9 4.3s2.1 3 3.7 4.7l-3 2.7c-1.8-1.6-3.3-3.2-4.6-4.8-1.2-1.7-2.2-3.5-2.9-5.4s-1-4.1-1-6.4.3-4.5 1-6.4c.7-2 1.6-3.8 2.9-5.4 1.2-1.7 2.8-3.3 4.6-4.8l3 2.7c-1.5 1.6-2.7 3.2-3.6 4.6-.9 1.4-1.6 2.9-2 4.4-.4 1.5-.6 3.1-.6 4.9 0 1.8.2 3.4.6 4.9zm24.9-15.4c1.2.9 2.1 2.3 2.8 4.1.6 1.8.9 3.9.9 6.4 0 2.5-.3 4.7-.9 6.5-.6 1.8-1.5 3.2-2.8 4.1-1.2.9-2.7 1.4-4.5 1.4-1.8 0-3.3-.5-4.5-1.4-1.2-.9-2.2-2.3-2.8-4.1-.6-1.8-.9-3.9-.9-6.5 0-2.5.3-4.6.9-6.4.6-1.8 1.5-3.1 2.8-4.1 1.2-.9 2.7-1.4 4.5-1.4 1.8 0 3.3.5 4.5 1.4zm-6.4 3.2c-.5.5-.8 1.4-1.1 2.6s-.4 2.8-.4 4.7c0 1.9.1 3.4.2 4.6l5.5-11.6c-.3-.4-.6-.7-1-.9s-.9-.2-1.4-.2c-.7 0-1.4.2-1.8.8zm3.8 14.7c.5-.5.8-1.4 1.1-2.6.2-1.2.3-2.8.3-4.8 0-1.1 0-2.2-.1-3.2l-5.2 10.8c.2.2.5.4.8.5.3.1.7.1 1.2.1.8 0 1.4-.2 1.9-.8zm18.4-12.4c-.4-1.5-1.1-3-2-4.4-.9-1.4-2.1-3-3.6-4.6l3-2.7c1.8 1.6 3.3 3.2 4.6 4.8 1.2 1.7 2.2 3.5 2.9 5.4.7 2 1 4.1 1 6.4s-.3 4.5-1 6.4-1.6 3.8-2.9 5.4c-1.2 1.7-2.8 3.3-4.6 4.8l-3-2.7c1.6-1.7 2.8-3.3 3.7-4.7.9-1.4 1.5-2.8 1.9-4.3.4-1.4.6-3.1.6-4.9.1-1.8-.2-3.4-.6-4.9z"/><path d="M70.8 247c1.2.9 2.1 2.3 2.8 4.1.6 1.8.9 3.9.9 6.4 0 2.5-.3 4.7-.9 6.5-.6 1.8-1.5 3.2-2.8 4.1-1.2.9-2.7 1.4-4.5 1.4-1.8 0-3.3-.5-4.5-1.4-1.2-.9-2.2-2.3-2.8-4.1-.6-1.8-.9-3.9-.9-6.5 0-2.5.3-4.6.9-6.4s1.5-3.1 2.8-4.1c1.2-.9 2.7-1.4 4.5-1.4 1.8 0 3.3.5 4.5 1.4zm-6.4 3.2c-.5.5-.8 1.4-1.1 2.6s-.4 2.8-.4 4.7c0 1.9.1 3.4.2 4.6l5.5-11.6c-.3-.4-.6-.7-1-.9s-.9-.2-1.4-.2c-.7 0-1.3.3-1.8.8zm3.8 14.8c.5-.5.8-1.4 1.1-2.6.2-1.2.3-2.8.3-4.8 0-1.1 0-2.2-.1-3.2l-5.2 10.8c.2.2.5.4.8.5.3.1.7.1 1.2.1.8 0 1.4-.3 1.9-.8zm1422-18.5c1.2.6 2.1 1.4 2.7 2.4.6 1 .9 2.1.9 3.3 0 1.2-.3 2.4-.9 3.6-.6 1.2-1.5 2.5-2.8 3.9s-3.1 3.2-5.5 5.3h9.7l-.6 4h-15.1v-3.7c2.7-2.6 4.7-4.6 6-6.1 1.4-1.5 2.3-2.7 2.9-3.7.6-1 .9-2 .9-2.9 0-.9-.3-1.7-.8-2.2s-1.3-.8-2.2-.8c-.9 0-1.6.2-2.2.5-.6.4-1.3.9-1.8 1.8l-3.2-2.4c.9-1.2 2-2.2 3.2-2.9 1.3-.7 2.8-1 4.5-1 1.7 0 3.1.3 4.3.9zm20.8.5c1.2.9 2.1 2.3 2.8 4.1.6 1.8.9 3.9.9 6.4 0 2.5-.3 4.7-.9 6.5-.6 1.8-1.5 3.2-2.8 4.1-1.2.9-2.7 1.4-4.5 1.4s-3.3-.5-4.5-1.4c-1.2-.9-2.2-2.3-2.8-4.1-.6-1.8-.9-3.9-.9-6.5 0-2.5.3-4.6.9-6.4.6-1.8 1.5-3.1 2.8-4.1 1.2-.9 2.7-1.4 4.5-1.4 1.7 0 3.2.5 4.5 1.4zm-6.5 3.2c-.5.5-.8 1.4-1.1 2.6s-.4 2.8-.4 4.7c0 1.9.1 3.4.2 4.6l5.5-11.6c-.3-.4-.6-.7-1-.9s-.9-.2-1.4-.2c-.7 0-1.3.3-1.8.8zm3.8 14.8c.5-.5.8-1.4 1.1-2.6.2-1.2.3-2.8.3-4.8 0-1.1 0-2.2-.1-3.2l-5.2 10.8c.2.2.5.4.8.5.3.1.7.1 1.2.1.8 0 1.5-.3 1.9-.8zm22.4-18c1.2.9 2.1 2.3 2.8 4.1s.9 3.9.9 6.4c0 2.5-.3 4.7-.9 6.5-.6 1.8-1.5 3.2-2.8 4.1-1.2.9-2.7 1.4-4.5 1.4-1.8 0-3.3-.5-4.5-1.4-1.2-.9-2.2-2.3-2.8-4.1-.6-1.8-.9-3.9-.9-6.5 0-2.5.3-4.6.9-6.4.6-1.8 1.5-3.1 2.8-4.1 1.2-.9 2.7-1.4 4.5-1.4 1.7 0 3.2.5 4.5 1.4zm-6.5 3.2c-.5.5-.8 1.4-1.1 2.6s-.4 2.8-.4 4.7c0 1.9.1 3.4.2 4.6l5.5-11.6c-.3-.4-.6-.7-1-.9s-.9-.2-1.4-.2c-.7 0-1.3.3-1.8.8zm3.8 14.8c.5-.5.8-1.4 1.1-2.6.2-1.2.3-2.8.3-4.8 0-1.1 0-2.2-.1-3.2l-5.2 10.8c.2.2.5.4.8.5.3.1.7.1 1.2.1.8 0 1.4-.3 1.9-.8zm-367 544.8c-1.3 0-2.6-.3-3.7-.8s-2.2-1.3-3.1-2.2c-.9-.9-1.6-2-2.1-3.2-.5-1.2-.8-2.5-.8-3.9s.3-2.7.8-3.9c.5-1.2 1.2-2.3 2.1-3.2.9-.9 1.9-1.7 3.1-2.2s2.4-.8 3.7-.8c1.3 0 2.6.3 3.8.8 1.2.5 2.2 1.3 3.1 2.2.9.9 1.6 2 2.1 3.2.5 1.2.7 2.5.7 3.9s-.2 2.7-.7 3.9c-.5 1.2-1.2 2.3-2.1 3.2-.9.9-1.9 1.7-3.1 2.2-1.2.6-2.5.8-3.8.8zm0-3.4c.9 0 1.7-.2 2.4-.5s1.4-.8 2-1.5 1-1.3 1.3-2.1c.3-.8.5-1.7.5-2.6s-.2-1.8-.5-2.6-.8-1.5-1.4-2.1c-.6-.6-1.2-1.1-2-1.5-.8-.4-1.6-.5-2.4-.5-.9 0-1.7.2-2.4.5-.8.4-1.4.8-2 1.5-.6.6-1 1.3-1.3 2.1-.3.8-.5 1.7-.5 2.6 0 .9.2 1.8.5 2.6s.8 1.5 1.4 2.1c.6.6 1.2 1.1 2 1.5.7.3 1.5.5 2.4.5zm11.5-2.1v-8.8h3.4v7.9c0 .6.1 1.1.4 1.5.3.5.6.8 1.1 1.1.5.3.9.4 1.5.4s1.1-.1 1.5-.4c.4-.3.8-.6 1.1-1.1.3-.5.4-1 .4-1.5v-7.9h3.4v14h-3.4v-1.3c-.5.5-1.1.9-1.7 1.2s-1.4.4-2.1.4c-1 0-1.9-.2-2.8-.7s-1.5-1.2-2-2c-.6-.9-.8-1.8-.8-2.8zm23.1-5.4h-2.7v10.6h-3.4v-10.6h-2.1v-3.4h2.1v-4.4h3.4v4.4h2.7v3.4zm6.4 10.8c-.7 0-1.4-.2-2.1-.4-.7-.2-1.3-.6-1.8-1s-.9-.9-1.2-1.5l2.9-1.2c.1.2.3.4.5.6s.6.4.9.5c.3.1.7.2 1.2.2.4 0 .7 0 1-.1s.6-.2.8-.5c.2-.2.3-.5.3-.8 0-.3-.1-.6-.4-.8-.2-.2-.5-.3-.9-.4-.4-.1-.7-.2-1-.3-.9-.2-1.7-.5-2.5-.8-.8-.4-1.4-.9-1.8-1.4-.5-.6-.7-1.3-.7-2.1 0-.9.2-1.7.7-2.4.5-.7 1.1-1.2 1.9-1.6.8-.4 1.6-.5 2.6-.5 1.1 0 2.1.2 3.1.7s1.7 1.1 2.2 2l-2.7 1.6c-.1-.2-.3-.4-.5-.6-.2-.2-.5-.3-.8-.5s-.6-.2-.9-.2c-.4 0-.8 0-1.1.1-.3.1-.6.3-.8.5s-.3.5-.3.9.1.6.4.8c.3.2.6.3 1 .4.4.1.8.2 1.1.3.8.3 1.6.6 2.3 1 .7.4 1.3.9 1.7 1.4.4.6.6 1.3.6 2 0 .9-.3 1.7-.8 2.4s-1.2 1.2-2.1 1.5c-.9.2-1.8.3-2.8.2zm9.5-16c-.5 0-.9-.2-1.3-.5-.3-.3-.5-.7-.5-1.3 0-.5.2-.9.5-1.2.3-.3.8-.5 1.3-.5s.9.2 1.3.5c.3.3.5.8.5 1.2 0 .5-.2.9-.5 1.3s-.8.5-1.3.5zm-1.7 1.8h3.4v14h-3.4v-14zm17-7h3.4v21h-3.4v-1.8c-.4.6-1 1.1-1.7 1.5-.7.4-1.5.6-2.4.6-1 0-2-.2-2.9-.6s-1.7-.9-2.3-1.6-1.2-1.5-1.6-2.3-.6-1.8-.6-2.9.2-2 .6-2.9c.4-.9.9-1.7 1.6-2.3s1.5-1.2 2.3-1.6 1.8-.6 2.9-.6c.9 0 1.7.2 2.4.6.7.4 1.2.9 1.7 1.5v-8.6zm-4 18c.7 0 1.4-.2 1.9-.5.6-.4 1-.9 1.3-1.5.3-.6.5-1.3.5-2.1s-.2-1.4-.5-2.1c-.3-.6-.8-1.1-1.3-1.5s-1.2-.5-1.9-.5-1.4.2-2 .6c-.6.4-1.1.9-1.4 1.5-.4.6-.5 1.3-.5 2.1s.2 1.4.5 2.1c.4.6.8 1.1 1.4 1.5.6.3 1.3.4 2 .4zm16.7 3.3c-1.3 0-2.5-.3-3.5-1-1.1-.7-1.9-1.6-2.5-2.7s-.9-2.4-.9-3.7c0-1 .2-2 .5-2.9.4-.9.9-1.7 1.5-2.4s1.4-1.2 2.2-1.6c.8-.4 1.8-.6 2.7-.6 1.1 0 2.1.2 3 .7s1.7 1.1 2.3 1.9 1.1 1.7 1.4 2.7c.3 1 .4 2.1.2 3.2h-10.2c.1.5.3 1 .6 1.4.3.4.7.7 1.1 1 .5.2 1 .4 1.6.4.6 0 1.1-.1 1.6-.4.5-.3.9-.7 1.2-1.2l3.5.8c-.6 1.2-1.4 2.3-2.5 3-1.1 1-2.4 1.4-3.8 1.4zm-3.4-8.7h6.9c-.1-.6-.3-1.1-.7-1.5s-.7-.8-1.2-1.1-1-.4-1.6-.4c-.6 0-1.1.1-1.6.4-.5.3-.9.6-1.2 1.1-.3.4-.5.9-.6 1.5zm25.8 8.7c-1.3 0-2.5-.3-3.5-1-1.1-.7-1.9-1.6-2.5-2.7s-.9-2.3-.9-3.7c0-1 .2-2 .5-2.9.4-.9.9-1.7 1.5-2.4s1.4-1.2 2.2-1.6c.8-.4 1.8-.6 2.7-.6 1.3 0 2.5.3 3.5 1 1.1.7 1.9 1.6 2.5 2.7.6 1.1.9 2.4.9 3.7 0 1-.2 2-.5 2.9s-.9 1.7-1.5 2.3c-.6.7-1.4 1.2-2.2 1.6-.8.5-1.7.7-2.7.7zm0-3.4c.7 0 1.3-.2 1.8-.5.5-.4 1-.8 1.3-1.4.3-.6.5-1.3.5-2s-.2-1.4-.5-2c-.3-.6-.8-1.1-1.3-1.4s-1.1-.5-1.8-.5-1.3.2-1.8.5c-.5.4-1 .8-1.3 1.5-.3.6-.5 1.3-.5 2s.2 1.4.5 2c.3.6.8 1.1 1.3 1.4.6.2 1.2.4 1.8.4zm13.5-13.9v2.9h3.8v3.4h-3.8v10.6h-3.4v-10.6h-1.5v-3.4h1.5v-2.9c0-.8.2-1.5.6-2.2.4-.7.9-1.2 1.6-1.6.7-.4 1.4-.6 2.2-.6.6 0 1.2.1 1.8.4.6.2 1.1.6 1.5 1.1l-2.5 2.4c-.1-.2-.2-.3-.4-.4s-.3-.1-.5-.1c-.3 0-.5.1-.7.3-.1.2-.2.5-.2.7zm19.1 17.3c-1.3 0-2.5-.3-3.5-1-1.1-.7-1.9-1.6-2.5-2.7s-.9-2.4-.9-3.7c0-1 .2-2 .5-2.9.4-.9.9-1.7 1.5-2.4s1.4-1.2 2.2-1.6c.8-.4 1.8-.6 2.7-.6 1.1 0 2.1.2 3 .7s1.7 1.1 2.3 1.9 1.1 1.7 1.4 2.7c.3 1 .4 2.1.2 3.2h-10.2c.1.5.3 1 .6 1.4.3.4.7.7 1.1 1 .5.2 1 .4 1.6.4.6 0 1.1-.1 1.6-.4.5-.3.9-.7 1.2-1.2l3.5.8c-.6 1.2-1.4 2.3-2.5 3-1.1 1-2.4 1.4-3.8 1.4zm-3.4-8.7h6.9c-.1-.6-.3-1.1-.7-1.5s-.7-.8-1.2-1.1-1-.4-1.6-.4c-.6 0-1.1.1-1.6.4-.5.3-.9.6-1.2 1.1-.3.4-.5.9-.6 1.5zm10.9 8.4 5.1-7-5.1-7h4.2l3 4.1 3-4.1h4.2l-5.1 7 5.1 7h-4.2l-3-4.1-3 4.1h-4.2zm20 7h-3.4v-21h3.4v1.8c.5-.6 1-1.2 1.7-1.5.7-.4 1.4-.6 2.3-.6 1 0 2 .2 2.9.6s1.7.9 2.3 1.6 1.2 1.5 1.6 2.3c.4.9.6 1.8.6 2.9s-.2 2-.6 2.9c-.4.9-.9 1.7-1.6 2.4-.7.7-1.5 1.2-2.3 1.6-.9.4-1.8.6-2.9.6-.9 0-1.7-.2-2.3-.6-.7-.4-1.2-.9-1.7-1.5v8.5zm4-18.1c-.7 0-1.3.2-1.9.6-.6.4-1 .9-1.3 1.5s-.5 1.3-.5 2 .2 1.4.5 2.1c.3.6.8 1.1 1.3 1.5.6.4 1.2.6 1.9.6s1.4-.2 2-.5c.6-.4 1.1-.9 1.4-1.5.4-.6.5-1.3.5-2.1 0-.7-.2-1.4-.5-2-.4-.6-.8-1.1-1.4-1.5-.6-.5-1.3-.7-2-.7zm15.8 11.4c-1.3 0-2.5-.3-3.5-1-1.1-.7-1.9-1.6-2.5-2.7s-.9-2.4-.9-3.7c0-1 .2-2 .5-2.9.4-.9.9-1.7 1.5-2.4s1.4-1.2 2.2-1.6c.8-.4 1.8-.6 2.7-.6 1.1 0 2.1.2 3 .7s1.7 1.1 2.3 1.9 1.1 1.7 1.4 2.7c.3 1 .4 2.1.2 3.2h-10.2c.1.5.3 1 .6 1.4.3.4.7.7 1.1 1 .5.2 1 .4 1.6.4.6 0 1.1-.1 1.6-.4.5-.3.9-.7 1.2-1.2l3.5.8c-.6 1.2-1.4 2.3-2.5 3-1.1 1-2.4 1.4-3.8 1.4zm-3.4-8.7h6.9c-.1-.6-.3-1.1-.7-1.5s-.7-.8-1.2-1.1-1-.4-1.6-.4c-.6 0-1.1.1-1.6.4-.5.3-.9.6-1.2 1.1-.3.4-.5.9-.6 1.5zm21.3 4.2 3.1 1.7c-.6.9-1.5 1.6-2.4 2.1-1 .5-2 .8-3.2.8-1.3 0-2.5-.3-3.5-1-1.1-.7-1.9-1.6-2.5-2.7s-.9-2.3-.9-3.7c0-1 .2-2 .5-2.9.4-.9.9-1.7 1.5-2.4s1.4-1.2 2.2-1.6c.8-.4 1.8-.6 2.7-.6 1.1 0 2.2.3 3.2.8s1.8 1.2 2.4 2.1l-3.1 1.7c-.3-.4-.7-.7-1.2-.9s-.9-.3-1.4-.3c-.7 0-1.3.2-1.8.6-.5.4-1 .9-1.3 1.5-.3.6-.5 1.3-.5 2s.2 1.4.5 2c.3.6.7 1.1 1.3 1.4.5.4 1.1.5 1.8.5.5 0 .9-.1 1.4-.3.5-.2.9-.5 1.2-.8zm13.1-6.4h-2.7v10.6h-3.4v-10.6h-2.1v-3.4h2.1v-4.4h3.4v4.4h2.7v3.4zm8.4 10.9c-1.3 0-2.5-.3-3.5-1-1.1-.7-1.9-1.6-2.5-2.7s-.9-2.4-.9-3.7c0-1 .2-2 .5-2.9.4-.9.9-1.7 1.5-2.4s1.4-1.2 2.2-1.6c.8-.4 1.8-.6 2.7-.6 1.1 0 2.1.2 3 .7s1.7 1.1 2.3 1.9 1.1 1.7 1.4 2.7c.3 1 .4 2.1.2 3.2h-10.2c.1.5.3 1 .6 1.4.3.4.7.7 1.1 1 .5.2 1 .4 1.6.4.6 0 1.1-.1 1.6-.4.5-.3.9-.7 1.2-1.2l3.5.8c-.6 1.2-1.4 2.3-2.5 3-1.2 1-2.4 1.4-3.8 1.4zm-3.5-8.7h6.9c-.1-.6-.3-1.1-.7-1.5s-.7-.8-1.2-1.1-1-.4-1.6-.4c-.6 0-1.1.1-1.6.4-.5.3-.9.6-1.2 1.1-.2.4-.4.9-.6 1.5zm23.3-12.6h3.4v21h-3.4v-1.8c-.4.6-1 1.1-1.7 1.5-.7.4-1.5.6-2.4.6-1 0-2-.2-2.9-.6s-1.7-.9-2.3-1.6-1.2-1.5-1.6-2.3-.6-1.8-.6-2.9.2-2 .6-2.9c.4-.9.9-1.7 1.6-2.3s1.5-1.2 2.3-1.6 1.8-.6 2.9-.6c.9 0 1.7.2 2.4.6.7.4 1.2.9 1.7 1.5v-8.6zm-4 18c.7 0 1.4-.2 1.9-.5.6-.4 1-.9 1.3-1.5.3-.6.5-1.3.5-2.1s-.2-1.4-.5-2.1c-.3-.6-.8-1.1-1.3-1.5s-1.2-.5-1.9-.5-1.4.2-2 .6c-.6.4-1.1.9-1.4 1.5-.4.6-.5 1.3-.5 2.1s.2 1.4.5 2.1c.4.6.8 1.1 1.4 1.5.6.3 1.3.4 2 .4zm17.5 3v-14h3.4v1.2c.5-.5 1-.9 1.7-1.2.7-.3 1.4-.4 2.1-.4.5 0 1 .1 1.5.2l-1.3 3.4c-.4-.1-.7-.2-1.1-.2-.6 0-1.1.1-1.5.4-.5.3-.8.6-1.1 1.1-.3.5-.4 1-.4 1.5v8h-3.3zm20.3-14h3.4v14h-3.4l-.2-1.7c-.4.6-.9 1.1-1.5 1.5-.6.4-1.4.6-2.2.6-1 0-2-.2-2.9-.6-.9-.4-1.7-.9-2.4-1.6-.7-.7-1.2-1.5-1.6-2.4s-.6-1.9-.6-2.9.2-1.9.6-2.8c.4-.9.9-1.6 1.5-2.3.7-.7 1.4-1.2 2.3-1.6.9-.4 1.8-.6 2.8-.6.9 0 1.8.2 2.5.6.7.4 1.4.9 1.9 1.6l-.2-1.8zm-4 11c.7 0 1.4-.2 1.9-.5.6-.4 1-.9 1.3-1.5.3-.6.5-1.3.5-2.1s-.2-1.4-.5-2.1c-.3-.6-.8-1.1-1.3-1.5s-1.2-.5-1.9-.5-1.4.2-2 .6c-.6.4-1.1.9-1.4 1.5-.4.6-.5 1.3-.5 2.1s.2 1.4.5 2.1c.4.6.8 1.1 1.4 1.5.6.3 1.3.4 2 .4zm23-5.9v8.8h-3.4v-8c0-.6-.1-1.1-.4-1.5-.3-.5-.6-.8-1.1-1.1-.5-.3-1-.4-1.5-.4s-1.1.1-1.5.4c-.5.3-.8.6-1.1 1.1-.3.5-.4 1-.4 1.5v8h-3.4v-14h3.4v1.2c.5-.5 1-.9 1.7-1.2.7-.3 1.4-.4 2.1-.4 1 0 1.9.2 2.8.7.8.5 1.5 1.2 2 2 .6 1 .8 1.9.8 2.9zm12.9-5.1h3.4v14.3c0 1-.2 1.9-.6 2.8-.4.8-1 1.5-1.7 2.1-.7.6-1.5 1.1-2.4 1.4-.9.3-1.9.5-2.9.5s-1.9-.2-2.8-.6c-.9-.4-1.7-1-2.4-1.6s-1.2-1.5-1.6-2.4l3.1-1.4c.2.5.5 1 .8 1.4.4.4.8.7 1.3.9.5.2 1 .3 1.5.3s1.1-.1 1.6-.2 1-.4 1.4-.7c.4-.3.7-.6.9-1 .2-.4.3-.9.3-1.4v-2c-.4.6-1 1.1-1.7 1.5-.7.4-1.4.6-2.3.6-1 0-2-.2-2.8-.6s-1.6-.9-2.3-1.6c-.7-.7-1.2-1.5-1.6-2.3s-.6-1.8-.6-2.9.2-2 .6-2.9c.4-.9.9-1.7 1.6-2.3.7-.7 1.4-1.2 2.3-1.6s1.8-.6 2.8-.6c.9 0 1.6.2 2.3.6.7.4 1.2.9 1.7 1.5v-1.8zm-3.9 11c.7 0 1.4-.2 1.9-.6.6-.4 1-.9 1.3-1.5s.5-1.3.5-2-.2-1.4-.5-2-.8-1.1-1.3-1.5c-.6-.4-1.2-.6-1.9-.6s-1.3.2-1.9.6c-.6.4-1 .9-1.4 1.5-.3.6-.5 1.3-.5 2.1s.2 1.4.5 2.1c.3.6.8 1.1 1.4 1.5.6.3 1.2.4 1.9.4zm16.5 3.3c-1.3 0-2.5-.3-3.5-1-1.1-.7-1.9-1.6-2.5-2.7s-.9-2.4-.9-3.7c0-1 .2-2 .5-2.9.4-.9.9-1.7 1.5-2.4s1.4-1.2 2.2-1.6c.8-.4 1.8-.6 2.7-.6 1.1 0 2.1.2 3 .7s1.7 1.1 2.3 1.9 1.1 1.7 1.4 2.7c.3 1 .4 2.1.2 3.2H1476c.1.5.3 1 .6 1.4.3.4.7.7 1.1 1 .5.2 1 .4 1.6.4.6 0 1.1-.1 1.6-.4.5-.3.9-.7 1.2-1.2l3.5.8c-.6 1.2-1.4 2.3-2.5 3-1.1 1-2.4 1.4-3.8 1.4zm-3.4-8.7h6.9c-.1-.6-.3-1.1-.7-1.5s-.7-.8-1.2-1.1-1-.4-1.6-.4c-.6 0-1.1.1-1.6.4-.5.3-.9.6-1.2 1.1-.3.4-.5.9-.6 1.5zm-355.5-19-17.4 30.1h34.8m-17.4-23.7 11.9 20.6h-23.8m10.3-14.3v6.3h3.2v-6.3m-3.2 9.5v3.2h3.2v-3.2"/><path fill="#EAEAEA" d="M800 93.2h705V221H800z"/><path d="M788.5 266.6v3.9h-14.8v-3.9h5.5v-13.7l-4.7 2.9-2.2-3.6 7.3-4.5h4.6v18.8h4.3zm16-18c1.2.9 2.1 2.3 2.8 4.1s.9 3.9.9 6.4c0 2.5-.3 4.7-.9 6.5-.6 1.8-1.5 3.2-2.8 4.1-1.2.9-2.7 1.4-4.5 1.4s-3.3-.5-4.5-1.4c-1.2-.9-2.2-2.3-2.8-4.1-.6-1.8-.9-3.9-.9-6.5 0-2.5.3-4.6.9-6.4s1.5-3.1 2.8-4.1c1.2-.9 2.7-1.4 4.5-1.4 1.8 0 3.3.5 4.5 1.4zm-6.4 3.2c-.5.5-.8 1.4-1.1 2.6s-.4 2.8-.4 4.7c0 1.9.1 3.4.2 4.6l5.5-11.6c-.3-.4-.6-.7-1-.9s-.9-.2-1.4-.2c-.7 0-1.3.2-1.8.8zm3.8 14.8c.5-.5.8-1.4 1.1-2.6.2-1.2.3-2.8.3-4.8 0-1.1 0-2.2-.1-3.2l-5.2 10.8c.2.2.5.4.8.5.3.1.7.1 1.2.1.8 0 1.4-.3 1.9-.8zm22.3-18c1.2.9 2.1 2.3 2.8 4.1.6 1.8.9 3.9.9 6.4 0 2.5-.3 4.7-.9 6.5-.6 1.8-1.5 3.2-2.8 4.1-1.2.9-2.7 1.4-4.5 1.4s-3.3-.5-4.5-1.4c-1.2-.9-2.2-2.3-2.8-4.1-.6-1.8-.9-3.9-.9-6.5 0-2.5.3-4.6.9-6.4.6-1.8 1.5-3.1 2.8-4.1 1.2-.9 2.7-1.4 4.5-1.4 1.8 0 3.3.5 4.5 1.4zm-6.4 3.2c-.5.5-.8 1.4-1.1 2.6s-.4 2.8-.4 4.7c0 1.9.1 3.4.2 4.6l5.5-11.6c-.3-.4-.6-.7-1-.9s-.9-.2-1.4-.2c-.7 0-1.3.2-1.8.8zm3.8 14.8c.5-.5.8-1.4 1.1-2.6.2-1.2.3-2.8.3-4.8 0-1.1 0-2.2-.1-3.2l-5.2 10.8c.2.2.5.4.8.5.3.1.7.1 1.2.1.8 0 1.4-.3 1.9-.8z"/></svg>