<?xml version="1.0" encoding="UTF-8"?>
<svg id="Layer_1" data-name="Layer 1" xmlns="http://www.w3.org/2000/svg" viewBox="0 0 1600 900">
  <rect width="1600" height="900" fill="#212142" stroke-width="0"/>
  <g>
    <path d="M137.04,408.81H-63.88c-2.76,0-5-2.24-5-5v-64.67c0-1.42.6-2.77,1.66-3.72l111.85-100.46c5.49-4.96,11.1-10.71,16.66-17.06,4.91-5.62,7.3-11.99,7.3-19.48,0-8.22-2.84-14.45-8.67-19.05-6.21-4.89-13.31-7.26-21.71-7.26-10,0-17.5,2.92-22.93,8.93-5.66,6.27-8.77,13.81-9.5,23.07-.22,2.74-2.61,4.78-5.35,4.59l-61.01-4.47c-2.72-.2-4.78-2.54-4.63-5.26.85-15.53,4.17-29.25,9.87-40.78,5.71-11.57,13.41-21.36,22.87-29.11,9.42-7.7,20.6-13.55,33.24-17.39,12.48-3.79,26.17-5.71,40.7-5.71,13.47,0,26.31,1.93,38.13,5.73,11.95,3.84,22.52,9.64,31.41,17.23,8.94,7.65,16.03,17.35,21.06,28.84,5,11.44,7.54,24.84,7.54,39.83,0,9.58-1.01,18.41-3,26.24-2,7.84-4.82,15.08-8.41,21.53-3.57,6.42-7.82,12.4-12.64,17.79-4.72,5.27-9.91,10.46-15.43,15.43-.03.02-.06.05-.08.07l-77.23,66.45h114.23c2.76,0,5,2.24,5,5v53.69c0,2.76-2.24,5-5,5ZM-58.88,398.81h190.92v-43.69H9.33c-2.09,0-3.96-1.3-4.69-3.26-.73-1.96-.16-4.17,1.43-5.53l87.4-75.21c5.24-4.72,10.16-9.64,14.63-14.63,4.32-4.83,8.14-10.21,11.35-15.98,3.16-5.7,5.67-12.14,7.46-19.14,1.79-7.03,2.69-15.03,2.69-23.78,0-13.6-2.25-25.65-6.7-35.82-4.42-10.09-10.61-18.59-18.39-25.25-7.87-6.72-17.28-11.87-27.97-15.31-10.84-3.48-22.64-5.25-35.07-5.25-13.55,0-26.26,1.77-37.8,5.28-11.38,3.45-21.41,8.69-29.81,15.56-8.35,6.83-15.16,15.51-20.24,25.8-4.5,9.11-7.35,19.86-8.48,32.01l51.27,3.76c1.56-9.28,5.4-17.35,11.45-24.05,7.33-8.11,17.54-12.22,30.35-12.22,10.59,0,19.97,3.17,27.9,9.41,8.28,6.54,12.48,15.59,12.48,26.91,0,9.88-3.29,18.65-9.78,26.07-5.82,6.65-11.7,12.67-17.49,17.91l-110.2,98.98v57.44Z" fill="#694cd3" stroke-width="0"/>
    <path d="M277.36,413.69c-22.31,0-41.02-4.86-55.62-14.45-14.45-9.49-26.02-21.92-34.37-36.93-8.24-14.79-14.04-31.47-17.23-49.55-3.15-17.81-4.75-35.62-4.75-52.93s1.6-35.11,4.75-52.93c3.19-18.08,8.99-34.75,17.23-49.55,8.35-15,19.91-27.43,34.36-36.93,14.6-9.59,33.31-14.45,55.62-14.45s41.02,4.86,55.62,14.45c14.44,9.49,26.01,21.92,34.36,36.93,8.23,14.8,14.03,31.47,17.23,49.55,3.15,17.86,4.75,35.66,4.75,52.93s-1.6,35.08-4.75,52.93c-3.2,18.09-9,34.76-17.23,49.55-8.36,15.02-19.92,27.44-34.36,36.93-14.6,9.59-33.31,14.45-55.62,14.45ZM277.36,115.97c-20.33,0-37.19,4.31-50.13,12.8-13.09,8.6-23.56,19.85-31.12,33.43-7.7,13.83-13.12,29.45-16.12,46.43-3.05,17.25-4.6,34.47-4.6,51.19s1.55,33.94,4.6,51.19c3,16.99,8.42,32.61,16.12,46.43,7.56,13.59,18.03,24.84,31.12,33.44,12.94,8.5,29.8,12.8,50.13,12.8s37.19-4.31,50.13-12.8c13.08-8.59,23.55-19.84,31.12-33.43,7.69-13.82,13.11-29.44,16.12-46.43,3.05-17.27,4.6-34.5,4.6-51.19s-1.55-33.91-4.6-51.19c-3.01-16.98-8.43-32.6-16.12-46.43-7.56-13.59-18.03-24.83-31.12-33.43-12.94-8.5-29.8-12.8-50.13-12.8ZM277.36,357.56c-12.54,0-22.48-3.98-29.54-11.82-6.56-7.29-11.51-16.27-14.69-26.69-3.09-10.08-5-20.73-5.7-31.65-.68-10.6-1.03-19.87-1.03-27.57s.35-16.97,1.03-27.57c.69-10.91,2.61-21.56,5.7-31.65,3.18-10.41,8.12-19.39,14.69-26.69,7.07-7.85,17.01-11.82,29.54-11.82s22.1,3.96,29.3,11.78c6.72,7.3,11.74,16.3,14.93,26.73,3.08,10.09,5,20.74,5.7,31.65.68,10.69,1.03,19.96,1.03,27.57s-.35,16.88-1.03,27.57c-.7,10.91-2.62,21.56-5.7,31.65-3.2,10.45-8.22,19.44-14.93,26.74-7.19,7.82-17.05,11.78-29.3,11.78ZM277.36,172.1c-9.72,0-16.95,2.79-22.11,8.51-5.58,6.21-9.81,13.92-12.56,22.92-2.86,9.35-4.64,19.22-5.28,29.36-.67,10.39-1.01,19.45-1.01,26.93s.34,16.54,1.01,26.93c.65,10.14,2.42,20.02,5.28,29.36,2.75,9.02,6.98,16.73,12.56,22.93,5.16,5.73,12.39,8.51,22.11,8.51s16.65-2.8,21.94-8.55c5.69-6.18,9.97-13.88,12.73-22.89,2.85-9.35,4.63-19.23,5.28-29.36.67-10.47,1.01-19.53,1.01-26.93s-.34-16.46-1.01-26.93c-.65-10.13-2.43-20.01-5.28-29.36-2.75-8.99-7.03-16.69-12.73-22.88-5.3-5.75-12.48-8.55-21.94-8.55Z" fill="#694cd3" stroke-width="0"/>
    <path d="M618.59,408.81h-200.92c-2.76,0-5-2.24-5-5v-64.67c0-1.42.6-2.77,1.66-3.72l111.85-100.46c5.49-4.96,11.1-10.71,16.66-17.06,4.91-5.62,7.3-11.99,7.3-19.48,0-8.22-2.84-14.45-8.67-19.05-6.21-4.89-13.31-7.26-21.71-7.26-10,0-17.5,2.92-22.93,8.93-5.66,6.27-8.77,13.81-9.5,23.07-.22,2.74-2.6,4.78-5.35,4.59l-61.01-4.47c-2.72-.2-4.78-2.54-4.63-5.26.85-15.53,4.17-29.25,9.87-40.78,5.71-11.57,13.41-21.36,22.87-29.11,9.42-7.7,20.6-13.55,33.24-17.39,12.48-3.79,26.17-5.71,40.7-5.71,13.47,0,26.31,1.93,38.13,5.73,11.95,3.84,22.52,9.64,31.41,17.23,8.94,7.65,16.03,17.35,21.06,28.84,5,11.44,7.54,24.84,7.54,39.83,0,9.58-1.01,18.41-3,26.24-2,7.84-4.82,15.08-8.41,21.53-3.57,6.42-7.82,12.4-12.64,17.79-4.72,5.27-9.91,10.46-15.43,15.43-.03.02-.06.05-.08.07l-77.23,66.45h114.23c2.76,0,5,2.24,5,5v53.69c0,2.76-2.24,5-5,5ZM422.67,398.81h190.92v-43.69h-122.71c-2.09,0-3.96-1.3-4.69-3.26-.73-1.96-.16-4.17,1.43-5.53l87.4-75.21c5.24-4.72,10.16-9.64,14.63-14.63,4.32-4.83,8.14-10.21,11.35-15.98,3.16-5.7,5.67-12.14,7.46-19.14,1.79-7.03,2.69-15.03,2.69-23.78,0-13.6-2.25-25.65-6.7-35.82-4.42-10.09-10.61-18.59-18.39-25.25-7.87-6.72-17.28-11.87-27.97-15.31-10.84-3.48-22.64-5.25-35.07-5.25-13.55,0-26.26,1.77-37.8,5.28-11.38,3.45-21.41,8.69-29.81,15.56-8.35,6.83-15.16,15.51-20.24,25.8-4.5,9.11-7.35,19.86-8.48,32.01l51.27,3.76c1.56-9.28,5.4-17.35,11.45-24.05,7.33-8.11,17.54-12.22,30.35-12.22,10.59,0,19.97,3.17,27.9,9.41,8.28,6.54,12.48,15.59,12.48,26.91,0,9.88-3.29,18.65-9.78,26.07-5.82,6.65-11.7,12.67-17.49,17.91l-110.2,98.98v57.44Z" fill="#694cd3" stroke-width="0"/>
    <path d="M754.84,413.69c-26.62,0-49.91-6.29-69.2-18.69-19.63-12.6-32.74-32.66-38.98-59.61-.62-2.69,1.05-5.37,3.73-6l64.26-15.05c1.31-.31,2.69-.07,3.83.65,1.14.72,1.93,1.87,2.21,3.19,1.93,9.2,5.86,16.5,11.66,21.71,5.67,5.09,14.46,7.67,26.15,7.67s20.45-2.95,25.81-8.76c5.54-6.02,8.23-13.62,8.23-23.25,0-6.98-1.37-12.33-4.07-15.9-2.85-3.76-6.48-6.49-11.09-8.34-4.9-1.96-10.54-3.14-16.74-3.51-6.64-.4-13.38-.6-20.04-.6h-14.24c-2.76,0-5-2.24-5-5v-52.87c0-2.76,2.24-5,5-5h19.93c5.41,0,10.77-.39,15.93-1.17,4.86-.73,9.33-2.13,13.3-4.18,3.72-1.91,6.61-4.53,8.86-8.03,2.17-3.36,3.27-7.99,3.27-13.76,0-7.17-2.8-12.96-8.55-17.7-6.05-4.98-13.32-7.4-22.24-7.4-8.36,0-15.04,2.15-20.41,6.58-5.44,4.5-8.89,9.88-10.53,16.47-.65,2.6-3.24,4.23-5.86,3.69l-67.11-13.83c-1.34-.28-2.51-1.09-3.24-2.26-.72-1.16-.94-2.58-.59-3.9,3.4-13.03,8.6-24.35,15.46-33.63,6.87-9.29,15.15-16.92,24.61-22.66,9.35-5.66,19.9-9.9,31.35-12.59,11.31-2.65,23.39-4,35.92-4s25.91,1.63,38.08,4.84c12.36,3.27,23.4,8.47,32.82,15.46,9.51,7.07,17.18,16.05,22.79,26.69,5.64,10.71,8.51,23.54,8.51,38.12,0,17.01-4.57,31.83-13.58,44.05-6.2,8.39-14.33,14.79-24.29,19.13,3.26,1.26,6.35,2.77,9.25,4.55,7.12,4.36,13.25,9.83,18.22,16.26,4.94,6.4,8.77,13.76,11.38,21.86,2.59,8.06,3.9,16.64,3.9,25.53,0,15.1-2.99,28.59-8.89,40.1-5.88,11.47-13.88,21.13-23.78,28.73-9.82,7.55-21.48,13.24-34.64,16.92-13,3.63-26.94,5.47-41.41,5.47ZM657.62,337.97c6,21.88,17.23,38.22,33.42,48.62,17.66,11.35,39.12,17.1,63.79,17.1,13.56,0,26.59-1.72,38.72-5.1,11.93-3.33,22.44-8.45,31.24-15.21,8.72-6.69,15.77-15.22,20.97-25.36,5.17-10.09,7.79-22.05,7.79-35.54,0-7.85-1.15-15.4-3.42-22.47-2.25-7-5.54-13.33-9.77-18.81-4.22-5.46-9.45-10.12-15.53-13.84-6-3.67-13.06-6.04-20.99-7.03-2.5-.31-4.38-2.44-4.38-4.96v-1.22c0-2.38,1.67-4.43,4-4.9,14.88-3.03,25.86-9.58,33.58-20.03,7.72-10.46,11.63-23.28,11.63-38.11,0-12.94-2.47-24.2-7.35-33.46-4.91-9.31-11.61-17.16-19.91-23.33-8.39-6.23-18.29-10.88-29.41-13.82-11.34-2.99-23.29-4.51-35.53-4.51s-23.07,1.26-33.63,3.73c-10.42,2.45-20,6.29-28.45,11.41-8.34,5.06-15.66,11.81-21.75,20.05-5.2,7.05-9.35,15.49-12.37,25.15l57.4,11.83c2.51-6.65,6.67-12.4,12.44-17.16,7.13-5.89,16.14-8.87,26.77-8.87,11.18,0,20.8,3.26,28.6,9.68,8.09,6.66,12.19,15.21,12.19,25.42,0,7.72-1.64,14.18-4.87,19.18-3.18,4.94-7.45,8.8-12.69,11.5-4.93,2.54-10.45,4.28-16.39,5.18-5.65.85-11.51,1.28-17.42,1.28h-14.93v42.87h9.24c6.86,0,13.8.21,20.64.62,7.27.44,13.95,1.85,19.86,4.21,6.26,2.51,11.42,6.41,15.35,11.59,4.05,5.35,6.1,12.73,6.1,21.93,0,12.08-3.66,22.19-10.88,30.03-7.33,7.95-18.49,11.98-33.17,11.98s-25.28-3.44-32.83-10.23c-6.3-5.65-10.84-13.08-13.52-22.13l-54.53,12.77Z" fill="#694cd3" stroke-width="0"/>
  </g>
  <g>
    <path d="M929.62,725.46h-114.23l77.23-66.45s.06-.05.08-.07c5.51-4.96,10.7-10.15,15.43-15.43,4.82-5.38,9.07-11.37,12.64-17.79,3.58-6.45,6.41-13.69,8.41-21.53,1.99-7.84,3-16.67,3-26.24,0-14.99-2.54-28.39-7.54-39.83-5.03-11.49-12.11-21.19-21.06-28.84-8.89-7.59-19.45-13.38-31.41-17.23-11.83-3.8-24.66-5.73-38.13-5.73-14.53,0-28.22,1.92-40.7,5.71-12.64,3.83-23.82,9.68-33.24,17.39-9.47,7.75-17.16,17.54-22.87,29.11-5.7,11.53-9.02,25.25-9.87,40.78-.15,2.72,1.91,5.06,4.63,5.26l61.01,4.47c2.74.22,5.13-1.85,5.35-4.59.73-9.26,3.84-16.8,9.5-23.07,5.43-6.01,12.93-8.93,22.93-8.93,8.4,0,15.51,2.38,21.71,7.26,5.83,4.6,8.67,10.84,8.67,19.05,0,7.49-2.39,13.87-7.3,19.49-5.57,6.36-11.18,12.1-16.66,17.06l-111.85,100.46c-1.06.95-1.66,2.3-1.66,3.72v64.67c0,2.76,2.24,5,5,5h200.92c2.76,0,5-2.24,5-5v-53.69c0-2.76-2.24-5-5-5Z" fill="#4ad854" stroke-width="0"/>
    <path d="M1159.92,537.68c-8.36-15.01-19.92-27.43-34.36-36.93-14.6-9.59-33.31-14.45-55.62-14.45s-41.02,4.86-55.62,14.45c-14.45,9.5-26.01,21.92-34.36,36.93-8.24,14.8-14.04,31.47-17.23,49.55-3.15,17.83-4.75,35.63-4.75,52.93s1.6,35.11,4.75,52.93c3.2,18.09,8.99,34.76,17.23,49.55,8.35,15.01,19.91,27.44,34.37,36.93,14.6,9.58,33.31,14.44,55.62,14.44s41.02-4.86,55.62-14.44c14.45-9.49,26.01-21.91,34.36-36.93,8.23-14.79,14.03-31.46,17.23-49.55,3.15-17.85,4.75-35.66,4.75-52.93s-1.6-35.08-4.75-52.93c-3.2-18.08-9-34.75-17.23-49.55ZM1028.98,640.17c0-7.48.34-16.54,1.01-26.93.65-10.14,2.42-20.02,5.28-29.36,2.75-9,6.98-16.72,12.56-22.92,5.16-5.73,12.39-8.51,22.11-8.51s16.64,2.8,21.94,8.55c5.69,6.19,9.98,13.89,12.73,22.89,2.85,9.35,4.63,19.23,5.28,29.36.67,10.47,1.01,19.54,1.01,26.93s-.34,16.45-1.01,26.93c-.65,10.13-2.43,20.01-5.28,29.36-2.75,9-7.04,16.7-12.73,22.89-5.3,5.76-12.48,8.55-21.94,8.55s-16.96-2.78-22.11-8.51c-5.58-6.2-9.81-13.91-12.56-22.93-2.86-9.34-4.64-19.22-5.28-29.36-.67-10.39-1.01-19.45-1.01-26.93Z" fill="#4ad854" stroke-width="0"/>
    <path d="M1411.17,725.46h-114.23l77.23-66.45s.06-.05.08-.07c5.51-4.96,10.7-10.15,15.43-15.43,4.82-5.38,9.07-11.37,12.64-17.79,3.58-6.45,6.41-13.69,8.41-21.53,1.99-7.84,3-16.67,3-26.24,0-14.99-2.54-28.39-7.54-39.83-5.03-11.49-12.11-21.19-21.06-28.84-8.89-7.59-19.45-13.38-31.41-17.23-11.83-3.8-24.66-5.73-38.13-5.73-14.53,0-28.22,1.92-40.7,5.71-12.64,3.83-23.82,9.68-33.24,17.39-9.47,7.75-17.16,17.54-22.87,29.11-5.7,11.53-9.02,25.25-9.86,40.78-.15,2.72,1.91,5.06,4.63,5.26l61.01,4.47c2.75.21,5.13-1.85,5.35-4.59.73-9.26,3.84-16.8,9.5-23.07,5.43-6.01,12.93-8.93,22.93-8.93,8.4,0,15.51,2.38,21.71,7.26,5.83,4.6,8.67,10.84,8.67,19.05,0,7.49-2.39,13.87-7.3,19.49-5.57,6.36-11.18,12.1-16.66,17.06l-111.85,100.46c-1.06.95-1.66,2.3-1.66,3.72v64.67c0,2.76,2.24,5,5,5h200.92c2.76,0,5-2.24,5-5v-53.69c0-2.76-2.24-5-5-5Z" fill="#4ad854" stroke-width="0"/>
    <path d="M1662.12,670.14h-32.01v-173.96c0-2.76-2.24-5-5-5h-66.7c-1.68,0-3.25.85-4.18,2.25l-117.54,178.96c-.54.82-.82,1.77-.82,2.75v51.25c0,2.76,2.24,5,5,5h120.68v52.75c0,2.76,2.24,5,5,5h58.57c2.76,0,5-2.24,5-5v-52.75h32.01c2.76,0,5-2.24,5-5v-51.25c0-2.76-2.24-5-5-5ZM1511.03,670.14l50.51-78.49v78.49h-50.51Z" fill="#4ad854" stroke-width="0"/>
  </g>
  <path d="M603,541.97H128.16l56.67-36.09c2.33-1.48,3.03-4.58,1.54-6.9-.96-1.49-2.58-2.31-4.23-2.31-.92,0-1.85.25-2.69.78l-71.14,45.31c-1.43.92-2.31,2.51-2.31,4.22s.88,3.3,2.31,4.22l71.14,45.31c2.31,1.46,5.43.79,6.91-1.53,1.48-2.32.79-5.42-1.54-6.9l-56.67-36.09h474.84c2.76,0,5-2.24,5-5s-2.24-5-5-5Z" fill="#4ad854" stroke-width="0"/>
  <path d="M1460,347.97h-474.84l56.67-36.09c2.33-1.48,3.03-4.58,1.54-6.9-.96-1.49-2.58-2.31-4.23-2.31-.92,0-1.85.25-2.69.78l-71.14,45.31c-1.43.92-2.31,2.51-2.31,4.22s.88,3.3,2.31,4.22l71.14,45.31c2.31,1.46,5.43.79,6.91-1.53,1.48-2.32.79-5.42-1.54-6.9l-56.67-36.09h474.84c2.76,0,5-2.24,5-5s-2.24-5-5-5Z" fill="#694cd3" stroke-width="0"/>
</svg>