<?xml version="1.0" encoding="utf-8"?>
<svg xmlns="http://www.w3.org/2000/svg">
<symbol id="instagram" viewBox="0 0 50 50">
  <path d="M26.9 0c5.1 0 6 0 8.4.1 2.7.1 4.5.5 6.1 1.2 1.6.6 3 1.5 4.4 2.9S48 7 48.7 8.6c.6 1.6 1 3.4 1.2 6.1.1 2.7.1 3.5.1 10.3s0 7.6-.2 10.3c-.1 2.7-.5 4.5-1.2 6.1-.6 1.6-1.5 3-2.9 4.4S43 48 41.4 48.7c-1.6.6-3.4 1-6.1 1.2-2.7.1-3.5.1-10.3.1s-7.6 0-10.3-.2c-2.7-.1-4.5-.5-6.1-1.2-1.6-.6-3-1.5-4.4-2.9S2 43 1.3 41.4C.7 39.8.3 38 .1 35.3 0 32.9 0 32 0 26.9v-3.8c0-5.1 0-6 .1-8.4.1-2.7.5-4.5 1.2-6.1.7-1.6 1.5-3 2.9-4.4S7 2 8.6 1.3C10.2.7 12 .3 14.7.1 17.1 0 18 0 23.1 0h3.8zM25 4.5c-6.7 0-7.5 0-10.1.1-2.4.1-3.8.5-4.6.9-1.2.5-2 1-2.9 1.9S6 9.1 5.5 10.3c-.3.9-.7 2.2-.9 4.6-.1 2.6-.1 3.4-.1 10.1s0 7.5.1 10.1c.1 2.4.5 3.8.9 4.6.5 1.2 1 2 1.9 2.9s1.7 1.4 2.9 1.9c.9.3 2.2.8 4.6.9 2.4.1 3.2.1 8.2.1h3.8c5 0 5.8 0 8.2-.1 2.4-.1 3.8-.5 4.6-.9 1.2-.5 2-1 2.9-1.9s1.4-1.7 1.9-2.9c.3-.9.8-2.2.9-4.6.1-2.4.1-3.2.1-8.2v-3.8c0-5 0-5.8-.1-8.2-.1-2.4-.5-3.8-.9-4.6-.5-1.2-1-2-1.9-2.9S40.9 6 39.7 5.5c-.9-.3-2.2-.8-4.6-.9-2.6-.1-3.4-.1-10.1-.1z"/>
  <path d="M25 12.2c7.1 0 12.8 5.7 12.8 12.8 0 7.1-5.7 12.8-12.8 12.8S12.2 32.1 12.2 25c0-7.1 5.7-12.8 12.8-12.8zm0 4.5c-4.6 0-8.3 3.7-8.3 8.3 0 4.6 3.7 8.3 8.3 8.3 4.6 0 8.3-3.7 8.3-8.3 0-4.6-3.7-8.3-8.3-8.3zM41.3 11.7c0 1.7-1.3 3-3 3s-3-1.3-3-3 1.3-3 3-3 3 1.3 3 3"/>

</symbol>
<symbol id="facebook" viewBox="0 0 28 50">
  <path d="M27.5 9.5h-7.7c-.9 0-1.9 1.2-1.9 2.9v4.9h9.6v9.6h-9.6V50H8.2V26.9H.5v-9.6h7.7v-4.8C8.2 5.6 13.4 0 19.8 0h7.7v9.5z"/>

</symbol>
<symbol id="github" viewBox="0 0 32.6 31.8">
  <path d="M16.3 0C7.3 0 0 7.3 0 16.3c0 7.2 4.7 13.3 11.1 15.5.8.1 1.1-.4 1.1-.8v-2.8c-4.5 1-5.5-2.2-5.5-2.2-.7-1.9-1.8-2.4-1.8-2.4-1.5-1 .1-1 .1-1 1.6.1 2.5 1.7 2.5 1.7 1.5 2.5 3.8 1.8 4.7 1.4.1-1.1.6-1.8 1-2.2-3.6-.4-7.4-1.8-7.4-8.1 0-1.8.6-3.2 1.7-4.4-.1-.3-.7-2 .2-4.2 0 0 1.4-.4 4.5 1.7 1.3-.4 2.7-.5 4.1-.5 1.4 0 2.8.2 4.1.5 3.1-2.1 4.5-1.7 4.5-1.7.9 2.2.3 3.9.2 4.3 1 1.1 1.7 2.6 1.7 4.4 0 6.3-3.8 7.6-7.4 8 .6.5 1.1 1.5 1.1 3V31c0 .4.3.9 1.1.8 6.5-2.2 11.1-8.3 11.1-15.5C32.6 7.3 25.3 0 16.3 0z"/>

</symbol>
<symbol id="icon-dark" viewBox="0 0 106.3 76.6"><path d="M57.2 67.7c-17.4 0-31.5-14.1-31.5-31.5 0-12.7 7.5-24.1 19.2-29 .9-.4 1.8-.2 2.6.4.7.6 1.1 1.5.9 2.4-.4 2-.6 4.1-.6 6.2 0 16.8 13.7 30.5 30.5 30.5 1.6 0 3.2-.1 4.7-.4.9-.1 1.8.2 2.4 1 .6.7.6 1.7.2 2.6-5.2 10.8-16.4 17.8-28.4 17.8zM42.8 13.9C35.3 18.7 30.7 27 30.7 36.1c0 14.6 11.9 26.5 26.5 26.5 8.5 0 16.6-4.2 21.5-11h-.5c-19.6 0-35.5-15.9-35.5-35.5 0-.7 0-1.4.1-2.2zM95.5 1.9l1.7 8.4c.1.3.3.6.6.7l7.9 3.4c.8.3.8 1.4.1 1.8l-7.5 4.2c-.3.2-.5.5-.5.8l-.8 8.6c-.1.8-1.1 1.2-1.7.6L89 24.6c-.2-.2-.6-.3-.9-.2l-8.4 1.9c-.8.2-1.5-.6-1.1-1.4l3.6-7.8c.1-.3.1-.6 0-.9l-4.4-7.4c-.4-.7.2-1.6 1-1.5l8.5 1c.3 0 .7-.1.9-.3l5.7-6.4c.5-.8 1.5-.5 1.6.3zM8.5 56.1l4 4.1c.2.2.5.3.8.3l5.6-.9c.7-.1 1.3.6.9 1.3l-2.7 5c-.1.3-.1.6 0 .8l2.6 5.1c.3.7-.2 1.4-.9 1.3l-5.6-1c-.3-.1-.6 0-.8.2l-4 4.1c-.5.5-1.4.2-1.5-.5l-.8-5.7c0-.3-.2-.5-.5-.7L.5 67c-.7-.3-.6-1.3 0-1.6l5.1-2.5c.3-.1.4-.4.5-.7l.9-5.6c.1-.7 1-1 1.5-.5zM19.4.7l.9 5.1c0 .3.2.5.5.6l4.7 2.1c.6.3.6 1.1.1 1.4l-4.5 2.5c-.2.1-.4.4-.4.6l-.6 5c-.1.7-.9.9-1.3.5L15 15c-.2-.2-.5-.3-.7-.2l-5 1.1c-.6.1-1.2-.5-.9-1.1l2.2-4.6c.1-.2.1-.5 0-.7L8 4.9c-.3-.6.2-1.3.8-1.2l5.1.7c.3 0 .5-.1.7-.3L18 .3c.5-.5 1.3-.3 1.4.4z"/>
</symbol>
<symbol id="icon-light" viewBox="0 0 106.3 76.6"><path fill="none" d="M81.7 41.2c-.1 0-3.2 0-5 1.9-.9 1-2.5 1.1-3.5.1-1-.9-1.1-2.5-.1-3.5 1.6-1.7 3.5-2.5 5.2-3-2.7-2.8-6.5-4.5-10.5-4.5-7.3 0-13.3 5.4-14.3 12.4 3.7.9 7 3.1 9.2 6.4.8 1.1.5 2.7-.7 3.5-1.1.8-2.7.5-3.5-.7-2-2.9-5.2-4.6-8.7-4.6-5.8 0-10.5 4.7-10.5 10.5S44 70.2 49.8 70.2h32c8 0 14.5-6.5 14.5-14.5s-6.6-14.5-14.6-14.5zM51.4 36.1C50 31.1 45 28 39.9 29c-5.4 1.1-8.9 6.3-7.8 11.7.8 3.8 3.6 6.7 7.1 7.7 2.5-2.3 5.7-3.8 9.2-4.1.4-3 1.4-5.8 3-8.2z"/><path d="M34 16.4c.3 1.5 1.7 2.5 3.2 2.2 1.5-.3 2.5-1.7 2.2-3.2L37.2 4.2C36.9 2.7 35.5 1.7 34 2c-1.5.3-2.5 1.7-2.2 3.2L34 16.4zM22.2 31.9c.5-1.4-.3-3-1.7-3.5L9.6 24.7c-1.4-.5-3 .3-3.5 1.7s.3 3 1.7 3.5l10.9 3.7c1.5.5 3-.3 3.5-1.7zM25.7 51.9c-1-1.1-2.7-1.3-3.9-.3l-8.2 7.2c-1.1 1-1.3 2.7-.3 3.9 1 1.1 2.7 1.3 3.9.3l8.2-7.2c1.2-1.1 1.3-2.8.3-3.9zM60.8 24.8l7.9-6.9c1.1-1 1.3-2.7.3-3.9-1-1.1-2.7-1.3-3.9-.3l-7.9 6.9c-1.1 1-1.3 2.7-.3 3.9 1 1.1 2.8 1.3 3.9.3z"/><path d="M84.1 36.3c-.1-.2-.2-.5-.3-.7-3.6-5.3-9.6-8.4-16.1-8.4-4.6 0-8.9 1.6-12.2 4.4-3.1-5.9-9.8-9.3-16.7-7.9-8.4 1.7-13.8 9.8-12.2 18.2 1 5.2 4.6 9.3 9.1 11.2-1 2-1.5 4.3-1.5 6.7 0 8.5 7 15.5 15.5 15.5h32c10.8 0 19.5-8.7 19.5-19.5 0-10.1-7.5-18.3-17.1-19.5zM32 40.7c-1-5.4 2.5-10.6 7.9-11.7 5.1-1 10.1 2.1 11.5 7.1-1.6 2.4-2.6 5.2-3 8.2-3.5.3-6.8 1.8-9.2 4.1-3.5-1-6.4-3.9-7.2-7.7zm49.7 29.5h-32c-5.8 0-10.5-4.7-10.5-10.5s4.7-10.5 10.5-10.5c3.5 0 6.7 1.7 8.7 4.6.8 1.1 2.3 1.4 3.5.7 1.1-.8 1.4-2.3.7-3.5-2.2-3.2-5.5-5.5-9.2-6.4 1-7 7-12.4 14.3-12.4 4 0 7.7 1.7 10.5 4.5-1.7.5-3.6 1.3-5.2 3-.9 1-.9 2.6.1 3.5 1 .9 2.6.9 3.5-.1 1.8-1.9 5-1.9 5-1.9 8 0 14.5 6.5 14.5 14.5s-6.4 14.5-14.4 14.5z"/>
</symbol>
<symbol id="linkedin" viewBox="0 0 50 49">
  <path d="M50 48.3H39.3V30.8c0-4.4-1.6-7.4-5.4-7.4-3 0-4.7 2-5.5 4-.3.7-.4 1.7-.4 2.6v18.2H17.3s.1-29.5 0-32.6H28v4.6c1.4-2.2 4-5.4 9.7-5.4 7.1 0 12.3 4.7 12.3 14.7v18.8zM.6 48.3h10.8V15.7H.6zM6 11.3c-3.7 0-6-2.5-6-5.6C0 2.4 2.4 0 6.1 0c3.7 0 5.9 2.4 6 5.6 0 3.2-2.4 5.7-6.1 5.7z"/>

</symbol>
<symbol id="logo-horizontal-text" viewBox="0 0 956.11 93"><path d="M41.28 93c-5.68 0-11.02-1.13-16.02-3.39-5-2.26-9.39-5.39-13.17-9.39-3.78-4-6.74-8.63-8.88-13.89C1.07 61.07 0 55.44 0 49.44c0-6.04 1.07-11.69 3.21-16.95 2.14-5.26 5.1-9.88 8.88-13.86 3.78-3.98 8.17-7.1 13.17-9.36S35.6 5.88 41.28 5.88c6.8 0 13.06 1.57 18.78 4.71 5.72 3.14 10.46 7.33 14.22 12.57l-14.76 7.98c-2.24-2.64-4.94-4.75-8.1-6.33-3.16-1.58-6.54-2.37-10.14-2.37-3.4 0-6.6.7-9.6 2.1-3 1.4-5.63 3.34-7.89 5.82-2.26 2.48-4.03 5.34-5.31 8.58-1.28 3.24-1.92 6.74-1.92 10.5 0 3.72.64 7.21 1.92 10.47 1.28 3.26 3.05 6.12 5.31 8.58s4.89 4.4 7.89 5.82 6.2 2.13 9.6 2.13c3.64 0 7.03-.8 10.17-2.4 3.14-1.6 5.83-3.72 8.07-6.36l14.76 8.04c-3.76 5.2-8.5 9.38-14.22 12.54C54.34 91.42 48.08 93 41.28 93zm72.06 0c-4.72 0-9.23-.74-13.53-2.22-4.3-1.48-8.06-3.62-11.28-6.42-3.22-2.8-5.53-6.12-6.93-9.96l15.54-5.76c.48 1.36 1.48 2.63 3 3.81 1.52 1.18 3.42 2.14 5.7 2.88 2.28.74 4.78 1.11 7.5 1.11 2.6 0 5.05-.39 7.35-1.17 2.3-.78 4.16-1.87 5.58-3.27s2.13-3.04 2.13-4.92-.74-3.44-2.22-4.68c-1.48-1.24-3.38-2.23-5.7-2.97-2.32-.74-4.7-1.31-7.14-1.71-6.04-.88-11.45-2.31-16.23-4.29-4.78-1.98-8.55-4.72-11.31-8.22-2.76-3.5-4.14-7.95-4.14-13.35 0-5.2 1.47-9.74 4.41-13.62 2.94-3.88 6.82-6.9 11.64-9.06s10.03-3.24 15.63-3.24c4.64 0 9.12.74 13.44 2.22 4.32 1.48 8.09 3.62 11.31 6.42 3.22 2.8 5.53 6.16 6.93 10.08l-15.54 5.64c-.48-1.36-1.48-2.62-3-3.78-1.52-1.16-3.42-2.1-5.7-2.82-2.28-.72-4.76-1.08-7.44-1.08-2.56-.04-4.99.34-7.29 1.14-2.3.8-4.18 1.9-5.64 3.3s-2.19 3-2.19 4.8c0 2.36.69 4.14 2.07 5.34 1.38 1.2 3.21 2.06 5.49 2.58 2.28.52 4.8.98 7.56 1.38 5.68.84 10.92 2.33 15.72 4.47 4.8 2.14 8.65 4.98 11.55 8.52 2.9 3.54 4.35 7.85 4.35 12.93 0 5.2-1.46 9.74-4.38 13.62-2.92 3.88-6.78 6.9-11.58 9.06S118.98 93 113.34 93zm70.74 0c-4.72 0-9.23-.74-13.53-2.22-4.3-1.48-8.06-3.62-11.28-6.42-3.22-2.8-5.53-6.12-6.93-9.96l15.54-5.76c.48 1.36 1.48 2.63 3 3.81 1.52 1.18 3.42 2.14 5.7 2.88 2.28.74 4.78 1.11 7.5 1.11 2.6 0 5.05-.39 7.35-1.17 2.3-.78 4.16-1.87 5.58-3.27s2.13-3.04 2.13-4.92-.74-3.44-2.22-4.68c-1.48-1.24-3.38-2.23-5.7-2.97-2.32-.74-4.7-1.31-7.14-1.71-6.04-.88-11.45-2.31-16.23-4.29-4.78-1.98-8.55-4.72-11.31-8.22-2.76-3.5-4.14-7.95-4.14-13.35 0-5.2 1.47-9.74 4.41-13.62 2.94-3.88 6.82-6.9 11.64-9.06s10.03-3.24 15.63-3.24c4.64 0 9.12.74 13.44 2.22 4.32 1.48 8.09 3.62 11.31 6.42 3.22 2.8 5.53 6.16 6.93 10.08l-15.54 5.64c-.48-1.36-1.48-2.62-3-3.78-1.52-1.16-3.42-2.1-5.7-2.82-2.28-.72-4.76-1.08-7.44-1.08-2.56-.04-4.99.34-7.29 1.14-2.3.8-4.18 1.9-5.64 3.3s-2.19 3-2.19 4.8c0 2.36.69 4.14 2.07 5.34 1.38 1.2 3.21 2.06 5.49 2.58 2.28.52 4.8.98 7.56 1.38 5.68.84 10.92 2.33 15.72 4.47 4.8 2.14 8.65 4.98 11.55 8.52 2.9 3.54 4.35 7.85 4.35 12.93 0 5.2-1.46 9.74-4.38 13.62-2.92 3.88-6.78 6.9-11.58 9.06S189.72 93 184.08 93zm93.6-.84c-3.88 0-7.41-.94-10.59-2.82a21.234 21.234 0 0 1-7.59-7.59c-1.88-3.18-2.82-6.71-2.82-10.59V56.52c0-1-.42-1.85-1.26-2.55-.84-.7-1.81-1.35-2.91-1.95-1.1-.6-2.06-1.31-2.88-2.13-.82-.82-1.23-1.85-1.23-3.09 0-1.16.41-2.15 1.23-2.97.82-.82 1.78-1.57 2.88-2.25 1.1-.68 2.07-1.36 2.91-2.04.84-.68 1.26-1.46 1.26-2.34V22.44c0-3.84.94-7.35 2.82-10.53 1.88-3.18 4.41-5.72 7.59-7.62 3.18-1.9 6.71-2.85 10.59-2.85h7.08V18h-7.08c-.84 0-1.6.2-2.28.6-.68.4-1.21.93-1.59 1.59-.38.66-.57 1.41-.57 2.25v15.3c-.08 1.28-.51 2.39-1.29 3.33s-1.58 1.86-2.4 2.76c-.82.9-1.35 1.89-1.59 2.97.24 1.24.77 2.28 1.59 3.12.82.84 1.62 1.71 2.4 2.61.78.9 1.21 2.01 1.29 3.33v15.3c0 .84.19 1.6.57 2.28.38.68.91 1.21 1.59 1.59.68.38 1.44.57 2.28.57h7.08v16.56h-7.08zm43.56-.72v-84h16.56v84h-16.56zm82.38-38.16v38.16h-16.56v-33.6c0-2.12-.51-4.03-1.53-5.73-1.02-1.7-2.38-3.05-4.08-4.05-1.7-1-3.59-1.5-5.67-1.5s-3.98.5-5.7 1.5c-1.72 1-3.08 2.35-4.08 4.05-1 1.7-1.5 3.61-1.5 5.73v33.6h-16.56l-.06-60h16.56l.06 4.44c2-1.92 4.35-3.42 7.05-4.5s5.55-1.62 8.55-1.62c4.36 0 8.31 1.06 11.85 3.18 3.54 2.12 6.37 4.95 8.49 8.49s3.18 7.49 3.18 11.85zm40.79 38.16v-84h33.36c4.56 0 8.69 1.15 12.39 3.45 3.7 2.3 6.64 5.38 8.82 9.24 2.18 3.86 3.27 8.13 3.27 12.81 0 3.68-.64 7.09-1.92 10.23-1.28 3.14-3.08 5.89-5.4 8.25-2.32 2.36-5.02 4.2-8.1 5.52l19.98 34.5h-19.08l-19.14-33h-7.62v33h-16.56zm16.56-49.56h14.82c1.8 0 3.45-.45 4.95-1.35 1.5-.9 2.7-2.12 3.6-3.66.9-1.54 1.35-3.25 1.35-5.13 0-1.84-.45-3.53-1.35-5.07-.9-1.54-2.1-2.77-3.6-3.69-1.5-.92-3.15-1.38-4.95-1.38h-14.82v20.28zM536.09 93c-5.52 0-10.55-1.42-15.09-4.26-4.54-2.84-8.16-6.66-10.86-11.46-2.7-4.8-4.05-10.1-4.05-15.9 0-4.36.78-8.45 2.34-12.27 1.56-3.82 3.71-7.18 6.45-10.08a29.99 29.99 0 0 1 9.57-6.81c3.64-1.64 7.52-2.46 11.64-2.46 4.76 0 9.11 1.02 13.05 3.06 3.94 2.04 7.28 4.82 10.02 8.34 2.74 3.52 4.7 7.5 5.88 11.94s1.37 9.06.57 13.86h-41.64c.52 1.76 1.33 3.35 2.43 4.77 1.1 1.42 2.46 2.55 4.08 3.39 1.62.84 3.49 1.28 5.61 1.32 2.08.04 4-.44 5.76-1.44 1.76-1 3.26-2.34 4.5-4.02l16.92 3.9c-2.44 5.32-6.08 9.67-10.92 13.05-4.84 3.38-10.26 5.07-16.26 5.07zm-12.72-38.28h25.5c-.52-2-1.4-3.8-2.64-5.4-1.24-1.6-2.73-2.86-4.47-3.78-1.74-.92-3.63-1.38-5.67-1.38-2 0-3.87.46-5.61 1.38-1.74.92-3.22 2.17-4.44 3.75-1.22 1.58-2.11 3.39-2.67 5.43zm96.36-23.28h16.56v60h-16.62l-.78-6.24c-1.56 2.32-3.56 4.2-6 5.64-2.44 1.44-5.3 2.16-8.58 2.16-4.48 0-8.66-.84-12.54-2.52-3.88-1.68-7.3-4-10.26-6.96a32.298 32.298 0 0 1-6.93-10.29c-1.66-3.9-2.49-8.09-2.49-12.57 0-4.28.78-8.28 2.34-12 1.56-3.72 3.76-7 6.6-9.84a31.34 31.34 0 0 1 9.81-6.66c3.7-1.6 7.69-2.4 11.97-2.4 3.68 0 6.99.78 9.93 2.34s5.51 3.54 7.71 5.94l-.72-6.6zM603.9 77.1c2.72 0 5.18-.7 7.38-2.1 2.2-1.4 3.94-3.29 5.22-5.67 1.28-2.38 1.92-5.01 1.92-7.89 0-2.92-.64-5.56-1.92-7.92-1.28-2.36-3.02-4.24-5.22-5.64-2.2-1.4-4.66-2.1-7.38-2.1-2.76 0-5.26.7-7.5 2.1-2.24 1.4-4.02 3.29-5.34 5.67-1.32 2.38-1.98 5.01-1.98 7.89s.67 5.51 2.01 7.89c1.34 2.38 3.13 4.27 5.37 5.67 2.23 1.4 4.71 2.1 7.44 2.1zm44.51 14.34v-90h16.56v90h-16.56zm59.76 0v-84h16.56v67.44h33.84v16.56h-50.4zm65.52-66.9c-2.4 0-4.42-.8-6.06-2.4-1.64-1.6-2.46-3.58-2.46-5.94 0-2.36.82-4.34 2.46-5.94 1.64-1.6 3.64-2.4 6-2.4s4.35.8 5.97 2.4c1.62 1.6 2.43 3.58 2.43 5.94 0 2.36-.79 4.34-2.37 5.94-1.58 1.6-3.57 2.4-5.97 2.4zm-8.4 6.9h16.56v60h-16.56v-60zm47.04-11.64v11.64h15.9V48h-15.9v43.44h-16.56V48h-6V31.44h6V19.8c0-3.64.9-6.95 2.7-9.93 1.8-2.98 4.21-5.37 7.23-7.17 3.02-1.8 6.35-2.7 9.99-2.7 2.68 0 5.32.55 7.92 1.65 2.6 1.1 4.92 2.81 6.96 5.13l-11.88 11.7c-.28-.64-.7-1.12-1.26-1.44-.56-.32-1.14-.48-1.74-.48-.92 0-1.71.31-2.37.93-.66.62-.99 1.39-.99 2.31zM860.99 93c-5.52 0-10.55-1.42-15.09-4.26-4.54-2.84-8.16-6.66-10.86-11.46-2.7-4.8-4.05-10.1-4.05-15.9 0-4.36.78-8.45 2.34-12.27 1.56-3.82 3.71-7.18 6.45-10.08a29.99 29.99 0 0 1 9.57-6.81c3.64-1.64 7.52-2.46 11.64-2.46 4.76 0 9.11 1.02 13.05 3.06 3.94 2.04 7.28 4.82 10.02 8.34 2.74 3.52 4.7 7.5 5.88 11.94s1.37 9.06.57 13.86h-41.64c.52 1.76 1.33 3.35 2.43 4.77 1.1 1.42 2.46 2.55 4.08 3.39 1.62.84 3.49 1.28 5.61 1.32 2.08.04 4-.44 5.76-1.44 1.76-1 3.26-2.34 4.5-4.02l16.92 3.9c-2.44 5.32-6.08 9.67-10.92 13.05-4.84 3.38-10.26 5.07-16.26 5.07zm-12.72-38.28h25.5c-.52-2-1.4-3.8-2.64-5.4-1.24-1.6-2.73-2.86-4.47-3.78-1.74-.92-3.63-1.38-5.67-1.38-2 0-3.87.46-5.61 1.38-1.74.92-3.22 2.17-4.44 3.75-1.22 1.58-2.11 3.39-2.67 5.43zm71.48 37.44V75.6h7.08c.84 0 1.6-.19 2.28-.57.68-.38 1.21-.91 1.59-1.59.38-.68.57-1.44.57-2.28v-15.3c.08-1.32.51-2.43 1.29-3.33.78-.9 1.58-1.77 2.4-2.61.82-.84 1.35-1.88 1.59-3.12-.2-1.08-.72-2.07-1.56-2.97s-1.65-1.82-2.43-2.76c-.78-.94-1.21-2.05-1.29-3.33v-15.3c0-.84-.19-1.59-.57-2.25a4.33 4.33 0 0 0-1.59-1.59c-.68-.4-1.44-.6-2.28-.6h-7.08V1.44h7.08c3.88 0 7.41.95 10.59 2.85 3.18 1.9 5.71 4.44 7.59 7.62 1.88 3.18 2.82 6.69 2.82 10.53V37.2c0 .88.42 1.66 1.26 2.34.84.68 1.81 1.36 2.91 2.04 1.1.68 2.06 1.43 2.88 2.25.82.82 1.23 1.81 1.23 2.97 0 1.24-.41 2.27-1.23 3.09-.82.82-1.78 1.53-2.88 2.13-1.1.6-2.07 1.25-2.91 1.95-.84.7-1.26 1.55-1.26 2.55v14.64c0 3.88-.94 7.41-2.82 10.59a21.234 21.234 0 0 1-7.59 7.59c-3.18 1.88-6.71 2.82-10.59 2.82h-7.08z"/>
</symbol>
<symbol id="logo-horizontal" viewBox="0 0 1127.43 160"><path fill="#FF1493" d="M.001 151.624 87.541.004l14.497 8.37-87.54 151.62zM159.19 79.19l-5.64-17.26-20.88 9.57 2.61-22.82h-18.16l2.56 22.82-20.88-9.57-5.64 17.26 22.59 4.55-15.5 17.03 14.59 10.53 11.34-19.87 11.33 19.87 14.59-10.53-15.5-17.03z"/><path d="M212.6 160c-5.68 0-11.02-1.13-16.02-3.39-5-2.26-9.39-5.39-13.17-9.39-3.78-4-6.74-8.63-8.88-13.89-2.14-5.26-3.21-10.89-3.21-16.89 0-6.04 1.07-11.69 3.21-16.95 2.14-5.26 5.1-9.88 8.88-13.86 3.78-3.98 8.17-7.1 13.17-9.36s10.34-3.39 16.02-3.39c6.8 0 13.06 1.57 18.78 4.71 5.72 3.14 10.46 7.33 14.22 12.57l-14.76 7.98c-2.24-2.64-4.94-4.75-8.1-6.33-3.16-1.58-6.54-2.37-10.14-2.37-3.4 0-6.6.7-9.6 2.1-3 1.4-5.63 3.34-7.89 5.82-2.26 2.48-4.03 5.34-5.31 8.58-1.28 3.24-1.92 6.74-1.92 10.5 0 3.72.64 7.21 1.92 10.47 1.28 3.26 3.05 6.12 5.31 8.58s4.89 4.4 7.89 5.82 6.2 2.13 9.6 2.13c3.64 0 7.03-.8 10.17-2.4 3.14-1.6 5.83-3.72 8.07-6.36l14.76 8.04c-3.76 5.2-8.5 9.38-14.22 12.54-5.72 3.16-11.98 4.74-18.78 4.74zm72.06 0c-4.72 0-9.23-.74-13.53-2.22-4.3-1.48-8.06-3.62-11.28-6.42-3.22-2.8-5.53-6.12-6.93-9.96l15.54-5.76c.48 1.36 1.48 2.63 3 3.81 1.52 1.18 3.42 2.14 5.7 2.88 2.28.74 4.78 1.11 7.5 1.11 2.6 0 5.05-.39 7.35-1.17 2.3-.78 4.16-1.87 5.58-3.27s2.13-3.04 2.13-4.92-.74-3.44-2.22-4.68c-1.48-1.24-3.38-2.23-5.7-2.97-2.32-.74-4.7-1.31-7.14-1.71-6.04-.88-11.45-2.31-16.23-4.29-4.78-1.98-8.55-4.72-11.31-8.22-2.76-3.5-4.14-7.95-4.14-13.35 0-5.2 1.47-9.74 4.41-13.62 2.94-3.88 6.82-6.9 11.64-9.06s10.03-3.24 15.63-3.24c4.64 0 9.12.74 13.44 2.22 4.32 1.48 8.09 3.62 11.31 6.42 3.22 2.8 5.53 6.16 6.93 10.08L300.8 97.3c-.48-1.36-1.48-2.62-3-3.78-1.52-1.16-3.42-2.1-5.7-2.82-2.28-.72-4.76-1.08-7.44-1.08-2.56-.04-4.99.34-7.29 1.14-2.3.8-4.18 1.9-5.64 3.3s-2.19 3-2.19 4.8c0 2.36.69 4.14 2.07 5.34 1.38 1.2 3.21 2.06 5.49 2.58 2.28.52 4.8.98 7.56 1.38 5.68.84 10.92 2.33 15.72 4.47 4.8 2.14 8.65 4.98 11.55 8.52 2.9 3.54 4.35 7.85 4.35 12.93 0 5.2-1.46 9.74-4.38 13.62-2.92 3.88-6.78 6.9-11.58 9.06S290.3 160 284.66 160zm70.74 0c-4.72 0-9.23-.74-13.53-2.22-4.3-1.48-8.06-3.62-11.28-6.42-3.22-2.8-5.53-6.12-6.93-9.96l15.54-5.76c.48 1.36 1.48 2.63 3 3.81 1.52 1.18 3.42 2.14 5.7 2.88 2.28.74 4.78 1.11 7.5 1.11 2.6 0 5.05-.39 7.35-1.17 2.3-.78 4.16-1.87 5.58-3.27s2.13-3.04 2.13-4.92-.74-3.44-2.22-4.68c-1.48-1.24-3.38-2.23-5.7-2.97-2.32-.74-4.7-1.31-7.14-1.71-6.04-.88-11.45-2.31-16.23-4.29-4.78-1.98-8.55-4.72-11.31-8.22-2.76-3.5-4.14-7.95-4.14-13.35 0-5.2 1.47-9.74 4.41-13.62 2.94-3.88 6.82-6.9 11.64-9.06s10.03-3.24 15.63-3.24c4.64 0 9.12.74 13.44 2.22 4.32 1.48 8.09 3.62 11.31 6.42 3.22 2.8 5.53 6.16 6.93 10.08l-15.54 5.64c-.48-1.36-1.48-2.62-3-3.78-1.52-1.16-3.42-2.1-5.7-2.82-2.28-.72-4.76-1.08-7.44-1.08-2.56-.04-4.99.34-7.29 1.14-2.3.8-4.18 1.9-5.64 3.3s-2.19 3-2.19 4.8c0 2.36.69 4.14 2.07 5.34 1.38 1.2 3.21 2.06 5.49 2.58 2.28.52 4.8.98 7.56 1.38 5.68.84 10.92 2.33 15.72 4.47 4.8 2.14 8.65 4.98 11.55 8.52 2.9 3.54 4.35 7.85 4.35 12.93 0 5.2-1.46 9.74-4.38 13.62-2.92 3.88-6.78 6.9-11.58 9.06S361.04 160 355.4 160zm93.6-.84c-3.88 0-7.41-.94-10.59-2.82a21.234 21.234 0 0 1-7.59-7.59c-1.88-3.18-2.82-6.71-2.82-10.59v-14.64c0-1-.42-1.85-1.26-2.55-.84-.7-1.81-1.35-2.91-1.95-1.1-.6-2.06-1.31-2.88-2.13-.82-.82-1.23-1.85-1.23-3.09 0-1.16.41-2.15 1.23-2.97.82-.82 1.78-1.57 2.88-2.25 1.1-.68 2.07-1.36 2.91-2.04.84-.68 1.26-1.46 1.26-2.34V89.44c0-3.84.94-7.35 2.82-10.53 1.88-3.18 4.41-5.72 7.59-7.62 3.18-1.9 6.71-2.85 10.59-2.85h7.08V85H449c-.84 0-1.6.2-2.28.6-.68.4-1.21.93-1.59 1.59-.38.66-.57 1.41-.57 2.25v15.3c-.08 1.28-.51 2.39-1.29 3.33s-1.58 1.86-2.4 2.76c-.82.9-1.35 1.89-1.59 2.97.24 1.24.77 2.28 1.59 3.12.82.84 1.62 1.71 2.4 2.61.78.9 1.21 2.01 1.29 3.33v15.3c0 .84.19 1.6.57 2.28.38.68.91 1.21 1.59 1.59.68.38 1.44.57 2.28.57h7.08v16.56H449zm43.56-.72v-84h16.56v84h-16.56zm82.38-38.16v38.16h-16.56v-33.6c0-2.12-.51-4.03-1.53-5.73-1.02-1.7-2.38-3.05-4.08-4.05-1.7-1-3.59-1.5-5.67-1.5s-3.98.5-5.7 1.5c-1.72 1-3.08 2.35-4.08 4.05-1 1.7-1.5 3.61-1.5 5.73v33.6h-16.56l-.06-60h16.56l.06 4.44c2-1.92 4.35-3.42 7.05-4.5s5.55-1.62 8.55-1.62c4.36 0 8.31 1.06 11.85 3.18 3.54 2.12 6.37 4.95 8.49 8.49s3.18 7.49 3.18 11.85zm40.8 38.16v-84h33.36c4.56 0 8.69 1.15 12.39 3.45 3.7 2.3 6.64 5.38 8.82 9.24 2.18 3.86 3.27 8.13 3.27 12.81 0 3.68-.64 7.09-1.92 10.23-1.28 3.14-3.08 5.89-5.4 8.25-2.32 2.36-5.02 4.2-8.1 5.52l19.98 34.5h-19.08l-19.14-33h-7.62v33h-16.56zm16.56-49.56h14.82c1.8 0 3.45-.45 4.95-1.35 1.5-.9 2.7-2.12 3.6-3.66.9-1.54 1.35-3.25 1.35-5.13 0-1.84-.45-3.53-1.35-5.07-.9-1.54-2.1-2.77-3.6-3.69-1.5-.92-3.15-1.38-4.95-1.38H632.3v20.28zM707.42 160c-5.52 0-10.55-1.42-15.09-4.26-4.54-2.84-8.16-6.66-10.86-11.46-2.7-4.8-4.05-10.1-4.05-15.9 0-4.36.78-8.45 2.34-12.27 1.56-3.82 3.71-7.18 6.45-10.08a29.99 29.99 0 0 1 9.57-6.81c3.64-1.64 7.52-2.46 11.64-2.46 4.76 0 9.11 1.02 13.05 3.06 3.94 2.04 7.28 4.82 10.02 8.34 2.74 3.52 4.7 7.5 5.88 11.94s1.37 9.06.57 13.86H695.3c.52 1.76 1.33 3.35 2.43 4.77 1.1 1.42 2.46 2.55 4.08 3.39 1.62.84 3.49 1.28 5.61 1.32 2.08.04 4-.44 5.76-1.44 1.76-1 3.26-2.34 4.5-4.02l16.92 3.9c-2.44 5.32-6.08 9.67-10.92 13.05-4.84 3.38-10.26 5.07-16.26 5.07zm-12.72-38.28h25.5c-.52-2-1.4-3.8-2.64-5.4-1.24-1.6-2.73-2.86-4.47-3.78-1.74-.92-3.63-1.38-5.67-1.38-2 0-3.87.46-5.61 1.38-1.74.92-3.22 2.17-4.44 3.75-1.22 1.58-2.11 3.39-2.67 5.43zm96.36-23.28h16.56v60H791l-.78-6.24c-1.56 2.32-3.56 4.2-6 5.64-2.44 1.44-5.3 2.16-8.58 2.16-4.48 0-8.66-.84-12.54-2.52-3.88-1.68-7.3-4-10.26-6.96a32.298 32.298 0 0 1-6.93-10.29c-1.66-3.9-2.49-8.09-2.49-12.57 0-4.28.78-8.28 2.34-12 1.56-3.72 3.76-7 6.6-9.84a31.34 31.34 0 0 1 9.81-6.66c3.7-1.6 7.69-2.4 11.97-2.4 3.68 0 6.99.78 9.93 2.34s5.51 3.54 7.71 5.94l-.72-6.6zm-15.84 45.66c2.72 0 5.18-.7 7.38-2.1 2.2-1.4 3.94-3.29 5.22-5.67 1.28-2.38 1.92-5.01 1.92-7.89 0-2.92-.64-5.56-1.92-7.92-1.28-2.36-3.02-4.24-5.22-5.64-2.2-1.4-4.66-2.1-7.38-2.1-2.76 0-5.26.7-7.5 2.1-2.24 1.4-4.02 3.29-5.34 5.67-1.32 2.38-1.98 5.01-1.98 7.89s.67 5.51 2.01 7.89c1.34 2.38 3.13 4.27 5.37 5.67 2.24 1.4 4.72 2.1 7.44 2.1zm44.52 14.34v-90h16.56v90h-16.56zm59.76 0v-84h16.56v67.44h33.84v16.56h-50.4zm65.51-66.9c-2.4 0-4.42-.8-6.06-2.4-1.64-1.6-2.46-3.58-2.46-5.94 0-2.36.82-4.34 2.46-5.94 1.64-1.6 3.64-2.4 6-2.4s4.35.8 5.97 2.4c1.62 1.6 2.43 3.58 2.43 5.94 0 2.36-.79 4.34-2.37 5.94-1.58 1.6-3.57 2.4-5.97 2.4zm-8.4 6.9h16.56v60h-16.56v-60zm47.04-11.64v11.64h15.9V115h-15.9v43.44h-16.56V115h-6V98.44h6V86.8c0-3.64.9-6.95 2.7-9.93 1.8-2.98 4.21-5.37 7.23-7.17 3.02-1.8 6.35-2.7 9.99-2.7 2.68 0 5.32.55 7.92 1.65 2.6 1.1 4.92 2.81 6.96 5.13l-11.88 11.7c-.28-.64-.7-1.12-1.26-1.44-.56-.32-1.14-.48-1.74-.48-.92 0-1.71.31-2.37.93-.66.62-.99 1.39-.99 2.31zm48.66 73.2c-5.52 0-10.55-1.42-15.09-4.26-4.54-2.84-8.16-6.66-10.86-11.46-2.7-4.8-4.05-10.1-4.05-15.9 0-4.36.78-8.45 2.34-12.27 1.56-3.82 3.71-7.18 6.45-10.08a29.99 29.99 0 0 1 9.57-6.81c3.64-1.64 7.52-2.46 11.64-2.46 4.76 0 9.11 1.02 13.05 3.06 3.94 2.04 7.28 4.82 10.02 8.34 2.74 3.52 4.7 7.5 5.88 11.94s1.37 9.06.57 13.86h-41.64c.52 1.76 1.33 3.35 2.43 4.77 1.1 1.42 2.46 2.55 4.08 3.39 1.62.84 3.49 1.28 5.61 1.32 2.08.04 4-.44 5.76-1.44 1.76-1 3.26-2.34 4.5-4.02l16.92 3.9c-2.44 5.32-6.08 9.67-10.92 13.05-4.84 3.38-10.26 5.07-16.26 5.07zm-12.72-38.28h25.5c-.52-2-1.4-3.8-2.64-5.4-1.24-1.6-2.73-2.86-4.47-3.78-1.74-.92-3.63-1.38-5.67-1.38-2 0-3.87.46-5.61 1.38-1.74.92-3.22 2.17-4.44 3.75-1.22 1.58-2.11 3.39-2.67 5.43zm71.48 37.44V142.6h7.08c.84 0 1.6-.19 2.28-.57.68-.38 1.21-.91 1.59-1.59.38-.68.57-1.44.57-2.28v-15.3c.08-1.32.51-2.43 1.29-3.33.78-.9 1.58-1.77 2.4-2.61.82-.84 1.35-1.88 1.59-3.12-.2-1.08-.72-2.07-1.56-2.97s-1.65-1.82-2.43-2.76c-.78-.94-1.21-2.05-1.29-3.33v-15.3c0-.84-.19-1.59-.57-2.25a4.33 4.33 0 0 0-1.59-1.59c-.68-.4-1.44-.6-2.28-.6h-7.08V68.44h7.08c3.88 0 7.41.95 10.59 2.85 3.18 1.9 5.71 4.44 7.59 7.62 1.88 3.18 2.82 6.69 2.82 10.53v14.76c0 .88.42 1.66 1.26 2.34.84.68 1.81 1.36 2.91 2.04 1.1.68 2.06 1.43 2.88 2.25.82.82 1.23 1.81 1.23 2.97 0 1.24-.41 2.27-1.23 3.09-.82.82-1.78 1.53-2.88 2.13-1.1.6-2.07 1.25-2.91 1.95-.84.7-1.26 1.55-1.26 2.55v14.64c0 3.88-.94 7.41-2.82 10.59a21.234 21.234 0 0 1-7.59 7.59c-3.18 1.88-6.71 2.82-10.59 2.82h-7.08z"/>
</symbol>
<symbol id="logo-icon" viewBox="0 0 620.2 606.5">
  <path fill="#FF1493" d="M-.02 578.421l334-578.488 48.496 28-334 578.488zM457.6 182.2h70.2l-10.1 88.2 80.7-37 21.8 66.7-87.3 17.6 59.9 65.8-56.4 40.7-43.8-76.8-43.8 76.8-56.4-40.7 59.9-65.8-87.3-17.6 21.8-66.7 80.7 37-9.9-88.2z"/>

</symbol>
<symbol id="logo-new" viewBox="0 0 832.74 520.88"><path fill="#FF1493" d="M-.008 269.546 155.617.004l25.772 14.88L25.764 284.426zM283 140.78l-10.03-30.68-37.12 17.01 4.65-40.56h-32.29l4.55 40.56-37.12-17.01-10.03 30.68 40.16 8.09-27.55 30.27 25.94 18.72 20.15-35.33 20.14 35.33 25.94-18.72-27.55-30.27z"/><path d="M331.11 394.35c-16.33 0-31.68-3.25-46.06-9.75-14.38-6.5-27-15.5-37.86-27-10.87-11.5-19.38-24.81-25.53-39.93-6.15-15.12-9.23-31.31-9.23-48.56 0-17.36 3.08-33.61 9.23-48.73 6.15-15.12 14.66-28.4 25.53-39.85 10.87-11.44 23.49-20.41 37.86-26.91 14.37-6.5 29.73-9.75 46.06-9.75 19.55 0 37.55 4.51 53.99 13.54 16.44 9.03 30.07 21.07 40.88 36.14l-42.44 22.94c-6.44-7.59-14.2-13.65-23.29-18.2-9.09-4.54-18.8-6.81-29.15-6.81-9.78 0-18.98 2.01-27.6 6.04-8.62 4.03-16.19 9.6-22.68 16.73-6.5 7.13-11.59 15.35-15.27 24.67-3.68 9.31-5.52 19.38-5.52 30.19 0 10.69 1.84 20.73 5.52 30.1 3.68 9.37 8.77 17.6 15.27 24.67s14.06 12.65 22.68 16.73 17.82 6.12 27.6 6.12c10.46 0 20.21-2.3 29.24-6.9 9.03-4.6 16.76-10.7 23.2-18.29l42.44 23.12c-10.81 14.95-24.44 26.97-40.88 36.05-16.44 9.1-34.44 13.64-53.99 13.64zm207.17 0c-13.57 0-26.54-2.13-38.9-6.38s-23.17-10.41-32.43-18.46c-9.26-8.05-15.9-17.59-19.92-28.63l44.68-16.56c1.38 3.91 4.25 7.56 8.62 10.95 4.37 3.39 9.83 6.15 16.39 8.28 6.56 2.13 13.74 3.19 21.56 3.19 7.47 0 14.52-1.12 21.13-3.36 6.61-2.24 11.96-5.37 16.04-9.4 4.08-4.02 6.12-8.74 6.12-14.15 0-5.4-2.13-9.89-6.38-13.46-4.26-3.56-9.72-6.41-16.39-8.54-6.67-2.13-13.51-3.77-20.53-4.92-17.37-2.53-32.92-6.64-46.66-12.33-13.74-5.69-24.58-13.57-32.52-23.63-7.94-10.06-11.9-22.86-11.9-38.38 0-14.95 4.23-28 12.68-39.16 8.45-11.15 19.61-19.84 33.47-26.05 13.86-6.21 28.83-9.31 44.94-9.31 13.34 0 26.22 2.13 38.64 6.38 12.42 4.26 23.26 10.41 32.52 18.46 9.25 8.05 15.9 17.71 19.92 28.98l-44.68 16.22c-1.38-3.91-4.26-7.53-8.62-10.87-4.37-3.33-9.83-6.04-16.39-8.11-6.56-2.07-13.69-3.1-21.39-3.1-7.36-.11-14.35.98-20.96 3.28-6.61 2.3-12.02 5.46-16.22 9.49-4.2 4.03-6.3 8.62-6.3 13.8 0 6.79 1.98 11.9 5.95 15.35 3.97 3.45 9.23 5.92 15.78 7.42 6.55 1.5 13.8 2.82 21.73 3.97 16.33 2.42 31.4 6.7 45.19 12.85 13.8 6.15 24.87 14.32 33.21 24.49 8.34 10.18 12.51 22.57 12.51 37.17 0 14.95-4.2 28-12.59 39.16-8.4 11.16-19.49 19.84-33.29 26.05-13.79 6.2-28.79 9.31-45.01 9.31zm203.38 0c-13.57 0-26.54-2.13-38.9-6.38s-23.17-10.41-32.43-18.46c-9.26-8.05-15.9-17.59-19.92-28.63l44.68-16.56c1.38 3.91 4.25 7.56 8.62 10.95 4.37 3.39 9.83 6.15 16.39 8.28 6.55 2.13 13.74 3.19 21.56 3.19 7.47 0 14.52-1.12 21.13-3.36 6.61-2.24 11.96-5.37 16.04-9.4 4.08-4.02 6.12-8.74 6.12-14.15 0-5.4-2.13-9.89-6.38-13.46-4.26-3.56-9.72-6.41-16.39-8.54-6.67-2.13-13.51-3.77-20.53-4.92-17.37-2.53-32.92-6.64-46.66-12.33-13.74-5.69-24.58-13.57-32.52-23.63-7.94-10.06-11.9-22.86-11.9-38.38 0-14.95 4.23-28 12.68-39.16 8.45-11.15 19.61-19.84 33.46-26.05 13.86-6.21 28.83-9.31 44.94-9.31 13.34 0 26.22 2.13 38.64 6.38 12.42 4.26 23.26 10.41 32.52 18.46 9.25 8.05 15.9 17.71 19.92 28.98l-44.68 16.22c-1.38-3.91-4.26-7.53-8.62-10.87-4.37-3.33-9.83-6.04-16.39-8.11s-13.69-3.1-21.39-3.1c-7.36-.11-14.35.98-20.96 3.28-6.61 2.3-12.02 5.46-16.21 9.49-4.2 4.03-6.3 8.62-6.3 13.8 0 6.79 1.98 11.9 5.95 15.35 3.97 3.45 9.23 5.92 15.78 7.42 6.55 1.5 13.8 2.82 21.74 3.97 16.33 2.42 31.39 6.7 45.19 12.85 13.8 6.15 24.87 14.32 33.21 24.49 8.34 10.18 12.51 22.57 12.51 37.17 0 14.95-4.2 28-12.59 39.16-8.4 11.16-19.49 19.84-33.29 26.05-13.8 6.2-28.81 9.31-45.02 9.31zM238.51 519.87c-3.45 0-6.6-.84-9.43-2.51s-5.08-3.93-6.76-6.76c-1.67-2.83-2.51-5.97-2.51-9.43v-13.03c-.04-.96-.44-1.75-1.2-2.38-.77-.62-1.66-1.19-2.67-1.71-1.02-.52-1.9-1.13-2.64-1.84-.75-.71-1.12-1.62-1.12-2.72 0-1.07.37-1.96 1.12-2.67.75-.71 1.63-1.34 2.64-1.9 1.02-.55 1.9-1.14 2.67-1.76.77-.62 1.17-1.36 1.2-2.22V457.8c0-3.42.84-6.54 2.51-9.38 1.67-2.83 3.93-5.09 6.76-6.78 2.83-1.69 5.97-2.54 9.43-2.54h5.77v13.03h-5.77c-1.03 0-1.98.25-2.83.75-.85.5-1.54 1.18-2.06 2.06a5.48 5.48 0 0 0-.77 2.86v13.57c-.07 1.21-.44 2.23-1.09 3.07-.66.84-1.38 1.64-2.16 2.4-.78.77-1.41 1.65-1.87 2.64.5 1.1 1.13 2.03 1.9 2.78s1.48 1.52 2.14 2.32c.66.8 1.02 1.81 1.09 3.02v13.57c0 1.07.25 2.03.75 2.88.5.85 1.17 1.53 2.03 2.03s1.82.75 2.88.75h5.77v13.03h-5.78zm38.24-.38v-74.78h13.03v74.78h-13.03zm70.94-33.76v33.76h-13.03v-30.34c0-2.1-.52-4.01-1.55-5.74-1.03-1.73-2.41-3.1-4.14-4.11-1.73-1.01-3.64-1.52-5.74-1.52s-4.02.51-5.74 1.52c-1.73 1.02-3.1 2.39-4.11 4.11-1.02 1.73-1.52 3.64-1.52 5.74v30.34h-13.03l-.05-53.42h13.03l.05 4.75c1.82-1.92 3.99-3.45 6.52-4.57 2.53-1.12 5.25-1.68 8.17-1.68 3.88 0 7.43.95 10.63 2.86 3.21 1.91 5.76 4.45 7.67 7.64 1.88 3.19 2.84 6.75 2.84 10.66zm36.32 33.76v-74.78h28.68c4.06 0 7.73 1.01 11 3.04 3.28 2.03 5.88 4.75 7.8 8.15 1.92 3.4 2.88 7.17 2.88 11.3 0 3.38-.61 6.49-1.84 9.32s-2.94 5.28-5.13 7.35c-2.19 2.07-4.71 3.63-7.56 4.7l17.89 30.93h-15.01l-17.31-29.75h-8.39v29.75h-13.01zm13.03-42.78h14.16c1.85 0 3.54-.46 5.07-1.39a10.66 10.66 0 0 0 3.69-3.74c.93-1.57 1.39-3.31 1.39-5.23 0-1.96-.46-3.72-1.39-5.29a10.66 10.66 0 0 0-3.69-3.74c-1.53-.93-3.22-1.39-5.07-1.39h-14.16v20.78zm67.79 44.17c-4.91 0-9.39-1.26-13.43-3.79-4.04-2.53-7.26-5.93-9.67-10.2-2.4-4.27-3.61-8.99-3.61-14.16 0-3.88.69-7.52 2.08-10.92 1.39-3.4 3.3-6.39 5.74-8.97 2.44-2.58 5.28-4.6 8.52-6.06 3.24-1.46 6.69-2.19 10.36-2.19 4.17 0 7.99.88 11.46 2.64 3.47 1.76 6.42 4.18 8.84 7.24 2.42 3.06 4.18 6.55 5.29 10.47 1.1 3.92 1.35 8.01.75 12.29h-39.05c.5 1.99 1.32 3.78 2.46 5.37 1.14 1.59 2.58 2.85 4.33 3.79 1.74.94 3.72 1.43 5.93 1.47 2.28.04 4.35-.51 6.22-1.63 1.87-1.12 3.43-2.64 4.67-4.57l13.3 3.1c-2.17 4.74-5.41 8.61-9.72 11.62-4.31 3-9.13 4.5-14.47 4.5zm-13.14-33.44h26.28a13.98 13.98 0 0 0-2.48-5.8 14.357 14.357 0 0 0-4.67-4.14c-1.85-1.03-3.85-1.55-5.98-1.55s-4.11.51-5.93 1.52c-1.82 1.01-3.36 2.39-4.62 4.11-1.28 1.74-2.14 3.69-2.6 5.86zm88.62-21.36h13.03v53.42h-13.03l-.59-6.62a17.298 17.298 0 0 1-5.8 5.8c-2.4 1.48-5.24 2.22-8.52 2.22-3.95 0-7.66-.75-11.11-2.24-3.45-1.5-6.49-3.56-9.11-6.2a28.957 28.957 0 0 1-6.14-9.13c-1.48-3.45-2.22-7.16-2.22-11.11 0-3.81.7-7.39 2.11-10.74 1.41-3.35 3.37-6.28 5.9-8.81a27.92 27.92 0 0 1 8.76-5.93c3.31-1.42 6.87-2.14 10.68-2.14 3.53 0 6.69.78 9.48 2.35 2.8 1.57 5.17 3.56 7.13 5.98l-.57-6.85zm-15.23 42.25c2.78 0 5.23-.69 7.37-2.08 2.14-1.39 3.81-3.27 5.02-5.64 1.21-2.37 1.82-4.98 1.82-7.83 0-2.88-.61-5.51-1.82-7.88s-2.89-4.25-5.05-5.63c-2.16-1.39-4.6-2.08-7.34-2.08s-5.24.7-7.51 2.11c-2.26 1.41-4.06 3.29-5.4 5.64-1.34 2.35-2 4.97-2 7.85s.68 5.5 2.03 7.85c1.35 2.35 3.16 4.22 5.42 5.61 2.27 1.39 4.76 2.08 7.46 2.08zm39.21 11.16v-80.13h13.03v80.13h-13.03zm51.49 0v-74.78h13.03v61.75h31.14v13.03h-44.17zm56.78-60.3c-1.92 0-3.54-.63-4.86-1.9-1.32-1.26-1.98-2.86-1.98-4.78 0-1.89.66-3.47 1.98-4.75 1.32-1.28 2.92-1.92 4.81-1.92s3.48.64 4.78 1.92c1.3 1.28 1.95 2.87 1.95 4.75 0 1.92-.64 3.52-1.92 4.78s-2.87 1.9-4.76 1.9zm-6.62 6.89h13.03v53.42h-13.03v-53.42zm38.94-11.22v11.22h14.58v13.03h-14.58v40.38h-13.03v-40.38h-5.82v-13.03h5.82v-11.22c0-3.06.76-5.87 2.27-8.41 1.51-2.55 3.55-4.58 6.12-6.09 2.56-1.51 5.4-2.27 8.49-2.27 2.24 0 4.47.46 6.68 1.39 2.21.93 4.17 2.35 5.88 4.27l-9.4 9.19c-.32-.6-.77-1.06-1.36-1.36-.59-.3-1.18-.45-1.79-.45-1.03 0-1.93.37-2.7 1.09-.78.73-1.16 1.61-1.16 2.64zm43.59 66.02c-4.91 0-9.39-1.26-13.43-3.79-4.04-2.53-7.26-5.93-9.67-10.2-2.4-4.27-3.61-8.99-3.61-14.16 0-3.88.69-7.52 2.08-10.92 1.39-3.4 3.3-6.39 5.74-8.97 2.44-2.58 5.28-4.6 8.52-6.06 3.24-1.46 6.69-2.19 10.36-2.19 4.17 0 7.99.88 11.46 2.64 3.47 1.76 6.42 4.18 8.84 7.24 2.42 3.06 4.18 6.55 5.29 10.47 1.1 3.92 1.35 8.01.75 12.29h-39.05c.5 1.99 1.32 3.78 2.46 5.37 1.14 1.59 2.58 2.85 4.33 3.79 1.74.94 3.72 1.43 5.93 1.47 2.28.04 4.35-.51 6.22-1.63s3.43-2.64 4.67-4.57l13.3 3.1c-2.17 4.74-5.41 8.61-9.72 11.62-4.31 3-9.13 4.5-14.47 4.5zm-13.14-33.44h26.28a13.98 13.98 0 0 0-2.48-5.8 14.357 14.357 0 0 0-4.67-4.14 12.119 12.119 0 0 0-5.98-1.55c-2.14 0-4.11.51-5.93 1.52-1.82 1.01-3.36 2.39-4.62 4.11-1.28 1.74-2.14 3.69-2.6 5.86zm65.3 32.43v-13.03h5.77c1.03 0 1.98-.25 2.83-.75s1.54-1.18 2.06-2.03c.52-.85.78-1.82.78-2.88V487.6c.07-1.21.43-2.22 1.07-3.02s1.35-1.58 2.14-2.32c.78-.75 1.41-1.67 1.87-2.78-.46-1-1.08-1.88-1.84-2.64-.77-.76-1.48-1.57-2.14-2.4-.66-.84-1.02-1.86-1.09-3.07V457.8c0-1.03-.26-1.99-.78-2.86-.52-.87-1.2-1.56-2.06-2.06-.85-.5-1.8-.75-2.83-.75h-5.77V439.1h5.77c3.45 0 6.6.85 9.43 2.54s5.08 3.95 6.76 6.78c1.67 2.83 2.51 5.96 2.51 9.38v13.14c.03.85.43 1.59 1.18 2.22.75.62 1.63 1.21 2.64 1.76 1.01.55 1.9 1.18 2.67 1.9.76.71 1.15 1.6 1.15 2.67 0 1.1-.38 2.01-1.15 2.72-.77.71-1.66 1.33-2.67 1.84-1.01.52-1.9 1.09-2.64 1.71-.75.62-1.14 1.42-1.18 2.38v13.03c0 3.45-.84 6.6-2.51 9.43s-3.93 5.08-6.76 6.76c-2.83 1.67-5.97 2.51-9.43 2.51h-5.78z"/>
</symbol>
<symbol id="logo-stacked-text" viewBox="0 0 620.57 377.01"><path d="M118.68 250.47c-16.33 0-31.68-3.25-46.06-9.75-14.38-6.5-27-15.5-37.86-27-10.87-11.5-19.38-24.81-25.53-39.93C3.08 158.67 0 142.48 0 125.23c0-17.36 3.08-33.61 9.23-48.73 6.15-15.12 14.66-28.4 25.53-39.85 10.87-11.44 23.49-20.41 37.86-26.9C87 3.25 102.35 0 118.68 0c19.55 0 37.55 4.51 53.99 13.54 16.44 9.03 30.07 21.07 40.88 36.14l-42.44 22.94c-6.44-7.59-14.2-13.65-23.29-18.2-9.09-4.54-18.8-6.81-29.15-6.81-9.78 0-18.98 2.01-27.6 6.04-8.62 4.03-16.19 9.6-22.68 16.73-6.5 7.13-11.59 15.35-15.27 24.67-3.68 9.31-5.52 19.38-5.52 30.19 0 10.69 1.84 20.73 5.52 30.1 3.68 9.37 8.77 17.6 15.27 24.67s14.06 12.65 22.68 16.73 17.82 6.12 27.6 6.12c10.46 0 20.21-2.3 29.24-6.9 9.03-4.6 16.76-10.7 23.2-18.29l42.44 23.12c-10.81 14.95-24.44 26.97-40.88 36.05-16.44 9.09-34.44 13.63-53.99 13.63zm207.17 0c-13.57 0-26.54-2.13-38.9-6.38s-23.17-10.41-32.43-18.46c-9.26-8.05-15.9-17.59-19.92-28.63l44.68-16.56c1.38 3.91 4.25 7.56 8.62 10.95 4.37 3.39 9.83 6.15 16.39 8.28 6.56 2.13 13.74 3.19 21.56 3.19 7.47 0 14.52-1.12 21.13-3.36 6.61-2.24 11.96-5.37 16.04-9.4 4.08-4.02 6.12-8.74 6.12-14.15 0-5.4-2.13-9.89-6.38-13.46-4.26-3.56-9.72-6.41-16.39-8.54-6.67-2.13-13.51-3.77-20.53-4.92-17.37-2.53-32.92-6.64-46.66-12.33-13.74-5.69-24.58-13.57-32.52-23.63-7.94-10.06-11.9-22.86-11.9-38.38 0-14.95 4.23-28 12.68-39.16 8.45-11.15 19.61-19.84 33.47-26.05C294.77 3.27 309.74.17 325.85.17c13.34 0 26.22 2.13 38.64 6.38 12.42 4.26 23.26 10.41 32.52 18.46 9.25 8.05 15.9 17.71 19.92 28.98l-44.68 16.22c-1.38-3.91-4.26-7.53-8.62-10.87-4.37-3.33-9.83-6.04-16.39-8.11-6.56-2.07-13.69-3.1-21.39-3.1-7.36-.11-14.35.98-20.96 3.28-6.61 2.3-12.02 5.46-16.22 9.49-4.2 4.03-6.3 8.62-6.3 13.8 0 6.79 1.98 11.9 5.95 15.35 3.97 3.45 9.23 5.92 15.78 7.42 6.55 1.5 13.8 2.82 21.73 3.97 16.33 2.42 31.4 6.7 45.19 12.85 13.8 6.15 24.87 14.32 33.21 24.49 8.34 10.18 12.51 22.57 12.51 37.17 0 14.95-4.2 28-12.59 39.16-8.4 11.16-19.49 19.84-33.29 26.05-13.79 6.2-28.79 9.31-45.01 9.31zm203.38 0c-13.57 0-26.54-2.13-38.9-6.38s-23.17-10.41-32.43-18.46c-9.26-8.05-15.9-17.59-19.92-28.63l44.68-16.56c1.38 3.91 4.25 7.56 8.62 10.95 4.37 3.39 9.83 6.15 16.39 8.28 6.55 2.13 13.74 3.19 21.56 3.19 7.47 0 14.52-1.12 21.13-3.36 6.61-2.24 11.96-5.37 16.04-9.4 4.08-4.02 6.12-8.74 6.12-14.15 0-5.4-2.13-9.89-6.38-13.46-4.26-3.56-9.72-6.41-16.39-8.54-6.67-2.13-13.51-3.77-20.53-4.92-17.37-2.53-32.92-6.64-46.66-12.33-13.74-5.69-24.58-13.57-32.52-23.63-7.94-10.06-11.9-22.86-11.9-38.38 0-14.95 4.23-28 12.68-39.16 8.45-11.15 19.61-19.84 33.46-26.05C498.14 3.27 513.11.17 529.22.17c13.34 0 26.22 2.13 38.64 6.38 12.42 4.26 23.26 10.41 32.52 18.46 9.25 8.05 15.9 17.71 19.92 28.98l-44.68 16.22c-1.38-3.91-4.26-7.53-8.62-10.87-4.37-3.33-9.83-6.04-16.39-8.11s-13.69-3.1-21.39-3.1c-7.36-.11-14.35.98-20.96 3.28-6.61 2.3-12.02 5.46-16.21 9.49-4.2 4.03-6.3 8.62-6.3 13.8 0 6.79 1.98 11.9 5.95 15.35 3.97 3.45 9.23 5.92 15.78 7.42 6.55 1.5 13.8 2.82 21.74 3.97 16.33 2.42 31.39 6.7 45.19 12.85 13.8 6.15 24.87 14.32 33.21 24.49 8.34 10.18 12.51 22.57 12.51 37.17 0 14.95-4.2 28-12.59 39.16-8.4 11.16-19.49 19.84-33.29 26.05-13.8 6.2-28.81 9.31-45.02 9.31zM26.33 375.99c-3.45 0-6.6-.84-9.43-2.51a19.037 19.037 0 0 1-6.76-6.76c-1.67-2.83-2.51-5.97-2.51-9.43v-13.03c-.04-.96-.44-1.75-1.2-2.38-.77-.62-1.66-1.19-2.67-1.71-1.02-.52-1.9-1.13-2.64-1.84-.75-.71-1.12-1.62-1.12-2.72 0-1.07.37-1.96 1.12-2.67.75-.71 1.63-1.34 2.64-1.9 1.02-.55 1.9-1.14 2.67-1.76.77-.62 1.17-1.36 1.2-2.22v-13.14c0-3.42.84-6.54 2.51-9.38 1.67-2.83 3.93-5.09 6.76-6.78 2.83-1.69 5.97-2.54 9.43-2.54h5.77v13.03h-5.77c-1.03 0-1.98.25-2.83.75-.85.5-1.54 1.18-2.06 2.06a5.48 5.48 0 0 0-.77 2.86v13.57c-.07 1.21-.44 2.23-1.09 3.07-.66.84-1.38 1.64-2.16 2.4-.78.77-1.41 1.65-1.87 2.64.5 1.1 1.13 2.03 1.9 2.78s1.48 1.52 2.14 2.32c.66.8 1.02 1.81 1.09 3.02v13.57c0 1.07.25 2.03.75 2.88.5.85 1.17 1.53 2.03 2.03s1.82.75 2.88.75h5.77v13.03h-5.78zm38.25-.37v-74.78h13.03v74.78H64.58zm70.94-33.76v33.76h-13.03v-30.34c0-2.1-.52-4.01-1.55-5.74-1.03-1.73-2.41-3.1-4.14-4.11-1.73-1.01-3.64-1.52-5.74-1.52s-4.02.51-5.74 1.52c-1.73 1.02-3.1 2.39-4.11 4.11-1.02 1.73-1.52 3.64-1.52 5.74v30.34H86.64l-.05-53.42h13.03l.05 4.75c1.82-1.92 3.99-3.45 6.52-4.57 2.53-1.12 5.25-1.68 8.17-1.68 3.88 0 7.43.95 10.63 2.86 3.21 1.91 5.76 4.45 7.67 7.64 1.9 3.19 2.86 6.74 2.86 10.66zm36.32 33.76v-74.78h28.69c4.06 0 7.73 1.01 11 3.04 3.28 2.03 5.88 4.75 7.8 8.15 1.92 3.4 2.88 7.17 2.88 11.3 0 3.38-.61 6.49-1.84 9.32s-2.94 5.28-5.13 7.35c-2.19 2.07-4.71 3.63-7.56 4.7l17.9 30.93h-15.01l-17.31-29.75h-8.39v29.75h-13.03zm13.03-42.79h14.16c1.85 0 3.54-.46 5.07-1.39a10.66 10.66 0 0 0 3.69-3.74c.93-1.57 1.39-3.31 1.39-5.23 0-1.96-.46-3.72-1.39-5.29a10.66 10.66 0 0 0-3.69-3.74c-1.53-.93-3.22-1.39-5.07-1.39h-14.16v20.78zm67.79 44.18c-4.91 0-9.39-1.26-13.43-3.79-4.04-2.53-7.26-5.93-9.67-10.2-2.4-4.27-3.61-8.99-3.61-14.16 0-3.88.69-7.52 2.08-10.92 1.39-3.4 3.3-6.39 5.74-8.97 2.44-2.58 5.28-4.6 8.52-6.06 3.24-1.46 6.69-2.19 10.36-2.19 4.17 0 7.99.88 11.46 2.64 3.47 1.76 6.42 4.18 8.84 7.24 2.42 3.06 4.18 6.55 5.29 10.47 1.1 3.92 1.35 8.01.75 12.29h-39.05c.5 1.99 1.32 3.78 2.46 5.37 1.14 1.59 2.58 2.85 4.33 3.79 1.74.94 3.72 1.43 5.93 1.47 2.28.04 4.35-.51 6.22-1.63 1.87-1.12 3.43-2.64 4.67-4.57l13.3 3.1c-2.17 4.74-5.41 8.61-9.72 11.62-4.31 2.99-9.13 4.5-14.47 4.5zm-13.14-33.44h26.28a13.98 13.98 0 0 0-2.48-5.8 14.357 14.357 0 0 0-4.67-4.14c-1.85-1.03-3.85-1.55-5.98-1.55s-4.11.51-5.93 1.52c-1.82 1.01-3.36 2.39-4.62 4.11-1.28 1.73-2.14 3.68-2.6 5.86zm88.62-21.37h13.03v53.42h-13.03l-.59-6.62a17.298 17.298 0 0 1-5.8 5.8c-2.4 1.48-5.24 2.22-8.52 2.22-3.95 0-7.66-.75-11.11-2.24-3.45-1.5-6.49-3.56-9.11-6.2a28.957 28.957 0 0 1-6.14-9.13c-1.48-3.45-2.22-7.16-2.22-11.11 0-3.81.7-7.39 2.11-10.74 1.41-3.35 3.37-6.28 5.9-8.81a27.92 27.92 0 0 1 8.76-5.93c3.31-1.42 6.87-2.14 10.68-2.14 3.53 0 6.69.78 9.48 2.35 2.8 1.57 5.17 3.56 7.13 5.98l-.57-6.85zm-15.23 42.25c2.78 0 5.23-.69 7.37-2.08 2.14-1.39 3.81-3.27 5.02-5.64 1.21-2.37 1.82-4.98 1.82-7.83 0-2.88-.61-5.51-1.82-7.88s-2.89-4.25-5.05-5.63c-2.16-1.39-4.6-2.08-7.34-2.08s-5.24.7-7.51 2.11c-2.26 1.41-4.06 3.29-5.4 5.64-1.34 2.35-2 4.97-2 7.85s.68 5.5 2.03 7.85c1.35 2.35 3.16 4.22 5.42 5.61 2.27 1.39 4.76 2.08 7.46 2.08zm39.21 11.17v-80.13h13.03v80.13h-13.03zm51.49 0v-74.78h13.03v61.75h31.14v13.03h-44.17zm56.78-60.31c-1.92 0-3.54-.63-4.86-1.9-1.32-1.26-1.98-2.86-1.98-4.78 0-1.89.66-3.47 1.98-4.75 1.32-1.28 2.92-1.92 4.81-1.92s3.48.64 4.78 1.92c1.3 1.28 1.95 2.87 1.95 4.75 0 1.92-.64 3.52-1.92 4.78-1.29 1.27-2.87 1.9-4.76 1.9zm-6.62 6.89h13.03v53.42h-13.03V322.2zm38.94-11.22v11.22h14.58v13.03h-14.58v40.38h-13.03v-40.38h-5.82V322.2h5.82v-11.22c0-3.06.76-5.87 2.27-8.41 1.51-2.55 3.55-4.58 6.12-6.09 2.56-1.51 5.4-2.27 8.49-2.27 2.24 0 4.47.46 6.68 1.39 2.21.93 4.17 2.35 5.88 4.27l-9.4 9.19c-.32-.6-.77-1.06-1.36-1.36-.59-.3-1.18-.45-1.79-.45-1.03 0-1.93.37-2.7 1.09-.78.73-1.16 1.61-1.16 2.64zm43.59 66.03c-4.91 0-9.39-1.26-13.43-3.79-4.04-2.53-7.26-5.93-9.67-10.2-2.4-4.27-3.61-8.99-3.61-14.16 0-3.88.69-7.52 2.08-10.92 1.39-3.4 3.3-6.39 5.74-8.97 2.44-2.58 5.28-4.6 8.52-6.06 3.24-1.46 6.69-2.19 10.36-2.19 4.17 0 7.99.88 11.46 2.64 3.47 1.76 6.42 4.18 8.84 7.24 2.42 3.06 4.18 6.55 5.29 10.47 1.1 3.92 1.35 8.01.75 12.29h-39.05c.5 1.99 1.32 3.78 2.46 5.37 1.14 1.59 2.58 2.85 4.33 3.79 1.74.94 3.72 1.43 5.93 1.47 2.28.04 4.35-.51 6.22-1.63s3.43-2.64 4.67-4.57l13.3 3.1c-2.17 4.74-5.41 8.61-9.72 11.62-4.31 2.99-9.13 4.5-14.47 4.5zm-13.14-33.44h26.28a13.98 13.98 0 0 0-2.48-5.8 14.357 14.357 0 0 0-4.67-4.14 12.119 12.119 0 0 0-5.98-1.55c-2.14 0-4.11.51-5.93 1.52-1.82 1.01-3.36 2.39-4.62 4.11-1.28 1.73-2.14 3.68-2.6 5.86zm65.3 32.42v-13.03h5.77c1.03 0 1.98-.25 2.83-.75s1.54-1.18 2.06-2.03c.52-.85.78-1.82.78-2.88v-13.57c.07-1.21.43-2.22 1.07-3.02s1.35-1.58 2.14-2.32c.78-.75 1.41-1.67 1.87-2.78-.46-1-1.08-1.88-1.84-2.64-.77-.76-1.48-1.57-2.14-2.4-.66-.84-1.02-1.86-1.09-3.07v-13.57c0-1.03-.26-1.99-.78-2.86-.52-.87-1.2-1.56-2.06-2.06-.85-.5-1.8-.75-2.83-.75h-5.77v-13.03h5.77c3.45 0 6.6.85 9.43 2.54s5.08 3.95 6.76 6.78c1.67 2.83 2.51 5.96 2.51 9.38v13.14c.03.85.43 1.59 1.18 2.22.75.62 1.63 1.21 2.64 1.76 1.01.55 1.9 1.18 2.67 1.9.76.71 1.15 1.6 1.15 2.67 0 1.1-.38 2.01-1.15 2.72-.77.71-1.66 1.33-2.67 1.84-1.01.52-1.9 1.09-2.64 1.71-.75.62-1.14 1.42-1.18 2.38v13.03c0 3.45-.84 6.6-2.51 9.43s-3.93 5.08-6.76 6.76c-2.83 1.67-5.97 2.51-9.43 2.51h-5.78z"/>
</symbol>
<symbol id="logo-stacked" viewBox="0 0 620.57 705.17"><path fill="#FF1493" d="M-.008 269.546 155.617.004l25.772 14.88L25.764 284.426zM283 140.78l-10.03-30.68-37.12 17.01 4.65-40.56h-32.29l4.55 40.56-37.12-17.01-10.03 30.68 40.16 8.09-27.55 30.27 25.94 18.72 20.15-35.33 20.14 35.33 25.94-18.72-27.55-30.27z"/><path d="M118.68 578.64c-16.33 0-31.68-3.25-46.06-9.75-14.38-6.5-27-15.5-37.86-27-10.87-11.5-19.38-24.81-25.53-39.93C3.08 486.84 0 470.65 0 453.4c0-17.36 3.08-33.61 9.23-48.73 6.15-15.12 14.66-28.4 25.53-39.85 10.87-11.44 23.49-20.41 37.86-26.91 14.37-6.5 29.73-9.75 46.06-9.75 19.55 0 37.55 4.51 53.99 13.54 16.44 9.03 30.07 21.07 40.88 36.14l-42.44 22.94c-6.44-7.59-14.2-13.65-23.29-18.2-9.09-4.54-18.8-6.81-29.15-6.81-9.78 0-18.98 2.01-27.6 6.04-8.62 4.03-16.19 9.6-22.68 16.73-6.5 7.13-11.59 15.35-15.27 24.67-3.68 9.31-5.52 19.38-5.52 30.19 0 10.69 1.84 20.73 5.52 30.1 3.68 9.37 8.77 17.6 15.27 24.67s14.06 12.65 22.68 16.73 17.82 6.12 27.6 6.12c10.46 0 20.21-2.3 29.24-6.9 9.03-4.6 16.76-10.7 23.2-18.29l42.44 23.12c-10.81 14.95-24.44 26.97-40.88 36.05-16.44 9.09-34.44 13.64-53.99 13.64zm207.17 0c-13.57 0-26.54-2.13-38.9-6.38s-23.17-10.41-32.43-18.46c-9.26-8.05-15.9-17.59-19.92-28.63l44.68-16.56c1.38 3.91 4.25 7.56 8.62 10.95 4.37 3.39 9.83 6.15 16.39 8.28 6.56 2.13 13.74 3.19 21.56 3.19 7.47 0 14.52-1.12 21.13-3.36 6.61-2.24 11.96-5.37 16.04-9.4 4.08-4.02 6.12-8.74 6.12-14.15 0-5.4-2.13-9.89-6.38-13.46-4.26-3.56-9.72-6.41-16.39-8.54-6.67-2.13-13.51-3.77-20.53-4.92-17.37-2.53-32.92-6.64-46.66-12.33-13.74-5.69-24.58-13.57-32.52-23.63-7.94-10.06-11.9-22.86-11.9-38.38 0-14.95 4.23-28 12.68-39.16 8.45-11.15 19.61-19.84 33.47-26.05 13.86-6.21 28.83-9.31 44.94-9.31 13.34 0 26.22 2.13 38.64 6.38 12.42 4.26 23.26 10.41 32.52 18.46 9.25 8.05 15.9 17.71 19.92 28.98l-44.68 16.22c-1.38-3.91-4.26-7.53-8.62-10.87-4.37-3.33-9.83-6.04-16.39-8.11-6.56-2.07-13.69-3.1-21.39-3.1-7.36-.11-14.35.98-20.96 3.28-6.61 2.3-12.02 5.46-16.22 9.49-4.2 4.03-6.3 8.62-6.3 13.8 0 6.79 1.98 11.9 5.95 15.35 3.97 3.45 9.23 5.92 15.78 7.42 6.55 1.5 13.8 2.82 21.73 3.97 16.33 2.42 31.4 6.7 45.19 12.85 13.8 6.15 24.87 14.32 33.21 24.49 8.34 10.18 12.51 22.57 12.51 37.17 0 14.95-4.2 28-12.59 39.16-8.4 11.16-19.49 19.84-33.29 26.05-13.79 6.2-28.79 9.31-45.01 9.31zm203.38 0c-13.57 0-26.54-2.13-38.9-6.38s-23.17-10.41-32.43-18.46c-9.26-8.05-15.9-17.59-19.92-28.63l44.68-16.56c1.38 3.91 4.25 7.56 8.62 10.95 4.37 3.39 9.83 6.15 16.39 8.28 6.55 2.13 13.74 3.19 21.56 3.19 7.47 0 14.52-1.12 21.13-3.36 6.61-2.24 11.96-5.37 16.04-9.4 4.08-4.02 6.12-8.74 6.12-14.15 0-5.4-2.13-9.89-6.38-13.46-4.26-3.56-9.72-6.41-16.39-8.54-6.67-2.13-13.51-3.77-20.53-4.92-17.37-2.53-32.92-6.64-46.66-12.33-13.74-5.69-24.58-13.57-32.52-23.63-7.94-10.06-11.9-22.86-11.9-38.38 0-14.95 4.23-28 12.68-39.16 8.45-11.15 19.61-19.84 33.46-26.05 13.86-6.21 28.83-9.31 44.94-9.31 13.34 0 26.22 2.13 38.64 6.38 12.42 4.26 23.26 10.41 32.52 18.46 9.25 8.05 15.9 17.71 19.92 28.98l-44.68 16.22c-1.38-3.91-4.26-7.53-8.62-10.87-4.37-3.33-9.83-6.04-16.39-8.11s-13.69-3.1-21.39-3.1c-7.36-.11-14.35.98-20.96 3.28-6.61 2.3-12.02 5.46-16.21 9.49-4.2 4.03-6.3 8.62-6.3 13.8 0 6.79 1.98 11.9 5.95 15.35 3.97 3.45 9.23 5.92 15.78 7.42 6.55 1.5 13.8 2.82 21.74 3.97 16.33 2.42 31.39 6.7 45.19 12.85 13.8 6.15 24.87 14.32 33.21 24.49 8.34 10.18 12.51 22.57 12.51 37.17 0 14.95-4.2 28-12.59 39.16-8.4 11.16-19.49 19.84-33.29 26.05-13.8 6.2-28.81 9.31-45.02 9.31zM26.33 704.16c-3.45 0-6.6-.84-9.43-2.51s-5.08-3.93-6.76-6.76c-1.67-2.83-2.51-5.97-2.51-9.43v-13.03c-.04-.96-.44-1.75-1.2-2.38-.77-.62-1.66-1.19-2.67-1.71-1.02-.52-1.9-1.13-2.64-1.84-.75-.72-1.12-1.62-1.12-2.73 0-1.07.37-1.96 1.12-2.67.75-.71 1.63-1.34 2.64-1.9 1.02-.55 1.9-1.14 2.67-1.76.77-.62 1.17-1.36 1.2-2.22v-13.14c0-3.42.84-6.54 2.51-9.38 1.67-2.83 3.93-5.09 6.76-6.78 2.83-1.69 5.97-2.54 9.43-2.54h5.77v13.03h-5.77c-1.03 0-1.98.25-2.83.75-.85.5-1.54 1.18-2.06 2.06a5.48 5.48 0 0 0-.77 2.86v13.57c-.07 1.21-.44 2.23-1.09 3.07-.66.84-1.38 1.64-2.16 2.4-.78.77-1.41 1.65-1.87 2.64.5 1.1 1.13 2.03 1.9 2.78s1.48 1.52 2.14 2.32c.66.8 1.02 1.81 1.09 3.02v13.57c0 1.07.25 2.03.75 2.88.5.85 1.17 1.53 2.03 2.03.85.5 1.82.75 2.88.75h5.77v13.03h-5.78zm38.25-.38V629h13.03v74.78H64.58zm70.94-33.76v33.76h-13.03v-30.34c0-2.1-.52-4.01-1.55-5.74-1.03-1.73-2.41-3.1-4.14-4.11-1.73-1.01-3.64-1.52-5.74-1.52s-4.02.51-5.74 1.52c-1.73 1.02-3.1 2.39-4.11 4.11-1.02 1.73-1.52 3.64-1.52 5.74v30.34H86.64l-.05-53.42h13.03l.05 4.75c1.82-1.92 3.99-3.45 6.52-4.57 2.53-1.12 5.25-1.68 8.17-1.68 3.88 0 7.43.95 10.63 2.86 3.21 1.91 5.76 4.45 7.67 7.64 1.9 3.19 2.86 6.75 2.86 10.66zm36.32 33.76V629h28.69c4.06 0 7.73 1.01 11 3.04 3.28 2.03 5.88 4.75 7.8 8.15 1.92 3.4 2.88 7.17 2.88 11.3 0 3.38-.61 6.49-1.84 9.32s-2.94 5.28-5.13 7.35c-2.19 2.07-4.71 3.63-7.56 4.7l17.9 30.93h-15.01l-17.31-29.75h-8.39v29.75h-13.03zm13.03-42.79h14.16c1.85 0 3.54-.46 5.07-1.39a10.66 10.66 0 0 0 3.69-3.74c.93-1.57 1.39-3.31 1.39-5.23 0-1.96-.46-3.72-1.39-5.29a10.66 10.66 0 0 0-3.69-3.74c-1.53-.93-3.22-1.39-5.07-1.39h-14.16v20.78zm67.79 44.18c-4.91 0-9.39-1.26-13.43-3.79-4.04-2.53-7.26-5.93-9.67-10.2-2.4-4.27-3.61-8.99-3.61-14.16 0-3.88.69-7.52 2.08-10.92 1.39-3.4 3.3-6.39 5.74-8.97 2.44-2.58 5.28-4.6 8.52-6.06s6.69-2.19 10.36-2.19c4.17 0 7.99.88 11.46 2.64 3.47 1.76 6.42 4.18 8.84 7.24 2.42 3.06 4.18 6.55 5.29 10.47 1.1 3.92 1.35 8.01.75 12.29h-39.05c.5 1.99 1.32 3.78 2.46 5.37 1.14 1.59 2.58 2.85 4.33 3.79 1.74.94 3.72 1.43 5.93 1.47 2.28.04 4.35-.51 6.22-1.63 1.87-1.12 3.43-2.64 4.67-4.57l13.3 3.1c-2.17 4.74-5.41 8.61-9.72 11.62-4.31 3-9.13 4.5-14.47 4.5zm-13.14-33.44h26.28a13.98 13.98 0 0 0-2.48-5.8 14.357 14.357 0 0 0-4.67-4.14c-1.85-1.03-3.85-1.55-5.98-1.55s-4.11.51-5.93 1.52c-1.82 1.01-3.36 2.39-4.62 4.11-1.28 1.74-2.14 3.69-2.6 5.86zm88.62-21.37h13.03v53.42h-13.03l-.59-6.62a17.298 17.298 0 0 1-5.8 5.8c-2.4 1.48-5.24 2.22-8.52 2.22-3.95 0-7.66-.75-11.11-2.24-3.45-1.5-6.49-3.56-9.11-6.2a28.957 28.957 0 0 1-6.14-9.13c-1.48-3.45-2.22-7.16-2.22-11.11 0-3.81.7-7.39 2.11-10.74 1.41-3.35 3.37-6.28 5.9-8.81a27.92 27.92 0 0 1 8.76-5.93c3.31-1.42 6.87-2.14 10.68-2.14 3.53 0 6.69.78 9.48 2.35 2.8 1.57 5.17 3.56 7.13 5.98l-.57-6.85zm-15.23 42.26c2.78 0 5.23-.69 7.37-2.08 2.14-1.39 3.81-3.27 5.02-5.64 1.21-2.37 1.82-4.98 1.82-7.83 0-2.88-.61-5.51-1.82-7.88s-2.89-4.25-5.05-5.63c-2.16-1.39-4.6-2.08-7.34-2.08s-5.24.7-7.51 2.11c-2.26 1.41-4.06 3.29-5.4 5.64-1.34 2.35-2 4.97-2 7.85s.68 5.5 2.03 7.85c1.35 2.35 3.16 4.22 5.42 5.61 2.27 1.38 4.76 2.08 7.46 2.08zm39.21 11.16v-80.13h13.03v80.13h-13.03zm51.49 0V629h13.03v61.75h31.14v13.03h-44.17zm56.78-60.31c-1.92 0-3.54-.63-4.86-1.9-1.32-1.26-1.98-2.86-1.98-4.78 0-1.89.66-3.47 1.98-4.75 1.32-1.28 2.92-1.92 4.81-1.92s3.48.64 4.78 1.92c1.3 1.28 1.95 2.87 1.95 4.75 0 1.92-.64 3.52-1.92 4.78-1.29 1.27-2.87 1.9-4.76 1.9zm-6.62 6.89h13.03v53.42h-13.03v-53.42zm38.94-11.21v11.22h14.58v13.03h-14.58v40.38h-13.03V663.4h-5.82v-13.03h5.82v-11.22c0-3.06.76-5.87 2.27-8.41 1.51-2.55 3.55-4.58 6.12-6.09 2.56-1.51 5.4-2.27 8.49-2.27 2.24 0 4.47.46 6.68 1.39 2.21.93 4.17 2.35 5.88 4.27l-9.4 9.19c-.32-.6-.77-1.06-1.36-1.36-.59-.3-1.18-.45-1.79-.45-1.03 0-1.93.37-2.7 1.1-.78.71-1.16 1.59-1.16 2.63zm43.59 66.02c-4.91 0-9.39-1.26-13.43-3.79-4.04-2.53-7.26-5.93-9.67-10.2-2.4-4.27-3.61-8.99-3.61-14.16 0-3.88.69-7.52 2.08-10.92 1.39-3.4 3.3-6.39 5.74-8.97 2.44-2.58 5.28-4.6 8.52-6.06 3.24-1.46 6.69-2.19 10.36-2.19 4.17 0 7.99.88 11.46 2.64 3.47 1.76 6.42 4.18 8.84 7.24 2.42 3.06 4.18 6.55 5.29 10.47 1.1 3.92 1.35 8.01.75 12.29h-39.05c.5 1.99 1.32 3.78 2.46 5.37 1.14 1.59 2.58 2.85 4.33 3.79 1.74.94 3.72 1.43 5.93 1.47 2.28.04 4.35-.51 6.22-1.63s3.43-2.64 4.67-4.57l13.3 3.1c-2.17 4.74-5.41 8.61-9.72 11.62-4.31 3-9.13 4.5-14.47 4.5zm-13.14-33.44h26.28a13.98 13.98 0 0 0-2.48-5.8 14.357 14.357 0 0 0-4.67-4.14 12.119 12.119 0 0 0-5.98-1.55c-2.14 0-4.11.51-5.93 1.52-1.82 1.01-3.36 2.39-4.62 4.11-1.28 1.74-2.14 3.69-2.6 5.86zm65.3 32.43v-13.03h5.77c1.03 0 1.98-.25 2.83-.75.85-.5 1.54-1.18 2.06-2.03.52-.85.78-1.82.78-2.88V671.9c.07-1.21.43-2.22 1.07-3.02.64-.8 1.35-1.58 2.14-2.32.78-.75 1.41-1.67 1.87-2.78-.46-1-1.08-1.88-1.84-2.64-.77-.76-1.48-1.57-2.14-2.4-.66-.84-1.02-1.86-1.09-3.07V642.1c0-1.03-.26-1.99-.78-2.86-.52-.87-1.2-1.56-2.06-2.06-.85-.5-1.8-.75-2.83-.75h-5.77V623.4h5.77c3.45 0 6.6.85 9.43 2.54s5.08 3.95 6.76 6.78c1.67 2.83 2.51 5.96 2.51 9.38v13.14c.03.85.43 1.59 1.18 2.22.75.62 1.63 1.21 2.64 1.76 1.01.55 1.9 1.18 2.67 1.9.76.71 1.15 1.6 1.15 2.67 0 1.1-.38 2.01-1.15 2.72-.77.71-1.66 1.33-2.67 1.84-1.01.52-1.9 1.09-2.64 1.71-.75.62-1.14 1.42-1.18 2.38v13.03c0 3.45-.84 6.6-2.51 9.43s-3.93 5.08-6.76 6.76c-2.83 1.67-5.97 2.51-9.43 2.51h-5.78z"/>
</symbol>
<symbol id="logo" viewBox="0 0 4561.1 606.5">
  <path d="M1049.7 195.2c10.8 3.8 20.9 9.7 30.2 17.5l-24.8 29.8c-12.8-10.5-27-15.7-42.5-15.7-9.3 0-17.7 2.6-25 7.8-7.3 5.2-13.1 13.4-17.4 24.5-4.3 11.1-6.4 25-6.4 41.8 0 24.7 4.5 43.1 13.4 55.2 8.9 12.1 21 18.2 36.3 18.2 6.7 0 12.7-.9 18.1-2.6 5.4-1.7 10.2-3.9 14.4-6.5 4.2-2.6 8.8-5.9 13.7-9.9l22.9 29.2c-19.4 19.2-43.3 28.8-71.8 28.8-19.5 0-36.7-4.3-51.6-12.9s-26.6-21.4-34.9-38.2c-8.4-16.9-12.5-37.3-12.5-61.2 0-23.2 4.3-43.2 13-60 8.7-16.8 20.5-29.6 35.6-38.4 15.1-8.8 32.1-13.2 51.1-13.2 14.7 0 27.4 2 38.2 5.8zM1250.3 380.9c-7 10.2-17 18.2-30.1 23.8-13.1 5.7-28.5 8.5-46.2 8.5-35.3 0-63.4-10.3-84.3-30.8l25.5-28.3c16.3 14.4 35.5 21.5 57.5 21.5 10.8 0 19.4-2.3 25.8-6.9 6.5-4.6 9.7-11 9.7-19.2 0-5.2-1.2-9.6-3.5-13.2-2.4-3.5-6.3-6.7-11.8-9.6-5.5-2.9-13.3-5.8-23.5-8.9-16.7-5.1-30.1-10.8-40.2-16.9-10.1-6.2-17.4-13.2-21.9-21.2-4.6-8-6.8-17.5-6.8-28.5 0-12.6 3.6-23.6 10.7-33 7.1-9.4 16.8-16.5 29-21.5 12.2-4.9 25.7-7.4 40.6-7.4 31.7 0 57.2 9.2 76.5 27.5l-23.8 27.4c-7.2-5.9-14.9-10.4-23.2-13.4-8.3-3-16.7-4.5-25.5-4.5-9.8 0-17.6 1.8-23.4 5.5-5.7 3.6-8.6 8.8-8.6 15.5 0 4.6 1.3 8.4 3.8 11.5 2.6 3 6.8 5.8 12.8 8.5s15 5.8 27 9.6c14.4 4.4 26.2 9.5 35.4 15.2 9.2 5.7 16.3 12.9 21.3 21.5 5 8.7 7.5 19.4 7.5 32.1.1 13.3-3.4 25-10.3 35.2zM1434.9 380.9c-7 10.2-17 18.2-30.1 23.8-13.1 5.7-28.5 8.5-46.2 8.5-35.3 0-63.4-10.3-84.3-30.8l25.5-28.3c16.3 14.4 35.5 21.5 57.5 21.5 10.8 0 19.4-2.3 25.8-6.9 6.5-4.6 9.7-11 9.7-19.2 0-5.2-1.2-9.6-3.5-13.2-2.4-3.5-6.3-6.7-11.8-9.6-5.5-2.9-13.3-5.8-23.5-8.9-16.7-5.1-30.1-10.8-40.2-16.9-10.1-6.2-17.4-13.2-21.9-21.2-4.6-8-6.8-17.5-6.8-28.5 0-12.6 3.6-23.6 10.7-33 7.1-9.4 16.8-16.5 29-21.5 12.2-4.9 25.7-7.4 40.6-7.4 31.7 0 57.2 9.2 76.5 27.5l-23.8 27.4c-7.2-5.9-14.9-10.4-23.2-13.4-8.3-3-16.7-4.5-25.5-4.5-9.8 0-17.6 1.8-23.4 5.5-5.7 3.6-8.6 8.8-8.6 15.5 0 4.6 1.3 8.4 3.8 11.5 2.6 3 6.8 5.8 12.8 8.5s15 5.8 27 9.6c14.4 4.4 26.2 9.5 35.4 15.2 9.2 5.7 16.3 12.9 21.3 21.5 5 8.7 7.5 19.4 7.5 32.1.1 13.3-3.3 25-10.3 35.2zM1783.3 183.4c-9.5 0-16.7 1.2-21.5 3.7-4.8 2.5-7.2 6.9-7.2 13.2 0 1.1 0 2 .2 2.6l4.8 45.4c.3 2.8.5 5.3.5 7.7 0 13.5-4.2 23.7-12.5 30.5-8.4 6.8-20.3 11.4-35.8 13.8 16.1 2.4 28.2 6.8 36.2 13.4 8 6.6 12.1 16.7 12.1 30.3 0 2.6-.2 5.3-.5 8.3l-4.8 45.4c-.1.6-.2 1.5-.2 2.6 0 6.4 2.4 10.8 7.2 13.2 4.8 2.5 12 3.7 21.5 3.7V451c-17.5 0-31.7-1.5-42.5-4.6-10.8-3.1-18.8-8.1-23.9-14.9-5.1-6.9-7.7-16-7.7-27.4 0-2.1.2-5.3.6-9.8l4.6-44c.1-.9.2-2.3.2-4 0-9.5-3.7-16.3-11.2-20.3-7.4-4-17.8-6-31.2-6v-39.4c13.2 0 23.6-2 31.1-6s11.2-10.8 11.2-20.3c0-1.7-.1-3.1-.2-4l-4.6-43.7c-.4-3.3-.6-6.8-.6-10.5 0-11.4 2.6-20.5 7.8-27.2 5.2-6.8 13.2-11.7 23.9-14.8 10.8-3.1 24.9-4.6 42.5-4.6v33.9zM2170.6 231.7h-44V371h44v37.1h-138.5V371h44V231.7h-44v-36.9h138.5v36.9zM2215.2 244.7h42.5l3.4 18.9c7.4-8.3 15.1-14.4 23.2-18.4 8.1-3.9 17.3-5.9 27.5-5.9 14 0 25 4.3 33 12.8 7.9 8.6 11.9 20.5 11.9 35.9v120h-48.6V302c0-6.8-.5-12.1-1.5-16-1-3.9-2.6-6.7-4.8-8.4-2.3-1.7-5.4-2.5-9.4-2.5-4.9 0-9.7 1.6-14.4 4.7-4.7 3.1-9.4 7.8-14.2 13.9V408h-48.6V244.7zM2723.9 295.8c-7.8 9.7-18.2 17.1-31.1 22.2l55.8 90h-57.1l-46.2-81.5H2631V408h-50.5V194.8h67.1c29.2 0 51.2 5.3 65.8 15.9 14.7 10.6 22 26.9 22 48.8.2 14.6-3.7 26.6-11.5 36.3zm-49.2-58.4c-5.9-4.8-14.9-7.2-26.8-7.2h-16.8v61.7h18.8c11.2 0 19.6-2.6 25.2-7.8s8.5-13.4 8.5-24.5c0-10.1-3-17.5-8.9-22.2zM2823.8 368.8c6.9 6.1 15.7 9.1 26.6 9.1 13.8 0 27.8-4.5 41.8-13.5l19.5 26.5c-8.1 7-17.7 12.5-28.7 16.5s-23.2 6-36.5 6c-18.3 0-33.7-3.6-46.5-10.9-12.7-7.3-22.3-17.5-28.8-30.5-6.5-13.1-9.7-28.2-9.7-45.3 0-16.3 3.1-31.1 9.4-44.3s15.4-23.7 27.4-31.4c12-7.7 26.3-11.5 42.9-11.5 15.5 0 29 3.3 40.5 10s20.4 16.3 26.7 28.9c6.3 12.6 9.4 27.6 9.4 44.9 0 6.7-.3 12.5-.9 17.4h-105.8c1.6 12.6 5.8 22.1 12.7 28.1zm-3.8-87.2c-5.3 6.5-8.4 16.4-9.5 29.7h60c-.3-26.3-10.1-39.4-29.2-39.4-8.9 0-16 3.2-21.3 9.7zM3093.6 374.3c1.6 2.8 4.4 5 8.3 6.4l-10 32c-9.9-.9-18.2-3.1-24.7-6.5s-11.6-8.4-15.3-15c-6.1 7.3-13.9 12.8-23.5 16.5-9.6 3.7-19.7 5.6-30.4 5.6-11.1 0-20.8-2.2-29.2-6.5-8.4-4.4-14.8-10.4-19.3-18.2-4.5-7.7-6.8-16.6-6.8-26.7 0-11.7 3.1-21.7 9.4-30 6.3-8.3 15.3-14.6 27.2-19 11.9-4.4 26.2-6.5 42.9-6.5h22v-6.2c0-16.7-10.8-25.1-32.3-25.1-5.4 0-12.3.8-20.5 2.3-8.3 1.5-16.3 3.6-24.2 6.3l-11.2-32.3c10.3-3.9 21.1-6.9 32.5-9 11.4-2.1 21.8-3.2 31.2-3.2 24 0 41.9 4.9 53.7 14.6 11.8 9.7 17.7 24.1 17.7 43.1v64c.1 6.1.9 10.6 2.5 13.4zm-62-.6c5.6-3.2 9.9-7.6 12.8-13.2V334h-12c-13.3 0-23.2 2.1-29.7 6.2s-9.7 10.2-9.7 18.3c0 6.4 1.9 11.3 5.8 14.8 3.8 3.5 9.2 5.2 16.1 5.2 5.5 0 11.1-1.6 16.7-4.8zM3223.5 356.7c0 6.4 1.8 11 5.5 13.9 3.6 2.9 8.8 4.4 15.6 4.4 7.4 0 15.1-1.6 23.1-4.9l11.7 32.5c-13.6 7.2-29.4 10.8-47.2 10.8-19.2 0-33.5-5.5-43-16.5s-14.2-26.4-14.2-46.1V213h-48.2v-33.2h96.8v176.9zM3514.5 194.8h50.5v173.4h92.5l-5.2 39.8h-137.7V194.8zM3791.9 374.8h41.5V408H3697v-33.2h46.3v-96.9h-44.8v-33.2h93.4v130.1zm-14.6-212.1c4.3 2.4 7.7 5.7 10.2 9.8 2.5 4.2 3.7 8.8 3.7 13.9s-1.2 9.8-3.7 14c-2.5 4.2-5.9 7.5-10.2 9.9-4.4 2.4-9.3 3.6-14.7 3.6-5.5 0-10.5-1.2-14.9-3.6-4.4-2.4-7.8-5.7-10.3-9.9-2.5-4.2-3.7-8.9-3.7-14s1.2-9.8 3.7-13.9c2.5-4.2 5.9-7.4 10.3-9.8 4.4-2.4 9.4-3.6 14.9-3.6s10.4 1.2 14.7 3.6zM4036.7 185l-13.4 31.7c-10.9-4.1-22.6-6.2-35.1-6.2-9.6 0-16.5 1.7-20.7 5.2-4.2 3.5-6.2 9.3-6.2 17.4V255h53.2l-5.4 33.7h-47.8v119.4H3913V288.7h-34.3V255h34.3v-23.7c0-10.9 2.6-20.6 7.8-29.2 5.2-8.6 12.9-15.3 23.1-20.2 10.2-4.9 22.5-7.3 36.8-7.3 21.2.1 39.9 3.5 56 10.4zM4116.1 368.8c6.9 6.1 15.7 9.1 26.6 9.1 13.8 0 27.8-4.5 41.8-13.5l19.5 26.5c-8.1 7-17.7 12.5-28.7 16.5s-23.2 6-36.5 6c-18.3 0-33.7-3.6-46.5-10.9-12.7-7.3-22.3-17.5-28.8-30.5-6.5-13.1-9.7-28.2-9.7-45.3 0-16.3 3.1-31.1 9.4-44.3s15.4-23.7 27.4-31.4c12-7.7 26.3-11.5 42.9-11.5 15.5 0 29 3.3 40.5 10s20.4 16.3 26.7 28.9c6.3 12.6 9.4 27.6 9.4 44.9 0 6.7-.3 12.5-.9 17.4h-105.8c1.6 12.6 5.8 22.1 12.7 28.1zm-3.8-87.2c-5.3 6.5-8.4 16.4-9.5 29.7h60c-.3-26.3-10.1-39.4-29.2-39.4-8.9 0-16 3.2-21.3 9.7zM4492.6 154.2c10.8 3.1 18.8 8.1 23.9 14.9 5.1 6.9 7.7 16 7.7 27.4 0 2.1-.2 5.3-.6 9.8l-4.6 44c-.1.9-.2 2.3-.2 4 0 9.5 3.7 16.3 11.2 20.3 7.4 4 17.8 6 31.2 6V320c-13.2 0-23.6 2-31.1 6s-11.2 10.8-11.2 20.3c0 1.7.1 3.1.2 4l4.6 43.7c.4 3.3.6 6.8.6 10.5 0 11.4-2.6 20.5-7.8 27.2-5.2 6.8-13.2 11.7-23.9 14.8-10.8 3.1-24.9 4.6-42.5 4.6v-33.8c9.5 0 16.7-1.2 21.5-3.7 4.8-2.5 7.2-6.9 7.2-13.2 0-1.1-.1-2-.2-2.6l-4.8-45.4c-.3-2.8-.5-5.3-.5-7.7 0-13.6 4.2-23.8 12.5-30.6 8.4-6.8 20.3-11.3 35.9-13.7-16.2-2.4-28.3-6.8-36.4-13.5-8.1-6.6-12.1-16.7-12.1-30.2 0-2.7.2-5.4.5-8.3l4.8-45.4c.1-.6.2-1.5.2-2.6 0-6.4-2.4-10.8-7.2-13.2-4.8-2.5-12-3.7-21.5-3.7v-33.8c17.6-.1 31.8 1.4 42.6 4.5z"/>
  <path fill="#ff1493" d="M-142.8 275.3h668v56h-668z" transform="rotate(-60 191.251 303.263)"/>
  <path fill="#ff1493" d="M457.6 182.3h70.2l-10.1 88.2 80.7-37 21.8 66.7-87.3 17.6 59.9 65.8-56.4 40.7-43.8-76.8-43.8 76.8-56.4-40.7 59.9-65.8-87.3-17.6 21.8-66.7 80.7 37-9.9-88.2z"/>

</symbol>
<symbol id="mastodon" viewBox="0 0 280 300.2"><path d="M280 83c.2 20.7 0 60.3-2.8 80.3-6.4 81.3-132.9 74-191 62.7-5.5-1.1-6.2-.3-5.5 5.2 5 49.3 69.6 39.3 104.6 33.1 7.1-1.7 7.5-1.3 7.8 6.2.4 17 1.3 19.4-16.2 23.6-21.7 6.6-44 6.2-66.4 5.9-12.5-2.4-25.2-3.9-37.7-7C-14.4 268.4 2.2 157.4 0 86.6 8.2 15.7 52 4.3 115 0c70.3.5 153.2-6.8 165 83zm-51 52.9h-.1c0-13 .4-26-.1-39 .9-46.3-63-64-84.2-21.7-4.2 8-4.8 8-9.2 0-5.8-10.4-13.5-18.5-25.3-22-75.3-17-57.6 77.4-59.1 123.6-.6 9 16.9 3.7 22.7 5.1 7 0 7.4-.4 7.4-7.4 0-21.8 0-43.7.1-65.5-.5-12.5 3.2-26.5 17.8-27.6 34.9-2.5 24.4 41.7 26 63.8 0 6.2.5 6.7 6.5 6.7 5.7.1 11.3.1 17 0 5.9-.1 6.5-.6 6.5-6.7 1.6-22.2-8.9-66.9 26.5-63.7 14.3 1.4 17.9 15.3 17.5 27.6 0 22.2.1 44.3-.1 66.5-1 10.9 16.5 4.9 23.4 6.4 6.1-.1 6.7-.6 6.7-6.5.1-13.3 0-26.5 0-39.6z"/>
</symbol>
<symbol id="pinterest" viewBox="0 0 39 50">
  <path d="M20.4 0C6.9 0 0 9.7 0 17.9c0 4.9 1.9 9.3 5.9 10.9.7.3 1.2 0 1.4-.7.1-.5.4-1.8.6-2.3.2-.7.1-1-.4-1.6-1.2-1.4-1.9-3.1-1.9-5.6 0-7.2 5.4-13.7 14.1-13.7 7.7 0 11.9 4.7 11.9 11 0 8.2-3.6 15.2-9.1 15.2-3 0-5.2-2.5-4.5-5.5.9-3.6 2.5-7.5 2.5-10.1 0-2.3-1.3-4.3-3.9-4.3-3.1 0-5.5 3.2-5.5 7.4 0 2.7.9 4.5.9 4.5S8.9 36.3 8.4 38.6c-1.1 4.6-.2 10.3-.1 10.9 0 .3.5.4.7.2.3-.4 3.9-4.9 5.2-9.4.3-1.3 2-7.9 2-7.9 1 1.9 3.9 3.6 7 3.6 9.2 0 15.4-8.4 15.4-19.6C38.5 7.9 31.4 0 20.4 0"/>

</symbol>
<symbol id="twitter" viewBox="0 0 50 42">
  <path d="M44.9 12.1c0 13.6-10.3 29.2-29.2 29.2-5.8 0-11.2-1.7-15.7-4.6.8.1 1.6.1 2.4.1 4.8 0 9.2-1.6 12.7-4.4-4.5-.1-8.3-3.1-9.6-7.1.6.1 1.3.2 1.9.2.9 0 1.8-.1 2.7-.4-4.6-.9-8.1-5-8.1-10V15c1.4.8 3 1.2 4.6 1.3-2.8-1.8-4.6-5-4.6-8.6 0-1.9.5-3.6 1.4-5.2C8.5 8.7 16 12.8 24.5 13.2c-.2-.8-.3-1.5-.3-2.3C24.2 5.2 28.8.6 34.5.6c2.9 0 5.6 1.2 7.5 3.2 2.3-.5 4.5-1.3 6.5-2.5-.8 2.4-2.4 4.4-4.5 5.7 2.1-.2 4.1-.8 5.9-1.6-1.4 2.1-3.1 3.9-5.1 5.3.1.5.1 1 .1 1.4z"/>

</symbol></svg>