<?xml version="1.0" encoding="utf-8"?>
<svg xmlns="http://www.w3.org/2000/svg">
<symbol id="instagram" viewBox="0 0 50 50">
  <path d="M26.9 0c5.1 0 6 0 8.4.1 2.7.1 4.5.5 6.1 1.2 1.6.6 3 1.5 4.4 2.9S48 7 48.7 8.6c.6 1.6 1 3.4 1.2 6.1.1 2.7.1 3.5.1 10.3s0 7.6-.2 10.3c-.1 2.7-.5 4.5-1.2 6.1-.6 1.6-1.5 3-2.9 4.4S43 48 41.4 48.7c-1.6.6-3.4 1-6.1 1.2-2.7.1-3.5.1-10.3.1s-7.6 0-10.3-.2c-2.7-.1-4.5-.5-6.1-1.2-1.6-.6-3-1.5-4.4-2.9S2 43 1.3 41.4C.7 39.8.3 38 .1 35.3 0 32.9 0 32 0 26.9v-3.8c0-5.1 0-6 .1-8.4.1-2.7.5-4.5 1.2-6.1.7-1.6 1.5-3 2.9-4.4S7 2 8.6 1.3C10.2.7 12 .3 14.7.1 17.1 0 18 0 23.1 0h3.8zM25 4.5c-6.7 0-7.5 0-10.1.1-2.4.1-3.8.5-4.6.9-1.2.5-2 1-2.9 1.9S6 9.1 5.5 10.3c-.3.9-.7 2.2-.9 4.6-.1 2.6-.1 3.4-.1 10.1s0 7.5.1 10.1c.1 2.4.5 3.8.9 4.6.5 1.2 1 2 1.9 2.9s1.7 1.4 2.9 1.9c.9.3 2.2.8 4.6.9 2.4.1 3.2.1 8.2.1h3.8c5 0 5.8 0 8.2-.1 2.4-.1 3.8-.5 4.6-.9 1.2-.5 2-1 2.9-1.9s1.4-1.7 1.9-2.9c.3-.9.8-2.2.9-4.6.1-2.4.1-3.2.1-8.2v-3.8c0-5 0-5.8-.1-8.2-.1-2.4-.5-3.8-.9-4.6-.5-1.2-1-2-1.9-2.9S40.9 6 39.7 5.5c-.9-.3-2.2-.8-4.6-.9-2.6-.1-3.4-.1-10.1-.1z"/>
  <path d="M25 12.2c7.1 0 12.8 5.7 12.8 12.8 0 7.1-5.7 12.8-12.8 12.8S12.2 32.1 12.2 25c0-7.1 5.7-12.8 12.8-12.8zm0 4.5c-4.6 0-8.3 3.7-8.3 8.3 0 4.6 3.7 8.3 8.3 8.3 4.6 0 8.3-3.7 8.3-8.3 0-4.6-3.7-8.3-8.3-8.3zM41.3 11.7c0 1.7-1.3 3-3 3s-3-1.3-3-3 1.3-3 3-3 3 1.3 3 3"/>

</symbol>
<symbol id="facebook" viewBox="0 0 28 50">
  <path d="M27.5 9.5h-7.7c-.9 0-1.9 1.2-1.9 2.9v4.9h9.6v9.6h-9.6V50H8.2V26.9H.5v-9.6h7.7v-4.8C8.2 5.6 13.4 0 19.8 0h7.7v9.5z"/>

</symbol>
<symbol id="github" viewBox="0 0 32.6 31.8">
  <path d="M16.3 0C7.3 0 0 7.3 0 16.3c0 7.2 4.7 13.3 11.1 15.5.8.1 1.1-.4 1.1-.8v-2.8c-4.5 1-5.5-2.2-5.5-2.2-.7-1.9-1.8-2.4-1.8-2.4-1.5-1 .1-1 .1-1 1.6.1 2.5 1.7 2.5 1.7 1.5 2.5 3.8 1.8 4.7 1.4.1-1.1.6-1.8 1-2.2-3.6-.4-7.4-1.8-7.4-8.1 0-1.8.6-3.2 1.7-4.4-.1-.3-.7-2 .2-4.2 0 0 1.4-.4 4.5 1.7 1.3-.4 2.7-.5 4.1-.5 1.4 0 2.8.2 4.1.5 3.1-2.1 4.5-1.7 4.5-1.7.9 2.2.3 3.9.2 4.3 1 1.1 1.7 2.6 1.7 4.4 0 6.3-3.8 7.6-7.4 8 .6.5 1.1 1.5 1.1 3V31c0 .4.3.9 1.1.8 6.5-2.2 11.1-8.3 11.1-15.5C32.6 7.3 25.3 0 16.3 0z"/>

</symbol>
<symbol id="icon-dark" viewBox="0 0 106.3 76.6"><path d="M57.2 67.7c-17.4 0-31.5-14.1-31.5-31.5 0-12.7 7.5-24.1 19.2-29 .9-.4 1.8-.2 2.6.4.7.6 1.1 1.5.9 2.4-.4 2-.6 4.1-.6 6.2 0 16.8 13.7 30.5 30.5 30.5 1.6 0 3.2-.1 4.7-.4.9-.1 1.8.2 2.4 1 .6.7.6 1.7.2 2.6-5.2 10.8-16.4 17.8-28.4 17.8zM42.8 13.9C35.3 18.7 30.7 27 30.7 36.1c0 14.6 11.9 26.5 26.5 26.5 8.5 0 16.6-4.2 21.5-11h-.5c-19.6 0-35.5-15.9-35.5-35.5 0-.7 0-1.4.1-2.2zM95.5 1.9l1.7 8.4c.1.3.3.6.6.7l7.9 3.4c.8.3.8 1.4.1 1.8l-7.5 4.2c-.3.2-.5.5-.5.8l-.8 8.6c-.1.8-1.1 1.2-1.7.6L89 24.6c-.2-.2-.6-.3-.9-.2l-8.4 1.9c-.8.2-1.5-.6-1.1-1.4l3.6-7.8c.1-.3.1-.6 0-.9l-4.4-7.4c-.4-.7.2-1.6 1-1.5l8.5 1c.3 0 .7-.1.9-.3l5.7-6.4c.5-.8 1.5-.5 1.6.3zM8.5 56.1l4 4.1c.2.2.5.3.8.3l5.6-.9c.7-.1 1.3.6.9 1.3l-2.7 5c-.1.3-.1.6 0 .8l2.6 5.1c.3.7-.2 1.4-.9 1.3l-5.6-1c-.3-.1-.6 0-.8.2l-4 4.1c-.5.5-1.4.2-1.5-.5l-.8-5.7c0-.3-.2-.5-.5-.7L.5 67c-.7-.3-.6-1.3 0-1.6l5.1-2.5c.3-.1.4-.4.5-.7l.9-5.6c.1-.7 1-1 1.5-.5zM19.4.7l.9 5.1c0 .3.2.5.5.6l4.7 2.1c.6.3.6 1.1.1 1.4l-4.5 2.5c-.2.1-.4.4-.4.6l-.6 5c-.1.7-.9.9-1.3.5L15 15c-.2-.2-.5-.3-.7-.2l-5 1.1c-.6.1-1.2-.5-.9-1.1l2.2-4.6c.1-.2.1-.5 0-.7L8 4.9c-.3-.6.2-1.3.8-1.2l5.1.7c.3 0 .5-.1.7-.3L18 .3c.5-.5 1.3-.3 1.4.4z"/>
</symbol>
<symbol id="icon-light" viewBox="0 0 106.3 76.6"><path fill="none" d="M81.7 41.2c-.1 0-3.2 0-5 1.9-.9 1-2.5 1.1-3.5.1-1-.9-1.1-2.5-.1-3.5 1.6-1.7 3.5-2.5 5.2-3-2.7-2.8-6.5-4.5-10.5-4.5-7.3 0-13.3 5.4-14.3 12.4 3.7.9 7 3.1 9.2 6.4.8 1.1.5 2.7-.7 3.5-1.1.8-2.7.5-3.5-.7-2-2.9-5.2-4.6-8.7-4.6-5.8 0-10.5 4.7-10.5 10.5S44 70.2 49.8 70.2h32c8 0 14.5-6.5 14.5-14.5s-6.6-14.5-14.6-14.5zM51.4 36.1C50 31.1 45 28 39.9 29c-5.4 1.1-8.9 6.3-7.8 11.7.8 3.8 3.6 6.7 7.1 7.7 2.5-2.3 5.7-3.8 9.2-4.1.4-3 1.4-5.8 3-8.2z"/><path d="M34 16.4c.3 1.5 1.7 2.5 3.2 2.2 1.5-.3 2.5-1.7 2.2-3.2L37.2 4.2C36.9 2.7 35.5 1.7 34 2c-1.5.3-2.5 1.7-2.2 3.2L34 16.4zM22.2 31.9c.5-1.4-.3-3-1.7-3.5L9.6 24.7c-1.4-.5-3 .3-3.5 1.7s.3 3 1.7 3.5l10.9 3.7c1.5.5 3-.3 3.5-1.7zM25.7 51.9c-1-1.1-2.7-1.3-3.9-.3l-8.2 7.2c-1.1 1-1.3 2.7-.3 3.9 1 1.1 2.7 1.3 3.9.3l8.2-7.2c1.2-1.1 1.3-2.8.3-3.9zM60.8 24.8l7.9-6.9c1.1-1 1.3-2.7.3-3.9-1-1.1-2.7-1.3-3.9-.3l-7.9 6.9c-1.1 1-1.3 2.7-.3 3.9 1 1.1 2.8 1.3 3.9.3z"/><path d="M84.1 36.3c-.1-.2-.2-.5-.3-.7-3.6-5.3-9.6-8.4-16.1-8.4-4.6 0-8.9 1.6-12.2 4.4-3.1-5.9-9.8-9.3-16.7-7.9-8.4 1.7-13.8 9.8-12.2 18.2 1 5.2 4.6 9.3 9.1 11.2-1 2-1.5 4.3-1.5 6.7 0 8.5 7 15.5 15.5 15.5h32c10.8 0 19.5-8.7 19.5-19.5 0-10.1-7.5-18.3-17.1-19.5zM32 40.7c-1-5.4 2.5-10.6 7.9-11.7 5.1-1 10.1 2.1 11.5 7.1-1.6 2.4-2.6 5.2-3 8.2-3.5.3-6.8 1.8-9.2 4.1-3.5-1-6.4-3.9-7.2-7.7zm49.7 29.5h-32c-5.8 0-10.5-4.7-10.5-10.5s4.7-10.5 10.5-10.5c3.5 0 6.7 1.7 8.7 4.6.8 1.1 2.3 1.4 3.5.7 1.1-.8 1.4-2.3.7-3.5-2.2-3.2-5.5-5.5-9.2-6.4 1-7 7-12.4 14.3-12.4 4 0 7.7 1.7 10.5 4.5-1.7.5-3.6 1.3-5.2 3-.9 1-.9 2.6.1 3.5 1 .9 2.6.9 3.5-.1 1.8-1.9 5-1.9 5-1.9 8 0 14.5 6.5 14.5 14.5s-6.4 14.5-14.4 14.5z"/>
</symbol>
<symbol id="linkedin" viewBox="0 0 50 49">
  <path d="M50 48.3H39.3V30.8c0-4.4-1.6-7.4-5.4-7.4-3 0-4.7 2-5.5 4-.3.7-.4 1.7-.4 2.6v18.2H17.3s.1-29.5 0-32.6H28v4.6c1.4-2.2 4-5.4 9.7-5.4 7.1 0 12.3 4.7 12.3 14.7v18.8zM.6 48.3h10.8V15.7H.6zM6 11.3c-3.7 0-6-2.5-6-5.6C0 2.4 2.4 0 6.1 0c3.7 0 5.9 2.4 6 5.6 0 3.2-2.4 5.7-6.1 5.7z"/>

</symbol>
<symbol id="logo-icon" viewBox="0 0 620.2 606.5">
  <path fill="#FF1493" d="M-.02 578.421l334-578.488 48.496 28-334 578.488zM457.6 182.2h70.2l-10.1 88.2 80.7-37 21.8 66.7-87.3 17.6 59.9 65.8-56.4 40.7-43.8-76.8-43.8 76.8-56.4-40.7 59.9-65.8-87.3-17.6 21.8-66.7 80.7 37-9.9-88.2z"/>

</symbol>
<symbol id="logo" viewBox="0 0 4561.1 606.5">
  <path d="M1049.7 195.2c10.8 3.8 20.9 9.7 30.2 17.5l-24.8 29.8c-12.8-10.5-27-15.7-42.5-15.7-9.3 0-17.7 2.6-25 7.8-7.3 5.2-13.1 13.4-17.4 24.5-4.3 11.1-6.4 25-6.4 41.8 0 24.7 4.5 43.1 13.4 55.2 8.9 12.1 21 18.2 36.3 18.2 6.7 0 12.7-.9 18.1-2.6 5.4-1.7 10.2-3.9 14.4-6.5 4.2-2.6 8.8-5.9 13.7-9.9l22.9 29.2c-19.4 19.2-43.3 28.8-71.8 28.8-19.5 0-36.7-4.3-51.6-12.9s-26.6-21.4-34.9-38.2c-8.4-16.9-12.5-37.3-12.5-61.2 0-23.2 4.3-43.2 13-60 8.7-16.8 20.5-29.6 35.6-38.4 15.1-8.8 32.1-13.2 51.1-13.2 14.7 0 27.4 2 38.2 5.8zM1250.3 380.9c-7 10.2-17 18.2-30.1 23.8-13.1 5.7-28.5 8.5-46.2 8.5-35.3 0-63.4-10.3-84.3-30.8l25.5-28.3c16.3 14.4 35.5 21.5 57.5 21.5 10.8 0 19.4-2.3 25.8-6.9 6.5-4.6 9.7-11 9.7-19.2 0-5.2-1.2-9.6-3.5-13.2-2.4-3.5-6.3-6.7-11.8-9.6-5.5-2.9-13.3-5.8-23.5-8.9-16.7-5.1-30.1-10.8-40.2-16.9-10.1-6.2-17.4-13.2-21.9-21.2-4.6-8-6.8-17.5-6.8-28.5 0-12.6 3.6-23.6 10.7-33 7.1-9.4 16.8-16.5 29-21.5 12.2-4.9 25.7-7.4 40.6-7.4 31.7 0 57.2 9.2 76.5 27.5l-23.8 27.4c-7.2-5.9-14.9-10.4-23.2-13.4-8.3-3-16.7-4.5-25.5-4.5-9.8 0-17.6 1.8-23.4 5.5-5.7 3.6-8.6 8.8-8.6 15.5 0 4.6 1.3 8.4 3.8 11.5 2.6 3 6.8 5.8 12.8 8.5s15 5.8 27 9.6c14.4 4.4 26.2 9.5 35.4 15.2 9.2 5.7 16.3 12.9 21.3 21.5 5 8.7 7.5 19.4 7.5 32.1.1 13.3-3.4 25-10.3 35.2zM1434.9 380.9c-7 10.2-17 18.2-30.1 23.8-13.1 5.7-28.5 8.5-46.2 8.5-35.3 0-63.4-10.3-84.3-30.8l25.5-28.3c16.3 14.4 35.5 21.5 57.5 21.5 10.8 0 19.4-2.3 25.8-6.9 6.5-4.6 9.7-11 9.7-19.2 0-5.2-1.2-9.6-3.5-13.2-2.4-3.5-6.3-6.7-11.8-9.6-5.5-2.9-13.3-5.8-23.5-8.9-16.7-5.1-30.1-10.8-40.2-16.9-10.1-6.2-17.4-13.2-21.9-21.2-4.6-8-6.8-17.5-6.8-28.5 0-12.6 3.6-23.6 10.7-33 7.1-9.4 16.8-16.5 29-21.5 12.2-4.9 25.7-7.4 40.6-7.4 31.7 0 57.2 9.2 76.5 27.5l-23.8 27.4c-7.2-5.9-14.9-10.4-23.2-13.4-8.3-3-16.7-4.5-25.5-4.5-9.8 0-17.6 1.8-23.4 5.5-5.7 3.6-8.6 8.8-8.6 15.5 0 4.6 1.3 8.4 3.8 11.5 2.6 3 6.8 5.8 12.8 8.5s15 5.8 27 9.6c14.4 4.4 26.2 9.5 35.4 15.2 9.2 5.7 16.3 12.9 21.3 21.5 5 8.7 7.5 19.4 7.5 32.1.1 13.3-3.3 25-10.3 35.2zM1783.3 183.4c-9.5 0-16.7 1.2-21.5 3.7-4.8 2.5-7.2 6.9-7.2 13.2 0 1.1 0 2 .2 2.6l4.8 45.4c.3 2.8.5 5.3.5 7.7 0 13.5-4.2 23.7-12.5 30.5-8.4 6.8-20.3 11.4-35.8 13.8 16.1 2.4 28.2 6.8 36.2 13.4 8 6.6 12.1 16.7 12.1 30.3 0 2.6-.2 5.3-.5 8.3l-4.8 45.4c-.1.6-.2 1.5-.2 2.6 0 6.4 2.4 10.8 7.2 13.2 4.8 2.5 12 3.7 21.5 3.7V451c-17.5 0-31.7-1.5-42.5-4.6-10.8-3.1-18.8-8.1-23.9-14.9-5.1-6.9-7.7-16-7.7-27.4 0-2.1.2-5.3.6-9.8l4.6-44c.1-.9.2-2.3.2-4 0-9.5-3.7-16.3-11.2-20.3-7.4-4-17.8-6-31.2-6v-39.4c13.2 0 23.6-2 31.1-6s11.2-10.8 11.2-20.3c0-1.7-.1-3.1-.2-4l-4.6-43.7c-.4-3.3-.6-6.8-.6-10.5 0-11.4 2.6-20.5 7.8-27.2 5.2-6.8 13.2-11.7 23.9-14.8 10.8-3.1 24.9-4.6 42.5-4.6v33.9zM2170.6 231.7h-44V371h44v37.1h-138.5V371h44V231.7h-44v-36.9h138.5v36.9zM2215.2 244.7h42.5l3.4 18.9c7.4-8.3 15.1-14.4 23.2-18.4 8.1-3.9 17.3-5.9 27.5-5.9 14 0 25 4.3 33 12.8 7.9 8.6 11.9 20.5 11.9 35.9v120h-48.6V302c0-6.8-.5-12.1-1.5-16-1-3.9-2.6-6.7-4.8-8.4-2.3-1.7-5.4-2.5-9.4-2.5-4.9 0-9.7 1.6-14.4 4.7-4.7 3.1-9.4 7.8-14.2 13.9V408h-48.6V244.7zM2723.9 295.8c-7.8 9.7-18.2 17.1-31.1 22.2l55.8 90h-57.1l-46.2-81.5H2631V408h-50.5V194.8h67.1c29.2 0 51.2 5.3 65.8 15.9 14.7 10.6 22 26.9 22 48.8.2 14.6-3.7 26.6-11.5 36.3zm-49.2-58.4c-5.9-4.8-14.9-7.2-26.8-7.2h-16.8v61.7h18.8c11.2 0 19.6-2.6 25.2-7.8s8.5-13.4 8.5-24.5c0-10.1-3-17.5-8.9-22.2zM2823.8 368.8c6.9 6.1 15.7 9.1 26.6 9.1 13.8 0 27.8-4.5 41.8-13.5l19.5 26.5c-8.1 7-17.7 12.5-28.7 16.5s-23.2 6-36.5 6c-18.3 0-33.7-3.6-46.5-10.9-12.7-7.3-22.3-17.5-28.8-30.5-6.5-13.1-9.7-28.2-9.7-45.3 0-16.3 3.1-31.1 9.4-44.3s15.4-23.7 27.4-31.4c12-7.7 26.3-11.5 42.9-11.5 15.5 0 29 3.3 40.5 10s20.4 16.3 26.7 28.9c6.3 12.6 9.4 27.6 9.4 44.9 0 6.7-.3 12.5-.9 17.4h-105.8c1.6 12.6 5.8 22.1 12.7 28.1zm-3.8-87.2c-5.3 6.5-8.4 16.4-9.5 29.7h60c-.3-26.3-10.1-39.4-29.2-39.4-8.9 0-16 3.2-21.3 9.7zM3093.6 374.3c1.6 2.8 4.4 5 8.3 6.4l-10 32c-9.9-.9-18.2-3.1-24.7-6.5s-11.6-8.4-15.3-15c-6.1 7.3-13.9 12.8-23.5 16.5-9.6 3.7-19.7 5.6-30.4 5.6-11.1 0-20.8-2.2-29.2-6.5-8.4-4.4-14.8-10.4-19.3-18.2-4.5-7.7-6.8-16.6-6.8-26.7 0-11.7 3.1-21.7 9.4-30 6.3-8.3 15.3-14.6 27.2-19 11.9-4.4 26.2-6.5 42.9-6.5h22v-6.2c0-16.7-10.8-25.1-32.3-25.1-5.4 0-12.3.8-20.5 2.3-8.3 1.5-16.3 3.6-24.2 6.3l-11.2-32.3c10.3-3.9 21.1-6.9 32.5-9 11.4-2.1 21.8-3.2 31.2-3.2 24 0 41.9 4.9 53.7 14.6 11.8 9.7 17.7 24.1 17.7 43.1v64c.1 6.1.9 10.6 2.5 13.4zm-62-.6c5.6-3.2 9.9-7.6 12.8-13.2V334h-12c-13.3 0-23.2 2.1-29.7 6.2s-9.7 10.2-9.7 18.3c0 6.4 1.9 11.3 5.8 14.8 3.8 3.5 9.2 5.2 16.1 5.2 5.5 0 11.1-1.6 16.7-4.8zM3223.5 356.7c0 6.4 1.8 11 5.5 13.9 3.6 2.9 8.8 4.4 15.6 4.4 7.4 0 15.1-1.6 23.1-4.9l11.7 32.5c-13.6 7.2-29.4 10.8-47.2 10.8-19.2 0-33.5-5.5-43-16.5s-14.2-26.4-14.2-46.1V213h-48.2v-33.2h96.8v176.9zM3514.5 194.8h50.5v173.4h92.5l-5.2 39.8h-137.7V194.8zM3791.9 374.8h41.5V408H3697v-33.2h46.3v-96.9h-44.8v-33.2h93.4v130.1zm-14.6-212.1c4.3 2.4 7.7 5.7 10.2 9.8 2.5 4.2 3.7 8.8 3.7 13.9s-1.2 9.8-3.7 14c-2.5 4.2-5.9 7.5-10.2 9.9-4.4 2.4-9.3 3.6-14.7 3.6-5.5 0-10.5-1.2-14.9-3.6-4.4-2.4-7.8-5.7-10.3-9.9-2.5-4.2-3.7-8.9-3.7-14s1.2-9.8 3.7-13.9c2.5-4.2 5.9-7.4 10.3-9.8 4.4-2.4 9.4-3.6 14.9-3.6s10.4 1.2 14.7 3.6zM4036.7 185l-13.4 31.7c-10.9-4.1-22.6-6.2-35.1-6.2-9.6 0-16.5 1.7-20.7 5.2-4.2 3.5-6.2 9.3-6.2 17.4V255h53.2l-5.4 33.7h-47.8v119.4H3913V288.7h-34.3V255h34.3v-23.7c0-10.9 2.6-20.6 7.8-29.2 5.2-8.6 12.9-15.3 23.1-20.2 10.2-4.9 22.5-7.3 36.8-7.3 21.2.1 39.9 3.5 56 10.4zM4116.1 368.8c6.9 6.1 15.7 9.1 26.6 9.1 13.8 0 27.8-4.5 41.8-13.5l19.5 26.5c-8.1 7-17.7 12.5-28.7 16.5s-23.2 6-36.5 6c-18.3 0-33.7-3.6-46.5-10.9-12.7-7.3-22.3-17.5-28.8-30.5-6.5-13.1-9.7-28.2-9.7-45.3 0-16.3 3.1-31.1 9.4-44.3s15.4-23.7 27.4-31.4c12-7.7 26.3-11.5 42.9-11.5 15.5 0 29 3.3 40.5 10s20.4 16.3 26.7 28.9c6.3 12.6 9.4 27.6 9.4 44.9 0 6.7-.3 12.5-.9 17.4h-105.8c1.6 12.6 5.8 22.1 12.7 28.1zm-3.8-87.2c-5.3 6.5-8.4 16.4-9.5 29.7h60c-.3-26.3-10.1-39.4-29.2-39.4-8.9 0-16 3.2-21.3 9.7zM4492.6 154.2c10.8 3.1 18.8 8.1 23.9 14.9 5.1 6.9 7.7 16 7.7 27.4 0 2.1-.2 5.3-.6 9.8l-4.6 44c-.1.9-.2 2.3-.2 4 0 9.5 3.7 16.3 11.2 20.3 7.4 4 17.8 6 31.2 6V320c-13.2 0-23.6 2-31.1 6s-11.2 10.8-11.2 20.3c0 1.7.1 3.1.2 4l4.6 43.7c.4 3.3.6 6.8.6 10.5 0 11.4-2.6 20.5-7.8 27.2-5.2 6.8-13.2 11.7-23.9 14.8-10.8 3.1-24.9 4.6-42.5 4.6v-33.8c9.5 0 16.7-1.2 21.5-3.7 4.8-2.5 7.2-6.9 7.2-13.2 0-1.1-.1-2-.2-2.6l-4.8-45.4c-.3-2.8-.5-5.3-.5-7.7 0-13.6 4.2-23.8 12.5-30.6 8.4-6.8 20.3-11.3 35.9-13.7-16.2-2.4-28.3-6.8-36.4-13.5-8.1-6.6-12.1-16.7-12.1-30.2 0-2.7.2-5.4.5-8.3l4.8-45.4c.1-.6.2-1.5.2-2.6 0-6.4-2.4-10.8-7.2-13.2-4.8-2.5-12-3.7-21.5-3.7v-33.8c17.6-.1 31.8 1.4 42.6 4.5z"/>
  <path fill="#ff1493" d="M-142.8 275.3h668v56h-668z" transform="rotate(-60 191.251 303.263)"/>
  <path fill="#ff1493" d="M457.6 182.3h70.2l-10.1 88.2 80.7-37 21.8 66.7-87.3 17.6 59.9 65.8-56.4 40.7-43.8-76.8-43.8 76.8-56.4-40.7 59.9-65.8-87.3-17.6 21.8-66.7 80.7 37-9.9-88.2z"/>

</symbol>
<symbol id="mastodon" viewBox="0 0 280 300.2"><path d="M280 83c.2 20.7 0 60.3-2.8 80.3-6.4 81.3-132.9 74-191 62.7-5.5-1.1-6.2-.3-5.5 5.2 5 49.3 69.6 39.3 104.6 33.1 7.1-1.7 7.5-1.3 7.8 6.2.4 17 1.3 19.4-16.2 23.6-21.7 6.6-44 6.2-66.4 5.9-12.5-2.4-25.2-3.9-37.7-7C-14.4 268.4 2.2 157.4 0 86.6 8.2 15.7 52 4.3 115 0c70.3.5 153.2-6.8 165 83zm-51 52.9h-.1c0-13 .4-26-.1-39 .9-46.3-63-64-84.2-21.7-4.2 8-4.8 8-9.2 0-5.8-10.4-13.5-18.5-25.3-22-75.3-17-57.6 77.4-59.1 123.6-.6 9 16.9 3.7 22.7 5.1 7 0 7.4-.4 7.4-7.4 0-21.8 0-43.7.1-65.5-.5-12.5 3.2-26.5 17.8-27.6 34.9-2.5 24.4 41.7 26 63.8 0 6.2.5 6.7 6.5 6.7 5.7.1 11.3.1 17 0 5.9-.1 6.5-.6 6.5-6.7 1.6-22.2-8.9-66.9 26.5-63.7 14.3 1.4 17.9 15.3 17.5 27.6 0 22.2.1 44.3-.1 66.5-1 10.9 16.5 4.9 23.4 6.4 6.1-.1 6.7-.6 6.7-6.5.1-13.3 0-26.5 0-39.6z"/>
</symbol>
<symbol id="pinterest" viewBox="0 0 39 50">
  <path d="M20.4 0C6.9 0 0 9.7 0 17.9c0 4.9 1.9 9.3 5.9 10.9.7.3 1.2 0 1.4-.7.1-.5.4-1.8.6-2.3.2-.7.1-1-.4-1.6-1.2-1.4-1.9-3.1-1.9-5.6 0-7.2 5.4-13.7 14.1-13.7 7.7 0 11.9 4.7 11.9 11 0 8.2-3.6 15.2-9.1 15.2-3 0-5.2-2.5-4.5-5.5.9-3.6 2.5-7.5 2.5-10.1 0-2.3-1.3-4.3-3.9-4.3-3.1 0-5.5 3.2-5.5 7.4 0 2.7.9 4.5.9 4.5S8.9 36.3 8.4 38.6c-1.1 4.6-.2 10.3-.1 10.9 0 .3.5.4.7.2.3-.4 3.9-4.9 5.2-9.4.3-1.3 2-7.9 2-7.9 1 1.9 3.9 3.6 7 3.6 9.2 0 15.4-8.4 15.4-19.6C38.5 7.9 31.4 0 20.4 0"/>

</symbol>
<symbol id="twitter" viewBox="0 0 50 42">
  <path d="M44.9 12.1c0 13.6-10.3 29.2-29.2 29.2-5.8 0-11.2-1.7-15.7-4.6.8.1 1.6.1 2.4.1 4.8 0 9.2-1.6 12.7-4.4-4.5-.1-8.3-3.1-9.6-7.1.6.1 1.3.2 1.9.2.9 0 1.8-.1 2.7-.4-4.6-.9-8.1-5-8.1-10V15c1.4.8 3 1.2 4.6 1.3-2.8-1.8-4.6-5-4.6-8.6 0-1.9.5-3.6 1.4-5.2C8.5 8.7 16 12.8 24.5 13.2c-.2-.8-.3-1.5-.3-2.3C24.2 5.2 28.8.6 34.5.6c2.9 0 5.6 1.2 7.5 3.2 2.3-.5 4.5-1.3 6.5-2.5-.8 2.4-2.4 4.4-4.5 5.7 2.1-.2 4.1-.8 5.9-1.6-1.4 2.1-3.1 3.9-5.1 5.3.1.5.1 1 .1 1.4z"/>

</symbol></svg>